<?xml version="1.0" encoding="UTF-8" standalone="no"?>
<!DOCTYPE svg PUBLIC "-//W3C//DTD SVG 1.0//EN"
 "http://www.w3.org/TR/2001/REC-SVG-20010904/DTD/svg10.dtd" [
 <!ATTLIST svg xmlns:xlink CDATA #FIXED "http://www.w3.org/1999/xlink">
]>
<!-- Generated by Graphviz version 2.20.2 (Tue Mar &#160;2 20:02:18 UTC 2010)
     For user: (nsvo) Nam Sy Vo,,, -->
<!-- Title: FirstlevelCluster Pages: 1 -->
<svg width="356pt" height="430pt"
 viewBox="0.00 0.00 356.00 430.00" xmlns="http://www.w3.org/2000/svg" xmlns:xlink="http://www.w3.org/1999/xlink">
<g id="graph0" class="graph" transform="scale(1 1) rotate(0) translate(4 426)">
<title>FirstlevelCluster</title>
<polygon style="fill:white;stroke:white;" points="-4,4 -4,-426 352,-426 352,4 -4,4"/>
<g id="cluster2" class="cluster"><title>cluster_0</title>
<polygon style="fill:none;stroke:black;" points="1,-0 1,-413 347,-413 347,-0 1,-0"/>
<text text-anchor="middle" x="174" y="-396.9" style="font-family:Times New Roman;font-size:14.00;">&gt;C10~C30</text>
</g>
<g id="cluster3" class="cluster"><title>cluster_2</title>
<polygon style="fill:lightgrey;stroke:black;" points="10,-9 10,-187 176,-187 176,-9 10,-9"/>
<text text-anchor="middle" x="93" y="-170.9" style="font-family:Times New Roman;font-size:14.00;">100001</text>
</g>
<g id="cluster4" class="cluster"><title>cluster_3</title>
<polygon style="fill:lightgrey;stroke:black;" points="200,-8 200,-189 339,-189 339,-8 200,-8"/>
<text text-anchor="middle" x="269" y="-172.9" style="font-family:Times New Roman;font-size:14.00;">000001</text>
</g>
<g id="cluster5" class="cluster"><title>cluster_4</title>
<polygon style="fill:lightgrey;stroke:black;" points="200,-198 200,-379 339,-379 339,-198 200,-198"/>
<text text-anchor="middle" x="269" y="-362.9" style="font-family:Times New Roman;font-size:14.00;">200001</text>
</g>
<!-- VEH2 -->
<g id="node3" class="node"><title>VEH2</title>
<text text-anchor="middle" x="46" y="-75.6" style="font-family:Times New Roman;font-size:16.00;">VEH</text>
</g>
<!-- C102 -->
<g id="node5" class="node"><title>C102</title>
<text text-anchor="middle" x="107" y="-31.6" style="font-family:Times New Roman;font-size:16.00;">C10</text>
</g>
<!-- VEH2&#45;&gt;C102 -->
<g id="edge4" class="edge"><title>VEH2&#45;&gt;C102</title>
<path style="fill:none;stroke:black;" d="M71,-62C72,-61 73,-61 74,-60"/>
<polygon style="fill:black;stroke:black;" points="76.1,-62.8 82,-54 71.9,-57.2 76.1,-62.8"/>
</g>
<!-- C302 -->
<g id="node6" class="node"><title>C302</title>
<text text-anchor="middle" x="79" y="-130.6" style="font-family:Times New Roman;font-size:16.00;">C30</text>
</g>
<!-- VEH2&#45;&gt;C302 -->
<g id="edge6" class="edge"><title>VEH2&#45;&gt;C302</title>
<path style="fill:none;stroke:black;" d="M57,-98C59,-101 61,-105 63,-108"/>
<polygon style="fill:black;stroke:black;" points="60.084,-109.958 68,-117 66.2031,-106.559 60.084,-109.958"/>
</g>
<!-- C32 -->
<g id="node4" class="node"><title>C32</title>
<text text-anchor="middle" x="140" y="-85.6" style="font-family:Times New Roman;font-size:16.00;">C3</text>
</g>
<!-- C32&#45;&gt;C102 -->
<g id="edge8" class="edge"><title>C32&#45;&gt;C102</title>
<path style="fill:none;stroke:black;" d="M129,-72C127,-69 125,-66 123,-63"/>
<polygon style="fill:black;stroke:black;" points="125.916,-61.0418 118,-54 119.797,-64.4414 125.916,-61.0418"/>
</g>
<!-- C32&#45;&gt;C302 -->
<g id="edge10" class="edge"><title>C32&#45;&gt;C302</title>
<path style="fill:none;stroke:black;" d="M116,-108C115,-109 114,-110 112,-111"/>
<polygon style="fill:black;stroke:black;" points="109.9,-108.2 104,-117 114.1,-113.8 109.9,-108.2"/>
</g>
<!-- VEH3 -->
<g id="node12" class="node"><title>VEH3</title>
<text text-anchor="middle" x="236" y="-79.6" style="font-family:Times New Roman;font-size:16.00;">VEH</text>
</g>
<!-- C33 -->
<g id="node13" class="node"><title>C33</title>
<text text-anchor="middle" x="303" y="-88.6" style="font-family:Times New Roman;font-size:16.00;">C3</text>
</g>
<!-- VEH3&#45;&gt;C33 -->
<g id="edge13" class="edge"><title>VEH3&#45;&gt;C33</title>
<path style="fill:none;stroke:black;" d="M263,-88C264,-88 265,-88 266,-88"/>
<polygon style="fill:black;stroke:black;" points="265.701,-91.4875 276,-89 266.398,-84.5222 265.701,-91.4875"/>
</g>
<!-- C103 -->
<g id="node14" class="node"><title>C103</title>
<text text-anchor="middle" x="279" y="-31.6" style="font-family:Times New Roman;font-size:16.00;">C10</text>
</g>
<!-- VEH3&#45;&gt;C103 -->
<g id="edge15" class="edge"><title>VEH3&#45;&gt;C103</title>
<path style="fill:none;stroke:black;" d="M252,-66C253,-65 254,-63 255,-62"/>
<polygon style="fill:black;stroke:black;" points="258.049,-63.8306 262,-54 252.781,-59.221 258.049,-63.8306"/>
</g>
<!-- C303 -->
<g id="node15" class="node"><title>C303</title>
<text text-anchor="middle" x="260" y="-132.6" style="font-family:Times New Roman;font-size:16.00;">C30</text>
</g>
<!-- VEH3&#45;&gt;C303 -->
<g id="edge17" class="edge"><title>VEH3&#45;&gt;C303</title>
<path style="fill:none;stroke:black;" d="M244,-102C245,-105 246,-107 247,-110"/>
<polygon style="fill:black;stroke:black;" points="243.74,-111.283 251,-119 250.137,-108.44 243.74,-111.283"/>
</g>
<!-- C33&#45;&gt;C103 -->
<g id="edge19" class="edge"><title>C33&#45;&gt;C103</title>
<path style="fill:none;stroke:black;" d="M295,-75C293,-71 292,-67 290,-64"/>
<polygon style="fill:black;stroke:black;" points="292.964,-61.9849 286,-54 286.464,-64.5847 292.964,-61.9849"/>
</g>
<!-- C33&#45;&gt;C303 -->
<g id="edge21" class="edge"><title>C33&#45;&gt;C303</title>
<path style="fill:none;stroke:black;" d="M285,-111C285,-111 284,-112 284,-112"/>
<polygon style="fill:black;stroke:black;" points="281.596,-109.454 277,-119 286.546,-114.404 281.596,-109.454"/>
</g>
<!-- VEH4 -->
<g id="node22" class="node"><title>VEH4</title>
<text text-anchor="middle" x="236" y="-269.6" style="font-family:Times New Roman;font-size:16.00;">VEH</text>
</g>
<!-- C104 -->
<g id="node24" class="node"><title>C104</title>
<text text-anchor="middle" x="279" y="-221.6" style="font-family:Times New Roman;font-size:16.00;">C10</text>
</g>
<!-- VEH4&#45;&gt;C104 -->
<g id="edge24" class="edge"><title>VEH4&#45;&gt;C104</title>
<path style="fill:none;stroke:black;" d="M252,-256C253,-255 254,-253 255,-252"/>
<polygon style="fill:black;stroke:black;" points="258.049,-253.831 262,-244 252.781,-249.221 258.049,-253.831"/>
</g>
<!-- C304 -->
<g id="node25" class="node"><title>C304</title>
<text text-anchor="middle" x="260" y="-322.6" style="font-family:Times New Roman;font-size:16.00;">C30</text>
</g>
<!-- VEH4&#45;&gt;C304 -->
<g id="edge26" class="edge"><title>VEH4&#45;&gt;C304</title>
<path style="fill:none;stroke:black;" d="M244,-292C245,-295 246,-297 247,-300"/>
<polygon style="fill:black;stroke:black;" points="243.74,-301.283 251,-309 250.137,-298.44 243.74,-301.283"/>
</g>
<!-- C34 -->
<g id="node23" class="node"><title>C34</title>
<text text-anchor="middle" x="303" y="-278.6" style="font-family:Times New Roman;font-size:16.00;">C3</text>
</g>
<!-- C34&#45;&gt;VEH4 -->
<g id="edge28" class="edge"><title>C34&#45;&gt;VEH4</title>
<path style="fill:none;stroke:black;" d="M276,-279C275,-279 274,-279 273,-279"/>
<polygon style="fill:black;stroke:black;" points="273.299,-275.512 263,-278 272.602,-282.478 273.299,-275.512"/>
</g>
<!-- C34&#45;&gt;C104 -->
<g id="edge30" class="edge"><title>C34&#45;&gt;C104</title>
<path style="fill:none;stroke:black;" d="M295,-265C293,-261 292,-257 290,-254"/>
<polygon style="fill:black;stroke:black;" points="292.964,-251.985 286,-244 286.464,-254.585 292.964,-251.985"/>
</g>
<!-- C34&#45;&gt;C304 -->
<g id="edge32" class="edge"><title>C34&#45;&gt;C304</title>
<path style="fill:none;stroke:black;" d="M285,-301C285,-301 284,-302 284,-302"/>
<polygon style="fill:black;stroke:black;" points="281.596,-299.454 277,-309 286.546,-304.404 281.596,-299.454"/>
</g>
</g>
</svg>
