<?xml version="1.0" encoding="UTF-8" standalone="no"?>
<!DOCTYPE svg PUBLIC "-//W3C//DTD SVG 1.0//EN"
 "http://www.w3.org/TR/2001/REC-SVG-20010904/DTD/svg10.dtd" [
 <!ATTLIST svg xmlns:xlink CDATA #FIXED "http://www.w3.org/1999/xlink">
]>
<!-- Generated by Graphviz version 2.20.2 (Tue Mar &#160;2 20:02:18 UTC 2010)
     For user: (nsvo) Nam Sy Vo,,, -->
<!-- Title: FirstlevelCluster Pages: 1 -->
<svg width="356pt" height="240pt"
 viewBox="0.00 0.00 356.00 240.00" xmlns="http://www.w3.org/2000/svg" xmlns:xlink="http://www.w3.org/1999/xlink">
<g id="graph0" class="graph" transform="scale(1 1) rotate(0) translate(4 236)">
<title>FirstlevelCluster</title>
<polygon style="fill:white;stroke:white;" points="-4,4 -4,-236 352,-236 352,4 -4,4"/>
<g id="cluster2" class="cluster"><title>cluster_0</title>
<polygon style="fill:none;stroke:black;" points="1,-0 1,-223 347,-223 347,-0 1,-0"/>
<text text-anchor="middle" x="174" y="-206.9" style="font-family:Times New Roman;font-size:14.00;">C10~C30&gt;</text>
</g>
<g id="cluster3" class="cluster"><title>cluster_2</title>
<polygon style="fill:lightgrey;stroke:black;" points="10,-9 10,-187 176,-187 176,-9 10,-9"/>
<text text-anchor="middle" x="93" y="-170.9" style="font-family:Times New Roman;font-size:14.00;">122221</text>
</g>
<g id="cluster4" class="cluster"><title>cluster_3</title>
<polygon style="fill:lightgrey;stroke:black;" points="200,-8 200,-189 339,-189 339,-8 200,-8"/>
<text text-anchor="middle" x="269" y="-172.9" style="font-family:Times New Roman;font-size:14.00;">222221</text>
</g>
<!-- VEH2 -->
<g id="node3" class="node"><title>VEH2</title>
<text text-anchor="middle" x="46" y="-75.6" style="font-family:Times New Roman;font-size:16.00;">VEH</text>
</g>
<!-- C32 -->
<g id="node4" class="node"><title>C32</title>
<text text-anchor="middle" x="140" y="-85.6" style="font-family:Times New Roman;font-size:16.00;">C3</text>
</g>
<!-- C102 -->
<g id="node5" class="node"><title>C102</title>
<text text-anchor="middle" x="107" y="-31.6" style="font-family:Times New Roman;font-size:16.00;">C10</text>
</g>
<!-- C102&#45;&gt;VEH2 -->
<g id="edge4" class="edge"><title>C102&#45;&gt;VEH2</title>
<path style="fill:none;stroke:black;" d="M82,-54C81,-55 80,-55 79,-56"/>
<polygon style="fill:black;stroke:black;" points="76.9,-53.2 71,-62 81.1,-58.8 76.9,-53.2"/>
</g>
<!-- C102&#45;&gt;C32 -->
<g id="edge6" class="edge"><title>C102&#45;&gt;C32</title>
<path style="fill:none;stroke:black;" d="M118,-54C120,-57 122,-60 124,-63"/>
<polygon style="fill:black;stroke:black;" points="121.084,-64.9582 129,-72 127.203,-61.5586 121.084,-64.9582"/>
</g>
<!-- C302 -->
<g id="node6" class="node"><title>C302</title>
<text text-anchor="middle" x="79" y="-130.6" style="font-family:Times New Roman;font-size:16.00;">C30</text>
</g>
<!-- C302&#45;&gt;VEH2 -->
<g id="edge8" class="edge"><title>C302&#45;&gt;VEH2</title>
<path style="fill:none;stroke:black;" d="M68,-117C66,-114 64,-110 62,-107"/>
<polygon style="fill:black;stroke:black;" points="64.916,-105.042 57,-98 58.7969,-108.441 64.916,-105.042"/>
</g>
<!-- C302&#45;&gt;C32 -->
<g id="edge10" class="edge"><title>C302&#45;&gt;C32</title>
<path style="fill:none;stroke:black;" d="M103,-117C104,-116 106,-115 107,-114"/>
<polygon style="fill:black;stroke:black;" points="109.1,-116.8 115,-108 104.9,-111.2 109.1,-116.8"/>
</g>
<!-- VEH3 -->
<g id="node12" class="node"><title>VEH3</title>
<text text-anchor="middle" x="236" y="-79.6" style="font-family:Times New Roman;font-size:16.00;">VEH</text>
</g>
<!-- C33 -->
<g id="node13" class="node"><title>C33</title>
<text text-anchor="middle" x="303" y="-88.6" style="font-family:Times New Roman;font-size:16.00;">C3</text>
</g>
<!-- C33&#45;&gt;VEH3 -->
<g id="edge13" class="edge"><title>C33&#45;&gt;VEH3</title>
<path style="fill:none;stroke:black;" d="M276,-89C275,-89 274,-89 273,-89"/>
<polygon style="fill:black;stroke:black;" points="273.299,-85.5125 263,-88 272.602,-92.4778 273.299,-85.5125"/>
</g>
<!-- C103 -->
<g id="node14" class="node"><title>C103</title>
<text text-anchor="middle" x="279" y="-31.6" style="font-family:Times New Roman;font-size:16.00;">C10</text>
</g>
<!-- C103&#45;&gt;VEH3 -->
<g id="edge15" class="edge"><title>C103&#45;&gt;VEH3</title>
<path style="fill:none;stroke:black;" d="M263,-54C262,-55 261,-57 260,-58"/>
<polygon style="fill:black;stroke:black;" points="256.951,-56.1694 253,-66 262.219,-60.779 256.951,-56.1694"/>
</g>
<!-- C103&#45;&gt;C33 -->
<g id="edge17" class="edge"><title>C103&#45;&gt;C33</title>
<path style="fill:none;stroke:black;" d="M287,-54C289,-58 290,-62 292,-65"/>
<polygon style="fill:black;stroke:black;" points="289.036,-67.0151 296,-75 295.536,-64.4153 289.036,-67.0151"/>
</g>
<!-- C303 -->
<g id="node15" class="node"><title>C303</title>
<text text-anchor="middle" x="260" y="-132.6" style="font-family:Times New Roman;font-size:16.00;">C30</text>
</g>
<!-- C303&#45;&gt;VEH3 -->
<g id="edge19" class="edge"><title>C303&#45;&gt;VEH3</title>
<path style="fill:none;stroke:black;" d="M252,-119C251,-117 250,-114 249,-111"/>
<polygon style="fill:black;stroke:black;" points="252.26,-109.717 245,-102 245.863,-112.56 252.26,-109.717"/>
</g>
<!-- C303&#45;&gt;C33 -->
<g id="edge21" class="edge"><title>C303&#45;&gt;C33</title>
<path style="fill:none;stroke:black;" d="M278,-119C278,-119 279,-118 279,-118"/>
<polygon style="fill:black;stroke:black;" points="281.404,-120.546 286,-111 276.454,-115.596 281.404,-120.546"/>
</g>
</g>
</svg>
