<?xml version="1.0" encoding="UTF-8" standalone="no"?>
<!DOCTYPE svg PUBLIC "-//W3C//DTD SVG 1.0//EN"
 "http://www.w3.org/TR/2001/REC-SVG-20010904/DTD/svg10.dtd" [
 <!ATTLIST svg xmlns:xlink CDATA #FIXED "http://www.w3.org/1999/xlink">
]>
<!-- Generated by Graphviz version 2.20.2 (Tue Mar &#160;2 20:02:18 UTC 2010)
     For user: (nsvo) Nam Sy Vo,,, -->
<!-- Title: FirstlevelCluster Pages: 1 -->
<svg width="814pt" height="844pt"
 viewBox="0.00 0.00 814.00 844.00" xmlns="http://www.w3.org/2000/svg" xmlns:xlink="http://www.w3.org/1999/xlink">
<g id="graph0" class="graph" transform="scale(1 1) rotate(0) translate(4 840)">
<title>FirstlevelCluster</title>
<polygon style="fill:white;stroke:white;" points="-4,4 -4,-840 810,-840 810,4 -4,4"/>
<g id="cluster2" class="cluster"><title>cluster_0</title>
<polygon style="fill:none;stroke:black;" points="1,-0 1,-827 805,-827 805,-0 1,-0"/>
<text text-anchor="middle" x="403" y="-810.9" style="font-family:Times New Roman;font-size:14.00;">C10&gt;</text>
</g>
<g id="cluster3" class="cluster"><title>cluster_2</title>
<polygon style="fill:lightgrey;stroke:black;" points="210,-209 210,-403 387,-403 387,-209 210,-209"/>
<text text-anchor="middle" x="298" y="-386.9" style="font-family:Times New Roman;font-size:14.00;">121210</text>
</g>
<g id="cluster4" class="cluster"><title>cluster_3</title>
<polygon style="fill:none;stroke:black;" points="410,-568 410,-753 547,-753 547,-568 410,-568"/>
<text text-anchor="middle" x="478" y="-736.9" style="font-family:Times New Roman;font-size:14.00;">121200</text>
</g>
<g id="cluster5" class="cluster"><title>cluster_4</title>
<polygon style="fill:none;stroke:black;" points="410,-209 410,-367 606,-367 606,-209 410,-209"/>
<text text-anchor="middle" x="508" y="-350.9" style="font-family:Times New Roman;font-size:14.00;">122210</text>
</g>
<g id="cluster6" class="cluster"><title>cluster_5</title>
<polygon style="fill:none;stroke:black;" points="50,-568 50,-757 189,-757 189,-568 50,-568"/>
<text text-anchor="middle" x="119" y="-740.9" style="font-family:Times New Roman;font-size:14.00;">221210</text>
</g>
<g id="cluster7" class="cluster"><title>cluster_6</title>
<polygon style="fill:lightgrey;stroke:black;" points="410,-29 410,-185 597,-185 597,-29 410,-29"/>
<text text-anchor="middle" x="503" y="-168.9" style="font-family:Times New Roman;font-size:14.00;">120200</text>
</g>
<g id="cluster8" class="cluster"><title>cluster_7</title>
<polygon style="fill:none;stroke:black;" points="410,-389 410,-547 606,-547 606,-389 410,-389"/>
<text text-anchor="middle" x="508" y="-530.9" style="font-family:Times New Roman;font-size:14.00;">120210</text>
</g>
<g id="cluster9" class="cluster"><title>cluster_8</title>
<polygon style="fill:none;stroke:black;" points="250,-608 250,-793 387,-793 387,-608 250,-608"/>
<text text-anchor="middle" x="318" y="-776.9" style="font-family:Times New Roman;font-size:14.00;">121220</text>
</g>
<g id="cluster10" class="cluster"><title>cluster_9</title>
<polygon style="fill:lightgrey;stroke:black;" points="210,-408 210,-593 391,-593 391,-408 210,-408"/>
<text text-anchor="middle" x="300" y="-576.9" style="font-family:Times New Roman;font-size:14.00;">222210</text>
</g>
<g id="cluster11" class="cluster"><title>cluster_10</title>
<polygon style="fill:lightgrey;stroke:black;" points="610,-9 610,-165 797,-165 797,-9 610,-9"/>
<text text-anchor="middle" x="703" y="-148.9" style="font-family:Times New Roman;font-size:14.00;">122220</text>
</g>
<g id="cluster12" class="cluster"><title>cluster_11</title>
<polygon style="fill:lightgrey;stroke:black;" points="570,-569 570,-749 748,-749 748,-569 570,-569"/>
<text text-anchor="middle" x="659" y="-732.9" style="font-family:Times New Roman;font-size:14.00;">221200</text>
</g>
<g id="cluster13" class="cluster"><title>cluster_12</title>
<polygon style="fill:lightgrey;stroke:black;" points="10,-308 10,-493 191,-493 191,-308 10,-308"/>
<text text-anchor="middle" x="100" y="-476.9" style="font-family:Times New Roman;font-size:14.00;">020210</text>
</g>
<g id="cluster14" class="cluster"><title>cluster_13</title>
<polygon style="fill:lightgrey;stroke:black;" points="10,-109 10,-295 190,-295 190,-109 10,-109"/>
<text text-anchor="middle" x="100" y="-278.9" style="font-family:Times New Roman;font-size:14.00;">222220</text>
</g>
<g id="cluster15" class="cluster"><title>cluster_14</title>
<polygon style="fill:lightgrey;stroke:black;" points="210,-9 210,-189 388,-189 388,-9 210,-9"/>
<text text-anchor="middle" x="299" y="-172.9" style="font-family:Times New Roman;font-size:14.00;">021220</text>
</g>
<!-- VEH2 -->
<g id="node3" class="node"><title>VEH2</title>
<text text-anchor="middle" x="246" y="-231.6" style="font-family:Times New Roman;font-size:16.00;">VEH</text>
</g>
<!-- C32 -->
<g id="node4" class="node"><title>C32</title>
<text text-anchor="middle" x="351" y="-243.6" style="font-family:Times New Roman;font-size:16.00;">C3</text>
</g>
<!-- C102 -->
<g id="node5" class="node"><title>C102</title>
<text text-anchor="middle" x="292" y="-293.6" style="font-family:Times New Roman;font-size:16.00;">C10</text>
</g>
<!-- C102&#45;&gt;VEH2 -->
<g id="edge4" class="edge"><title>C102&#45;&gt;VEH2</title>
<path style="fill:none;stroke:black;" d="M278,-280C274,-275 269,-268 265,-262"/>
<polygon style="fill:black;stroke:black;" points="268.268,-260.625 260,-254 262.332,-264.335 268.268,-260.625"/>
</g>
<!-- C102&#45;&gt;C32 -->
<g id="edge6" class="edge"><title>C102&#45;&gt;C32</title>
<path style="fill:none;stroke:black;" d="M313,-280C316,-278 319,-275 322,-272"/>
<polygon style="fill:black;stroke:black;" points="324.1,-274.8 330,-266 319.9,-269.2 324.1,-274.8"/>
</g>
<!-- C302 -->
<g id="node6" class="node"><title>C302</title>
<text text-anchor="middle" x="285" y="-346.6" style="font-family:Times New Roman;font-size:16.00;">C30</text>
</g>
<!-- C102&#45;&gt;C302 -->
<g id="edge8" class="edge"><title>C102&#45;&gt;C302</title>
<path style="fill:none;stroke:black;" d="M290,-316C290,-318 289,-321 289,-323"/>
<polygon style="fill:black;stroke:black;" points="285.512,-322.701 288,-333 292.478,-323.398 285.512,-322.701"/>
</g>
<!-- VEH3 -->
<g id="node11" class="node"><title>VEH3</title>
<text text-anchor="middle" x="458" y="-590.6" style="font-family:Times New Roman;font-size:16.00;">VEH</text>
</g>
<!-- C33 -->
<g id="node12" class="node"><title>C33</title>
<text text-anchor="middle" x="511" y="-696.6" style="font-family:Times New Roman;font-size:16.00;">C3</text>
</g>
<!-- C303 -->
<g id="node14" class="node"><title>C303</title>
<text text-anchor="middle" x="446" y="-675.6" style="font-family:Times New Roman;font-size:16.00;">C30</text>
</g>
<!-- C33&#45;&gt;C303 -->
<g id="edge11" class="edge"><title>C33&#45;&gt;C303</title>
<path style="fill:none;stroke:black;" d="M484,-692C484,-692 483,-692 483,-692"/>
<polygon style="fill:black;stroke:black;" points="483.584,-688.521 473,-689 481.573,-695.226 483.584,-688.521"/>
</g>
<!-- C103 -->
<g id="node13" class="node"><title>C103</title>
<text text-anchor="middle" x="508" y="-640.6" style="font-family:Times New Roman;font-size:16.00;">C10</text>
</g>
<!-- C103&#45;&gt;VEH3 -->
<g id="edge13" class="edge"><title>C103&#45;&gt;VEH3</title>
<path style="fill:none;stroke:black;" d="M490,-627C488,-625 486,-623 483,-620"/>
<polygon style="fill:black;stroke:black;" points="485.546,-617.596 476,-613 480.596,-622.546 485.546,-617.596"/>
</g>
<!-- C103&#45;&gt;C33 -->
<g id="edge15" class="edge"><title>C103&#45;&gt;C33</title>
<path style="fill:none;stroke:black;" d="M509,-663C509,-666 509,-669 510,-673"/>
<polygon style="fill:black;stroke:black;" points="506.5,-673 510,-683 513.5,-673 506.5,-673"/>
</g>
<!-- C103&#45;&gt;C303 -->
<g id="edge17" class="edge"><title>C103&#45;&gt;C303</title>
<path style="fill:none;stroke:black;" d="M481,-660C481,-660 481,-660 481,-660"/>
<polygon style="fill:black;stroke:black;" points="479.625,-656.732 473,-665 483.335,-662.668 479.625,-656.732"/>
</g>
<!-- VEH4 -->
<g id="node20" class="node"><title>VEH4</title>
<text text-anchor="middle" x="447" y="-277.6" style="font-family:Times New Roman;font-size:16.00;">VEH</text>
</g>
<!-- C34 -->
<g id="node21" class="node"><title>C34</title>
<text text-anchor="middle" x="570" y="-244.6" style="font-family:Times New Roman;font-size:16.00;">C3</text>
</g>
<!-- C104 -->
<g id="node22" class="node"><title>C104</title>
<text text-anchor="middle" x="500" y="-231.6" style="font-family:Times New Roman;font-size:16.00;">C10</text>
</g>
<!-- C104&#45;&gt;VEH4 -->
<g id="edge20" class="edge"><title>C104&#45;&gt;VEH4</title>
<path style="fill:none;stroke:black;" d="M479,-254C478,-255 477,-256 475,-257"/>
<polygon style="fill:black;stroke:black;" points="472.596,-254.454 468,-264 477.546,-259.404 472.596,-254.454"/>
</g>
<!-- C104&#45;&gt;C34 -->
<g id="edge22" class="edge"><title>C104&#45;&gt;C34</title>
<path style="fill:none;stroke:black;" d="M527,-241C529,-241 531,-242 533,-242"/>
<polygon style="fill:black;stroke:black;" points="532.508,-245.471 543,-244 533.881,-238.607 532.508,-245.471"/>
</g>
<!-- C304 -->
<g id="node23" class="node"><title>C304</title>
<text text-anchor="middle" x="513" y="-310.6" style="font-family:Times New Roman;font-size:16.00;">C30</text>
</g>
<!-- C104&#45;&gt;C304 -->
<g id="edge24" class="edge"><title>C104&#45;&gt;C304</title>
<path style="fill:none;stroke:black;" d="M503,-254C505,-264 507,-276 508,-287"/>
<polygon style="fill:black;stroke:black;" points="504.607,-287.881 510,-297 511.471,-286.508 504.607,-287.881"/>
</g>
<!-- C304&#45;&gt;VEH4 -->
<g id="edge26" class="edge"><title>C304&#45;&gt;VEH4</title>
<path style="fill:none;stroke:black;" d="M486,-301C485,-301 484,-300 483,-300"/>
<polygon style="fill:black;stroke:black;" points="484.441,-296.797 474,-295 481.042,-302.916 484.441,-296.797"/>
</g>
<!-- VEH5 -->
<g id="node29" class="node"><title>VEH5</title>
<text text-anchor="middle" x="86" y="-635.6" style="font-family:Times New Roman;font-size:16.00;">VEH</text>
</g>
<!-- C35 -->
<g id="node30" class="node"><title>C35</title>
<text text-anchor="middle" x="137" y="-591.6" style="font-family:Times New Roman;font-size:16.00;">C3</text>
</g>
<!-- C35&#45;&gt;VEH5 -->
<g id="edge29" class="edge"><title>C35&#45;&gt;VEH5</title>
<path style="fill:none;stroke:black;" d="M116,-614C116,-614 115,-615 115,-615"/>
<polygon style="fill:black;stroke:black;" points="112.221,-612.781 107,-622 116.831,-618.049 112.221,-612.781"/>
</g>
<!-- C105 -->
<g id="node31" class="node"><title>C105</title>
<text text-anchor="middle" x="153" y="-651.6" style="font-family:Times New Roman;font-size:16.00;">C10</text>
</g>
<!-- C105&#45;&gt;VEH5 -->
<g id="edge31" class="edge"><title>C105&#45;&gt;VEH5</title>
<path style="fill:none;stroke:black;" d="M126,-649C125,-649 124,-649 123,-648"/>
<polygon style="fill:black;stroke:black;" points="123.492,-644.529 113,-646 122.119,-651.393 123.492,-644.529"/>
</g>
<!-- C105&#45;&gt;C35 -->
<g id="edge33" class="edge"><title>C105&#45;&gt;C35</title>
<path style="fill:none;stroke:black;" d="M148,-638C147,-633 146,-629 144,-624"/>
<polygon style="fill:black;stroke:black;" points="147.393,-623.119 142,-614 140.529,-624.492 147.393,-623.119"/>
</g>
<!-- C305 -->
<g id="node32" class="node"><title>C305</title>
<text text-anchor="middle" x="128" y="-701.6" style="font-family:Times New Roman;font-size:16.00;">C30</text>
</g>
<!-- C105&#45;&gt;C305 -->
<g id="edge35" class="edge"><title>C105&#45;&gt;C305</title>
<path style="fill:none;stroke:black;" d="M144,-674C143,-676 142,-677 141,-679"/>
<polygon style="fill:black;stroke:black;" points="137.863,-677.44 137,-688 144.26,-680.283 137.863,-677.44"/>
</g>
<!-- VEH6 -->
<g id="node38" class="node"><title>VEH6</title>
<text text-anchor="middle" x="446" y="-79.6" style="font-family:Times New Roman;font-size:16.00;">VEH</text>
</g>
<!-- C306 -->
<g id="node41" class="node"><title>C306</title>
<text text-anchor="middle" x="495" y="-128.6" style="font-family:Times New Roman;font-size:16.00;">C30</text>
</g>
<!-- VEH6&#45;&gt;C306 -->
<g id="edge38" class="edge"><title>VEH6&#45;&gt;C306</title>
<path style="fill:none;stroke:black;" d="M464,-102C466,-104 468,-106 470,-108"/>
<polygon style="fill:black;stroke:black;" points="467.454,-110.404 477,-115 472.404,-105.454 467.454,-110.404"/>
</g>
<!-- C36 -->
<g id="node39" class="node"><title>C36</title>
<text text-anchor="middle" x="561" y="-100.6" style="font-family:Times New Roman;font-size:16.00;">C3</text>
</g>
<!-- C36&#45;&gt;C306 -->
<g id="edge40" class="edge"><title>C36&#45;&gt;C306</title>
<path style="fill:none;stroke:black;" d="M534,-117C533,-117 532,-118 531,-118"/>
<polygon style="fill:black;stroke:black;" points="529.717,-114.74 522,-122 532.56,-121.137 529.717,-114.74"/>
</g>
<!-- C106 -->
<g id="node40" class="node"><title>C106</title>
<text text-anchor="middle" x="511" y="-50.6" style="font-family:Times New Roman;font-size:16.00;">C10</text>
</g>
<!-- C106&#45;&gt;VEH6 -->
<g id="edge42" class="edge"><title>C106&#45;&gt;VEH6</title>
<path style="fill:none;stroke:black;" d="M484,-67C483,-67 483,-68 482,-68"/>
<polygon style="fill:black;stroke:black;" points="480.717,-64.7402 473,-72 483.56,-71.1369 480.717,-64.7402"/>
</g>
<!-- C106&#45;&gt;C36 -->
<g id="edge44" class="edge"><title>C106&#45;&gt;C36</title>
<path style="fill:none;stroke:black;" d="M529,-73C531,-75 533,-77 536,-80"/>
<polygon style="fill:black;stroke:black;" points="533.454,-82.4038 543,-87 538.404,-77.454 533.454,-82.4038"/>
</g>
<!-- C106&#45;&gt;C306 -->
<g id="edge46" class="edge"><title>C106&#45;&gt;C306</title>
<path style="fill:none;stroke:black;" d="M507,-73C505,-83 503,-94 501,-105"/>
<polygon style="fill:black;stroke:black;" points="497.529,-104.508 499,-115 504.393,-105.881 497.529,-104.508"/>
</g>
<!-- VEH7 -->
<g id="node48" class="node"><title>VEH7</title>
<text text-anchor="middle" x="447" y="-457.6" style="font-family:Times New Roman;font-size:16.00;">VEH</text>
</g>
<!-- C307 -->
<g id="node51" class="node"><title>C307</title>
<text text-anchor="middle" x="513" y="-490.6" style="font-family:Times New Roman;font-size:16.00;">C30</text>
</g>
<!-- VEH7&#45;&gt;C307 -->
<g id="edge49" class="edge"><title>VEH7&#45;&gt;C307</title>
<path style="fill:none;stroke:black;" d="M474,-476C475,-477 476,-477 477,-478"/>
<polygon style="fill:black;stroke:black;" points="475.44,-481.137 486,-482 478.283,-474.74 475.44,-481.137"/>
</g>
<!-- C37 -->
<g id="node49" class="node"><title>C37</title>
<text text-anchor="middle" x="570" y="-424.6" style="font-family:Times New Roman;font-size:16.00;">C3</text>
</g>
<!-- C107 -->
<g id="node50" class="node"><title>C107</title>
<text text-anchor="middle" x="500" y="-411.6" style="font-family:Times New Roman;font-size:16.00;">C10</text>
</g>
<!-- C107&#45;&gt;VEH7 -->
<g id="edge51" class="edge"><title>C107&#45;&gt;VEH7</title>
<path style="fill:none;stroke:black;" d="M479,-434C478,-435 477,-436 475,-437"/>
<polygon style="fill:black;stroke:black;" points="472.596,-434.454 468,-444 477.546,-439.404 472.596,-434.454"/>
</g>
<!-- C107&#45;&gt;C37 -->
<g id="edge53" class="edge"><title>C107&#45;&gt;C37</title>
<path style="fill:none;stroke:black;" d="M527,-421C529,-421 531,-422 533,-422"/>
<polygon style="fill:black;stroke:black;" points="532.508,-425.471 543,-424 533.881,-418.607 532.508,-425.471"/>
</g>
<!-- C107&#45;&gt;C307 -->
<g id="edge55" class="edge"><title>C107&#45;&gt;C307</title>
<path style="fill:none;stroke:black;" d="M503,-434C505,-444 507,-456 508,-467"/>
<polygon style="fill:black;stroke:black;" points="504.607,-467.881 510,-477 511.471,-466.508 504.607,-467.881"/>
</g>
<!-- VEH8 -->
<g id="node57" class="node"><title>VEH8</title>
<text text-anchor="middle" x="298" y="-630.6" style="font-family:Times New Roman;font-size:16.00;">VEH</text>
</g>
<!-- C38 -->
<g id="node58" class="node"><title>C38</title>
<text text-anchor="middle" x="351" y="-736.6" style="font-family:Times New Roman;font-size:16.00;">C3</text>
</g>
<!-- C108 -->
<g id="node59" class="node"><title>C108</title>
<text text-anchor="middle" x="348" y="-680.6" style="font-family:Times New Roman;font-size:16.00;">C10</text>
</g>
<!-- C108&#45;&gt;VEH8 -->
<g id="edge58" class="edge"><title>C108&#45;&gt;VEH8</title>
<path style="fill:none;stroke:black;" d="M330,-667C328,-665 326,-663 323,-660"/>
<polygon style="fill:black;stroke:black;" points="325.546,-657.596 316,-653 320.596,-662.546 325.546,-657.596"/>
</g>
<!-- C108&#45;&gt;C38 -->
<g id="edge60" class="edge"><title>C108&#45;&gt;C38</title>
<path style="fill:none;stroke:black;" d="M349,-703C349,-706 349,-709 350,-713"/>
<polygon style="fill:black;stroke:black;" points="346.5,-713 350,-723 353.5,-713 346.5,-713"/>
</g>
<!-- C308 -->
<g id="node60" class="node"><title>C308</title>
<text text-anchor="middle" x="286" y="-715.6" style="font-family:Times New Roman;font-size:16.00;">C30</text>
</g>
<!-- C108&#45;&gt;C308 -->
<g id="edge62" class="edge"><title>C108&#45;&gt;C308</title>
<path style="fill:none;stroke:black;" d="M321,-700C321,-700 321,-700 321,-700"/>
<polygon style="fill:black;stroke:black;" points="319.625,-696.732 313,-705 323.335,-702.668 319.625,-696.732"/>
</g>
<!-- C308&#45;&gt;C38 -->
<g id="edge64" class="edge"><title>C308&#45;&gt;C38</title>
<path style="fill:none;stroke:black;" d="M313,-729C313,-729 314,-729 314,-729"/>
<polygon style="fill:black;stroke:black;" points="313.416,-732.479 324,-732 315.427,-725.774 313.416,-732.479"/>
</g>
<!-- VEH9 -->
<g id="node66" class="node"><title>VEH9</title>
<text text-anchor="middle" x="246" y="-477.6" style="font-family:Times New Roman;font-size:16.00;">VEH</text>
</g>
<!-- C39 -->
<g id="node67" class="node"><title>C39</title>
<text text-anchor="middle" x="355" y="-481.6" style="font-family:Times New Roman;font-size:16.00;">C3</text>
</g>
<!-- C39&#45;&gt;VEH9 -->
<g id="edge67" class="edge"><title>C39&#45;&gt;VEH9</title>
<path style="fill:none;stroke:black;" d="M328,-485C314,-484 298,-484 283,-483"/>
<polygon style="fill:black;stroke:black;" points="283,-479.5 273,-483 283,-486.5 283,-479.5"/>
</g>
<!-- C109 -->
<g id="node68" class="node"><title>C109</title>
<text text-anchor="middle" x="301" y="-430.6" style="font-family:Times New Roman;font-size:16.00;">C10</text>
</g>
<!-- C109&#45;&gt;VEH9 -->
<g id="edge69" class="edge"><title>C109&#45;&gt;VEH9</title>
<path style="fill:none;stroke:black;" d="M280,-453C278,-455 277,-456 275,-458"/>
<polygon style="fill:black;stroke:black;" points="272.9,-455.2 267,-464 277.1,-460.8 272.9,-455.2"/>
</g>
<!-- C109&#45;&gt;C39 -->
<g id="edge71" class="edge"><title>C109&#45;&gt;C39</title>
<path style="fill:none;stroke:black;" d="M320,-453C323,-456 326,-458 329,-461"/>
<polygon style="fill:black;stroke:black;" points="326.454,-463.404 336,-468 331.404,-458.454 326.454,-463.404"/>
</g>
<!-- C309 -->
<g id="node69" class="node"><title>C309</title>
<text text-anchor="middle" x="279" y="-536.6" style="font-family:Times New Roman;font-size:16.00;">C30</text>
</g>
<!-- C109&#45;&gt;C309 -->
<g id="edge73" class="edge"><title>C109&#45;&gt;C309</title>
<path style="fill:none;stroke:black;" d="M297,-453C294,-470 289,-494 285,-513"/>
<polygon style="fill:black;stroke:black;" points="281.529,-512.508 283,-523 288.393,-513.881 281.529,-512.508"/>
</g>
<!-- C309&#45;&gt;VEH9 -->
<g id="edge75" class="edge"><title>C309&#45;&gt;VEH9</title>
<path style="fill:none;stroke:black;" d="M269,-523C267,-519 264,-514 261,-509"/>
<polygon style="fill:black;stroke:black;" points="263.916,-507.042 256,-500 257.797,-510.441 263.916,-507.042"/>
</g>
<!-- VEH10 -->
<g id="node76" class="node"><title>VEH10</title>
<text text-anchor="middle" x="646" y="-59.6" style="font-family:Times New Roman;font-size:16.00;">VEH</text>
</g>
<!-- C310 -->
<g id="node77" class="node"><title>C310</title>
<text text-anchor="middle" x="761" y="-80.6" style="font-family:Times New Roman;font-size:16.00;">C3</text>
</g>
<!-- C1010 -->
<g id="node78" class="node"><title>C1010</title>
<text text-anchor="middle" x="711" y="-30.6" style="font-family:Times New Roman;font-size:16.00;">C10</text>
</g>
<!-- C1010&#45;&gt;VEH10 -->
<g id="edge78" class="edge"><title>C1010&#45;&gt;VEH10</title>
<path style="fill:none;stroke:black;" d="M684,-47C683,-47 683,-48 682,-48"/>
<polygon style="fill:black;stroke:black;" points="680.717,-44.7402 673,-52 683.56,-51.1369 680.717,-44.7402"/>
</g>
<!-- C1010&#45;&gt;C310 -->
<g id="edge80" class="edge"><title>C1010&#45;&gt;C310</title>
<path style="fill:none;stroke:black;" d="M729,-53C731,-55 733,-57 736,-60"/>
<polygon style="fill:black;stroke:black;" points="733.454,-62.4038 743,-67 738.404,-57.454 733.454,-62.4038"/>
</g>
<!-- C3010 -->
<g id="node79" class="node"><title>C3010</title>
<text text-anchor="middle" x="695" y="-108.6" style="font-family:Times New Roman;font-size:16.00;">C30</text>
</g>
<!-- C1010&#45;&gt;C3010 -->
<g id="edge82" class="edge"><title>C1010&#45;&gt;C3010</title>
<path style="fill:none;stroke:black;" d="M707,-53C705,-63 703,-74 701,-85"/>
<polygon style="fill:black;stroke:black;" points="697.529,-84.5078 699,-95 704.393,-85.8806 697.529,-84.5078"/>
</g>
<!-- C3010&#45;&gt;VEH10 -->
<g id="edge84" class="edge"><title>C3010&#45;&gt;VEH10</title>
<path style="fill:none;stroke:black;" d="M677,-95C675,-93 673,-91 671,-89"/>
<polygon style="fill:black;stroke:black;" points="673.546,-86.5962 664,-82 668.596,-91.546 673.546,-86.5962"/>
</g>
<!-- C3010&#45;&gt;C310 -->
<g id="edge86" class="edge"><title>C3010&#45;&gt;C310</title>
<path style="fill:none;stroke:black;" d="M722,-101C723,-101 724,-100 725,-100"/>
<polygon style="fill:black;stroke:black;" points="726.283,-103.26 734,-96 723.44,-96.8631 726.283,-103.26"/>
</g>
<!-- VEH11 -->
<g id="node86" class="node"><title>VEH11</title>
<text text-anchor="middle" x="606" y="-623.6" style="font-family:Times New Roman;font-size:16.00;">VEH</text>
</g>
<!-- C311 -->
<g id="node87" class="node"><title>C311</title>
<text text-anchor="middle" x="712" y="-643.6" style="font-family:Times New Roman;font-size:16.00;">C3</text>
</g>
<!-- C311&#45;&gt;VEH11 -->
<g id="edge89" class="edge"><title>C311&#45;&gt;VEH11</title>
<path style="fill:none;stroke:black;" d="M685,-643C672,-641 657,-638 643,-635"/>
<polygon style="fill:black;stroke:black;" points="643.492,-631.529 633,-633 642.119,-638.393 643.492,-631.529"/>
</g>
<!-- C3011 -->
<g id="node89" class="node"><title>C3011</title>
<text text-anchor="middle" x="659" y="-692.6" style="font-family:Times New Roman;font-size:16.00;">C30</text>
</g>
<!-- C311&#45;&gt;C3011 -->
<g id="edge91" class="edge"><title>C311&#45;&gt;C3011</title>
<path style="fill:none;stroke:black;" d="M692,-666C690,-668 688,-670 686,-672"/>
<polygon style="fill:black;stroke:black;" points="683.221,-669.781 678,-679 687.831,-675.049 683.221,-669.781"/>
</g>
<!-- C1011 -->
<g id="node88" class="node"><title>C1011</title>
<text text-anchor="middle" x="674" y="-591.6" style="font-family:Times New Roman;font-size:16.00;">C10</text>
</g>
<!-- C1011&#45;&gt;VEH11 -->
<g id="edge93" class="edge"><title>C1011&#45;&gt;VEH11</title>
<path style="fill:none;stroke:black;" d="M647,-609C645,-610 644,-610 642,-611"/>
<polygon style="fill:black;stroke:black;" points="640.042,-608.084 633,-616 643.441,-614.203 640.042,-608.084"/>
</g>
<!-- C1011&#45;&gt;C311 -->
<g id="edge95" class="edge"><title>C1011&#45;&gt;C311</title>
<path style="fill:none;stroke:black;" d="M687,-614C689,-616 691,-619 693,-622"/>
<polygon style="fill:black;stroke:black;" points="690.2,-624.1 699,-630 695.8,-619.9 690.2,-624.1"/>
</g>
<!-- C1011&#45;&gt;C3011 -->
<g id="edge97" class="edge"><title>C1011&#45;&gt;C3011</title>
<path style="fill:none;stroke:black;" d="M671,-614C668,-629 665,-651 663,-669"/>
<polygon style="fill:black;stroke:black;" points="659.512,-668.701 662,-679 666.478,-669.398 659.512,-668.701"/>
</g>
<!-- VEH12 -->
<g id="node96" class="node"><title>VEH12</title>
<text text-anchor="middle" x="46" y="-377.6" style="font-family:Times New Roman;font-size:16.00;">VEH</text>
</g>
<!-- C312 -->
<g id="node97" class="node"><title>C312</title>
<text text-anchor="middle" x="155" y="-381.6" style="font-family:Times New Roman;font-size:16.00;">C3</text>
</g>
<!-- VEH12&#45;&gt;C312 -->
<g id="edge100" class="edge"><title>VEH12&#45;&gt;C312</title>
<path style="fill:none;stroke:black;" d="M73,-383C87,-384 103,-384 118,-385"/>
<polygon style="fill:black;stroke:black;" points="118,-388.5 128,-385 118,-381.5 118,-388.5"/>
</g>
<!-- C3012 -->
<g id="node99" class="node"><title>C3012</title>
<text text-anchor="middle" x="79" y="-436.6" style="font-family:Times New Roman;font-size:16.00;">C30</text>
</g>
<!-- VEH12&#45;&gt;C3012 -->
<g id="edge102" class="edge"><title>VEH12&#45;&gt;C3012</title>
<path style="fill:none;stroke:black;" d="M56,-400C58,-404 61,-409 64,-414"/>
<polygon style="fill:black;stroke:black;" points="61.084,-415.958 69,-423 67.2031,-412.559 61.084,-415.958"/>
</g>
<!-- C1012 -->
<g id="node98" class="node"><title>C1012</title>
<text text-anchor="middle" x="101" y="-330.6" style="font-family:Times New Roman;font-size:16.00;">C10</text>
</g>
<!-- C1012&#45;&gt;VEH12 -->
<g id="edge104" class="edge"><title>C1012&#45;&gt;VEH12</title>
<path style="fill:none;stroke:black;" d="M80,-353C78,-355 77,-356 75,-358"/>
<polygon style="fill:black;stroke:black;" points="72.9,-355.2 67,-364 77.1,-360.8 72.9,-355.2"/>
</g>
<!-- C1012&#45;&gt;C312 -->
<g id="edge106" class="edge"><title>C1012&#45;&gt;C312</title>
<path style="fill:none;stroke:black;" d="M120,-353C123,-356 126,-358 129,-361"/>
<polygon style="fill:black;stroke:black;" points="126.454,-363.404 136,-368 131.404,-358.454 126.454,-363.404"/>
</g>
<!-- C1012&#45;&gt;C3012 -->
<g id="edge108" class="edge"><title>C1012&#45;&gt;C3012</title>
<path style="fill:none;stroke:black;" d="M97,-353C94,-370 89,-394 85,-413"/>
<polygon style="fill:black;stroke:black;" points="81.5292,-412.508 83,-423 88.3933,-413.881 81.5292,-412.508"/>
</g>
<!-- VEH13 -->
<g id="node106" class="node"><title>VEH13</title>
<text text-anchor="middle" x="47" y="-176.6" style="font-family:Times New Roman;font-size:16.00;">VEH</text>
</g>
<!-- C313 -->
<g id="node107" class="node"><title>C313</title>
<text text-anchor="middle" x="154" y="-193.6" style="font-family:Times New Roman;font-size:16.00;">C3</text>
</g>
<!-- C313&#45;&gt;VEH13 -->
<g id="edge111" class="edge"><title>C313&#45;&gt;VEH13</title>
<path style="fill:none;stroke:black;" d="M127,-194C114,-192 98,-189 84,-187"/>
<polygon style="fill:black;stroke:black;" points="84.2987,-183.512 74,-186 83.6021,-190.478 84.2987,-183.512"/>
</g>
<!-- C1013 -->
<g id="node108" class="node"><title>C1013</title>
<text text-anchor="middle" x="110" y="-131.6" style="font-family:Times New Roman;font-size:16.00;">C10</text>
</g>
<!-- C1013&#45;&gt;VEH13 -->
<g id="edge113" class="edge"><title>C1013&#45;&gt;VEH13</title>
<path style="fill:none;stroke:black;" d="M85,-154C84,-155 83,-156 81,-157"/>
<polygon style="fill:black;stroke:black;" points="78.9,-154.2 73,-163 83.1,-159.8 78.9,-154.2"/>
</g>
<!-- C1013&#45;&gt;C313 -->
<g id="edge115" class="edge"><title>C1013&#45;&gt;C313</title>
<path style="fill:none;stroke:black;" d="M123,-154C127,-159 131,-166 135,-172"/>
<polygon style="fill:black;stroke:black;" points="132.2,-174.1 141,-180 137.8,-169.9 132.2,-174.1"/>
</g>
<!-- C3013 -->
<g id="node109" class="node"><title>C3013</title>
<text text-anchor="middle" x="91" y="-238.6" style="font-family:Times New Roman;font-size:16.00;">C30</text>
</g>
<!-- C1013&#45;&gt;C3013 -->
<g id="edge117" class="edge"><title>C1013&#45;&gt;C3013</title>
<path style="fill:none;stroke:black;" d="M107,-154C104,-171 100,-196 96,-215"/>
<polygon style="fill:black;stroke:black;" points="92.5292,-214.508 94,-225 99.3933,-215.881 92.5292,-214.508"/>
</g>
<!-- C3013&#45;&gt;VEH13 -->
<g id="edge119" class="edge"><title>C3013&#45;&gt;VEH13</title>
<path style="fill:none;stroke:black;" d="M78,-225C74,-220 70,-213 66,-207"/>
<polygon style="fill:black;stroke:black;" points="68.8,-204.9 60,-199 63.2,-209.1 68.8,-204.9"/>
</g>
<!-- C3013&#45;&gt;C313 -->
<g id="edge121" class="edge"><title>C3013&#45;&gt;C313</title>
<path style="fill:none;stroke:black;" d="M116,-225C117,-224 119,-223 120,-222"/>
<polygon style="fill:black;stroke:black;" points="122.1,-224.8 128,-216 117.9,-219.2 122.1,-224.8"/>
</g>
<!-- VEH14 -->
<g id="node117" class="node"><title>VEH14</title>
<text text-anchor="middle" x="246" y="-63.6" style="font-family:Times New Roman;font-size:16.00;">VEH</text>
</g>
<!-- C314 -->
<g id="node118" class="node"><title>C314</title>
<text text-anchor="middle" x="352" y="-83.6" style="font-family:Times New Roman;font-size:16.00;">C3</text>
</g>
<!-- VEH14&#45;&gt;C314 -->
<g id="edge124" class="edge"><title>VEH14&#45;&gt;C314</title>
<path style="fill:none;stroke:black;" d="M273,-73C286,-75 301,-78 315,-81"/>
<polygon style="fill:black;stroke:black;" points="314.508,-84.4708 325,-83 315.881,-77.6067 314.508,-84.4708"/>
</g>
<!-- C1014 -->
<g id="node119" class="node"><title>C1014</title>
<text text-anchor="middle" x="314" y="-31.6" style="font-family:Times New Roman;font-size:16.00;">C10</text>
</g>
<!-- C1014&#45;&gt;VEH14 -->
<g id="edge126" class="edge"><title>C1014&#45;&gt;VEH14</title>
<path style="fill:none;stroke:black;" d="M287,-49C285,-50 284,-50 282,-51"/>
<polygon style="fill:black;stroke:black;" points="280.042,-48.084 273,-56 283.441,-54.2031 280.042,-48.084"/>
</g>
<!-- C1014&#45;&gt;C314 -->
<g id="edge128" class="edge"><title>C1014&#45;&gt;C314</title>
<path style="fill:none;stroke:black;" d="M327,-54C329,-56 331,-59 333,-62"/>
<polygon style="fill:black;stroke:black;" points="330.2,-64.1 339,-70 335.8,-59.9 330.2,-64.1"/>
</g>
<!-- C3014 -->
<g id="node120" class="node"><title>C3014</title>
<text text-anchor="middle" x="299" y="-132.6" style="font-family:Times New Roman;font-size:16.00;">C30</text>
</g>
<!-- C1014&#45;&gt;C3014 -->
<g id="edge130" class="edge"><title>C1014&#45;&gt;C3014</title>
<path style="fill:none;stroke:black;" d="M311,-54C308,-69 305,-91 303,-109"/>
<polygon style="fill:black;stroke:black;" points="299.512,-108.701 302,-119 306.478,-109.398 299.512,-108.701"/>
</g>
<!-- C3014&#45;&gt;C314 -->
<g id="edge132" class="edge"><title>C3014&#45;&gt;C314</title>
<path style="fill:none;stroke:black;" d="M319,-119C321,-117 323,-115 325,-113"/>
<polygon style="fill:black;stroke:black;" points="327.779,-115.219 333,-106 323.169,-109.951 327.779,-115.219"/>
</g>
</g>
</svg>
