<?xml version="1.0" encoding="UTF-8" standalone="no"?>
<!DOCTYPE svg PUBLIC "-//W3C//DTD SVG 1.0//EN"
 "http://www.w3.org/TR/2001/REC-SVG-20010904/DTD/svg10.dtd" [
 <!ATTLIST svg xmlns:xlink CDATA #FIXED "http://www.w3.org/1999/xlink">
]>
<!-- Generated by Graphviz version 2.20.2 (Tue Mar &#160;2 20:02:18 UTC 2010)
     For user: (nsvo) Nam Sy Vo,,, -->
<!-- Title: FirstlevelCluster Pages: 1 -->
<svg width="954pt" height="988pt"
 viewBox="0.00 0.00 954.00 988.00" xmlns="http://www.w3.org/2000/svg" xmlns:xlink="http://www.w3.org/1999/xlink">
<g id="graph0" class="graph" transform="scale(1 1) rotate(0) translate(4 984)">
<title>FirstlevelCluster</title>
<polygon style="fill:white;stroke:white;" points="-4,4 -4,-984 950,-984 950,4 -4,4"/>
<g id="cluster2" class="cluster"><title>cluster_0</title>
<polygon style="fill:none;stroke:black;" points="1,-0 1,-971 945,-971 945,-0 1,-0"/>
<text text-anchor="middle" x="473" y="-954.9" style="font-family:Times New Roman;font-size:14.00;">&gt;C10</text>
</g>
<g id="cluster3" class="cluster"><title>cluster_2</title>
<polygon style="fill:lightgrey;stroke:black;" points="350,-209 350,-403 527,-403 527,-209 350,-209"/>
<text text-anchor="middle" x="438" y="-386.9" style="font-family:Times New Roman;font-size:14.00;">101012</text>
</g>
<g id="cluster4" class="cluster"><title>cluster_3</title>
<polygon style="fill:lightgrey;stroke:black;" points="750,-389 750,-545 937,-545 937,-389 750,-389"/>
<text text-anchor="middle" x="843" y="-528.9" style="font-family:Times New Roman;font-size:14.00;">100002</text>
</g>
<g id="cluster5" class="cluster"><title>cluster_4</title>
<polygon style="fill:none;stroke:black;" points="170,-588 170,-773 307,-773 307,-588 170,-588"/>
<text text-anchor="middle" x="238" y="-756.9" style="font-family:Times New Roman;font-size:14.00;">101002</text>
</g>
<g id="cluster6" class="cluster"><title>cluster_5</title>
<polygon style="fill:none;stroke:black;" points="550,-209 550,-367 746,-367 746,-209 550,-209"/>
<text text-anchor="middle" x="648" y="-350.9" style="font-family:Times New Roman;font-size:14.00;">100012</text>
</g>
<g id="cluster7" class="cluster"><title>cluster_6</title>
<polygon style="fill:lightgrey;stroke:black;" points="550,-388 550,-573 731,-573 731,-388 550,-388"/>
<text text-anchor="middle" x="640" y="-556.9" style="font-family:Times New Roman;font-size:14.00;">000012</text>
</g>
<g id="cluster8" class="cluster"><title>cluster_7</title>
<polygon style="fill:none;stroke:black;" points="370,-608 370,-793 507,-793 507,-608 370,-608"/>
<text text-anchor="middle" x="438" y="-776.9" style="font-family:Times New Roman;font-size:14.00;">101022</text>
</g>
<g id="cluster9" class="cluster"><title>cluster_8</title>
<polygon style="fill:none;stroke:black;" points="10,-748 10,-937 149,-937 149,-748 10,-748"/>
<text text-anchor="middle" x="79" y="-920.9" style="font-family:Times New Roman;font-size:14.00;">001012</text>
</g>
<g id="cluster10" class="cluster"><title>cluster_9</title>
<polygon style="fill:none;stroke:black;" points="330,-429 330,-587 526,-587 526,-429 330,-429"/>
<text text-anchor="middle" x="428" y="-570.9" style="font-family:Times New Roman;font-size:14.00;">102012</text>
</g>
<g id="cluster11" class="cluster"><title>cluster_10</title>
<polygon style="fill:lightgrey;stroke:black;" points="730,-589 730,-769 908,-769 908,-589 730,-589"/>
<text text-anchor="middle" x="819" y="-752.9" style="font-family:Times New Roman;font-size:14.00;">201002</text>
</g>
<g id="cluster12" class="cluster"><title>cluster_11</title>
<polygon style="fill:lightgrey;stroke:black;" points="530,-609 530,-765 717,-765 717,-609 530,-609"/>
<text text-anchor="middle" x="623" y="-748.9" style="font-family:Times New Roman;font-size:14.00;">102022</text>
</g>
<g id="cluster13" class="cluster"><title>cluster_12</title>
<polygon style="fill:lightgrey;stroke:black;" points="150,-229 150,-415 330,-415 330,-229 150,-229"/>
<text text-anchor="middle" x="240" y="-398.9" style="font-family:Times New Roman;font-size:14.00;">000002</text>
</g>
<g id="cluster14" class="cluster"><title>cluster_13</title>
<polygon style="fill:lightgrey;stroke:black;" points="150,-29 150,-209 328,-209 328,-29 150,-29"/>
<text text-anchor="middle" x="239" y="-192.9" style="font-family:Times New Roman;font-size:14.00;">001022</text>
</g>
<g id="cluster15" class="cluster"><title>cluster_14</title>
<polygon style="fill:none;stroke:black;" points="10,-548 10,-737 149,-737 149,-548 10,-548"/>
<text text-anchor="middle" x="79" y="-720.9" style="font-family:Times New Roman;font-size:14.00;">201012</text>
</g>
<g id="cluster16" class="cluster"><title>cluster_15</title>
<polygon style="fill:lightgrey;stroke:black;" points="350,-9 350,-195 530,-195 530,-9 350,-9"/>
<text text-anchor="middle" x="440" y="-178.9" style="font-family:Times New Roman;font-size:14.00;">200002</text>
</g>
<g id="cluster17" class="cluster"><title>cluster_16</title>
<polygon style="fill:lightgrey;stroke:black;" points="550,-9 550,-195 730,-195 730,-9 550,-9"/>
<text text-anchor="middle" x="640" y="-178.9" style="font-family:Times New Roman;font-size:14.00;">000022</text>
</g>
<g id="cluster18" class="cluster"><title>cluster_17</title>
<polygon style="fill:lightgrey;stroke:black;" points="750,-8 750,-193 931,-193 931,-8 750,-8"/>
<text text-anchor="middle" x="840" y="-176.9" style="font-family:Times New Roman;font-size:14.00;">202012</text>
</g>
<!-- VEH2 -->
<g id="node3" class="node"><title>VEH2</title>
<text text-anchor="middle" x="386" y="-231.6" style="font-family:Times New Roman;font-size:16.00;">VEH</text>
</g>
<!-- C102 -->
<g id="node5" class="node"><title>C102</title>
<text text-anchor="middle" x="432" y="-293.6" style="font-family:Times New Roman;font-size:16.00;">C10</text>
</g>
<!-- VEH2&#45;&gt;C102 -->
<g id="edge4" class="edge"><title>VEH2&#45;&gt;C102</title>
<path style="fill:none;stroke:black;" d="M400,-254C404,-259 409,-266 413,-272"/>
<polygon style="fill:black;stroke:black;" points="409.732,-273.375 418,-280 415.668,-269.665 409.732,-273.375"/>
</g>
<!-- C32 -->
<g id="node4" class="node"><title>C32</title>
<text text-anchor="middle" x="491" y="-243.6" style="font-family:Times New Roman;font-size:16.00;">C3</text>
</g>
<!-- C32&#45;&gt;C102 -->
<g id="edge6" class="edge"><title>C32&#45;&gt;C102</title>
<path style="fill:none;stroke:black;" d="M470,-266C467,-268 464,-271 461,-274"/>
<polygon style="fill:black;stroke:black;" points="458.9,-271.2 453,-280 463.1,-276.8 458.9,-271.2"/>
</g>
<!-- C302 -->
<g id="node6" class="node"><title>C302</title>
<text text-anchor="middle" x="425" y="-346.6" style="font-family:Times New Roman;font-size:16.00;">C30</text>
</g>
<!-- C302&#45;&gt;C102 -->
<g id="edge8" class="edge"><title>C302&#45;&gt;C102</title>
<path style="fill:none;stroke:black;" d="M427,-333C427,-331 428,-328 428,-326"/>
<polygon style="fill:black;stroke:black;" points="431.488,-326.299 429,-316 424.522,-325.602 431.488,-326.299"/>
</g>
<!-- VEH3 -->
<g id="node11" class="node"><title>VEH3</title>
<text text-anchor="middle" x="786" y="-439.6" style="font-family:Times New Roman;font-size:16.00;">VEH</text>
</g>
<!-- C103 -->
<g id="node13" class="node"><title>C103</title>
<text text-anchor="middle" x="851" y="-410.6" style="font-family:Times New Roman;font-size:16.00;">C10</text>
</g>
<!-- VEH3&#45;&gt;C103 -->
<g id="edge11" class="edge"><title>VEH3&#45;&gt;C103</title>
<path style="fill:none;stroke:black;" d="M813,-432C814,-432 814,-431 815,-431"/>
<polygon style="fill:black;stroke:black;" points="816.283,-434.26 824,-427 813.44,-427.863 816.283,-434.26"/>
</g>
<!-- C303 -->
<g id="node14" class="node"><title>C303</title>
<text text-anchor="middle" x="835" y="-488.6" style="font-family:Times New Roman;font-size:16.00;">C30</text>
</g>
<!-- VEH3&#45;&gt;C303 -->
<g id="edge13" class="edge"><title>VEH3&#45;&gt;C303</title>
<path style="fill:none;stroke:black;" d="M804,-462C806,-464 808,-466 810,-468"/>
<polygon style="fill:black;stroke:black;" points="807.454,-470.404 817,-475 812.404,-465.454 807.454,-470.404"/>
</g>
<!-- C33 -->
<g id="node12" class="node"><title>C33</title>
<text text-anchor="middle" x="901" y="-460.6" style="font-family:Times New Roman;font-size:16.00;">C3</text>
</g>
<!-- C33&#45;&gt;C103 -->
<g id="edge15" class="edge"><title>C33&#45;&gt;C103</title>
<path style="fill:none;stroke:black;" d="M883,-447C881,-445 879,-443 876,-440"/>
<polygon style="fill:black;stroke:black;" points="878.546,-437.596 869,-433 873.596,-442.546 878.546,-437.596"/>
</g>
<!-- C33&#45;&gt;C303 -->
<g id="edge17" class="edge"><title>C33&#45;&gt;C303</title>
<path style="fill:none;stroke:black;" d="M874,-477C873,-477 872,-478 871,-478"/>
<polygon style="fill:black;stroke:black;" points="869.717,-474.74 862,-482 872.56,-481.137 869.717,-474.74"/>
</g>
<!-- C303&#45;&gt;C103 -->
<g id="edge19" class="edge"><title>C303&#45;&gt;C103</title>
<path style="fill:none;stroke:black;" d="M839,-475C841,-465 843,-454 845,-443"/>
<polygon style="fill:black;stroke:black;" points="848.471,-443.492 847,-433 841.607,-442.119 848.471,-443.492"/>
</g>
<!-- VEH4 -->
<g id="node21" class="node"><title>VEH4</title>
<text text-anchor="middle" x="218" y="-610.6" style="font-family:Times New Roman;font-size:16.00;">VEH</text>
</g>
<!-- C104 -->
<g id="node23" class="node"><title>C104</title>
<text text-anchor="middle" x="268" y="-660.6" style="font-family:Times New Roman;font-size:16.00;">C10</text>
</g>
<!-- VEH4&#45;&gt;C104 -->
<g id="edge22" class="edge"><title>VEH4&#45;&gt;C104</title>
<path style="fill:none;stroke:black;" d="M236,-633C238,-635 240,-637 243,-640"/>
<polygon style="fill:black;stroke:black;" points="240.454,-642.404 250,-647 245.404,-637.454 240.454,-642.404"/>
</g>
<!-- C34 -->
<g id="node22" class="node"><title>C34</title>
<text text-anchor="middle" x="271" y="-716.6" style="font-family:Times New Roman;font-size:16.00;">C3</text>
</g>
<!-- C34&#45;&gt;C104 -->
<g id="edge24" class="edge"><title>C34&#45;&gt;C104</title>
<path style="fill:none;stroke:black;" d="M270,-703C270,-700 270,-697 269,-693"/>
<polygon style="fill:black;stroke:black;" points="272.5,-693 269,-683 265.5,-693 272.5,-693"/>
</g>
<!-- C304 -->
<g id="node24" class="node"><title>C304</title>
<text text-anchor="middle" x="206" y="-695.6" style="font-family:Times New Roman;font-size:16.00;">C30</text>
</g>
<!-- C34&#45;&gt;C304 -->
<g id="edge26" class="edge"><title>C34&#45;&gt;C304</title>
<path style="fill:none;stroke:black;" d="M244,-712C244,-712 243,-712 243,-712"/>
<polygon style="fill:black;stroke:black;" points="243.584,-708.521 233,-709 241.573,-715.226 243.584,-708.521"/>
</g>
<!-- C304&#45;&gt;C104 -->
<g id="edge28" class="edge"><title>C304&#45;&gt;C104</title>
<path style="fill:none;stroke:black;" d="M233,-685C233,-685 233,-685 233,-685"/>
<polygon style="fill:black;stroke:black;" points="234.375,-688.268 241,-680 230.665,-682.332 234.375,-688.268"/>
</g>
<!-- VEH5 -->
<g id="node30" class="node"><title>VEH5</title>
<text text-anchor="middle" x="587" y="-277.6" style="font-family:Times New Roman;font-size:16.00;">VEH</text>
</g>
<!-- C105 -->
<g id="node32" class="node"><title>C105</title>
<text text-anchor="middle" x="640" y="-231.6" style="font-family:Times New Roman;font-size:16.00;">C10</text>
</g>
<!-- VEH5&#45;&gt;C105 -->
<g id="edge31" class="edge"><title>VEH5&#45;&gt;C105</title>
<path style="fill:none;stroke:black;" d="M608,-264C609,-263 611,-262 612,-261"/>
<polygon style="fill:black;stroke:black;" points="614.404,-263.546 619,-254 609.454,-258.596 614.404,-263.546"/>
</g>
<!-- C305 -->
<g id="node33" class="node"><title>C305</title>
<text text-anchor="middle" x="653" y="-310.6" style="font-family:Times New Roman;font-size:16.00;">C30</text>
</g>
<!-- VEH5&#45;&gt;C305 -->
<g id="edge33" class="edge"><title>VEH5&#45;&gt;C305</title>
<path style="fill:none;stroke:black;" d="M614,-296C615,-297 616,-297 617,-298"/>
<polygon style="fill:black;stroke:black;" points="615.44,-301.137 626,-302 618.283,-294.74 615.44,-301.137"/>
</g>
<!-- C35 -->
<g id="node31" class="node"><title>C35</title>
<text text-anchor="middle" x="710" y="-244.6" style="font-family:Times New Roman;font-size:16.00;">C3</text>
</g>
<!-- C35&#45;&gt;C105 -->
<g id="edge35" class="edge"><title>C35&#45;&gt;C105</title>
<path style="fill:none;stroke:black;" d="M683,-244C681,-244 679,-243 677,-243"/>
<polygon style="fill:black;stroke:black;" points="677.492,-239.529 667,-241 676.119,-246.393 677.492,-239.529"/>
</g>
<!-- C305&#45;&gt;C105 -->
<g id="edge37" class="edge"><title>C305&#45;&gt;C105</title>
<path style="fill:none;stroke:black;" d="M650,-297C648,-287 646,-275 645,-264"/>
<polygon style="fill:black;stroke:black;" points="648.393,-263.119 643,-254 641.529,-264.492 648.393,-263.119"/>
</g>
<!-- VEH6 -->
<g id="node39" class="node"><title>VEH6</title>
<text text-anchor="middle" x="586" y="-457.6" style="font-family:Times New Roman;font-size:16.00;">VEH</text>
</g>
<!-- C36 -->
<g id="node40" class="node"><title>C36</title>
<text text-anchor="middle" x="695" y="-461.6" style="font-family:Times New Roman;font-size:16.00;">C3</text>
</g>
<!-- VEH6&#45;&gt;C36 -->
<g id="edge40" class="edge"><title>VEH6&#45;&gt;C36</title>
<path style="fill:none;stroke:black;" d="M613,-463C627,-464 643,-464 658,-465"/>
<polygon style="fill:black;stroke:black;" points="658,-468.5 668,-465 658,-461.5 658,-468.5"/>
</g>
<!-- C106 -->
<g id="node41" class="node"><title>C106</title>
<text text-anchor="middle" x="641" y="-410.6" style="font-family:Times New Roman;font-size:16.00;">C10</text>
</g>
<!-- VEH6&#45;&gt;C106 -->
<g id="edge42" class="edge"><title>VEH6&#45;&gt;C106</title>
<path style="fill:none;stroke:black;" d="M607,-444C609,-442 610,-441 612,-439"/>
<polygon style="fill:black;stroke:black;" points="614.1,-441.8 620,-433 609.9,-436.2 614.1,-441.8"/>
</g>
<!-- C306 -->
<g id="node42" class="node"><title>C306</title>
<text text-anchor="middle" x="619" y="-516.6" style="font-family:Times New Roman;font-size:16.00;">C30</text>
</g>
<!-- VEH6&#45;&gt;C306 -->
<g id="edge44" class="edge"><title>VEH6&#45;&gt;C306</title>
<path style="fill:none;stroke:black;" d="M596,-480C598,-484 601,-489 604,-494"/>
<polygon style="fill:black;stroke:black;" points="601.084,-495.958 609,-503 607.203,-492.559 601.084,-495.958"/>
</g>
<!-- C36&#45;&gt;C106 -->
<g id="edge46" class="edge"><title>C36&#45;&gt;C106</title>
<path style="fill:none;stroke:black;" d="M676,-448C673,-445 670,-443 667,-440"/>
<polygon style="fill:black;stroke:black;" points="669.546,-437.596 660,-433 664.596,-442.546 669.546,-437.596"/>
</g>
<!-- C306&#45;&gt;C106 -->
<g id="edge48" class="edge"><title>C306&#45;&gt;C106</title>
<path style="fill:none;stroke:black;" d="M623,-503C626,-486 631,-462 635,-443"/>
<polygon style="fill:black;stroke:black;" points="638.471,-443.492 637,-433 631.607,-442.119 638.471,-443.492"/>
</g>
<!-- VEH7 -->
<g id="node49" class="node"><title>VEH7</title>
<text text-anchor="middle" x="418" y="-630.6" style="font-family:Times New Roman;font-size:16.00;">VEH</text>
</g>
<!-- C107 -->
<g id="node51" class="node"><title>C107</title>
<text text-anchor="middle" x="468" y="-680.6" style="font-family:Times New Roman;font-size:16.00;">C10</text>
</g>
<!-- VEH7&#45;&gt;C107 -->
<g id="edge51" class="edge"><title>VEH7&#45;&gt;C107</title>
<path style="fill:none;stroke:black;" d="M436,-653C438,-655 440,-657 443,-660"/>
<polygon style="fill:black;stroke:black;" points="440.454,-662.404 450,-667 445.404,-657.454 440.454,-662.404"/>
</g>
<!-- C37 -->
<g id="node50" class="node"><title>C37</title>
<text text-anchor="middle" x="471" y="-736.6" style="font-family:Times New Roman;font-size:16.00;">C3</text>
</g>
<!-- C37&#45;&gt;C107 -->
<g id="edge53" class="edge"><title>C37&#45;&gt;C107</title>
<path style="fill:none;stroke:black;" d="M470,-723C470,-720 470,-717 469,-713"/>
<polygon style="fill:black;stroke:black;" points="472.5,-713 469,-703 465.5,-713 472.5,-713"/>
</g>
<!-- C307 -->
<g id="node52" class="node"><title>C307</title>
<text text-anchor="middle" x="406" y="-715.6" style="font-family:Times New Roman;font-size:16.00;">C30</text>
</g>
<!-- C307&#45;&gt;C37 -->
<g id="edge55" class="edge"><title>C307&#45;&gt;C37</title>
<path style="fill:none;stroke:black;" d="M433,-729C433,-729 434,-729 434,-729"/>
<polygon style="fill:black;stroke:black;" points="433.416,-732.479 444,-732 435.427,-725.774 433.416,-732.479"/>
</g>
<!-- C307&#45;&gt;C107 -->
<g id="edge57" class="edge"><title>C307&#45;&gt;C107</title>
<path style="fill:none;stroke:black;" d="M433,-705C433,-705 433,-705 433,-705"/>
<polygon style="fill:black;stroke:black;" points="434.375,-708.268 441,-700 430.665,-702.332 434.375,-708.268"/>
</g>
<!-- VEH8 -->
<g id="node58" class="node"><title>VEH8</title>
<text text-anchor="middle" x="46" y="-815.6" style="font-family:Times New Roman;font-size:16.00;">VEH</text>
</g>
<!-- C38 -->
<g id="node59" class="node"><title>C38</title>
<text text-anchor="middle" x="97" y="-771.6" style="font-family:Times New Roman;font-size:16.00;">C3</text>
</g>
<!-- VEH8&#45;&gt;C38 -->
<g id="edge60" class="edge"><title>VEH8&#45;&gt;C38</title>
<path style="fill:none;stroke:black;" d="M67,-802C67,-802 68,-801 68,-801"/>
<polygon style="fill:black;stroke:black;" points="70.779,-803.219 76,-794 66.1694,-797.951 70.779,-803.219"/>
</g>
<!-- C108 -->
<g id="node60" class="node"><title>C108</title>
<text text-anchor="middle" x="113" y="-831.6" style="font-family:Times New Roman;font-size:16.00;">C10</text>
</g>
<!-- VEH8&#45;&gt;C108 -->
<g id="edge62" class="edge"><title>VEH8&#45;&gt;C108</title>
<path style="fill:none;stroke:black;" d="M73,-827C74,-827 75,-828 76,-828"/>
<polygon style="fill:black;stroke:black;" points="75.5078,-831.471 86,-830 76.8806,-824.607 75.5078,-831.471"/>
</g>
<!-- C38&#45;&gt;C108 -->
<g id="edge64" class="edge"><title>C38&#45;&gt;C108</title>
<path style="fill:none;stroke:black;" d="M102,-794C103,-799 104,-804 106,-808"/>
<polygon style="fill:black;stroke:black;" points="102.607,-808.881 108,-818 109.471,-807.508 102.607,-808.881"/>
</g>
<!-- C308 -->
<g id="node61" class="node"><title>C308</title>
<text text-anchor="middle" x="88" y="-881.6" style="font-family:Times New Roman;font-size:16.00;">C30</text>
</g>
<!-- C308&#45;&gt;C108 -->
<g id="edge66" class="edge"><title>C308&#45;&gt;C108</title>
<path style="fill:none;stroke:black;" d="M97,-868C98,-867 99,-865 100,-863"/>
<polygon style="fill:black;stroke:black;" points="103.137,-864.56 104,-854 96.7402,-861.717 103.137,-864.56"/>
</g>
<!-- VEH9 -->
<g id="node67" class="node"><title>VEH9</title>
<text text-anchor="middle" x="367" y="-497.6" style="font-family:Times New Roman;font-size:16.00;">VEH</text>
</g>
<!-- C109 -->
<g id="node69" class="node"><title>C109</title>
<text text-anchor="middle" x="420" y="-451.6" style="font-family:Times New Roman;font-size:16.00;">C10</text>
</g>
<!-- VEH9&#45;&gt;C109 -->
<g id="edge69" class="edge"><title>VEH9&#45;&gt;C109</title>
<path style="fill:none;stroke:black;" d="M388,-484C389,-483 391,-482 392,-481"/>
<polygon style="fill:black;stroke:black;" points="394.404,-483.546 399,-474 389.454,-478.596 394.404,-483.546"/>
</g>
<!-- C39 -->
<g id="node68" class="node"><title>C39</title>
<text text-anchor="middle" x="490" y="-464.6" style="font-family:Times New Roman;font-size:16.00;">C3</text>
</g>
<!-- C39&#45;&gt;C109 -->
<g id="edge71" class="edge"><title>C39&#45;&gt;C109</title>
<path style="fill:none;stroke:black;" d="M463,-464C461,-464 459,-463 457,-463"/>
<polygon style="fill:black;stroke:black;" points="457.492,-459.529 447,-461 456.119,-466.393 457.492,-459.529"/>
</g>
<!-- C309 -->
<g id="node70" class="node"><title>C309</title>
<text text-anchor="middle" x="433" y="-530.6" style="font-family:Times New Roman;font-size:16.00;">C30</text>
</g>
<!-- C309&#45;&gt;VEH9 -->
<g id="edge73" class="edge"><title>C309&#45;&gt;VEH9</title>
<path style="fill:none;stroke:black;" d="M406,-521C405,-521 404,-520 403,-520"/>
<polygon style="fill:black;stroke:black;" points="404.441,-516.797 394,-515 401.042,-522.916 404.441,-516.797"/>
</g>
<!-- C309&#45;&gt;C109 -->
<g id="edge75" class="edge"><title>C309&#45;&gt;C109</title>
<path style="fill:none;stroke:black;" d="M430,-517C428,-507 426,-495 425,-484"/>
<polygon style="fill:black;stroke:black;" points="428.393,-483.119 423,-474 421.529,-484.492 428.393,-483.119"/>
</g>
<!-- VEH10 -->
<g id="node76" class="node"><title>VEH10</title>
<text text-anchor="middle" x="766" y="-643.6" style="font-family:Times New Roman;font-size:16.00;">VEH</text>
</g>
<!-- C1010 -->
<g id="node78" class="node"><title>C1010</title>
<text text-anchor="middle" x="834" y="-611.6" style="font-family:Times New Roman;font-size:16.00;">C10</text>
</g>
<!-- VEH10&#45;&gt;C1010 -->
<g id="edge78" class="edge"><title>VEH10&#45;&gt;C1010</title>
<path style="fill:none;stroke:black;" d="M793,-635C795,-634 796,-634 798,-633"/>
<polygon style="fill:black;stroke:black;" points="799.958,-635.916 807,-628 796.559,-629.797 799.958,-635.916"/>
</g>
<!-- C310 -->
<g id="node77" class="node"><title>C310</title>
<text text-anchor="middle" x="872" y="-663.6" style="font-family:Times New Roman;font-size:16.00;">C3</text>
</g>
<!-- C310&#45;&gt;VEH10 -->
<g id="edge80" class="edge"><title>C310&#45;&gt;VEH10</title>
<path style="fill:none;stroke:black;" d="M845,-663C832,-661 817,-658 803,-655"/>
<polygon style="fill:black;stroke:black;" points="803.492,-651.529 793,-653 802.119,-658.393 803.492,-651.529"/>
</g>
<!-- C310&#45;&gt;C1010 -->
<g id="edge82" class="edge"><title>C310&#45;&gt;C1010</title>
<path style="fill:none;stroke:black;" d="M859,-650C857,-648 855,-645 853,-642"/>
<polygon style="fill:black;stroke:black;" points="855.8,-639.9 847,-634 850.2,-644.1 855.8,-639.9"/>
</g>
<!-- C3010 -->
<g id="node79" class="node"><title>C3010</title>
<text text-anchor="middle" x="819" y="-712.6" style="font-family:Times New Roman;font-size:16.00;">C30</text>
</g>
<!-- C310&#45;&gt;C3010 -->
<g id="edge84" class="edge"><title>C310&#45;&gt;C3010</title>
<path style="fill:none;stroke:black;" d="M852,-686C850,-688 848,-690 846,-692"/>
<polygon style="fill:black;stroke:black;" points="843.221,-689.781 838,-699 847.831,-695.049 843.221,-689.781"/>
</g>
<!-- C3010&#45;&gt;C1010 -->
<g id="edge86" class="edge"><title>C3010&#45;&gt;C1010</title>
<path style="fill:none;stroke:black;" d="M822,-699C825,-684 828,-662 830,-644"/>
<polygon style="fill:black;stroke:black;" points="833.488,-644.299 831,-634 826.522,-643.602 833.488,-644.299"/>
</g>
<!-- VEH11 -->
<g id="node86" class="node"><title>VEH11</title>
<text text-anchor="middle" x="566" y="-659.6" style="font-family:Times New Roman;font-size:16.00;">VEH</text>
</g>
<!-- C1011 -->
<g id="node88" class="node"><title>C1011</title>
<text text-anchor="middle" x="631" y="-630.6" style="font-family:Times New Roman;font-size:16.00;">C10</text>
</g>
<!-- VEH11&#45;&gt;C1011 -->
<g id="edge89" class="edge"><title>VEH11&#45;&gt;C1011</title>
<path style="fill:none;stroke:black;" d="M593,-652C594,-652 594,-651 595,-651"/>
<polygon style="fill:black;stroke:black;" points="596.283,-654.26 604,-647 593.44,-647.863 596.283,-654.26"/>
</g>
<!-- C311 -->
<g id="node87" class="node"><title>C311</title>
<text text-anchor="middle" x="681" y="-680.6" style="font-family:Times New Roman;font-size:16.00;">C3</text>
</g>
<!-- C311&#45;&gt;C1011 -->
<g id="edge91" class="edge"><title>C311&#45;&gt;C1011</title>
<path style="fill:none;stroke:black;" d="M663,-667C661,-665 659,-663 656,-660"/>
<polygon style="fill:black;stroke:black;" points="658.546,-657.596 649,-653 653.596,-662.546 658.546,-657.596"/>
</g>
<!-- C3011 -->
<g id="node89" class="node"><title>C3011</title>
<text text-anchor="middle" x="615" y="-708.6" style="font-family:Times New Roman;font-size:16.00;">C30</text>
</g>
<!-- C3011&#45;&gt;VEH11 -->
<g id="edge93" class="edge"><title>C3011&#45;&gt;VEH11</title>
<path style="fill:none;stroke:black;" d="M597,-695C595,-693 593,-691 591,-689"/>
<polygon style="fill:black;stroke:black;" points="593.546,-686.596 584,-682 588.596,-691.546 593.546,-686.596"/>
</g>
<!-- C3011&#45;&gt;C311 -->
<g id="edge95" class="edge"><title>C3011&#45;&gt;C311</title>
<path style="fill:none;stroke:black;" d="M642,-701C643,-701 644,-700 645,-700"/>
<polygon style="fill:black;stroke:black;" points="646.283,-703.26 654,-696 643.44,-696.863 646.283,-703.26"/>
</g>
<!-- C3011&#45;&gt;C1011 -->
<g id="edge97" class="edge"><title>C3011&#45;&gt;C1011</title>
<path style="fill:none;stroke:black;" d="M619,-695C621,-685 623,-674 625,-663"/>
<polygon style="fill:black;stroke:black;" points="628.471,-663.492 627,-653 621.607,-662.119 628.471,-663.492"/>
</g>
<!-- VEH12 -->
<g id="node96" class="node"><title>VEH12</title>
<text text-anchor="middle" x="187" y="-296.6" style="font-family:Times New Roman;font-size:16.00;">VEH</text>
</g>
<!-- C312 -->
<g id="node97" class="node"><title>C312</title>
<text text-anchor="middle" x="294" y="-313.6" style="font-family:Times New Roman;font-size:16.00;">C3</text>
</g>
<!-- VEH12&#45;&gt;C312 -->
<g id="edge100" class="edge"><title>VEH12&#45;&gt;C312</title>
<path style="fill:none;stroke:black;" d="M214,-305C227,-307 243,-310 257,-312"/>
<polygon style="fill:black;stroke:black;" points="256.701,-315.488 267,-313 257.398,-308.522 256.701,-315.488"/>
</g>
<!-- C1012 -->
<g id="node98" class="node"><title>C1012</title>
<text text-anchor="middle" x="250" y="-251.6" style="font-family:Times New Roman;font-size:16.00;">C10</text>
</g>
<!-- VEH12&#45;&gt;C1012 -->
<g id="edge102" class="edge"><title>VEH12&#45;&gt;C1012</title>
<path style="fill:none;stroke:black;" d="M212,-283C213,-282 215,-281 216,-280"/>
<polygon style="fill:black;stroke:black;" points="218.1,-282.8 224,-274 213.9,-277.2 218.1,-282.8"/>
</g>
<!-- C3012 -->
<g id="node99" class="node"><title>C3012</title>
<text text-anchor="middle" x="231" y="-358.6" style="font-family:Times New Roman;font-size:16.00;">C30</text>
</g>
<!-- VEH12&#45;&gt;C3012 -->
<g id="edge104" class="edge"><title>VEH12&#45;&gt;C3012</title>
<path style="fill:none;stroke:black;" d="M200,-319C204,-324 208,-331 212,-337"/>
<polygon style="fill:black;stroke:black;" points="209.2,-339.1 218,-345 214.8,-334.9 209.2,-339.1"/>
</g>
<!-- C312&#45;&gt;C1012 -->
<g id="edge106" class="edge"><title>C312&#45;&gt;C1012</title>
<path style="fill:none;stroke:black;" d="M281,-300C277,-295 273,-288 269,-282"/>
<polygon style="fill:black;stroke:black;" points="271.8,-279.9 263,-274 266.2,-284.1 271.8,-279.9"/>
</g>
<!-- C312&#45;&gt;C3012 -->
<g id="edge108" class="edge"><title>C312&#45;&gt;C3012</title>
<path style="fill:none;stroke:black;" d="M269,-336C268,-337 267,-338 265,-339"/>
<polygon style="fill:black;stroke:black;" points="262.9,-336.2 257,-345 267.1,-341.8 262.9,-336.2"/>
</g>
<!-- C3012&#45;&gt;C1012 -->
<g id="edge110" class="edge"><title>C3012&#45;&gt;C1012</title>
<path style="fill:none;stroke:black;" d="M234,-345C237,-328 241,-303 245,-284"/>
<polygon style="fill:black;stroke:black;" points="248.471,-284.492 247,-274 241.607,-283.119 248.471,-284.492"/>
</g>
<!-- VEH13 -->
<g id="node107" class="node"><title>VEH13</title>
<text text-anchor="middle" x="186" y="-83.6" style="font-family:Times New Roman;font-size:16.00;">VEH</text>
</g>
<!-- C313 -->
<g id="node108" class="node"><title>C313</title>
<text text-anchor="middle" x="292" y="-103.6" style="font-family:Times New Roman;font-size:16.00;">C3</text>
</g>
<!-- VEH13&#45;&gt;C313 -->
<g id="edge113" class="edge"><title>VEH13&#45;&gt;C313</title>
<path style="fill:none;stroke:black;" d="M213,-93C226,-95 241,-98 255,-101"/>
<polygon style="fill:black;stroke:black;" points="254.508,-104.471 265,-103 255.881,-97.6067 254.508,-104.471"/>
</g>
<!-- C1013 -->
<g id="node109" class="node"><title>C1013</title>
<text text-anchor="middle" x="254" y="-51.6" style="font-family:Times New Roman;font-size:16.00;">C10</text>
</g>
<!-- VEH13&#45;&gt;C1013 -->
<g id="edge115" class="edge"><title>VEH13&#45;&gt;C1013</title>
<path style="fill:none;stroke:black;" d="M213,-75C215,-74 216,-74 218,-73"/>
<polygon style="fill:black;stroke:black;" points="219.958,-75.916 227,-68 216.559,-69.7969 219.958,-75.916"/>
</g>
<!-- C313&#45;&gt;C1013 -->
<g id="edge117" class="edge"><title>C313&#45;&gt;C1013</title>
<path style="fill:none;stroke:black;" d="M279,-90C277,-88 275,-85 273,-82"/>
<polygon style="fill:black;stroke:black;" points="275.8,-79.9 267,-74 270.2,-84.1 275.8,-79.9"/>
</g>
<!-- C3013 -->
<g id="node110" class="node"><title>C3013</title>
<text text-anchor="middle" x="239" y="-152.6" style="font-family:Times New Roman;font-size:16.00;">C30</text>
</g>
<!-- C3013&#45;&gt;C313 -->
<g id="edge119" class="edge"><title>C3013&#45;&gt;C313</title>
<path style="fill:none;stroke:black;" d="M259,-139C261,-137 263,-135 265,-133"/>
<polygon style="fill:black;stroke:black;" points="267.779,-135.219 273,-126 263.169,-129.951 267.779,-135.219"/>
</g>
<!-- C3013&#45;&gt;C1013 -->
<g id="edge121" class="edge"><title>C3013&#45;&gt;C1013</title>
<path style="fill:none;stroke:black;" d="M242,-139C245,-124 248,-102 250,-84"/>
<polygon style="fill:black;stroke:black;" points="253.488,-84.2987 251,-74 246.522,-83.6021 253.488,-84.2987"/>
</g>
<!-- VEH14 -->
<g id="node117" class="node"><title>VEH14</title>
<text text-anchor="middle" x="46" y="-615.6" style="font-family:Times New Roman;font-size:16.00;">VEH</text>
</g>
<!-- C1014 -->
<g id="node119" class="node"><title>C1014</title>
<text text-anchor="middle" x="113" y="-631.6" style="font-family:Times New Roman;font-size:16.00;">C10</text>
</g>
<!-- VEH14&#45;&gt;C1014 -->
<g id="edge124" class="edge"><title>VEH14&#45;&gt;C1014</title>
<path style="fill:none;stroke:black;" d="M73,-627C74,-627 75,-628 76,-628"/>
<polygon style="fill:black;stroke:black;" points="75.5078,-631.471 86,-630 76.8806,-624.607 75.5078,-631.471"/>
</g>
<!-- C314 -->
<g id="node118" class="node"><title>C314</title>
<text text-anchor="middle" x="97" y="-571.6" style="font-family:Times New Roman;font-size:16.00;">C3</text>
</g>
<!-- C314&#45;&gt;VEH14 -->
<g id="edge126" class="edge"><title>C314&#45;&gt;VEH14</title>
<path style="fill:none;stroke:black;" d="M76,-594C76,-594 75,-595 75,-595"/>
<polygon style="fill:black;stroke:black;" points="72.221,-592.781 67,-602 76.8306,-598.049 72.221,-592.781"/>
</g>
<!-- C314&#45;&gt;C1014 -->
<g id="edge128" class="edge"><title>C314&#45;&gt;C1014</title>
<path style="fill:none;stroke:black;" d="M102,-594C103,-599 104,-604 106,-608"/>
<polygon style="fill:black;stroke:black;" points="102.607,-608.881 108,-618 109.471,-607.508 102.607,-608.881"/>
</g>
<!-- C3014 -->
<g id="node120" class="node"><title>C3014</title>
<text text-anchor="middle" x="88" y="-681.6" style="font-family:Times New Roman;font-size:16.00;">C30</text>
</g>
<!-- C3014&#45;&gt;C1014 -->
<g id="edge130" class="edge"><title>C3014&#45;&gt;C1014</title>
<path style="fill:none;stroke:black;" d="M97,-668C98,-667 99,-665 100,-663"/>
<polygon style="fill:black;stroke:black;" points="103.137,-664.56 104,-654 96.7402,-661.717 103.137,-664.56"/>
</g>
<!-- VEH15 -->
<g id="node126" class="node"><title>VEH15</title>
<text text-anchor="middle" x="387" y="-76.6" style="font-family:Times New Roman;font-size:16.00;">VEH</text>
</g>
<!-- C1015 -->
<g id="node128" class="node"><title>C1015</title>
<text text-anchor="middle" x="450" y="-31.6" style="font-family:Times New Roman;font-size:16.00;">C10</text>
</g>
<!-- VEH15&#45;&gt;C1015 -->
<g id="edge133" class="edge"><title>VEH15&#45;&gt;C1015</title>
<path style="fill:none;stroke:black;" d="M412,-63C413,-62 415,-61 416,-60"/>
<polygon style="fill:black;stroke:black;" points="418.1,-62.8 424,-54 413.9,-57.2 418.1,-62.8"/>
</g>
<!-- C3015 -->
<g id="node129" class="node"><title>C3015</title>
<text text-anchor="middle" x="431" y="-138.6" style="font-family:Times New Roman;font-size:16.00;">C30</text>
</g>
<!-- VEH15&#45;&gt;C3015 -->
<g id="edge135" class="edge"><title>VEH15&#45;&gt;C3015</title>
<path style="fill:none;stroke:black;" d="M400,-99C404,-104 408,-111 412,-117"/>
<polygon style="fill:black;stroke:black;" points="409.2,-119.1 418,-125 414.8,-114.9 409.2,-119.1"/>
</g>
<!-- C315 -->
<g id="node127" class="node"><title>C315</title>
<text text-anchor="middle" x="494" y="-93.6" style="font-family:Times New Roman;font-size:16.00;">C3</text>
</g>
<!-- C315&#45;&gt;VEH15 -->
<g id="edge137" class="edge"><title>C315&#45;&gt;VEH15</title>
<path style="fill:none;stroke:black;" d="M467,-94C454,-92 438,-89 424,-87"/>
<polygon style="fill:black;stroke:black;" points="424.299,-83.5125 414,-86 423.602,-90.4778 424.299,-83.5125"/>
</g>
<!-- C315&#45;&gt;C1015 -->
<g id="edge139" class="edge"><title>C315&#45;&gt;C1015</title>
<path style="fill:none;stroke:black;" d="M481,-80C477,-75 473,-68 469,-62"/>
<polygon style="fill:black;stroke:black;" points="471.8,-59.9 463,-54 466.2,-64.1 471.8,-59.9"/>
</g>
<!-- C315&#45;&gt;C3015 -->
<g id="edge141" class="edge"><title>C315&#45;&gt;C3015</title>
<path style="fill:none;stroke:black;" d="M469,-116C468,-117 467,-118 465,-119"/>
<polygon style="fill:black;stroke:black;" points="462.9,-116.2 457,-125 467.1,-121.8 462.9,-116.2"/>
</g>
<!-- C3015&#45;&gt;C1015 -->
<g id="edge143" class="edge"><title>C3015&#45;&gt;C1015</title>
<path style="fill:none;stroke:black;" d="M434,-125C437,-108 441,-83 445,-64"/>
<polygon style="fill:black;stroke:black;" points="448.471,-64.4922 447,-54 441.607,-63.1194 448.471,-64.4922"/>
</g>
<!-- VEH16 -->
<g id="node137" class="node"><title>VEH16</title>
<text text-anchor="middle" x="587" y="-76.6" style="font-family:Times New Roman;font-size:16.00;">VEH</text>
</g>
<!-- C316 -->
<g id="node138" class="node"><title>C316</title>
<text text-anchor="middle" x="694" y="-93.6" style="font-family:Times New Roman;font-size:16.00;">C3</text>
</g>
<!-- VEH16&#45;&gt;C316 -->
<g id="edge146" class="edge"><title>VEH16&#45;&gt;C316</title>
<path style="fill:none;stroke:black;" d="M614,-85C627,-87 643,-90 657,-92"/>
<polygon style="fill:black;stroke:black;" points="656.701,-95.4875 667,-93 657.398,-88.5222 656.701,-95.4875"/>
</g>
<!-- C1016 -->
<g id="node139" class="node"><title>C1016</title>
<text text-anchor="middle" x="650" y="-31.6" style="font-family:Times New Roman;font-size:16.00;">C10</text>
</g>
<!-- VEH16&#45;&gt;C1016 -->
<g id="edge148" class="edge"><title>VEH16&#45;&gt;C1016</title>
<path style="fill:none;stroke:black;" d="M612,-63C613,-62 615,-61 616,-60"/>
<polygon style="fill:black;stroke:black;" points="618.1,-62.8 624,-54 613.9,-57.2 618.1,-62.8"/>
</g>
<!-- C3016 -->
<g id="node140" class="node"><title>C3016</title>
<text text-anchor="middle" x="631" y="-138.6" style="font-family:Times New Roman;font-size:16.00;">C30</text>
</g>
<!-- VEH16&#45;&gt;C3016 -->
<g id="edge150" class="edge"><title>VEH16&#45;&gt;C3016</title>
<path style="fill:none;stroke:black;" d="M600,-99C604,-104 608,-111 612,-117"/>
<polygon style="fill:black;stroke:black;" points="609.2,-119.1 618,-125 614.8,-114.9 609.2,-119.1"/>
</g>
<!-- C316&#45;&gt;C1016 -->
<g id="edge152" class="edge"><title>C316&#45;&gt;C1016</title>
<path style="fill:none;stroke:black;" d="M681,-80C677,-75 673,-68 669,-62"/>
<polygon style="fill:black;stroke:black;" points="671.8,-59.9 663,-54 666.2,-64.1 671.8,-59.9"/>
</g>
<!-- C3016&#45;&gt;C316 -->
<g id="edge154" class="edge"><title>C3016&#45;&gt;C316</title>
<path style="fill:none;stroke:black;" d="M656,-125C657,-124 659,-123 660,-122"/>
<polygon style="fill:black;stroke:black;" points="662.1,-124.8 668,-116 657.9,-119.2 662.1,-124.8"/>
</g>
<!-- C3016&#45;&gt;C1016 -->
<g id="edge156" class="edge"><title>C3016&#45;&gt;C1016</title>
<path style="fill:none;stroke:black;" d="M634,-125C637,-108 641,-83 645,-64"/>
<polygon style="fill:black;stroke:black;" points="648.471,-64.4922 647,-54 641.607,-63.1194 648.471,-64.4922"/>
</g>
<!-- VEH17 -->
<g id="node148" class="node"><title>VEH17</title>
<text text-anchor="middle" x="786" y="-77.6" style="font-family:Times New Roman;font-size:16.00;">VEH</text>
</g>
<!-- C1017 -->
<g id="node150" class="node"><title>C1017</title>
<text text-anchor="middle" x="841" y="-30.6" style="font-family:Times New Roman;font-size:16.00;">C10</text>
</g>
<!-- VEH17&#45;&gt;C1017 -->
<g id="edge159" class="edge"><title>VEH17&#45;&gt;C1017</title>
<path style="fill:none;stroke:black;" d="M807,-64C809,-62 810,-61 812,-59"/>
<polygon style="fill:black;stroke:black;" points="814.1,-61.8 820,-53 809.9,-56.2 814.1,-61.8"/>
</g>
<!-- C317 -->
<g id="node149" class="node"><title>C317</title>
<text text-anchor="middle" x="895" y="-81.6" style="font-family:Times New Roman;font-size:16.00;">C3</text>
</g>
<!-- C317&#45;&gt;VEH17 -->
<g id="edge161" class="edge"><title>C317&#45;&gt;VEH17</title>
<path style="fill:none;stroke:black;" d="M868,-85C854,-84 838,-84 823,-83"/>
<polygon style="fill:black;stroke:black;" points="823,-79.5001 813,-83 823,-86.5001 823,-79.5001"/>
</g>
<!-- C317&#45;&gt;C1017 -->
<g id="edge163" class="edge"><title>C317&#45;&gt;C1017</title>
<path style="fill:none;stroke:black;" d="M876,-68C873,-65 870,-63 867,-60"/>
<polygon style="fill:black;stroke:black;" points="869.546,-57.5962 860,-53 864.596,-62.546 869.546,-57.5962"/>
</g>
<!-- C3017 -->
<g id="node151" class="node"><title>C3017</title>
<text text-anchor="middle" x="819" y="-136.6" style="font-family:Times New Roman;font-size:16.00;">C30</text>
</g>
<!-- C3017&#45;&gt;VEH17 -->
<g id="edge165" class="edge"><title>C3017&#45;&gt;VEH17</title>
<path style="fill:none;stroke:black;" d="M809,-123C807,-119 804,-114 801,-109"/>
<polygon style="fill:black;stroke:black;" points="803.916,-107.042 796,-100 797.797,-110.441 803.916,-107.042"/>
</g>
<!-- C3017&#45;&gt;C1017 -->
<g id="edge167" class="edge"><title>C3017&#45;&gt;C1017</title>
<path style="fill:none;stroke:black;" d="M823,-123C826,-106 831,-82 835,-63"/>
<polygon style="fill:black;stroke:black;" points="838.471,-63.4922 837,-53 831.607,-62.1194 838.471,-63.4922"/>
</g>
</g>
</svg>
