<?xml version="1.0" encoding="UTF-8" standalone="no"?>
<!DOCTYPE svg PUBLIC "-//W3C//DTD SVG 1.0//EN"
 "http://www.w3.org/TR/2001/REC-SVG-20010904/DTD/svg10.dtd" [
 <!ATTLIST svg xmlns:xlink CDATA #FIXED "http://www.w3.org/1999/xlink">
]>
<!-- Generated by Graphviz version 2.20.2 (Tue Mar &#160;2 20:02:18 UTC 2010)
     For user: (nsvo) Nam Sy Vo,,, -->
<!-- Title: FirstlevelCluster Pages: 1 -->
<svg width="736pt" height="750pt"
 viewBox="0.00 0.00 736.00 750.00" xmlns="http://www.w3.org/2000/svg" xmlns:xlink="http://www.w3.org/1999/xlink">
<g id="graph0" class="graph" transform="scale(1 1) rotate(0) translate(4 746)">
<title>FirstlevelCluster</title>
<polygon style="fill:white;stroke:white;" points="-4,4 -4,-746 732,-746 732,4 -4,4"/>
<g id="cluster2" class="cluster"><title>cluster_0</title>
<polygon style="fill:none;stroke:black;" points="1,-0 1,-733 728,-733 728,-0 1,-0"/>
<text text-anchor="middle" x="364" y="-716.9" style="font-family:Times New Roman;font-size:14.00;">C30&gt;</text>
</g>
<g id="cluster3" class="cluster"><title>cluster_2</title>
<polygon style="fill:lightgrey;stroke:black;" points="371,-180 371,-362 535,-362 535,-180 371,-180"/>
<text text-anchor="middle" x="453" y="-345.9" style="font-family:Times New Roman;font-size:14.00;">112122</text>
</g>
<g id="cluster4" class="cluster"><title>cluster_3</title>
<polygon style="fill:none;stroke:black;" points="561,-350 561,-511 719,-511 719,-350 561,-350"/>
<text text-anchor="middle" x="640" y="-494.9" style="font-family:Times New Roman;font-size:14.00;">122122</text>
</g>
<g id="cluster5" class="cluster"><title>cluster_4</title>
<polygon style="fill:lightgrey;stroke:black;" points="275,-9 275,-165 462,-165 462,-9 275,-9"/>
<text text-anchor="middle" x="368" y="-148.9" style="font-family:Times New Roman;font-size:14.00;">122222</text>
</g>
<g id="cluster6" class="cluster"><title>cluster_5</title>
<polygon style="fill:lightgrey;stroke:black;" points="371,-370 371,-556 551,-556 551,-370 371,-370"/>
<text text-anchor="middle" x="461" y="-539.9" style="font-family:Times New Roman;font-size:14.00;">222222</text>
</g>
<g id="cluster7" class="cluster"><title>cluster_6</title>
<polygon style="fill:none;stroke:black;" points="9,-274 9,-447 172,-447 172,-274 9,-274"/>
<text text-anchor="middle" x="90" y="-430.9" style="font-family:Times New Roman;font-size:14.00;">212122</text>
</g>
<g id="cluster8" class="cluster"><title>cluster_7</title>
<polygon style="fill:lightgrey;stroke:black;" points="484,-9 484,-165 671,-165 671,-9 484,-9"/>
<text text-anchor="middle" x="577" y="-148.9" style="font-family:Times New Roman;font-size:14.00;">102022</text>
</g>
<g id="cluster9" class="cluster"><title>cluster_8</title>
<polygon style="fill:lightgrey;stroke:black;" points="181,-370 181,-554 357,-554 357,-370 181,-370"/>
<text text-anchor="middle" x="269" y="-537.9" style="font-family:Times New Roman;font-size:14.00;">222122</text>
</g>
<g id="cluster10" class="cluster"><title>cluster_9</title>
<polygon style="fill:none;stroke:black;" points="561,-521 561,-682 719,-682 719,-521 561,-521"/>
<text text-anchor="middle" x="640" y="-665.9" style="font-family:Times New Roman;font-size:14.00;">102122</text>
</g>
<g id="cluster11" class="cluster"><title>cluster_10</title>
<polygon style="fill:none;stroke:black;" points="9,-84 9,-257 172,-257 172,-84 9,-84"/>
<text text-anchor="middle" x="90" y="-240.9" style="font-family:Times New Roman;font-size:14.00;">012122</text>
</g>
<g id="cluster12" class="cluster"><title>cluster_11</title>
<polygon style="fill:none;stroke:black;" points="542,-180 542,-338 706,-338 706,-180 542,-180"/>
<text text-anchor="middle" x="624" y="-321.9" style="font-family:Times New Roman;font-size:14.00;">112022</text>
</g>
<g id="cluster13" class="cluster"><title>cluster_12</title>
<polygon style="fill:lightgrey;stroke:black;" points="180,-180 180,-364 365,-364 365,-180 180,-180"/>
<text text-anchor="middle" x="272" y="-347.9" style="font-family:Times New Roman;font-size:14.00;">212022</text>
</g>
<g id="cluster14" class="cluster"><title>cluster_13</title>
<polygon style="fill:none;stroke:black;" points="10,-541 10,-699 174,-699 174,-541 10,-541"/>
<text text-anchor="middle" x="92" y="-682.9" style="font-family:Times New Roman;font-size:14.00;">112222</text>
</g>
<!-- VEH2 -->
<g id="node3" class="node"><title>VEH2</title>
<text text-anchor="middle" x="407" y="-302.6" style="font-family:Times New Roman;font-size:16.00;">VEH</text>
</g>
<!-- C32 -->
<g id="node4" class="node"><title>C32</title>
<text text-anchor="middle" x="499" y="-304.6" style="font-family:Times New Roman;font-size:16.00;">C3</text>
</g>
<!-- C102 -->
<g id="node5" class="node"><title>C102</title>
<text text-anchor="middle" x="470" y="-202.6" style="font-family:Times New Roman;font-size:16.00;">C10</text>
</g>
<!-- C302 -->
<g id="node6" class="node"><title>C302</title>
<text text-anchor="middle" x="454" y="-254.6" style="font-family:Times New Roman;font-size:16.00;">C30</text>
</g>
<!-- C302&#45;&gt;VEH2 -->
<g id="edge4" class="edge"><title>C302&#45;&gt;VEH2</title>
<path style="fill:none;stroke:black;" d="M436,-277C435,-278 433,-280 432,-281"/>
<polygon style="fill:black;stroke:black;" points="428.951,-279.169 425,-289 434.219,-283.779 428.951,-279.169"/>
</g>
<!-- C302&#45;&gt;C32 -->
<g id="edge6" class="edge"><title>C302&#45;&gt;C32</title>
<path style="fill:none;stroke:black;" d="M470,-277C472,-279 474,-281 476,-283"/>
<polygon style="fill:black;stroke:black;" points="473.781,-285.779 483,-291 479.049,-281.169 473.781,-285.779"/>
</g>
<!-- C302&#45;&gt;C102 -->
<g id="edge8" class="edge"><title>C302&#45;&gt;C102</title>
<path style="fill:none;stroke:black;" d="M460,-241C460,-239 461,-237 462,-235"/>
<polygon style="fill:black;stroke:black;" points="465.479,-235.584 465,-225 458.774,-233.573 465.479,-235.584"/>
</g>
<!-- VEH3 -->
<g id="node11" class="node"><title>VEH3</title>
<text text-anchor="middle" x="597" y="-373.6" style="font-family:Times New Roman;font-size:16.00;">VEH</text>
</g>
<!-- C33 -->
<g id="node12" class="node"><title>C33</title>
<text text-anchor="middle" x="683" y="-454.6" style="font-family:Times New Roman;font-size:16.00;">C3</text>
</g>
<!-- C103 -->
<g id="node13" class="node"><title>C103</title>
<text text-anchor="middle" x="665" y="-372.6" style="font-family:Times New Roman;font-size:16.00;">C10</text>
</g>
<!-- C103&#45;&gt;VEH3 -->
<g id="edge11" class="edge"><title>C103&#45;&gt;VEH3</title>
<path style="fill:none;stroke:black;" d="M638,-377C637,-377 635,-377 634,-377"/>
<polygon style="fill:black;stroke:black;" points="633.602,-373.522 624,-378 634.299,-380.488 633.602,-373.522"/>
</g>
<!-- C303 -->
<g id="node14" class="node"><title>C303</title>
<text text-anchor="middle" x="618" y="-424.6" style="font-family:Times New Roman;font-size:16.00;">C30</text>
</g>
<!-- C303&#45;&gt;VEH3 -->
<g id="edge13" class="edge"><title>C303&#45;&gt;VEH3</title>
<path style="fill:none;stroke:black;" d="M611,-411C610,-409 610,-407 609,-405"/>
<polygon style="fill:black;stroke:black;" points="612.26,-403.717 605,-396 605.863,-406.56 612.26,-403.717"/>
</g>
<!-- C303&#45;&gt;C33 -->
<g id="edge15" class="edge"><title>C303&#45;&gt;C33</title>
<path style="fill:none;stroke:black;" d="M645,-442C646,-442 646,-443 647,-443"/>
<polygon style="fill:black;stroke:black;" points="645.44,-446.137 656,-447 648.283,-439.74 645.44,-446.137"/>
</g>
<!-- C303&#45;&gt;C103 -->
<g id="edge17" class="edge"><title>C303&#45;&gt;C103</title>
<path style="fill:none;stroke:black;" d="M634,-411C637,-408 639,-405 642,-402"/>
<polygon style="fill:black;stroke:black;" points="644.404,-404.546 649,-395 639.454,-399.596 644.404,-404.546"/>
</g>
<!-- VEH4 -->
<g id="node20" class="node"><title>VEH4</title>
<text text-anchor="middle" x="311" y="-59.6" style="font-family:Times New Roman;font-size:16.00;">VEH</text>
</g>
<!-- C34 -->
<g id="node21" class="node"><title>C34</title>
<text text-anchor="middle" x="426" y="-80.6" style="font-family:Times New Roman;font-size:16.00;">C3</text>
</g>
<!-- C104 -->
<g id="node22" class="node"><title>C104</title>
<text text-anchor="middle" x="377" y="-30.6" style="font-family:Times New Roman;font-size:16.00;">C10</text>
</g>
<!-- C104&#45;&gt;VEH4 -->
<g id="edge20" class="edge"><title>C104&#45;&gt;VEH4</title>
<path style="fill:none;stroke:black;" d="M350,-47C349,-47 348,-48 347,-48"/>
<polygon style="fill:black;stroke:black;" points="345.717,-44.7402 338,-52 348.56,-51.1369 345.717,-44.7402"/>
</g>
<!-- C104&#45;&gt;C34 -->
<g id="edge22" class="edge"><title>C104&#45;&gt;C34</title>
<path style="fill:none;stroke:black;" d="M395,-53C397,-55 399,-57 402,-60"/>
<polygon style="fill:black;stroke:black;" points="399.454,-62.4038 409,-67 404.404,-57.454 399.454,-62.4038"/>
</g>
<!-- C304 -->
<g id="node23" class="node"><title>C304</title>
<text text-anchor="middle" x="361" y="-108.6" style="font-family:Times New Roman;font-size:16.00;">C30</text>
</g>
<!-- C304&#45;&gt;VEH4 -->
<g id="edge24" class="edge"><title>C304&#45;&gt;VEH4</title>
<path style="fill:none;stroke:black;" d="M342,-95C340,-93 338,-91 336,-89"/>
<polygon style="fill:black;stroke:black;" points="338.546,-86.5962 329,-82 333.596,-91.546 338.546,-86.5962"/>
</g>
<!-- C304&#45;&gt;C34 -->
<g id="edge26" class="edge"><title>C304&#45;&gt;C34</title>
<path style="fill:none;stroke:black;" d="M388,-101C389,-101 389,-101 389,-101"/>
<polygon style="fill:black;stroke:black;" points="391.015,-103.964 399,-97 388.415,-97.4643 391.015,-103.964"/>
</g>
<!-- C304&#45;&gt;C104 -->
<g id="edge28" class="edge"><title>C304&#45;&gt;C104</title>
<path style="fill:none;stroke:black;" d="M365,-95C367,-85 369,-74 371,-63"/>
<polygon style="fill:black;stroke:black;" points="374.471,-63.4922 373,-53 367.607,-62.1194 374.471,-63.4922"/>
</g>
<!-- VEH5 -->
<g id="node30" class="node"><title>VEH5</title>
<text text-anchor="middle" x="407" y="-437.6" style="font-family:Times New Roman;font-size:16.00;">VEH</text>
</g>
<!-- C35 -->
<g id="node31" class="node"><title>C35</title>
<text text-anchor="middle" x="515" y="-454.6" style="font-family:Times New Roman;font-size:16.00;">C3</text>
</g>
<!-- C35&#45;&gt;VEH5 -->
<g id="edge31" class="edge"><title>C35&#45;&gt;VEH5</title>
<path style="fill:none;stroke:black;" d="M488,-455C475,-453 459,-450 444,-448"/>
<polygon style="fill:black;stroke:black;" points="444.492,-444.529 434,-446 443.119,-451.393 444.492,-444.529"/>
</g>
<!-- C105 -->
<g id="node32" class="node"><title>C105</title>
<text text-anchor="middle" x="471" y="-392.6" style="font-family:Times New Roman;font-size:16.00;">C10</text>
</g>
<!-- C105&#45;&gt;VEH5 -->
<g id="edge33" class="edge"><title>C105&#45;&gt;VEH5</title>
<path style="fill:none;stroke:black;" d="M445,-415C444,-416 443,-417 441,-418"/>
<polygon style="fill:black;stroke:black;" points="438.9,-415.2 433,-424 443.1,-420.8 438.9,-415.2"/>
</g>
<!-- C105&#45;&gt;C35 -->
<g id="edge35" class="edge"><title>C105&#45;&gt;C35</title>
<path style="fill:none;stroke:black;" d="M484,-415C488,-420 492,-427 496,-433"/>
<polygon style="fill:black;stroke:black;" points="493.2,-435.1 502,-441 498.8,-430.9 493.2,-435.1"/>
</g>
<!-- C305 -->
<g id="node33" class="node"><title>C305</title>
<text text-anchor="middle" x="451" y="-499.6" style="font-family:Times New Roman;font-size:16.00;">C30</text>
</g>
<!-- C305&#45;&gt;VEH5 -->
<g id="edge37" class="edge"><title>C305&#45;&gt;VEH5</title>
<path style="fill:none;stroke:black;" d="M438,-486C434,-481 430,-474 426,-468"/>
<polygon style="fill:black;stroke:black;" points="428.8,-465.9 420,-460 423.2,-470.1 428.8,-465.9"/>
</g>
<!-- C305&#45;&gt;C35 -->
<g id="edge39" class="edge"><title>C305&#45;&gt;C35</title>
<path style="fill:none;stroke:black;" d="M477,-486C478,-485 480,-484 481,-483"/>
<polygon style="fill:black;stroke:black;" points="483.1,-485.8 489,-477 478.9,-480.2 483.1,-485.8"/>
</g>
<!-- C305&#45;&gt;C105 -->
<g id="edge41" class="edge"><title>C305&#45;&gt;C105</title>
<path style="fill:none;stroke:black;" d="M454,-486C457,-469 462,-444 466,-425"/>
<polygon style="fill:black;stroke:black;" points="469.471,-425.492 468,-415 462.607,-424.119 469.471,-425.492"/>
</g>
<!-- VEH6 -->
<g id="node41" class="node"><title>VEH6</title>
<text text-anchor="middle" x="46" y="-389.6" style="font-family:Times New Roman;font-size:16.00;">VEH</text>
</g>
<!-- C36 -->
<g id="node42" class="node"><title>C36</title>
<text text-anchor="middle" x="127" y="-391.6" style="font-family:Times New Roman;font-size:16.00;">C3</text>
</g>
<!-- C36&#45;&gt;VEH6 -->
<g id="edge44" class="edge"><title>C36&#45;&gt;VEH6</title>
<path style="fill:none;stroke:black;" d="M100,-395C94,-395 89,-395 83,-395"/>
<polygon style="fill:black;stroke:black;" points="83,-391.5 73,-395 83,-398.5 83,-391.5"/>
</g>
<!-- C106 -->
<g id="node43" class="node"><title>C106</title>
<text text-anchor="middle" x="137" y="-296.6" style="font-family:Times New Roman;font-size:16.00;">C10</text>
</g>
<!-- C306 -->
<g id="node44" class="node"><title>C306</title>
<text text-anchor="middle" x="71" y="-333.6" style="font-family:Times New Roman;font-size:16.00;">C30</text>
</g>
<!-- C306&#45;&gt;VEH6 -->
<g id="edge46" class="edge"><title>C306&#45;&gt;VEH6</title>
<path style="fill:none;stroke:black;" d="M63,-356C61,-359 60,-363 58,-367"/>
<polygon style="fill:black;stroke:black;" points="54.8631,-365.44 54,-376 61.2598,-368.283 54.8631,-365.44"/>
</g>
<!-- C306&#45;&gt;C36 -->
<g id="edge48" class="edge"><title>C306&#45;&gt;C36</title>
<path style="fill:none;stroke:black;" d="M88,-356C93,-361 98,-366 102,-371"/>
<polygon style="fill:black;stroke:black;" points="99.454,-373.404 109,-378 104.404,-368.454 99.454,-373.404"/>
</g>
<!-- C306&#45;&gt;C106 -->
<g id="edge50" class="edge"><title>C306&#45;&gt;C106</title>
<path style="fill:none;stroke:black;" d="M98,-323C99,-322 100,-322 101,-321"/>
<polygon style="fill:black;stroke:black;" points="102.958,-323.916 110,-316 99.5586,-317.797 102.958,-323.916"/>
</g>
<!-- VEH7 -->
<g id="node50" class="node"><title>VEH7</title>
<text text-anchor="middle" x="520" y="-59.6" style="font-family:Times New Roman;font-size:16.00;">VEH</text>
</g>
<!-- C107 -->
<g id="node52" class="node"><title>C107</title>
<text text-anchor="middle" x="586" y="-30.6" style="font-family:Times New Roman;font-size:16.00;">C10</text>
</g>
<!-- VEH7&#45;&gt;C107 -->
<g id="edge53" class="edge"><title>VEH7&#45;&gt;C107</title>
<path style="fill:none;stroke:black;" d="M547,-52C548,-52 549,-51 550,-51"/>
<polygon style="fill:black;stroke:black;" points="551.283,-54.2598 559,-47 548.44,-47.8631 551.283,-54.2598"/>
</g>
<!-- C37 -->
<g id="node51" class="node"><title>C37</title>
<text text-anchor="middle" x="635" y="-80.6" style="font-family:Times New Roman;font-size:16.00;">C3</text>
</g>
<!-- C37&#45;&gt;C107 -->
<g id="edge55" class="edge"><title>C37&#45;&gt;C107</title>
<path style="fill:none;stroke:black;" d="M617,-67C615,-65 613,-63 610,-60"/>
<polygon style="fill:black;stroke:black;" points="612.546,-57.5962 603,-53 607.596,-62.546 612.546,-57.5962"/>
</g>
<!-- C307 -->
<g id="node53" class="node"><title>C307</title>
<text text-anchor="middle" x="570" y="-108.6" style="font-family:Times New Roman;font-size:16.00;">C30</text>
</g>
<!-- C307&#45;&gt;VEH7 -->
<g id="edge57" class="edge"><title>C307&#45;&gt;VEH7</title>
<path style="fill:none;stroke:black;" d="M551,-95C549,-93 547,-91 545,-89"/>
<polygon style="fill:black;stroke:black;" points="547.546,-86.5962 538,-82 542.596,-91.546 547.546,-86.5962"/>
</g>
<!-- C307&#45;&gt;C37 -->
<g id="edge59" class="edge"><title>C307&#45;&gt;C37</title>
<path style="fill:none;stroke:black;" d="M597,-101C598,-101 598,-101 598,-101"/>
<polygon style="fill:black;stroke:black;" points="600.015,-103.964 608,-97 597.415,-97.4643 600.015,-103.964"/>
</g>
<!-- C307&#45;&gt;C107 -->
<g id="edge61" class="edge"><title>C307&#45;&gt;C107</title>
<path style="fill:none;stroke:black;" d="M574,-95C576,-85 578,-74 580,-63"/>
<polygon style="fill:black;stroke:black;" points="583.471,-63.4922 582,-53 576.607,-62.1194 583.471,-63.4922"/>
</g>
<!-- VEH8 -->
<g id="node60" class="node"><title>VEH8</title>
<text text-anchor="middle" x="217" y="-444.6" style="font-family:Times New Roman;font-size:16.00;">VEH</text>
</g>
<!-- C38 -->
<g id="node61" class="node"><title>C38</title>
<text text-anchor="middle" x="321" y="-460.6" style="font-family:Times New Roman;font-size:16.00;">C3</text>
</g>
<!-- C38&#45;&gt;VEH8 -->
<g id="edge64" class="edge"><title>C38&#45;&gt;VEH8</title>
<path style="fill:none;stroke:black;" d="M294,-461C282,-459 268,-457 254,-455"/>
<polygon style="fill:black;stroke:black;" points="254.492,-451.529 244,-453 253.119,-458.393 254.492,-451.529"/>
</g>
<!-- C108 -->
<g id="node62" class="node"><title>C108</title>
<text text-anchor="middle" x="266" y="-392.6" style="font-family:Times New Roman;font-size:16.00;">C10</text>
</g>
<!-- C108&#45;&gt;VEH8 -->
<g id="edge66" class="edge"><title>C108&#45;&gt;VEH8</title>
<path style="fill:none;stroke:black;" d="M249,-415C246,-418 244,-421 241,-424"/>
<polygon style="fill:black;stroke:black;" points="238.596,-421.454 234,-431 243.546,-426.404 238.596,-421.454"/>
</g>
<!-- C308 -->
<g id="node63" class="node"><title>C308</title>
<text text-anchor="middle" x="258" y="-497.6" style="font-family:Times New Roman;font-size:16.00;">C30</text>
</g>
<!-- C308&#45;&gt;VEH8 -->
<g id="edge68" class="edge"><title>C308&#45;&gt;VEH8</title>
<path style="fill:none;stroke:black;" d="M244,-484C242,-481 239,-478 237,-475"/>
<polygon style="fill:black;stroke:black;" points="239.8,-472.9 231,-467 234.2,-477.1 239.8,-472.9"/>
</g>
<!-- C308&#45;&gt;C38 -->
<g id="edge70" class="edge"><title>C308&#45;&gt;C38</title>
<path style="fill:none;stroke:black;" d="M285,-486C285,-486 285,-486 285,-486"/>
<polygon style="fill:black;stroke:black;" points="286.958,-488.916 294,-481 283.559,-482.797 286.958,-488.916"/>
</g>
<!-- C308&#45;&gt;C108 -->
<g id="edge72" class="edge"><title>C308&#45;&gt;C108</title>
<path style="fill:none;stroke:black;" d="M259,-484C261,-468 262,-444 264,-425"/>
<polygon style="fill:black;stroke:black;" points="267.488,-425.299 265,-415 260.522,-424.602 267.488,-425.299"/>
</g>
<!-- VEH9 -->
<g id="node70" class="node"><title>VEH9</title>
<text text-anchor="middle" x="597" y="-544.6" style="font-family:Times New Roman;font-size:16.00;">VEH</text>
</g>
<!-- C109 -->
<g id="node72" class="node"><title>C109</title>
<text text-anchor="middle" x="665" y="-543.6" style="font-family:Times New Roman;font-size:16.00;">C10</text>
</g>
<!-- VEH9&#45;&gt;C109 -->
<g id="edge75" class="edge"><title>VEH9&#45;&gt;C109</title>
<path style="fill:none;stroke:black;" d="M624,-549C625,-549 627,-549 628,-549"/>
<polygon style="fill:black;stroke:black;" points="628.398,-552.478 638,-548 627.701,-545.512 628.398,-552.478"/>
</g>
<!-- C39 -->
<g id="node71" class="node"><title>C39</title>
<text text-anchor="middle" x="683" y="-625.6" style="font-family:Times New Roman;font-size:16.00;">C3</text>
</g>
<!-- C309 -->
<g id="node73" class="node"><title>C309</title>
<text text-anchor="middle" x="618" y="-595.6" style="font-family:Times New Roman;font-size:16.00;">C30</text>
</g>
<!-- C309&#45;&gt;VEH9 -->
<g id="edge77" class="edge"><title>C309&#45;&gt;VEH9</title>
<path style="fill:none;stroke:black;" d="M611,-582C610,-580 610,-578 609,-576"/>
<polygon style="fill:black;stroke:black;" points="612.26,-574.717 605,-567 605.863,-577.56 612.26,-574.717"/>
</g>
<!-- C309&#45;&gt;C39 -->
<g id="edge79" class="edge"><title>C309&#45;&gt;C39</title>
<path style="fill:none;stroke:black;" d="M645,-613C646,-613 646,-614 647,-614"/>
<polygon style="fill:black;stroke:black;" points="645.44,-617.137 656,-618 648.283,-610.74 645.44,-617.137"/>
</g>
<!-- C309&#45;&gt;C109 -->
<g id="edge81" class="edge"><title>C309&#45;&gt;C109</title>
<path style="fill:none;stroke:black;" d="M634,-582C637,-579 639,-576 642,-573"/>
<polygon style="fill:black;stroke:black;" points="644.404,-575.546 649,-566 639.454,-570.596 644.404,-575.546"/>
</g>
<!-- VEH10 -->
<g id="node79" class="node"><title>VEH10</title>
<text text-anchor="middle" x="46" y="-199.6" style="font-family:Times New Roman;font-size:16.00;">VEH</text>
</g>
<!-- C310 -->
<g id="node80" class="node"><title>C310</title>
<text text-anchor="middle" x="127" y="-201.6" style="font-family:Times New Roman;font-size:16.00;">C3</text>
</g>
<!-- VEH10&#45;&gt;C310 -->
<g id="edge84" class="edge"><title>VEH10&#45;&gt;C310</title>
<path style="fill:none;stroke:black;" d="M73,-205C79,-205 84,-205 90,-205"/>
<polygon style="fill:black;stroke:black;" points="90,-208.5 100,-205 90,-201.5 90,-208.5"/>
</g>
<!-- C1010 -->
<g id="node81" class="node"><title>C1010</title>
<text text-anchor="middle" x="137" y="-106.6" style="font-family:Times New Roman;font-size:16.00;">C10</text>
</g>
<!-- C3010 -->
<g id="node82" class="node"><title>C3010</title>
<text text-anchor="middle" x="71" y="-143.6" style="font-family:Times New Roman;font-size:16.00;">C30</text>
</g>
<!-- C3010&#45;&gt;VEH10 -->
<g id="edge86" class="edge"><title>C3010&#45;&gt;VEH10</title>
<path style="fill:none;stroke:black;" d="M63,-166C61,-169 60,-173 58,-177"/>
<polygon style="fill:black;stroke:black;" points="54.8631,-175.44 54,-186 61.2598,-178.283 54.8631,-175.44"/>
</g>
<!-- C3010&#45;&gt;C310 -->
<g id="edge88" class="edge"><title>C3010&#45;&gt;C310</title>
<path style="fill:none;stroke:black;" d="M88,-166C93,-171 98,-176 102,-181"/>
<polygon style="fill:black;stroke:black;" points="99.454,-183.404 109,-188 104.404,-178.454 99.454,-183.404"/>
</g>
<!-- C3010&#45;&gt;C1010 -->
<g id="edge90" class="edge"><title>C3010&#45;&gt;C1010</title>
<path style="fill:none;stroke:black;" d="M98,-133C99,-132 100,-132 101,-131"/>
<polygon style="fill:black;stroke:black;" points="102.958,-133.916 110,-126 99.5586,-127.797 102.958,-133.916"/>
</g>
<!-- VEH11 -->
<g id="node88" class="node"><title>VEH11</title>
<text text-anchor="middle" x="578" y="-281.6" style="font-family:Times New Roman;font-size:16.00;">VEH</text>
</g>
<!-- C311 -->
<g id="node89" class="node"><title>C311</title>
<text text-anchor="middle" x="670" y="-205.6" style="font-family:Times New Roman;font-size:16.00;">C3</text>
</g>
<!-- C1011 -->
<g id="node90" class="node"><title>C1011</title>
<text text-anchor="middle" x="601" y="-202.6" style="font-family:Times New Roman;font-size:16.00;">C10</text>
</g>
<!-- C311&#45;&gt;C1011 -->
<g id="edge93" class="edge"><title>C311&#45;&gt;C1011</title>
<path style="fill:none;stroke:black;" d="M643,-209C641,-209 640,-209 638,-209"/>
<polygon style="fill:black;stroke:black;" points="638.299,-205.512 628,-208 637.602,-212.478 638.299,-205.512"/>
</g>
<!-- C3011 -->
<g id="node91" class="node"><title>C3011</title>
<text text-anchor="middle" x="646" y="-256.6" style="font-family:Times New Roman;font-size:16.00;">C30</text>
</g>
<!-- C3011&#45;&gt;VEH11 -->
<g id="edge95" class="edge"><title>C3011&#45;&gt;VEH11</title>
<path style="fill:none;stroke:black;" d="M619,-271C617,-272 616,-272 615,-273"/>
<polygon style="fill:black;stroke:black;" points="613.573,-269.774 605,-276 615.584,-276.479 613.573,-269.774"/>
</g>
<!-- C3011&#45;&gt;C311 -->
<g id="edge97" class="edge"><title>C3011&#45;&gt;C311</title>
<path style="fill:none;stroke:black;" d="M655,-243C656,-241 657,-239 657,-237"/>
<polygon style="fill:black;stroke:black;" points="660.137,-238.56 661,-228 653.74,-235.717 660.137,-238.56"/>
</g>
<!-- C3011&#45;&gt;C1011 -->
<g id="edge99" class="edge"><title>C3011&#45;&gt;C1011</title>
<path style="fill:none;stroke:black;" d="M631,-243C628,-240 625,-236 623,-233"/>
<polygon style="fill:black;stroke:black;" points="625.219,-230.221 616,-225 619.951,-234.831 625.219,-230.221"/>
</g>
<!-- VEH12 -->
<g id="node97" class="node"><title>VEH12</title>
<text text-anchor="middle" x="217" y="-248.6" style="font-family:Times New Roman;font-size:16.00;">VEH</text>
</g>
<!-- C312 -->
<g id="node98" class="node"><title>C312</title>
<text text-anchor="middle" x="329" y="-266.6" style="font-family:Times New Roman;font-size:16.00;">C3</text>
</g>
<!-- C312&#45;&gt;VEH12 -->
<g id="edge102" class="edge"><title>C312&#45;&gt;VEH12</title>
<path style="fill:none;stroke:black;" d="M302,-267C288,-265 270,-261 254,-259"/>
<polygon style="fill:black;stroke:black;" points="254.492,-255.529 244,-257 253.119,-262.393 254.492,-255.529"/>
</g>
<!-- C1012 -->
<g id="node99" class="node"><title>C1012</title>
<text text-anchor="middle" x="302" y="-202.6" style="font-family:Times New Roman;font-size:16.00;">C10</text>
</g>
<!-- C312&#45;&gt;C1012 -->
<g id="edge104" class="edge"><title>C312&#45;&gt;C1012</title>
<path style="fill:none;stroke:black;" d="M321,-253C318,-247 316,-241 313,-235"/>
<polygon style="fill:black;stroke:black;" points="315.964,-232.985 309,-225 309.464,-235.585 315.964,-232.985"/>
</g>
<!-- C3012 -->
<g id="node100" class="node"><title>C3012</title>
<text text-anchor="middle" x="263" y="-307.6" style="font-family:Times New Roman;font-size:16.00;">C30</text>
</g>
<!-- C3012&#45;&gt;VEH12 -->
<g id="edge106" class="edge"><title>C3012&#45;&gt;VEH12</title>
<path style="fill:none;stroke:black;" d="M249,-294C245,-290 241,-284 237,-279"/>
<polygon style="fill:black;stroke:black;" points="239.8,-276.9 231,-271 234.2,-281.1 239.8,-276.9"/>
</g>
<!-- C3012&#45;&gt;C312 -->
<g id="edge108" class="edge"><title>C3012&#45;&gt;C312</title>
<path style="fill:none;stroke:black;" d="M290,-295C291,-294 292,-294 293,-293"/>
<polygon style="fill:black;stroke:black;" points="294.958,-295.916 302,-288 291.559,-289.797 294.958,-295.916"/>
</g>
<!-- C3012&#45;&gt;C1012 -->
<g id="edge110" class="edge"><title>C3012&#45;&gt;C1012</title>
<path style="fill:none;stroke:black;" d="M270,-294C276,-278 285,-253 292,-234"/>
<polygon style="fill:black;stroke:black;" points="295.158,-235.594 295,-225 288.517,-233.38 295.158,-235.594"/>
</g>
<!-- VEH13 -->
<g id="node107" class="node"><title>VEH13</title>
<text text-anchor="middle" x="46" y="-642.6" style="font-family:Times New Roman;font-size:16.00;">VEH</text>
</g>
<!-- C313 -->
<g id="node108" class="node"><title>C313</title>
<text text-anchor="middle" x="138" y="-566.6" style="font-family:Times New Roman;font-size:16.00;">C3</text>
</g>
<!-- C1013 -->
<g id="node109" class="node"><title>C1013</title>
<text text-anchor="middle" x="69" y="-563.6" style="font-family:Times New Roman;font-size:16.00;">C10</text>
</g>
<!-- C1013&#45;&gt;C313 -->
<g id="edge113" class="edge"><title>C1013&#45;&gt;C313</title>
<path style="fill:none;stroke:black;" d="M96,-569C98,-569 99,-569 101,-569"/>
<polygon style="fill:black;stroke:black;" points="100.701,-572.488 111,-570 101.398,-565.522 100.701,-572.488"/>
</g>
<!-- C3013 -->
<g id="node110" class="node"><title>C3013</title>
<text text-anchor="middle" x="114" y="-617.6" style="font-family:Times New Roman;font-size:16.00;">C30</text>
</g>
<!-- C3013&#45;&gt;VEH13 -->
<g id="edge115" class="edge"><title>C3013&#45;&gt;VEH13</title>
<path style="fill:none;stroke:black;" d="M87,-632C85,-633 84,-633 83,-634"/>
<polygon style="fill:black;stroke:black;" points="81.5725,-630.774 73,-637 83.584,-637.479 81.5725,-630.774"/>
</g>
<!-- C3013&#45;&gt;C313 -->
<g id="edge117" class="edge"><title>C3013&#45;&gt;C313</title>
<path style="fill:none;stroke:black;" d="M123,-604C124,-602 125,-600 125,-598"/>
<polygon style="fill:black;stroke:black;" points="128.137,-599.56 129,-589 121.74,-596.717 128.137,-599.56"/>
</g>
<!-- C3013&#45;&gt;C1013 -->
<g id="edge119" class="edge"><title>C3013&#45;&gt;C1013</title>
<path style="fill:none;stroke:black;" d="M99,-604C96,-601 93,-597 91,-594"/>
<polygon style="fill:black;stroke:black;" points="93.2191,-591.221 84,-586 87.9511,-595.831 93.2191,-591.221"/>
</g>
</g>
</svg>
