<?xml version="1.0" encoding="UTF-8" standalone="no"?>
<!DOCTYPE svg PUBLIC "-//W3C//DTD SVG 1.0//EN"
 "http://www.w3.org/TR/2001/REC-SVG-20010904/DTD/svg10.dtd" [
 <!ATTLIST svg xmlns:xlink CDATA #FIXED "http://www.w3.org/1999/xlink">
]>
<!-- Generated by Graphviz version 2.20.2 (Tue Mar &#160;2 20:02:18 UTC 2010)
     For user: (nsvo) Nam Sy Vo,,, -->
<!-- Title: FirstlevelCluster Pages: 1 -->
<svg width="894pt" height="902pt"
 viewBox="0.00 0.00 894.00 902.00" xmlns="http://www.w3.org/2000/svg" xmlns:xlink="http://www.w3.org/1999/xlink">
<g id="graph0" class="graph" transform="scale(1 1) rotate(0) translate(4 898)">
<title>FirstlevelCluster</title>
<polygon style="fill:white;stroke:white;" points="-4,4 -4,-898 890,-898 890,4 -4,4"/>
<g id="cluster2" class="cluster"><title>cluster_0</title>
<polygon style="fill:none;stroke:black;" points="1,-0 1,-885 885,-885 885,-0 1,-0"/>
<text text-anchor="middle" x="443" y="-868.9" style="font-family:Times New Roman;font-size:14.00;">&gt;C30</text>
</g>
<g id="cluster3" class="cluster"><title>cluster_2</title>
<polygon style="fill:lightgrey;stroke:black;" points="110,-669 110,-851 274,-851 274,-669 110,-669"/>
<text text-anchor="middle" x="192" y="-834.9" style="font-family:Times New Roman;font-size:14.00;">110100</text>
</g>
<g id="cluster4" class="cluster"><title>cluster_3</title>
<polygon style="fill:none;stroke:black;" points="690,-648 690,-809 848,-809 848,-648 690,-648"/>
<text text-anchor="middle" x="769" y="-792.9" style="font-family:Times New Roman;font-size:14.00;">100100</text>
</g>
<g id="cluster5" class="cluster"><title>cluster_4</title>
<polygon style="fill:lightgrey;stroke:black;" points="290,-289 290,-473 466,-473 466,-289 290,-289"/>
<text text-anchor="middle" x="378" y="-456.9" style="font-family:Times New Roman;font-size:14.00;">000100</text>
</g>
<g id="cluster6" class="cluster"><title>cluster_5</title>
<polygon style="fill:none;stroke:black;" points="590,-108 590,-281 753,-281 753,-108 590,-108"/>
<text text-anchor="middle" x="671" y="-264.9" style="font-family:Times New Roman;font-size:14.00;">010100</text>
</g>
<g id="cluster7" class="cluster"><title>cluster_6</title>
<polygon style="fill:lightgrey;stroke:black;" points="690,-289 690,-445 877,-445 877,-289 690,-289"/>
<text text-anchor="middle" x="783" y="-428.9" style="font-family:Times New Roman;font-size:14.00;">120200</text>
</g>
<g id="cluster8" class="cluster"><title>cluster_7</title>
<polygon style="fill:none;stroke:black;" points="510,-689 510,-847 674,-847 674,-689 510,-689"/>
<text text-anchor="middle" x="592" y="-830.9" style="font-family:Times New Roman;font-size:14.00;">110200</text>
</g>
<g id="cluster9" class="cluster"><title>cluster_8</title>
<polygon style="fill:none;stroke:black;" points="330,-689 330,-847 494,-847 494,-689 330,-689"/>
<text text-anchor="middle" x="412" y="-830.9" style="font-family:Times New Roman;font-size:14.00;">110000</text>
</g>
<g id="cluster10" class="cluster"><title>cluster_9</title>
<polygon style="fill:none;stroke:black;" points="10,-8 10,-169 168,-169 168,-8 10,-8"/>
<text text-anchor="middle" x="89" y="-152.9" style="font-family:Times New Roman;font-size:14.00;">120100</text>
</g>
<g id="cluster11" class="cluster"><title>cluster_10</title>
<polygon style="fill:lightgrey;stroke:black;" points="490,-289 490,-473 675,-473 675,-289 490,-289"/>
<text text-anchor="middle" x="582" y="-456.9" style="font-family:Times New Roman;font-size:14.00;">010200</text>
</g>
<g id="cluster12" class="cluster"><title>cluster_11</title>
<polygon style="fill:lightgrey;stroke:black;" points="690,-469 690,-625 877,-625 877,-469 690,-469"/>
<text text-anchor="middle" x="783" y="-608.9" style="font-family:Times New Roman;font-size:14.00;">100000</text>
</g>
<g id="cluster13" class="cluster"><title>cluster_12</title>
<polygon style="fill:lightgrey;stroke:black;" points="490,-489 490,-675 670,-675 670,-489 490,-489"/>
<text text-anchor="middle" x="580" y="-658.9" style="font-family:Times New Roman;font-size:14.00;">000000</text>
</g>
<g id="cluster14" class="cluster"><title>cluster_13</title>
<polygon style="fill:lightgrey;stroke:black;" points="290,-489 290,-675 470,-675 470,-489 290,-489"/>
<text text-anchor="middle" x="380" y="-658.9" style="font-family:Times New Roman;font-size:14.00;">200000</text>
</g>
<g id="cluster15" class="cluster"><title>cluster_14</title>
<polygon style="fill:lightgrey;stroke:black;" points="90,-389 90,-573 266,-573 266,-389 90,-389"/>
<text text-anchor="middle" x="178" y="-556.9" style="font-family:Times New Roman;font-size:14.00;">220100</text>
</g>
<g id="cluster16" class="cluster"><title>cluster_15</title>
<polygon style="fill:lightgrey;stroke:black;" points="390,-89 390,-273 575,-273 575,-89 390,-89"/>
<text text-anchor="middle" x="482" y="-256.9" style="font-family:Times New Roman;font-size:14.00;">210000</text>
</g>
<g id="cluster17" class="cluster"><title>cluster_16</title>
<polygon style="fill:lightgrey;stroke:black;" points="90,-189 90,-375 270,-375 270,-189 90,-189"/>
<text text-anchor="middle" x="180" y="-358.9" style="font-family:Times New Roman;font-size:14.00;">000200</text>
</g>
<!-- VEH2 -->
<g id="node3" class="node"><title>VEH2</title>
<text text-anchor="middle" x="146" y="-791.6" style="font-family:Times New Roman;font-size:16.00;">VEH</text>
</g>
<!-- C302 -->
<g id="node6" class="node"><title>C302</title>
<text text-anchor="middle" x="193" y="-743.6" style="font-family:Times New Roman;font-size:16.00;">C30</text>
</g>
<!-- VEH2&#45;&gt;C302 -->
<g id="edge4" class="edge"><title>VEH2&#45;&gt;C302</title>
<path style="fill:none;stroke:black;" d="M164,-778C165,-777 167,-775 168,-774"/>
<polygon style="fill:black;stroke:black;" points="171.049,-775.831 175,-766 165.781,-771.221 171.049,-775.831"/>
</g>
<!-- C32 -->
<g id="node4" class="node"><title>C32</title>
<text text-anchor="middle" x="239" y="-793.6" style="font-family:Times New Roman;font-size:16.00;">C3</text>
</g>
<!-- C32&#45;&gt;C302 -->
<g id="edge6" class="edge"><title>C32&#45;&gt;C302</title>
<path style="fill:none;stroke:black;" d="M222,-780C220,-778 218,-776 216,-774"/>
<polygon style="fill:black;stroke:black;" points="218.219,-771.221 209,-766 212.951,-775.831 218.219,-771.221"/>
</g>
<!-- C102 -->
<g id="node5" class="node"><title>C102</title>
<text text-anchor="middle" x="209" y="-691.6" style="font-family:Times New Roman;font-size:16.00;">C10</text>
</g>
<!-- C102&#45;&gt;C302 -->
<g id="edge8" class="edge"><title>C102&#45;&gt;C302</title>
<path style="fill:none;stroke:black;" d="M203,-714C203,-716 202,-718 201,-720"/>
<polygon style="fill:black;stroke:black;" points="197.521,-719.416 198,-730 204.226,-721.427 197.521,-719.416"/>
</g>
<!-- VEH3 -->
<g id="node11" class="node"><title>VEH3</title>
<text text-anchor="middle" x="726" y="-671.6" style="font-family:Times New Roman;font-size:16.00;">VEH</text>
</g>
<!-- C103 -->
<g id="node13" class="node"><title>C103</title>
<text text-anchor="middle" x="794" y="-670.6" style="font-family:Times New Roman;font-size:16.00;">C10</text>
</g>
<!-- VEH3&#45;&gt;C103 -->
<g id="edge11" class="edge"><title>VEH3&#45;&gt;C103</title>
<path style="fill:none;stroke:black;" d="M753,-676C754,-676 756,-676 757,-676"/>
<polygon style="fill:black;stroke:black;" points="757.398,-679.478 767,-675 756.701,-672.512 757.398,-679.478"/>
</g>
<!-- C303 -->
<g id="node14" class="node"><title>C303</title>
<text text-anchor="middle" x="747" y="-722.6" style="font-family:Times New Roman;font-size:16.00;">C30</text>
</g>
<!-- VEH3&#45;&gt;C303 -->
<g id="edge13" class="edge"><title>VEH3&#45;&gt;C303</title>
<path style="fill:none;stroke:black;" d="M733,-694C734,-696 735,-698 735,-700"/>
<polygon style="fill:black;stroke:black;" points="731.74,-701.283 739,-709 738.137,-698.44 731.74,-701.283"/>
</g>
<!-- C33 -->
<g id="node12" class="node"><title>C33</title>
<text text-anchor="middle" x="813" y="-752.6" style="font-family:Times New Roman;font-size:16.00;">C3</text>
</g>
<!-- C33&#45;&gt;C303 -->
<g id="edge15" class="edge"><title>C33&#45;&gt;C303</title>
<path style="fill:none;stroke:black;" d="M786,-745C785,-745 784,-744 783,-744"/>
<polygon style="fill:black;stroke:black;" points="784.441,-740.797 774,-739 781.042,-746.916 784.441,-740.797"/>
</g>
<!-- C103&#45;&gt;C303 -->
<g id="edge17" class="edge"><title>C103&#45;&gt;C303</title>
<path style="fill:none;stroke:black;" d="M778,-693C775,-696 773,-699 770,-702"/>
<polygon style="fill:black;stroke:black;" points="767.596,-699.454 763,-709 772.546,-704.404 767.596,-699.454"/>
</g>
<!-- VEH4 -->
<g id="node20" class="node"><title>VEH4</title>
<text text-anchor="middle" x="327" y="-363.6" style="font-family:Times New Roman;font-size:16.00;">VEH</text>
</g>
<!-- C34 -->
<g id="node21" class="node"><title>C34</title>
<text text-anchor="middle" x="430" y="-379.6" style="font-family:Times New Roman;font-size:16.00;">C3</text>
</g>
<!-- VEH4&#45;&gt;C34 -->
<g id="edge20" class="edge"><title>VEH4&#45;&gt;C34</title>
<path style="fill:none;stroke:black;" d="M354,-372C366,-374 380,-376 393,-378"/>
<polygon style="fill:black;stroke:black;" points="392.508,-381.471 403,-380 393.881,-374.607 392.508,-381.471"/>
</g>
<!-- C104 -->
<g id="node22" class="node"><title>C104</title>
<text text-anchor="middle" x="376" y="-311.6" style="font-family:Times New Roman;font-size:16.00;">C10</text>
</g>
<!-- VEH4&#45;&gt;C104 -->
<g id="edge22" class="edge"><title>VEH4&#45;&gt;C104</title>
<path style="fill:none;stroke:black;" d="M344,-350C347,-347 349,-344 352,-341"/>
<polygon style="fill:black;stroke:black;" points="354.404,-343.546 359,-334 349.454,-338.596 354.404,-343.546"/>
</g>
<!-- C304 -->
<g id="node23" class="node"><title>C304</title>
<text text-anchor="middle" x="368" y="-416.6" style="font-family:Times New Roman;font-size:16.00;">C30</text>
</g>
<!-- VEH4&#45;&gt;C304 -->
<g id="edge24" class="edge"><title>VEH4&#45;&gt;C304</title>
<path style="fill:none;stroke:black;" d="M341,-386C343,-389 346,-392 348,-395"/>
<polygon style="fill:black;stroke:black;" points="345.2,-397.1 354,-403 350.8,-392.9 345.2,-397.1"/>
</g>
<!-- C34&#45;&gt;C304 -->
<g id="edge26" class="edge"><title>C34&#45;&gt;C304</title>
<path style="fill:none;stroke:black;" d="M403,-400C403,-400 403,-400 403,-400"/>
<polygon style="fill:black;stroke:black;" points="401.625,-396.732 395,-405 405.335,-402.668 401.625,-396.732"/>
</g>
<!-- C104&#45;&gt;C304 -->
<g id="edge28" class="edge"><title>C104&#45;&gt;C304</title>
<path style="fill:none;stroke:black;" d="M375,-334C373,-350 372,-374 370,-393"/>
<polygon style="fill:black;stroke:black;" points="366.512,-392.701 369,-403 373.478,-393.398 366.512,-392.701"/>
</g>
<!-- VEH5 -->
<g id="node30" class="node"><title>VEH5</title>
<text text-anchor="middle" x="626" y="-223.6" style="font-family:Times New Roman;font-size:16.00;">VEH</text>
</g>
<!-- C35 -->
<g id="node31" class="node"><title>C35</title>
<text text-anchor="middle" x="708" y="-225.6" style="font-family:Times New Roman;font-size:16.00;">C3</text>
</g>
<!-- VEH5&#45;&gt;C35 -->
<g id="edge31" class="edge"><title>VEH5&#45;&gt;C35</title>
<path style="fill:none;stroke:black;" d="M653,-229C659,-229 665,-229 671,-229"/>
<polygon style="fill:black;stroke:black;" points="671,-232.5 681,-229 671,-225.5 671,-232.5"/>
</g>
<!-- C305 -->
<g id="node33" class="node"><title>C305</title>
<text text-anchor="middle" x="651" y="-167.6" style="font-family:Times New Roman;font-size:16.00;">C30</text>
</g>
<!-- VEH5&#45;&gt;C305 -->
<g id="edge33" class="edge"><title>VEH5&#45;&gt;C305</title>
<path style="fill:none;stroke:black;" d="M634,-210C636,-207 637,-203 639,-199"/>
<polygon style="fill:black;stroke:black;" points="642.137,-200.56 643,-190 635.74,-197.717 642.137,-200.56"/>
</g>
<!-- C35&#45;&gt;C305 -->
<g id="edge35" class="edge"><title>C35&#45;&gt;C305</title>
<path style="fill:none;stroke:black;" d="M690,-212C686,-207 681,-202 676,-197"/>
<polygon style="fill:black;stroke:black;" points="678.546,-194.596 669,-190 673.596,-199.546 678.546,-194.596"/>
</g>
<!-- C105 -->
<g id="node32" class="node"><title>C105</title>
<text text-anchor="middle" x="717" y="-130.6" style="font-family:Times New Roman;font-size:16.00;">C10</text>
</g>
<!-- C105&#45;&gt;C305 -->
<g id="edge37" class="edge"><title>C105&#45;&gt;C305</title>
<path style="fill:none;stroke:black;" d="M690,-150C689,-151 688,-151 687,-152"/>
<polygon style="fill:black;stroke:black;" points="685.042,-149.084 678,-157 688.441,-155.203 685.042,-149.084"/>
</g>
<!-- VEH6 -->
<g id="node39" class="node"><title>VEH6</title>
<text text-anchor="middle" x="726" y="-339.6" style="font-family:Times New Roman;font-size:16.00;">VEH</text>
</g>
<!-- C306 -->
<g id="node42" class="node"><title>C306</title>
<text text-anchor="middle" x="775" y="-388.6" style="font-family:Times New Roman;font-size:16.00;">C30</text>
</g>
<!-- VEH6&#45;&gt;C306 -->
<g id="edge40" class="edge"><title>VEH6&#45;&gt;C306</title>
<path style="fill:none;stroke:black;" d="M744,-362C746,-364 748,-366 750,-368"/>
<polygon style="fill:black;stroke:black;" points="747.454,-370.404 757,-375 752.404,-365.454 747.454,-370.404"/>
</g>
<!-- C36 -->
<g id="node40" class="node"><title>C36</title>
<text text-anchor="middle" x="841" y="-360.6" style="font-family:Times New Roman;font-size:16.00;">C3</text>
</g>
<!-- C36&#45;&gt;C306 -->
<g id="edge42" class="edge"><title>C36&#45;&gt;C306</title>
<path style="fill:none;stroke:black;" d="M814,-377C813,-377 812,-378 811,-378"/>
<polygon style="fill:black;stroke:black;" points="809.717,-374.74 802,-382 812.56,-381.137 809.717,-374.74"/>
</g>
<!-- C106 -->
<g id="node41" class="node"><title>C106</title>
<text text-anchor="middle" x="791" y="-310.6" style="font-family:Times New Roman;font-size:16.00;">C10</text>
</g>
<!-- C106&#45;&gt;VEH6 -->
<g id="edge44" class="edge"><title>C106&#45;&gt;VEH6</title>
<path style="fill:none;stroke:black;" d="M764,-327C763,-327 763,-328 762,-328"/>
<polygon style="fill:black;stroke:black;" points="760.717,-324.74 753,-332 763.56,-331.137 760.717,-324.74"/>
</g>
<!-- C106&#45;&gt;C36 -->
<g id="edge46" class="edge"><title>C106&#45;&gt;C36</title>
<path style="fill:none;stroke:black;" d="M809,-333C811,-335 813,-337 816,-340"/>
<polygon style="fill:black;stroke:black;" points="813.454,-342.404 823,-347 818.404,-337.454 813.454,-342.404"/>
</g>
<!-- C106&#45;&gt;C306 -->
<g id="edge48" class="edge"><title>C106&#45;&gt;C306</title>
<path style="fill:none;stroke:black;" d="M787,-333C785,-343 783,-354 781,-365"/>
<polygon style="fill:black;stroke:black;" points="777.529,-364.508 779,-375 784.393,-365.881 777.529,-364.508"/>
</g>
<!-- VEH7 -->
<g id="node49" class="node"><title>VEH7</title>
<text text-anchor="middle" x="547" y="-790.6" style="font-family:Times New Roman;font-size:16.00;">VEH</text>
</g>
<!-- C307 -->
<g id="node52" class="node"><title>C307</title>
<text text-anchor="middle" x="615" y="-765.6" style="font-family:Times New Roman;font-size:16.00;">C30</text>
</g>
<!-- VEH7&#45;&gt;C307 -->
<g id="edge51" class="edge"><title>VEH7&#45;&gt;C307</title>
<path style="fill:none;stroke:black;" d="M574,-785C576,-784 577,-784 578,-783"/>
<polygon style="fill:black;stroke:black;" points="579.427,-786.226 588,-780 577.416,-779.521 579.427,-786.226"/>
</g>
<!-- C37 -->
<g id="node50" class="node"><title>C37</title>
<text text-anchor="middle" x="638" y="-714.6" style="font-family:Times New Roman;font-size:16.00;">C3</text>
</g>
<!-- C37&#45;&gt;C307 -->
<g id="edge53" class="edge"><title>C37&#45;&gt;C307</title>
<path style="fill:none;stroke:black;" d="M630,-737C629,-739 628,-741 627,-743"/>
<polygon style="fill:black;stroke:black;" points="623.863,-741.44 623,-752 630.26,-744.283 623.863,-741.44"/>
</g>
<!-- C107 -->
<g id="node51" class="node"><title>C107</title>
<text text-anchor="middle" x="570" y="-711.6" style="font-family:Times New Roman;font-size:16.00;">C10</text>
</g>
<!-- C107&#45;&gt;C37 -->
<g id="edge55" class="edge"><title>C107&#45;&gt;C37</title>
<path style="fill:none;stroke:black;" d="M597,-717C598,-717 600,-717 601,-717"/>
<polygon style="fill:black;stroke:black;" points="600.701,-720.488 611,-718 601.398,-713.522 600.701,-720.488"/>
</g>
<!-- C107&#45;&gt;C307 -->
<g id="edge57" class="edge"><title>C107&#45;&gt;C307</title>
<path style="fill:none;stroke:black;" d="M585,-734C588,-737 591,-741 593,-744"/>
<polygon style="fill:black;stroke:black;" points="590.781,-746.779 600,-752 596.049,-742.169 590.781,-746.779"/>
</g>
<!-- VEH8 -->
<g id="node58" class="node"><title>VEH8</title>
<text text-anchor="middle" x="367" y="-790.6" style="font-family:Times New Roman;font-size:16.00;">VEH</text>
</g>
<!-- C308 -->
<g id="node61" class="node"><title>C308</title>
<text text-anchor="middle" x="435" y="-765.6" style="font-family:Times New Roman;font-size:16.00;">C30</text>
</g>
<!-- VEH8&#45;&gt;C308 -->
<g id="edge60" class="edge"><title>VEH8&#45;&gt;C308</title>
<path style="fill:none;stroke:black;" d="M394,-785C396,-784 397,-784 398,-783"/>
<polygon style="fill:black;stroke:black;" points="399.427,-786.226 408,-780 397.416,-779.521 399.427,-786.226"/>
</g>
<!-- C38 -->
<g id="node59" class="node"><title>C38</title>
<text text-anchor="middle" x="458" y="-714.6" style="font-family:Times New Roman;font-size:16.00;">C3</text>
</g>
<!-- C108 -->
<g id="node60" class="node"><title>C108</title>
<text text-anchor="middle" x="390" y="-711.6" style="font-family:Times New Roman;font-size:16.00;">C10</text>
</g>
<!-- C38&#45;&gt;C108 -->
<g id="edge62" class="edge"><title>C38&#45;&gt;C108</title>
<path style="fill:none;stroke:black;" d="M431,-718C430,-718 428,-718 427,-718"/>
<polygon style="fill:black;stroke:black;" points="427.299,-714.512 417,-717 426.602,-721.478 427.299,-714.512"/>
</g>
<!-- C38&#45;&gt;C308 -->
<g id="edge64" class="edge"><title>C38&#45;&gt;C308</title>
<path style="fill:none;stroke:black;" d="M450,-737C449,-739 448,-741 447,-743"/>
<polygon style="fill:black;stroke:black;" points="443.863,-741.44 443,-752 450.26,-744.283 443.863,-741.44"/>
</g>
<!-- C108&#45;&gt;C308 -->
<g id="edge66" class="edge"><title>C108&#45;&gt;C308</title>
<path style="fill:none;stroke:black;" d="M405,-734C408,-737 411,-741 413,-744"/>
<polygon style="fill:black;stroke:black;" points="410.781,-746.779 420,-752 416.049,-742.169 410.781,-746.779"/>
</g>
<!-- VEH9 -->
<g id="node67" class="node"><title>VEH9</title>
<text text-anchor="middle" x="46" y="-31.6" style="font-family:Times New Roman;font-size:16.00;">VEH</text>
</g>
<!-- C309 -->
<g id="node70" class="node"><title>C309</title>
<text text-anchor="middle" x="67" y="-82.6" style="font-family:Times New Roman;font-size:16.00;">C30</text>
</g>
<!-- VEH9&#45;&gt;C309 -->
<g id="edge69" class="edge"><title>VEH9&#45;&gt;C309</title>
<path style="fill:none;stroke:black;" d="M53,-54C54,-56 55,-58 55,-60"/>
<polygon style="fill:black;stroke:black;" points="51.7402,-61.2834 59,-69 58.1369,-58.4404 51.7402,-61.2834"/>
</g>
<!-- C39 -->
<g id="node68" class="node"><title>C39</title>
<text text-anchor="middle" x="133" y="-112.6" style="font-family:Times New Roman;font-size:16.00;">C3</text>
</g>
<!-- C39&#45;&gt;C309 -->
<g id="edge71" class="edge"><title>C39&#45;&gt;C309</title>
<path style="fill:none;stroke:black;" d="M106,-105C105,-105 104,-104 103,-104"/>
<polygon style="fill:black;stroke:black;" points="104.441,-100.797 94,-99 101.042,-106.916 104.441,-100.797"/>
</g>
<!-- C109 -->
<g id="node69" class="node"><title>C109</title>
<text text-anchor="middle" x="114" y="-30.6" style="font-family:Times New Roman;font-size:16.00;">C10</text>
</g>
<!-- C109&#45;&gt;VEH9 -->
<g id="edge73" class="edge"><title>C109&#45;&gt;VEH9</title>
<path style="fill:none;stroke:black;" d="M87,-35C86,-35 84,-35 83,-35"/>
<polygon style="fill:black;stroke:black;" points="82.6021,-31.5222 73,-36 83.2987,-38.4875 82.6021,-31.5222"/>
</g>
<!-- C109&#45;&gt;C309 -->
<g id="edge75" class="edge"><title>C109&#45;&gt;C309</title>
<path style="fill:none;stroke:black;" d="M98,-53C95,-56 93,-59 90,-62"/>
<polygon style="fill:black;stroke:black;" points="87.5962,-59.454 83,-69 92.546,-64.4038 87.5962,-59.454"/>
</g>
<!-- VEH10 -->
<g id="node76" class="node"><title>VEH10</title>
<text text-anchor="middle" x="526" y="-357.6" style="font-family:Times New Roman;font-size:16.00;">VEH</text>
</g>
<!-- C310 -->
<g id="node77" class="node"><title>C310</title>
<text text-anchor="middle" x="639" y="-375.6" style="font-family:Times New Roman;font-size:16.00;">C3</text>
</g>
<!-- VEH10&#45;&gt;C310 -->
<g id="edge78" class="edge"><title>VEH10&#45;&gt;C310</title>
<path style="fill:none;stroke:black;" d="M553,-366C568,-368 586,-372 602,-374"/>
<polygon style="fill:black;stroke:black;" points="601.508,-377.471 612,-376 602.881,-370.607 601.508,-377.471"/>
</g>
<!-- C3010 -->
<g id="node79" class="node"><title>C3010</title>
<text text-anchor="middle" x="573" y="-416.6" style="font-family:Times New Roman;font-size:16.00;">C30</text>
</g>
<!-- VEH10&#45;&gt;C3010 -->
<g id="edge80" class="edge"><title>VEH10&#45;&gt;C3010</title>
<path style="fill:none;stroke:black;" d="M540,-380C544,-385 548,-390 553,-395"/>
<polygon style="fill:black;stroke:black;" points="550.2,-397.1 559,-403 555.8,-392.9 550.2,-397.1"/>
</g>
<!-- C310&#45;&gt;C3010 -->
<g id="edge82" class="edge"><title>C310&#45;&gt;C3010</title>
<path style="fill:none;stroke:black;" d="M612,-397C611,-398 610,-398 609,-399"/>
<polygon style="fill:black;stroke:black;" points="607.042,-396.084 600,-404 610.441,-402.203 607.042,-396.084"/>
</g>
<!-- C1010 -->
<g id="node78" class="node"><title>C1010</title>
<text text-anchor="middle" x="612" y="-311.6" style="font-family:Times New Roman;font-size:16.00;">C10</text>
</g>
<!-- C1010&#45;&gt;C310 -->
<g id="edge84" class="edge"><title>C1010&#45;&gt;C310</title>
<path style="fill:none;stroke:black;" d="M620,-334C623,-340 625,-346 628,-352"/>
<polygon style="fill:black;stroke:black;" points="625.036,-354.015 632,-362 631.536,-351.415 625.036,-354.015"/>
</g>
<!-- C1010&#45;&gt;C3010 -->
<g id="edge86" class="edge"><title>C1010&#45;&gt;C3010</title>
<path style="fill:none;stroke:black;" d="M605,-334C599,-350 590,-375 583,-394"/>
<polygon style="fill:black;stroke:black;" points="579.842,-392.406 580,-403 586.483,-394.62 579.842,-392.406"/>
</g>
<!-- VEH11 -->
<g id="node86" class="node"><title>VEH11</title>
<text text-anchor="middle" x="726" y="-519.6" style="font-family:Times New Roman;font-size:16.00;">VEH</text>
</g>
<!-- C1011 -->
<g id="node88" class="node"><title>C1011</title>
<text text-anchor="middle" x="791" y="-490.6" style="font-family:Times New Roman;font-size:16.00;">C10</text>
</g>
<!-- VEH11&#45;&gt;C1011 -->
<g id="edge89" class="edge"><title>VEH11&#45;&gt;C1011</title>
<path style="fill:none;stroke:black;" d="M753,-512C754,-512 754,-511 755,-511"/>
<polygon style="fill:black;stroke:black;" points="756.283,-514.26 764,-507 753.44,-507.863 756.283,-514.26"/>
</g>
<!-- C3011 -->
<g id="node89" class="node"><title>C3011</title>
<text text-anchor="middle" x="775" y="-568.6" style="font-family:Times New Roman;font-size:16.00;">C30</text>
</g>
<!-- VEH11&#45;&gt;C3011 -->
<g id="edge91" class="edge"><title>VEH11&#45;&gt;C3011</title>
<path style="fill:none;stroke:black;" d="M744,-542C746,-544 748,-546 750,-548"/>
<polygon style="fill:black;stroke:black;" points="747.454,-550.404 757,-555 752.404,-545.454 747.454,-550.404"/>
</g>
<!-- C311 -->
<g id="node87" class="node"><title>C311</title>
<text text-anchor="middle" x="841" y="-540.6" style="font-family:Times New Roman;font-size:16.00;">C3</text>
</g>
<!-- C311&#45;&gt;C1011 -->
<g id="edge93" class="edge"><title>C311&#45;&gt;C1011</title>
<path style="fill:none;stroke:black;" d="M823,-527C821,-525 819,-523 816,-520"/>
<polygon style="fill:black;stroke:black;" points="818.546,-517.596 809,-513 813.596,-522.546 818.546,-517.596"/>
</g>
<!-- C311&#45;&gt;C3011 -->
<g id="edge95" class="edge"><title>C311&#45;&gt;C3011</title>
<path style="fill:none;stroke:black;" d="M814,-557C813,-557 812,-558 811,-558"/>
<polygon style="fill:black;stroke:black;" points="809.717,-554.74 802,-562 812.56,-561.137 809.717,-554.74"/>
</g>
<!-- C1011&#45;&gt;C3011 -->
<g id="edge97" class="edge"><title>C1011&#45;&gt;C3011</title>
<path style="fill:none;stroke:black;" d="M787,-513C785,-523 783,-534 781,-545"/>
<polygon style="fill:black;stroke:black;" points="777.529,-544.508 779,-555 784.393,-545.881 777.529,-544.508"/>
</g>
<!-- VEH12 -->
<g id="node96" class="node"><title>VEH12</title>
<text text-anchor="middle" x="527" y="-556.6" style="font-family:Times New Roman;font-size:16.00;">VEH</text>
</g>
<!-- C312 -->
<g id="node97" class="node"><title>C312</title>
<text text-anchor="middle" x="634" y="-573.6" style="font-family:Times New Roman;font-size:16.00;">C3</text>
</g>
<!-- VEH12&#45;&gt;C312 -->
<g id="edge100" class="edge"><title>VEH12&#45;&gt;C312</title>
<path style="fill:none;stroke:black;" d="M554,-565C567,-567 583,-570 597,-572"/>
<polygon style="fill:black;stroke:black;" points="596.701,-575.488 607,-573 597.398,-568.522 596.701,-575.488"/>
</g>
<!-- C1012 -->
<g id="node98" class="node"><title>C1012</title>
<text text-anchor="middle" x="590" y="-511.6" style="font-family:Times New Roman;font-size:16.00;">C10</text>
</g>
<!-- VEH12&#45;&gt;C1012 -->
<g id="edge102" class="edge"><title>VEH12&#45;&gt;C1012</title>
<path style="fill:none;stroke:black;" d="M552,-543C553,-542 555,-541 556,-540"/>
<polygon style="fill:black;stroke:black;" points="558.1,-542.8 564,-534 553.9,-537.2 558.1,-542.8"/>
</g>
<!-- C3012 -->
<g id="node99" class="node"><title>C3012</title>
<text text-anchor="middle" x="571" y="-618.6" style="font-family:Times New Roman;font-size:16.00;">C30</text>
</g>
<!-- VEH12&#45;&gt;C3012 -->
<g id="edge104" class="edge"><title>VEH12&#45;&gt;C3012</title>
<path style="fill:none;stroke:black;" d="M540,-579C544,-584 548,-591 552,-597"/>
<polygon style="fill:black;stroke:black;" points="549.2,-599.1 558,-605 554.8,-594.9 549.2,-599.1"/>
</g>
<!-- C312&#45;&gt;C1012 -->
<g id="edge106" class="edge"><title>C312&#45;&gt;C1012</title>
<path style="fill:none;stroke:black;" d="M621,-560C617,-555 613,-548 609,-542"/>
<polygon style="fill:black;stroke:black;" points="611.8,-539.9 603,-534 606.2,-544.1 611.8,-539.9"/>
</g>
<!-- C312&#45;&gt;C3012 -->
<g id="edge108" class="edge"><title>C312&#45;&gt;C3012</title>
<path style="fill:none;stroke:black;" d="M609,-596C608,-597 607,-598 605,-599"/>
<polygon style="fill:black;stroke:black;" points="602.9,-596.2 597,-605 607.1,-601.8 602.9,-596.2"/>
</g>
<!-- C1012&#45;&gt;C3012 -->
<g id="edge110" class="edge"><title>C1012&#45;&gt;C3012</title>
<path style="fill:none;stroke:black;" d="M587,-534C584,-551 580,-576 576,-595"/>
<polygon style="fill:black;stroke:black;" points="572.529,-594.508 574,-605 579.393,-595.881 572.529,-594.508"/>
</g>
<!-- VEH13 -->
<g id="node107" class="node"><title>VEH13</title>
<text text-anchor="middle" x="327" y="-556.6" style="font-family:Times New Roman;font-size:16.00;">VEH</text>
</g>
<!-- C1013 -->
<g id="node109" class="node"><title>C1013</title>
<text text-anchor="middle" x="390" y="-511.6" style="font-family:Times New Roman;font-size:16.00;">C10</text>
</g>
<!-- VEH13&#45;&gt;C1013 -->
<g id="edge113" class="edge"><title>VEH13&#45;&gt;C1013</title>
<path style="fill:none;stroke:black;" d="M352,-543C353,-542 355,-541 356,-540"/>
<polygon style="fill:black;stroke:black;" points="358.1,-542.8 364,-534 353.9,-537.2 358.1,-542.8"/>
</g>
<!-- C3013 -->
<g id="node110" class="node"><title>C3013</title>
<text text-anchor="middle" x="371" y="-618.6" style="font-family:Times New Roman;font-size:16.00;">C30</text>
</g>
<!-- VEH13&#45;&gt;C3013 -->
<g id="edge115" class="edge"><title>VEH13&#45;&gt;C3013</title>
<path style="fill:none;stroke:black;" d="M340,-579C344,-584 348,-591 352,-597"/>
<polygon style="fill:black;stroke:black;" points="349.2,-599.1 358,-605 354.8,-594.9 349.2,-599.1"/>
</g>
<!-- C313 -->
<g id="node108" class="node"><title>C313</title>
<text text-anchor="middle" x="434" y="-573.6" style="font-family:Times New Roman;font-size:16.00;">C3</text>
</g>
<!-- C313&#45;&gt;VEH13 -->
<g id="edge117" class="edge"><title>C313&#45;&gt;VEH13</title>
<path style="fill:none;stroke:black;" d="M407,-574C394,-572 378,-569 364,-567"/>
<polygon style="fill:black;stroke:black;" points="364.299,-563.512 354,-566 363.602,-570.478 364.299,-563.512"/>
</g>
<!-- C313&#45;&gt;C1013 -->
<g id="edge119" class="edge"><title>C313&#45;&gt;C1013</title>
<path style="fill:none;stroke:black;" d="M421,-560C417,-555 413,-548 409,-542"/>
<polygon style="fill:black;stroke:black;" points="411.8,-539.9 403,-534 406.2,-544.1 411.8,-539.9"/>
</g>
<!-- C313&#45;&gt;C3013 -->
<g id="edge121" class="edge"><title>C313&#45;&gt;C3013</title>
<path style="fill:none;stroke:black;" d="M409,-596C408,-597 407,-598 405,-599"/>
<polygon style="fill:black;stroke:black;" points="402.9,-596.2 397,-605 407.1,-601.8 402.9,-596.2"/>
</g>
<!-- C1013&#45;&gt;C3013 -->
<g id="edge123" class="edge"><title>C1013&#45;&gt;C3013</title>
<path style="fill:none;stroke:black;" d="M387,-534C384,-551 380,-576 376,-595"/>
<polygon style="fill:black;stroke:black;" points="372.529,-594.508 374,-605 379.393,-595.881 372.529,-594.508"/>
</g>
<!-- VEH14 -->
<g id="node118" class="node"><title>VEH14</title>
<text text-anchor="middle" x="127" y="-463.6" style="font-family:Times New Roman;font-size:16.00;">VEH</text>
</g>
<!-- C3014 -->
<g id="node121" class="node"><title>C3014</title>
<text text-anchor="middle" x="168" y="-516.6" style="font-family:Times New Roman;font-size:16.00;">C30</text>
</g>
<!-- VEH14&#45;&gt;C3014 -->
<g id="edge126" class="edge"><title>VEH14&#45;&gt;C3014</title>
<path style="fill:none;stroke:black;" d="M141,-486C143,-489 146,-492 148,-495"/>
<polygon style="fill:black;stroke:black;" points="145.2,-497.1 154,-503 150.8,-492.9 145.2,-497.1"/>
</g>
<!-- C314 -->
<g id="node119" class="node"><title>C314</title>
<text text-anchor="middle" x="230" y="-479.6" style="font-family:Times New Roman;font-size:16.00;">C3</text>
</g>
<!-- C314&#45;&gt;VEH14 -->
<g id="edge128" class="edge"><title>C314&#45;&gt;VEH14</title>
<path style="fill:none;stroke:black;" d="M203,-480C191,-478 177,-476 164,-474"/>
<polygon style="fill:black;stroke:black;" points="164.492,-470.529 154,-472 163.119,-477.393 164.492,-470.529"/>
</g>
<!-- C314&#45;&gt;C3014 -->
<g id="edge130" class="edge"><title>C314&#45;&gt;C3014</title>
<path style="fill:none;stroke:black;" d="M203,-500C203,-500 203,-500 203,-500"/>
<polygon style="fill:black;stroke:black;" points="201.625,-496.732 195,-505 205.335,-502.668 201.625,-496.732"/>
</g>
<!-- C1014 -->
<g id="node120" class="node"><title>C1014</title>
<text text-anchor="middle" x="176" y="-411.6" style="font-family:Times New Roman;font-size:16.00;">C10</text>
</g>
<!-- C1014&#45;&gt;VEH14 -->
<g id="edge132" class="edge"><title>C1014&#45;&gt;VEH14</title>
<path style="fill:none;stroke:black;" d="M159,-434C156,-437 154,-440 151,-443"/>
<polygon style="fill:black;stroke:black;" points="148.596,-440.454 144,-450 153.546,-445.404 148.596,-440.454"/>
</g>
<!-- C1014&#45;&gt;C3014 -->
<g id="edge134" class="edge"><title>C1014&#45;&gt;C3014</title>
<path style="fill:none;stroke:black;" d="M175,-434C173,-450 172,-474 170,-493"/>
<polygon style="fill:black;stroke:black;" points="166.512,-492.701 169,-503 173.478,-493.398 166.512,-492.701"/>
</g>
<!-- VEH15 -->
<g id="node128" class="node"><title>VEH15</title>
<text text-anchor="middle" x="426" y="-157.6" style="font-family:Times New Roman;font-size:16.00;">VEH</text>
</g>
<!-- C3015 -->
<g id="node131" class="node"><title>C3015</title>
<text text-anchor="middle" x="473" y="-216.6" style="font-family:Times New Roman;font-size:16.00;">C30</text>
</g>
<!-- VEH15&#45;&gt;C3015 -->
<g id="edge137" class="edge"><title>VEH15&#45;&gt;C3015</title>
<path style="fill:none;stroke:black;" d="M440,-180C444,-185 448,-190 453,-195"/>
<polygon style="fill:black;stroke:black;" points="450.2,-197.1 459,-203 455.8,-192.9 450.2,-197.1"/>
</g>
<!-- C315 -->
<g id="node129" class="node"><title>C315</title>
<text text-anchor="middle" x="539" y="-175.6" style="font-family:Times New Roman;font-size:16.00;">C3</text>
</g>
<!-- C315&#45;&gt;VEH15 -->
<g id="edge139" class="edge"><title>C315&#45;&gt;VEH15</title>
<path style="fill:none;stroke:black;" d="M512,-176C497,-174 479,-170 463,-168"/>
<polygon style="fill:black;stroke:black;" points="463.492,-164.529 453,-166 462.119,-171.393 463.492,-164.529"/>
</g>
<!-- C1015 -->
<g id="node130" class="node"><title>C1015</title>
<text text-anchor="middle" x="512" y="-111.6" style="font-family:Times New Roman;font-size:16.00;">C10</text>
</g>
<!-- C315&#45;&gt;C1015 -->
<g id="edge141" class="edge"><title>C315&#45;&gt;C1015</title>
<path style="fill:none;stroke:black;" d="M531,-162C528,-156 526,-150 523,-144"/>
<polygon style="fill:black;stroke:black;" points="525.964,-141.985 519,-134 519.464,-144.585 525.964,-141.985"/>
</g>
<!-- C315&#45;&gt;C3015 -->
<g id="edge143" class="edge"><title>C315&#45;&gt;C3015</title>
<path style="fill:none;stroke:black;" d="M512,-197C511,-198 510,-198 509,-199"/>
<polygon style="fill:black;stroke:black;" points="507.042,-196.084 500,-204 510.441,-202.203 507.042,-196.084"/>
</g>
<!-- C1015&#45;&gt;C3015 -->
<g id="edge145" class="edge"><title>C1015&#45;&gt;C3015</title>
<path style="fill:none;stroke:black;" d="M505,-134C499,-150 490,-175 483,-194"/>
<polygon style="fill:black;stroke:black;" points="479.842,-192.406 480,-203 486.483,-194.62 479.842,-192.406"/>
</g>
<!-- VEH16 -->
<g id="node138" class="node"><title>VEH16</title>
<text text-anchor="middle" x="127" y="-256.6" style="font-family:Times New Roman;font-size:16.00;">VEH</text>
</g>
<!-- C316 -->
<g id="node139" class="node"><title>C316</title>
<text text-anchor="middle" x="234" y="-273.6" style="font-family:Times New Roman;font-size:16.00;">C3</text>
</g>
<!-- VEH16&#45;&gt;C316 -->
<g id="edge148" class="edge"><title>VEH16&#45;&gt;C316</title>
<path style="fill:none;stroke:black;" d="M154,-265C167,-267 183,-270 197,-272"/>
<polygon style="fill:black;stroke:black;" points="196.701,-275.488 207,-273 197.398,-268.522 196.701,-275.488"/>
</g>
<!-- C1016 -->
<g id="node140" class="node"><title>C1016</title>
<text text-anchor="middle" x="190" y="-211.6" style="font-family:Times New Roman;font-size:16.00;">C10</text>
</g>
<!-- VEH16&#45;&gt;C1016 -->
<g id="edge150" class="edge"><title>VEH16&#45;&gt;C1016</title>
<path style="fill:none;stroke:black;" d="M152,-243C153,-242 155,-241 156,-240"/>
<polygon style="fill:black;stroke:black;" points="158.1,-242.8 164,-234 153.9,-237.2 158.1,-242.8"/>
</g>
<!-- C3016 -->
<g id="node141" class="node"><title>C3016</title>
<text text-anchor="middle" x="171" y="-318.6" style="font-family:Times New Roman;font-size:16.00;">C30</text>
</g>
<!-- VEH16&#45;&gt;C3016 -->
<g id="edge152" class="edge"><title>VEH16&#45;&gt;C3016</title>
<path style="fill:none;stroke:black;" d="M140,-279C144,-284 148,-291 152,-297"/>
<polygon style="fill:black;stroke:black;" points="149.2,-299.1 158,-305 154.8,-294.9 149.2,-299.1"/>
</g>
<!-- C316&#45;&gt;C3016 -->
<g id="edge154" class="edge"><title>C316&#45;&gt;C3016</title>
<path style="fill:none;stroke:black;" d="M209,-296C208,-297 207,-298 205,-299"/>
<polygon style="fill:black;stroke:black;" points="202.9,-296.2 197,-305 207.1,-301.8 202.9,-296.2"/>
</g>
<!-- C1016&#45;&gt;C316 -->
<g id="edge156" class="edge"><title>C1016&#45;&gt;C316</title>
<path style="fill:none;stroke:black;" d="M203,-234C207,-239 211,-246 215,-252"/>
<polygon style="fill:black;stroke:black;" points="212.2,-254.1 221,-260 217.8,-249.9 212.2,-254.1"/>
</g>
<!-- C1016&#45;&gt;C3016 -->
<g id="edge158" class="edge"><title>C1016&#45;&gt;C3016</title>
<path style="fill:none;stroke:black;" d="M187,-234C184,-251 180,-276 176,-295"/>
<polygon style="fill:black;stroke:black;" points="172.529,-294.508 174,-305 179.393,-295.881 172.529,-294.508"/>
</g>
</g>
</svg>
