<?xml version="1.0" encoding="UTF-8" standalone="no"?>
<!DOCTYPE svg PUBLIC "-//W3C//DTD SVG 1.0//EN"
 "http://www.w3.org/TR/2001/REC-SVG-20010904/DTD/svg10.dtd" [
 <!ATTLIST svg xmlns:xlink CDATA #FIXED "http://www.w3.org/1999/xlink">
]>
<!-- Generated by Graphviz version 2.20.2 (Tue Mar &#160;2 20:02:18 UTC 2010)
     For user: (nsvo) Nam Sy Vo,,, -->
<!-- Title: FirstlevelCluster Pages: 1 -->
<svg width="210pt" height="248pt"
 viewBox="0.00 0.00 210.00 248.00" xmlns="http://www.w3.org/2000/svg" xmlns:xlink="http://www.w3.org/1999/xlink">
<g id="graph0" class="graph" transform="scale(1 1) rotate(0) translate(4 244)">
<title>FirstlevelCluster</title>
<polygon style="fill:white;stroke:white;" points="-4,4 -4,-244 206,-244 206,4 -4,4"/>
<g id="cluster2" class="cluster"><title>cluster_0</title>
<polygon style="fill:none;stroke:black;" points="1,-0 1,-231 201,-231 201,-0 1,-0"/>
<text text-anchor="middle" x="101" y="-214.9" style="font-family:Times New Roman;font-size:14.00;">&gt;C3~C10</text>
</g>
<g id="cluster3" class="cluster"><title>cluster_2</title>
<polygon style="fill:lightgrey;stroke:black;" points="10,-9 10,-197 192,-197 192,-9 10,-9"/>
<text text-anchor="middle" x="101" y="-180.9" style="font-family:Times New Roman;font-size:14.00;">001122</text>
</g>
<!-- VEH2 -->
<g id="node3" class="node"><title>VEH2</title>
<text text-anchor="middle" x="46" y="-76.6" style="font-family:Times New Roman;font-size:16.00;">VEH</text>
</g>
<!-- C32 -->
<g id="node4" class="node"><title>C32</title>
<text text-anchor="middle" x="156" y="-95.6" style="font-family:Times New Roman;font-size:16.00;">C3</text>
</g>
<!-- VEH2&#45;&gt;C32 -->
<g id="edge4" class="edge"><title>VEH2&#45;&gt;C32</title>
<path style="fill:none;stroke:black;" d="M73,-86C87,-88 104,-91 119,-93"/>
<polygon style="fill:black;stroke:black;" points="118.508,-96.4708 129,-95 119.881,-89.6067 118.508,-96.4708"/>
</g>
<!-- C102 -->
<g id="node5" class="node"><title>C102</title>
<text text-anchor="middle" x="112" y="-31.6" style="font-family:Times New Roman;font-size:16.00;">C10</text>
</g>
<!-- VEH2&#45;&gt;C102 -->
<g id="edge6" class="edge"><title>VEH2&#45;&gt;C102</title>
<path style="fill:none;stroke:black;" d="M72,-63C73,-62 75,-61 76,-60"/>
<polygon style="fill:black;stroke:black;" points="78.6209,-62.4592 85,-54 74.738,-56.6349 78.6209,-62.4592"/>
</g>
<!-- C302 -->
<g id="node6" class="node"><title>C302</title>
<text text-anchor="middle" x="90" y="-140.6" style="font-family:Times New Roman;font-size:16.00;">C30</text>
</g>
<!-- C302&#45;&gt;C32 -->
<g id="edge8" class="edge"><title>C302&#45;&gt;C32</title>
<path style="fill:none;stroke:black;" d="M116,-127C117,-126 119,-125 120,-124"/>
<polygon style="fill:black;stroke:black;" points="122.621,-126.459 129,-118 118.738,-120.635 122.621,-126.459"/>
</g>
<!-- C302&#45;&gt;C102 -->
<g id="edge10" class="edge"><title>C302&#45;&gt;C102</title>
<path style="fill:none;stroke:black;" d="M94,-127C97,-109 102,-83 106,-64"/>
<polygon style="fill:black;stroke:black;" points="109.471,-64.4922 108,-54 102.607,-63.1194 109.471,-64.4922"/>
</g>
</g>
</svg>
