<?xml version="1.0" encoding="UTF-8" standalone="no"?>
<!DOCTYPE svg PUBLIC "-//W3C//DTD SVG 1.0//EN"
 "http://www.w3.org/TR/2001/REC-SVG-20010904/DTD/svg10.dtd" [
 <!ATTLIST svg xmlns:xlink CDATA #FIXED "http://www.w3.org/1999/xlink">
]>
<!-- Generated by Graphviz version 2.20.2 (Tue Mar &#160;2 20:02:18 UTC 2010)
     For user: (nsvo) Nam Sy Vo,,, -->
<!-- Title: FirstlevelCluster Pages: 1 -->
<svg width="408pt" height="244pt"
 viewBox="0.00 0.00 408.00 244.00" xmlns="http://www.w3.org/2000/svg" xmlns:xlink="http://www.w3.org/1999/xlink">
<g id="graph0" class="graph" transform="scale(1 1) rotate(0) translate(4 240)">
<title>FirstlevelCluster</title>
<polygon style="fill:white;stroke:white;" points="-4,4 -4,-240 404,-240 404,4 -4,4"/>
<g id="cluster2" class="cluster"><title>cluster_0</title>
<polygon style="fill:none;stroke:black;" points="1,-0 1,-227 399,-227 399,-0 1,-0"/>
<text text-anchor="middle" x="200" y="-210.9" style="font-family:Times New Roman;font-size:14.00;">&gt;C3~C30</text>
</g>
<g id="cluster3" class="cluster"><title>cluster_2</title>
<polygon style="fill:lightgrey;stroke:black;" points="10,-8 10,-187 186,-187 186,-8 10,-8"/>
<text text-anchor="middle" x="98" y="-170.9" style="font-family:Times New Roman;font-size:14.00;">010210</text>
</g>
<g id="cluster4" class="cluster"><title>cluster_3</title>
<polygon style="fill:lightgrey;stroke:black;" points="210,-8 210,-193 391,-193 391,-8 210,-8"/>
<text text-anchor="middle" x="300" y="-176.9" style="font-family:Times New Roman;font-size:14.00;">020210</text>
</g>
<!-- VEH2 -->
<g id="node3" class="node"><title>VEH2</title>
<text text-anchor="middle" x="47" y="-77.6" style="font-family:Times New Roman;font-size:16.00;">VEH</text>
</g>
<!-- C32 -->
<g id="node4" class="node"><title>C32</title>
<text text-anchor="middle" x="150" y="-83.6" style="font-family:Times New Roman;font-size:16.00;">C3</text>
</g>
<!-- VEH2&#45;&gt;C32 -->
<g id="edge4" class="edge"><title>VEH2&#45;&gt;C32</title>
<path style="fill:none;stroke:black;" d="M74,-84C86,-84 100,-85 113,-85"/>
<polygon style="fill:black;stroke:black;" points="112.701,-88.4875 123,-86 113.398,-81.5222 112.701,-88.4875"/>
</g>
<!-- C302 -->
<g id="node6" class="node"><title>C302</title>
<text text-anchor="middle" x="84" y="-130.6" style="font-family:Times New Roman;font-size:16.00;">C30</text>
</g>
<!-- VEH2&#45;&gt;C302 -->
<g id="edge6" class="edge"><title>VEH2&#45;&gt;C302</title>
<path style="fill:none;stroke:black;" d="M60,-100C62,-103 63,-106 65,-109"/>
<polygon style="fill:black;stroke:black;" points="62.2,-111.1 71,-117 67.8,-106.9 62.2,-111.1"/>
</g>
<!-- C102 -->
<g id="node5" class="node"><title>C102</title>
<text text-anchor="middle" x="113" y="-30.6" style="font-family:Times New Roman;font-size:16.00;">C10</text>
</g>
<!-- C102&#45;&gt;C32 -->
<g id="edge8" class="edge"><title>C102&#45;&gt;C32</title>
<path style="fill:none;stroke:black;" d="M126,-53C128,-56 129,-59 131,-62"/>
<polygon style="fill:black;stroke:black;" points="128.2,-64.1 137,-70 133.8,-59.9 128.2,-64.1"/>
</g>
<!-- C102&#45;&gt;C302 -->
<g id="edge10" class="edge"><title>C102&#45;&gt;C302</title>
<path style="fill:none;stroke:black;" d="M108,-53C103,-68 97,-90 92,-107"/>
<polygon style="fill:black;stroke:black;" points="88.5212,-106.416 89,-117 95.2259,-108.427 88.5212,-106.416"/>
</g>
<!-- VEH3 -->
<g id="node12" class="node"><title>VEH3</title>
<text text-anchor="middle" x="246" y="-77.6" style="font-family:Times New Roman;font-size:16.00;">VEH</text>
</g>
<!-- C33 -->
<g id="node13" class="node"><title>C33</title>
<text text-anchor="middle" x="355" y="-81.6" style="font-family:Times New Roman;font-size:16.00;">C3</text>
</g>
<!-- VEH3&#45;&gt;C33 -->
<g id="edge13" class="edge"><title>VEH3&#45;&gt;C33</title>
<path style="fill:none;stroke:black;" d="M273,-83C287,-84 303,-84 318,-85"/>
<polygon style="fill:black;stroke:black;" points="318,-88.5001 328,-85 318,-81.5001 318,-88.5001"/>
</g>
<!-- C303 -->
<g id="node15" class="node"><title>C303</title>
<text text-anchor="middle" x="279" y="-136.6" style="font-family:Times New Roman;font-size:16.00;">C30</text>
</g>
<!-- VEH3&#45;&gt;C303 -->
<g id="edge15" class="edge"><title>VEH3&#45;&gt;C303</title>
<path style="fill:none;stroke:black;" d="M256,-100C258,-104 261,-109 264,-114"/>
<polygon style="fill:black;stroke:black;" points="261.084,-115.958 269,-123 267.203,-112.559 261.084,-115.958"/>
</g>
<!-- C103 -->
<g id="node14" class="node"><title>C103</title>
<text text-anchor="middle" x="301" y="-30.6" style="font-family:Times New Roman;font-size:16.00;">C10</text>
</g>
<!-- C103&#45;&gt;VEH3 -->
<g id="edge17" class="edge"><title>C103&#45;&gt;VEH3</title>
<path style="fill:none;stroke:black;" d="M280,-53C278,-55 277,-56 275,-58"/>
<polygon style="fill:black;stroke:black;" points="272.9,-55.2 267,-64 277.1,-60.8 272.9,-55.2"/>
</g>
<!-- C103&#45;&gt;C33 -->
<g id="edge19" class="edge"><title>C103&#45;&gt;C33</title>
<path style="fill:none;stroke:black;" d="M320,-53C323,-56 326,-58 329,-61"/>
<polygon style="fill:black;stroke:black;" points="326.454,-63.4038 336,-68 331.404,-58.454 326.454,-63.4038"/>
</g>
<!-- C103&#45;&gt;C303 -->
<g id="edge21" class="edge"><title>C103&#45;&gt;C303</title>
<path style="fill:none;stroke:black;" d="M297,-53C294,-70 289,-94 285,-113"/>
<polygon style="fill:black;stroke:black;" points="281.529,-112.508 283,-123 288.393,-113.881 281.529,-112.508"/>
</g>
</g>
</svg>
