<?xml version="1.0" encoding="UTF-8" standalone="no"?>
<!DOCTYPE svg PUBLIC "-//W3C//DTD SVG 1.0//EN"
 "http://www.w3.org/TR/2001/REC-SVG-20010904/DTD/svg10.dtd" [
 <!ATTLIST svg xmlns:xlink CDATA #FIXED "http://www.w3.org/1999/xlink">
]>
<!-- Generated by Graphviz version 2.20.2 (Tue Mar &#160;2 20:02:18 UTC 2010)
     For user: (nsvo) Nam Sy Vo,,, -->
<!-- Title: FirstlevelCluster Pages: 1 -->
<svg width="396pt" height="448pt"
 viewBox="0.00 0.00 396.00 448.00" xmlns="http://www.w3.org/2000/svg" xmlns:xlink="http://www.w3.org/1999/xlink">
<g id="graph0" class="graph" transform="scale(1 1) rotate(0) translate(4 444)">
<title>FirstlevelCluster</title>
<polygon style="fill:white;stroke:white;" points="-4,4 -4,-444 392,-444 392,4 -4,4"/>
<g id="cluster2" class="cluster"><title>cluster_0</title>
<polygon style="fill:none;stroke:black;" points="1,-0 1,-431 388,-431 388,-0 1,-0"/>
<text text-anchor="middle" x="194" y="-414.9" style="font-family:Times New Roman;font-size:14.00;">C3~C30&gt;</text>
</g>
<g id="cluster3" class="cluster"><title>cluster_2</title>
<polygon style="fill:lightgrey;stroke:black;" points="10,-218 10,-397 186,-397 186,-218 10,-218"/>
<text text-anchor="middle" x="98" y="-380.9" style="font-family:Times New Roman;font-size:14.00;">212012</text>
</g>
<g id="cluster4" class="cluster"><title>cluster_3</title>
<polygon style="fill:lightgrey;stroke:black;" points="9,-8 9,-193 190,-193 190,-8 9,-8"/>
<text text-anchor="middle" x="99" y="-176.9" style="font-family:Times New Roman;font-size:14.00;">222012</text>
</g>
<g id="cluster5" class="cluster"><title>cluster_4</title>
<polygon style="fill:lightgrey;stroke:black;" points="198,-29 198,-214 379,-214 379,-29 198,-29"/>
<text text-anchor="middle" x="288" y="-197.9" style="font-family:Times New Roman;font-size:14.00;">202012</text>
</g>
<!-- VEH2 -->
<g id="node3" class="node"><title>VEH2</title>
<text text-anchor="middle" x="46" y="-287.6" style="font-family:Times New Roman;font-size:16.00;">VEH</text>
</g>
<!-- C32 -->
<g id="node4" class="node"><title>C32</title>
<text text-anchor="middle" x="150" y="-293.6" style="font-family:Times New Roman;font-size:16.00;">C3</text>
</g>
<!-- C32&#45;&gt;VEH2 -->
<g id="edge4" class="edge"><title>C32&#45;&gt;VEH2</title>
<path style="fill:none;stroke:black;" d="M123,-296C111,-296 97,-295 83,-295"/>
<polygon style="fill:black;stroke:black;" points="83.2987,-291.512 73,-294 82.6021,-298.478 83.2987,-291.512"/>
</g>
<!-- C102 -->
<g id="node5" class="node"><title>C102</title>
<text text-anchor="middle" x="112" y="-240.6" style="font-family:Times New Roman;font-size:16.00;">C10</text>
</g>
<!-- C32&#45;&gt;C102 -->
<g id="edge6" class="edge"><title>C32&#45;&gt;C102</title>
<path style="fill:none;stroke:black;" d="M137,-280C135,-277 133,-274 131,-271"/>
<polygon style="fill:black;stroke:black;" points="133.8,-268.9 125,-263 128.2,-273.1 133.8,-268.9"/>
</g>
<!-- C302 -->
<g id="node6" class="node"><title>C302</title>
<text text-anchor="middle" x="84" y="-340.6" style="font-family:Times New Roman;font-size:16.00;">C30</text>
</g>
<!-- C302&#45;&gt;VEH2 -->
<g id="edge8" class="edge"><title>C302&#45;&gt;VEH2</title>
<path style="fill:none;stroke:black;" d="M71,-327C69,-324 67,-321 65,-318"/>
<polygon style="fill:black;stroke:black;" points="67.8,-315.9 59,-310 62.2,-320.1 67.8,-315.9"/>
</g>
<!-- C302&#45;&gt;C102 -->
<g id="edge10" class="edge"><title>C302&#45;&gt;C102</title>
<path style="fill:none;stroke:black;" d="M89,-327C93,-312 99,-290 104,-273"/>
<polygon style="fill:black;stroke:black;" points="107.479,-273.584 107,-263 100.774,-271.573 107.479,-273.584"/>
</g>
<!-- VEH3 -->
<g id="node12" class="node"><title>VEH3</title>
<text text-anchor="middle" x="46" y="-77.6" style="font-family:Times New Roman;font-size:16.00;">VEH</text>
</g>
<!-- C33 -->
<g id="node13" class="node"><title>C33</title>
<text text-anchor="middle" x="154" y="-81.6" style="font-family:Times New Roman;font-size:16.00;">C3</text>
</g>
<!-- C33&#45;&gt;VEH3 -->
<g id="edge13" class="edge"><title>C33&#45;&gt;VEH3</title>
<path style="fill:none;stroke:black;" d="M127,-85C114,-84 98,-84 83,-83"/>
<polygon style="fill:black;stroke:black;" points="83,-79.5001 73,-83 83,-86.5001 83,-79.5001"/>
</g>
<!-- C103 -->
<g id="node14" class="node"><title>C103</title>
<text text-anchor="middle" x="101" y="-30.6" style="font-family:Times New Roman;font-size:16.00;">C10</text>
</g>
<!-- C33&#45;&gt;C103 -->
<g id="edge15" class="edge"><title>C33&#45;&gt;C103</title>
<path style="fill:none;stroke:black;" d="M135,-68C133,-66 130,-63 128,-61"/>
<polygon style="fill:black;stroke:black;" points="129.546,-57.5962 120,-53 124.596,-62.546 129.546,-57.5962"/>
</g>
<!-- C103&#45;&gt;VEH3 -->
<g id="edge17" class="edge"><title>C103&#45;&gt;VEH3</title>
<path style="fill:none;stroke:black;" d="M80,-53C78,-55 77,-56 75,-58"/>
<polygon style="fill:black;stroke:black;" points="72.9,-55.2 67,-64 77.1,-60.8 72.9,-55.2"/>
</g>
<!-- C303 -->
<g id="node15" class="node"><title>C303</title>
<text text-anchor="middle" x="79" y="-136.6" style="font-family:Times New Roman;font-size:16.00;">C30</text>
</g>
<!-- C303&#45;&gt;VEH3 -->
<g id="edge19" class="edge"><title>C303&#45;&gt;VEH3</title>
<path style="fill:none;stroke:black;" d="M69,-123C67,-119 64,-114 61,-109"/>
<polygon style="fill:black;stroke:black;" points="63.916,-107.042 56,-100 57.7969,-110.441 63.916,-107.042"/>
</g>
<!-- C303&#45;&gt;C103 -->
<g id="edge21" class="edge"><title>C303&#45;&gt;C103</title>
<path style="fill:none;stroke:black;" d="M83,-123C86,-106 91,-82 95,-63"/>
<polygon style="fill:black;stroke:black;" points="98.4708,-63.4922 97,-53 91.6067,-62.1194 98.4708,-63.4922"/>
</g>
<!-- VEH4 -->
<g id="node22" class="node"><title>VEH4</title>
<text text-anchor="middle" x="235" y="-98.6" style="font-family:Times New Roman;font-size:16.00;">VEH</text>
</g>
<!-- C104 -->
<g id="node24" class="node"><title>C104</title>
<text text-anchor="middle" x="290" y="-51.6" style="font-family:Times New Roman;font-size:16.00;">C10</text>
</g>
<!-- VEH4&#45;&gt;C104 -->
<g id="edge24" class="edge"><title>VEH4&#45;&gt;C104</title>
<path style="fill:none;stroke:black;" d="M256,-85C258,-83 259,-82 261,-80"/>
<polygon style="fill:black;stroke:black;" points="263.1,-82.8 269,-74 258.9,-77.2 263.1,-82.8"/>
</g>
<!-- C34 -->
<g id="node23" class="node"><title>C34</title>
<text text-anchor="middle" x="343" y="-102.6" style="font-family:Times New Roman;font-size:16.00;">C3</text>
</g>
<!-- C34&#45;&gt;VEH4 -->
<g id="edge26" class="edge"><title>C34&#45;&gt;VEH4</title>
<path style="fill:none;stroke:black;" d="M316,-106C303,-105 287,-105 272,-104"/>
<polygon style="fill:black;stroke:black;" points="272,-100.5 262,-104 272,-107.5 272,-100.5"/>
</g>
<!-- C34&#45;&gt;C104 -->
<g id="edge28" class="edge"><title>C34&#45;&gt;C104</title>
<path style="fill:none;stroke:black;" d="M324,-89C322,-87 319,-84 317,-82"/>
<polygon style="fill:black;stroke:black;" points="318.546,-78.5962 309,-74 313.596,-83.546 318.546,-78.5962"/>
</g>
<!-- C304 -->
<g id="node25" class="node"><title>C304</title>
<text text-anchor="middle" x="268" y="-157.6" style="font-family:Times New Roman;font-size:16.00;">C30</text>
</g>
<!-- C304&#45;&gt;VEH4 -->
<g id="edge30" class="edge"><title>C304&#45;&gt;VEH4</title>
<path style="fill:none;stroke:black;" d="M258,-144C256,-140 253,-135 250,-130"/>
<polygon style="fill:black;stroke:black;" points="252.916,-128.042 245,-121 246.797,-131.441 252.916,-128.042"/>
</g>
<!-- C304&#45;&gt;C104 -->
<g id="edge32" class="edge"><title>C304&#45;&gt;C104</title>
<path style="fill:none;stroke:black;" d="M272,-144C275,-127 280,-103 284,-84"/>
<polygon style="fill:black;stroke:black;" points="287.471,-84.4922 286,-74 280.607,-83.1194 287.471,-84.4922"/>
</g>
</g>
</svg>
