<?xml version="1.0" encoding="UTF-8" standalone="no"?>
<!DOCTYPE svg PUBLIC "-//W3C//DTD SVG 1.0//EN"
 "http://www.w3.org/TR/2001/REC-SVG-20010904/DTD/svg10.dtd" [
 <!ATTLIST svg xmlns:xlink CDATA #FIXED "http://www.w3.org/1999/xlink">
]>
<!-- Generated by Graphviz version 2.20.2 (Tue Mar &#160;2 20:02:18 UTC 2010)
     For user: (nsvo) Nam Sy Vo,,, -->
<!-- Title: FirstlevelCluster Pages: 1 -->
<svg width="392pt" height="454pt"
 viewBox="0.00 0.00 392.00 454.00" xmlns="http://www.w3.org/2000/svg" xmlns:xlink="http://www.w3.org/1999/xlink">
<g id="graph0" class="graph" transform="scale(1 1) rotate(0) translate(4 450)">
<title>FirstlevelCluster</title>
<polygon style="fill:white;stroke:white;" points="-4,4 -4,-450 388,-450 388,4 -4,4"/>
<g id="cluster2" class="cluster"><title>cluster_0</title>
<polygon style="fill:none;stroke:black;" points="1,-0 1,-437 384,-437 384,-0 1,-0"/>
<text text-anchor="middle" x="192" y="-420.9" style="font-family:Times New Roman;font-size:14.00;">C3~C10&gt;</text>
</g>
<g id="cluster3" class="cluster"><title>cluster_2</title>
<polygon style="fill:lightgrey;stroke:black;" points="10,-9 10,-197 192,-197 192,-9 10,-9"/>
<text text-anchor="middle" x="101" y="-180.9" style="font-family:Times New Roman;font-size:14.00;">221100</text>
</g>
<g id="cluster4" class="cluster"><title>cluster_3</title>
<polygon style="fill:lightgrey;stroke:black;" points="199,-30 199,-214 375,-214 375,-30 199,-30"/>
<text text-anchor="middle" x="287" y="-197.9" style="font-family:Times New Roman;font-size:14.00;">222100</text>
</g>
<g id="cluster5" class="cluster"><title>cluster_4</title>
<polygon style="fill:lightgrey;stroke:black;" points="10,-219 10,-403 186,-403 186,-219 10,-219"/>
<text text-anchor="middle" x="98" y="-386.9" style="font-family:Times New Roman;font-size:14.00;">220100</text>
</g>
<!-- VEH2 -->
<g id="node3" class="node"><title>VEH2</title>
<text text-anchor="middle" x="46" y="-76.6" style="font-family:Times New Roman;font-size:16.00;">VEH</text>
</g>
<!-- C32 -->
<g id="node4" class="node"><title>C32</title>
<text text-anchor="middle" x="156" y="-95.6" style="font-family:Times New Roman;font-size:16.00;">C3</text>
</g>
<!-- C32&#45;&gt;VEH2 -->
<g id="edge4" class="edge"><title>C32&#45;&gt;VEH2</title>
<path style="fill:none;stroke:black;" d="M129,-95C115,-93 98,-90 83,-88"/>
<polygon style="fill:black;stroke:black;" points="83.4922,-84.5292 73,-86 82.1194,-91.3933 83.4922,-84.5292"/>
</g>
<!-- C302 -->
<g id="node6" class="node"><title>C302</title>
<text text-anchor="middle" x="90" y="-140.6" style="font-family:Times New Roman;font-size:16.00;">C30</text>
</g>
<!-- C32&#45;&gt;C302 -->
<g id="edge6" class="edge"><title>C32&#45;&gt;C302</title>
<path style="fill:none;stroke:black;" d="M130,-118C129,-119 127,-120 126,-121"/>
<polygon style="fill:black;stroke:black;" points="123.379,-118.541 117,-127 127.262,-124.365 123.379,-118.541"/>
</g>
<!-- C102 -->
<g id="node5" class="node"><title>C102</title>
<text text-anchor="middle" x="111" y="-31.6" style="font-family:Times New Roman;font-size:16.00;">C10</text>
</g>
<!-- C102&#45;&gt;VEH2 -->
<g id="edge8" class="edge"><title>C102&#45;&gt;VEH2</title>
<path style="fill:none;stroke:black;" d="M85,-54C84,-55 83,-56 81,-57"/>
<polygon style="fill:black;stroke:black;" points="78.9,-54.2 73,-63 83.1,-59.8 78.9,-54.2"/>
</g>
<!-- C102&#45;&gt;C302 -->
<g id="edge10" class="edge"><title>C102&#45;&gt;C302</title>
<path style="fill:none;stroke:black;" d="M107,-54C104,-72 99,-98 95,-117"/>
<polygon style="fill:black;stroke:black;" points="91.5292,-116.508 93,-127 98.3933,-117.881 91.5292,-116.508"/>
</g>
<!-- VEH3 -->
<g id="node12" class="node"><title>VEH3</title>
<text text-anchor="middle" x="235" y="-104.6" style="font-family:Times New Roman;font-size:16.00;">VEH</text>
</g>
<!-- C33 -->
<g id="node13" class="node"><title>C33</title>
<text text-anchor="middle" x="339" y="-120.6" style="font-family:Times New Roman;font-size:16.00;">C3</text>
</g>
<!-- C33&#45;&gt;VEH3 -->
<g id="edge13" class="edge"><title>C33&#45;&gt;VEH3</title>
<path style="fill:none;stroke:black;" d="M312,-121C300,-119 286,-117 272,-115"/>
<polygon style="fill:black;stroke:black;" points="272.492,-111.529 262,-113 271.119,-118.393 272.492,-111.529"/>
</g>
<!-- C303 -->
<g id="node15" class="node"><title>C303</title>
<text text-anchor="middle" x="276" y="-157.6" style="font-family:Times New Roman;font-size:16.00;">C30</text>
</g>
<!-- C33&#45;&gt;C303 -->
<g id="edge15" class="edge"><title>C33&#45;&gt;C303</title>
<path style="fill:none;stroke:black;" d="M312,-141C312,-141 312,-141 312,-141"/>
<polygon style="fill:black;stroke:black;" points="310.042,-138.084 303,-146 313.441,-144.203 310.042,-138.084"/>
</g>
<!-- C103 -->
<g id="node14" class="node"><title>C103</title>
<text text-anchor="middle" x="284" y="-52.6" style="font-family:Times New Roman;font-size:16.00;">C10</text>
</g>
<!-- C103&#45;&gt;VEH3 -->
<g id="edge17" class="edge"><title>C103&#45;&gt;VEH3</title>
<path style="fill:none;stroke:black;" d="M267,-75C264,-78 262,-81 259,-84"/>
<polygon style="fill:black;stroke:black;" points="256.596,-81.454 252,-91 261.546,-86.4038 256.596,-81.454"/>
</g>
<!-- C103&#45;&gt;C303 -->
<g id="edge19" class="edge"><title>C103&#45;&gt;C303</title>
<path style="fill:none;stroke:black;" d="M283,-75C281,-91 280,-115 278,-134"/>
<polygon style="fill:black;stroke:black;" points="274.512,-133.701 277,-144 281.478,-134.398 274.512,-133.701"/>
</g>
<!-- C303&#45;&gt;VEH3 -->
<g id="edge21" class="edge"><title>C303&#45;&gt;VEH3</title>
<path style="fill:none;stroke:black;" d="M262,-144C260,-141 257,-138 255,-135"/>
<polygon style="fill:black;stroke:black;" points="257.8,-132.9 249,-127 252.2,-137.1 257.8,-132.9"/>
</g>
<!-- VEH4 -->
<g id="node22" class="node"><title>VEH4</title>
<text text-anchor="middle" x="46" y="-293.6" style="font-family:Times New Roman;font-size:16.00;">VEH</text>
</g>
<!-- C304 -->
<g id="node25" class="node"><title>C304</title>
<text text-anchor="middle" x="87" y="-346.6" style="font-family:Times New Roman;font-size:16.00;">C30</text>
</g>
<!-- VEH4&#45;&gt;C304 -->
<g id="edge24" class="edge"><title>VEH4&#45;&gt;C304</title>
<path style="fill:none;stroke:black;" d="M60,-316C62,-319 65,-322 67,-325"/>
<polygon style="fill:black;stroke:black;" points="64.2,-327.1 73,-333 69.8,-322.9 64.2,-327.1"/>
</g>
<!-- C34 -->
<g id="node23" class="node"><title>C34</title>
<text text-anchor="middle" x="150" y="-309.6" style="font-family:Times New Roman;font-size:16.00;">C3</text>
</g>
<!-- C34&#45;&gt;VEH4 -->
<g id="edge26" class="edge"><title>C34&#45;&gt;VEH4</title>
<path style="fill:none;stroke:black;" d="M123,-310C111,-308 97,-306 83,-304"/>
<polygon style="fill:black;stroke:black;" points="83.4922,-300.529 73,-302 82.1194,-307.393 83.4922,-300.529"/>
</g>
<!-- C34&#45;&gt;C304 -->
<g id="edge28" class="edge"><title>C34&#45;&gt;C304</title>
<path style="fill:none;stroke:black;" d="M123,-330C123,-330 123,-330 123,-330"/>
<polygon style="fill:black;stroke:black;" points="121.042,-327.084 114,-335 124.441,-333.203 121.042,-327.084"/>
</g>
<!-- C104 -->
<g id="node24" class="node"><title>C104</title>
<text text-anchor="middle" x="95" y="-241.6" style="font-family:Times New Roman;font-size:16.00;">C10</text>
</g>
<!-- C104&#45;&gt;VEH4 -->
<g id="edge30" class="edge"><title>C104&#45;&gt;VEH4</title>
<path style="fill:none;stroke:black;" d="M78,-264C75,-267 73,-270 70,-273"/>
<polygon style="fill:black;stroke:black;" points="67.5962,-270.454 63,-280 72.546,-275.404 67.5962,-270.454"/>
</g>
<!-- C104&#45;&gt;C304 -->
<g id="edge32" class="edge"><title>C104&#45;&gt;C304</title>
<path style="fill:none;stroke:black;" d="M94,-264C92,-280 91,-304 89,-323"/>
<polygon style="fill:black;stroke:black;" points="85.5125,-322.701 88,-333 92.4778,-323.398 85.5125,-322.701"/>
</g>
</g>
</svg>
