<?xml version="1.0" encoding="UTF-8" standalone="no"?>
<!DOCTYPE svg PUBLIC "-//W3C//DTD SVG 1.0//EN"
 "http://www.w3.org/TR/2001/REC-SVG-20010904/DTD/svg10.dtd" [
 <!ATTLIST svg xmlns:xlink CDATA #FIXED "http://www.w3.org/1999/xlink">
]>
<!-- Generated by Graphviz version 2.20.2 (Tue Mar &#160;2 20:02:18 UTC 2010)
     For user: (nsvo) Nam Sy Vo,,, -->
<!-- Title: FirstlevelCluster Pages: 1 -->
<svg width="788pt" height="826pt"
 viewBox="0.00 0.00 788.00 826.00" xmlns="http://www.w3.org/2000/svg" xmlns:xlink="http://www.w3.org/1999/xlink">
<g id="graph0" class="graph" transform="scale(1 1) rotate(0) translate(4 822)">
<title>FirstlevelCluster</title>
<polygon style="fill:white;stroke:white;" points="-4,4 -4,-822 784,-822 784,4 -4,4"/>
<g id="cluster2" class="cluster"><title>cluster_0</title>
<polygon style="fill:none;stroke:black;" points="1,-0 1,-809 779,-809 779,-0 1,-0"/>
<text text-anchor="middle" x="390" y="-792.9" style="font-family:Times New Roman;font-size:14.00;">C3&gt;</text>
</g>
<g id="cluster3" class="cluster"><title>cluster_2</title>
<polygon style="fill:lightgrey;stroke:black;" points="210,-209 210,-385 404,-385 404,-209 210,-209"/>
<text text-anchor="middle" x="307" y="-368.9" style="font-family:Times New Roman;font-size:14.00;">211001</text>
</g>
<g id="cluster4" class="cluster"><title>cluster_3</title>
<polygon style="fill:lightgrey;stroke:black;" points="410,-209 410,-389 588,-389 588,-209 410,-209"/>
<text text-anchor="middle" x="499" y="-372.9" style="font-family:Times New Roman;font-size:14.00;">201002</text>
</g>
<g id="cluster5" class="cluster"><title>cluster_4</title>
<polygon style="fill:none;stroke:black;" points="50,-108 50,-285 193,-285 193,-108 50,-108"/>
<text text-anchor="middle" x="121" y="-268.9" style="font-family:Times New Roman;font-size:14.00;">201001</text>
</g>
<g id="cluster6" class="cluster"><title>cluster_5</title>
<polygon style="fill:lightgrey;stroke:black;" points="50,-568 50,-749 189,-749 189,-568 50,-568"/>
<text text-anchor="middle" x="119" y="-732.9" style="font-family:Times New Roman;font-size:14.00;">200001</text>
</g>
<g id="cluster7" class="cluster"><title>cluster_6</title>
<polygon style="fill:lightgrey;stroke:black;" points="430,-588 430,-769 569,-769 569,-588 430,-588"/>
<text text-anchor="middle" x="499" y="-752.9" style="font-family:Times New Roman;font-size:14.00;">222001</text>
</g>
<g id="cluster8" class="cluster"><title>cluster_7</title>
<polygon style="fill:none;stroke:black;" points="610,-208 610,-385 753,-385 753,-208 610,-208"/>
<text text-anchor="middle" x="681" y="-368.9" style="font-family:Times New Roman;font-size:14.00;">221001</text>
</g>
<g id="cluster9" class="cluster"><title>cluster_8</title>
<polygon style="fill:none;stroke:black;" points="410,-409 410,-567 614,-567 614,-409 410,-409"/>
<text text-anchor="middle" x="512" y="-550.9" style="font-family:Times New Roman;font-size:14.00;">211000</text>
</g>
<g id="cluster10" class="cluster"><title>cluster_9</title>
<polygon style="fill:lightgrey;stroke:black;" points="210,-409 210,-595 390,-595 390,-409 210,-409"/>
<text text-anchor="middle" x="300" y="-578.9" style="font-family:Times New Roman;font-size:14.00;">200000</text>
</g>
<g id="cluster11" class="cluster"><title>cluster_10</title>
<polygon style="fill:lightgrey;stroke:black;" points="590,-589 590,-775 770,-775 770,-589 590,-589"/>
<text text-anchor="middle" x="680" y="-758.9" style="font-family:Times New Roman;font-size:14.00;">200002</text>
</g>
<g id="cluster12" class="cluster"><title>cluster_11</title>
<polygon style="fill:lightgrey;stroke:black;" points="310,-9 310,-193 495,-193 495,-9 310,-9"/>
<text text-anchor="middle" x="402" y="-176.9" style="font-family:Times New Roman;font-size:14.00;">210000</text>
</g>
<g id="cluster13" class="cluster"><title>cluster_12</title>
<polygon style="fill:none;stroke:black;" points="510,-29 510,-187 714,-187 714,-29 510,-29"/>
<text text-anchor="middle" x="612" y="-170.9" style="font-family:Times New Roman;font-size:14.00;">211002</text>
</g>
<g id="cluster14" class="cluster"><title>cluster_13</title>
<polygon style="fill:lightgrey;stroke:black;" points="10,-309 10,-495 190,-495 190,-309 10,-309"/>
<text text-anchor="middle" x="100" y="-478.9" style="font-family:Times New Roman;font-size:14.00;">222000</text>
</g>
<!-- VEH2 -->
<g id="node3" class="node"><title>VEH2</title>
<text text-anchor="middle" x="246" y="-262.6" style="font-family:Times New Roman;font-size:16.00;">VEH</text>
</g>
<!-- C32 -->
<g id="node4" class="node"><title>C32</title>
<text text-anchor="middle" x="312" y="-279.6" style="font-family:Times New Roman;font-size:16.00;">C3</text>
</g>
<!-- C32&#45;&gt;VEH2 -->
<g id="edge4" class="edge"><title>C32&#45;&gt;VEH2</title>
<path style="fill:none;stroke:black;" d="M285,-277C284,-277 284,-277 283,-276"/>
<polygon style="fill:black;stroke:black;" points="283.492,-272.529 273,-274 282.119,-279.393 283.492,-272.529"/>
</g>
<!-- C102 -->
<g id="node5" class="node"><title>C102</title>
<text text-anchor="middle" x="368" y="-231.6" style="font-family:Times New Roman;font-size:16.00;">C10</text>
</g>
<!-- C32&#45;&gt;C102 -->
<g id="edge6" class="edge"><title>C32&#45;&gt;C102</title>
<path style="fill:none;stroke:black;" d="M333,-266C335,-264 337,-263 339,-261"/>
<polygon style="fill:black;stroke:black;" points="341.779,-263.219 347,-254 337.169,-257.951 341.779,-263.219"/>
</g>
<!-- C302 -->
<g id="node6" class="node"><title>C302</title>
<text text-anchor="middle" x="338" y="-328.6" style="font-family:Times New Roman;font-size:16.00;">C30</text>
</g>
<!-- C32&#45;&gt;C302 -->
<g id="edge8" class="edge"><title>C32&#45;&gt;C302</title>
<path style="fill:none;stroke:black;" d="M322,-302C323,-303 323,-304 324,-306"/>
<polygon style="fill:black;stroke:black;" points="320.74,-307.283 328,-315 327.137,-304.44 320.74,-307.283"/>
</g>
<!-- VEH3 -->
<g id="node11" class="node"><title>VEH3</title>
<text text-anchor="middle" x="446" y="-263.6" style="font-family:Times New Roman;font-size:16.00;">VEH</text>
</g>
<!-- C103 -->
<g id="node13" class="node"><title>C103</title>
<text text-anchor="middle" x="514" y="-231.6" style="font-family:Times New Roman;font-size:16.00;">C10</text>
</g>
<!-- VEH3&#45;&gt;C103 -->
<g id="edge11" class="edge"><title>VEH3&#45;&gt;C103</title>
<path style="fill:none;stroke:black;" d="M473,-255C475,-254 476,-254 478,-253"/>
<polygon style="fill:black;stroke:black;" points="479.958,-255.916 487,-248 476.559,-249.797 479.958,-255.916"/>
</g>
<!-- C33 -->
<g id="node12" class="node"><title>C33</title>
<text text-anchor="middle" x="552" y="-283.6" style="font-family:Times New Roman;font-size:16.00;">C3</text>
</g>
<!-- C33&#45;&gt;VEH3 -->
<g id="edge13" class="edge"><title>C33&#45;&gt;VEH3</title>
<path style="fill:none;stroke:black;" d="M525,-283C512,-281 497,-278 483,-275"/>
<polygon style="fill:black;stroke:black;" points="483.492,-271.529 473,-273 482.119,-278.393 483.492,-271.529"/>
</g>
<!-- C33&#45;&gt;C103 -->
<g id="edge15" class="edge"><title>C33&#45;&gt;C103</title>
<path style="fill:none;stroke:black;" d="M539,-270C537,-268 535,-265 533,-262"/>
<polygon style="fill:black;stroke:black;" points="535.8,-259.9 527,-254 530.2,-264.1 535.8,-259.9"/>
</g>
<!-- C303 -->
<g id="node14" class="node"><title>C303</title>
<text text-anchor="middle" x="499" y="-332.6" style="font-family:Times New Roman;font-size:16.00;">C30</text>
</g>
<!-- C33&#45;&gt;C303 -->
<g id="edge17" class="edge"><title>C33&#45;&gt;C303</title>
<path style="fill:none;stroke:black;" d="M532,-306C530,-308 528,-310 526,-312"/>
<polygon style="fill:black;stroke:black;" points="523.221,-309.781 518,-319 527.831,-315.049 523.221,-309.781"/>
</g>
<!-- C303&#45;&gt;C103 -->
<g id="edge19" class="edge"><title>C303&#45;&gt;C103</title>
<path style="fill:none;stroke:black;" d="M502,-319C505,-304 508,-282 510,-264"/>
<polygon style="fill:black;stroke:black;" points="513.488,-264.299 511,-254 506.522,-263.602 513.488,-264.299"/>
</g>
<!-- VEH4 -->
<g id="node21" class="node"><title>VEH4</title>
<text text-anchor="middle" x="86" y="-191.6" style="font-family:Times New Roman;font-size:16.00;">VEH</text>
</g>
<!-- C104 -->
<g id="node23" class="node"><title>C104</title>
<text text-anchor="middle" x="106" y="-130.6" style="font-family:Times New Roman;font-size:16.00;">C10</text>
</g>
<!-- VEH4&#45;&gt;C104 -->
<g id="edge22" class="edge"><title>VEH4&#45;&gt;C104</title>
<path style="fill:none;stroke:black;" d="M92,-178C94,-173 96,-168 97,-163"/>
<polygon style="fill:black;stroke:black;" points="100.479,-163.584 100,-153 93.7741,-161.573 100.479,-163.584"/>
</g>
<!-- C34 -->
<g id="node22" class="node"><title>C34</title>
<text text-anchor="middle" x="154" y="-179.6" style="font-family:Times New Roman;font-size:16.00;">C3</text>
</g>
<!-- C34&#45;&gt;VEH4 -->
<g id="edge24" class="edge"><title>C34&#45;&gt;VEH4</title>
<path style="fill:none;stroke:black;" d="M127,-189C126,-189 124,-190 123,-190"/>
<polygon style="fill:black;stroke:black;" points="122.602,-186.522 113,-191 123.299,-193.488 122.602,-186.522"/>
</g>
<!-- C34&#45;&gt;C104 -->
<g id="edge26" class="edge"><title>C34&#45;&gt;C104</title>
<path style="fill:none;stroke:black;" d="M136,-166C134,-164 132,-162 130,-160"/>
<polygon style="fill:black;stroke:black;" points="132.546,-157.596 123,-153 127.596,-162.546 132.546,-157.596"/>
</g>
<!-- C304 -->
<g id="node24" class="node"><title>C304</title>
<text text-anchor="middle" x="157" y="-228.6" style="font-family:Times New Roman;font-size:16.00;">C30</text>
</g>
<!-- C34&#45;&gt;C304 -->
<g id="edge28" class="edge"><title>C34&#45;&gt;C304</title>
<path style="fill:none;stroke:black;" d="M155,-202C155,-203 155,-204 155,-205"/>
<polygon style="fill:black;stroke:black;" points="151.522,-205.398 156,-215 158.488,-204.701 151.522,-205.398"/>
</g>
<!-- VEH5 -->
<g id="node30" class="node"><title>VEH5</title>
<text text-anchor="middle" x="86" y="-639.6" style="font-family:Times New Roman;font-size:16.00;">VEH</text>
</g>
<!-- C105 -->
<g id="node32" class="node"><title>C105</title>
<text text-anchor="middle" x="129" y="-591.6" style="font-family:Times New Roman;font-size:16.00;">C10</text>
</g>
<!-- VEH5&#45;&gt;C105 -->
<g id="edge31" class="edge"><title>VEH5&#45;&gt;C105</title>
<path style="fill:none;stroke:black;" d="M102,-626C103,-625 104,-623 105,-622"/>
<polygon style="fill:black;stroke:black;" points="108.049,-623.831 112,-614 102.781,-619.221 108.049,-623.831"/>
</g>
<!-- C305 -->
<g id="node33" class="node"><title>C305</title>
<text text-anchor="middle" x="110" y="-692.6" style="font-family:Times New Roman;font-size:16.00;">C30</text>
</g>
<!-- VEH5&#45;&gt;C305 -->
<g id="edge33" class="edge"><title>VEH5&#45;&gt;C305</title>
<path style="fill:none;stroke:black;" d="M94,-662C95,-665 96,-667 97,-670"/>
<polygon style="fill:black;stroke:black;" points="93.7402,-671.283 101,-679 100.137,-668.44 93.7402,-671.283"/>
</g>
<!-- C35 -->
<g id="node31" class="node"><title>C35</title>
<text text-anchor="middle" x="153" y="-648.6" style="font-family:Times New Roman;font-size:16.00;">C3</text>
</g>
<!-- C35&#45;&gt;VEH5 -->
<g id="edge35" class="edge"><title>C35&#45;&gt;VEH5</title>
<path style="fill:none;stroke:black;" d="M126,-649C125,-649 124,-649 123,-649"/>
<polygon style="fill:black;stroke:black;" points="123.299,-645.512 113,-648 122.602,-652.478 123.299,-645.512"/>
</g>
<!-- C35&#45;&gt;C105 -->
<g id="edge37" class="edge"><title>C35&#45;&gt;C105</title>
<path style="fill:none;stroke:black;" d="M145,-635C143,-631 142,-627 140,-624"/>
<polygon style="fill:black;stroke:black;" points="142.964,-621.985 136,-614 136.464,-624.585 142.964,-621.985"/>
</g>
<!-- C35&#45;&gt;C305 -->
<g id="edge39" class="edge"><title>C35&#45;&gt;C305</title>
<path style="fill:none;stroke:black;" d="M135,-671C135,-671 134,-672 134,-672"/>
<polygon style="fill:black;stroke:black;" points="131.596,-669.454 127,-679 136.546,-674.404 131.596,-669.454"/>
</g>
<!-- VEH6 -->
<g id="node40" class="node"><title>VEH6</title>
<text text-anchor="middle" x="466" y="-659.6" style="font-family:Times New Roman;font-size:16.00;">VEH</text>
</g>
<!-- C36 -->
<g id="node41" class="node"><title>C36</title>
<text text-anchor="middle" x="533" y="-668.6" style="font-family:Times New Roman;font-size:16.00;">C3</text>
</g>
<!-- C36&#45;&gt;VEH6 -->
<g id="edge42" class="edge"><title>C36&#45;&gt;VEH6</title>
<path style="fill:none;stroke:black;" d="M506,-669C505,-669 504,-669 503,-669"/>
<polygon style="fill:black;stroke:black;" points="503.299,-665.512 493,-668 502.602,-672.478 503.299,-665.512"/>
</g>
<!-- C106 -->
<g id="node42" class="node"><title>C106</title>
<text text-anchor="middle" x="509" y="-611.6" style="font-family:Times New Roman;font-size:16.00;">C10</text>
</g>
<!-- C36&#45;&gt;C106 -->
<g id="edge44" class="edge"><title>C36&#45;&gt;C106</title>
<path style="fill:none;stroke:black;" d="M525,-655C523,-651 522,-647 520,-644"/>
<polygon style="fill:black;stroke:black;" points="522.964,-641.985 516,-634 516.464,-644.585 522.964,-641.985"/>
</g>
<!-- C306 -->
<g id="node43" class="node"><title>C306</title>
<text text-anchor="middle" x="490" y="-712.6" style="font-family:Times New Roman;font-size:16.00;">C30</text>
</g>
<!-- C36&#45;&gt;C306 -->
<g id="edge46" class="edge"><title>C36&#45;&gt;C306</title>
<path style="fill:none;stroke:black;" d="M515,-691C515,-691 514,-692 514,-692"/>
<polygon style="fill:black;stroke:black;" points="511.596,-689.454 507,-699 516.546,-694.404 511.596,-689.454"/>
</g>
<!-- C106&#45;&gt;VEH6 -->
<g id="edge48" class="edge"><title>C106&#45;&gt;VEH6</title>
<path style="fill:none;stroke:black;" d="M493,-634C492,-635 491,-637 490,-638"/>
<polygon style="fill:black;stroke:black;" points="486.951,-636.169 483,-646 492.219,-640.779 486.951,-636.169"/>
</g>
<!-- C306&#45;&gt;VEH6 -->
<g id="edge50" class="edge"><title>C306&#45;&gt;VEH6</title>
<path style="fill:none;stroke:black;" d="M482,-699C481,-697 480,-694 479,-691"/>
<polygon style="fill:black;stroke:black;" points="482.26,-689.717 475,-682 475.863,-692.56 482.26,-689.717"/>
</g>
<!-- VEH7 -->
<g id="node50" class="node"><title>VEH7</title>
<text text-anchor="middle" x="646" y="-291.6" style="font-family:Times New Roman;font-size:16.00;">VEH</text>
</g>
<!-- C37 -->
<g id="node51" class="node"><title>C37</title>
<text text-anchor="middle" x="714" y="-279.6" style="font-family:Times New Roman;font-size:16.00;">C3</text>
</g>
<!-- C37&#45;&gt;VEH7 -->
<g id="edge53" class="edge"><title>C37&#45;&gt;VEH7</title>
<path style="fill:none;stroke:black;" d="M687,-289C686,-289 684,-290 683,-290"/>
<polygon style="fill:black;stroke:black;" points="682.602,-286.522 673,-291 683.299,-293.488 682.602,-286.522"/>
</g>
<!-- C107 -->
<g id="node52" class="node"><title>C107</title>
<text text-anchor="middle" x="666" y="-230.6" style="font-family:Times New Roman;font-size:16.00;">C10</text>
</g>
<!-- C37&#45;&gt;C107 -->
<g id="edge55" class="edge"><title>C37&#45;&gt;C107</title>
<path style="fill:none;stroke:black;" d="M696,-266C694,-264 692,-262 690,-260"/>
<polygon style="fill:black;stroke:black;" points="692.546,-257.596 683,-253 687.596,-262.546 692.546,-257.596"/>
</g>
<!-- C307 -->
<g id="node53" class="node"><title>C307</title>
<text text-anchor="middle" x="717" y="-328.6" style="font-family:Times New Roman;font-size:16.00;">C30</text>
</g>
<!-- C37&#45;&gt;C307 -->
<g id="edge57" class="edge"><title>C37&#45;&gt;C307</title>
<path style="fill:none;stroke:black;" d="M715,-302C715,-303 715,-304 715,-305"/>
<polygon style="fill:black;stroke:black;" points="711.522,-305.398 716,-315 718.488,-304.701 711.522,-305.398"/>
</g>
<!-- C107&#45;&gt;VEH7 -->
<g id="edge59" class="edge"><title>C107&#45;&gt;VEH7</title>
<path style="fill:none;stroke:black;" d="M660,-253C658,-258 656,-263 655,-268"/>
<polygon style="fill:black;stroke:black;" points="651.521,-267.416 652,-278 658.226,-269.427 651.521,-267.416"/>
</g>
<!-- VEH8 -->
<g id="node59" class="node"><title>VEH8</title>
<text text-anchor="middle" x="446" y="-442.6" style="font-family:Times New Roman;font-size:16.00;">VEH</text>
</g>
<!-- C38 -->
<g id="node60" class="node"><title>C38</title>
<text text-anchor="middle" x="509" y="-456.6" style="font-family:Times New Roman;font-size:16.00;">C3</text>
</g>
<!-- C38&#45;&gt;VEH8 -->
<g id="edge62" class="edge"><title>C38&#45;&gt;VEH8</title>
<path style="fill:none;stroke:black;" d="M482,-455C482,-455 482,-455 482,-455"/>
<polygon style="fill:black;stroke:black;" points="483.521,-451.753 473,-453 482.003,-458.586 483.521,-451.753"/>
</g>
<!-- C108 -->
<g id="node61" class="node"><title>C108</title>
<text text-anchor="middle" x="578" y="-431.6" style="font-family:Times New Roman;font-size:16.00;">C10</text>
</g>
<!-- C38&#45;&gt;C108 -->
<g id="edge64" class="edge"><title>C38&#45;&gt;C108</title>
<path style="fill:none;stroke:black;" d="M536,-451C538,-450 539,-450 541,-449"/>
<polygon style="fill:black;stroke:black;" points="542.427,-452.226 551,-446 540.416,-445.521 542.427,-452.226"/>
</g>
<!-- C308 -->
<g id="node62" class="node"><title>C308</title>
<text text-anchor="middle" x="560" y="-510.6" style="font-family:Times New Roman;font-size:16.00;">C30</text>
</g>
<!-- C38&#45;&gt;C308 -->
<g id="edge66" class="edge"><title>C38&#45;&gt;C308</title>
<path style="fill:none;stroke:black;" d="M526,-479C529,-483 532,-486 536,-490"/>
<polygon style="fill:black;stroke:black;" points="533.454,-492.404 543,-497 538.404,-487.454 533.454,-492.404"/>
</g>
<!-- C108&#45;&gt;C308 -->
<g id="edge68" class="edge"><title>C108&#45;&gt;C308</title>
<path style="fill:none;stroke:black;" d="M574,-454C572,-464 569,-476 566,-487"/>
<polygon style="fill:black;stroke:black;" points="562.529,-486.508 564,-497 569.393,-487.881 562.529,-486.508"/>
</g>
<!-- VEH9 -->
<g id="node68" class="node"><title>VEH9</title>
<text text-anchor="middle" x="247" y="-476.6" style="font-family:Times New Roman;font-size:16.00;">VEH</text>
</g>
<!-- C109 -->
<g id="node70" class="node"><title>C109</title>
<text text-anchor="middle" x="310" y="-431.6" style="font-family:Times New Roman;font-size:16.00;">C10</text>
</g>
<!-- VEH9&#45;&gt;C109 -->
<g id="edge71" class="edge"><title>VEH9&#45;&gt;C109</title>
<path style="fill:none;stroke:black;" d="M272,-463C273,-462 275,-461 276,-460"/>
<polygon style="fill:black;stroke:black;" points="278.1,-462.8 284,-454 273.9,-457.2 278.1,-462.8"/>
</g>
<!-- C309 -->
<g id="node71" class="node"><title>C309</title>
<text text-anchor="middle" x="291" y="-538.6" style="font-family:Times New Roman;font-size:16.00;">C30</text>
</g>
<!-- VEH9&#45;&gt;C309 -->
<g id="edge73" class="edge"><title>VEH9&#45;&gt;C309</title>
<path style="fill:none;stroke:black;" d="M260,-499C264,-504 268,-511 272,-517"/>
<polygon style="fill:black;stroke:black;" points="269.2,-519.1 278,-525 274.8,-514.9 269.2,-519.1"/>
</g>
<!-- C39 -->
<g id="node69" class="node"><title>C39</title>
<text text-anchor="middle" x="354" y="-493.6" style="font-family:Times New Roman;font-size:16.00;">C3</text>
</g>
<!-- C39&#45;&gt;VEH9 -->
<g id="edge75" class="edge"><title>C39&#45;&gt;VEH9</title>
<path style="fill:none;stroke:black;" d="M327,-494C314,-492 298,-489 284,-487"/>
<polygon style="fill:black;stroke:black;" points="284.299,-483.512 274,-486 283.602,-490.478 284.299,-483.512"/>
</g>
<!-- C39&#45;&gt;C109 -->
<g id="edge77" class="edge"><title>C39&#45;&gt;C109</title>
<path style="fill:none;stroke:black;" d="M341,-480C337,-475 333,-468 329,-462"/>
<polygon style="fill:black;stroke:black;" points="331.8,-459.9 323,-454 326.2,-464.1 331.8,-459.9"/>
</g>
<!-- C39&#45;&gt;C309 -->
<g id="edge79" class="edge"><title>C39&#45;&gt;C309</title>
<path style="fill:none;stroke:black;" d="M329,-516C328,-517 327,-518 325,-519"/>
<polygon style="fill:black;stroke:black;" points="322.9,-516.2 317,-525 327.1,-521.8 322.9,-516.2"/>
</g>
<!-- C109&#45;&gt;C309 -->
<g id="edge81" class="edge"><title>C109&#45;&gt;C309</title>
<path style="fill:none;stroke:black;" d="M307,-454C304,-471 300,-496 296,-515"/>
<polygon style="fill:black;stroke:black;" points="292.529,-514.508 294,-525 299.393,-515.881 292.529,-514.508"/>
</g>
<!-- VEH10 -->
<g id="node79" class="node"><title>VEH10</title>
<text text-anchor="middle" x="627" y="-656.6" style="font-family:Times New Roman;font-size:16.00;">VEH</text>
</g>
<!-- C1010 -->
<g id="node81" class="node"><title>C1010</title>
<text text-anchor="middle" x="690" y="-611.6" style="font-family:Times New Roman;font-size:16.00;">C10</text>
</g>
<!-- VEH10&#45;&gt;C1010 -->
<g id="edge84" class="edge"><title>VEH10&#45;&gt;C1010</title>
<path style="fill:none;stroke:black;" d="M652,-643C653,-642 655,-641 656,-640"/>
<polygon style="fill:black;stroke:black;" points="658.1,-642.8 664,-634 653.9,-637.2 658.1,-642.8"/>
</g>
<!-- C3010 -->
<g id="node82" class="node"><title>C3010</title>
<text text-anchor="middle" x="671" y="-718.6" style="font-family:Times New Roman;font-size:16.00;">C30</text>
</g>
<!-- VEH10&#45;&gt;C3010 -->
<g id="edge86" class="edge"><title>VEH10&#45;&gt;C3010</title>
<path style="fill:none;stroke:black;" d="M640,-679C644,-684 648,-691 652,-697"/>
<polygon style="fill:black;stroke:black;" points="649.2,-699.1 658,-705 654.8,-694.9 649.2,-699.1"/>
</g>
<!-- C310 -->
<g id="node80" class="node"><title>C310</title>
<text text-anchor="middle" x="734" y="-673.6" style="font-family:Times New Roman;font-size:16.00;">C3</text>
</g>
<!-- C310&#45;&gt;VEH10 -->
<g id="edge88" class="edge"><title>C310&#45;&gt;VEH10</title>
<path style="fill:none;stroke:black;" d="M707,-674C694,-672 678,-669 664,-667"/>
<polygon style="fill:black;stroke:black;" points="664.299,-663.512 654,-666 663.602,-670.478 664.299,-663.512"/>
</g>
<!-- C310&#45;&gt;C1010 -->
<g id="edge90" class="edge"><title>C310&#45;&gt;C1010</title>
<path style="fill:none;stroke:black;" d="M721,-660C717,-655 713,-648 709,-642"/>
<polygon style="fill:black;stroke:black;" points="711.8,-639.9 703,-634 706.2,-644.1 711.8,-639.9"/>
</g>
<!-- C310&#45;&gt;C3010 -->
<g id="edge92" class="edge"><title>C310&#45;&gt;C3010</title>
<path style="fill:none;stroke:black;" d="M709,-696C708,-697 707,-698 705,-699"/>
<polygon style="fill:black;stroke:black;" points="702.9,-696.2 697,-705 707.1,-701.8 702.9,-696.2"/>
</g>
<!-- C3010&#45;&gt;C1010 -->
<g id="edge94" class="edge"><title>C3010&#45;&gt;C1010</title>
<path style="fill:none;stroke:black;" d="M674,-705C677,-688 681,-663 685,-644"/>
<polygon style="fill:black;stroke:black;" points="688.471,-644.492 687,-634 681.607,-643.119 688.471,-644.492"/>
</g>
<!-- VEH11 -->
<g id="node90" class="node"><title>VEH11</title>
<text text-anchor="middle" x="346" y="-77.6" style="font-family:Times New Roman;font-size:16.00;">VEH</text>
</g>
<!-- C3011 -->
<g id="node93" class="node"><title>C3011</title>
<text text-anchor="middle" x="393" y="-136.6" style="font-family:Times New Roman;font-size:16.00;">C30</text>
</g>
<!-- VEH11&#45;&gt;C3011 -->
<g id="edge97" class="edge"><title>VEH11&#45;&gt;C3011</title>
<path style="fill:none;stroke:black;" d="M360,-100C364,-105 368,-110 373,-115"/>
<polygon style="fill:black;stroke:black;" points="370.2,-117.1 379,-123 375.8,-112.9 370.2,-117.1"/>
</g>
<!-- C311 -->
<g id="node91" class="node"><title>C311</title>
<text text-anchor="middle" x="459" y="-95.6" style="font-family:Times New Roman;font-size:16.00;">C3</text>
</g>
<!-- C311&#45;&gt;VEH11 -->
<g id="edge99" class="edge"><title>C311&#45;&gt;VEH11</title>
<path style="fill:none;stroke:black;" d="M432,-96C417,-94 399,-90 383,-88"/>
<polygon style="fill:black;stroke:black;" points="383.492,-84.5292 373,-86 382.119,-91.3933 383.492,-84.5292"/>
</g>
<!-- C1011 -->
<g id="node92" class="node"><title>C1011</title>
<text text-anchor="middle" x="432" y="-31.6" style="font-family:Times New Roman;font-size:16.00;">C10</text>
</g>
<!-- C311&#45;&gt;C1011 -->
<g id="edge101" class="edge"><title>C311&#45;&gt;C1011</title>
<path style="fill:none;stroke:black;" d="M451,-82C448,-76 446,-70 443,-64"/>
<polygon style="fill:black;stroke:black;" points="445.964,-61.9849 439,-54 439.464,-64.5847 445.964,-61.9849"/>
</g>
<!-- C311&#45;&gt;C3011 -->
<g id="edge103" class="edge"><title>C311&#45;&gt;C3011</title>
<path style="fill:none;stroke:black;" d="M432,-117C431,-118 430,-118 429,-119"/>
<polygon style="fill:black;stroke:black;" points="427.042,-116.084 420,-124 430.441,-122.203 427.042,-116.084"/>
</g>
<!-- C1011&#45;&gt;C3011 -->
<g id="edge105" class="edge"><title>C1011&#45;&gt;C3011</title>
<path style="fill:none;stroke:black;" d="M425,-54C419,-70 410,-95 403,-114"/>
<polygon style="fill:black;stroke:black;" points="399.842,-112.406 400,-123 406.483,-114.62 399.842,-112.406"/>
</g>
<!-- VEH12 -->
<g id="node100" class="node"><title>VEH12</title>
<text text-anchor="middle" x="546" y="-62.6" style="font-family:Times New Roman;font-size:16.00;">VEH</text>
</g>
<!-- C312 -->
<g id="node101" class="node"><title>C312</title>
<text text-anchor="middle" x="609" y="-76.6" style="font-family:Times New Roman;font-size:16.00;">C3</text>
</g>
<!-- C312&#45;&gt;VEH12 -->
<g id="edge108" class="edge"><title>C312&#45;&gt;VEH12</title>
<path style="fill:none;stroke:black;" d="M582,-75C582,-75 582,-75 582,-75"/>
<polygon style="fill:black;stroke:black;" points="583.521,-71.7527 573,-73 582.003,-78.586 583.521,-71.7527"/>
</g>
<!-- C1012 -->
<g id="node102" class="node"><title>C1012</title>
<text text-anchor="middle" x="678" y="-51.6" style="font-family:Times New Roman;font-size:16.00;">C10</text>
</g>
<!-- C312&#45;&gt;C1012 -->
<g id="edge110" class="edge"><title>C312&#45;&gt;C1012</title>
<path style="fill:none;stroke:black;" d="M636,-71C638,-70 639,-70 641,-69"/>
<polygon style="fill:black;stroke:black;" points="642.427,-72.2259 651,-66 640.416,-65.5212 642.427,-72.2259"/>
</g>
<!-- C3012 -->
<g id="node103" class="node"><title>C3012</title>
<text text-anchor="middle" x="660" y="-130.6" style="font-family:Times New Roman;font-size:16.00;">C30</text>
</g>
<!-- C312&#45;&gt;C3012 -->
<g id="edge112" class="edge"><title>C312&#45;&gt;C3012</title>
<path style="fill:none;stroke:black;" d="M626,-99C629,-103 632,-106 636,-110"/>
<polygon style="fill:black;stroke:black;" points="633.454,-112.404 643,-117 638.404,-107.454 633.454,-112.404"/>
</g>
<!-- C3012&#45;&gt;C1012 -->
<g id="edge114" class="edge"><title>C3012&#45;&gt;C1012</title>
<path style="fill:none;stroke:black;" d="M664,-117C666,-107 669,-95 672,-84"/>
<polygon style="fill:black;stroke:black;" points="675.471,-84.4922 674,-74 668.607,-83.1194 675.471,-84.4922"/>
</g>
<!-- VEH13 -->
<g id="node109" class="node"><title>VEH13</title>
<text text-anchor="middle" x="47" y="-376.6" style="font-family:Times New Roman;font-size:16.00;">VEH</text>
</g>
<!-- C313 -->
<g id="node110" class="node"><title>C313</title>
<text text-anchor="middle" x="154" y="-393.6" style="font-family:Times New Roman;font-size:16.00;">C3</text>
</g>
<!-- C313&#45;&gt;VEH13 -->
<g id="edge117" class="edge"><title>C313&#45;&gt;VEH13</title>
<path style="fill:none;stroke:black;" d="M127,-394C114,-392 98,-389 84,-387"/>
<polygon style="fill:black;stroke:black;" points="84.2987,-383.512 74,-386 83.6021,-390.478 84.2987,-383.512"/>
</g>
<!-- C1013 -->
<g id="node111" class="node"><title>C1013</title>
<text text-anchor="middle" x="110" y="-331.6" style="font-family:Times New Roman;font-size:16.00;">C10</text>
</g>
<!-- C313&#45;&gt;C1013 -->
<g id="edge119" class="edge"><title>C313&#45;&gt;C1013</title>
<path style="fill:none;stroke:black;" d="M141,-380C137,-375 133,-368 129,-362"/>
<polygon style="fill:black;stroke:black;" points="131.8,-359.9 123,-354 126.2,-364.1 131.8,-359.9"/>
</g>
<!-- C3013 -->
<g id="node112" class="node"><title>C3013</title>
<text text-anchor="middle" x="91" y="-438.6" style="font-family:Times New Roman;font-size:16.00;">C30</text>
</g>
<!-- C313&#45;&gt;C3013 -->
<g id="edge121" class="edge"><title>C313&#45;&gt;C3013</title>
<path style="fill:none;stroke:black;" d="M129,-416C128,-417 127,-418 125,-419"/>
<polygon style="fill:black;stroke:black;" points="122.9,-416.2 117,-425 127.1,-421.8 122.9,-416.2"/>
</g>
<!-- C1013&#45;&gt;VEH13 -->
<g id="edge123" class="edge"><title>C1013&#45;&gt;VEH13</title>
<path style="fill:none;stroke:black;" d="M85,-354C84,-355 83,-356 81,-357"/>
<polygon style="fill:black;stroke:black;" points="78.9,-354.2 73,-363 83.1,-359.8 78.9,-354.2"/>
</g>
<!-- C1013&#45;&gt;C3013 -->
<g id="edge125" class="edge"><title>C1013&#45;&gt;C3013</title>
<path style="fill:none;stroke:black;" d="M107,-354C104,-371 100,-396 96,-415"/>
<polygon style="fill:black;stroke:black;" points="92.5292,-414.508 94,-425 99.3933,-415.881 92.5292,-414.508"/>
</g>
<!-- C3013&#45;&gt;VEH13 -->
<g id="edge127" class="edge"><title>C3013&#45;&gt;VEH13</title>
<path style="fill:none;stroke:black;" d="M78,-425C74,-420 70,-413 66,-407"/>
<polygon style="fill:black;stroke:black;" points="68.8,-404.9 60,-399 63.2,-409.1 68.8,-404.9"/>
</g>
</g>
</svg>
