<?xml version="1.0" encoding="UTF-8" standalone="no"?>
<!DOCTYPE svg PUBLIC "-//W3C//DTD SVG 1.0//EN"
 "http://www.w3.org/TR/2001/REC-SVG-20010904/DTD/svg10.dtd" [
 <!ATTLIST svg xmlns:xlink CDATA #FIXED "http://www.w3.org/1999/xlink">
]>
<!-- Generated by Graphviz version 2.20.2 (Tue Mar &#160;2 20:02:18 UTC 2010)
     For user: (nsvo) Nam Sy Vo,,, -->
<!-- Title: FirstlevelCluster Pages: 1 -->
<svg width="568pt" height="440pt"
 viewBox="0.00 0.00 568.00 440.00" xmlns="http://www.w3.org/2000/svg" xmlns:xlink="http://www.w3.org/1999/xlink">
<g id="graph0" class="graph" transform="scale(1 1) rotate(0) translate(4 436)">
<title>FirstlevelCluster</title>
<polygon style="fill:white;stroke:white;" points="-4,4 -4,-436 564,-436 564,4 -4,4"/>
<g id="cluster2" class="cluster"><title>cluster_0</title>
<polygon style="fill:none;stroke:black;" points="1,-0 1,-423 559,-423 559,-0 1,-0"/>
<text text-anchor="middle" x="280" y="-406.9" style="font-family:Times New Roman;font-size:14.00;">&gt;C3</text>
</g>
<g id="cluster3" class="cluster"><title>cluster_2</title>
<polygon style="fill:lightgrey;stroke:black;" points="170,-9 170,-185 364,-185 364,-9 170,-9"/>
<text text-anchor="middle" x="267" y="-168.9" style="font-family:Times New Roman;font-size:14.00;">011221</text>
</g>
<g id="cluster4" class="cluster"><title>cluster_3</title>
<polygon style="fill:lightgrey;stroke:black;" points="370,-9 370,-195 550,-195 550,-9 370,-9"/>
<text text-anchor="middle" x="460" y="-178.9" style="font-family:Times New Roman;font-size:14.00;">000220</text>
</g>
<g id="cluster5" class="cluster"><title>cluster_4</title>
<polygon style="fill:lightgrey;stroke:black;" points="370,-209 370,-389 548,-389 548,-209 370,-209"/>
<text text-anchor="middle" x="459" y="-372.9" style="font-family:Times New Roman;font-size:14.00;">021220</text>
</g>
<g id="cluster6" class="cluster"><title>cluster_5</title>
<polygon style="fill:none;stroke:black;" points="150,-229 150,-387 354,-387 354,-229 150,-229"/>
<text text-anchor="middle" x="252" y="-370.9" style="font-family:Times New Roman;font-size:14.00;">011220</text>
</g>
<g id="cluster7" class="cluster"><title>cluster_6</title>
<polygon style="fill:none;stroke:black;" points="10,-28 10,-205 153,-205 153,-28 10,-28"/>
<text text-anchor="middle" x="81" y="-188.9" style="font-family:Times New Roman;font-size:14.00;">021221</text>
</g>
<!-- VEH2 -->
<g id="node3" class="node"><title>VEH2</title>
<text text-anchor="middle" x="206" y="-62.6" style="font-family:Times New Roman;font-size:16.00;">VEH</text>
</g>
<!-- C32 -->
<g id="node4" class="node"><title>C32</title>
<text text-anchor="middle" x="272" y="-79.6" style="font-family:Times New Roman;font-size:16.00;">C3</text>
</g>
<!-- VEH2&#45;&gt;C32 -->
<g id="edge4" class="edge"><title>VEH2&#45;&gt;C32</title>
<path style="fill:none;stroke:black;" d="M233,-74C234,-74 235,-74 235,-75"/>
<polygon style="fill:black;stroke:black;" points="234.508,-78.4708 245,-77 235.881,-71.6067 234.508,-78.4708"/>
</g>
<!-- C102 -->
<g id="node5" class="node"><title>C102</title>
<text text-anchor="middle" x="328" y="-31.6" style="font-family:Times New Roman;font-size:16.00;">C10</text>
</g>
<!-- C102&#45;&gt;C32 -->
<g id="edge6" class="edge"><title>C102&#45;&gt;C32</title>
<path style="fill:none;stroke:black;" d="M307,-54C305,-56 303,-58 301,-60"/>
<polygon style="fill:black;stroke:black;" points="298.9,-57.2 293,-66 303.1,-62.8 298.9,-57.2"/>
</g>
<!-- C302 -->
<g id="node6" class="node"><title>C302</title>
<text text-anchor="middle" x="298" y="-128.6" style="font-family:Times New Roman;font-size:16.00;">C30</text>
</g>
<!-- C302&#45;&gt;C32 -->
<g id="edge8" class="edge"><title>C302&#45;&gt;C32</title>
<path style="fill:none;stroke:black;" d="M288,-115C287,-114 287,-113 286,-111"/>
<polygon style="fill:black;stroke:black;" points="289.26,-109.717 282,-102 282.863,-112.56 289.26,-109.717"/>
</g>
<!-- VEH3 -->
<g id="node11" class="node"><title>VEH3</title>
<text text-anchor="middle" x="407" y="-76.6" style="font-family:Times New Roman;font-size:16.00;">VEH</text>
</g>
<!-- C33 -->
<g id="node12" class="node"><title>C33</title>
<text text-anchor="middle" x="514" y="-93.6" style="font-family:Times New Roman;font-size:16.00;">C3</text>
</g>
<!-- VEH3&#45;&gt;C33 -->
<g id="edge11" class="edge"><title>VEH3&#45;&gt;C33</title>
<path style="fill:none;stroke:black;" d="M434,-85C447,-87 463,-90 477,-92"/>
<polygon style="fill:black;stroke:black;" points="476.701,-95.4875 487,-93 477.398,-88.5222 476.701,-95.4875"/>
</g>
<!-- C103 -->
<g id="node13" class="node"><title>C103</title>
<text text-anchor="middle" x="470" y="-31.6" style="font-family:Times New Roman;font-size:16.00;">C10</text>
</g>
<!-- VEH3&#45;&gt;C103 -->
<g id="edge13" class="edge"><title>VEH3&#45;&gt;C103</title>
<path style="fill:none;stroke:black;" d="M432,-63C433,-62 435,-61 436,-60"/>
<polygon style="fill:black;stroke:black;" points="438.1,-62.8 444,-54 433.9,-57.2 438.1,-62.8"/>
</g>
<!-- C303 -->
<g id="node14" class="node"><title>C303</title>
<text text-anchor="middle" x="451" y="-138.6" style="font-family:Times New Roman;font-size:16.00;">C30</text>
</g>
<!-- VEH3&#45;&gt;C303 -->
<g id="edge15" class="edge"><title>VEH3&#45;&gt;C303</title>
<path style="fill:none;stroke:black;" d="M420,-99C424,-104 428,-111 432,-117"/>
<polygon style="fill:black;stroke:black;" points="429.2,-119.1 438,-125 434.8,-114.9 429.2,-119.1"/>
</g>
<!-- C103&#45;&gt;C33 -->
<g id="edge17" class="edge"><title>C103&#45;&gt;C33</title>
<path style="fill:none;stroke:black;" d="M483,-54C487,-59 491,-66 495,-72"/>
<polygon style="fill:black;stroke:black;" points="492.2,-74.1 501,-80 497.8,-69.9 492.2,-74.1"/>
</g>
<!-- C103&#45;&gt;C303 -->
<g id="edge19" class="edge"><title>C103&#45;&gt;C303</title>
<path style="fill:none;stroke:black;" d="M467,-54C464,-71 460,-96 456,-115"/>
<polygon style="fill:black;stroke:black;" points="452.529,-114.508 454,-125 459.393,-115.881 452.529,-114.508"/>
</g>
<!-- C303&#45;&gt;C33 -->
<g id="edge21" class="edge"><title>C303&#45;&gt;C33</title>
<path style="fill:none;stroke:black;" d="M476,-125C477,-124 479,-123 480,-122"/>
<polygon style="fill:black;stroke:black;" points="482.1,-124.8 488,-116 477.9,-119.2 482.1,-124.8"/>
</g>
<!-- VEH4 -->
<g id="node22" class="node"><title>VEH4</title>
<text text-anchor="middle" x="406" y="-263.6" style="font-family:Times New Roman;font-size:16.00;">VEH</text>
</g>
<!-- C34 -->
<g id="node23" class="node"><title>C34</title>
<text text-anchor="middle" x="512" y="-283.6" style="font-family:Times New Roman;font-size:16.00;">C3</text>
</g>
<!-- VEH4&#45;&gt;C34 -->
<g id="edge24" class="edge"><title>VEH4&#45;&gt;C34</title>
<path style="fill:none;stroke:black;" d="M433,-273C446,-275 461,-278 475,-281"/>
<polygon style="fill:black;stroke:black;" points="474.508,-284.471 485,-283 475.881,-277.607 474.508,-284.471"/>
</g>
<!-- C104 -->
<g id="node24" class="node"><title>C104</title>
<text text-anchor="middle" x="474" y="-231.6" style="font-family:Times New Roman;font-size:16.00;">C10</text>
</g>
<!-- C104&#45;&gt;VEH4 -->
<g id="edge26" class="edge"><title>C104&#45;&gt;VEH4</title>
<path style="fill:none;stroke:black;" d="M447,-249C445,-250 444,-250 442,-251"/>
<polygon style="fill:black;stroke:black;" points="440.042,-248.084 433,-256 443.441,-254.203 440.042,-248.084"/>
</g>
<!-- C104&#45;&gt;C34 -->
<g id="edge28" class="edge"><title>C104&#45;&gt;C34</title>
<path style="fill:none;stroke:black;" d="M487,-254C489,-256 491,-259 493,-262"/>
<polygon style="fill:black;stroke:black;" points="490.2,-264.1 499,-270 495.8,-259.9 490.2,-264.1"/>
</g>
<!-- C304 -->
<g id="node25" class="node"><title>C304</title>
<text text-anchor="middle" x="459" y="-332.6" style="font-family:Times New Roman;font-size:16.00;">C30</text>
</g>
<!-- C104&#45;&gt;C304 -->
<g id="edge30" class="edge"><title>C104&#45;&gt;C304</title>
<path style="fill:none;stroke:black;" d="M471,-254C468,-269 465,-291 463,-309"/>
<polygon style="fill:black;stroke:black;" points="459.512,-308.701 462,-319 466.478,-309.398 459.512,-308.701"/>
</g>
<!-- C304&#45;&gt;C34 -->
<g id="edge32" class="edge"><title>C304&#45;&gt;C34</title>
<path style="fill:none;stroke:black;" d="M479,-319C481,-317 483,-315 485,-313"/>
<polygon style="fill:black;stroke:black;" points="487.779,-315.219 493,-306 483.169,-309.951 487.779,-315.219"/>
</g>
<!-- VEH5 -->
<g id="node32" class="node"><title>VEH5</title>
<text text-anchor="middle" x="186" y="-262.6" style="font-family:Times New Roman;font-size:16.00;">VEH</text>
</g>
<!-- C35 -->
<g id="node33" class="node"><title>C35</title>
<text text-anchor="middle" x="249" y="-276.6" style="font-family:Times New Roman;font-size:16.00;">C3</text>
</g>
<!-- VEH5&#45;&gt;C35 -->
<g id="edge35" class="edge"><title>VEH5&#45;&gt;C35</title>
<path style="fill:none;stroke:black;" d="M213,-273C213,-273 213,-273 213,-273"/>
<polygon style="fill:black;stroke:black;" points="211.479,-276.247 222,-275 212.997,-269.414 211.479,-276.247"/>
</g>
<!-- C105 -->
<g id="node34" class="node"><title>C105</title>
<text text-anchor="middle" x="318" y="-251.6" style="font-family:Times New Roman;font-size:16.00;">C10</text>
</g>
<!-- C105&#45;&gt;C35 -->
<g id="edge37" class="edge"><title>C105&#45;&gt;C35</title>
<path style="fill:none;stroke:black;" d="M291,-266C289,-267 288,-267 286,-268"/>
<polygon style="fill:black;stroke:black;" points="284.573,-264.774 276,-271 286.584,-271.479 284.573,-264.774"/>
</g>
<!-- C305 -->
<g id="node35" class="node"><title>C305</title>
<text text-anchor="middle" x="300" y="-330.6" style="font-family:Times New Roman;font-size:16.00;">C30</text>
</g>
<!-- C105&#45;&gt;C305 -->
<g id="edge39" class="edge"><title>C105&#45;&gt;C305</title>
<path style="fill:none;stroke:black;" d="M314,-274C312,-284 309,-296 306,-307"/>
<polygon style="fill:black;stroke:black;" points="302.529,-306.508 304,-317 309.393,-307.881 302.529,-306.508"/>
</g>
<!-- C305&#45;&gt;C35 -->
<g id="edge41" class="edge"><title>C305&#45;&gt;C35</title>
<path style="fill:none;stroke:black;" d="M283,-317C280,-313 277,-310 273,-306"/>
<polygon style="fill:black;stroke:black;" points="275.546,-303.596 266,-299 270.596,-308.546 275.546,-303.596"/>
</g>
<!-- VEH6 -->
<g id="node41" class="node"><title>VEH6</title>
<text text-anchor="middle" x="46" y="-111.6" style="font-family:Times New Roman;font-size:16.00;">VEH</text>
</g>
<!-- C36 -->
<g id="node42" class="node"><title>C36</title>
<text text-anchor="middle" x="114" y="-99.6" style="font-family:Times New Roman;font-size:16.00;">C3</text>
</g>
<!-- VEH6&#45;&gt;C36 -->
<g id="edge44" class="edge"><title>VEH6&#45;&gt;C36</title>
<path style="fill:none;stroke:black;" d="M73,-111C74,-111 76,-110 77,-110"/>
<polygon style="fill:black;stroke:black;" points="77.3979,-113.478 87,-109 76.7013,-106.512 77.3979,-113.478"/>
</g>
<!-- C106 -->
<g id="node43" class="node"><title>C106</title>
<text text-anchor="middle" x="66" y="-50.6" style="font-family:Times New Roman;font-size:16.00;">C10</text>
</g>
<!-- C106&#45;&gt;VEH6 -->
<g id="edge46" class="edge"><title>C106&#45;&gt;VEH6</title>
<path style="fill:none;stroke:black;" d="M60,-73C58,-78 56,-83 55,-88"/>
<polygon style="fill:black;stroke:black;" points="51.5212,-87.416 52,-98 58.2259,-89.4275 51.5212,-87.416"/>
</g>
<!-- C106&#45;&gt;C36 -->
<g id="edge48" class="edge"><title>C106&#45;&gt;C36</title>
<path style="fill:none;stroke:black;" d="M84,-73C86,-75 88,-77 90,-79"/>
<polygon style="fill:black;stroke:black;" points="87.454,-81.4038 97,-86 92.4038,-76.454 87.454,-81.4038"/>
</g>
<!-- C306 -->
<g id="node44" class="node"><title>C306</title>
<text text-anchor="middle" x="117" y="-148.6" style="font-family:Times New Roman;font-size:16.00;">C30</text>
</g>
<!-- C306&#45;&gt;C36 -->
<g id="edge50" class="edge"><title>C306&#45;&gt;C36</title>
<path style="fill:none;stroke:black;" d="M116,-135C116,-134 116,-133 116,-132"/>
<polygon style="fill:black;stroke:black;" points="119.478,-131.602 115,-122 112.512,-132.299 119.478,-131.602"/>
</g>
</g>
</svg>
