<?xml version="1.0" encoding="UTF-8" standalone="no"?>
<!DOCTYPE svg PUBLIC "-//W3C//DTD SVG 1.0//EN"
 "http://www.w3.org/TR/2001/REC-SVG-20010904/DTD/svg10.dtd" [
 <!ATTLIST svg xmlns:xlink CDATA #FIXED "http://www.w3.org/1999/xlink">
]>
<!-- Generated by Graphviz version 2.20.2 (Tue Mar &#160;2 20:02:18 UTC 2010)
     For user: (nsvo) Nam Sy Vo,,, -->
<!-- Title: FirstlevelCluster Pages: 1 -->
<svg width="192pt" height="242pt"
 viewBox="0.00 0.00 192.00 242.00" xmlns="http://www.w3.org/2000/svg" xmlns:xlink="http://www.w3.org/1999/xlink">
<g id="graph0" class="graph" transform="scale(1 1) rotate(0) translate(4 238)">
<title>FirstlevelCluster</title>
<polygon style="fill:white;stroke:white;" points="-4,4 -4,-238 188,-238 188,4 -4,4"/>
<g id="cluster2" class="cluster"><title>cluster_0</title>
<polygon style="fill:none;stroke:black;" points="1,-0 1,-225 183,-225 183,-0 1,-0"/>
<text text-anchor="middle" x="92" y="-208.9" style="font-family:Times New Roman;font-size:14.00;">VEH~C3~C10&gt;</text>
</g>
<g id="cluster3" class="cluster"><title>cluster_2</title>
<polygon style="fill:lightgrey;stroke:black;" points="10,-9 10,-191 174,-191 174,-9 10,-9"/>
<text text-anchor="middle" x="92" y="-174.9" style="font-family:Times New Roman;font-size:14.00;">110100</text>
</g>
<!-- VEH2 -->
<g id="node3" class="node"><title>VEH2</title>
<text text-anchor="middle" x="46" y="-131.6" style="font-family:Times New Roman;font-size:16.00;">VEH</text>
</g>
<!-- C302 -->
<g id="node6" class="node"><title>C302</title>
<text text-anchor="middle" x="93" y="-83.6" style="font-family:Times New Roman;font-size:16.00;">C30</text>
</g>
<!-- VEH2&#45;&gt;C302 -->
<g id="edge4" class="edge"><title>VEH2&#45;&gt;C302</title>
<path style="fill:none;stroke:black;" d="M64,-118C65,-117 67,-115 68,-114"/>
<polygon style="fill:black;stroke:black;" points="71.0489,-115.831 75,-106 65.7809,-111.221 71.0489,-115.831"/>
</g>
<!-- C32 -->
<g id="node4" class="node"><title>C32</title>
<text text-anchor="middle" x="139" y="-133.6" style="font-family:Times New Roman;font-size:16.00;">C3</text>
</g>
<!-- C32&#45;&gt;C302 -->
<g id="edge6" class="edge"><title>C32&#45;&gt;C302</title>
<path style="fill:none;stroke:black;" d="M122,-120C120,-118 118,-116 116,-114"/>
<polygon style="fill:black;stroke:black;" points="118.219,-111.221 109,-106 112.951,-115.831 118.219,-111.221"/>
</g>
<!-- C102 -->
<g id="node5" class="node"><title>C102</title>
<text text-anchor="middle" x="109" y="-31.6" style="font-family:Times New Roman;font-size:16.00;">C10</text>
</g>
<!-- C102&#45;&gt;C302 -->
<g id="edge8" class="edge"><title>C102&#45;&gt;C302</title>
<path style="fill:none;stroke:black;" d="M103,-54C103,-56 102,-58 101,-60"/>
<polygon style="fill:black;stroke:black;" points="97.5212,-59.416 98,-70 104.226,-61.4275 97.5212,-59.416"/>
</g>
</g>
</svg>
