<?xml version="1.0" encoding="UTF-8" standalone="no"?>
<!DOCTYPE svg PUBLIC "-//W3C//DTD SVG 1.0//EN"
 "http://www.w3.org/TR/2001/REC-SVG-20010904/DTD/svg10.dtd" [
 <!ATTLIST svg xmlns:xlink CDATA #FIXED "http://www.w3.org/1999/xlink">
]>
<!-- Generated by Graphviz version 2.20.2 (Tue Mar &#160;2 20:02:18 UTC 2010)
     For user: (nsvo) Nam Sy Vo,,, -->
<!-- Title: FirstlevelCluster Pages: 1 -->
<svg width="204pt" height="254pt"
 viewBox="0.00 0.00 204.00 254.00" xmlns="http://www.w3.org/2000/svg" xmlns:xlink="http://www.w3.org/1999/xlink">
<g id="graph0" class="graph" transform="scale(1 1) rotate(0) translate(4 250)">
<title>FirstlevelCluster</title>
<polygon style="fill:white;stroke:white;" points="-4,4 -4,-250 200,-250 200,4 -4,4"/>
<g id="cluster2" class="cluster"><title>cluster_0</title>
<polygon style="fill:none;stroke:black;" points="1,-0 1,-237 195,-237 195,-0 1,-0"/>
<text text-anchor="middle" x="98" y="-220.9" style="font-family:Times New Roman;font-size:14.00;">&gt;VEH~C3~C30</text>
</g>
<g id="cluster3" class="cluster"><title>cluster_2</title>
<polygon style="fill:lightgrey;stroke:black;" points="10,-9 10,-203 187,-203 187,-9 10,-9"/>
<text text-anchor="middle" x="98" y="-186.9" style="font-family:Times New Roman;font-size:14.00;">121210</text>
</g>
<!-- VEH2 -->
<g id="node3" class="node"><title>VEH2</title>
<text text-anchor="middle" x="46" y="-31.6" style="font-family:Times New Roman;font-size:16.00;">VEH</text>
</g>
<!-- C32 -->
<g id="node4" class="node"><title>C32</title>
<text text-anchor="middle" x="151" y="-43.6" style="font-family:Times New Roman;font-size:16.00;">C3</text>
</g>
<!-- C102 -->
<g id="node5" class="node"><title>C102</title>
<text text-anchor="middle" x="92" y="-93.6" style="font-family:Times New Roman;font-size:16.00;">C10</text>
</g>
<!-- C102&#45;&gt;VEH2 -->
<g id="edge4" class="edge"><title>C102&#45;&gt;VEH2</title>
<path style="fill:none;stroke:black;" d="M78,-80C74,-75 69,-68 65,-62"/>
<polygon style="fill:black;stroke:black;" points="68.268,-60.625 60,-54 62.332,-64.335 68.268,-60.625"/>
</g>
<!-- C102&#45;&gt;C32 -->
<g id="edge6" class="edge"><title>C102&#45;&gt;C32</title>
<path style="fill:none;stroke:black;" d="M113,-80C116,-78 119,-75 122,-72"/>
<polygon style="fill:black;stroke:black;" points="124.1,-74.8 130,-66 119.9,-69.2 124.1,-74.8"/>
</g>
<!-- C302 -->
<g id="node6" class="node"><title>C302</title>
<text text-anchor="middle" x="85" y="-146.6" style="font-family:Times New Roman;font-size:16.00;">C30</text>
</g>
<!-- C102&#45;&gt;C302 -->
<g id="edge8" class="edge"><title>C102&#45;&gt;C302</title>
<path style="fill:none;stroke:black;" d="M90,-116C90,-118 89,-121 89,-123"/>
<polygon style="fill:black;stroke:black;" points="85.5125,-122.701 88,-133 92.4778,-123.398 85.5125,-122.701"/>
</g>
</g>
</svg>
