<?xml version="1.0" encoding="UTF-8" standalone="no"?>
<!DOCTYPE svg PUBLIC "-//W3C//DTD SVG 1.0//EN"
 "http://www.w3.org/TR/2001/REC-SVG-20010904/DTD/svg10.dtd" [
 <!ATTLIST svg xmlns:xlink CDATA #FIXED "http://www.w3.org/1999/xlink">
]>
<!-- Generated by Graphviz version 2.20.2 (Tue Mar &#160;2 20:02:18 UTC 2010)
     For user: (nsvo) Nam Sy Vo,,, -->
<!-- Title: FirstlevelCluster Pages: 1 -->
<svg width="394pt" height="262pt"
 viewBox="0.00 0.00 394.00 262.00" xmlns="http://www.w3.org/2000/svg" xmlns:xlink="http://www.w3.org/1999/xlink">
<g id="graph0" class="graph" transform="scale(1 1) rotate(0) translate(4 258)">
<title>FirstlevelCluster</title>
<polygon style="fill:white;stroke:white;" points="-4,4 -4,-258 390,-258 390,4 -4,4"/>
<g id="cluster2" class="cluster"><title>cluster_0</title>
<polygon style="fill:none;stroke:black;" points="1,-1 1,-245 386,-245 386,-1 1,-1"/>
<text text-anchor="middle" x="193" y="-228.9" style="font-family:Times New Roman;font-size:14.00;">&gt;VEH~C30</text>
</g>
<g id="cluster3" class="cluster"><title>cluster_2</title>
<polygon style="fill:lightgrey;stroke:black;" points="10,-9 10,-197 192,-197 192,-9 10,-9"/>
<text text-anchor="middle" x="101" y="-180.9" style="font-family:Times New Roman;font-size:14.00;">221100</text>
</g>
<g id="cluster4" class="cluster"><title>cluster_3</title>
<polygon style="fill:lightgrey;stroke:black;" points="199,-30 199,-210 377,-210 377,-30 199,-30"/>
<text text-anchor="middle" x="288" y="-193.9" style="font-family:Times New Roman;font-size:14.00;">221200</text>
</g>
<!-- VEH2 -->
<g id="node3" class="node"><title>VEH2</title>
<text text-anchor="middle" x="46" y="-77.6" style="font-family:Times New Roman;font-size:16.00;">VEH</text>
</g>
<!-- C32 -->
<g id="node4" class="node"><title>C32</title>
<text text-anchor="middle" x="156" y="-95.6" style="font-family:Times New Roman;font-size:16.00;">C3</text>
</g>
<!-- C32&#45;&gt;VEH2 -->
<g id="edge4" class="edge"><title>C32&#45;&gt;VEH2</title>
<path style="fill:none;stroke:black;" d="M129,-96C115,-94 98,-90 83,-88"/>
<polygon style="fill:black;stroke:black;" points="83.4922,-84.5292 73,-86 82.1194,-91.3933 83.4922,-84.5292"/>
</g>
<!-- C302 -->
<g id="node6" class="node"><title>C302</title>
<text text-anchor="middle" x="90" y="-141.6" style="font-family:Times New Roman;font-size:16.00;">C30</text>
</g>
<!-- C32&#45;&gt;C302 -->
<g id="edge6" class="edge"><title>C32&#45;&gt;C302</title>
<path style="fill:none;stroke:black;" d="M130,-118C128,-119 126,-120 124,-122"/>
<polygon style="fill:black;stroke:black;" points="121.9,-119.2 116,-128 126.1,-124.8 121.9,-119.2"/>
</g>
<!-- C102 -->
<g id="node5" class="node"><title>C102</title>
<text text-anchor="middle" x="111" y="-31.6" style="font-family:Times New Roman;font-size:16.00;">C10</text>
</g>
<!-- C102&#45;&gt;VEH2 -->
<g id="edge8" class="edge"><title>C102&#45;&gt;VEH2</title>
<path style="fill:none;stroke:black;" d="M85,-54C83,-55 81,-57 79,-58"/>
<polygon style="fill:black;stroke:black;" points="76.9,-55.2 71,-64 81.1,-60.8 76.9,-55.2"/>
</g>
<!-- C102&#45;&gt;C302 -->
<g id="edge10" class="edge"><title>C102&#45;&gt;C302</title>
<path style="fill:none;stroke:black;" d="M108,-54C105,-71 100,-97 96,-118"/>
<polygon style="fill:black;stroke:black;" points="92.5292,-117.508 94,-128 99.3933,-118.881 92.5292,-117.508"/>
</g>
<!-- VEH3 -->
<g id="node12" class="node"><title>VEH3</title>
<text text-anchor="middle" x="235" y="-85.6" style="font-family:Times New Roman;font-size:16.00;">VEH</text>
</g>
<!-- C33 -->
<g id="node13" class="node"><title>C33</title>
<text text-anchor="middle" x="341" y="-105.6" style="font-family:Times New Roman;font-size:16.00;">C3</text>
</g>
<!-- C33&#45;&gt;VEH3 -->
<g id="edge13" class="edge"><title>C33&#45;&gt;VEH3</title>
<path style="fill:none;stroke:black;" d="M314,-105C301,-103 286,-100 272,-97"/>
<polygon style="fill:black;stroke:black;" points="272.492,-93.5292 262,-95 271.119,-100.393 272.492,-93.5292"/>
</g>
<!-- C303 -->
<g id="node15" class="node"><title>C303</title>
<text text-anchor="middle" x="288" y="-153.6" style="font-family:Times New Roman;font-size:16.00;">C30</text>
</g>
<!-- C33&#45;&gt;C303 -->
<g id="edge15" class="edge"><title>C33&#45;&gt;C303</title>
<path style="fill:none;stroke:black;" d="M321,-128C319,-130 318,-131 316,-133"/>
<polygon style="fill:black;stroke:black;" points="313.221,-130.781 308,-140 317.831,-136.049 313.221,-130.781"/>
</g>
<!-- C103 -->
<g id="node14" class="node"><title>C103</title>
<text text-anchor="middle" x="302" y="-52.6" style="font-family:Times New Roman;font-size:16.00;">C10</text>
</g>
<!-- C103&#45;&gt;VEH3 -->
<g id="edge17" class="edge"><title>C103&#45;&gt;VEH3</title>
<path style="fill:none;stroke:black;" d="M275,-70C274,-71 272,-71 271,-72"/>
<polygon style="fill:black;stroke:black;" points="269.042,-69.084 262,-77 272.441,-75.2031 269.042,-69.084"/>
</g>
<!-- C103&#45;&gt;C33 -->
<g id="edge19" class="edge"><title>C103&#45;&gt;C33</title>
<path style="fill:none;stroke:black;" d="M315,-75C317,-78 319,-81 321,-84"/>
<polygon style="fill:black;stroke:black;" points="318.2,-86.1 327,-92 323.8,-81.9 318.2,-86.1"/>
</g>
<!-- C103&#45;&gt;C303 -->
<g id="edge21" class="edge"><title>C103&#45;&gt;C303</title>
<path style="fill:none;stroke:black;" d="M299,-75C296,-90 294,-112 291,-130"/>
<polygon style="fill:black;stroke:black;" points="287.512,-129.701 290,-140 294.478,-130.398 287.512,-129.701"/>
</g>
</g>
</svg>
