<?xml version="1.0" encoding="UTF-8" standalone="no"?>
<!DOCTYPE svg PUBLIC "-//W3C//DTD SVG 1.0//EN"
 "http://www.w3.org/TR/2001/REC-SVG-20010904/DTD/svg10.dtd" [
 <!ATTLIST svg xmlns:xlink CDATA #FIXED "http://www.w3.org/1999/xlink">
]>
<!-- Generated by Graphviz version 2.20.2 (Tue Mar &#160;2 20:02:18 UTC 2010)
     For user: (nsvo) Nam Sy Vo,,, -->
<!-- Title: FirstlevelCluster Pages: 1 -->
<svg width="394pt" height="262pt"
 viewBox="0.00 0.00 394.00 262.00" xmlns="http://www.w3.org/2000/svg" xmlns:xlink="http://www.w3.org/1999/xlink">
<g id="graph0" class="graph" transform="scale(1 1) rotate(0) translate(4 258)">
<title>FirstlevelCluster</title>
<polygon style="fill:white;stroke:white;" points="-4,4 -4,-258 390,-258 390,4 -4,4"/>
<g id="cluster2" class="cluster"><title>cluster_0</title>
<polygon style="fill:none;stroke:black;" points="1,-1 1,-245 386,-245 386,-1 1,-1"/>
<text text-anchor="middle" x="193" y="-228.9" style="font-family:Times New Roman;font-size:14.00;">VEH~C30&gt;</text>
</g>
<g id="cluster3" class="cluster"><title>cluster_2</title>
<polygon style="fill:lightgrey;stroke:black;" points="10,-9 10,-197 192,-197 192,-9 10,-9"/>
<text text-anchor="middle" x="101" y="-180.9" style="font-family:Times New Roman;font-size:14.00;">001122</text>
</g>
<g id="cluster4" class="cluster"><title>cluster_3</title>
<polygon style="fill:lightgrey;stroke:black;" points="199,-30 199,-210 377,-210 377,-30 199,-30"/>
<text text-anchor="middle" x="288" y="-193.9" style="font-family:Times New Roman;font-size:14.00;">001022</text>
</g>
<!-- VEH2 -->
<g id="node3" class="node"><title>VEH2</title>
<text text-anchor="middle" x="46" y="-77.6" style="font-family:Times New Roman;font-size:16.00;">VEH</text>
</g>
<!-- C32 -->
<g id="node4" class="node"><title>C32</title>
<text text-anchor="middle" x="156" y="-95.6" style="font-family:Times New Roman;font-size:16.00;">C3</text>
</g>
<!-- VEH2&#45;&gt;C32 -->
<g id="edge4" class="edge"><title>VEH2&#45;&gt;C32</title>
<path style="fill:none;stroke:black;" d="M73,-86C87,-88 104,-92 119,-94"/>
<polygon style="fill:black;stroke:black;" points="118.508,-97.4708 129,-96 119.881,-90.6067 118.508,-97.4708"/>
</g>
<!-- C102 -->
<g id="node5" class="node"><title>C102</title>
<text text-anchor="middle" x="111" y="-31.6" style="font-family:Times New Roman;font-size:16.00;">C10</text>
</g>
<!-- VEH2&#45;&gt;C102 -->
<g id="edge6" class="edge"><title>VEH2&#45;&gt;C102</title>
<path style="fill:none;stroke:black;" d="M72,-64C74,-63 76,-61 78,-60"/>
<polygon style="fill:black;stroke:black;" points="80.1,-62.8 86,-54 75.9,-57.2 80.1,-62.8"/>
</g>
<!-- C302 -->
<g id="node6" class="node"><title>C302</title>
<text text-anchor="middle" x="90" y="-141.6" style="font-family:Times New Roman;font-size:16.00;">C30</text>
</g>
<!-- C302&#45;&gt;C32 -->
<g id="edge8" class="edge"><title>C302&#45;&gt;C32</title>
<path style="fill:none;stroke:black;" d="M116,-128C118,-127 120,-126 122,-124"/>
<polygon style="fill:black;stroke:black;" points="124.1,-126.8 130,-118 119.9,-121.2 124.1,-126.8"/>
</g>
<!-- C302&#45;&gt;C102 -->
<g id="edge10" class="edge"><title>C302&#45;&gt;C102</title>
<path style="fill:none;stroke:black;" d="M93,-128C96,-111 101,-85 105,-64"/>
<polygon style="fill:black;stroke:black;" points="108.471,-64.4922 107,-54 101.607,-63.1194 108.471,-64.4922"/>
</g>
<!-- VEH3 -->
<g id="node12" class="node"><title>VEH3</title>
<text text-anchor="middle" x="235" y="-85.6" style="font-family:Times New Roman;font-size:16.00;">VEH</text>
</g>
<!-- C33 -->
<g id="node13" class="node"><title>C33</title>
<text text-anchor="middle" x="341" y="-105.6" style="font-family:Times New Roman;font-size:16.00;">C3</text>
</g>
<!-- VEH3&#45;&gt;C33 -->
<g id="edge13" class="edge"><title>VEH3&#45;&gt;C33</title>
<path style="fill:none;stroke:black;" d="M262,-95C275,-97 290,-100 304,-103"/>
<polygon style="fill:black;stroke:black;" points="303.508,-106.471 314,-105 304.881,-99.6067 303.508,-106.471"/>
</g>
<!-- C103 -->
<g id="node14" class="node"><title>C103</title>
<text text-anchor="middle" x="302" y="-52.6" style="font-family:Times New Roman;font-size:16.00;">C10</text>
</g>
<!-- VEH3&#45;&gt;C103 -->
<g id="edge15" class="edge"><title>VEH3&#45;&gt;C103</title>
<path style="fill:none;stroke:black;" d="M262,-77C263,-76 265,-76 266,-75"/>
<polygon style="fill:black;stroke:black;" points="267.958,-77.916 275,-70 264.559,-71.7969 267.958,-77.916"/>
</g>
<!-- C33&#45;&gt;C103 -->
<g id="edge17" class="edge"><title>C33&#45;&gt;C103</title>
<path style="fill:none;stroke:black;" d="M328,-92C326,-89 324,-86 322,-83"/>
<polygon style="fill:black;stroke:black;" points="324.8,-80.9 316,-75 319.2,-85.1 324.8,-80.9"/>
</g>
<!-- C303 -->
<g id="node15" class="node"><title>C303</title>
<text text-anchor="middle" x="288" y="-153.6" style="font-family:Times New Roman;font-size:16.00;">C30</text>
</g>
<!-- C303&#45;&gt;C33 -->
<g id="edge19" class="edge"><title>C303&#45;&gt;C33</title>
<path style="fill:none;stroke:black;" d="M308,-140C310,-138 311,-137 313,-135"/>
<polygon style="fill:black;stroke:black;" points="315.779,-137.219 321,-128 311.169,-131.951 315.779,-137.219"/>
</g>
<!-- C303&#45;&gt;C103 -->
<g id="edge21" class="edge"><title>C303&#45;&gt;C103</title>
<path style="fill:none;stroke:black;" d="M291,-140C294,-125 296,-103 299,-85"/>
<polygon style="fill:black;stroke:black;" points="302.488,-85.2987 300,-75 295.522,-84.6021 302.488,-85.2987"/>
</g>
</g>
</svg>
