<?xml version="1.0" encoding="UTF-8" standalone="no"?>
<!DOCTYPE svg PUBLIC "-//W3C//DTD SVG 1.0//EN"
 "http://www.w3.org/TR/2001/REC-SVG-20010904/DTD/svg10.dtd" [
 <!ATTLIST svg xmlns:xlink CDATA #FIXED "http://www.w3.org/1999/xlink">
]>
<!-- Generated by Graphviz version 2.20.2 (Tue Mar &#160;2 20:02:18 UTC 2010)
     For user: (nsvo) Nam Sy Vo,,, -->
<!-- Title: FirstlevelCluster Pages: 1 -->
<svg width="394pt" height="396pt"
 viewBox="0.00 0.00 394.00 396.00" xmlns="http://www.w3.org/2000/svg" xmlns:xlink="http://www.w3.org/1999/xlink">
<g id="graph0" class="graph" transform="scale(1 1) rotate(0) translate(4 392)">
<title>FirstlevelCluster</title>
<polygon style="fill:white;stroke:white;" points="-4,4 -4,-392 390,-392 390,4 -4,4"/>
<g id="cluster2" class="cluster"><title>cluster_0</title>
<polygon style="fill:none;stroke:black;" points="1,-0 1,-379 385,-379 385,-0 1,-0"/>
<text text-anchor="middle" x="193" y="-362.9" style="font-family:Times New Roman;font-size:14.00;">&gt;VEH~C3</text>
</g>
<g id="cluster3" class="cluster"><title>cluster_2</title>
<polygon style="fill:lightgrey;stroke:black;" points="10,-9 10,-187 176,-187 176,-9 10,-9"/>
<text text-anchor="middle" x="93" y="-170.9" style="font-family:Times New Roman;font-size:14.00;">122221</text>
</g>
<g id="cluster4" class="cluster"><title>cluster_3</title>
<polygon style="fill:lightgrey;stroke:black;" points="190,-9 190,-165 377,-165 377,-9 190,-9"/>
<text text-anchor="middle" x="283" y="-148.9" style="font-family:Times New Roman;font-size:14.00;">122222</text>
</g>
<g id="cluster5" class="cluster"><title>cluster_4</title>
<polygon style="fill:lightgrey;stroke:black;" points="190,-189 190,-345 377,-345 377,-189 190,-189"/>
<text text-anchor="middle" x="283" y="-328.9" style="font-family:Times New Roman;font-size:14.00;">122220</text>
</g>
<!-- VEH2 -->
<g id="node3" class="node"><title>VEH2</title>
<text text-anchor="middle" x="46" y="-75.6" style="font-family:Times New Roman;font-size:16.00;">VEH</text>
</g>
<!-- C32 -->
<g id="node4" class="node"><title>C32</title>
<text text-anchor="middle" x="140" y="-85.6" style="font-family:Times New Roman;font-size:16.00;">C3</text>
</g>
<!-- C102 -->
<g id="node5" class="node"><title>C102</title>
<text text-anchor="middle" x="107" y="-31.6" style="font-family:Times New Roman;font-size:16.00;">C10</text>
</g>
<!-- C102&#45;&gt;VEH2 -->
<g id="edge4" class="edge"><title>C102&#45;&gt;VEH2</title>
<path style="fill:none;stroke:black;" d="M82,-54C81,-55 80,-55 79,-56"/>
<polygon style="fill:black;stroke:black;" points="76.9,-53.2 71,-62 81.1,-58.8 76.9,-53.2"/>
</g>
<!-- C102&#45;&gt;C32 -->
<g id="edge6" class="edge"><title>C102&#45;&gt;C32</title>
<path style="fill:none;stroke:black;" d="M118,-54C120,-57 122,-60 124,-63"/>
<polygon style="fill:black;stroke:black;" points="121.084,-64.9582 129,-72 127.203,-61.5586 121.084,-64.9582"/>
</g>
<!-- C302 -->
<g id="node6" class="node"><title>C302</title>
<text text-anchor="middle" x="79" y="-130.6" style="font-family:Times New Roman;font-size:16.00;">C30</text>
</g>
<!-- C302&#45;&gt;VEH2 -->
<g id="edge8" class="edge"><title>C302&#45;&gt;VEH2</title>
<path style="fill:none;stroke:black;" d="M68,-117C66,-114 64,-110 62,-107"/>
<polygon style="fill:black;stroke:black;" points="64.916,-105.042 57,-98 58.7969,-108.441 64.916,-105.042"/>
</g>
<!-- C302&#45;&gt;C32 -->
<g id="edge10" class="edge"><title>C302&#45;&gt;C32</title>
<path style="fill:none;stroke:black;" d="M103,-117C104,-116 106,-115 107,-114"/>
<polygon style="fill:black;stroke:black;" points="109.1,-116.8 115,-108 104.9,-111.2 109.1,-116.8"/>
</g>
<!-- VEH3 -->
<g id="node12" class="node"><title>VEH3</title>
<text text-anchor="middle" x="226" y="-59.6" style="font-family:Times New Roman;font-size:16.00;">VEH</text>
</g>
<!-- C33 -->
<g id="node13" class="node"><title>C33</title>
<text text-anchor="middle" x="341" y="-80.6" style="font-family:Times New Roman;font-size:16.00;">C3</text>
</g>
<!-- C103 -->
<g id="node14" class="node"><title>C103</title>
<text text-anchor="middle" x="291" y="-30.6" style="font-family:Times New Roman;font-size:16.00;">C10</text>
</g>
<!-- C103&#45;&gt;VEH3 -->
<g id="edge13" class="edge"><title>C103&#45;&gt;VEH3</title>
<path style="fill:none;stroke:black;" d="M264,-47C263,-47 263,-48 262,-48"/>
<polygon style="fill:black;stroke:black;" points="260.717,-44.7402 253,-52 263.56,-51.1369 260.717,-44.7402"/>
</g>
<!-- C103&#45;&gt;C33 -->
<g id="edge15" class="edge"><title>C103&#45;&gt;C33</title>
<path style="fill:none;stroke:black;" d="M309,-53C311,-55 313,-57 316,-60"/>
<polygon style="fill:black;stroke:black;" points="313.454,-62.4038 323,-67 318.404,-57.454 313.454,-62.4038"/>
</g>
<!-- C303 -->
<g id="node15" class="node"><title>C303</title>
<text text-anchor="middle" x="275" y="-108.6" style="font-family:Times New Roman;font-size:16.00;">C30</text>
</g>
<!-- C303&#45;&gt;VEH3 -->
<g id="edge17" class="edge"><title>C303&#45;&gt;VEH3</title>
<path style="fill:none;stroke:black;" d="M257,-95C255,-93 253,-91 251,-89"/>
<polygon style="fill:black;stroke:black;" points="253.546,-86.5962 244,-82 248.596,-91.546 253.546,-86.5962"/>
</g>
<!-- C303&#45;&gt;C33 -->
<g id="edge19" class="edge"><title>C303&#45;&gt;C33</title>
<path style="fill:none;stroke:black;" d="M302,-101C303,-101 304,-100 305,-100"/>
<polygon style="fill:black;stroke:black;" points="306.283,-103.26 314,-96 303.44,-96.8631 306.283,-103.26"/>
</g>
<!-- C303&#45;&gt;C103 -->
<g id="edge21" class="edge"><title>C303&#45;&gt;C103</title>
<path style="fill:none;stroke:black;" d="M279,-95C281,-85 283,-74 285,-63"/>
<polygon style="fill:black;stroke:black;" points="288.471,-63.4922 287,-53 281.607,-62.1194 288.471,-63.4922"/>
</g>
<!-- VEH4 -->
<g id="node22" class="node"><title>VEH4</title>
<text text-anchor="middle" x="226" y="-239.6" style="font-family:Times New Roman;font-size:16.00;">VEH</text>
</g>
<!-- C34 -->
<g id="node23" class="node"><title>C34</title>
<text text-anchor="middle" x="341" y="-260.6" style="font-family:Times New Roman;font-size:16.00;">C3</text>
</g>
<!-- C104 -->
<g id="node24" class="node"><title>C104</title>
<text text-anchor="middle" x="291" y="-210.6" style="font-family:Times New Roman;font-size:16.00;">C10</text>
</g>
<!-- C104&#45;&gt;VEH4 -->
<g id="edge24" class="edge"><title>C104&#45;&gt;VEH4</title>
<path style="fill:none;stroke:black;" d="M264,-227C263,-227 263,-228 262,-228"/>
<polygon style="fill:black;stroke:black;" points="260.717,-224.74 253,-232 263.56,-231.137 260.717,-224.74"/>
</g>
<!-- C104&#45;&gt;C34 -->
<g id="edge26" class="edge"><title>C104&#45;&gt;C34</title>
<path style="fill:none;stroke:black;" d="M309,-233C311,-235 313,-237 316,-240"/>
<polygon style="fill:black;stroke:black;" points="313.454,-242.404 323,-247 318.404,-237.454 313.454,-242.404"/>
</g>
<!-- C304 -->
<g id="node25" class="node"><title>C304</title>
<text text-anchor="middle" x="275" y="-288.6" style="font-family:Times New Roman;font-size:16.00;">C30</text>
</g>
<!-- C104&#45;&gt;C304 -->
<g id="edge28" class="edge"><title>C104&#45;&gt;C304</title>
<path style="fill:none;stroke:black;" d="M287,-233C285,-243 283,-254 281,-265"/>
<polygon style="fill:black;stroke:black;" points="277.529,-264.508 279,-275 284.393,-265.881 277.529,-264.508"/>
</g>
<!-- C304&#45;&gt;VEH4 -->
<g id="edge30" class="edge"><title>C304&#45;&gt;VEH4</title>
<path style="fill:none;stroke:black;" d="M257,-275C255,-273 253,-271 251,-269"/>
<polygon style="fill:black;stroke:black;" points="253.546,-266.596 244,-262 248.596,-271.546 253.546,-266.596"/>
</g>
<!-- C304&#45;&gt;C34 -->
<g id="edge32" class="edge"><title>C304&#45;&gt;C34</title>
<path style="fill:none;stroke:black;" d="M302,-281C303,-281 304,-280 305,-280"/>
<polygon style="fill:black;stroke:black;" points="306.283,-283.26 314,-276 303.44,-276.863 306.283,-283.26"/>
</g>
</g>
</svg>
