<?xml version="1.0" encoding="UTF-8" standalone="no"?>
<!DOCTYPE svg PUBLIC "-//W3C//DTD SVG 1.0//EN"
 "http://www.w3.org/TR/2001/REC-SVG-20010904/DTD/svg10.dtd" [
 <!ATTLIST svg xmlns:xlink CDATA #FIXED "http://www.w3.org/1999/xlink">
]>
<!-- Generated by Graphviz version 2.20.2 (Tue Mar &#160;2 20:02:18 UTC 2010)
     For user: (nsvo) Nam Sy Vo,,, -->
<!-- Title: FirstlevelCluster Pages: 1 -->
<svg width="414pt" height="244pt"
 viewBox="0.00 0.00 414.00 244.00" xmlns="http://www.w3.org/2000/svg" xmlns:xlink="http://www.w3.org/1999/xlink">
<g id="graph0" class="graph" transform="scale(1 1) rotate(0) translate(4 240)">
<title>FirstlevelCluster</title>
<polygon style="fill:white;stroke:white;" points="-4,4 -4,-240 410,-240 410,4 -4,4"/>
<g id="cluster2" class="cluster"><title>cluster_0</title>
<polygon style="fill:none;stroke:black;" points="1,-0 1,-227 405,-227 405,-0 1,-0"/>
<text text-anchor="middle" x="203" y="-210.9" style="font-family:Times New Roman;font-size:14.00;">VEH~C10&gt;</text>
</g>
<g id="cluster3" class="cluster"><title>cluster_2</title>
<polygon style="fill:lightgrey;stroke:black;" points="10,-9 10,-193 195,-193 195,-9 10,-9"/>
<text text-anchor="middle" x="102" y="-176.9" style="font-family:Times New Roman;font-size:14.00;">010200</text>
</g>
<g id="cluster4" class="cluster"><title>cluster_3</title>
<polygon style="fill:lightgrey;stroke:black;" points="220,-8 220,-187 396,-187 396,-8 220,-8"/>
<text text-anchor="middle" x="308" y="-170.9" style="font-family:Times New Roman;font-size:14.00;">010210</text>
</g>
<!-- VEH2 -->
<g id="node3" class="node"><title>VEH2</title>
<text text-anchor="middle" x="46" y="-77.6" style="font-family:Times New Roman;font-size:16.00;">VEH</text>
</g>
<!-- C32 -->
<g id="node4" class="node"><title>C32</title>
<text text-anchor="middle" x="159" y="-95.6" style="font-family:Times New Roman;font-size:16.00;">C3</text>
</g>
<!-- VEH2&#45;&gt;C32 -->
<g id="edge4" class="edge"><title>VEH2&#45;&gt;C32</title>
<path style="fill:none;stroke:black;" d="M73,-86C88,-88 106,-92 122,-94"/>
<polygon style="fill:black;stroke:black;" points="121.508,-97.4708 132,-96 122.881,-90.6067 121.508,-97.4708"/>
</g>
<!-- C302 -->
<g id="node6" class="node"><title>C302</title>
<text text-anchor="middle" x="93" y="-136.6" style="font-family:Times New Roman;font-size:16.00;">C30</text>
</g>
<!-- VEH2&#45;&gt;C302 -->
<g id="edge6" class="edge"><title>VEH2&#45;&gt;C302</title>
<path style="fill:none;stroke:black;" d="M60,-100C64,-105 68,-110 73,-115"/>
<polygon style="fill:black;stroke:black;" points="70.2,-117.1 79,-123 75.8,-112.9 70.2,-117.1"/>
</g>
<!-- C32&#45;&gt;C302 -->
<g id="edge8" class="edge"><title>C32&#45;&gt;C302</title>
<path style="fill:none;stroke:black;" d="M132,-117C131,-118 130,-118 129,-119"/>
<polygon style="fill:black;stroke:black;" points="127.042,-116.084 120,-124 130.441,-122.203 127.042,-116.084"/>
</g>
<!-- C102 -->
<g id="node5" class="node"><title>C102</title>
<text text-anchor="middle" x="132" y="-31.6" style="font-family:Times New Roman;font-size:16.00;">C10</text>
</g>
<!-- C102&#45;&gt;C32 -->
<g id="edge10" class="edge"><title>C102&#45;&gt;C32</title>
<path style="fill:none;stroke:black;" d="M140,-54C143,-60 145,-66 148,-72"/>
<polygon style="fill:black;stroke:black;" points="145.036,-74.0151 152,-82 151.536,-71.4153 145.036,-74.0151"/>
</g>
<!-- C102&#45;&gt;C302 -->
<g id="edge12" class="edge"><title>C102&#45;&gt;C302</title>
<path style="fill:none;stroke:black;" d="M125,-54C119,-70 110,-95 103,-114"/>
<polygon style="fill:black;stroke:black;" points="99.842,-112.406 100,-123 106.483,-114.62 99.842,-112.406"/>
</g>
<!-- VEH3 -->
<g id="node13" class="node"><title>VEH3</title>
<text text-anchor="middle" x="257" y="-77.6" style="font-family:Times New Roman;font-size:16.00;">VEH</text>
</g>
<!-- C33 -->
<g id="node14" class="node"><title>C33</title>
<text text-anchor="middle" x="360" y="-83.6" style="font-family:Times New Roman;font-size:16.00;">C3</text>
</g>
<!-- VEH3&#45;&gt;C33 -->
<g id="edge15" class="edge"><title>VEH3&#45;&gt;C33</title>
<path style="fill:none;stroke:black;" d="M284,-84C296,-84 310,-85 323,-85"/>
<polygon style="fill:black;stroke:black;" points="322.701,-88.4875 333,-86 323.398,-81.5222 322.701,-88.4875"/>
</g>
<!-- C303 -->
<g id="node16" class="node"><title>C303</title>
<text text-anchor="middle" x="294" y="-130.6" style="font-family:Times New Roman;font-size:16.00;">C30</text>
</g>
<!-- VEH3&#45;&gt;C303 -->
<g id="edge17" class="edge"><title>VEH3&#45;&gt;C303</title>
<path style="fill:none;stroke:black;" d="M270,-100C272,-103 273,-106 275,-109"/>
<polygon style="fill:black;stroke:black;" points="272.2,-111.1 281,-117 277.8,-106.9 272.2,-111.1"/>
</g>
<!-- C103 -->
<g id="node15" class="node"><title>C103</title>
<text text-anchor="middle" x="323" y="-30.6" style="font-family:Times New Roman;font-size:16.00;">C10</text>
</g>
<!-- C103&#45;&gt;C33 -->
<g id="edge19" class="edge"><title>C103&#45;&gt;C33</title>
<path style="fill:none;stroke:black;" d="M336,-53C338,-56 339,-59 341,-62"/>
<polygon style="fill:black;stroke:black;" points="338.2,-64.1 347,-70 343.8,-59.9 338.2,-64.1"/>
</g>
<!-- C103&#45;&gt;C303 -->
<g id="edge21" class="edge"><title>C103&#45;&gt;C303</title>
<path style="fill:none;stroke:black;" d="M318,-53C313,-68 307,-90 302,-107"/>
<polygon style="fill:black;stroke:black;" points="298.521,-106.416 299,-117 305.226,-108.427 298.521,-106.416"/>
</g>
</g>
</svg>
