<?xml version="1.0" encoding="UTF-8" standalone="no"?>
<!DOCTYPE svg PUBLIC "-//W3C//DTD SVG 1.0//EN"
 "http://www.w3.org/TR/2001/REC-SVG-20010904/DTD/svg10.dtd" [
 <!ATTLIST svg xmlns:xlink CDATA #FIXED "http://www.w3.org/1999/xlink">
]>
<!-- Generated by Graphviz version 2.20.2 (Tue Mar &#160;2 20:02:18 UTC 2010)
     For user: (nsvo) Nam Sy Vo,,, -->
<!-- Title: FirstlevelCluster Pages: 1 -->
<svg width="414pt" height="244pt"
 viewBox="0.00 0.00 414.00 244.00" xmlns="http://www.w3.org/2000/svg" xmlns:xlink="http://www.w3.org/1999/xlink">
<g id="graph0" class="graph" transform="scale(1 1) rotate(0) translate(4 240)">
<title>FirstlevelCluster</title>
<polygon style="fill:white;stroke:white;" points="-4,4 -4,-240 410,-240 410,4 -4,4"/>
<g id="cluster2" class="cluster"><title>cluster_0</title>
<polygon style="fill:none;stroke:black;" points="1,-0 1,-227 405,-227 405,-0 1,-0"/>
<text text-anchor="middle" x="203" y="-210.9" style="font-family:Times New Roman;font-size:14.00;">&gt;VEH~C10</text>
</g>
<g id="cluster3" class="cluster"><title>cluster_2</title>
<polygon style="fill:lightgrey;stroke:black;" points="220,-8 220,-187 396,-187 396,-8 220,-8"/>
<text text-anchor="middle" x="308" y="-170.9" style="font-family:Times New Roman;font-size:14.00;">212012</text>
</g>
<g id="cluster4" class="cluster"><title>cluster_3</title>
<polygon style="fill:lightgrey;stroke:black;" points="10,-9 10,-193 195,-193 195,-9 10,-9"/>
<text text-anchor="middle" x="102" y="-176.9" style="font-family:Times New Roman;font-size:14.00;">212022</text>
</g>
<!-- VEH2 -->
<g id="node3" class="node"><title>VEH2</title>
<text text-anchor="middle" x="257" y="-77.6" style="font-family:Times New Roman;font-size:16.00;">VEH</text>
</g>
<!-- C32 -->
<g id="node4" class="node"><title>C32</title>
<text text-anchor="middle" x="360" y="-83.6" style="font-family:Times New Roman;font-size:16.00;">C3</text>
</g>
<!-- C32&#45;&gt;VEH2 -->
<g id="edge4" class="edge"><title>C32&#45;&gt;VEH2</title>
<path style="fill:none;stroke:black;" d="M333,-86C321,-86 307,-85 294,-85"/>
<polygon style="fill:black;stroke:black;" points="294.299,-81.5125 284,-84 293.602,-88.4778 294.299,-81.5125"/>
</g>
<!-- C102 -->
<g id="node5" class="node"><title>C102</title>
<text text-anchor="middle" x="323" y="-30.6" style="font-family:Times New Roman;font-size:16.00;">C10</text>
</g>
<!-- C32&#45;&gt;C102 -->
<g id="edge6" class="edge"><title>C32&#45;&gt;C102</title>
<path style="fill:none;stroke:black;" d="M347,-70C345,-67 344,-65 342,-62"/>
<polygon style="fill:black;stroke:black;" points="344.459,-59.3791 336,-53 338.635,-63.262 344.459,-59.3791"/>
</g>
<!-- C302 -->
<g id="node6" class="node"><title>C302</title>
<text text-anchor="middle" x="294" y="-130.6" style="font-family:Times New Roman;font-size:16.00;">C30</text>
</g>
<!-- C302&#45;&gt;VEH2 -->
<g id="edge8" class="edge"><title>C302&#45;&gt;VEH2</title>
<path style="fill:none;stroke:black;" d="M281,-117C279,-114 278,-112 276,-109"/>
<polygon style="fill:black;stroke:black;" points="278.459,-106.379 270,-100 272.635,-110.262 278.459,-106.379"/>
</g>
<!-- C302&#45;&gt;C102 -->
<g id="edge10" class="edge"><title>C302&#45;&gt;C102</title>
<path style="fill:none;stroke:black;" d="M299,-117C304,-102 310,-80 315,-63"/>
<polygon style="fill:black;stroke:black;" points="318.479,-63.584 318,-53 311.774,-61.5725 318.479,-63.584"/>
</g>
<!-- VEH3 -->
<g id="node12" class="node"><title>VEH3</title>
<text text-anchor="middle" x="46" y="-77.6" style="font-family:Times New Roman;font-size:16.00;">VEH</text>
</g>
<!-- C33 -->
<g id="node13" class="node"><title>C33</title>
<text text-anchor="middle" x="159" y="-95.6" style="font-family:Times New Roman;font-size:16.00;">C3</text>
</g>
<!-- C33&#45;&gt;VEH3 -->
<g id="edge13" class="edge"><title>C33&#45;&gt;VEH3</title>
<path style="fill:none;stroke:black;" d="M132,-96C117,-94 99,-90 83,-88"/>
<polygon style="fill:black;stroke:black;" points="83.4922,-84.5292 73,-86 82.1194,-91.3933 83.4922,-84.5292"/>
</g>
<!-- C103 -->
<g id="node14" class="node"><title>C103</title>
<text text-anchor="middle" x="132" y="-31.6" style="font-family:Times New Roman;font-size:16.00;">C10</text>
</g>
<!-- C33&#45;&gt;C103 -->
<g id="edge15" class="edge"><title>C33&#45;&gt;C103</title>
<path style="fill:none;stroke:black;" d="M151,-82C148,-76 146,-70 143,-64"/>
<polygon style="fill:black;stroke:black;" points="145.964,-61.9849 139,-54 139.464,-64.5847 145.964,-61.9849"/>
</g>
<!-- C303 -->
<g id="node15" class="node"><title>C303</title>
<text text-anchor="middle" x="93" y="-136.6" style="font-family:Times New Roman;font-size:16.00;">C30</text>
</g>
<!-- C303&#45;&gt;VEH3 -->
<g id="edge17" class="edge"><title>C303&#45;&gt;VEH3</title>
<path style="fill:none;stroke:black;" d="M79,-123C75,-118 71,-113 66,-108"/>
<polygon style="fill:black;stroke:black;" points="68.8,-105.9 60,-100 63.2,-110.1 68.8,-105.9"/>
</g>
<!-- C303&#45;&gt;C33 -->
<g id="edge19" class="edge"><title>C303&#45;&gt;C33</title>
<path style="fill:none;stroke:black;" d="M120,-124C121,-123 122,-123 123,-122"/>
<polygon style="fill:black;stroke:black;" points="124.958,-124.916 132,-117 121.559,-118.797 124.958,-124.916"/>
</g>
<!-- C303&#45;&gt;C103 -->
<g id="edge21" class="edge"><title>C303&#45;&gt;C103</title>
<path style="fill:none;stroke:black;" d="M100,-123C106,-107 115,-82 122,-63"/>
<polygon style="fill:black;stroke:black;" points="125.158,-64.5937 125,-54 118.517,-62.38 125.158,-64.5937"/>
</g>
</g>
</svg>
