<?xml version="1.0" encoding="UTF-8" standalone="no"?>
<!DOCTYPE svg PUBLIC "-//W3C//DTD SVG 1.0//EN"
 "http://www.w3.org/TR/2001/REC-SVG-20010904/DTD/svg10.dtd" [
 <!ATTLIST svg xmlns:xlink CDATA #FIXED "http://www.w3.org/1999/xlink">
]>
<!-- Generated by Graphviz version 2.20.2 (Tue Mar &#160;2 20:02:18 UTC 2010)
     For user: (nsvo) Nam Sy Vo,,, -->
<!-- Title: FirstlevelCluster Pages: 1 -->
<svg width="394pt" height="396pt"
 viewBox="0.00 0.00 394.00 396.00" xmlns="http://www.w3.org/2000/svg" xmlns:xlink="http://www.w3.org/1999/xlink">
<g id="graph0" class="graph" transform="scale(1 1) rotate(0) translate(4 392)">
<title>FirstlevelCluster</title>
<polygon style="fill:white;stroke:white;" points="-4,4 -4,-392 390,-392 390,4 -4,4"/>
<g id="cluster2" class="cluster"><title>cluster_0</title>
<polygon style="fill:none;stroke:black;" points="1,-0 1,-379 385,-379 385,-0 1,-0"/>
<text text-anchor="middle" x="193" y="-362.9" style="font-family:Times New Roman;font-size:14.00;">VEH~C3&gt;</text>
</g>
<g id="cluster3" class="cluster"><title>cluster_2</title>
<polygon style="fill:lightgrey;stroke:black;" points="10,-9 10,-187 176,-187 176,-9 10,-9"/>
<text text-anchor="middle" x="93" y="-170.9" style="font-family:Times New Roman;font-size:14.00;">100001</text>
</g>
<g id="cluster4" class="cluster"><title>cluster_3</title>
<polygon style="fill:lightgrey;stroke:black;" points="190,-9 190,-165 377,-165 377,-9 190,-9"/>
<text text-anchor="middle" x="283" y="-148.9" style="font-family:Times New Roman;font-size:14.00;">100002</text>
</g>
<g id="cluster5" class="cluster"><title>cluster_4</title>
<polygon style="fill:lightgrey;stroke:black;" points="190,-189 190,-345 377,-345 377,-189 190,-189"/>
<text text-anchor="middle" x="283" y="-328.9" style="font-family:Times New Roman;font-size:14.00;">100000</text>
</g>
<!-- VEH2 -->
<g id="node3" class="node"><title>VEH2</title>
<text text-anchor="middle" x="46" y="-75.6" style="font-family:Times New Roman;font-size:16.00;">VEH</text>
</g>
<!-- C102 -->
<g id="node5" class="node"><title>C102</title>
<text text-anchor="middle" x="107" y="-31.6" style="font-family:Times New Roman;font-size:16.00;">C10</text>
</g>
<!-- VEH2&#45;&gt;C102 -->
<g id="edge4" class="edge"><title>VEH2&#45;&gt;C102</title>
<path style="fill:none;stroke:black;" d="M71,-62C72,-61 73,-61 74,-60"/>
<polygon style="fill:black;stroke:black;" points="76.1,-62.8 82,-54 71.9,-57.2 76.1,-62.8"/>
</g>
<!-- C302 -->
<g id="node6" class="node"><title>C302</title>
<text text-anchor="middle" x="79" y="-130.6" style="font-family:Times New Roman;font-size:16.00;">C30</text>
</g>
<!-- VEH2&#45;&gt;C302 -->
<g id="edge6" class="edge"><title>VEH2&#45;&gt;C302</title>
<path style="fill:none;stroke:black;" d="M57,-98C59,-101 61,-105 63,-108"/>
<polygon style="fill:black;stroke:black;" points="60.084,-109.958 68,-117 66.2031,-106.559 60.084,-109.958"/>
</g>
<!-- C32 -->
<g id="node4" class="node"><title>C32</title>
<text text-anchor="middle" x="140" y="-85.6" style="font-family:Times New Roman;font-size:16.00;">C3</text>
</g>
<!-- C32&#45;&gt;C102 -->
<g id="edge8" class="edge"><title>C32&#45;&gt;C102</title>
<path style="fill:none;stroke:black;" d="M129,-72C127,-69 125,-66 123,-63"/>
<polygon style="fill:black;stroke:black;" points="125.916,-61.0418 118,-54 119.797,-64.4414 125.916,-61.0418"/>
</g>
<!-- C32&#45;&gt;C302 -->
<g id="edge10" class="edge"><title>C32&#45;&gt;C302</title>
<path style="fill:none;stroke:black;" d="M116,-108C115,-109 114,-110 112,-111"/>
<polygon style="fill:black;stroke:black;" points="109.9,-108.2 104,-117 114.1,-113.8 109.9,-108.2"/>
</g>
<!-- VEH3 -->
<g id="node12" class="node"><title>VEH3</title>
<text text-anchor="middle" x="226" y="-59.6" style="font-family:Times New Roman;font-size:16.00;">VEH</text>
</g>
<!-- C103 -->
<g id="node14" class="node"><title>C103</title>
<text text-anchor="middle" x="291" y="-30.6" style="font-family:Times New Roman;font-size:16.00;">C10</text>
</g>
<!-- VEH3&#45;&gt;C103 -->
<g id="edge13" class="edge"><title>VEH3&#45;&gt;C103</title>
<path style="fill:none;stroke:black;" d="M253,-52C254,-52 254,-51 255,-51"/>
<polygon style="fill:black;stroke:black;" points="256.283,-54.2598 264,-47 253.44,-47.8631 256.283,-54.2598"/>
</g>
<!-- C303 -->
<g id="node15" class="node"><title>C303</title>
<text text-anchor="middle" x="275" y="-108.6" style="font-family:Times New Roman;font-size:16.00;">C30</text>
</g>
<!-- VEH3&#45;&gt;C303 -->
<g id="edge15" class="edge"><title>VEH3&#45;&gt;C303</title>
<path style="fill:none;stroke:black;" d="M244,-82C246,-84 248,-86 250,-88"/>
<polygon style="fill:black;stroke:black;" points="247.454,-90.4038 257,-95 252.404,-85.454 247.454,-90.4038"/>
</g>
<!-- C33 -->
<g id="node13" class="node"><title>C33</title>
<text text-anchor="middle" x="341" y="-80.6" style="font-family:Times New Roman;font-size:16.00;">C3</text>
</g>
<!-- C33&#45;&gt;C103 -->
<g id="edge17" class="edge"><title>C33&#45;&gt;C103</title>
<path style="fill:none;stroke:black;" d="M323,-67C321,-65 319,-63 316,-60"/>
<polygon style="fill:black;stroke:black;" points="318.546,-57.5962 309,-53 313.596,-62.546 318.546,-57.5962"/>
</g>
<!-- C33&#45;&gt;C303 -->
<g id="edge19" class="edge"><title>C33&#45;&gt;C303</title>
<path style="fill:none;stroke:black;" d="M314,-97C313,-97 312,-98 311,-98"/>
<polygon style="fill:black;stroke:black;" points="309.717,-94.7402 302,-102 312.56,-101.137 309.717,-94.7402"/>
</g>
<!-- C303&#45;&gt;C103 -->
<g id="edge21" class="edge"><title>C303&#45;&gt;C103</title>
<path style="fill:none;stroke:black;" d="M279,-95C281,-85 283,-74 285,-63"/>
<polygon style="fill:black;stroke:black;" points="288.471,-63.4922 287,-53 281.607,-62.1194 288.471,-63.4922"/>
</g>
<!-- VEH4 -->
<g id="node22" class="node"><title>VEH4</title>
<text text-anchor="middle" x="226" y="-239.6" style="font-family:Times New Roman;font-size:16.00;">VEH</text>
</g>
<!-- C104 -->
<g id="node24" class="node"><title>C104</title>
<text text-anchor="middle" x="291" y="-210.6" style="font-family:Times New Roman;font-size:16.00;">C10</text>
</g>
<!-- VEH4&#45;&gt;C104 -->
<g id="edge24" class="edge"><title>VEH4&#45;&gt;C104</title>
<path style="fill:none;stroke:black;" d="M253,-232C254,-232 254,-231 255,-231"/>
<polygon style="fill:black;stroke:black;" points="256.283,-234.26 264,-227 253.44,-227.863 256.283,-234.26"/>
</g>
<!-- C304 -->
<g id="node25" class="node"><title>C304</title>
<text text-anchor="middle" x="275" y="-288.6" style="font-family:Times New Roman;font-size:16.00;">C30</text>
</g>
<!-- VEH4&#45;&gt;C304 -->
<g id="edge26" class="edge"><title>VEH4&#45;&gt;C304</title>
<path style="fill:none;stroke:black;" d="M244,-262C246,-264 248,-266 250,-268"/>
<polygon style="fill:black;stroke:black;" points="247.454,-270.404 257,-275 252.404,-265.454 247.454,-270.404"/>
</g>
<!-- C34 -->
<g id="node23" class="node"><title>C34</title>
<text text-anchor="middle" x="341" y="-260.6" style="font-family:Times New Roman;font-size:16.00;">C3</text>
</g>
<!-- C34&#45;&gt;C104 -->
<g id="edge28" class="edge"><title>C34&#45;&gt;C104</title>
<path style="fill:none;stroke:black;" d="M323,-247C321,-245 319,-243 316,-240"/>
<polygon style="fill:black;stroke:black;" points="318.546,-237.596 309,-233 313.596,-242.546 318.546,-237.596"/>
</g>
<!-- C34&#45;&gt;C304 -->
<g id="edge30" class="edge"><title>C34&#45;&gt;C304</title>
<path style="fill:none;stroke:black;" d="M314,-277C313,-277 312,-278 311,-278"/>
<polygon style="fill:black;stroke:black;" points="309.717,-274.74 302,-282 312.56,-281.137 309.717,-274.74"/>
</g>
<!-- C104&#45;&gt;C304 -->
<g id="edge32" class="edge"><title>C104&#45;&gt;C304</title>
<path style="fill:none;stroke:black;" d="M287,-233C285,-243 283,-254 281,-265"/>
<polygon style="fill:black;stroke:black;" points="277.529,-264.508 279,-275 284.393,-265.881 277.529,-264.508"/>
</g>
</g>
</svg>
