<?xml version="1.0" encoding="UTF-8" standalone="no"?>
<!DOCTYPE svg PUBLIC "-//W3C//DTD SVG 1.0//EN"
 "http://www.w3.org/TR/2001/REC-SVG-20010904/DTD/svg10.dtd" [
 <!ATTLIST svg xmlns:xlink CDATA #FIXED "http://www.w3.org/1999/xlink">
]>
<!-- Generated by Graphviz version 2.20.2 (Tue Mar &#160;2 20:02:18 UTC 2010)
     For user: (nsvo) Nam Sy Vo,,, -->
<!-- Title: FirstlevelCluster Pages: 1 -->
<svg width="192pt" height="242pt"
 viewBox="0.00 0.00 192.00 242.00" xmlns="http://www.w3.org/2000/svg" xmlns:xlink="http://www.w3.org/1999/xlink">
<g id="graph0" class="graph" transform="scale(1 1) rotate(0) translate(4 238)">
<title>FirstlevelCluster</title>
<polygon style="fill:white;stroke:white;" points="-4,4 -4,-238 188,-238 188,4 -4,4"/>
<g id="cluster2" class="cluster"><title>cluster_0</title>
<polygon style="fill:none;stroke:black;" points="1,-0 1,-225 183,-225 183,-0 1,-0"/>
<text text-anchor="middle" x="92" y="-208.9" style="font-family:Times New Roman;font-size:14.00;">&gt;VEH~C3~C10</text>
</g>
<g id="cluster3" class="cluster"><title>cluster_2</title>
<polygon style="fill:lightgrey;stroke:black;" points="10,-9 10,-191 174,-191 174,-9 10,-9"/>
<text text-anchor="middle" x="92" y="-174.9" style="font-family:Times New Roman;font-size:14.00;">112122</text>
</g>
<!-- VEH2 -->
<g id="node3" class="node"><title>VEH2</title>
<text text-anchor="middle" x="46" y="-131.6" style="font-family:Times New Roman;font-size:16.00;">VEH</text>
</g>
<!-- C32 -->
<g id="node4" class="node"><title>C32</title>
<text text-anchor="middle" x="139" y="-133.6" style="font-family:Times New Roman;font-size:16.00;">C3</text>
</g>
<!-- C102 -->
<g id="node5" class="node"><title>C102</title>
<text text-anchor="middle" x="109" y="-31.6" style="font-family:Times New Roman;font-size:16.00;">C10</text>
</g>
<!-- C302 -->
<g id="node6" class="node"><title>C302</title>
<text text-anchor="middle" x="93" y="-83.6" style="font-family:Times New Roman;font-size:16.00;">C30</text>
</g>
<!-- C302&#45;&gt;VEH2 -->
<g id="edge4" class="edge"><title>C302&#45;&gt;VEH2</title>
<path style="fill:none;stroke:black;" d="M75,-106C74,-107 72,-109 71,-110"/>
<polygon style="fill:black;stroke:black;" points="67.9511,-108.169 64,-118 73.2191,-112.779 67.9511,-108.169"/>
</g>
<!-- C302&#45;&gt;C32 -->
<g id="edge6" class="edge"><title>C302&#45;&gt;C32</title>
<path style="fill:none;stroke:black;" d="M110,-106C112,-108 114,-110 116,-112"/>
<polygon style="fill:black;stroke:black;" points="113.781,-114.779 123,-120 119.049,-110.169 113.781,-114.779"/>
</g>
<!-- C302&#45;&gt;C102 -->
<g id="edge8" class="edge"><title>C302&#45;&gt;C102</title>
<path style="fill:none;stroke:black;" d="M99,-70C99,-68 100,-66 101,-64"/>
<polygon style="fill:black;stroke:black;" points="104.479,-64.584 104,-54 97.7741,-62.5725 104.479,-64.584"/>
</g>
</g>
</svg>
