<?xml version="1.0" encoding="UTF-8" standalone="no"?>
<!DOCTYPE svg PUBLIC "-//W3C//DTD SVG 1.0//EN"
 "http://www.w3.org/TR/2001/REC-SVG-20010904/DTD/svg10.dtd" [
 <!ATTLIST svg xmlns:xlink CDATA #FIXED "http://www.w3.org/1999/xlink">
]>
<!-- Generated by Graphviz version 2.20.2 (Tue Mar &#160;2 20:02:18 UTC 2010)
     For user: (nsvo) Nam Sy Vo,,, -->
<!-- Title: FirstlevelCluster Pages: 1 -->
<svg width="204pt" height="254pt"
 viewBox="0.00 0.00 204.00 254.00" xmlns="http://www.w3.org/2000/svg" xmlns:xlink="http://www.w3.org/1999/xlink">
<g id="graph0" class="graph" transform="scale(1 1) rotate(0) translate(4 250)">
<title>FirstlevelCluster</title>
<polygon style="fill:white;stroke:white;" points="-4,4 -4,-250 200,-250 200,4 -4,4"/>
<g id="cluster2" class="cluster"><title>cluster_0</title>
<polygon style="fill:none;stroke:black;" points="1,-0 1,-237 195,-237 195,-0 1,-0"/>
<text text-anchor="middle" x="98" y="-220.9" style="font-family:Times New Roman;font-size:14.00;">VEH~C3~C30&gt;</text>
</g>
<g id="cluster3" class="cluster"><title>cluster_2</title>
<polygon style="fill:lightgrey;stroke:black;" points="10,-9 10,-203 187,-203 187,-9 10,-9"/>
<text text-anchor="middle" x="98" y="-186.9" style="font-family:Times New Roman;font-size:14.00;">101012</text>
</g>
<!-- VEH2 -->
<g id="node3" class="node"><title>VEH2</title>
<text text-anchor="middle" x="46" y="-31.6" style="font-family:Times New Roman;font-size:16.00;">VEH</text>
</g>
<!-- C102 -->
<g id="node5" class="node"><title>C102</title>
<text text-anchor="middle" x="92" y="-93.6" style="font-family:Times New Roman;font-size:16.00;">C10</text>
</g>
<!-- VEH2&#45;&gt;C102 -->
<g id="edge4" class="edge"><title>VEH2&#45;&gt;C102</title>
<path style="fill:none;stroke:black;" d="M60,-54C64,-59 69,-66 73,-72"/>
<polygon style="fill:black;stroke:black;" points="69.732,-73.375 78,-80 75.668,-69.665 69.732,-73.375"/>
</g>
<!-- C32 -->
<g id="node4" class="node"><title>C32</title>
<text text-anchor="middle" x="151" y="-43.6" style="font-family:Times New Roman;font-size:16.00;">C3</text>
</g>
<!-- C32&#45;&gt;C102 -->
<g id="edge6" class="edge"><title>C32&#45;&gt;C102</title>
<path style="fill:none;stroke:black;" d="M130,-66C127,-68 124,-71 121,-74"/>
<polygon style="fill:black;stroke:black;" points="118.9,-71.2 113,-80 123.1,-76.8 118.9,-71.2"/>
</g>
<!-- C302 -->
<g id="node6" class="node"><title>C302</title>
<text text-anchor="middle" x="85" y="-146.6" style="font-family:Times New Roman;font-size:16.00;">C30</text>
</g>
<!-- C302&#45;&gt;C102 -->
<g id="edge8" class="edge"><title>C302&#45;&gt;C102</title>
<path style="fill:none;stroke:black;" d="M87,-133C87,-131 88,-128 88,-126"/>
<polygon style="fill:black;stroke:black;" points="91.4875,-126.299 89,-116 84.5222,-125.602 91.4875,-126.299"/>
</g>
</g>
</svg>
