<?xml version="1.0" encoding="UTF-8" standalone="no"?>
<!DOCTYPE svg PUBLIC "-//W3C//DTD SVG 1.0//EN"
 "http://www.w3.org/TR/2001/REC-SVG-20010904/DTD/svg10.dtd" [
 <!ATTLIST svg xmlns:xlink CDATA #FIXED "http://www.w3.org/1999/xlink">
]>
<!-- Generated by Graphviz version 2.20.2 (Tue Mar &#160;2 20:02:18 UTC 2010)
     For user: (nsvo) Nam Sy Vo,,, -->
<!-- Title: FirstlevelCluster Pages: 1 -->
<svg width="222pt" height="236pt"
 viewBox="0.00 0.00 222.00 236.00" xmlns="http://www.w3.org/2000/svg" xmlns:xlink="http://www.w3.org/1999/xlink">
<g id="graph0" class="graph" transform="scale(1 1) rotate(0) translate(4 232)">
<title>FirstlevelCluster</title>
<polygon style="fill:white;stroke:white;" points="-4,4 -4,-232 218,-232 218,4 -4,4"/>
<g id="cluster2" class="cluster"><title>cluster_0</title>
<polygon style="fill:none;stroke:black;" points="1,-0 1,-219 213,-219 213,-0 1,-0"/>
<text text-anchor="middle" x="107" y="-202.9" style="font-family:Times New Roman;font-size:14.00;">VEH~C10~C30&gt;</text>
</g>
<g id="cluster3" class="cluster"><title>cluster_2</title>
<polygon style="fill:lightgrey;stroke:black;" points="10,-9 10,-185 204,-185 204,-9 10,-9"/>
<text text-anchor="middle" x="107" y="-168.9" style="font-family:Times New Roman;font-size:14.00;">011221</text>
</g>
<!-- VEH2 -->
<g id="node3" class="node"><title>VEH2</title>
<text text-anchor="middle" x="46" y="-62.6" style="font-family:Times New Roman;font-size:16.00;">VEH</text>
</g>
<!-- C32 -->
<g id="node4" class="node"><title>C32</title>
<text text-anchor="middle" x="112" y="-79.6" style="font-family:Times New Roman;font-size:16.00;">C3</text>
</g>
<!-- VEH2&#45;&gt;C32 -->
<g id="edge4" class="edge"><title>VEH2&#45;&gt;C32</title>
<path style="fill:none;stroke:black;" d="M73,-74C74,-74 75,-74 75,-75"/>
<polygon style="fill:black;stroke:black;" points="74.5078,-78.4708 85,-77 75.8806,-71.6067 74.5078,-78.4708"/>
</g>
<!-- C102 -->
<g id="node5" class="node"><title>C102</title>
<text text-anchor="middle" x="168" y="-31.6" style="font-family:Times New Roman;font-size:16.00;">C10</text>
</g>
<!-- C102&#45;&gt;C32 -->
<g id="edge6" class="edge"><title>C102&#45;&gt;C32</title>
<path style="fill:none;stroke:black;" d="M147,-54C145,-56 143,-58 141,-60"/>
<polygon style="fill:black;stroke:black;" points="138.9,-57.2 133,-66 143.1,-62.8 138.9,-57.2"/>
</g>
<!-- C302 -->
<g id="node6" class="node"><title>C302</title>
<text text-anchor="middle" x="138" y="-128.6" style="font-family:Times New Roman;font-size:16.00;">C30</text>
</g>
<!-- C302&#45;&gt;C32 -->
<g id="edge8" class="edge"><title>C302&#45;&gt;C32</title>
<path style="fill:none;stroke:black;" d="M128,-115C127,-114 127,-113 126,-111"/>
<polygon style="fill:black;stroke:black;" points="129.26,-109.717 122,-102 122.863,-112.56 129.26,-109.717"/>
</g>
</g>
</svg>
