<?xml version="1.0" encoding="UTF-8" standalone="no"?>
<!DOCTYPE svg PUBLIC "-//W3C//DTD SVG 1.0//EN"
 "http://www.w3.org/TR/2001/REC-SVG-20010904/DTD/svg10.dtd" [
 <!ATTLIST svg xmlns:xlink CDATA #FIXED "http://www.w3.org/1999/xlink">
]>
<!-- Generated by Graphviz version 2.20.2 (Tue Mar &#160;2 20:02:18 UTC 2010)
     For user: (nsvo) Nam Sy Vo,,, -->
<!-- Title: FirstlevelCluster Pages: 1 -->
<svg width="222pt" height="236pt"
 viewBox="0.00 0.00 222.00 236.00" xmlns="http://www.w3.org/2000/svg" xmlns:xlink="http://www.w3.org/1999/xlink">
<g id="graph0" class="graph" transform="scale(1 1) rotate(0) translate(4 232)">
<title>FirstlevelCluster</title>
<polygon style="fill:white;stroke:white;" points="-4,4 -4,-232 218,-232 218,4 -4,4"/>
<g id="cluster2" class="cluster"><title>cluster_0</title>
<polygon style="fill:none;stroke:black;" points="1,-0 1,-219 213,-219 213,-0 1,-0"/>
<text text-anchor="middle" x="107" y="-202.9" style="font-family:Times New Roman;font-size:14.00;">&gt;VEH~C10~C30</text>
</g>
<g id="cluster3" class="cluster"><title>cluster_2</title>
<polygon style="fill:lightgrey;stroke:black;" points="10,-9 10,-185 204,-185 204,-9 10,-9"/>
<text text-anchor="middle" x="107" y="-168.9" style="font-family:Times New Roman;font-size:14.00;">211001</text>
</g>
<!-- VEH2 -->
<g id="node3" class="node"><title>VEH2</title>
<text text-anchor="middle" x="46" y="-62.6" style="font-family:Times New Roman;font-size:16.00;">VEH</text>
</g>
<!-- C32 -->
<g id="node4" class="node"><title>C32</title>
<text text-anchor="middle" x="112" y="-79.6" style="font-family:Times New Roman;font-size:16.00;">C3</text>
</g>
<!-- C32&#45;&gt;VEH2 -->
<g id="edge4" class="edge"><title>C32&#45;&gt;VEH2</title>
<path style="fill:none;stroke:black;" d="M85,-77C84,-77 84,-77 83,-76"/>
<polygon style="fill:black;stroke:black;" points="83.4922,-72.5292 73,-74 82.1194,-79.3933 83.4922,-72.5292"/>
</g>
<!-- C102 -->
<g id="node5" class="node"><title>C102</title>
<text text-anchor="middle" x="168" y="-31.6" style="font-family:Times New Roman;font-size:16.00;">C10</text>
</g>
<!-- C32&#45;&gt;C102 -->
<g id="edge6" class="edge"><title>C32&#45;&gt;C102</title>
<path style="fill:none;stroke:black;" d="M133,-66C135,-64 137,-63 139,-61"/>
<polygon style="fill:black;stroke:black;" points="141.779,-63.2191 147,-54 137.169,-57.9511 141.779,-63.2191"/>
</g>
<!-- C302 -->
<g id="node6" class="node"><title>C302</title>
<text text-anchor="middle" x="138" y="-128.6" style="font-family:Times New Roman;font-size:16.00;">C30</text>
</g>
<!-- C32&#45;&gt;C302 -->
<g id="edge8" class="edge"><title>C32&#45;&gt;C302</title>
<path style="fill:none;stroke:black;" d="M122,-102C123,-103 123,-104 124,-106"/>
<polygon style="fill:black;stroke:black;" points="120.74,-107.283 128,-115 127.137,-104.44 120.74,-107.283"/>
</g>
</g>
</svg>
