<?xml version="1.0" encoding="UTF-8" standalone="no"?>
<!DOCTYPE svg PUBLIC "-//W3C//DTD SVG 1.0//EN"
 "http://www.w3.org/TR/2001/REC-SVG-20010904/DTD/svg10.dtd" [
 <!ATTLIST svg xmlns:xlink CDATA #FIXED "http://www.w3.org/1999/xlink">
]>
<!-- Generated by Graphviz version 2.20.2 (Tue Mar &#160;2 20:02:18 UTC 2010)
     For user: (nsvo) Nam Sy Vo,,, -->
<!-- Title: FirstlevelCluster Pages: 1 -->
<svg width="836pt" height="842pt"
 viewBox="0.00 0.00 836.00 842.00" xmlns="http://www.w3.org/2000/svg" xmlns:xlink="http://www.w3.org/1999/xlink">
<g id="graph0" class="graph" transform="scale(1 1) rotate(0) translate(4 838)">
<title>FirstlevelCluster</title>
<polygon style="fill:white;stroke:white;" points="-4,4 -4,-838 832,-838 832,4 -4,4"/>
<g id="cluster2" class="cluster"><title>cluster_0</title>
<polygon style="fill:none;stroke:black;" points="1,-0 1,-825 827,-825 827,-0 1,-0"/>
<text text-anchor="middle" x="414" y="-808.9" style="font-family:Times New Roman;font-size:14.00;">VEH&gt;</text>
</g>
<g id="cluster3" class="cluster"><title>cluster_2</title>
<polygon style="fill:lightgrey;stroke:black;" points="30,-589 30,-771 194,-771 194,-589 30,-589"/>
<text text-anchor="middle" x="112" y="-754.9" style="font-family:Times New Roman;font-size:14.00;">000111</text>
</g>
<g id="cluster4" class="cluster"><title>cluster_3</title>
<polygon style="fill:lightgrey;stroke:black;" points="370,-249 370,-433 546,-433 546,-249 370,-249"/>
<text text-anchor="middle" x="458" y="-416.9" style="font-family:Times New Roman;font-size:14.00;">000100</text>
</g>
<g id="cluster5" class="cluster"><title>cluster_4</title>
<polygon style="fill:lightgrey;stroke:black;" points="210,-8 210,-189 349,-189 349,-8 210,-8"/>
<text text-anchor="middle" x="279" y="-172.9" style="font-family:Times New Roman;font-size:14.00;">000001</text>
</g>
<g id="cluster6" class="cluster"><title>cluster_5</title>
<polygon style="fill:none;stroke:black;" points="210,-208 210,-421 364,-421 364,-208 210,-208"/>
<text text-anchor="middle" x="287" y="-404.9" style="font-family:Times New Roman;font-size:14.00;">000101</text>
</g>
<g id="cluster7" class="cluster"><title>cluster_6</title>
<polygon style="fill:none;stroke:black;" points="610,-568 610,-711 772,-711 772,-568 610,-568"/>
<text text-anchor="middle" x="691" y="-694.9" style="font-family:Times New Roman;font-size:14.00;">000011</text>
</g>
<g id="cluster8" class="cluster"><title>cluster_7</title>
<polygon style="fill:lightgrey;stroke:black;" points="410,-448 410,-633 591,-633 591,-448 410,-448"/>
<text text-anchor="middle" x="500" y="-616.9" style="font-family:Times New Roman;font-size:14.00;">000012</text>
</g>
<g id="cluster9" class="cluster"><title>cluster_8</title>
<polygon style="fill:none;stroke:black;" points="570,-249 570,-399 779,-399 779,-249 570,-249"/>
<text text-anchor="middle" x="674" y="-382.9" style="font-family:Times New Roman;font-size:14.00;">000110</text>
</g>
<g id="cluster10" class="cluster"><title>cluster_9</title>
<polygon style="fill:none;stroke:black;" points="610,-409 610,-559 819,-559 819,-409 610,-409"/>
<text text-anchor="middle" x="714" y="-542.9" style="font-family:Times New Roman;font-size:14.00;">000112</text>
</g>
<g id="cluster11" class="cluster"><title>cluster_10</title>
<polygon style="fill:lightgrey;stroke:black;" points="210,-449 210,-635 390,-635 390,-449 210,-449"/>
<text text-anchor="middle" x="300" y="-618.9" style="font-family:Times New Roman;font-size:14.00;">000000</text>
</g>
<g id="cluster12" class="cluster"><title>cluster_11</title>
<polygon style="fill:lightgrey;stroke:black;" points="10,-329 10,-515 190,-515 190,-329 10,-329"/>
<text text-anchor="middle" x="100" y="-498.9" style="font-family:Times New Roman;font-size:14.00;">000002</text>
</g>
<g id="cluster13" class="cluster"><title>cluster_12</title>
<polygon style="fill:lightgrey;stroke:black;" points="10,-129 10,-315 190,-315 190,-129 10,-129"/>
<text text-anchor="middle" x="100" y="-298.9" style="font-family:Times New Roman;font-size:14.00;">000022</text>
</g>
<g id="cluster14" class="cluster"><title>cluster_13</title>
<polygon style="fill:lightgrey;stroke:black;" points="370,-49 370,-235 550,-235 550,-49 370,-49"/>
<text text-anchor="middle" x="460" y="-218.9" style="font-family:Times New Roman;font-size:14.00;">000220</text>
</g>
<g id="cluster15" class="cluster"><title>cluster_14</title>
<polygon style="fill:none;stroke:black;" points="430,-648 430,-791 592,-791 592,-648 430,-648"/>
<text text-anchor="middle" x="511" y="-774.9" style="font-family:Times New Roman;font-size:14.00;">000211</text>
</g>
<g id="cluster16" class="cluster"><title>cluster_15</title>
<polygon style="fill:lightgrey;stroke:black;" points="570,-49 570,-235 750,-235 750,-49 570,-49"/>
<text text-anchor="middle" x="660" y="-218.9" style="font-family:Times New Roman;font-size:14.00;">000200</text>
</g>
<!-- VEH2 -->
<g id="node3" class="node"><title>VEH2</title>
<text text-anchor="middle" x="95" y="-663.6" style="font-family:Times New Roman;font-size:16.00;">VEH</text>
</g>
<!-- C32 -->
<g id="node4" class="node"><title>C32</title>
<text text-anchor="middle" x="159" y="-657.6" style="font-family:Times New Roman;font-size:16.00;">C3</text>
</g>
<!-- VEH2&#45;&gt;C32 -->
<g id="edge4" class="edge"><title>VEH2&#45;&gt;C32</title>
<path style="fill:none;stroke:black;" d="M122,-665C122,-665 122,-665 122,-665"/>
<polygon style="fill:black;stroke:black;" points="122.398,-668.478 132,-664 121.701,-661.512 122.398,-668.478"/>
</g>
<!-- C102 -->
<g id="node5" class="node"><title>C102</title>
<text text-anchor="middle" x="83" y="-611.6" style="font-family:Times New Roman;font-size:16.00;">C10</text>
</g>
<!-- VEH2&#45;&gt;C102 -->
<g id="edge6" class="edge"><title>VEH2&#45;&gt;C102</title>
<path style="fill:none;stroke:black;" d="M91,-650C91,-648 90,-646 89,-644"/>
<polygon style="fill:black;stroke:black;" points="92.3933,-643.119 87,-634 85.5292,-644.492 92.3933,-643.119"/>
</g>
<!-- C302 -->
<g id="node6" class="node"><title>C302</title>
<text text-anchor="middle" x="66" y="-714.6" style="font-family:Times New Roman;font-size:16.00;">C30</text>
</g>
<!-- VEH2&#45;&gt;C302 -->
<g id="edge8" class="edge"><title>VEH2&#45;&gt;C302</title>
<path style="fill:none;stroke:black;" d="M85,-686C84,-688 83,-690 81,-692"/>
<polygon style="fill:black;stroke:black;" points="77.7969,-690.559 76,-701 83.916,-693.958 77.7969,-690.559"/>
</g>
<!-- VEH3 -->
<g id="node11" class="node"><title>VEH3</title>
<text text-anchor="middle" x="407" y="-323.6" style="font-family:Times New Roman;font-size:16.00;">VEH</text>
</g>
<!-- C33 -->
<g id="node12" class="node"><title>C33</title>
<text text-anchor="middle" x="510" y="-339.6" style="font-family:Times New Roman;font-size:16.00;">C3</text>
</g>
<!-- VEH3&#45;&gt;C33 -->
<g id="edge11" class="edge"><title>VEH3&#45;&gt;C33</title>
<path style="fill:none;stroke:black;" d="M434,-332C446,-334 460,-336 473,-338"/>
<polygon style="fill:black;stroke:black;" points="472.508,-341.471 483,-340 473.881,-334.607 472.508,-341.471"/>
</g>
<!-- C103 -->
<g id="node13" class="node"><title>C103</title>
<text text-anchor="middle" x="456" y="-271.6" style="font-family:Times New Roman;font-size:16.00;">C10</text>
</g>
<!-- VEH3&#45;&gt;C103 -->
<g id="edge13" class="edge"><title>VEH3&#45;&gt;C103</title>
<path style="fill:none;stroke:black;" d="M424,-310C427,-307 429,-304 432,-301"/>
<polygon style="fill:black;stroke:black;" points="434.404,-303.546 439,-294 429.454,-298.596 434.404,-303.546"/>
</g>
<!-- C303 -->
<g id="node14" class="node"><title>C303</title>
<text text-anchor="middle" x="448" y="-376.6" style="font-family:Times New Roman;font-size:16.00;">C30</text>
</g>
<!-- VEH3&#45;&gt;C303 -->
<g id="edge15" class="edge"><title>VEH3&#45;&gt;C303</title>
<path style="fill:none;stroke:black;" d="M421,-346C423,-349 426,-352 428,-355"/>
<polygon style="fill:black;stroke:black;" points="425.2,-357.1 434,-363 430.8,-352.9 425.2,-357.1"/>
</g>
<!-- C33&#45;&gt;C303 -->
<g id="edge17" class="edge"><title>C33&#45;&gt;C303</title>
<path style="fill:none;stroke:black;" d="M483,-360C483,-360 483,-360 483,-360"/>
<polygon style="fill:black;stroke:black;" points="481.625,-356.732 475,-365 485.335,-362.668 481.625,-356.732"/>
</g>
<!-- C103&#45;&gt;C303 -->
<g id="edge19" class="edge"><title>C103&#45;&gt;C303</title>
<path style="fill:none;stroke:black;" d="M455,-294C453,-310 452,-334 450,-353"/>
<polygon style="fill:black;stroke:black;" points="446.512,-352.701 449,-363 453.478,-353.398 446.512,-352.701"/>
</g>
<!-- VEH4 -->
<g id="node21" class="node"><title>VEH4</title>
<text text-anchor="middle" x="246" y="-79.6" style="font-family:Times New Roman;font-size:16.00;">VEH</text>
</g>
<!-- C34 -->
<g id="node22" class="node"><title>C34</title>
<text text-anchor="middle" x="313" y="-88.6" style="font-family:Times New Roman;font-size:16.00;">C3</text>
</g>
<!-- VEH4&#45;&gt;C34 -->
<g id="edge22" class="edge"><title>VEH4&#45;&gt;C34</title>
<path style="fill:none;stroke:black;" d="M273,-88C274,-88 275,-88 276,-88"/>
<polygon style="fill:black;stroke:black;" points="275.701,-91.4875 286,-89 276.398,-84.5222 275.701,-91.4875"/>
</g>
<!-- C104 -->
<g id="node23" class="node"><title>C104</title>
<text text-anchor="middle" x="289" y="-31.6" style="font-family:Times New Roman;font-size:16.00;">C10</text>
</g>
<!-- VEH4&#45;&gt;C104 -->
<g id="edge24" class="edge"><title>VEH4&#45;&gt;C104</title>
<path style="fill:none;stroke:black;" d="M262,-66C263,-65 264,-63 265,-62"/>
<polygon style="fill:black;stroke:black;" points="268.049,-63.8306 272,-54 262.781,-59.221 268.049,-63.8306"/>
</g>
<!-- C304 -->
<g id="node24" class="node"><title>C304</title>
<text text-anchor="middle" x="270" y="-132.6" style="font-family:Times New Roman;font-size:16.00;">C30</text>
</g>
<!-- VEH4&#45;&gt;C304 -->
<g id="edge26" class="edge"><title>VEH4&#45;&gt;C304</title>
<path style="fill:none;stroke:black;" d="M254,-102C255,-105 256,-107 257,-110"/>
<polygon style="fill:black;stroke:black;" points="253.74,-111.283 261,-119 260.137,-108.44 253.74,-111.283"/>
</g>
<!-- C34&#45;&gt;C104 -->
<g id="edge28" class="edge"><title>C34&#45;&gt;C104</title>
<path style="fill:none;stroke:black;" d="M305,-75C303,-71 302,-67 300,-64"/>
<polygon style="fill:black;stroke:black;" points="302.964,-61.9849 296,-54 296.464,-64.5847 302.964,-61.9849"/>
</g>
<!-- C34&#45;&gt;C304 -->
<g id="edge30" class="edge"><title>C34&#45;&gt;C304</title>
<path style="fill:none;stroke:black;" d="M295,-111C295,-111 294,-112 294,-112"/>
<polygon style="fill:black;stroke:black;" points="291.596,-109.454 287,-119 296.546,-114.404 291.596,-109.454"/>
</g>
<!-- VEH5 -->
<g id="node31" class="node"><title>VEH5</title>
<text text-anchor="middle" x="247" y="-288.6" style="font-family:Times New Roman;font-size:16.00;">VEH</text>
</g>
<!-- C35 -->
<g id="node32" class="node"><title>C35</title>
<text text-anchor="middle" x="329" y="-320.6" style="font-family:Times New Roman;font-size:16.00;">C3</text>
</g>
<!-- VEH5&#45;&gt;C35 -->
<g id="edge33" class="edge"><title>VEH5&#45;&gt;C35</title>
<path style="fill:none;stroke:black;" d="M274,-304C280,-306 286,-308 292,-311"/>
<polygon style="fill:black;stroke:black;" points="291.415,-314.536 302,-315 294.015,-308.036 291.415,-314.536"/>
</g>
<!-- C105 -->
<g id="node33" class="node"><title>C105</title>
<text text-anchor="middle" x="271" y="-231.6" style="font-family:Times New Roman;font-size:16.00;">C10</text>
</g>
<!-- VEH5&#45;&gt;C105 -->
<g id="edge35" class="edge"><title>VEH5&#45;&gt;C105</title>
<path style="fill:none;stroke:black;" d="M255,-275C257,-271 258,-267 260,-264"/>
<polygon style="fill:black;stroke:black;" points="263.536,-264.585 264,-254 257.036,-261.985 263.536,-264.585"/>
</g>
<!-- C305 -->
<g id="node34" class="node"><title>C305</title>
<text text-anchor="middle" x="263" y="-364.6" style="font-family:Times New Roman;font-size:16.00;">C30</text>
</g>
<!-- VEH5&#45;&gt;C305 -->
<g id="edge37" class="edge"><title>VEH5&#45;&gt;C305</title>
<path style="fill:none;stroke:black;" d="M251,-311C253,-320 255,-331 257,-341"/>
<polygon style="fill:black;stroke:black;" points="253.607,-341.881 259,-351 260.471,-340.508 253.607,-341.881"/>
</g>
<!-- C35&#45;&gt;C305 -->
<g id="edge39" class="edge"><title>C35&#45;&gt;C305</title>
<path style="fill:none;stroke:black;" d="M302,-343C301,-344 300,-345 299,-345"/>
<polygon style="fill:black;stroke:black;" points="296.379,-342.541 290,-351 300.262,-348.365 296.379,-342.541"/>
</g>
<!-- VEH6 -->
<g id="node40" class="node"><title>VEH6</title>
<text text-anchor="middle" x="673" y="-605.6" style="font-family:Times New Roman;font-size:16.00;">VEH</text>
</g>
<!-- C36 -->
<g id="node41" class="node"><title>C36</title>
<text text-anchor="middle" x="724" y="-653.6" style="font-family:Times New Roman;font-size:16.00;">C3</text>
</g>
<!-- VEH6&#45;&gt;C36 -->
<g id="edge42" class="edge"><title>VEH6&#45;&gt;C36</title>
<path style="fill:none;stroke:black;" d="M692,-628C694,-630 695,-631 697,-633"/>
<polygon style="fill:black;stroke:black;" points="695.169,-636.049 705,-640 699.779,-630.781 695.169,-636.049"/>
</g>
<!-- C106 -->
<g id="node42" class="node"><title>C106</title>
<text text-anchor="middle" x="737" y="-590.6" style="font-family:Times New Roman;font-size:16.00;">C10</text>
</g>
<!-- VEH6&#45;&gt;C106 -->
<g id="edge44" class="edge"><title>VEH6&#45;&gt;C106</title>
<path style="fill:none;stroke:black;" d="M700,-604C700,-604 700,-604 700,-604"/>
<polygon style="fill:black;stroke:black;" points="700.881,-607.393 710,-602 699.508,-600.529 700.881,-607.393"/>
</g>
<!-- C306 -->
<g id="node43" class="node"><title>C306</title>
<text text-anchor="middle" x="646" y="-654.6" style="font-family:Times New Roman;font-size:16.00;">C30</text>
</g>
<!-- VEH6&#45;&gt;C306 -->
<g id="edge46" class="edge"><title>VEH6&#45;&gt;C306</title>
<path style="fill:none;stroke:black;" d="M663,-628C662,-629 662,-631 661,-632"/>
<polygon style="fill:black;stroke:black;" points="657.797,-630.559 656,-641 663.916,-633.958 657.797,-630.559"/>
</g>
<!-- C36&#45;&gt;C106 -->
<g id="edge48" class="edge"><title>C36&#45;&gt;C106</title>
<path style="fill:none;stroke:black;" d="M728,-640C729,-635 731,-629 732,-623"/>
<polygon style="fill:black;stroke:black;" points="735.488,-623.299 733,-613 728.522,-622.602 735.488,-623.299"/>
</g>
<!-- VEH7 -->
<g id="node49" class="node"><title>VEH7</title>
<text text-anchor="middle" x="446" y="-517.6" style="font-family:Times New Roman;font-size:16.00;">VEH</text>
</g>
<!-- C37 -->
<g id="node50" class="node"><title>C37</title>
<text text-anchor="middle" x="555" y="-521.6" style="font-family:Times New Roman;font-size:16.00;">C3</text>
</g>
<!-- VEH7&#45;&gt;C37 -->
<g id="edge51" class="edge"><title>VEH7&#45;&gt;C37</title>
<path style="fill:none;stroke:black;" d="M473,-523C487,-524 503,-524 518,-525"/>
<polygon style="fill:black;stroke:black;" points="518,-528.5 528,-525 518,-521.5 518,-528.5"/>
</g>
<!-- C107 -->
<g id="node51" class="node"><title>C107</title>
<text text-anchor="middle" x="501" y="-470.6" style="font-family:Times New Roman;font-size:16.00;">C10</text>
</g>
<!-- VEH7&#45;&gt;C107 -->
<g id="edge53" class="edge"><title>VEH7&#45;&gt;C107</title>
<path style="fill:none;stroke:black;" d="M467,-504C469,-502 470,-501 472,-499"/>
<polygon style="fill:black;stroke:black;" points="474.1,-501.8 480,-493 469.9,-496.2 474.1,-501.8"/>
</g>
<!-- C307 -->
<g id="node52" class="node"><title>C307</title>
<text text-anchor="middle" x="479" y="-576.6" style="font-family:Times New Roman;font-size:16.00;">C30</text>
</g>
<!-- VEH7&#45;&gt;C307 -->
<g id="edge55" class="edge"><title>VEH7&#45;&gt;C307</title>
<path style="fill:none;stroke:black;" d="M456,-540C458,-544 461,-549 464,-554"/>
<polygon style="fill:black;stroke:black;" points="461.084,-555.958 469,-563 467.203,-552.559 461.084,-555.958"/>
</g>
<!-- C37&#45;&gt;C107 -->
<g id="edge57" class="edge"><title>C37&#45;&gt;C107</title>
<path style="fill:none;stroke:black;" d="M536,-508C533,-505 530,-503 527,-500"/>
<polygon style="fill:black;stroke:black;" points="529.546,-497.596 520,-493 524.596,-502.546 529.546,-497.596"/>
</g>
<!-- C307&#45;&gt;C107 -->
<g id="edge59" class="edge"><title>C307&#45;&gt;C107</title>
<path style="fill:none;stroke:black;" d="M483,-563C486,-546 491,-522 495,-503"/>
<polygon style="fill:black;stroke:black;" points="498.471,-503.492 497,-493 491.607,-502.119 498.471,-503.492"/>
</g>
<!-- VEH8 -->
<g id="node59" class="node"><title>VEH8</title>
<text text-anchor="middle" x="681" y="-318.6" style="font-family:Times New Roman;font-size:16.00;">VEH</text>
</g>
<!-- C38 -->
<g id="node60" class="node"><title>C38</title>
<text text-anchor="middle" x="743" y="-328.6" style="font-family:Times New Roman;font-size:16.00;">C3</text>
</g>
<!-- VEH8&#45;&gt;C38 -->
<g id="edge62" class="edge"><title>VEH8&#45;&gt;C38</title>
<path style="fill:none;stroke:black;" d="M708,-327C708,-327 708,-327 708,-327"/>
<polygon style="fill:black;stroke:black;" points="705.643,-330.233 716,-328 706.511,-323.287 705.643,-330.233"/>
</g>
<!-- C108 -->
<g id="node61" class="node"><title>C108</title>
<text text-anchor="middle" x="617" y="-271.6" style="font-family:Times New Roman;font-size:16.00;">C10</text>
</g>
<!-- VEH8&#45;&gt;C108 -->
<g id="edge64" class="edge"><title>VEH8&#45;&gt;C108</title>
<path style="fill:none;stroke:black;" d="M656,-305C654,-303 652,-302 649,-300"/>
<polygon style="fill:black;stroke:black;" points="651.1,-297.2 641,-294 646.9,-302.8 651.1,-297.2"/>
</g>
<!-- C308 -->
<g id="node62" class="node"><title>C308</title>
<text text-anchor="middle" x="606" y="-341.6" style="font-family:Times New Roman;font-size:16.00;">C30</text>
</g>
<!-- VEH8&#45;&gt;C308 -->
<g id="edge66" class="edge"><title>VEH8&#45;&gt;C308</title>
<path style="fill:none;stroke:black;" d="M654,-331C650,-332 646,-333 643,-334"/>
<polygon style="fill:black;stroke:black;" points="640.985,-331.036 633,-338 643.585,-337.536 640.985,-331.036"/>
</g>
<!-- C108&#45;&gt;C308 -->
<g id="edge68" class="edge"><title>C108&#45;&gt;C308</title>
<path style="fill:none;stroke:black;" d="M614,-294C613,-302 612,-310 611,-318"/>
<polygon style="fill:black;stroke:black;" points="607.529,-317.508 609,-328 614.393,-318.881 607.529,-317.508"/>
</g>
<!-- VEH9 -->
<g id="node68" class="node"><title>VEH9</title>
<text text-anchor="middle" x="721" y="-478.6" style="font-family:Times New Roman;font-size:16.00;">VEH</text>
</g>
<!-- C39 -->
<g id="node69" class="node"><title>C39</title>
<text text-anchor="middle" x="783" y="-488.6" style="font-family:Times New Roman;font-size:16.00;">C3</text>
</g>
<!-- VEH9&#45;&gt;C39 -->
<g id="edge71" class="edge"><title>VEH9&#45;&gt;C39</title>
<path style="fill:none;stroke:black;" d="M748,-487C748,-487 748,-487 748,-487"/>
<polygon style="fill:black;stroke:black;" points="745.643,-490.233 756,-488 746.511,-483.287 745.643,-490.233"/>
</g>
<!-- C109 -->
<g id="node70" class="node"><title>C109</title>
<text text-anchor="middle" x="657" y="-431.6" style="font-family:Times New Roman;font-size:16.00;">C10</text>
</g>
<!-- VEH9&#45;&gt;C109 -->
<g id="edge73" class="edge"><title>VEH9&#45;&gt;C109</title>
<path style="fill:none;stroke:black;" d="M696,-465C694,-463 692,-462 689,-460"/>
<polygon style="fill:black;stroke:black;" points="691.1,-457.2 681,-454 686.9,-462.8 691.1,-457.2"/>
</g>
<!-- C309 -->
<g id="node71" class="node"><title>C309</title>
<text text-anchor="middle" x="646" y="-501.6" style="font-family:Times New Roman;font-size:16.00;">C30</text>
</g>
<!-- VEH9&#45;&gt;C309 -->
<g id="edge75" class="edge"><title>VEH9&#45;&gt;C309</title>
<path style="fill:none;stroke:black;" d="M694,-491C690,-492 686,-493 683,-494"/>
<polygon style="fill:black;stroke:black;" points="680.985,-491.036 673,-498 683.585,-497.536 680.985,-491.036"/>
</g>
<!-- C309&#45;&gt;C109 -->
<g id="edge77" class="edge"><title>C309&#45;&gt;C109</title>
<path style="fill:none;stroke:black;" d="M649,-488C650,-481 652,-472 653,-464"/>
<polygon style="fill:black;stroke:black;" points="656.488,-464.299 654,-454 649.522,-463.602 656.488,-464.299"/>
</g>
<!-- VEH10 -->
<g id="node77" class="node"><title>VEH10</title>
<text text-anchor="middle" x="247" y="-516.6" style="font-family:Times New Roman;font-size:16.00;">VEH</text>
</g>
<!-- C310 -->
<g id="node78" class="node"><title>C310</title>
<text text-anchor="middle" x="354" y="-533.6" style="font-family:Times New Roman;font-size:16.00;">C3</text>
</g>
<!-- VEH10&#45;&gt;C310 -->
<g id="edge80" class="edge"><title>VEH10&#45;&gt;C310</title>
<path style="fill:none;stroke:black;" d="M274,-525C287,-527 303,-530 317,-532"/>
<polygon style="fill:black;stroke:black;" points="316.701,-535.488 327,-533 317.398,-528.522 316.701,-535.488"/>
</g>
<!-- C1010 -->
<g id="node79" class="node"><title>C1010</title>
<text text-anchor="middle" x="310" y="-471.6" style="font-family:Times New Roman;font-size:16.00;">C10</text>
</g>
<!-- VEH10&#45;&gt;C1010 -->
<g id="edge82" class="edge"><title>VEH10&#45;&gt;C1010</title>
<path style="fill:none;stroke:black;" d="M272,-503C273,-502 275,-501 276,-500"/>
<polygon style="fill:black;stroke:black;" points="278.1,-502.8 284,-494 273.9,-497.2 278.1,-502.8"/>
</g>
<!-- C3010 -->
<g id="node80" class="node"><title>C3010</title>
<text text-anchor="middle" x="291" y="-578.6" style="font-family:Times New Roman;font-size:16.00;">C30</text>
</g>
<!-- VEH10&#45;&gt;C3010 -->
<g id="edge84" class="edge"><title>VEH10&#45;&gt;C3010</title>
<path style="fill:none;stroke:black;" d="M260,-539C264,-544 268,-551 272,-557"/>
<polygon style="fill:black;stroke:black;" points="269.2,-559.1 278,-565 274.8,-554.9 269.2,-559.1"/>
</g>
<!-- C310&#45;&gt;C1010 -->
<g id="edge86" class="edge"><title>C310&#45;&gt;C1010</title>
<path style="fill:none;stroke:black;" d="M341,-520C337,-515 333,-508 329,-502"/>
<polygon style="fill:black;stroke:black;" points="331.8,-499.9 323,-494 326.2,-504.1 331.8,-499.9"/>
</g>
<!-- C310&#45;&gt;C3010 -->
<g id="edge88" class="edge"><title>C310&#45;&gt;C3010</title>
<path style="fill:none;stroke:black;" d="M329,-556C328,-557 327,-558 325,-559"/>
<polygon style="fill:black;stroke:black;" points="322.9,-556.2 317,-565 327.1,-561.8 322.9,-556.2"/>
</g>
<!-- C1010&#45;&gt;C3010 -->
<g id="edge90" class="edge"><title>C1010&#45;&gt;C3010</title>
<path style="fill:none;stroke:black;" d="M307,-494C304,-511 300,-536 296,-555"/>
<polygon style="fill:black;stroke:black;" points="292.529,-554.508 294,-565 299.393,-555.881 292.529,-554.508"/>
</g>
<!-- VEH11 -->
<g id="node88" class="node"><title>VEH11</title>
<text text-anchor="middle" x="47" y="-396.6" style="font-family:Times New Roman;font-size:16.00;">VEH</text>
</g>
<!-- C311 -->
<g id="node89" class="node"><title>C311</title>
<text text-anchor="middle" x="154" y="-413.6" style="font-family:Times New Roman;font-size:16.00;">C3</text>
</g>
<!-- VEH11&#45;&gt;C311 -->
<g id="edge93" class="edge"><title>VEH11&#45;&gt;C311</title>
<path style="fill:none;stroke:black;" d="M74,-405C87,-407 103,-410 117,-412"/>
<polygon style="fill:black;stroke:black;" points="116.701,-415.488 127,-413 117.398,-408.522 116.701,-415.488"/>
</g>
<!-- C1011 -->
<g id="node90" class="node"><title>C1011</title>
<text text-anchor="middle" x="110" y="-351.6" style="font-family:Times New Roman;font-size:16.00;">C10</text>
</g>
<!-- VEH11&#45;&gt;C1011 -->
<g id="edge95" class="edge"><title>VEH11&#45;&gt;C1011</title>
<path style="fill:none;stroke:black;" d="M72,-383C73,-382 75,-381 76,-380"/>
<polygon style="fill:black;stroke:black;" points="78.1,-382.8 84,-374 73.9,-377.2 78.1,-382.8"/>
</g>
<!-- C3011 -->
<g id="node91" class="node"><title>C3011</title>
<text text-anchor="middle" x="91" y="-458.6" style="font-family:Times New Roman;font-size:16.00;">C30</text>
</g>
<!-- VEH11&#45;&gt;C3011 -->
<g id="edge97" class="edge"><title>VEH11&#45;&gt;C3011</title>
<path style="fill:none;stroke:black;" d="M60,-419C64,-424 68,-431 72,-437"/>
<polygon style="fill:black;stroke:black;" points="69.2,-439.1 78,-445 74.8,-434.9 69.2,-439.1"/>
</g>
<!-- C311&#45;&gt;C1011 -->
<g id="edge99" class="edge"><title>C311&#45;&gt;C1011</title>
<path style="fill:none;stroke:black;" d="M141,-400C137,-395 133,-388 129,-382"/>
<polygon style="fill:black;stroke:black;" points="131.8,-379.9 123,-374 126.2,-384.1 131.8,-379.9"/>
</g>
<!-- C311&#45;&gt;C3011 -->
<g id="edge101" class="edge"><title>C311&#45;&gt;C3011</title>
<path style="fill:none;stroke:black;" d="M129,-436C128,-437 127,-438 125,-439"/>
<polygon style="fill:black;stroke:black;" points="122.9,-436.2 117,-445 127.1,-441.8 122.9,-436.2"/>
</g>
<!-- C3011&#45;&gt;C1011 -->
<g id="edge103" class="edge"><title>C3011&#45;&gt;C1011</title>
<path style="fill:none;stroke:black;" d="M94,-445C97,-428 101,-403 105,-384"/>
<polygon style="fill:black;stroke:black;" points="108.471,-384.492 107,-374 101.607,-383.119 108.471,-384.492"/>
</g>
<!-- VEH12 -->
<g id="node99" class="node"><title>VEH12</title>
<text text-anchor="middle" x="47" y="-196.6" style="font-family:Times New Roman;font-size:16.00;">VEH</text>
</g>
<!-- C312 -->
<g id="node100" class="node"><title>C312</title>
<text text-anchor="middle" x="154" y="-213.6" style="font-family:Times New Roman;font-size:16.00;">C3</text>
</g>
<!-- VEH12&#45;&gt;C312 -->
<g id="edge106" class="edge"><title>VEH12&#45;&gt;C312</title>
<path style="fill:none;stroke:black;" d="M74,-205C87,-207 103,-210 117,-212"/>
<polygon style="fill:black;stroke:black;" points="116.701,-215.488 127,-213 117.398,-208.522 116.701,-215.488"/>
</g>
<!-- C1012 -->
<g id="node101" class="node"><title>C1012</title>
<text text-anchor="middle" x="110" y="-151.6" style="font-family:Times New Roman;font-size:16.00;">C10</text>
</g>
<!-- VEH12&#45;&gt;C1012 -->
<g id="edge108" class="edge"><title>VEH12&#45;&gt;C1012</title>
<path style="fill:none;stroke:black;" d="M72,-183C73,-182 75,-181 76,-180"/>
<polygon style="fill:black;stroke:black;" points="78.1,-182.8 84,-174 73.9,-177.2 78.1,-182.8"/>
</g>
<!-- C3012 -->
<g id="node102" class="node"><title>C3012</title>
<text text-anchor="middle" x="91" y="-258.6" style="font-family:Times New Roman;font-size:16.00;">C30</text>
</g>
<!-- VEH12&#45;&gt;C3012 -->
<g id="edge110" class="edge"><title>VEH12&#45;&gt;C3012</title>
<path style="fill:none;stroke:black;" d="M60,-219C64,-224 68,-231 72,-237"/>
<polygon style="fill:black;stroke:black;" points="69.2,-239.1 78,-245 74.8,-234.9 69.2,-239.1"/>
</g>
<!-- C312&#45;&gt;C1012 -->
<g id="edge112" class="edge"><title>C312&#45;&gt;C1012</title>
<path style="fill:none;stroke:black;" d="M141,-200C137,-195 133,-188 129,-182"/>
<polygon style="fill:black;stroke:black;" points="131.8,-179.9 123,-174 126.2,-184.1 131.8,-179.9"/>
</g>
<!-- C3012&#45;&gt;C312 -->
<g id="edge114" class="edge"><title>C3012&#45;&gt;C312</title>
<path style="fill:none;stroke:black;" d="M116,-245C117,-244 119,-243 120,-242"/>
<polygon style="fill:black;stroke:black;" points="122.1,-244.8 128,-236 117.9,-239.2 122.1,-244.8"/>
</g>
<!-- C3012&#45;&gt;C1012 -->
<g id="edge116" class="edge"><title>C3012&#45;&gt;C1012</title>
<path style="fill:none;stroke:black;" d="M94,-245C97,-228 101,-203 105,-184"/>
<polygon style="fill:black;stroke:black;" points="108.471,-184.492 107,-174 101.607,-183.119 108.471,-184.492"/>
</g>
<!-- VEH13 -->
<g id="node110" class="node"><title>VEH13</title>
<text text-anchor="middle" x="407" y="-116.6" style="font-family:Times New Roman;font-size:16.00;">VEH</text>
</g>
<!-- C313 -->
<g id="node111" class="node"><title>C313</title>
<text text-anchor="middle" x="514" y="-133.6" style="font-family:Times New Roman;font-size:16.00;">C3</text>
</g>
<!-- VEH13&#45;&gt;C313 -->
<g id="edge119" class="edge"><title>VEH13&#45;&gt;C313</title>
<path style="fill:none;stroke:black;" d="M434,-125C447,-127 463,-130 477,-132"/>
<polygon style="fill:black;stroke:black;" points="476.701,-135.488 487,-133 477.398,-128.522 476.701,-135.488"/>
</g>
<!-- C1013 -->
<g id="node112" class="node"><title>C1013</title>
<text text-anchor="middle" x="470" y="-71.6" style="font-family:Times New Roman;font-size:16.00;">C10</text>
</g>
<!-- VEH13&#45;&gt;C1013 -->
<g id="edge121" class="edge"><title>VEH13&#45;&gt;C1013</title>
<path style="fill:none;stroke:black;" d="M432,-103C433,-102 435,-101 436,-100"/>
<polygon style="fill:black;stroke:black;" points="438.1,-102.8 444,-94 433.9,-97.2 438.1,-102.8"/>
</g>
<!-- C3013 -->
<g id="node113" class="node"><title>C3013</title>
<text text-anchor="middle" x="451" y="-178.6" style="font-family:Times New Roman;font-size:16.00;">C30</text>
</g>
<!-- VEH13&#45;&gt;C3013 -->
<g id="edge123" class="edge"><title>VEH13&#45;&gt;C3013</title>
<path style="fill:none;stroke:black;" d="M420,-139C424,-144 428,-151 432,-157"/>
<polygon style="fill:black;stroke:black;" points="429.2,-159.1 438,-165 434.8,-154.9 429.2,-159.1"/>
</g>
<!-- C1013&#45;&gt;C313 -->
<g id="edge125" class="edge"><title>C1013&#45;&gt;C313</title>
<path style="fill:none;stroke:black;" d="M483,-94C487,-99 491,-106 495,-112"/>
<polygon style="fill:black;stroke:black;" points="492.2,-114.1 501,-120 497.8,-109.9 492.2,-114.1"/>
</g>
<!-- C1013&#45;&gt;C3013 -->
<g id="edge127" class="edge"><title>C1013&#45;&gt;C3013</title>
<path style="fill:none;stroke:black;" d="M467,-94C464,-111 460,-136 456,-155"/>
<polygon style="fill:black;stroke:black;" points="452.529,-154.508 454,-165 459.393,-155.881 452.529,-154.508"/>
</g>
<!-- C3013&#45;&gt;C313 -->
<g id="edge129" class="edge"><title>C3013&#45;&gt;C313</title>
<path style="fill:none;stroke:black;" d="M476,-165C477,-164 479,-163 480,-162"/>
<polygon style="fill:black;stroke:black;" points="482.1,-164.8 488,-156 477.9,-159.2 482.1,-164.8"/>
</g>
<!-- VEH14 -->
<g id="node121" class="node"><title>VEH14</title>
<text text-anchor="middle" x="493" y="-685.6" style="font-family:Times New Roman;font-size:16.00;">VEH</text>
</g>
<!-- C314 -->
<g id="node122" class="node"><title>C314</title>
<text text-anchor="middle" x="544" y="-733.6" style="font-family:Times New Roman;font-size:16.00;">C3</text>
</g>
<!-- VEH14&#45;&gt;C314 -->
<g id="edge132" class="edge"><title>VEH14&#45;&gt;C314</title>
<path style="fill:none;stroke:black;" d="M512,-708C514,-710 515,-711 517,-713"/>
<polygon style="fill:black;stroke:black;" points="515.169,-716.049 525,-720 519.779,-710.781 515.169,-716.049"/>
</g>
<!-- C1014 -->
<g id="node123" class="node"><title>C1014</title>
<text text-anchor="middle" x="557" y="-670.6" style="font-family:Times New Roman;font-size:16.00;">C10</text>
</g>
<!-- VEH14&#45;&gt;C1014 -->
<g id="edge134" class="edge"><title>VEH14&#45;&gt;C1014</title>
<path style="fill:none;stroke:black;" d="M520,-684C520,-684 520,-684 520,-684"/>
<polygon style="fill:black;stroke:black;" points="520.881,-687.393 530,-682 519.508,-680.529 520.881,-687.393"/>
</g>
<!-- C3014 -->
<g id="node124" class="node"><title>C3014</title>
<text text-anchor="middle" x="466" y="-734.6" style="font-family:Times New Roman;font-size:16.00;">C30</text>
</g>
<!-- VEH14&#45;&gt;C3014 -->
<g id="edge136" class="edge"><title>VEH14&#45;&gt;C3014</title>
<path style="fill:none;stroke:black;" d="M483,-708C482,-709 482,-711 481,-712"/>
<polygon style="fill:black;stroke:black;" points="477.797,-710.559 476,-721 483.916,-713.958 477.797,-710.559"/>
</g>
<!-- C1014&#45;&gt;C314 -->
<g id="edge138" class="edge"><title>C1014&#45;&gt;C314</title>
<path style="fill:none;stroke:black;" d="M553,-693C552,-698 550,-704 549,-710"/>
<polygon style="fill:black;stroke:black;" points="545.512,-709.701 548,-720 552.478,-710.398 545.512,-709.701"/>
</g>
<!-- VEH15 -->
<g id="node130" class="node"><title>VEH15</title>
<text text-anchor="middle" x="607" y="-116.6" style="font-family:Times New Roman;font-size:16.00;">VEH</text>
</g>
<!-- C315 -->
<g id="node131" class="node"><title>C315</title>
<text text-anchor="middle" x="714" y="-133.6" style="font-family:Times New Roman;font-size:16.00;">C3</text>
</g>
<!-- VEH15&#45;&gt;C315 -->
<g id="edge141" class="edge"><title>VEH15&#45;&gt;C315</title>
<path style="fill:none;stroke:black;" d="M634,-125C647,-127 663,-130 677,-132"/>
<polygon style="fill:black;stroke:black;" points="676.701,-135.488 687,-133 677.398,-128.522 676.701,-135.488"/>
</g>
<!-- C1015 -->
<g id="node132" class="node"><title>C1015</title>
<text text-anchor="middle" x="670" y="-71.6" style="font-family:Times New Roman;font-size:16.00;">C10</text>
</g>
<!-- VEH15&#45;&gt;C1015 -->
<g id="edge143" class="edge"><title>VEH15&#45;&gt;C1015</title>
<path style="fill:none;stroke:black;" d="M632,-103C633,-102 635,-101 636,-100"/>
<polygon style="fill:black;stroke:black;" points="638.1,-102.8 644,-94 633.9,-97.2 638.1,-102.8"/>
</g>
<!-- C3015 -->
<g id="node133" class="node"><title>C3015</title>
<text text-anchor="middle" x="651" y="-178.6" style="font-family:Times New Roman;font-size:16.00;">C30</text>
</g>
<!-- VEH15&#45;&gt;C3015 -->
<g id="edge145" class="edge"><title>VEH15&#45;&gt;C3015</title>
<path style="fill:none;stroke:black;" d="M620,-139C624,-144 628,-151 632,-157"/>
<polygon style="fill:black;stroke:black;" points="629.2,-159.1 638,-165 634.8,-154.9 629.2,-159.1"/>
</g>
<!-- C315&#45;&gt;C3015 -->
<g id="edge147" class="edge"><title>C315&#45;&gt;C3015</title>
<path style="fill:none;stroke:black;" d="M689,-156C688,-157 687,-158 685,-159"/>
<polygon style="fill:black;stroke:black;" points="682.9,-156.2 677,-165 687.1,-161.8 682.9,-156.2"/>
</g>
<!-- C1015&#45;&gt;C315 -->
<g id="edge149" class="edge"><title>C1015&#45;&gt;C315</title>
<path style="fill:none;stroke:black;" d="M683,-94C687,-99 691,-106 695,-112"/>
<polygon style="fill:black;stroke:black;" points="692.2,-114.1 701,-120 697.8,-109.9 692.2,-114.1"/>
</g>
<!-- C1015&#45;&gt;C3015 -->
<g id="edge151" class="edge"><title>C1015&#45;&gt;C3015</title>
<path style="fill:none;stroke:black;" d="M667,-94C664,-111 660,-136 656,-155"/>
<polygon style="fill:black;stroke:black;" points="652.529,-154.508 654,-165 659.393,-155.881 652.529,-154.508"/>
</g>
</g>
</svg>
