<?xml version="1.0" encoding="UTF-8" standalone="no"?>
<!DOCTYPE svg PUBLIC "-//W3C//DTD SVG 1.0//EN"
 "http://www.w3.org/TR/2001/REC-SVG-20010904/DTD/svg10.dtd" [
 <!ATTLIST svg xmlns:xlink CDATA #FIXED "http://www.w3.org/1999/xlink">
]>
<!-- Generated by Graphviz version 2.20.2 (Tue Mar &#160;2 20:02:18 UTC 2010)
     For user: (nsvo) Nam Sy Vo,,, -->
<!-- Title: FirstlevelCluster Pages: 1 -->
<svg width="876pt" height="980pt"
 viewBox="0.00 0.00 876.00 980.00" xmlns="http://www.w3.org/2000/svg" xmlns:xlink="http://www.w3.org/1999/xlink">
<g id="graph0" class="graph" transform="scale(1 1) rotate(0) translate(4 976)">
<title>FirstlevelCluster</title>
<polygon style="fill:white;stroke:white;" points="-4,4 -4,-976 872,-976 872,4 -4,4"/>
<g id="cluster2" class="cluster"><title>cluster_0</title>
<polygon style="fill:none;stroke:black;" points="1,-0 1,-963 867,-963 867,-0 1,-0"/>
<text text-anchor="middle" x="434" y="-946.9" style="font-family:Times New Roman;font-size:14.00;">&gt;VEH</text>
</g>
<g id="cluster3" class="cluster"><title>cluster_2</title>
<polygon style="fill:lightgrey;stroke:black;" points="10,-709 10,-891 174,-891 174,-709 10,-709"/>
<text text-anchor="middle" x="92" y="-874.9" style="font-family:Times New Roman;font-size:14.00;">222111</text>
</g>
<g id="cluster4" class="cluster"><title>cluster_3</title>
<polygon style="fill:none;stroke:black;" points="10,-548 10,-691 172,-691 172,-548 10,-548"/>
<text text-anchor="middle" x="91" y="-674.9" style="font-family:Times New Roman;font-size:14.00;">222211</text>
</g>
<g id="cluster5" class="cluster"><title>cluster_4</title>
<polygon style="fill:none;stroke:black;" points="550,-369 550,-519 759,-519 759,-369 550,-369"/>
<text text-anchor="middle" x="654" y="-502.9" style="font-family:Times New Roman;font-size:14.00;">222110</text>
</g>
<g id="cluster6" class="cluster"><title>cluster_5</title>
<polygon style="fill:lightgrey;stroke:black;" points="190,-528 190,-713 371,-713 371,-528 190,-528"/>
<text text-anchor="middle" x="280" y="-696.9" style="font-family:Times New Roman;font-size:14.00;">222210</text>
</g>
<g id="cluster7" class="cluster"><title>cluster_6</title>
<polygon style="fill:none;stroke:black;" points="230,-288 230,-501 384,-501 384,-288 230,-288"/>
<text text-anchor="middle" x="307" y="-484.9" style="font-family:Times New Roman;font-size:14.00;">222121</text>
</g>
<g id="cluster8" class="cluster"><title>cluster_7</title>
<polygon style="fill:lightgrey;stroke:black;" points="450,-549 450,-733 626,-733 626,-549 450,-549"/>
<text text-anchor="middle" x="538" y="-716.9" style="font-family:Times New Roman;font-size:14.00;">222100</text>
</g>
<g id="cluster9" class="cluster"><title>cluster_8</title>
<polygon style="fill:lightgrey;stroke:black;" points="550,-169 550,-355 730,-355 730,-169 550,-169"/>
<text text-anchor="middle" x="640" y="-338.9" style="font-family:Times New Roman;font-size:14.00;">222222</text>
</g>
<g id="cluster10" class="cluster"><title>cluster_9</title>
<polygon style="fill:lightgrey;stroke:black;" points="650,-688 650,-869 789,-869 789,-688 650,-688"/>
<text text-anchor="middle" x="719" y="-852.9" style="font-family:Times New Roman;font-size:14.00;">222221</text>
</g>
<g id="cluster11" class="cluster"><title>cluster_10</title>
<polygon style="fill:none;stroke:black;" points="390,-328 390,-541 544,-541 544,-328 390,-328"/>
<text text-anchor="middle" x="467" y="-524.9" style="font-family:Times New Roman;font-size:14.00;">222101</text>
</g>
<g id="cluster12" class="cluster"><title>cluster_11</title>
<polygon style="fill:lightgrey;stroke:black;" points="30,-329 30,-513 206,-513 206,-329 30,-329"/>
<text text-anchor="middle" x="118" y="-496.9" style="font-family:Times New Roman;font-size:14.00;">222122</text>
</g>
<g id="cluster13" class="cluster"><title>cluster_12</title>
<polygon style="fill:none;stroke:black;" points="650,-529 650,-679 859,-679 859,-529 650,-529"/>
<text text-anchor="middle" x="754" y="-662.9" style="font-family:Times New Roman;font-size:14.00;">222112</text>
</g>
<g id="cluster14" class="cluster"><title>cluster_13</title>
<polygon style="fill:none;stroke:black;" points="430,-8 430,-151 592,-151 592,-8 430,-8"/>
<text text-anchor="middle" x="511" y="-134.9" style="font-family:Times New Roman;font-size:14.00;">222011</text>
</g>
<g id="cluster15" class="cluster"><title>cluster_14</title>
<polygon style="fill:lightgrey;stroke:black;" points="490,-748 490,-929 629,-929 629,-748 490,-748"/>
<text text-anchor="middle" x="559" y="-912.9" style="font-family:Times New Roman;font-size:14.00;">222001</text>
</g>
<g id="cluster16" class="cluster"><title>cluster_15</title>
<polygon style="fill:lightgrey;stroke:black;" points="30,-129 30,-315 210,-315 210,-129 30,-129"/>
<text text-anchor="middle" x="120" y="-298.9" style="font-family:Times New Roman;font-size:14.00;">222220</text>
</g>
<g id="cluster17" class="cluster"><title>cluster_16</title>
<polygon style="fill:lightgrey;stroke:black;" points="230,-88 230,-273 411,-273 411,-88 230,-88"/>
<text text-anchor="middle" x="320" y="-256.9" style="font-family:Times New Roman;font-size:14.00;">222012</text>
</g>
<g id="cluster18" class="cluster"><title>cluster_17</title>
<polygon style="fill:lightgrey;stroke:black;" points="250,-729 250,-915 430,-915 430,-729 250,-729"/>
<text text-anchor="middle" x="340" y="-898.9" style="font-family:Times New Roman;font-size:14.00;">222000</text>
</g>
<!-- VEH2 -->
<g id="node3" class="node"><title>VEH2</title>
<text text-anchor="middle" x="75" y="-783.6" style="font-family:Times New Roman;font-size:16.00;">VEH</text>
</g>
<!-- C32 -->
<g id="node4" class="node"><title>C32</title>
<text text-anchor="middle" x="139" y="-777.6" style="font-family:Times New Roman;font-size:16.00;">C3</text>
</g>
<!-- C32&#45;&gt;VEH2 -->
<g id="edge4" class="edge"><title>C32&#45;&gt;VEH2</title>
<path style="fill:none;stroke:black;" d="M112,-785C112,-785 112,-785 112,-785"/>
<polygon style="fill:black;stroke:black;" points="111.602,-781.522 102,-786 112.299,-788.488 111.602,-781.522"/>
</g>
<!-- C102 -->
<g id="node5" class="node"><title>C102</title>
<text text-anchor="middle" x="63" y="-731.6" style="font-family:Times New Roman;font-size:16.00;">C10</text>
</g>
<!-- C102&#45;&gt;VEH2 -->
<g id="edge6" class="edge"><title>C102&#45;&gt;VEH2</title>
<path style="fill:none;stroke:black;" d="M67,-754C67,-756 68,-758 69,-760"/>
<polygon style="fill:black;stroke:black;" points="65.6067,-760.881 71,-770 72.4708,-759.508 65.6067,-760.881"/>
</g>
<!-- C302 -->
<g id="node6" class="node"><title>C302</title>
<text text-anchor="middle" x="46" y="-834.6" style="font-family:Times New Roman;font-size:16.00;">C30</text>
</g>
<!-- C302&#45;&gt;VEH2 -->
<g id="edge8" class="edge"><title>C302&#45;&gt;VEH2</title>
<path style="fill:none;stroke:black;" d="M56,-821C57,-819 58,-817 60,-815"/>
<polygon style="fill:black;stroke:black;" points="63.2031,-816.441 65,-806 57.084,-813.042 63.2031,-816.441"/>
</g>
<!-- VEH3 -->
<g id="node11" class="node"><title>VEH3</title>
<text text-anchor="middle" x="73" y="-585.6" style="font-family:Times New Roman;font-size:16.00;">VEH</text>
</g>
<!-- C33 -->
<g id="node12" class="node"><title>C33</title>
<text text-anchor="middle" x="124" y="-633.6" style="font-family:Times New Roman;font-size:16.00;">C3</text>
</g>
<!-- C33&#45;&gt;VEH3 -->
<g id="edge11" class="edge"><title>C33&#45;&gt;VEH3</title>
<path style="fill:none;stroke:black;" d="M105,-620C103,-618 102,-617 100,-615"/>
<polygon style="fill:black;stroke:black;" points="101.831,-611.951 92,-608 97.221,-617.219 101.831,-611.951"/>
</g>
<!-- C103 -->
<g id="node13" class="node"><title>C103</title>
<text text-anchor="middle" x="137" y="-570.6" style="font-family:Times New Roman;font-size:16.00;">C10</text>
</g>
<!-- C103&#45;&gt;VEH3 -->
<g id="edge13" class="edge"><title>C103&#45;&gt;VEH3</title>
<path style="fill:none;stroke:black;" d="M110,-581C110,-581 110,-581 110,-581"/>
<polygon style="fill:black;stroke:black;" points="109.119,-577.607 100,-583 110.492,-584.471 109.119,-577.607"/>
</g>
<!-- C103&#45;&gt;C33 -->
<g id="edge15" class="edge"><title>C103&#45;&gt;C33</title>
<path style="fill:none;stroke:black;" d="M133,-593C132,-598 130,-604 129,-610"/>
<polygon style="fill:black;stroke:black;" points="125.512,-609.701 128,-620 132.478,-610.398 125.512,-609.701"/>
</g>
<!-- C303 -->
<g id="node14" class="node"><title>C303</title>
<text text-anchor="middle" x="46" y="-634.6" style="font-family:Times New Roman;font-size:16.00;">C30</text>
</g>
<!-- C303&#45;&gt;VEH3 -->
<g id="edge17" class="edge"><title>C303&#45;&gt;VEH3</title>
<path style="fill:none;stroke:black;" d="M56,-621C57,-620 57,-618 58,-617"/>
<polygon style="fill:black;stroke:black;" points="61.2031,-618.441 63,-608 55.084,-615.042 61.2031,-618.441"/>
</g>
<!-- VEH4 -->
<g id="node20" class="node"><title>VEH4</title>
<text text-anchor="middle" x="661" y="-438.6" style="font-family:Times New Roman;font-size:16.00;">VEH</text>
</g>
<!-- C34 -->
<g id="node21" class="node"><title>C34</title>
<text text-anchor="middle" x="723" y="-448.6" style="font-family:Times New Roman;font-size:16.00;">C3</text>
</g>
<!-- C34&#45;&gt;VEH4 -->
<g id="edge20" class="edge"><title>C34&#45;&gt;VEH4</title>
<path style="fill:none;stroke:black;" d="M696,-449C696,-449 696,-449 696,-449"/>
<polygon style="fill:black;stroke:black;" points="698.357,-445.767 688,-448 697.489,-452.713 698.357,-445.767"/>
</g>
<!-- C104 -->
<g id="node22" class="node"><title>C104</title>
<text text-anchor="middle" x="597" y="-391.6" style="font-family:Times New Roman;font-size:16.00;">C10</text>
</g>
<!-- C104&#45;&gt;VEH4 -->
<g id="edge22" class="edge"><title>C104&#45;&gt;VEH4</title>
<path style="fill:none;stroke:black;" d="M622,-414C624,-416 626,-417 629,-419"/>
<polygon style="fill:black;stroke:black;" points="626.9,-421.8 637,-425 631.1,-416.2 626.9,-421.8"/>
</g>
<!-- C304 -->
<g id="node23" class="node"><title>C304</title>
<text text-anchor="middle" x="586" y="-461.6" style="font-family:Times New Roman;font-size:16.00;">C30</text>
</g>
<!-- C104&#45;&gt;C304 -->
<g id="edge24" class="edge"><title>C104&#45;&gt;C304</title>
<path style="fill:none;stroke:black;" d="M594,-414C593,-422 592,-430 591,-438"/>
<polygon style="fill:black;stroke:black;" points="587.529,-437.508 589,-448 594.393,-438.881 587.529,-437.508"/>
</g>
<!-- C304&#45;&gt;VEH4 -->
<g id="edge26" class="edge"><title>C304&#45;&gt;VEH4</title>
<path style="fill:none;stroke:black;" d="M613,-458C617,-457 621,-456 624,-455"/>
<polygon style="fill:black;stroke:black;" points="626.015,-457.964 634,-451 623.415,-451.464 626.015,-457.964"/>
</g>
<!-- VEH5 -->
<g id="node29" class="node"><title>VEH5</title>
<text text-anchor="middle" x="226" y="-597.6" style="font-family:Times New Roman;font-size:16.00;">VEH</text>
</g>
<!-- C35 -->
<g id="node30" class="node"><title>C35</title>
<text text-anchor="middle" x="335" y="-601.6" style="font-family:Times New Roman;font-size:16.00;">C3</text>
</g>
<!-- C35&#45;&gt;VEH5 -->
<g id="edge29" class="edge"><title>C35&#45;&gt;VEH5</title>
<path style="fill:none;stroke:black;" d="M308,-605C294,-604 278,-604 263,-603"/>
<polygon style="fill:black;stroke:black;" points="263,-599.5 253,-603 263,-606.5 263,-599.5"/>
</g>
<!-- C105 -->
<g id="node31" class="node"><title>C105</title>
<text text-anchor="middle" x="281" y="-550.6" style="font-family:Times New Roman;font-size:16.00;">C10</text>
</g>
<!-- C105&#45;&gt;VEH5 -->
<g id="edge31" class="edge"><title>C105&#45;&gt;VEH5</title>
<path style="fill:none;stroke:black;" d="M260,-573C258,-575 257,-576 255,-578"/>
<polygon style="fill:black;stroke:black;" points="252.9,-575.2 247,-584 257.1,-580.8 252.9,-575.2"/>
</g>
<!-- C105&#45;&gt;C35 -->
<g id="edge33" class="edge"><title>C105&#45;&gt;C35</title>
<path style="fill:none;stroke:black;" d="M300,-573C303,-576 306,-578 309,-581"/>
<polygon style="fill:black;stroke:black;" points="306.454,-583.404 316,-588 311.404,-578.454 306.454,-583.404"/>
</g>
<!-- C305 -->
<g id="node32" class="node"><title>C305</title>
<text text-anchor="middle" x="259" y="-656.6" style="font-family:Times New Roman;font-size:16.00;">C30</text>
</g>
<!-- C105&#45;&gt;C305 -->
<g id="edge35" class="edge"><title>C105&#45;&gt;C305</title>
<path style="fill:none;stroke:black;" d="M277,-573C274,-590 269,-614 265,-633"/>
<polygon style="fill:black;stroke:black;" points="261.529,-632.508 263,-643 268.393,-633.881 261.529,-632.508"/>
</g>
<!-- C305&#45;&gt;VEH5 -->
<g id="edge37" class="edge"><title>C305&#45;&gt;VEH5</title>
<path style="fill:none;stroke:black;" d="M249,-643C247,-639 244,-634 241,-629"/>
<polygon style="fill:black;stroke:black;" points="243.916,-627.042 236,-620 237.797,-630.441 243.916,-627.042"/>
</g>
<!-- VEH6 -->
<g id="node39" class="node"><title>VEH6</title>
<text text-anchor="middle" x="267" y="-368.6" style="font-family:Times New Roman;font-size:16.00;">VEH</text>
</g>
<!-- C36 -->
<g id="node40" class="node"><title>C36</title>
<text text-anchor="middle" x="349" y="-400.6" style="font-family:Times New Roman;font-size:16.00;">C3</text>
</g>
<!-- C36&#45;&gt;VEH6 -->
<g id="edge40" class="edge"><title>C36&#45;&gt;VEH6</title>
<path style="fill:none;stroke:black;" d="M322,-394C316,-392 310,-390 304,-387"/>
<polygon style="fill:black;stroke:black;" points="304.585,-383.464 294,-383 301.985,-389.964 304.585,-383.464"/>
</g>
<!-- C106 -->
<g id="node41" class="node"><title>C106</title>
<text text-anchor="middle" x="291" y="-311.6" style="font-family:Times New Roman;font-size:16.00;">C10</text>
</g>
<!-- C106&#45;&gt;VEH6 -->
<g id="edge42" class="edge"><title>C106&#45;&gt;VEH6</title>
<path style="fill:none;stroke:black;" d="M283,-334C281,-338 280,-342 278,-345"/>
<polygon style="fill:black;stroke:black;" points="274.464,-344.415 274,-355 280.964,-347.015 274.464,-344.415"/>
</g>
<!-- C306 -->
<g id="node42" class="node"><title>C306</title>
<text text-anchor="middle" x="283" y="-444.6" style="font-family:Times New Roman;font-size:16.00;">C30</text>
</g>
<!-- C306&#45;&gt;VEH6 -->
<g id="edge44" class="edge"><title>C306&#45;&gt;VEH6</title>
<path style="fill:none;stroke:black;" d="M279,-431C277,-422 275,-411 273,-401"/>
<polygon style="fill:black;stroke:black;" points="276.393,-400.119 271,-391 269.529,-401.492 276.393,-400.119"/>
</g>
<!-- C306&#45;&gt;C36 -->
<g id="edge46" class="edge"><title>C306&#45;&gt;C36</title>
<path style="fill:none;stroke:black;" d="M310,-431C311,-430 312,-429 313,-429"/>
<polygon style="fill:black;stroke:black;" points="315.621,-431.459 322,-423 311.738,-425.635 315.621,-431.459"/>
</g>
<!-- VEH7 -->
<g id="node48" class="node"><title>VEH7</title>
<text text-anchor="middle" x="487" y="-623.6" style="font-family:Times New Roman;font-size:16.00;">VEH</text>
</g>
<!-- C37 -->
<g id="node49" class="node"><title>C37</title>
<text text-anchor="middle" x="590" y="-639.6" style="font-family:Times New Roman;font-size:16.00;">C3</text>
</g>
<!-- C37&#45;&gt;VEH7 -->
<g id="edge49" class="edge"><title>C37&#45;&gt;VEH7</title>
<path style="fill:none;stroke:black;" d="M563,-640C551,-638 537,-636 524,-634"/>
<polygon style="fill:black;stroke:black;" points="524.492,-630.529 514,-632 523.119,-637.393 524.492,-630.529"/>
</g>
<!-- C307 -->
<g id="node51" class="node"><title>C307</title>
<text text-anchor="middle" x="528" y="-676.6" style="font-family:Times New Roman;font-size:16.00;">C30</text>
</g>
<!-- C37&#45;&gt;C307 -->
<g id="edge51" class="edge"><title>C37&#45;&gt;C307</title>
<path style="fill:none;stroke:black;" d="M563,-660C563,-660 563,-660 563,-660"/>
<polygon style="fill:black;stroke:black;" points="561.625,-656.732 555,-665 565.335,-662.668 561.625,-656.732"/>
</g>
<!-- C107 -->
<g id="node50" class="node"><title>C107</title>
<text text-anchor="middle" x="536" y="-571.6" style="font-family:Times New Roman;font-size:16.00;">C10</text>
</g>
<!-- C107&#45;&gt;VEH7 -->
<g id="edge53" class="edge"><title>C107&#45;&gt;VEH7</title>
<path style="fill:none;stroke:black;" d="M519,-594C516,-597 514,-600 511,-603"/>
<polygon style="fill:black;stroke:black;" points="508.596,-600.454 504,-610 513.546,-605.404 508.596,-600.454"/>
</g>
<!-- C107&#45;&gt;C307 -->
<g id="edge55" class="edge"><title>C107&#45;&gt;C307</title>
<path style="fill:none;stroke:black;" d="M535,-594C533,-610 532,-634 530,-653"/>
<polygon style="fill:black;stroke:black;" points="526.512,-652.701 529,-663 533.478,-653.398 526.512,-652.701"/>
</g>
<!-- C307&#45;&gt;VEH7 -->
<g id="edge57" class="edge"><title>C307&#45;&gt;VEH7</title>
<path style="fill:none;stroke:black;" d="M514,-663C512,-660 509,-657 507,-654"/>
<polygon style="fill:black;stroke:black;" points="509.8,-651.9 501,-646 504.2,-656.1 509.8,-651.9"/>
</g>
<!-- VEH8 -->
<g id="node58" class="node"><title>VEH8</title>
<text text-anchor="middle" x="587" y="-236.6" style="font-family:Times New Roman;font-size:16.00;">VEH</text>
</g>
<!-- C38 -->
<g id="node59" class="node"><title>C38</title>
<text text-anchor="middle" x="694" y="-253.6" style="font-family:Times New Roman;font-size:16.00;">C3</text>
</g>
<!-- C38&#45;&gt;VEH8 -->
<g id="edge60" class="edge"><title>C38&#45;&gt;VEH8</title>
<path style="fill:none;stroke:black;" d="M667,-254C654,-252 638,-249 624,-247"/>
<polygon style="fill:black;stroke:black;" points="624.299,-243.512 614,-246 623.602,-250.478 624.299,-243.512"/>
</g>
<!-- C108 -->
<g id="node60" class="node"><title>C108</title>
<text text-anchor="middle" x="650" y="-191.6" style="font-family:Times New Roman;font-size:16.00;">C10</text>
</g>
<!-- C108&#45;&gt;VEH8 -->
<g id="edge62" class="edge"><title>C108&#45;&gt;VEH8</title>
<path style="fill:none;stroke:black;" d="M625,-214C624,-215 623,-216 621,-217"/>
<polygon style="fill:black;stroke:black;" points="618.9,-214.2 613,-223 623.1,-219.8 618.9,-214.2"/>
</g>
<!-- C108&#45;&gt;C38 -->
<g id="edge64" class="edge"><title>C108&#45;&gt;C38</title>
<path style="fill:none;stroke:black;" d="M663,-214C667,-219 671,-226 675,-232"/>
<polygon style="fill:black;stroke:black;" points="672.2,-234.1 681,-240 677.8,-229.9 672.2,-234.1"/>
</g>
<!-- C308 -->
<g id="node61" class="node"><title>C308</title>
<text text-anchor="middle" x="631" y="-298.6" style="font-family:Times New Roman;font-size:16.00;">C30</text>
</g>
<!-- C308&#45;&gt;VEH8 -->
<g id="edge66" class="edge"><title>C308&#45;&gt;VEH8</title>
<path style="fill:none;stroke:black;" d="M618,-285C614,-280 610,-273 606,-267"/>
<polygon style="fill:black;stroke:black;" points="608.8,-264.9 600,-259 603.2,-269.1 608.8,-264.9"/>
</g>
<!-- C308&#45;&gt;C38 -->
<g id="edge68" class="edge"><title>C308&#45;&gt;C38</title>
<path style="fill:none;stroke:black;" d="M656,-285C657,-284 659,-283 660,-282"/>
<polygon style="fill:black;stroke:black;" points="662.1,-284.8 668,-276 657.9,-279.2 662.1,-284.8"/>
</g>
<!-- C308&#45;&gt;C108 -->
<g id="edge70" class="edge"><title>C308&#45;&gt;C108</title>
<path style="fill:none;stroke:black;" d="M634,-285C637,-268 641,-243 645,-224"/>
<polygon style="fill:black;stroke:black;" points="648.471,-224.492 647,-214 641.607,-223.119 648.471,-224.492"/>
</g>
<!-- VEH9 -->
<g id="node69" class="node"><title>VEH9</title>
<text text-anchor="middle" x="686" y="-759.6" style="font-family:Times New Roman;font-size:16.00;">VEH</text>
</g>
<!-- C39 -->
<g id="node70" class="node"><title>C39</title>
<text text-anchor="middle" x="753" y="-768.6" style="font-family:Times New Roman;font-size:16.00;">C3</text>
</g>
<!-- C39&#45;&gt;VEH9 -->
<g id="edge73" class="edge"><title>C39&#45;&gt;VEH9</title>
<path style="fill:none;stroke:black;" d="M726,-769C725,-769 724,-769 723,-769"/>
<polygon style="fill:black;stroke:black;" points="723.299,-765.512 713,-768 722.602,-772.478 723.299,-765.512"/>
</g>
<!-- C109 -->
<g id="node71" class="node"><title>C109</title>
<text text-anchor="middle" x="729" y="-711.6" style="font-family:Times New Roman;font-size:16.00;">C10</text>
</g>
<!-- C109&#45;&gt;VEH9 -->
<g id="edge75" class="edge"><title>C109&#45;&gt;VEH9</title>
<path style="fill:none;stroke:black;" d="M713,-734C712,-735 711,-737 710,-738"/>
<polygon style="fill:black;stroke:black;" points="706.951,-736.169 703,-746 712.219,-740.779 706.951,-736.169"/>
</g>
<!-- C109&#45;&gt;C39 -->
<g id="edge77" class="edge"><title>C109&#45;&gt;C39</title>
<path style="fill:none;stroke:black;" d="M737,-734C739,-738 740,-742 742,-745"/>
<polygon style="fill:black;stroke:black;" points="739.036,-747.015 746,-755 745.536,-744.415 739.036,-747.015"/>
</g>
<!-- C309 -->
<g id="node72" class="node"><title>C309</title>
<text text-anchor="middle" x="710" y="-812.6" style="font-family:Times New Roman;font-size:16.00;">C30</text>
</g>
<!-- C309&#45;&gt;VEH9 -->
<g id="edge79" class="edge"><title>C309&#45;&gt;VEH9</title>
<path style="fill:none;stroke:black;" d="M702,-799C701,-797 700,-794 699,-791"/>
<polygon style="fill:black;stroke:black;" points="702.26,-789.717 695,-782 695.863,-792.56 702.26,-789.717"/>
</g>
<!-- C309&#45;&gt;C39 -->
<g id="edge81" class="edge"><title>C309&#45;&gt;C39</title>
<path style="fill:none;stroke:black;" d="M728,-799C728,-799 729,-798 729,-798"/>
<polygon style="fill:black;stroke:black;" points="731.404,-800.546 736,-791 726.454,-795.596 731.404,-800.546"/>
</g>
<!-- VEH10 -->
<g id="node79" class="node"><title>VEH10</title>
<text text-anchor="middle" x="427" y="-408.6" style="font-family:Times New Roman;font-size:16.00;">VEH</text>
</g>
<!-- C310 -->
<g id="node80" class="node"><title>C310</title>
<text text-anchor="middle" x="509" y="-440.6" style="font-family:Times New Roman;font-size:16.00;">C3</text>
</g>
<!-- C310&#45;&gt;VEH10 -->
<g id="edge84" class="edge"><title>C310&#45;&gt;VEH10</title>
<path style="fill:none;stroke:black;" d="M482,-434C476,-432 470,-430 464,-427"/>
<polygon style="fill:black;stroke:black;" points="464.585,-423.464 454,-423 461.985,-429.964 464.585,-423.464"/>
</g>
<!-- C3010 -->
<g id="node82" class="node"><title>C3010</title>
<text text-anchor="middle" x="443" y="-484.6" style="font-family:Times New Roman;font-size:16.00;">C30</text>
</g>
<!-- C310&#45;&gt;C3010 -->
<g id="edge86" class="edge"><title>C310&#45;&gt;C3010</title>
<path style="fill:none;stroke:black;" d="M482,-463C481,-464 480,-465 479,-465"/>
<polygon style="fill:black;stroke:black;" points="476.379,-462.541 470,-471 480.262,-468.365 476.379,-462.541"/>
</g>
<!-- C1010 -->
<g id="node81" class="node"><title>C1010</title>
<text text-anchor="middle" x="451" y="-351.6" style="font-family:Times New Roman;font-size:16.00;">C10</text>
</g>
<!-- C1010&#45;&gt;VEH10 -->
<g id="edge88" class="edge"><title>C1010&#45;&gt;VEH10</title>
<path style="fill:none;stroke:black;" d="M443,-374C441,-378 440,-382 438,-385"/>
<polygon style="fill:black;stroke:black;" points="434.464,-384.415 434,-395 440.964,-387.015 434.464,-384.415"/>
</g>
<!-- C3010&#45;&gt;VEH10 -->
<g id="edge90" class="edge"><title>C3010&#45;&gt;VEH10</title>
<path style="fill:none;stroke:black;" d="M439,-471C437,-462 435,-451 433,-441"/>
<polygon style="fill:black;stroke:black;" points="436.393,-440.119 431,-431 429.529,-441.492 436.393,-440.119"/>
</g>
<!-- VEH11 -->
<g id="node88" class="node"><title>VEH11</title>
<text text-anchor="middle" x="67" y="-403.6" style="font-family:Times New Roman;font-size:16.00;">VEH</text>
</g>
<!-- C311 -->
<g id="node89" class="node"><title>C311</title>
<text text-anchor="middle" x="170" y="-419.6" style="font-family:Times New Roman;font-size:16.00;">C3</text>
</g>
<!-- C311&#45;&gt;VEH11 -->
<g id="edge93" class="edge"><title>C311&#45;&gt;VEH11</title>
<path style="fill:none;stroke:black;" d="M143,-420C131,-418 117,-416 104,-414"/>
<polygon style="fill:black;stroke:black;" points="104.492,-410.529 94,-412 103.119,-417.393 104.492,-410.529"/>
</g>
<!-- C1011 -->
<g id="node90" class="node"><title>C1011</title>
<text text-anchor="middle" x="116" y="-351.6" style="font-family:Times New Roman;font-size:16.00;">C10</text>
</g>
<!-- C1011&#45;&gt;VEH11 -->
<g id="edge95" class="edge"><title>C1011&#45;&gt;VEH11</title>
<path style="fill:none;stroke:black;" d="M99,-374C96,-377 94,-380 91,-383"/>
<polygon style="fill:black;stroke:black;" points="88.5962,-380.454 84,-390 93.546,-385.404 88.5962,-380.454"/>
</g>
<!-- C3011 -->
<g id="node91" class="node"><title>C3011</title>
<text text-anchor="middle" x="108" y="-456.6" style="font-family:Times New Roman;font-size:16.00;">C30</text>
</g>
<!-- C3011&#45;&gt;VEH11 -->
<g id="edge97" class="edge"><title>C3011&#45;&gt;VEH11</title>
<path style="fill:none;stroke:black;" d="M94,-443C92,-440 89,-437 87,-434"/>
<polygon style="fill:black;stroke:black;" points="89.8,-431.9 81,-426 84.2,-436.1 89.8,-431.9"/>
</g>
<!-- C3011&#45;&gt;C311 -->
<g id="edge99" class="edge"><title>C3011&#45;&gt;C311</title>
<path style="fill:none;stroke:black;" d="M135,-445C135,-445 135,-445 135,-445"/>
<polygon style="fill:black;stroke:black;" points="136.375,-448.268 143,-440 132.665,-442.332 136.375,-448.268"/>
</g>
<!-- C3011&#45;&gt;C1011 -->
<g id="edge101" class="edge"><title>C3011&#45;&gt;C1011</title>
<path style="fill:none;stroke:black;" d="M109,-443C111,-427 112,-403 114,-384"/>
<polygon style="fill:black;stroke:black;" points="117.488,-384.299 115,-374 110.522,-383.602 117.488,-384.299"/>
</g>
<!-- VEH12 -->
<g id="node98" class="node"><title>VEH12</title>
<text text-anchor="middle" x="761" y="-598.6" style="font-family:Times New Roman;font-size:16.00;">VEH</text>
</g>
<!-- C312 -->
<g id="node99" class="node"><title>C312</title>
<text text-anchor="middle" x="823" y="-608.6" style="font-family:Times New Roman;font-size:16.00;">C3</text>
</g>
<!-- C312&#45;&gt;VEH12 -->
<g id="edge104" class="edge"><title>C312&#45;&gt;VEH12</title>
<path style="fill:none;stroke:black;" d="M796,-609C796,-609 796,-609 796,-609"/>
<polygon style="fill:black;stroke:black;" points="798.357,-605.767 788,-608 797.489,-612.713 798.357,-605.767"/>
</g>
<!-- C1012 -->
<g id="node100" class="node"><title>C1012</title>
<text text-anchor="middle" x="697" y="-551.6" style="font-family:Times New Roman;font-size:16.00;">C10</text>
</g>
<!-- C1012&#45;&gt;VEH12 -->
<g id="edge106" class="edge"><title>C1012&#45;&gt;VEH12</title>
<path style="fill:none;stroke:black;" d="M722,-574C724,-576 726,-577 729,-579"/>
<polygon style="fill:black;stroke:black;" points="726.9,-581.8 737,-585 731.1,-576.2 726.9,-581.8"/>
</g>
<!-- C3012 -->
<g id="node101" class="node"><title>C3012</title>
<text text-anchor="middle" x="686" y="-621.6" style="font-family:Times New Roman;font-size:16.00;">C30</text>
</g>
<!-- C3012&#45;&gt;VEH12 -->
<g id="edge108" class="edge"><title>C3012&#45;&gt;VEH12</title>
<path style="fill:none;stroke:black;" d="M713,-618C717,-617 721,-616 724,-615"/>
<polygon style="fill:black;stroke:black;" points="726.015,-617.964 734,-611 723.415,-611.464 726.015,-617.964"/>
</g>
<!-- C3012&#45;&gt;C1012 -->
<g id="edge110" class="edge"><title>C3012&#45;&gt;C1012</title>
<path style="fill:none;stroke:black;" d="M689,-608C690,-601 692,-592 693,-584"/>
<polygon style="fill:black;stroke:black;" points="696.488,-584.299 694,-574 689.522,-583.602 696.488,-584.299"/>
</g>
<!-- VEH13 -->
<g id="node107" class="node"><title>VEH13</title>
<text text-anchor="middle" x="493" y="-45.6" style="font-family:Times New Roman;font-size:16.00;">VEH</text>
</g>
<!-- C313 -->
<g id="node108" class="node"><title>C313</title>
<text text-anchor="middle" x="544" y="-93.6" style="font-family:Times New Roman;font-size:16.00;">C3</text>
</g>
<!-- C313&#45;&gt;VEH13 -->
<g id="edge113" class="edge"><title>C313&#45;&gt;VEH13</title>
<path style="fill:none;stroke:black;" d="M525,-80C523,-78 522,-77 520,-75"/>
<polygon style="fill:black;stroke:black;" points="521.831,-71.9511 512,-68 517.221,-77.2191 521.831,-71.9511"/>
</g>
<!-- C1013 -->
<g id="node109" class="node"><title>C1013</title>
<text text-anchor="middle" x="557" y="-30.6" style="font-family:Times New Roman;font-size:16.00;">C10</text>
</g>
<!-- C313&#45;&gt;C1013 -->
<g id="edge115" class="edge"><title>C313&#45;&gt;C1013</title>
<path style="fill:none;stroke:black;" d="M548,-80C549,-75 551,-69 552,-63"/>
<polygon style="fill:black;stroke:black;" points="555.488,-63.2987 553,-53 548.522,-62.6021 555.488,-63.2987"/>
</g>
<!-- C1013&#45;&gt;VEH13 -->
<g id="edge117" class="edge"><title>C1013&#45;&gt;VEH13</title>
<path style="fill:none;stroke:black;" d="M530,-41C530,-41 530,-41 530,-41"/>
<polygon style="fill:black;stroke:black;" points="529.119,-37.6067 520,-43 530.492,-44.4708 529.119,-37.6067"/>
</g>
<!-- C3013 -->
<g id="node110" class="node"><title>C3013</title>
<text text-anchor="middle" x="466" y="-94.6" style="font-family:Times New Roman;font-size:16.00;">C30</text>
</g>
<!-- C3013&#45;&gt;VEH13 -->
<g id="edge119" class="edge"><title>C3013&#45;&gt;VEH13</title>
<path style="fill:none;stroke:black;" d="M476,-81C477,-80 477,-78 478,-77"/>
<polygon style="fill:black;stroke:black;" points="481.203,-78.4414 483,-68 475.084,-75.0418 481.203,-78.4414"/>
</g>
<!-- VEH14 -->
<g id="node116" class="node"><title>VEH14</title>
<text text-anchor="middle" x="526" y="-819.6" style="font-family:Times New Roman;font-size:16.00;">VEH</text>
</g>
<!-- C314 -->
<g id="node117" class="node"><title>C314</title>
<text text-anchor="middle" x="593" y="-828.6" style="font-family:Times New Roman;font-size:16.00;">C3</text>
</g>
<!-- C314&#45;&gt;VEH14 -->
<g id="edge122" class="edge"><title>C314&#45;&gt;VEH14</title>
<path style="fill:none;stroke:black;" d="M566,-829C565,-829 564,-829 563,-829"/>
<polygon style="fill:black;stroke:black;" points="563.299,-825.512 553,-828 562.602,-832.478 563.299,-825.512"/>
</g>
<!-- C1014 -->
<g id="node118" class="node"><title>C1014</title>
<text text-anchor="middle" x="569" y="-771.6" style="font-family:Times New Roman;font-size:16.00;">C10</text>
</g>
<!-- C314&#45;&gt;C1014 -->
<g id="edge124" class="edge"><title>C314&#45;&gt;C1014</title>
<path style="fill:none;stroke:black;" d="M585,-815C583,-811 582,-807 580,-804"/>
<polygon style="fill:black;stroke:black;" points="582.964,-801.985 576,-794 576.464,-804.585 582.964,-801.985"/>
</g>
<!-- C3014 -->
<g id="node119" class="node"><title>C3014</title>
<text text-anchor="middle" x="550" y="-872.6" style="font-family:Times New Roman;font-size:16.00;">C30</text>
</g>
<!-- C314&#45;&gt;C3014 -->
<g id="edge126" class="edge"><title>C314&#45;&gt;C3014</title>
<path style="fill:none;stroke:black;" d="M575,-851C575,-851 574,-852 574,-852"/>
<polygon style="fill:black;stroke:black;" points="571.596,-849.454 567,-859 576.546,-854.404 571.596,-849.454"/>
</g>
<!-- C1014&#45;&gt;VEH14 -->
<g id="edge128" class="edge"><title>C1014&#45;&gt;VEH14</title>
<path style="fill:none;stroke:black;" d="M553,-794C552,-795 551,-797 550,-798"/>
<polygon style="fill:black;stroke:black;" points="546.951,-796.169 543,-806 552.219,-800.779 546.951,-796.169"/>
</g>
<!-- C3014&#45;&gt;VEH14 -->
<g id="edge130" class="edge"><title>C3014&#45;&gt;VEH14</title>
<path style="fill:none;stroke:black;" d="M542,-859C541,-857 540,-854 539,-851"/>
<polygon style="fill:black;stroke:black;" points="542.26,-849.717 535,-842 535.863,-852.56 542.26,-849.717"/>
</g>
<!-- VEH15 -->
<g id="node126" class="node"><title>VEH15</title>
<text text-anchor="middle" x="67" y="-196.6" style="font-family:Times New Roman;font-size:16.00;">VEH</text>
</g>
<!-- C315 -->
<g id="node127" class="node"><title>C315</title>
<text text-anchor="middle" x="174" y="-213.6" style="font-family:Times New Roman;font-size:16.00;">C3</text>
</g>
<!-- C315&#45;&gt;VEH15 -->
<g id="edge133" class="edge"><title>C315&#45;&gt;VEH15</title>
<path style="fill:none;stroke:black;" d="M147,-214C134,-212 118,-209 104,-207"/>
<polygon style="fill:black;stroke:black;" points="104.299,-203.512 94,-206 103.602,-210.478 104.299,-203.512"/>
</g>
<!-- C1015 -->
<g id="node128" class="node"><title>C1015</title>
<text text-anchor="middle" x="130" y="-151.6" style="font-family:Times New Roman;font-size:16.00;">C10</text>
</g>
<!-- C1015&#45;&gt;VEH15 -->
<g id="edge135" class="edge"><title>C1015&#45;&gt;VEH15</title>
<path style="fill:none;stroke:black;" d="M105,-174C104,-175 103,-176 101,-177"/>
<polygon style="fill:black;stroke:black;" points="98.9,-174.2 93,-183 103.1,-179.8 98.9,-174.2"/>
</g>
<!-- C1015&#45;&gt;C315 -->
<g id="edge137" class="edge"><title>C1015&#45;&gt;C315</title>
<path style="fill:none;stroke:black;" d="M143,-174C147,-179 151,-186 155,-192"/>
<polygon style="fill:black;stroke:black;" points="152.2,-194.1 161,-200 157.8,-189.9 152.2,-194.1"/>
</g>
<!-- C3015 -->
<g id="node129" class="node"><title>C3015</title>
<text text-anchor="middle" x="111" y="-258.6" style="font-family:Times New Roman;font-size:16.00;">C30</text>
</g>
<!-- C1015&#45;&gt;C3015 -->
<g id="edge139" class="edge"><title>C1015&#45;&gt;C3015</title>
<path style="fill:none;stroke:black;" d="M127,-174C124,-191 120,-216 116,-235"/>
<polygon style="fill:black;stroke:black;" points="112.529,-234.508 114,-245 119.393,-235.881 112.529,-234.508"/>
</g>
<!-- C3015&#45;&gt;VEH15 -->
<g id="edge141" class="edge"><title>C3015&#45;&gt;VEH15</title>
<path style="fill:none;stroke:black;" d="M98,-245C94,-240 90,-233 86,-227"/>
<polygon style="fill:black;stroke:black;" points="88.8,-224.9 80,-219 83.2,-229.1 88.8,-224.9"/>
</g>
<!-- C3015&#45;&gt;C315 -->
<g id="edge143" class="edge"><title>C3015&#45;&gt;C315</title>
<path style="fill:none;stroke:black;" d="M136,-245C137,-244 139,-243 140,-242"/>
<polygon style="fill:black;stroke:black;" points="142.1,-244.8 148,-236 137.9,-239.2 142.1,-244.8"/>
</g>
<!-- VEH16 -->
<g id="node137" class="node"><title>VEH16</title>
<text text-anchor="middle" x="266" y="-157.6" style="font-family:Times New Roman;font-size:16.00;">VEH</text>
</g>
<!-- C316 -->
<g id="node138" class="node"><title>C316</title>
<text text-anchor="middle" x="375" y="-161.6" style="font-family:Times New Roman;font-size:16.00;">C3</text>
</g>
<!-- C316&#45;&gt;VEH16 -->
<g id="edge146" class="edge"><title>C316&#45;&gt;VEH16</title>
<path style="fill:none;stroke:black;" d="M348,-165C334,-164 318,-164 303,-163"/>
<polygon style="fill:black;stroke:black;" points="303,-159.5 293,-163 303,-166.5 303,-159.5"/>
</g>
<!-- C1016 -->
<g id="node139" class="node"><title>C1016</title>
<text text-anchor="middle" x="321" y="-110.6" style="font-family:Times New Roman;font-size:16.00;">C10</text>
</g>
<!-- C316&#45;&gt;C1016 -->
<g id="edge148" class="edge"><title>C316&#45;&gt;C1016</title>
<path style="fill:none;stroke:black;" d="M356,-148C353,-145 350,-143 347,-140"/>
<polygon style="fill:black;stroke:black;" points="349.546,-137.596 340,-133 344.596,-142.546 349.546,-137.596"/>
</g>
<!-- C1016&#45;&gt;VEH16 -->
<g id="edge150" class="edge"><title>C1016&#45;&gt;VEH16</title>
<path style="fill:none;stroke:black;" d="M300,-133C298,-135 297,-136 295,-138"/>
<polygon style="fill:black;stroke:black;" points="292.9,-135.2 287,-144 297.1,-140.8 292.9,-135.2"/>
</g>
<!-- C3016 -->
<g id="node140" class="node"><title>C3016</title>
<text text-anchor="middle" x="299" y="-216.6" style="font-family:Times New Roman;font-size:16.00;">C30</text>
</g>
<!-- C3016&#45;&gt;VEH16 -->
<g id="edge152" class="edge"><title>C3016&#45;&gt;VEH16</title>
<path style="fill:none;stroke:black;" d="M289,-203C287,-199 284,-194 281,-189"/>
<polygon style="fill:black;stroke:black;" points="283.916,-187.042 276,-180 277.797,-190.441 283.916,-187.042"/>
</g>
<!-- C3016&#45;&gt;C1016 -->
<g id="edge154" class="edge"><title>C3016&#45;&gt;C1016</title>
<path style="fill:none;stroke:black;" d="M303,-203C306,-186 311,-162 315,-143"/>
<polygon style="fill:black;stroke:black;" points="318.471,-143.492 317,-133 311.607,-142.119 318.471,-143.492"/>
</g>
<!-- VEH17 -->
<g id="node147" class="node"><title>VEH17</title>
<text text-anchor="middle" x="287" y="-796.6" style="font-family:Times New Roman;font-size:16.00;">VEH</text>
</g>
<!-- C317 -->
<g id="node148" class="node"><title>C317</title>
<text text-anchor="middle" x="394" y="-813.6" style="font-family:Times New Roman;font-size:16.00;">C3</text>
</g>
<!-- C317&#45;&gt;VEH17 -->
<g id="edge157" class="edge"><title>C317&#45;&gt;VEH17</title>
<path style="fill:none;stroke:black;" d="M367,-814C354,-812 338,-809 324,-807"/>
<polygon style="fill:black;stroke:black;" points="324.299,-803.512 314,-806 323.602,-810.478 324.299,-803.512"/>
</g>
<!-- C1017 -->
<g id="node149" class="node"><title>C1017</title>
<text text-anchor="middle" x="350" y="-751.6" style="font-family:Times New Roman;font-size:16.00;">C10</text>
</g>
<!-- C317&#45;&gt;C1017 -->
<g id="edge159" class="edge"><title>C317&#45;&gt;C1017</title>
<path style="fill:none;stroke:black;" d="M381,-800C377,-795 373,-788 369,-782"/>
<polygon style="fill:black;stroke:black;" points="371.8,-779.9 363,-774 366.2,-784.1 371.8,-779.9"/>
</g>
<!-- C3017 -->
<g id="node150" class="node"><title>C3017</title>
<text text-anchor="middle" x="331" y="-858.6" style="font-family:Times New Roman;font-size:16.00;">C30</text>
</g>
<!-- C317&#45;&gt;C3017 -->
<g id="edge161" class="edge"><title>C317&#45;&gt;C3017</title>
<path style="fill:none;stroke:black;" d="M369,-836C368,-837 367,-838 365,-839"/>
<polygon style="fill:black;stroke:black;" points="362.9,-836.2 357,-845 367.1,-841.8 362.9,-836.2"/>
</g>
<!-- C1017&#45;&gt;VEH17 -->
<g id="edge163" class="edge"><title>C1017&#45;&gt;VEH17</title>
<path style="fill:none;stroke:black;" d="M325,-774C324,-775 323,-776 321,-777"/>
<polygon style="fill:black;stroke:black;" points="318.9,-774.2 313,-783 323.1,-779.8 318.9,-774.2"/>
</g>
<!-- C1017&#45;&gt;C3017 -->
<g id="edge165" class="edge"><title>C1017&#45;&gt;C3017</title>
<path style="fill:none;stroke:black;" d="M347,-774C344,-791 340,-816 336,-835"/>
<polygon style="fill:black;stroke:black;" points="332.529,-834.508 334,-845 339.393,-835.881 332.529,-834.508"/>
</g>
<!-- C3017&#45;&gt;VEH17 -->
<g id="edge167" class="edge"><title>C3017&#45;&gt;VEH17</title>
<path style="fill:none;stroke:black;" d="M318,-845C314,-840 310,-833 306,-827"/>
<polygon style="fill:black;stroke:black;" points="308.8,-824.9 300,-819 303.2,-829.1 308.8,-824.9"/>
</g>
</g>
</svg>
