<?xml version="1.0" encoding="UTF-8" standalone="no"?>
<!DOCTYPE svg PUBLIC "-//W3C//DTD SVG 1.1//EN"
 "http://www.w3.org/Graphics/SVG/1.1/DTD/svg11.dtd">
<!-- Generated by graphviz version 2.26.3 (20100126.1600)
 -->
<!-- Title: TDAGS Pages: 1 -->
<svg width="932pt" height="848pt"
 viewBox="0.00 0.00 932.00 848.00" xmlns="http://www.w3.org/2000/svg" xmlns:xlink="http://www.w3.org/1999/xlink">
<g id="graph1" class="graph" transform="scale(1 1) rotate(0) translate(4 844)">
<title>TDAGS</title>
<polygon fill="white" stroke="white" points="-4,5 -4,-844 929,-844 929,5 -4,5"/>
<g id="graph2" class="cluster"><title>cluster_0</title>
<polygon fill="none" stroke="black" points="1.23812,-0.140888 1.23812,-839.141 923.238,-839.141 923.238,-0.140888 1.23812,-0.140888"/>
</g>
<g id="graph3" class="cluster"><title>cluster_1</title>
<polygon fill="lightgrey" stroke="black" points="298.976,-332.282 298.976,-455.282 499.976,-455.282 499.976,-332.282 298.976,-332.282"/>
<text text-anchor="middle" x="399.476" y="-438.682" font-family="Times Roman,serif" font-size="14.00">100</text>
</g>
<g id="graph4" class="cluster"><title>cluster_2</title>
<polygon fill="lightgrey" stroke="black" points="485.976,-485.282 485.976,-608.282 686.976,-608.282 686.976,-485.282 485.976,-485.282"/>
<text text-anchor="middle" x="586.476" y="-591.682" font-family="Times Roman,serif" font-size="14.00">122</text>
</g>
<g id="graph5" class="cluster"><title>cluster_3</title>
<polygon fill="lightgrey" stroke="black" points="315.976,-485.282 315.976,-660.282 448.976,-660.282 448.976,-485.282 315.976,-485.282"/>
<text text-anchor="middle" x="382.476" y="-643.682" font-family="Times Roman,serif" font-size="14.00">210</text>
</g>
<g id="graph6" class="cluster"><title>cluster_4</title>
<polygon fill="lightgrey" stroke="black" points="536.976,-263.782 536.976,-437.782 677.976,-437.782 677.976,-263.782 536.976,-263.782"/>
<text text-anchor="middle" x="607.476" y="-421.182" font-family="Times Roman,serif" font-size="14.00">221</text>
</g>
<g id="graph7" class="cluster"><title>cluster_5</title>
<polygon fill="lightgrey" stroke="black" points="638.976,-637.782 638.976,-811.782 779.976,-811.782 779.976,-637.782 638.976,-637.782"/>
<text text-anchor="middle" x="709.476" y="-795.182" font-family="Times Roman,serif" font-size="14.00">001</text>
</g>
<g id="graph8" class="cluster"><title>cluster_6</title>
<polygon fill="lightgrey" stroke="black" points="706.976,-264.282 706.976,-401.282 845.976,-401.282 845.976,-264.282 706.976,-264.282"/>
<text text-anchor="middle" x="776.476" y="-384.682" font-family="Times Roman,serif" font-size="14.00">000</text>
</g>
<g id="graph9" class="cluster"><title>cluster_7</title>
<polygon fill="lightgrey" stroke="black" points="723.976,-434.282 723.976,-571.282 862.976,-571.282 862.976,-434.282 723.976,-434.282"/>
<text text-anchor="middle" x="793.476" y="-554.682" font-family="Times Roman,serif" font-size="14.00">220</text>
</g>
<g id="graph10" class="cluster"><title>cluster_8</title>
<polygon fill="lightgrey" stroke="black" points="145.976,-655.282 145.976,-830.282 278.976,-830.282 278.976,-655.282 145.976,-655.282"/>
<text text-anchor="middle" x="212.476" y="-813.682" font-family="Times Roman,serif" font-size="14.00">012</text>
</g>
<g id="graph11" class="cluster"><title>cluster_9</title>
<polygon fill="none" stroke="black" points="180.476,-179.282 180.476,-308.282 336.476,-308.282 336.476,-179.282 180.476,-179.282"/>
<text text-anchor="middle" x="258.476" y="-291.682" font-family="Times Roman,serif" font-size="14.00">101</text>
</g>
<g id="graph12" class="cluster"><title>cluster_10</title>
<polygon fill="lightgrey" stroke="black" points="774.976,-26.2818 774.976,-163.282 913.976,-163.282 913.976,-26.2818 774.976,-26.2818"/>
<text text-anchor="middle" x="844.476" y="-146.682" font-family="Times Roman,serif" font-size="14.00">222</text>
</g>
<g id="graph13" class="cluster"><title>cluster_11</title>
<polygon fill="lightgrey" stroke="black" points="9.97623,-179.282 9.97623,-316.282 148.976,-316.282 148.976,-179.282 9.97623,-179.282"/>
<text text-anchor="middle" x="79.4762" y="-299.682" font-family="Times Roman,serif" font-size="14.00">200</text>
</g>
<g id="graph14" class="cluster"><title>cluster_12</title>
<polygon fill="lightgrey" stroke="black" points="9.97623,-9.28178 9.97623,-146.282 148.976,-146.282 148.976,-9.28178 9.97623,-9.28178"/>
<text text-anchor="middle" x="79.4762" y="-129.682" font-family="Times Roman,serif" font-size="14.00">022</text>
</g>
<g id="graph15" class="cluster"><title>cluster_13</title>
<polygon fill="none" stroke="black" points="129.476,-502.282 129.476,-631.282 285.476,-631.282 285.476,-502.282 129.476,-502.282"/>
<text text-anchor="middle" x="207.476" y="-614.682" font-family="Times Roman,serif" font-size="14.00">211</text>
</g>
<g id="graph16" class="cluster"><title>cluster_14</title>
<polygon fill="none" stroke="black" points="401.476,-111.282 401.476,-240.282 557.476,-240.282 557.476,-111.282 401.476,-111.282"/>
<text text-anchor="middle" x="479.476" y="-223.682" font-family="Times Roman,serif" font-size="14.00">110</text>
</g>
<g id="graph17" class="cluster"><title>cluster_15</title>
<polygon fill="none" stroke="black" points="588.476,-111.282 588.476,-240.282 744.476,-240.282 744.476,-111.282 588.476,-111.282"/>
<text text-anchor="middle" x="666.476" y="-223.682" font-family="Times Roman,serif" font-size="14.00">121</text>
</g>
<g id="graph18" class="cluster"><title>cluster_16</title>
<polygon fill="lightgrey" stroke="black" points="179.976,-9.28178 179.976,-146.282 318.976,-146.282 318.976,-9.28178 179.976,-9.28178"/>
<text text-anchor="middle" x="249.476" y="-129.682" font-family="Times Roman,serif" font-size="14.00">002</text>
</g>
<g id="graph19" class="cluster"><title>cluster_17</title>
<polygon fill="none" stroke="black" points="452.476,-689.282 452.476,-818.282 608.476,-818.282 608.476,-689.282 452.476,-689.282"/>
<text text-anchor="middle" x="530.476" y="-801.682" font-family="Times Roman,serif" font-size="14.00">011</text>
</g>
<g id="graph20" class="cluster"><title>cluster_18</title>
<polygon fill="none" stroke="black" points="112.476,-349.282 112.476,-478.282 268.476,-478.282 268.476,-349.282 112.476,-349.282"/>
<text text-anchor="middle" x="190.476" y="-461.682" font-family="Times Roman,serif" font-size="14.00">112</text>
</g>
<!-- VEH1 -->
<g id="node3" class="node"><title>VEH1</title>
<text text-anchor="middle" x="335.316" y="-399.433" font-family="Times Roman,serif" font-size="12.00">VEH</text>
</g>
<!-- C101 -->
<g id="node5" class="node"><title>C101</title>
<text text-anchor="middle" x="400.734" y="-356.393" font-family="Times Roman,serif" font-size="12.00">C10</text>
</g>
<!-- VEH1&#45;&gt;C101 -->
<g id="edge4" class="edge"><title>VEH1&#45;&gt;C101</title>
<path fill="none" stroke="black" d="M362.68,-384.73C363.476,-384.206 364.277,-383.679 365.08,-383.15"/>
<polygon fill="black" stroke="black" points="367.259,-385.907 373.689,-377.487 363.411,-380.059 367.259,-385.907"/>
</g>
<!-- D3T1 -->
<g id="node4" class="node"><title>D3T1</title>
<text text-anchor="middle" x="463.934" y="-397.253" font-family="Times Roman,serif" font-size="12.00">D3T</text>
</g>
<!-- D3T1&#45;&gt;C101 -->
<g id="edge6" class="edge"><title>D3T1&#45;&gt;C101</title>
<path fill="none" stroke="black" d="M436.765,-382.987C436.673,-382.928 436.581,-382.868 436.489,-382.809"/>
<polygon fill="black" stroke="black" points="438.178,-379.733 427.88,-377.243 434.378,-385.612 438.178,-379.733"/>
</g>
<!-- VEH2 -->
<g id="node9" class="node"><title>VEH2</title>
<text text-anchor="middle" x="522.316" y="-552.433" font-family="Times Roman,serif" font-size="12.00">VEH</text>
</g>
<!-- D3T2 -->
<g id="node10" class="node"><title>D3T2</title>
<text text-anchor="middle" x="650.934" y="-550.253" font-family="Times Roman,serif" font-size="12.00">D3T</text>
</g>
<!-- C102 -->
<g id="node11" class="node"><title>C102</title>
<text text-anchor="middle" x="587.734" y="-509.393" font-family="Times Roman,serif" font-size="12.00">C10</text>
</g>
<!-- C102&#45;&gt;VEH2 -->
<g id="edge9" class="edge"><title>C102&#45;&gt;VEH2</title>
<path fill="none" stroke="black" d="M560.37,-530.697C559.573,-531.221 558.772,-531.748 557.969,-532.276"/>
<polygon fill="black" stroke="black" points="555.791,-529.519 549.361,-537.94 559.638,-535.367 555.791,-529.519"/>
</g>
<!-- C102&#45;&gt;D3T2 -->
<g id="edge11" class="edge"><title>C102&#45;&gt;D3T2</title>
<path fill="none" stroke="black" d="M614.903,-530.258C614.995,-530.318 615.087,-530.377 615.179,-530.437"/>
<polygon fill="black" stroke="black" points="613.49,-533.512 623.788,-536.002 617.29,-527.634 613.49,-533.512"/>
</g>
<!-- VEH3 -->
<g id="node15" class="node"><title>VEH3</title>
<text text-anchor="middle" x="351.795" y="-604.416" font-family="Times Roman,serif" font-size="12.00">VEH</text>
</g>
<!-- D3T3 -->
<g id="node16" class="node"><title>D3T3</title>
<text text-anchor="middle" x="411.589" y="-557.595" font-family="Times Roman,serif" font-size="12.00">D3T</text>
</g>
<!-- D3T3&#45;&gt;VEH3 -->
<g id="edge14" class="edge"><title>D3T3&#45;&gt;VEH3</title>
<path fill="none" stroke="black" d="M388.3,-579.132C386.677,-580.403 385.026,-581.695 383.369,-582.993"/>
<polygon fill="black" stroke="black" points="380.835,-580.532 375.119,-589.453 385.15,-586.043 380.835,-580.532"/>
</g>
<!-- C103 -->
<g id="node17" class="node"><title>C103</title>
<text text-anchor="middle" x="412.884" y="-508.933" font-family="Times Roman,serif" font-size="12.00">C10</text>
</g>
<!-- D3T3&#45;&gt;C103 -->
<g id="edge16" class="edge"><title>D3T3&#45;&gt;C103</title>
<path fill="none" stroke="black" d="M412.071,-542.775C412.088,-542.15 412.105,-541.52 412.122,-540.885"/>
<polygon fill="black" stroke="black" points="415.63,-540.62 412.397,-530.531 408.632,-540.434 415.63,-540.62"/>
</g>
<!-- VEH4 -->
<g id="node21" class="node"><title>VEH4</title>
<text text-anchor="middle" x="573.34" y="-355.389" font-family="Times Roman,serif" font-size="12.00">VEH</text>
</g>
<!-- D3T4 -->
<g id="node22" class="node"><title>D3T4</title>
<text text-anchor="middle" x="642.014" y="-381.852" font-family="Times Roman,serif" font-size="12.00">D3T</text>
</g>
<!-- D3T4&#45;&gt;VEH4 -->
<g id="edge19" class="edge"><title>D3T4&#45;&gt;VEH4</title>
<path fill="none" stroke="black" d="M614.872,-374.694C613.419,-374.134 611.949,-373.567 610.471,-372.998"/>
<polygon fill="black" stroke="black" points="611.324,-369.576 600.734,-369.246 608.807,-376.107 611.324,-369.576"/>
</g>
<!-- C104 -->
<g id="node23" class="node"><title>C104</title>
<text text-anchor="middle" x="578.754" y="-287.757" font-family="Times Roman,serif" font-size="12.00">C10</text>
</g>
<!-- C104&#45;&gt;VEH4 -->
<g id="edge21" class="edge"><title>C104&#45;&gt;VEH4</title>
<path fill="none" stroke="black" d="M577.303,-309.181C576.781,-315.701 576.179,-323.22 575.604,-330.399"/>
<polygon fill="black" stroke="black" points="572.104,-330.268 574.794,-340.515 579.081,-330.826 572.104,-330.268"/>
</g>
<!-- VEH5 -->
<g id="node27" class="node"><title>VEH5</title>
<text text-anchor="middle" x="675.34" y="-729.389" font-family="Times Roman,serif" font-size="12.00">VEH</text>
</g>
<!-- D3T5 -->
<g id="node28" class="node"><title>D3T5</title>
<text text-anchor="middle" x="744.014" y="-755.852" font-family="Times Roman,serif" font-size="12.00">D3T</text>
</g>
<!-- VEH5&#45;&gt;D3T5 -->
<g id="edge24" class="edge"><title>VEH5&#45;&gt;D3T5</title>
<path fill="none" stroke="black" d="M702.482,-743.148C703.934,-743.708 705.405,-744.275 706.883,-744.844"/>
<polygon fill="black" stroke="black" points="706.03,-748.266 716.619,-748.596 708.547,-741.735 706.03,-748.266"/>
</g>
<!-- C105 -->
<g id="node29" class="node"><title>C105</title>
<text text-anchor="middle" x="680.754" y="-661.757" font-family="Times Roman,serif" font-size="12.00">C10</text>
</g>
<!-- VEH5&#45;&gt;C105 -->
<g id="edge26" class="edge"><title>VEH5&#45;&gt;C105</title>
<path fill="none" stroke="black" d="M676.79,-714.565C677.312,-708.045 677.914,-700.526 678.489,-693.348"/>
<polygon fill="black" stroke="black" points="681.989,-693.478 679.299,-683.231 675.012,-692.92 681.989,-693.478"/>
</g>
<!-- VEH6 -->
<g id="node33" class="node"><title>VEH6</title>
<text text-anchor="middle" x="743.414" y="-344.495" font-family="Times Roman,serif" font-size="12.00">VEH</text>
</g>
<!-- D3T6 -->
<g id="node34" class="node"><title>D3T6</title>
<text text-anchor="middle" x="810.075" y="-343.628" font-family="Times Roman,serif" font-size="12.00">D3T</text>
</g>
<!-- VEH6&#45;&gt;D3T6 -->
<g id="edge29" class="edge"><title>VEH6&#45;&gt;D3T6</title>
<path fill="none" stroke="black" d="M770.528,-347.442C771.158,-347.434 771.792,-347.426 772.428,-347.418"/>
<polygon fill="black" stroke="black" points="772.816,-350.913 782.769,-347.283 772.724,-343.914 772.816,-350.913"/>
</g>
<!-- C106 -->
<g id="node35" class="node"><title>C106</title>
<text text-anchor="middle" x="776.012" y="-287.758" font-family="Times Roman,serif" font-size="12.00">C10</text>
</g>
<!-- VEH6&#45;&gt;C106 -->
<g id="edge31" class="edge"><title>VEH6&#45;&gt;C106</title>
<path fill="none" stroke="black" d="M753.908,-329.531C756.002,-325.887 758.242,-321.986 760.465,-318.118"/>
<polygon fill="black" stroke="black" points="763.591,-319.703 765.538,-309.288 757.522,-316.215 763.591,-319.703"/>
</g>
<!-- D3T6&#45;&gt;C106 -->
<g id="edge33" class="edge"><title>D3T6&#45;&gt;C106</title>
<path fill="none" stroke="black" d="M798.922,-328.634C796.842,-325.223 794.629,-321.593 792.43,-317.986"/>
<polygon fill="black" stroke="black" points="795.268,-315.919 787.074,-309.202 789.292,-319.563 795.268,-315.919"/>
</g>
<!-- VEH7 -->
<g id="node40" class="node"><title>VEH7</title>
<text text-anchor="middle" x="760.414" y="-514.495" font-family="Times Roman,serif" font-size="12.00">VEH</text>
</g>
<!-- D3T7 -->
<g id="node41" class="node"><title>D3T7</title>
<text text-anchor="middle" x="827.075" y="-513.628" font-family="Times Roman,serif" font-size="12.00">D3T</text>
</g>
<!-- D3T7&#45;&gt;VEH7 -->
<g id="edge36" class="edge"><title>D3T7&#45;&gt;VEH7</title>
<path fill="none" stroke="black" d="M799.961,-517.281C799.331,-517.289 798.697,-517.297 798.061,-517.305"/>
<polygon fill="black" stroke="black" points="797.674,-513.81 787.72,-517.44 797.765,-520.809 797.674,-513.81"/>
</g>
<!-- C107 -->
<g id="node42" class="node"><title>C107</title>
<text text-anchor="middle" x="793.012" y="-457.758" font-family="Times Roman,serif" font-size="12.00">C10</text>
</g>
<!-- D3T7&#45;&gt;C107 -->
<g id="edge38" class="edge"><title>D3T7&#45;&gt;C107</title>
<path fill="none" stroke="black" d="M815.922,-498.634C813.842,-495.223 811.629,-491.593 809.43,-487.986"/>
<polygon fill="black" stroke="black" points="812.268,-485.919 804.074,-479.202 806.292,-489.563 812.268,-485.919"/>
</g>
<!-- C107&#45;&gt;VEH7 -->
<g id="edge40" class="edge"><title>C107&#45;&gt;VEH7</title>
<path fill="none" stroke="black" d="M782.518,-479.323C780.425,-482.967 778.184,-486.867 775.961,-490.735"/>
<polygon fill="black" stroke="black" points="772.835,-489.151 770.888,-499.565 778.905,-492.638 772.835,-489.151"/>
</g>
<!-- VEH8 -->
<g id="node47" class="node"><title>VEH8</title>
<text text-anchor="middle" x="181.795" y="-774.416" font-family="Times Roman,serif" font-size="12.00">VEH</text>
</g>
<!-- D3T8 -->
<g id="node48" class="node"><title>D3T8</title>
<text text-anchor="middle" x="241.589" y="-727.595" font-family="Times Roman,serif" font-size="12.00">D3T</text>
</g>
<!-- VEH8&#45;&gt;D3T8 -->
<g id="edge43" class="edge"><title>VEH8&#45;&gt;D3T8</title>
<path fill="none" stroke="black" d="M205.084,-759.48C206.707,-758.209 208.358,-756.917 210.015,-755.619"/>
<polygon fill="black" stroke="black" points="212.55,-758.08 218.265,-749.159 208.234,-752.569 212.55,-758.08"/>
</g>
<!-- C108 -->
<g id="node49" class="node"><title>C108</title>
<text text-anchor="middle" x="242.884" y="-678.933" font-family="Times Roman,serif" font-size="12.00">C10</text>
</g>
<!-- C108&#45;&gt;D3T8 -->
<g id="edge45" class="edge"><title>C108&#45;&gt;D3T8</title>
<path fill="none" stroke="black" d="M242.402,-700.353C242.385,-700.978 242.369,-701.609 242.352,-702.244"/>
<polygon fill="black" stroke="black" points="238.844,-702.508 242.076,-712.598 245.841,-702.695 238.844,-702.508"/>
</g>
<!-- VEH9 -->
<g id="node53" class="node"><title>VEH9</title>
<text text-anchor="middle" x="216.882" y="-212.316" font-family="Times Roman,serif" font-size="12.00">VEH</text>
</g>
<!-- C109 -->
<g id="node55" class="node"><title>C109</title>
<text text-anchor="middle" x="282.339" y="-202.536" font-family="Times Roman,serif" font-size="12.00">C10</text>
</g>
<!-- VEH9&#45;&gt;C109 -->
<g id="edge48" class="edge"><title>VEH9&#45;&gt;C109</title>
<path fill="none" stroke="black" d="M243.884,-211.582C244.227,-211.531 244.571,-211.479 244.916,-211.428"/>
<polygon fill="black" stroke="black" points="245.603,-214.864 254.976,-209.925 244.569,-207.941 245.603,-214.864"/>
</g>
<!-- D3T9 -->
<g id="node54" class="node"><title>D3T9</title>
<text text-anchor="middle" x="300.714" y="-251.623" font-family="Times Roman,serif" font-size="12.00">D3T</text>
</g>
<!-- VEH10 -->
<g id="node58" class="node"><title>VEH10</title>
<text text-anchor="middle" x="811.414" y="-106.495" font-family="Times Roman,serif" font-size="12.00">VEH</text>
</g>
<!-- D3T10 -->
<g id="node59" class="node"><title>D3T10</title>
<text text-anchor="middle" x="878.075" y="-105.628" font-family="Times Roman,serif" font-size="12.00">D3T</text>
</g>
<!-- D3T10&#45;&gt;VEH10 -->
<g id="edge51" class="edge"><title>D3T10&#45;&gt;VEH10</title>
<path fill="none" stroke="black" d="M850.961,-109.281C850.331,-109.289 849.697,-109.297 849.061,-109.305"/>
<polygon fill="black" stroke="black" points="848.674,-105.81 838.72,-109.44 848.765,-112.809 848.674,-105.81"/>
</g>
<!-- C1010 -->
<g id="node60" class="node"><title>C1010</title>
<text text-anchor="middle" x="844.012" y="-49.7584" font-family="Times Roman,serif" font-size="12.00">C10</text>
</g>
<!-- C1010&#45;&gt;VEH10 -->
<g id="edge53" class="edge"><title>C1010&#45;&gt;VEH10</title>
<path fill="none" stroke="black" d="M833.518,-71.3225C831.425,-74.9669 829.184,-78.8672 826.961,-82.735"/>
<polygon fill="black" stroke="black" points="823.835,-81.1507 821.888,-91.5651 829.905,-84.638 823.835,-81.1507"/>
</g>
<!-- C1010&#45;&gt;D3T10 -->
<g id="edge55" class="edge"><title>C1010&#45;&gt;D3T10</title>
<path fill="none" stroke="black" d="M855.166,-71.3522C857.245,-74.7633 859.458,-78.3931 861.658,-82.0004"/>
<polygon fill="black" stroke="black" points="858.819,-84.0677 867.013,-90.7839 864.796,-80.4237 858.819,-84.0677"/>
</g>
<!-- VEH11 -->
<g id="node65" class="node"><title>VEH11</title>
<text text-anchor="middle" x="46.414" y="-259.495" font-family="Times Roman,serif" font-size="12.00">VEH</text>
</g>
<!-- C1011 -->
<g id="node67" class="node"><title>C1011</title>
<text text-anchor="middle" x="79.0122" y="-202.758" font-family="Times Roman,serif" font-size="12.00">C10</text>
</g>
<!-- VEH11&#45;&gt;C1011 -->
<g id="edge58" class="edge"><title>VEH11&#45;&gt;C1011</title>
<path fill="none" stroke="black" d="M56.9077,-244.531C59.0016,-240.887 61.2425,-236.986 63.4647,-233.118"/>
<polygon fill="black" stroke="black" points="66.5911,-234.703 68.5381,-224.288 60.5215,-231.215 66.5911,-234.703"/>
</g>
<!-- D3T11 -->
<g id="node66" class="node"><title>D3T11</title>
<text text-anchor="middle" x="113.075" y="-258.628" font-family="Times Roman,serif" font-size="12.00">D3T</text>
</g>
<!-- D3T11&#45;&gt;VEH11 -->
<g id="edge60" class="edge"><title>D3T11&#45;&gt;VEH11</title>
<path fill="none" stroke="black" d="M85.9615,-262.281C85.3306,-262.289 84.6968,-262.297 84.0608,-262.305"/>
<polygon fill="black" stroke="black" points="83.6735,-258.81 73.7199,-262.44 83.7646,-265.809 83.6735,-258.81"/>
</g>
<!-- D3T11&#45;&gt;C1011 -->
<g id="edge62" class="edge"><title>D3T11&#45;&gt;C1011</title>
<path fill="none" stroke="black" d="M101.922,-243.634C99.8419,-240.223 97.6289,-236.593 95.4295,-232.986"/>
<polygon fill="black" stroke="black" points="98.2684,-230.919 90.0744,-224.202 92.2917,-234.563 98.2684,-230.919"/>
</g>
<!-- VEH12 -->
<g id="node72" class="node"><title>VEH12</title>
<text text-anchor="middle" x="46.414" y="-89.4951" font-family="Times Roman,serif" font-size="12.00">VEH</text>
</g>
<!-- D3T12 -->
<g id="node73" class="node"><title>D3T12</title>
<text text-anchor="middle" x="113.075" y="-88.628" font-family="Times Roman,serif" font-size="12.00">D3T</text>
</g>
<!-- VEH12&#45;&gt;D3T12 -->
<g id="edge65" class="edge"><title>VEH12&#45;&gt;D3T12</title>
<path fill="none" stroke="black" d="M73.5276,-92.4424C74.1584,-92.4342 74.7923,-92.426 75.4283,-92.4177"/>
<polygon fill="black" stroke="black" points="75.8155,-95.913 85.7691,-92.2832 75.7244,-88.9136 75.8155,-95.913"/>
</g>
<!-- C1012 -->
<g id="node74" class="node"><title>C1012</title>
<text text-anchor="middle" x="79.0122" y="-32.7584" font-family="Times Roman,serif" font-size="12.00">C10</text>
</g>
<!-- C1012&#45;&gt;VEH12 -->
<g id="edge67" class="edge"><title>C1012&#45;&gt;VEH12</title>
<path fill="none" stroke="black" d="M68.5185,-54.3225C66.4246,-57.9669 64.1837,-61.8672 61.9614,-65.735"/>
<polygon fill="black" stroke="black" points="58.8351,-64.1507 56.888,-74.5651 64.9046,-67.638 58.8351,-64.1507"/>
</g>
<!-- C1012&#45;&gt;D3T12 -->
<g id="edge69" class="edge"><title>C1012&#45;&gt;D3T12</title>
<path fill="none" stroke="black" d="M90.1657,-54.3522C92.2454,-57.7633 94.4584,-61.3931 96.6577,-65.0004"/>
<polygon fill="black" stroke="black" points="93.8188,-67.0677 102.013,-73.7839 99.7956,-63.4237 93.8188,-67.0677"/>
</g>
<!-- VEH13 -->
<g id="node79" class="node"><title>VEH13</title>
<text text-anchor="middle" x="165.882" y="-535.316" font-family="Times Roman,serif" font-size="12.00">VEH</text>
</g>
<!-- D3T13 -->
<g id="node80" class="node"><title>D3T13</title>
<text text-anchor="middle" x="231.339" y="-525.536" font-family="Times Roman,serif" font-size="12.00">D3T</text>
</g>
<!-- D3T13&#45;&gt;VEH13 -->
<g id="edge72" class="edge"><title>D3T13&#45;&gt;VEH13</title>
<path fill="none" stroke="black" d="M204.337,-532.871C203.994,-532.922 203.65,-532.973 203.305,-533.025"/>
<polygon fill="black" stroke="black" points="202.618,-529.589 193.245,-534.528 203.652,-536.512 202.618,-529.589"/>
</g>
<!-- C1013 -->
<g id="node81" class="node"><title>C1013</title>
<text text-anchor="middle" x="249.714" y="-574.623" font-family="Times Roman,serif" font-size="12.00">C10</text>
</g>
<!-- VEH14 -->
<g id="node84" class="node"><title>VEH14</title>
<text text-anchor="middle" x="521.714" y="-183.623" font-family="Times Roman,serif" font-size="12.00">VEH</text>
</g>
<!-- D3T14 -->
<g id="node85" class="node"><title>D3T14</title>
<text text-anchor="middle" x="437.882" y="-144.316" font-family="Times Roman,serif" font-size="12.00">D3T</text>
</g>
<!-- C1014 -->
<g id="node86" class="node"><title>C1014</title>
<text text-anchor="middle" x="503.339" y="-134.536" font-family="Times Roman,serif" font-size="12.00">C10</text>
</g>
<!-- D3T14&#45;&gt;C1014 -->
<g id="edge75" class="edge"><title>D3T14&#45;&gt;C1014</title>
<path fill="none" stroke="black" d="M464.884,-143.582C465.227,-143.531 465.571,-143.479 465.916,-143.428"/>
<polygon fill="black" stroke="black" points="466.603,-146.864 475.976,-141.925 465.569,-139.941 466.603,-146.864"/>
</g>
<!-- VEH15 -->
<g id="node89" class="node"><title>VEH15</title>
<text text-anchor="middle" x="624.882" y="-144.316" font-family="Times Roman,serif" font-size="12.00">VEH</text>
</g>
<!-- D3T15 -->
<g id="node90" class="node"><title>D3T15</title>
<text text-anchor="middle" x="708.714" y="-183.623" font-family="Times Roman,serif" font-size="12.00">D3T</text>
</g>
<!-- C1015 -->
<g id="node91" class="node"><title>C1015</title>
<text text-anchor="middle" x="690.339" y="-134.536" font-family="Times Roman,serif" font-size="12.00">C10</text>
</g>
<!-- C1015&#45;&gt;VEH15 -->
<g id="edge78" class="edge"><title>C1015&#45;&gt;VEH15</title>
<path fill="none" stroke="black" d="M663.337,-141.871C662.994,-141.922 662.65,-141.973 662.305,-142.025"/>
<polygon fill="black" stroke="black" points="661.618,-138.589 652.245,-143.528 662.652,-145.512 661.618,-138.589"/>
</g>
<!-- VEH16 -->
<g id="node94" class="node"><title>VEH16</title>
<text text-anchor="middle" x="216.414" y="-89.4951" font-family="Times Roman,serif" font-size="12.00">VEH</text>
</g>
<!-- D3T16 -->
<g id="node95" class="node"><title>D3T16</title>
<text text-anchor="middle" x="283.075" y="-88.628" font-family="Times Roman,serif" font-size="12.00">D3T</text>
</g>
<!-- VEH16&#45;&gt;D3T16 -->
<g id="edge81" class="edge"><title>VEH16&#45;&gt;D3T16</title>
<path fill="none" stroke="black" d="M243.528,-92.4424C244.158,-92.4342 244.792,-92.426 245.428,-92.4177"/>
<polygon fill="black" stroke="black" points="245.816,-95.913 255.769,-92.2832 245.724,-88.9136 245.816,-95.913"/>
</g>
<!-- C1016 -->
<g id="node96" class="node"><title>C1016</title>
<text text-anchor="middle" x="249.012" y="-32.7584" font-family="Times Roman,serif" font-size="12.00">C10</text>
</g>
<!-- VEH16&#45;&gt;C1016 -->
<g id="edge83" class="edge"><title>VEH16&#45;&gt;C1016</title>
<path fill="none" stroke="black" d="M226.908,-74.5309C229.002,-70.8866 231.242,-66.9863 233.465,-63.1185"/>
<polygon fill="black" stroke="black" points="236.591,-64.7027 238.538,-54.2883 230.522,-61.2154 236.591,-64.7027"/>
</g>
<!-- C1016&#45;&gt;D3T16 -->
<g id="edge85" class="edge"><title>C1016&#45;&gt;D3T16</title>
<path fill="none" stroke="black" d="M260.166,-54.3522C262.245,-57.7633 264.458,-61.3931 266.658,-65.0004"/>
<polygon fill="black" stroke="black" points="263.819,-67.0677 272.013,-73.7839 269.796,-63.4237 263.819,-67.0677"/>
</g>
<!-- VEH17 -->
<g id="node101" class="node"><title>VEH17</title>
<text text-anchor="middle" x="488.882" y="-722.316" font-family="Times Roman,serif" font-size="12.00">VEH</text>
</g>
<!-- D3T17 -->
<g id="node102" class="node"><title>D3T17</title>
<text text-anchor="middle" x="554.339" y="-712.536" font-family="Times Roman,serif" font-size="12.00">D3T</text>
</g>
<!-- VEH17&#45;&gt;D3T17 -->
<g id="edge88" class="edge"><title>VEH17&#45;&gt;D3T17</title>
<path fill="none" stroke="black" d="M515.884,-721.582C516.227,-721.531 516.571,-721.479 516.916,-721.428"/>
<polygon fill="black" stroke="black" points="517.603,-724.864 526.976,-719.925 516.569,-717.941 517.603,-724.864"/>
</g>
<!-- C1017 -->
<g id="node103" class="node"><title>C1017</title>
<text text-anchor="middle" x="572.714" y="-761.623" font-family="Times Roman,serif" font-size="12.00">C10</text>
</g>
<!-- VEH18 -->
<g id="node106" class="node"><title>VEH18</title>
<text text-anchor="middle" x="232.714" y="-421.623" font-family="Times Roman,serif" font-size="12.00">VEH</text>
</g>
<!-- D3T18 -->
<g id="node107" class="node"><title>D3T18</title>
<text text-anchor="middle" x="148.882" y="-382.316" font-family="Times Roman,serif" font-size="12.00">D3T</text>
</g>
<!-- C1018 -->
<g id="node108" class="node"><title>C1018</title>
<text text-anchor="middle" x="214.339" y="-372.536" font-family="Times Roman,serif" font-size="12.00">C10</text>
</g>
<!-- C1018&#45;&gt;D3T18 -->
<g id="edge91" class="edge"><title>C1018&#45;&gt;D3T18</title>
<path fill="none" stroke="black" d="M187.337,-379.871C186.994,-379.922 186.65,-379.973 186.305,-380.025"/>
<polygon fill="black" stroke="black" points="185.618,-376.589 176.245,-381.528 186.652,-383.512 185.618,-376.589"/>
</g>
</g>
</svg>
