<?xml version="1.0" encoding="UTF-8" standalone="no"?>
<!DOCTYPE svg PUBLIC "-//W3C//DTD SVG 1.0//EN"
 "http://www.w3.org/TR/2001/REC-SVG-20010904/DTD/svg10.dtd" [
 <!ATTLIST svg xmlns:xlink CDATA #FIXED "http://www.w3.org/1999/xlink">
]>
<!-- Generated by Graphviz version 2.20.2 (Tue Mar &#160;2 20:02:18 UTC 2010)
     For user: (nsvo) Nam Sy Vo,,, -->
<!-- Title: FirstlevelCluster Pages: 1 -->
<svg width="336pt" height="350pt"
 viewBox="0.00 0.00 336.00 350.00" xmlns="http://www.w3.org/2000/svg" xmlns:xlink="http://www.w3.org/1999/xlink">
<g id="graph0" class="graph" transform="scale(1 1) rotate(0) translate(4 346)">
<title>FirstlevelCluster</title>
<polygon style="fill:white;stroke:white;" points="-4,4 -4,-346 332,-346 332,4 -4,4"/>
<g id="cluster2" class="cluster"><title>cluster_0</title>
<polygon style="fill:none;stroke:black;" points="1,-1 1,-333 327,-333 327,-1 1,-1"/>
<text text-anchor="middle" x="164" y="-316.9" style="font-family:Times New Roman;font-size:14.00;">C3&gt;</text>
</g>
<g id="cluster3" class="cluster"><title>cluster_2</title>
<polygon style="fill:lightgrey;stroke:black;" points="180,-145 180,-281 319,-281 319,-145 180,-145"/>
<text text-anchor="middle" x="249" y="-264.9" style="font-family:Times New Roman;font-size:14.00;">022</text>
</g>
<g id="cluster4" class="cluster"><title>cluster_3</title>
<polygon style="fill:lightgrey;stroke:black;" points="10,-9 10,-134 215,-134 215,-9 10,-9"/>
<text text-anchor="middle" x="112" y="-117.9" style="font-family:Times New Roman;font-size:14.00;">122</text>
</g>
<g id="cluster5" class="cluster"><title>cluster_4</title>
<polygon style="fill:lightgrey;stroke:black;" points="27,-162 27,-298 166,-298 166,-162 27,-162"/>
<text text-anchor="middle" x="96" y="-281.9" style="font-family:Times New Roman;font-size:14.00;">222</text>
</g>
<!-- VEH2 -->
<g id="node3" class="node"><title>VEH2</title>
<text text-anchor="middle" x="216" y="-224.6" style="font-family:Times New Roman;font-size:16.00;">VEH</text>
</g>
<!-- D3T2 -->
<g id="node4" class="node"><title>D3T2</title>
<text text-anchor="middle" x="283" y="-223.6" style="font-family:Times New Roman;font-size:16.00;">D3T</text>
</g>
<!-- VEH2&#45;&gt;D3T2 -->
<g id="edge4" class="edge"><title>VEH2&#45;&gt;D3T2</title>
<path style="fill:none;stroke:black;" d="M243,-229C244,-229 245,-229 246,-229"/>
<polygon style="fill:black;stroke:black;" points="246.398,-232.478 256,-228 245.701,-225.512 246.398,-232.478"/>
</g>
<!-- C32 -->
<g id="node5" class="node"><title>C32</title>
<text text-anchor="middle" x="249" y="-167.6" style="font-family:Times New Roman;font-size:16.00;">C3</text>
</g>
<!-- C32&#45;&gt;VEH2 -->
<g id="edge6" class="edge"><title>C32&#45;&gt;VEH2</title>
<path style="fill:none;stroke:black;" d="M239,-190C237,-194 234,-198 232,-202"/>
<polygon style="fill:black;stroke:black;" points="228.797,-200.559 227,-211 234.916,-203.958 228.797,-200.559"/>
</g>
<!-- C32&#45;&gt;D3T2 -->
<g id="edge8" class="edge"><title>C32&#45;&gt;D3T2</title>
<path style="fill:none;stroke:black;" d="M260,-190C262,-193 265,-197 267,-201"/>
<polygon style="fill:black;stroke:black;" points="264.084,-202.958 272,-210 270.203,-199.559 264.084,-202.958"/>
</g>
<!-- VEH3 -->
<g id="node10" class="node"><title>VEH3</title>
<text text-anchor="middle" x="46" y="-77.6" style="font-family:Times New Roman;font-size:16.00;">VEH</text>
</g>
<!-- D3T3 -->
<g id="node11" class="node"><title>D3T3</title>
<text text-anchor="middle" x="179" y="-77.6" style="font-family:Times New Roman;font-size:16.00;">D3T</text>
</g>
<!-- C33 -->
<g id="node12" class="node"><title>C33</title>
<text text-anchor="middle" x="112" y="-31.6" style="font-family:Times New Roman;font-size:16.00;">C3</text>
</g>
<!-- C33&#45;&gt;VEH3 -->
<g id="edge11" class="edge"><title>C33&#45;&gt;VEH3</title>
<path style="fill:none;stroke:black;" d="M86,-54C84,-55 82,-56 80,-58"/>
<polygon style="fill:black;stroke:black;" points="77.9,-55.2 72,-64 82.1,-60.8 77.9,-55.2"/>
</g>
<!-- C33&#45;&gt;D3T3 -->
<g id="edge13" class="edge"><title>C33&#45;&gt;D3T3</title>
<path style="fill:none;stroke:black;" d="M138,-54C140,-55 142,-56 144,-58"/>
<polygon style="fill:black;stroke:black;" points="141.9,-60.8 152,-64 146.1,-55.2 141.9,-60.8"/>
</g>
<!-- VEH4 -->
<g id="node16" class="node"><title>VEH4</title>
<text text-anchor="middle" x="63" y="-241.6" style="font-family:Times New Roman;font-size:16.00;">VEH</text>
</g>
<!-- D3T4 -->
<g id="node17" class="node"><title>D3T4</title>
<text text-anchor="middle" x="130" y="-240.6" style="font-family:Times New Roman;font-size:16.00;">D3T</text>
</g>
<!-- D3T4&#45;&gt;VEH4 -->
<g id="edge16" class="edge"><title>D3T4&#45;&gt;VEH4</title>
<path style="fill:none;stroke:black;" d="M103,-245C102,-245 101,-245 100,-245"/>
<polygon style="fill:black;stroke:black;" points="99.6021,-241.522 90,-246 100.299,-248.488 99.6021,-241.522"/>
</g>
<!-- C34 -->
<g id="node18" class="node"><title>C34</title>
<text text-anchor="middle" x="96" y="-184.6" style="font-family:Times New Roman;font-size:16.00;">C3</text>
</g>
<!-- C34&#45;&gt;VEH4 -->
<g id="edge18" class="edge"><title>C34&#45;&gt;VEH4</title>
<path style="fill:none;stroke:black;" d="M86,-207C84,-211 81,-215 79,-219"/>
<polygon style="fill:black;stroke:black;" points="75.7969,-217.559 74,-228 81.916,-220.958 75.7969,-217.559"/>
</g>
<!-- C34&#45;&gt;D3T4 -->
<g id="edge20" class="edge"><title>C34&#45;&gt;D3T4</title>
<path style="fill:none;stroke:black;" d="M107,-207C109,-210 112,-214 114,-218"/>
<polygon style="fill:black;stroke:black;" points="111.084,-219.958 119,-227 117.203,-216.559 111.084,-219.958"/>
</g>
</g>
</svg>
