<?xml version="1.0" encoding="UTF-8" standalone="no"?>
<!DOCTYPE svg PUBLIC "-//W3C//DTD SVG 1.0//EN"
 "http://www.w3.org/TR/2001/REC-SVG-20010904/DTD/svg10.dtd" [
 <!ATTLIST svg xmlns:xlink CDATA #FIXED "http://www.w3.org/1999/xlink">
]>
<!-- Generated by Graphviz version 2.20.2 (Tue Mar &#160;2 20:02:18 UTC 2010)
     For user: (nsvo) Nam Sy Vo,,, -->
<!-- Title: FirstlevelCluster Pages: 1 -->
<svg width="336pt" height="350pt"
 viewBox="0.00 0.00 336.00 350.00" xmlns="http://www.w3.org/2000/svg" xmlns:xlink="http://www.w3.org/1999/xlink">
<g id="graph0" class="graph" transform="scale(1 1) rotate(0) translate(4 346)">
<title>FirstlevelCluster</title>
<polygon style="fill:white;stroke:white;" points="-4,4 -4,-346 332,-346 332,4 -4,4"/>
<g id="cluster2" class="cluster"><title>cluster_0</title>
<polygon style="fill:none;stroke:black;" points="1,-1 1,-333 327,-333 327,-1 1,-1"/>
<text text-anchor="middle" x="164" y="-316.9" style="font-family:Times New Roman;font-size:14.00;">&gt;C3</text>
</g>
<g id="cluster3" class="cluster"><title>cluster_2</title>
<polygon style="fill:lightgrey;stroke:black;" points="180,-145 180,-281 319,-281 319,-145 180,-145"/>
<text text-anchor="middle" x="249" y="-264.9" style="font-family:Times New Roman;font-size:14.00;">200</text>
</g>
<g id="cluster4" class="cluster"><title>cluster_3</title>
<polygon style="fill:lightgrey;stroke:black;" points="10,-9 10,-134 215,-134 215,-9 10,-9"/>
<text text-anchor="middle" x="112" y="-117.9" style="font-family:Times New Roman;font-size:14.00;">100</text>
</g>
<g id="cluster5" class="cluster"><title>cluster_4</title>
<polygon style="fill:lightgrey;stroke:black;" points="27,-162 27,-298 166,-298 166,-162 27,-162"/>
<text text-anchor="middle" x="96" y="-281.9" style="font-family:Times New Roman;font-size:14.00;">000</text>
</g>
<!-- VEH2 -->
<g id="node3" class="node"><title>VEH2</title>
<text text-anchor="middle" x="216" y="-224.6" style="font-family:Times New Roman;font-size:16.00;">VEH</text>
</g>
<!-- C32 -->
<g id="node5" class="node"><title>C32</title>
<text text-anchor="middle" x="249" y="-167.6" style="font-family:Times New Roman;font-size:16.00;">C3</text>
</g>
<!-- VEH2&#45;&gt;C32 -->
<g id="edge4" class="edge"><title>VEH2&#45;&gt;C32</title>
<path style="fill:none;stroke:black;" d="M226,-211C228,-207 231,-203 233,-199"/>
<polygon style="fill:black;stroke:black;" points="236.203,-200.441 238,-190 230.084,-197.042 236.203,-200.441"/>
</g>
<!-- D3T2 -->
<g id="node4" class="node"><title>D3T2</title>
<text text-anchor="middle" x="283" y="-223.6" style="font-family:Times New Roman;font-size:16.00;">D3T</text>
</g>
<!-- D3T2&#45;&gt;VEH2 -->
<g id="edge6" class="edge"><title>D3T2&#45;&gt;VEH2</title>
<path style="fill:none;stroke:black;" d="M256,-228C255,-228 254,-228 253,-228"/>
<polygon style="fill:black;stroke:black;" points="252.602,-224.522 243,-229 253.299,-231.488 252.602,-224.522"/>
</g>
<!-- D3T2&#45;&gt;C32 -->
<g id="edge8" class="edge"><title>D3T2&#45;&gt;C32</title>
<path style="fill:none;stroke:black;" d="M272,-210C270,-207 267,-203 265,-199"/>
<polygon style="fill:black;stroke:black;" points="267.916,-197.042 260,-190 261.797,-200.441 267.916,-197.042"/>
</g>
<!-- VEH3 -->
<g id="node10" class="node"><title>VEH3</title>
<text text-anchor="middle" x="46" y="-77.6" style="font-family:Times New Roman;font-size:16.00;">VEH</text>
</g>
<!-- C33 -->
<g id="node12" class="node"><title>C33</title>
<text text-anchor="middle" x="112" y="-31.6" style="font-family:Times New Roman;font-size:16.00;">C3</text>
</g>
<!-- VEH3&#45;&gt;C33 -->
<g id="edge11" class="edge"><title>VEH3&#45;&gt;C33</title>
<path style="fill:none;stroke:black;" d="M72,-64C74,-63 76,-62 78,-60"/>
<polygon style="fill:black;stroke:black;" points="80.1,-62.8 86,-54 75.9,-57.2 80.1,-62.8"/>
</g>
<!-- D3T3 -->
<g id="node11" class="node"><title>D3T3</title>
<text text-anchor="middle" x="179" y="-77.6" style="font-family:Times New Roman;font-size:16.00;">D3T</text>
</g>
<!-- D3T3&#45;&gt;C33 -->
<g id="edge13" class="edge"><title>D3T3&#45;&gt;C33</title>
<path style="fill:none;stroke:black;" d="M153,-64C151,-63 149,-62 147,-60"/>
<polygon style="fill:black;stroke:black;" points="149.1,-57.2 139,-54 144.9,-62.8 149.1,-57.2"/>
</g>
<!-- VEH4 -->
<g id="node16" class="node"><title>VEH4</title>
<text text-anchor="middle" x="63" y="-241.6" style="font-family:Times New Roman;font-size:16.00;">VEH</text>
</g>
<!-- D3T4 -->
<g id="node17" class="node"><title>D3T4</title>
<text text-anchor="middle" x="130" y="-240.6" style="font-family:Times New Roman;font-size:16.00;">D3T</text>
</g>
<!-- VEH4&#45;&gt;D3T4 -->
<g id="edge16" class="edge"><title>VEH4&#45;&gt;D3T4</title>
<path style="fill:none;stroke:black;" d="M90,-246C91,-246 92,-246 93,-246"/>
<polygon style="fill:black;stroke:black;" points="93.3979,-249.478 103,-245 92.7013,-242.512 93.3979,-249.478"/>
</g>
<!-- C34 -->
<g id="node18" class="node"><title>C34</title>
<text text-anchor="middle" x="96" y="-184.6" style="font-family:Times New Roman;font-size:16.00;">C3</text>
</g>
<!-- VEH4&#45;&gt;C34 -->
<g id="edge18" class="edge"><title>VEH4&#45;&gt;C34</title>
<path style="fill:none;stroke:black;" d="M73,-228C75,-224 78,-220 80,-216"/>
<polygon style="fill:black;stroke:black;" points="83.2031,-217.441 85,-207 77.084,-214.042 83.2031,-217.441"/>
</g>
<!-- D3T4&#45;&gt;C34 -->
<g id="edge20" class="edge"><title>D3T4&#45;&gt;C34</title>
<path style="fill:none;stroke:black;" d="M119,-227C117,-224 114,-220 112,-216"/>
<polygon style="fill:black;stroke:black;" points="114.916,-214.042 107,-207 108.797,-217.441 114.916,-214.042"/>
</g>
</g>
</svg>
