<?xml version="1.0" encoding="UTF-8" standalone="no"?>
<!DOCTYPE svg PUBLIC "-//W3C//DTD SVG 1.0//EN"
 "http://www.w3.org/TR/2001/REC-SVG-20010904/DTD/svg10.dtd" [
 <!ATTLIST svg xmlns:xlink CDATA #FIXED "http://www.w3.org/1999/xlink">
]>
<!-- Generated by Graphviz version 2.20.2 (Tue Mar &#160;2 20:02:18 UTC 2010)
     For user: (nsvo) Nam Sy Vo,,, -->
<!-- Title: FirstlevelCluster Pages: 1 -->
<svg width="166pt" height="230pt"
 viewBox="0.00 0.00 166.00 230.00" xmlns="http://www.w3.org/2000/svg" xmlns:xlink="http://www.w3.org/1999/xlink">
<g id="graph0" class="graph" transform="scale(1 1) rotate(0) translate(4 226)">
<title>FirstlevelCluster</title>
<polygon style="fill:white;stroke:white;" points="-4,4 -4,-226 162,-226 162,4 -4,4"/>
<g id="cluster2" class="cluster"><title>cluster_0</title>
<polygon style="fill:none;stroke:black;" points="1,-0 1,-213 157,-213 157,-0 1,-0"/>
<text text-anchor="middle" x="79" y="-196.9" style="font-family:Times New Roman;font-size:14.00;">D3T~C3&gt;</text>
</g>
<g id="cluster3" class="cluster"><title>cluster_2</title>
<polygon style="fill:lightgrey;stroke:black;" points="10,-9 10,-179 148,-179 148,-9 10,-9"/>
<text text-anchor="middle" x="79" y="-162.9" style="font-family:Times New Roman;font-size:14.00;">221</text>
</g>
<!-- VEH2 -->
<g id="node3" class="node"><title>VEH2</title>
<text text-anchor="middle" x="49" y="-81.6" style="font-family:Times New Roman;font-size:16.00;">VEH</text>
</g>
<!-- D3T2 -->
<g id="node4" class="node"><title>D3T2</title>
<text text-anchor="middle" x="112" y="-122.6" style="font-family:Times New Roman;font-size:16.00;">D3T</text>
</g>
<!-- D3T2&#45;&gt;VEH2 -->
<g id="edge4" class="edge"><title>D3T2&#45;&gt;VEH2</title>
<path style="fill:none;stroke:black;" d="M85,-109C85,-109 85,-109 84,-109"/>
<polygon style="fill:black;stroke:black;" points="86.1,-106.2 76,-103 81.9,-111.8 86.1,-106.2"/>
</g>
<!-- C32 -->
<g id="node5" class="node"><title>C32</title>
<text text-anchor="middle" x="46" y="-31.6" style="font-family:Times New Roman;font-size:16.00;">C3</text>
</g>
<!-- C32&#45;&gt;VEH2 -->
<g id="edge6" class="edge"><title>C32&#45;&gt;VEH2</title>
<path style="fill:none;stroke:black;" d="M47,-54C47,-55 47,-57 47,-58"/>
<polygon style="fill:black;stroke:black;" points="43.5222,-58.3979 48,-68 50.4875,-57.7013 43.5222,-58.3979"/>
</g>
</g>
</svg>
