<?xml version="1.0" encoding="UTF-8" standalone="no"?>
<!DOCTYPE svg PUBLIC "-//W3C//DTD SVG 1.0//EN"
 "http://www.w3.org/TR/2001/REC-SVG-20010904/DTD/svg10.dtd" [
 <!ATTLIST svg xmlns:xlink CDATA #FIXED "http://www.w3.org/1999/xlink">
]>
<!-- Generated by Graphviz version 2.20.2 (Tue Mar &#160;2 20:02:18 UTC 2010)
     For user: (nsvo) Nam Sy Vo,,, -->
<!-- Title: FirstlevelCluster Pages: 1 -->
<svg width="318pt" height="366pt"
 viewBox="0.00 0.00 318.00 366.00" xmlns="http://www.w3.org/2000/svg" xmlns:xlink="http://www.w3.org/1999/xlink">
<g id="graph0" class="graph" transform="scale(1 1) rotate(0) translate(4 362)">
<title>FirstlevelCluster</title>
<polygon style="fill:white;stroke:white;" points="-4,4 -4,-362 314,-362 314,4 -4,4"/>
<g id="cluster2" class="cluster"><title>cluster_0</title>
<polygon style="fill:none;stroke:black;" points="1,-0 1,-349 310,-349 310,-0 1,-0"/>
<text text-anchor="middle" x="155" y="-332.9" style="font-family:Times New Roman;font-size:14.00;">D3T&gt;</text>
</g>
<g id="cluster3" class="cluster"><title>cluster_2</title>
<polygon style="fill:lightgrey;stroke:black;" points="10,-8 10,-197 150,-197 150,-8 10,-8"/>
<text text-anchor="middle" x="80" y="-180.9" style="font-family:Times New Roman;font-size:14.00;">210</text>
</g>
<g id="cluster4" class="cluster"><title>cluster_3</title>
<polygon style="fill:lightgrey;stroke:black;" points="162,-26 162,-162 301,-162 301,-26 162,-26"/>
<text text-anchor="middle" x="231" y="-145.9" style="font-family:Times New Roman;font-size:14.00;">220</text>
</g>
<g id="cluster5" class="cluster"><title>cluster_4</title>
<polygon style="fill:lightgrey;stroke:black;" points="162,-179 162,-315 301,-315 301,-179 162,-179"/>
<text text-anchor="middle" x="231" y="-298.9" style="font-family:Times New Roman;font-size:14.00;">200</text>
</g>
<!-- VEH2 -->
<g id="node3" class="node"><title>VEH2</title>
<text text-anchor="middle" x="46" y="-140.6" style="font-family:Times New Roman;font-size:16.00;">VEH</text>
</g>
<!-- D3T2 -->
<g id="node4" class="node"><title>D3T2</title>
<text text-anchor="middle" x="113" y="-96.6" style="font-family:Times New Roman;font-size:16.00;">D3T</text>
</g>
<!-- D3T2&#45;&gt;VEH2 -->
<g id="edge4" class="edge"><title>D3T2&#45;&gt;VEH2</title>
<path style="fill:none;stroke:black;" d="M86,-119C85,-120 83,-121 82,-122"/>
<polygon style="fill:black;stroke:black;" points="80.0418,-119.084 73,-127 83.4414,-125.203 80.0418,-119.084"/>
</g>
<!-- C32 -->
<g id="node5" class="node"><title>C32</title>
<text text-anchor="middle" x="110" y="-30.6" style="font-family:Times New Roman;font-size:16.00;">C3</text>
</g>
<!-- D3T2&#45;&gt;C32 -->
<g id="edge6" class="edge"><title>D3T2&#45;&gt;C32</title>
<path style="fill:none;stroke:black;" d="M112,-83C112,-77 112,-70 111,-63"/>
<polygon style="fill:black;stroke:black;" points="114.5,-63 111,-53 107.5,-63 114.5,-63"/>
</g>
<!-- VEH3 -->
<g id="node9" class="node"><title>VEH3</title>
<text text-anchor="middle" x="199" y="-104.6" style="font-family:Times New Roman;font-size:16.00;">VEH</text>
</g>
<!-- D3T3 -->
<g id="node10" class="node"><title>D3T3</title>
<text text-anchor="middle" x="266" y="-103.6" style="font-family:Times New Roman;font-size:16.00;">D3T</text>
</g>
<!-- D3T3&#45;&gt;VEH3 -->
<g id="edge9" class="edge"><title>D3T3&#45;&gt;VEH3</title>
<path style="fill:none;stroke:black;" d="M239,-108C238,-108 237,-108 236,-108"/>
<polygon style="fill:black;stroke:black;" points="235.602,-104.522 226,-109 236.299,-111.488 235.602,-104.522"/>
</g>
<!-- C33 -->
<g id="node11" class="node"><title>C33</title>
<text text-anchor="middle" x="232" y="-48.6" style="font-family:Times New Roman;font-size:16.00;">C3</text>
</g>
<!-- D3T3&#45;&gt;C33 -->
<g id="edge11" class="edge"><title>D3T3&#45;&gt;C33</title>
<path style="fill:none;stroke:black;" d="M255,-90C253,-87 251,-83 248,-80"/>
<polygon style="fill:black;stroke:black;" points="250.916,-78.0418 243,-71 244.797,-81.4414 250.916,-78.0418"/>
</g>
<!-- C33&#45;&gt;VEH3 -->
<g id="edge13" class="edge"><title>C33&#45;&gt;VEH3</title>
<path style="fill:none;stroke:black;" d="M221,-71C219,-74 217,-78 214,-82"/>
<polygon style="fill:black;stroke:black;" points="210.863,-80.4404 210,-91 217.26,-83.2834 210.863,-80.4404"/>
</g>
<!-- VEH4 -->
<g id="node16" class="node"><title>VEH4</title>
<text text-anchor="middle" x="199" y="-257.6" style="font-family:Times New Roman;font-size:16.00;">VEH</text>
</g>
<!-- C34 -->
<g id="node18" class="node"><title>C34</title>
<text text-anchor="middle" x="232" y="-201.6" style="font-family:Times New Roman;font-size:16.00;">C3</text>
</g>
<!-- VEH4&#45;&gt;C34 -->
<g id="edge16" class="edge"><title>VEH4&#45;&gt;C34</title>
<path style="fill:none;stroke:black;" d="M210,-244C212,-241 215,-237 217,-233"/>
<polygon style="fill:black;stroke:black;" points="220.137,-234.56 221,-224 213.74,-231.717 220.137,-234.56"/>
</g>
<!-- D3T4 -->
<g id="node17" class="node"><title>D3T4</title>
<text text-anchor="middle" x="266" y="-256.6" style="font-family:Times New Roman;font-size:16.00;">D3T</text>
</g>
<!-- D3T4&#45;&gt;VEH4 -->
<g id="edge18" class="edge"><title>D3T4&#45;&gt;VEH4</title>
<path style="fill:none;stroke:black;" d="M239,-261C238,-261 237,-261 236,-261"/>
<polygon style="fill:black;stroke:black;" points="235.602,-257.522 226,-262 236.299,-264.488 235.602,-257.522"/>
</g>
<!-- D3T4&#45;&gt;C34 -->
<g id="edge20" class="edge"><title>D3T4&#45;&gt;C34</title>
<path style="fill:none;stroke:black;" d="M255,-243C253,-240 251,-236 248,-233"/>
<polygon style="fill:black;stroke:black;" points="250.916,-231.042 243,-224 244.797,-234.441 250.916,-231.042"/>
</g>
</g>
</svg>
