<?xml version="1.0" encoding="UTF-8" standalone="no"?>
<!DOCTYPE svg PUBLIC "-//W3C//DTD SVG 1.0//EN"
 "http://www.w3.org/TR/2001/REC-SVG-20010904/DTD/svg10.dtd" [
 <!ATTLIST svg xmlns:xlink CDATA #FIXED "http://www.w3.org/1999/xlink">
]>
<!-- Generated by Graphviz version 2.20.2 (Tue Mar &#160;2 20:02:18 UTC 2010)
     For user: (nsvo) Nam Sy Vo,,, -->
<!-- Title: FirstlevelCluster Pages: 1 -->
<svg width="168pt" height="248pt"
 viewBox="0.00 0.00 168.00 248.00" xmlns="http://www.w3.org/2000/svg" xmlns:xlink="http://www.w3.org/1999/xlink">
<g id="graph0" class="graph" transform="scale(1 1) rotate(0) translate(4 244)">
<title>FirstlevelCluster</title>
<polygon style="fill:white;stroke:white;" points="-4,4 -4,-244 164,-244 164,4 -4,4"/>
<g id="cluster2" class="cluster"><title>cluster_0</title>
<polygon style="fill:none;stroke:black;" points="1,-0 1,-231 159,-231 159,-0 1,-0"/>
<text text-anchor="middle" x="80" y="-214.9" style="font-family:Times New Roman;font-size:14.00;">&gt;VEH~C3</text>
</g>
<g id="cluster3" class="cluster"><title>cluster_2</title>
<polygon style="fill:lightgrey;stroke:black;" points="10,-8 10,-197 150,-197 150,-8 10,-8"/>
<text text-anchor="middle" x="80" y="-180.9" style="font-family:Times New Roman;font-size:14.00;">210</text>
</g>
<!-- VEH2 -->
<g id="node3" class="node"><title>VEH2</title>
<text text-anchor="middle" x="46" y="-140.6" style="font-family:Times New Roman;font-size:16.00;">VEH</text>
</g>
<!-- D3T2 -->
<g id="node4" class="node"><title>D3T2</title>
<text text-anchor="middle" x="114" y="-96.6" style="font-family:Times New Roman;font-size:16.00;">D3T</text>
</g>
<!-- D3T2&#45;&gt;VEH2 -->
<g id="edge4" class="edge"><title>D3T2&#45;&gt;VEH2</title>
<path style="fill:none;stroke:black;" d="M87,-119C85,-120 83,-121 82,-122"/>
<polygon style="fill:black;stroke:black;" points="79.3791,-119.541 73,-128 83.262,-125.365 79.3791,-119.541"/>
</g>
<!-- C32 -->
<g id="node5" class="node"><title>C32</title>
<text text-anchor="middle" x="111" y="-30.6" style="font-family:Times New Roman;font-size:16.00;">C3</text>
</g>
<!-- D3T2&#45;&gt;C32 -->
<g id="edge6" class="edge"><title>D3T2&#45;&gt;C32</title>
<path style="fill:none;stroke:black;" d="M113,-83C113,-77 113,-70 112,-63"/>
<polygon style="fill:black;stroke:black;" points="115.5,-63 112,-53 108.5,-63 115.5,-63"/>
</g>
</g>
</svg>
