<?xml version="1.0" encoding="UTF-8" standalone="no"?>
<!DOCTYPE svg PUBLIC "-//W3C//DTD SVG 1.0//EN"
 "http://www.w3.org/TR/2001/REC-SVG-20010904/DTD/svg10.dtd" [
 <!ATTLIST svg xmlns:xlink CDATA #FIXED "http://www.w3.org/1999/xlink">
]>
<!-- Generated by Graphviz version 2.20.2 (Tue Mar &#160;2 20:02:18 UTC 2010)
     For user: (nsvo) Nam Sy Vo,,, -->
<!-- Title: FirstlevelCluster Pages: 1 -->
<svg width="232pt" height="184pt"
 viewBox="0.00 0.00 232.00 184.00" xmlns="http://www.w3.org/2000/svg" xmlns:xlink="http://www.w3.org/1999/xlink">
<g id="graph0" class="graph" transform="scale(1 1) rotate(0) translate(4 180)">
<title>FirstlevelCluster</title>
<polygon style="fill:white;stroke:white;" points="-4,4 -4,-180 228,-180 228,4 -4,4"/>
<g id="cluster2" class="cluster"><title>cluster_0</title>
<polygon style="fill:none;stroke:black;" points="1,-0 1,-167 223,-167 223,-0 1,-0"/>
<text text-anchor="middle" x="112" y="-150.9" style="font-family:Times New Roman;font-size:14.00;">&gt;VEH~D3T</text>
</g>
<g id="cluster3" class="cluster"><title>cluster_2</title>
<polygon style="fill:lightgrey;stroke:black;" points="10,-8 10,-133 215,-133 215,-8 10,-8"/>
<text text-anchor="middle" x="112" y="-116.9" style="font-family:Times New Roman;font-size:14.00;">122</text>
</g>
<!-- VEH2 -->
<g id="node3" class="node"><title>VEH2</title>
<text text-anchor="middle" x="46" y="-76.6" style="font-family:Times New Roman;font-size:16.00;">VEH</text>
</g>
<!-- D3T2 -->
<g id="node4" class="node"><title>D3T2</title>
<text text-anchor="middle" x="179" y="-76.6" style="font-family:Times New Roman;font-size:16.00;">D3T</text>
</g>
<!-- C32 -->
<g id="node5" class="node"><title>C32</title>
<text text-anchor="middle" x="112" y="-31.6" style="font-family:Times New Roman;font-size:16.00;">C3</text>
</g>
<!-- C32&#45;&gt;VEH2 -->
<g id="edge4" class="edge"><title>C32&#45;&gt;VEH2</title>
<path style="fill:none;stroke:black;" d="M86,-54C85,-55 83,-56 82,-57"/>
<polygon style="fill:black;stroke:black;" points="79.3791,-54.5408 73,-63 83.262,-60.3651 79.3791,-54.5408"/>
</g>
<!-- C32&#45;&gt;D3T2 -->
<g id="edge6" class="edge"><title>C32&#45;&gt;D3T2</title>
<path style="fill:none;stroke:black;" d="M139,-54C140,-55 142,-56 143,-57"/>
<polygon style="fill:black;stroke:black;" points="141.738,-60.3651 152,-63 145.621,-54.5408 141.738,-60.3651"/>
</g>
</g>
</svg>
