<?xml version="1.0" encoding="UTF-8" standalone="no"?>
<!DOCTYPE svg PUBLIC "-//W3C//DTD SVG 1.0//EN"
 "http://www.w3.org/TR/2001/REC-SVG-20010904/DTD/svg10.dtd" [
 <!ATTLIST svg xmlns:xlink CDATA #FIXED "http://www.w3.org/1999/xlink">
]>
<!-- Generated by Graphviz version 2.20.2 (Tue Mar &#160;2 20:02:18 UTC 2010)
     For user: (nsvo) Nam Sy Vo,,, -->
<!-- Title: TDAGS Pages: 1 -->
<svg width="642pt" height="690pt"
 viewBox="0.00 0.00 642.00 690.00" xmlns="http://www.w3.org/2000/svg" xmlns:xlink="http://www.w3.org/1999/xlink">
<g id="graph0" class="graph" transform="scale(1 1) rotate(0) translate(4 686)">
<title>TDAGS</title>
<polygon style="fill:white;stroke:white;" points="-4,4 -4,-686 638,-686 638,4 -4,4"/>
<g id="cluster2" class="cluster"><title>cluster_0</title>
<polygon style="fill:none;stroke:black;" points="1,-1 1,-673 633,-673 633,-1 1,-1"/>
</g>
<g id="cluster3" class="cluster"><title>cluster_1</title>
<polygon style="fill:lightgrey;stroke:black;" points="180,-162 180,-351 320,-351 320,-162 180,-162"/>
<text text-anchor="middle" x="250" y="-334.9" style="font-family:Times New Roman;font-size:14.00;">210</text>
</g>
<g id="cluster4" class="cluster"><title>cluster_2</title>
<polygon style="fill:lightgrey;stroke:black;" points="333,-26 333,-162 472,-162 472,-26 333,-26"/>
<text text-anchor="middle" x="402" y="-145.9" style="font-family:Times New Roman;font-size:14.00;">022</text>
</g>
<g id="cluster5" class="cluster"><title>cluster_3</title>
<polygon style="fill:lightgrey;stroke:black;" points="333,-179 333,-304 538,-304 538,-179 333,-179"/>
<text text-anchor="middle" x="435" y="-287.9" style="font-family:Times New Roman;font-size:14.00;">122</text>
</g>
<g id="cluster6" class="cluster"><title>cluster_4</title>
<polygon style="fill:lightgrey;stroke:black;" points="486,-26 486,-162 625,-162 625,-26 486,-26"/>
<text text-anchor="middle" x="555" y="-145.9" style="font-family:Times New Roman;font-size:14.00;">220</text>
</g>
<g id="cluster7" class="cluster"><title>cluster_5</title>
<polygon style="fill:lightgrey;stroke:black;" points="486,-315 486,-451 625,-451 625,-315 486,-315"/>
<text text-anchor="middle" x="555" y="-434.9" style="font-family:Times New Roman;font-size:14.00;">002</text>
</g>
<g id="cluster8" class="cluster"><title>cluster_6</title>
<polygon style="fill:lightgrey;stroke:black;" points="333,-315 333,-504 473,-504 473,-315 333,-315"/>
<text text-anchor="middle" x="403" y="-487.9" style="font-family:Times New Roman;font-size:14.00;">012</text>
</g>
<g id="cluster9" class="cluster"><title>cluster_7</title>
<polygon style="fill:lightgrey;stroke:black;" points="27,-213 27,-383 165,-383 165,-213 27,-213"/>
<text text-anchor="middle" x="96" y="-366.9" style="font-family:Times New Roman;font-size:14.00;">221</text>
</g>
<g id="cluster10" class="cluster"><title>cluster_8</title>
<polygon style="fill:lightgrey;stroke:black;" points="486,-468 486,-604 625,-604 625,-468 486,-468"/>
<text text-anchor="middle" x="555" y="-587.9" style="font-family:Times New Roman;font-size:14.00;">222</text>
</g>
<g id="cluster11" class="cluster"><title>cluster_9</title>
<polygon style="fill:lightgrey;stroke:black;" points="10,-26 10,-196 148,-196 148,-26 10,-26"/>
<text text-anchor="middle" x="79" y="-179.9" style="font-family:Times New Roman;font-size:14.00;">001</text>
</g>
<g id="cluster12" class="cluster"><title>cluster_10</title>
<polygon style="fill:lightgrey;stroke:black;" points="333,-519 333,-655 472,-655 472,-519 333,-519"/>
<text text-anchor="middle" x="402" y="-638.9" style="font-family:Times New Roman;font-size:14.00;">200</text>
</g>
<g id="cluster13" class="cluster"><title>cluster_11</title>
<polygon style="fill:lightgrey;stroke:black;" points="112,-400 112,-525 317,-525 317,-400 112,-400"/>
<text text-anchor="middle" x="214" y="-508.9" style="font-family:Times New Roman;font-size:14.00;">100</text>
</g>
<g id="cluster14" class="cluster"><title>cluster_12</title>
<polygon style="fill:lightgrey;stroke:black;" points="163,-9 163,-145 302,-145 302,-9 163,-9"/>
<text text-anchor="middle" x="232" y="-128.9" style="font-family:Times New Roman;font-size:14.00;">000</text>
</g>
<!-- VEH1 -->
<g id="node3" class="node"><title>VEH1</title>
<text text-anchor="middle" x="216" y="-295.2" style="font-family:Times New Roman;font-size:12.00;">VEH</text>
</g>
<!-- D3T1 -->
<g id="node4" class="node"><title>D3T1</title>
<text text-anchor="middle" x="284" y="-250.2" style="font-family:Times New Roman;font-size:12.00;">D3T</text>
</g>
<!-- D3T1&#45;&gt;VEH1 -->
<g id="edge4" class="edge"><title>D3T1&#45;&gt;VEH1</title>
<path style="fill:none;stroke:black;" d="M257,-272C255,-273 253,-274 252,-275"/>
<polygon style="fill:black;stroke:black;" points="249.379,-272.541 243,-281 253.262,-278.365 249.379,-272.541"/>
</g>
<!-- C31 -->
<g id="node5" class="node"><title>C31</title>
<text text-anchor="middle" x="281" y="-184.2" style="font-family:Times New Roman;font-size:12.00;">C3</text>
</g>
<!-- D3T1&#45;&gt;C31 -->
<g id="edge6" class="edge"><title>D3T1&#45;&gt;C31</title>
<path style="fill:none;stroke:black;" d="M283,-236C283,-230 283,-223 282,-216"/>
<polygon style="fill:black;stroke:black;" points="285.5,-216 282,-206 278.5,-216 285.5,-216"/>
</g>
<!-- VEH2 -->
<g id="node9" class="node"><title>VEH2</title>
<text text-anchor="middle" x="369" y="-106.2" style="font-family:Times New Roman;font-size:12.00;">VEH</text>
</g>
<!-- D3T2 -->
<g id="node10" class="node"><title>D3T2</title>
<text text-anchor="middle" x="436" y="-105.2" style="font-family:Times New Roman;font-size:12.00;">D3T</text>
</g>
<!-- VEH2&#45;&gt;D3T2 -->
<g id="edge9" class="edge"><title>VEH2&#45;&gt;D3T2</title>
<path style="fill:none;stroke:black;" d="M396,-110C397,-110 398,-110 399,-110"/>
<polygon style="fill:black;stroke:black;" points="399.398,-113.478 409,-109 398.701,-106.512 399.398,-113.478"/>
</g>
<!-- C32 -->
<g id="node11" class="node"><title>C32</title>
<text text-anchor="middle" x="402" y="-49.2" style="font-family:Times New Roman;font-size:12.00;">C3</text>
</g>
<!-- C32&#45;&gt;VEH2 -->
<g id="edge11" class="edge"><title>C32&#45;&gt;VEH2</title>
<path style="fill:none;stroke:black;" d="M392,-71C390,-75 387,-79 385,-83"/>
<polygon style="fill:black;stroke:black;" points="381.797,-81.5586 380,-92 387.916,-84.9582 381.797,-81.5586"/>
</g>
<!-- C32&#45;&gt;D3T2 -->
<g id="edge13" class="edge"><title>C32&#45;&gt;D3T2</title>
<path style="fill:none;stroke:black;" d="M413,-71C415,-74 418,-78 420,-82"/>
<polygon style="fill:black;stroke:black;" points="417.084,-83.9582 425,-91 423.203,-80.5586 417.084,-83.9582"/>
</g>
<!-- VEH3 -->
<g id="node16" class="node"><title>VEH3</title>
<text text-anchor="middle" x="369" y="-248.2" style="font-family:Times New Roman;font-size:12.00;">VEH</text>
</g>
<!-- D3T3 -->
<g id="node17" class="node"><title>D3T3</title>
<text text-anchor="middle" x="502" y="-248.2" style="font-family:Times New Roman;font-size:12.00;">D3T</text>
</g>
<!-- C33 -->
<g id="node18" class="node"><title>C33</title>
<text text-anchor="middle" x="435" y="-202.2" style="font-family:Times New Roman;font-size:12.00;">C3</text>
</g>
<!-- C33&#45;&gt;VEH3 -->
<g id="edge16" class="edge"><title>C33&#45;&gt;VEH3</title>
<path style="fill:none;stroke:black;" d="M409,-224C407,-225 405,-226 403,-228"/>
<polygon style="fill:black;stroke:black;" points="400.9,-225.2 395,-234 405.1,-230.8 400.9,-225.2"/>
</g>
<!-- C33&#45;&gt;D3T3 -->
<g id="edge18" class="edge"><title>C33&#45;&gt;D3T3</title>
<path style="fill:none;stroke:black;" d="M461,-224C463,-225 465,-226 467,-228"/>
<polygon style="fill:black;stroke:black;" points="464.9,-230.8 475,-234 469.1,-225.2 464.9,-230.8"/>
</g>
<!-- VEH4 -->
<g id="node22" class="node"><title>VEH4</title>
<text text-anchor="middle" x="522" y="-106.2" style="font-family:Times New Roman;font-size:12.00;">VEH</text>
</g>
<!-- D3T4 -->
<g id="node23" class="node"><title>D3T4</title>
<text text-anchor="middle" x="589" y="-105.2" style="font-family:Times New Roman;font-size:12.00;">D3T</text>
</g>
<!-- D3T4&#45;&gt;VEH4 -->
<g id="edge21" class="edge"><title>D3T4&#45;&gt;VEH4</title>
<path style="fill:none;stroke:black;" d="M562,-109C561,-109 560,-109 559,-109"/>
<polygon style="fill:black;stroke:black;" points="558.602,-105.522 549,-110 559.299,-112.488 558.602,-105.522"/>
</g>
<!-- C34 -->
<g id="node24" class="node"><title>C34</title>
<text text-anchor="middle" x="555" y="-49.2" style="font-family:Times New Roman;font-size:12.00;">C3</text>
</g>
<!-- D3T4&#45;&gt;C34 -->
<g id="edge23" class="edge"><title>D3T4&#45;&gt;C34</title>
<path style="fill:none;stroke:black;" d="M578,-91C576,-88 573,-84 571,-80"/>
<polygon style="fill:black;stroke:black;" points="573.916,-78.0418 566,-71 567.797,-81.4414 573.916,-78.0418"/>
</g>
<!-- C34&#45;&gt;VEH4 -->
<g id="edge25" class="edge"><title>C34&#45;&gt;VEH4</title>
<path style="fill:none;stroke:black;" d="M545,-71C543,-75 540,-79 538,-83"/>
<polygon style="fill:black;stroke:black;" points="534.797,-81.5586 533,-92 540.916,-84.9582 534.797,-81.5586"/>
</g>
<!-- VEH5 -->
<g id="node29" class="node"><title>VEH5</title>
<text text-anchor="middle" x="522" y="-395.2" style="font-family:Times New Roman;font-size:12.00;">VEH</text>
</g>
<!-- D3T5 -->
<g id="node30" class="node"><title>D3T5</title>
<text text-anchor="middle" x="589" y="-394.2" style="font-family:Times New Roman;font-size:12.00;">D3T</text>
</g>
<!-- VEH5&#45;&gt;D3T5 -->
<g id="edge28" class="edge"><title>VEH5&#45;&gt;D3T5</title>
<path style="fill:none;stroke:black;" d="M549,-399C550,-399 551,-399 552,-399"/>
<polygon style="fill:black;stroke:black;" points="552.398,-402.478 562,-398 551.701,-395.512 552.398,-402.478"/>
</g>
<!-- C35 -->
<g id="node31" class="node"><title>C35</title>
<text text-anchor="middle" x="555" y="-338.2" style="font-family:Times New Roman;font-size:12.00;">C3</text>
</g>
<!-- VEH5&#45;&gt;C35 -->
<g id="edge30" class="edge"><title>VEH5&#45;&gt;C35</title>
<path style="fill:none;stroke:black;" d="M532,-381C534,-377 537,-373 539,-369"/>
<polygon style="fill:black;stroke:black;" points="542.203,-370.441 544,-360 536.084,-367.042 542.203,-370.441"/>
</g>
<!-- C35&#45;&gt;D3T5 -->
<g id="edge32" class="edge"><title>C35&#45;&gt;D3T5</title>
<path style="fill:none;stroke:black;" d="M566,-360C568,-363 571,-367 573,-371"/>
<polygon style="fill:black;stroke:black;" points="570.084,-372.958 578,-380 576.203,-369.559 570.084,-372.958"/>
</g>
<!-- VEH6 -->
<g id="node36" class="node"><title>VEH6</title>
<text text-anchor="middle" x="369" y="-448.2" style="font-family:Times New Roman;font-size:12.00;">VEH</text>
</g>
<!-- D3T6 -->
<g id="node37" class="node"><title>D3T6</title>
<text text-anchor="middle" x="437" y="-403.2" style="font-family:Times New Roman;font-size:12.00;">D3T</text>
</g>
<!-- VEH6&#45;&gt;D3T6 -->
<g id="edge35" class="edge"><title>VEH6&#45;&gt;D3T6</title>
<path style="fill:none;stroke:black;" d="M396,-434C398,-433 400,-432 401,-431"/>
<polygon style="fill:black;stroke:black;" points="403.621,-433.459 410,-425 399.738,-427.635 403.621,-433.459"/>
</g>
<!-- C36 -->
<g id="node38" class="node"><title>C36</title>
<text text-anchor="middle" x="434" y="-337.2" style="font-family:Times New Roman;font-size:12.00;">C3</text>
</g>
<!-- C36&#45;&gt;D3T6 -->
<g id="edge37" class="edge"><title>C36&#45;&gt;D3T6</title>
<path style="fill:none;stroke:black;" d="M435,-359C435,-365 435,-372 436,-379"/>
<polygon style="fill:black;stroke:black;" points="432.5,-379 436,-389 439.5,-379 432.5,-379"/>
</g>
<!-- VEH7 -->
<g id="node42" class="node"><title>VEH7</title>
<text text-anchor="middle" x="66" y="-287.2" style="font-family:Times New Roman;font-size:12.00;">VEH</text>
</g>
<!-- D3T7 -->
<g id="node43" class="node"><title>D3T7</title>
<text text-anchor="middle" x="129" y="-327.2" style="font-family:Times New Roman;font-size:12.00;">D3T</text>
</g>
<!-- D3T7&#45;&gt;VEH7 -->
<g id="edge40" class="edge"><title>D3T7&#45;&gt;VEH7</title>
<path style="fill:none;stroke:black;" d="M102,-314C102,-314 102,-314 101,-314"/>
<polygon style="fill:black;stroke:black;" points="103.1,-311.2 93,-308 98.9,-316.8 103.1,-311.2"/>
</g>
<!-- C37 -->
<g id="node44" class="node"><title>C37</title>
<text text-anchor="middle" x="63" y="-236.2" style="font-family:Times New Roman;font-size:12.00;">C3</text>
</g>
<!-- C37&#45;&gt;VEH7 -->
<g id="edge42" class="edge"><title>C37&#45;&gt;VEH7</title>
<path style="fill:none;stroke:black;" d="M64,-258C64,-260 64,-261 64,-263"/>
<polygon style="fill:black;stroke:black;" points="60.5222,-263.398 65,-273 67.4875,-262.701 60.5222,-263.398"/>
</g>
<!-- VEH8 -->
<g id="node48" class="node"><title>VEH8</title>
<text text-anchor="middle" x="522" y="-548.2" style="font-family:Times New Roman;font-size:12.00;">VEH</text>
</g>
<!-- D3T8 -->
<g id="node49" class="node"><title>D3T8</title>
<text text-anchor="middle" x="589" y="-547.2" style="font-family:Times New Roman;font-size:12.00;">D3T</text>
</g>
<!-- D3T8&#45;&gt;VEH8 -->
<g id="edge45" class="edge"><title>D3T8&#45;&gt;VEH8</title>
<path style="fill:none;stroke:black;" d="M562,-551C561,-551 560,-551 559,-551"/>
<polygon style="fill:black;stroke:black;" points="558.602,-547.522 549,-552 559.299,-554.488 558.602,-547.522"/>
</g>
<!-- C38 -->
<g id="node50" class="node"><title>C38</title>
<text text-anchor="middle" x="555" y="-491.2" style="font-family:Times New Roman;font-size:12.00;">C3</text>
</g>
<!-- C38&#45;&gt;VEH8 -->
<g id="edge47" class="edge"><title>C38&#45;&gt;VEH8</title>
<path style="fill:none;stroke:black;" d="M545,-513C543,-517 540,-521 538,-525"/>
<polygon style="fill:black;stroke:black;" points="534.797,-523.559 533,-534 540.916,-526.958 534.797,-523.559"/>
</g>
<!-- C38&#45;&gt;D3T8 -->
<g id="edge49" class="edge"><title>C38&#45;&gt;D3T8</title>
<path style="fill:none;stroke:black;" d="M566,-513C568,-516 571,-520 573,-524"/>
<polygon style="fill:black;stroke:black;" points="570.084,-525.958 578,-533 576.203,-522.559 570.084,-525.958"/>
</g>
<!-- VEH9 -->
<g id="node55" class="node"><title>VEH9</title>
<text text-anchor="middle" x="49" y="-100.2" style="font-family:Times New Roman;font-size:12.00;">VEH</text>
</g>
<!-- D3T9 -->
<g id="node56" class="node"><title>D3T9</title>
<text text-anchor="middle" x="112" y="-140.2" style="font-family:Times New Roman;font-size:12.00;">D3T</text>
</g>
<!-- VEH9&#45;&gt;D3T9 -->
<g id="edge52" class="edge"><title>VEH9&#45;&gt;D3T9</title>
<path style="fill:none;stroke:black;" d="M76,-121C76,-121 76,-121 77,-121"/>
<polygon style="fill:black;stroke:black;" points="74.9,-123.8 85,-127 79.1,-118.2 74.9,-123.8"/>
</g>
<!-- C39 -->
<g id="node57" class="node"><title>C39</title>
<text text-anchor="middle" x="46" y="-49.2" style="font-family:Times New Roman;font-size:12.00;">C3</text>
</g>
<!-- VEH9&#45;&gt;C39 -->
<g id="edge54" class="edge"><title>VEH9&#45;&gt;C39</title>
<path style="fill:none;stroke:black;" d="M48,-86C48,-84 48,-83 48,-81"/>
<polygon style="fill:black;stroke:black;" points="51.4778,-80.6021 47,-71 44.5125,-81.2987 51.4778,-80.6021"/>
</g>
<!-- VEH10 -->
<g id="node61" class="node"><title>VEH10</title>
<text text-anchor="middle" x="369" y="-599.2" style="font-family:Times New Roman;font-size:12.00;">VEH</text>
</g>
<!-- C310 -->
<g id="node63" class="node"><title>C310</title>
<text text-anchor="middle" x="402" y="-542.2" style="font-family:Times New Roman;font-size:12.00;">C3</text>
</g>
<!-- VEH10&#45;&gt;C310 -->
<g id="edge57" class="edge"><title>VEH10&#45;&gt;C310</title>
<path style="fill:none;stroke:black;" d="M379,-585C381,-581 384,-577 386,-573"/>
<polygon style="fill:black;stroke:black;" points="389.203,-574.441 391,-564 383.084,-571.042 389.203,-574.441"/>
</g>
<!-- D3T10 -->
<g id="node62" class="node"><title>D3T10</title>
<text text-anchor="middle" x="436" y="-598.2" style="font-family:Times New Roman;font-size:12.00;">D3T</text>
</g>
<!-- D3T10&#45;&gt;VEH10 -->
<g id="edge59" class="edge"><title>D3T10&#45;&gt;VEH10</title>
<path style="fill:none;stroke:black;" d="M409,-602C408,-602 407,-602 406,-602"/>
<polygon style="fill:black;stroke:black;" points="405.602,-598.522 396,-603 406.299,-605.488 405.602,-598.522"/>
</g>
<!-- D3T10&#45;&gt;C310 -->
<g id="edge61" class="edge"><title>D3T10&#45;&gt;C310</title>
<path style="fill:none;stroke:black;" d="M425,-584C423,-581 420,-577 418,-573"/>
<polygon style="fill:black;stroke:black;" points="420.916,-571.042 413,-564 414.797,-574.441 420.916,-571.042"/>
</g>
<!-- VEH11 -->
<g id="node68" class="node"><title>VEH11</title>
<text text-anchor="middle" x="148" y="-469.2" style="font-family:Times New Roman;font-size:12.00;">VEH</text>
</g>
<!-- C311 -->
<g id="node70" class="node"><title>C311</title>
<text text-anchor="middle" x="214" y="-423.2" style="font-family:Times New Roman;font-size:12.00;">C3</text>
</g>
<!-- VEH11&#45;&gt;C311 -->
<g id="edge64" class="edge"><title>VEH11&#45;&gt;C311</title>
<path style="fill:none;stroke:black;" d="M174,-455C176,-454 178,-453 180,-451"/>
<polygon style="fill:black;stroke:black;" points="182.1,-453.8 188,-445 177.9,-448.2 182.1,-453.8"/>
</g>
<!-- D3T11 -->
<g id="node69" class="node"><title>D3T11</title>
<text text-anchor="middle" x="281" y="-469.2" style="font-family:Times New Roman;font-size:12.00;">D3T</text>
</g>
<!-- D3T11&#45;&gt;C311 -->
<g id="edge66" class="edge"><title>D3T11&#45;&gt;C311</title>
<path style="fill:none;stroke:black;" d="M255,-455C253,-454 251,-453 249,-451"/>
<polygon style="fill:black;stroke:black;" points="251.1,-448.2 241,-445 246.9,-453.8 251.1,-448.2"/>
</g>
<!-- VEH12 -->
<g id="node74" class="node"><title>VEH12</title>
<text text-anchor="middle" x="199" y="-89.2" style="font-family:Times New Roman;font-size:12.00;">VEH</text>
</g>
<!-- D3T12 -->
<g id="node75" class="node"><title>D3T12</title>
<text text-anchor="middle" x="266" y="-88.2" style="font-family:Times New Roman;font-size:12.00;">D3T</text>
</g>
<!-- VEH12&#45;&gt;D3T12 -->
<g id="edge69" class="edge"><title>VEH12&#45;&gt;D3T12</title>
<path style="fill:none;stroke:black;" d="M226,-93C227,-93 228,-93 229,-93"/>
<polygon style="fill:black;stroke:black;" points="229.398,-96.4778 239,-92 228.701,-89.5125 229.398,-96.4778"/>
</g>
<!-- C312 -->
<g id="node76" class="node"><title>C312</title>
<text text-anchor="middle" x="232" y="-32.2" style="font-family:Times New Roman;font-size:12.00;">C3</text>
</g>
<!-- VEH12&#45;&gt;C312 -->
<g id="edge71" class="edge"><title>VEH12&#45;&gt;C312</title>
<path style="fill:none;stroke:black;" d="M209,-75C211,-71 214,-67 216,-63"/>
<polygon style="fill:black;stroke:black;" points="219.203,-64.4414 221,-54 213.084,-61.0418 219.203,-64.4414"/>
</g>
<!-- D3T12&#45;&gt;C312 -->
<g id="edge73" class="edge"><title>D3T12&#45;&gt;C312</title>
<path style="fill:none;stroke:black;" d="M255,-74C253,-71 250,-67 248,-63"/>
<polygon style="fill:black;stroke:black;" points="250.916,-61.0418 243,-54 244.797,-64.4414 250.916,-61.0418"/>
</g>
</g>
</svg>
