<?xml version="1.0" encoding="UTF-8" standalone="no"?>
<!DOCTYPE svg PUBLIC "-//W3C//DTD SVG 1.1//EN"
 "http://www.w3.org/Graphics/SVG/1.1/DTD/svg11.dtd">
<!-- Generated by graphviz version 2.26.3 (20100126.1600)
 -->
<!-- Title: FirstlevelCluster Pages: 1 -->
<svg width="413pt" height="242pt"
 viewBox="0.00 0.00 413.00 242.00" xmlns="http://www.w3.org/2000/svg" xmlns:xlink="http://www.w3.org/1999/xlink">
<g id="graph1" class="graph" transform="scale(1 1) rotate(0) translate(4 238)">
<title>FirstlevelCluster</title>
<polygon fill="white" stroke="white" points="-4,5 -4,-238 410,-238 410,5 -4,5"/>
<g id="graph2" class="cluster"><title>cluster_0</title>
<polygon fill="none" stroke="black" points="0.738117,-0.140888 0.738117,-233.141 403.738,-233.141 403.738,-0.140888 0.738117,-0.140888"/>
<text text-anchor="middle" x="202.238" y="-216.541" font-family="Times Roman,serif" font-size="14.00">BNF~D3T&gt;</text>
</g>
<g id="graph3" class="cluster"><title>cluster_2</title>
<polygon fill="lightgrey" stroke="black" points="9.97623,-9.28178 9.97623,-198.282 191.976,-198.282 191.976,-9.28178 9.97623,-9.28178"/>
<text text-anchor="middle" x="100.976" y="-181.682" font-family="Times Roman,serif" font-size="14.00">221100</text>
</g>
<g id="graph4" class="cluster"><title>cluster_3</title>
<polygon fill="lightgrey" stroke="black" points="218.976,-8.28178 218.976,-193.282 394.976,-193.282 394.976,-8.28178 218.976,-8.28178"/>
<text text-anchor="middle" x="306.976" y="-176.682" font-family="Times Roman,serif" font-size="14.00">222100</text>
</g>
<!-- CON2 -->
<g id="node3" class="node"><title>CON2</title>
<text text-anchor="middle" x="45.7612" y="-77.1683" font-family="Times Roman,serif" font-size="16.00">CON</text>
</g>
<!-- BNF2 -->
<g id="node4" class="node"><title>BNF2</title>
<text text-anchor="middle" x="155.636" y="-96.0396" font-family="Times Roman,serif" font-size="16.00">BNF</text>
</g>
<!-- BNF2&#45;&gt;CON2 -->
<g id="edge4" class="edge"><title>BNF2&#45;&gt;CON2</title>
<path fill="none" stroke="black" d="M128.476,-95.7747C114.741,-93.4158 97.8637,-90.517 82.9435,-87.9544"/>
<polygon fill="black" stroke="black" points="83.4378,-84.4881 72.9897,-86.2448 82.2529,-91.3871 83.4378,-84.4881"/>
</g>
<!-- OLT2 -->
<g id="node6" class="node"><title>OLT2</title>
<text text-anchor="middle" x="89.9158" y="-141.267" font-family="Times Roman,serif" font-size="16.00">OLT</text>
</g>
<!-- BNF2&#45;&gt;OLT2 -->
<g id="edge6" class="edge"><title>BNF2&#45;&gt;OLT2</title>
<path fill="none" stroke="black" d="M129.284,-118.575C127.811,-119.589 126.319,-120.615 124.823,-121.645"/>
<polygon fill="black" stroke="black" points="122.528,-118.976 116.274,-127.528 126.496,-124.742 122.528,-118.976"/>
</g>
<!-- D3T2 -->
<g id="node5" class="node"><title>D3T2</title>
<text text-anchor="middle" x="111.482" y="-31.9405" font-family="Times Roman,serif" font-size="16.00">D3T</text>
</g>
<!-- D3T2&#45;&gt;CON2 -->
<g id="edge8" class="edge"><title>D3T2&#45;&gt;CON2</title>
<path fill="none" stroke="black" d="M85.1292,-54.4758C83.6562,-55.4895 82.1649,-56.5158 80.668,-57.5459"/>
<polygon fill="black" stroke="black" points="78.373,-54.8765 72.1194,-63.4289 82.3414,-60.643 78.373,-54.8765"/>
</g>
<!-- D3T2&#45;&gt;OLT2 -->
<g id="edge10" class="edge"><title>D3T2&#45;&gt;OLT2</title>
<path fill="none" stroke="black" d="M107.92,-54.3936C104.533,-71.5642 99.3869,-97.6539 95.4624,-117.549"/>
<polygon fill="black" stroke="black" points="91.9838,-117.099 93.4822,-127.587 98.8514,-118.454 91.9838,-117.099"/>
</g>
<!-- CON3 -->
<g id="node12" class="node"><title>CON3</title>
<text text-anchor="middle" x="255.339" y="-82.9991" font-family="Times Roman,serif" font-size="16.00">CON</text>
</g>
<!-- BNF3 -->
<g id="node13" class="node"><title>BNF3</title>
<text text-anchor="middle" x="358.676" y="-99.3931" font-family="Times Roman,serif" font-size="16.00">BNF</text>
</g>
<!-- BNF3&#45;&gt;CON3 -->
<g id="edge13" class="edge"><title>BNF3&#45;&gt;CON3</title>
<path fill="none" stroke="black" d="M331.525,-99.4858C319.635,-97.5994 305.489,-95.3552 292.633,-93.3156"/>
<polygon fill="black" stroke="black" points="293.092,-89.8448 282.667,-91.7346 291.995,-96.7583 293.092,-89.8448"/>
</g>
<!-- OLT3 -->
<g id="node15" class="node"><title>OLT3</title>
<text text-anchor="middle" x="296.179" y="-135.647" font-family="Times Roman,serif" font-size="16.00">OLT</text>
</g>
<!-- BNF3&#45;&gt;OLT3 -->
<g id="edge15" class="edge"><title>BNF3&#45;&gt;OLT3</title>
<path fill="none" stroke="black" d="M331.446,-119.589C331.281,-119.685 331.117,-119.78 330.952,-119.876"/>
<polygon fill="black" stroke="black" points="330.405,-116.147 323.512,-124.192 333.918,-122.201 330.405,-116.147"/>
</g>
<!-- D3T3 -->
<g id="node14" class="node"><title>D3T3</title>
<text text-anchor="middle" x="304.449" y="-31.2097" font-family="Times Roman,serif" font-size="16.00">D3T</text>
</g>
<!-- D3T3&#45;&gt;CON3 -->
<g id="edge17" class="edge"><title>D3T3&#45;&gt;CON3</title>
<path fill="none" stroke="black" d="M287.273,-53.7231C284.894,-56.2317 282.414,-58.8476 279.933,-61.4641"/>
<polygon fill="black" stroke="black" points="276.93,-59.5438 272.589,-69.2084 282.01,-64.3604 276.93,-59.5438"/>
</g>
<!-- D3T3&#45;&gt;OLT3 -->
<g id="edge19" class="edge"><title>D3T3&#45;&gt;OLT3</title>
<path fill="none" stroke="black" d="M303.009,-53.8013C301.748,-69.7276 299.894,-93.1334 298.436,-111.545"/>
<polygon fill="black" stroke="black" points="294.932,-111.469 297.631,-121.714 301.91,-112.021 294.932,-111.469"/>
</g>
<!-- OLT3&#45;&gt;CON3 -->
<g id="edge21" class="edge"><title>OLT3&#45;&gt;CON3</title>
<path fill="none" stroke="black" d="M282.125,-121.929C280.094,-119.311 277.97,-116.574 275.845,-113.834"/>
<polygon fill="black" stroke="black" points="278.454,-111.486 269.559,-105.73 272.923,-115.776 278.454,-111.486"/>
</g>
</g>
</svg>
