<?xml version="1.0" encoding="UTF-8" standalone="no"?>
<!DOCTYPE svg PUBLIC "-//W3C//DTD SVG 1.1//EN"
 "http://www.w3.org/Graphics/SVG/1.1/DTD/svg11.dtd">
<!-- Generated by graphviz version 2.26.3 (20100126.1600)
 -->
<!-- Title: FirstlevelCluster Pages: 1 -->
<svg width="192pt" height="237pt"
 viewBox="0.00 0.00 192.00 237.00" xmlns="http://www.w3.org/2000/svg" xmlns:xlink="http://www.w3.org/1999/xlink">
<g id="graph1" class="graph" transform="scale(1 1) rotate(0) translate(4 233)">
<title>FirstlevelCluster</title>
<polygon fill="white" stroke="white" points="-4,5 -4,-233 189,-233 189,5 -4,5"/>
<g id="graph2" class="cluster"><title>cluster_0</title>
<polygon fill="none" stroke="black" points="1.23812,-1.14089 1.23812,-228.141 183.238,-228.141 183.238,-1.14089 1.23812,-1.14089"/>
<text text-anchor="middle" x="92.2381" y="-211.541" font-family="Times Roman,serif" font-size="14.00">BNF~D3T~OLT&gt;</text>
</g>
<g id="graph3" class="cluster"><title>cluster_2</title>
<polygon fill="lightgrey" stroke="black" points="10.4762,-10.2818 10.4762,-193.282 174.476,-193.282 174.476,-10.2818 10.4762,-10.2818"/>
<text text-anchor="middle" x="92.4762" y="-176.682" font-family="Times Roman,serif" font-size="14.00">222111</text>
</g>
<!-- CON2 -->
<g id="node3" class="node"><title>CON2</title>
<text text-anchor="middle" x="75.4617" y="-84.8741" font-family="Times Roman,serif" font-size="16.00">CON</text>
</g>
<!-- BNF2 -->
<g id="node4" class="node"><title>BNF2</title>
<text text-anchor="middle" x="138.715" y="-79.5818" font-family="Times Roman,serif" font-size="16.00">BNF</text>
</g>
<!-- BNF2&#45;&gt;CON2 -->
<g id="edge4" class="edge"><title>BNF2&#45;&gt;CON2</title>
<path fill="none" stroke="black" d="M111.523,-86.257C111.431,-86.2647 111.339,-86.2724 111.247,-86.2801"/>
<polygon fill="black" stroke="black" points="112.304,-82.6792 102.631,-87.0009 112.888,-89.6549 112.304,-82.6792"/>
</g>
<!-- D3T2 -->
<g id="node5" class="node"><title>D3T2</title>
<text text-anchor="middle" x="63.3171" y="-32.7307" font-family="Times Roman,serif" font-size="16.00">D3T</text>
</g>
<!-- D3T2&#45;&gt;CON2 -->
<g id="edge6" class="edge"><title>D3T2&#45;&gt;CON2</title>
<path fill="none" stroke="black" d="M67.5647,-55.3679C68.0059,-57.2622 68.4612,-59.2173 68.9202,-61.1878"/>
<polygon fill="black" stroke="black" points="65.5188,-62.0136 71.196,-70.959 72.3363,-60.4257 65.5188,-62.0136"/>
</g>
<!-- OLT2 -->
<g id="node6" class="node"><title>OLT2</title>
<text text-anchor="middle" x="46.4666" y="-135.656" font-family="Times Roman,serif" font-size="16.00">OLT</text>
</g>
<!-- OLT2&#45;&gt;CON2 -->
<g id="edge8" class="edge"><title>OLT2&#45;&gt;CON2</title>
<path fill="none" stroke="black" d="M56.7708,-122.009C57.7719,-120.256 58.8021,-118.451 59.8401,-116.633"/>
<polygon fill="black" stroke="black" points="63.076,-118.025 64.995,-107.605 56.9971,-114.554 63.076,-118.025"/>
</g>
</g>
</svg>
