<?xml version="1.0" encoding="UTF-8" standalone="no"?>
<!DOCTYPE svg PUBLIC "-//W3C//DTD SVG 1.1//EN"
 "http://www.w3.org/Graphics/SVG/1.1/DTD/svg11.dtd">
<!-- Generated by graphviz version 2.26.3 (20100126.1600)
 -->
<!-- Title: FirstlevelCluster Pages: 1 -->
<svg width="413pt" height="239pt"
 viewBox="0.00 0.00 413.00 239.00" xmlns="http://www.w3.org/2000/svg" xmlns:xlink="http://www.w3.org/1999/xlink">
<g id="graph1" class="graph" transform="scale(1 1) rotate(0) translate(4 235)">
<title>FirstlevelCluster</title>
<polygon fill="white" stroke="white" points="-4,5 -4,-235 410,-235 410,5 -4,5"/>
<g id="graph2" class="cluster"><title>cluster_0</title>
<polygon fill="none" stroke="black" points="0.738117,-1.14089 0.738117,-230.141 403.738,-230.141 403.738,-1.14089 0.738117,-1.14089"/>
<text text-anchor="middle" x="202.238" y="-213.541" font-family="Times Roman,serif" font-size="14.00">&gt;BNF~OLT</text>
</g>
<g id="graph3" class="cluster"><title>cluster_2</title>
<polygon fill="lightgrey" stroke="black" points="218.976,-9.78178 218.976,-189.782 394.976,-189.782 394.976,-9.78178 218.976,-9.78178"/>
<text text-anchor="middle" x="306.976" y="-173.182" font-family="Times Roman,serif" font-size="14.00">010210</text>
</g>
<g id="graph4" class="cluster"><title>cluster_3</title>
<polygon fill="lightgrey" stroke="black" points="9.47623,-9.78178 9.47623,-195.782 190.476,-195.782 190.476,-9.78178 9.47623,-9.78178"/>
<text text-anchor="middle" x="99.9762" y="-179.182" font-family="Times Roman,serif" font-size="14.00">000210</text>
</g>
<!-- CON2 -->
<g id="node3" class="node"><title>CON2</title>
<text text-anchor="middle" x="255.218" y="-79.0604" font-family="Times Roman,serif" font-size="16.00">CON</text>
</g>
<!-- BNF2 -->
<g id="node4" class="node"><title>BNF2</title>
<text text-anchor="middle" x="358.59" y="-85.5261" font-family="Times Roman,serif" font-size="16.00">BNF</text>
</g>
<!-- CON2&#45;&gt;BNF2 -->
<g id="edge4" class="edge"><title>CON2&#45;&gt;BNF2</title>
<path fill="none" stroke="black" d="M282.378,-85.1592C294.155,-85.8958 308.143,-86.7707 320.901,-87.5687"/>
<polygon fill="black" stroke="black" points="321.054,-91.085 331.253,-88.2162 321.491,-84.0987 321.054,-91.085"/>
</g>
<!-- OLT2 -->
<g id="node6" class="node"><title>OLT2</title>
<text text-anchor="middle" x="292.603" y="-132.04" font-family="Times Roman,serif" font-size="16.00">OLT</text>
</g>
<!-- CON2&#45;&gt;OLT2 -->
<g id="edge6" class="edge"><title>CON2&#45;&gt;OLT2</title>
<path fill="none" stroke="black" d="M268.084,-101.693C269.985,-104.387 271.975,-107.207 273.965,-110.026"/>
<polygon fill="black" stroke="black" points="271.215,-112.201 279.84,-118.353 276.934,-108.165 271.215,-112.201"/>
</g>
<!-- D3T2 -->
<g id="node5" class="node"><title>D3T2</title>
<text text-anchor="middle" x="321.205" y="-32.5467" font-family="Times Roman,serif" font-size="16.00">D3T</text>
</g>
<!-- D3T2&#45;&gt;BNF2 -->
<g id="edge8" class="edge"><title>D3T2&#45;&gt;BNF2</title>
<path fill="none" stroke="black" d="M334.071,-55.1792C335.972,-57.8731 337.962,-60.6935 339.951,-63.5128"/>
<polygon fill="black" stroke="black" points="337.202,-65.6869 345.827,-71.8395 342.921,-61.6509 337.202,-65.6869"/>
</g>
<!-- D3T2&#45;&gt;OLT2 -->
<g id="edge10" class="edge"><title>D3T2&#45;&gt;OLT2</title>
<path fill="none" stroke="black" d="M315.959,-55.1953C311.685,-70.0616 305.579,-91.3033 300.682,-108.338"/>
<polygon fill="black" stroke="black" points="297.215,-107.729 297.816,-118.307 303.943,-109.663 297.215,-107.729"/>
</g>
<!-- CON3 -->
<g id="node12" class="node"><title>CON3</title>
<text text-anchor="middle" x="45.9017" y="-79.3599" font-family="Times Roman,serif" font-size="16.00">CON</text>
</g>
<!-- BNF3 -->
<g id="node13" class="node"><title>BNF3</title>
<text text-anchor="middle" x="154.006" y="-82.7964" font-family="Times Roman,serif" font-size="16.00">BNF</text>
</g>
<!-- CON3&#45;&gt;BNF3 -->
<g id="edge13" class="edge"><title>CON3&#45;&gt;BNF3</title>
<path fill="none" stroke="black" d="M72.9021,-84.6182C86.1877,-85.0406 102.411,-85.5563 116.847,-86.0152"/>
<polygon fill="black" stroke="black" points="116.869,-89.5175 126.975,-86.3371 117.091,-82.5211 116.869,-89.5175"/>
</g>
<!-- D3T3 -->
<g id="node14" class="node"><title>D3T3</title>
<text text-anchor="middle" x="100.969" y="-31.9954" font-family="Times Roman,serif" font-size="16.00">D3T</text>
</g>
<!-- CON3&#45;&gt;D3T3 -->
<g id="edge15" class="edge"><title>CON3&#45;&gt;D3T3</title>
<path fill="none" stroke="black" d="M67.0347,-65.583C68.7598,-64.0993 70.5204,-62.585 72.2872,-61.0653"/>
<polygon fill="black" stroke="black" points="74.6845,-63.6199 79.9836,-54.4454 70.1199,-58.3129 74.6845,-63.6199"/>
</g>
<!-- OLT3 -->
<g id="node15" class="node"><title>OLT3</title>
<text text-anchor="middle" x="78.7775" y="-138.051" font-family="Times Roman,serif" font-size="16.00">OLT</text>
</g>
<!-- CON3&#45;&gt;OLT3 -->
<g id="edge17" class="edge"><title>CON3&#45;&gt;OLT3</title>
<path fill="none" stroke="black" d="M56.1236,-102.008C58.4962,-106.244 61.0715,-110.842 63.6063,-115.367"/>
<polygon fill="black" stroke="black" points="60.7342,-117.401 68.6748,-124.416 66.8414,-113.981 60.7342,-117.401"/>
</g>
<!-- D3T3&#45;&gt;BNF3 -->
<g id="edge19" class="edge"><title>D3T3&#45;&gt;BNF3</title>
<path fill="none" stroke="black" d="M119.817,-54.4489C122.259,-56.7875 124.795,-59.2169 127.334,-61.6482"/>
<polygon fill="black" stroke="black" points="125.218,-64.4686 134.861,-68.8583 130.06,-59.4135 125.218,-64.4686"/>
</g>
<!-- D3T3&#45;&gt;OLT3 -->
<g id="edge21" class="edge"><title>D3T3&#45;&gt;OLT3</title>
<path fill="none" stroke="black" d="M97.1037,-54.8689C93.667,-71.2932 88.5912,-95.5508 84.6524,-114.375"/>
<polygon fill="black" stroke="black" points="81.2211,-113.684 82.5987,-124.189 88.0727,-115.118 81.2211,-113.684"/>
</g>
</g>
</svg>
