<?xml version="1.0" encoding="UTF-8" standalone="no"?>
<!DOCTYPE svg PUBLIC "-//W3C//DTD SVG 1.1//EN"
 "http://www.w3.org/Graphics/SVG/1.1/DTD/svg11.dtd">
<!-- Generated by graphviz version 2.26.3 (20100126.1600)
 -->
<!-- Title: FirstlevelCluster Pages: 1 -->
<svg width="413pt" height="242pt"
 viewBox="0.00 0.00 413.00 242.00" xmlns="http://www.w3.org/2000/svg" xmlns:xlink="http://www.w3.org/1999/xlink">
<g id="graph1" class="graph" transform="scale(1 1) rotate(0) translate(4 238)">
<title>FirstlevelCluster</title>
<polygon fill="white" stroke="white" points="-4,5 -4,-238 410,-238 410,5 -4,5"/>
<g id="graph2" class="cluster"><title>cluster_0</title>
<polygon fill="none" stroke="black" points="0.738117,-0.140888 0.738117,-233.141 403.738,-233.141 403.738,-0.140888 0.738117,-0.140888"/>
<text text-anchor="middle" x="202.238" y="-216.541" font-family="Times Roman,serif" font-size="14.00">&gt;BNF~D3T</text>
</g>
<g id="graph3" class="cluster"><title>cluster_2</title>
<polygon fill="lightgrey" stroke="black" points="9.97623,-9.28178 9.97623,-198.282 191.976,-198.282 191.976,-9.28178 9.97623,-9.28178"/>
<text text-anchor="middle" x="100.976" y="-181.682" font-family="Times Roman,serif" font-size="14.00">001122</text>
</g>
<g id="graph4" class="cluster"><title>cluster_3</title>
<polygon fill="lightgrey" stroke="black" points="218.976,-8.28178 218.976,-193.282 394.976,-193.282 394.976,-8.28178 218.976,-8.28178"/>
<text text-anchor="middle" x="306.976" y="-176.682" font-family="Times Roman,serif" font-size="14.00">000122</text>
</g>
<!-- CON2 -->
<g id="node3" class="node"><title>CON2</title>
<text text-anchor="middle" x="45.7612" y="-77.1683" font-family="Times Roman,serif" font-size="16.00">CON</text>
</g>
<!-- BNF2 -->
<g id="node4" class="node"><title>BNF2</title>
<text text-anchor="middle" x="155.636" y="-96.0396" font-family="Times Roman,serif" font-size="16.00">BNF</text>
</g>
<!-- CON2&#45;&gt;BNF2 -->
<g id="edge4" class="edge"><title>CON2&#45;&gt;BNF2</title>
<path fill="none" stroke="black" d="M72.9213,-86.2331C86.6558,-88.592 103.534,-91.4908 118.454,-94.0534"/>
<polygon fill="black" stroke="black" points="117.959,-97.5197 128.408,-95.763 119.144,-90.6207 117.959,-97.5197"/>
</g>
<!-- D3T2 -->
<g id="node5" class="node"><title>D3T2</title>
<text text-anchor="middle" x="111.482" y="-31.9405" font-family="Times Roman,serif" font-size="16.00">D3T</text>
</g>
<!-- CON2&#45;&gt;D3T2 -->
<g id="edge6" class="edge"><title>CON2&#45;&gt;D3T2</title>
<path fill="none" stroke="black" d="M72.1135,-63.433C73.5866,-62.4193 75.0778,-61.393 76.5748,-60.3628"/>
<polygon fill="black" stroke="black" points="78.8697,-63.0322 85.1233,-54.4798 74.9013,-57.2658 78.8697,-63.0322"/>
</g>
<!-- OLT2 -->
<g id="node6" class="node"><title>OLT2</title>
<text text-anchor="middle" x="89.9158" y="-141.267" font-family="Times Roman,serif" font-size="16.00">OLT</text>
</g>
<!-- OLT2&#45;&gt;BNF2 -->
<g id="edge8" class="edge"><title>OLT2&#45;&gt;BNF2</title>
<path fill="none" stroke="black" d="M116.268,-127.532C117.741,-126.518 119.232,-125.492 120.729,-124.462"/>
<polygon fill="black" stroke="black" points="123.024,-127.131 129.278,-118.579 119.056,-121.365 123.024,-127.131"/>
</g>
<!-- OLT2&#45;&gt;D3T2 -->
<g id="edge10" class="edge"><title>OLT2&#45;&gt;D3T2</title>
<path fill="none" stroke="black" d="M93.4769,-127.614C96.864,-110.444 102.01,-84.3539 105.935,-64.4591"/>
<polygon fill="black" stroke="black" points="109.414,-64.9088 107.915,-54.4204 102.546,-63.554 109.414,-64.9088"/>
</g>
<!-- CON3 -->
<g id="node12" class="node"><title>CON3</title>
<text text-anchor="middle" x="255.339" y="-82.9991" font-family="Times Roman,serif" font-size="16.00">CON</text>
</g>
<!-- BNF3 -->
<g id="node13" class="node"><title>BNF3</title>
<text text-anchor="middle" x="358.676" y="-99.3931" font-family="Times Roman,serif" font-size="16.00">BNF</text>
</g>
<!-- CON3&#45;&gt;BNF3 -->
<g id="edge13" class="edge"><title>CON3&#45;&gt;BNF3</title>
<path fill="none" stroke="black" d="M282.49,-91.7064C294.38,-93.5928 308.526,-95.837 321.382,-97.8766"/>
<polygon fill="black" stroke="black" points="320.923,-101.347 331.348,-99.4576 322.02,-94.4339 320.923,-101.347"/>
</g>
<!-- D3T3 -->
<g id="node14" class="node"><title>D3T3</title>
<text text-anchor="middle" x="304.449" y="-31.2097" font-family="Times Roman,serif" font-size="16.00">D3T</text>
</g>
<!-- CON3&#45;&gt;D3T3 -->
<g id="edge15" class="edge"><title>CON3&#45;&gt;D3T3</title>
<path fill="none" stroke="black" d="M272.516,-69.2857C274.894,-66.7771 277.375,-64.1612 279.856,-61.5447"/>
<polygon fill="black" stroke="black" points="282.859,-63.465 287.2,-53.8004 277.779,-58.6484 282.859,-63.465"/>
</g>
<!-- OLT3 -->
<g id="node15" class="node"><title>OLT3</title>
<text text-anchor="middle" x="296.179" y="-135.647" font-family="Times Roman,serif" font-size="16.00">OLT</text>
</g>
<!-- CON3&#45;&gt;OLT3 -->
<g id="edge17" class="edge"><title>CON3&#45;&gt;OLT3</title>
<path fill="none" stroke="black" d="M269.394,-105.518C271.425,-108.135 273.548,-110.873 275.673,-113.612"/>
<polygon fill="black" stroke="black" points="273.065,-115.961 281.96,-121.717 278.596,-111.67 273.065,-115.961"/>
</g>
<!-- OLT3&#45;&gt;BNF3 -->
<g id="edge19" class="edge"><title>OLT3&#45;&gt;BNF3</title>
<path fill="none" stroke="black" d="M323.409,-124.251C323.574,-124.156 323.739,-124.06 323.903,-123.965"/>
<polygon fill="black" stroke="black" points="324.45,-127.694 331.344,-119.649 320.937,-121.639 324.45,-127.694"/>
</g>
<!-- OLT3&#45;&gt;D3T3 -->
<g id="edge21" class="edge"><title>OLT3&#45;&gt;D3T3</title>
<path fill="none" stroke="black" d="M297.62,-121.856C298.881,-105.93 300.735,-82.5237 302.192,-64.1122"/>
<polygon fill="black" stroke="black" points="305.697,-64.1884 302.998,-53.9433 298.719,-63.6358 305.697,-64.1884"/>
</g>
</g>
</svg>
