<?xml version="1.0" encoding="UTF-8" standalone="no"?>
<!DOCTYPE svg PUBLIC "-//W3C//DTD SVG 1.1//EN"
 "http://www.w3.org/Graphics/SVG/1.1/DTD/svg11.dtd">
<!-- Generated by graphviz version 2.26.3 (20100126.1600)
 -->
<!-- Title: FirstlevelCluster Pages: 1 -->
<svg width="203pt" height="233pt"
 viewBox="0.00 0.00 203.00 233.00" xmlns="http://www.w3.org/2000/svg" xmlns:xlink="http://www.w3.org/1999/xlink">
<g id="graph1" class="graph" transform="scale(1 1) rotate(0) translate(4 229)">
<title>FirstlevelCluster</title>
<polygon fill="white" stroke="white" points="-4,5 -4,-229 200,-229 200,5 -4,5"/>
<g id="graph2" class="cluster"><title>cluster_0</title>
<polygon fill="none" stroke="black" points="0.738117,-0.640888 0.738117,-224.641 193.738,-224.641 193.738,-0.640888 0.738117,-0.640888"/>
<text text-anchor="middle" x="97.2381" y="-208.041" font-family="Times Roman,serif" font-size="14.00">BNF~OLT&gt;</text>
</g>
<g id="graph3" class="cluster"><title>cluster_2</title>
<polygon fill="lightgrey" stroke="black" points="8.97623,-9.28178 8.97623,-189.282 184.976,-189.282 184.976,-9.28178 8.97623,-9.28178"/>
<text text-anchor="middle" x="96.9762" y="-172.682" font-family="Times Roman,serif" font-size="14.00">212012</text>
</g>
<!-- CON2 -->
<g id="node3" class="node"><title>CON2</title>
<text text-anchor="middle" x="45.2179" y="-78.5604" font-family="Times Roman,serif" font-size="16.00">CON</text>
</g>
<!-- BNF2 -->
<g id="node4" class="node"><title>BNF2</title>
<text text-anchor="middle" x="148.59" y="-85.0261" font-family="Times Roman,serif" font-size="16.00">BNF</text>
</g>
<!-- BNF2&#45;&gt;CON2 -->
<g id="edge4" class="edge"><title>BNF2&#45;&gt;CON2</title>
<path fill="none" stroke="black" d="M121.43,-87.7273C109.653,-86.9907 95.665,-86.1157 82.907,-85.3177"/>
<polygon fill="black" stroke="black" points="82.7543,-81.8014 72.5553,-84.6703 82.3172,-88.7878 82.7543,-81.8014"/>
</g>
<!-- D3T2 -->
<g id="node5" class="node"><title>D3T2</title>
<text text-anchor="middle" x="111.205" y="-32.0467" font-family="Times Roman,serif" font-size="16.00">D3T</text>
</g>
<!-- BNF2&#45;&gt;D3T2 -->
<g id="edge6" class="edge"><title>BNF2&#45;&gt;D3T2</title>
<path fill="none" stroke="black" d="M135.724,-71.1936C133.823,-68.4997 131.833,-65.6793 129.844,-62.86"/>
<polygon fill="black" stroke="black" points="132.593,-60.6859 123.968,-54.5333 126.874,-64.7219 132.593,-60.6859"/>
</g>
<!-- OLT2 -->
<g id="node6" class="node"><title>OLT2</title>
<text text-anchor="middle" x="82.6033" y="-131.54" font-family="Times Roman,serif" font-size="16.00">OLT</text>
</g>
<!-- OLT2&#45;&gt;CON2 -->
<g id="edge8" class="edge"><title>OLT2&#45;&gt;CON2</title>
<path fill="none" stroke="black" d="M69.7374,-117.707C67.8364,-115.013 65.8462,-112.193 63.8567,-109.374"/>
<polygon fill="black" stroke="black" points="66.6062,-107.2 57.9809,-101.047 60.8869,-111.236 66.6062,-107.2"/>
</g>
<!-- OLT2&#45;&gt;D3T2 -->
<g id="edge10" class="edge"><title>OLT2&#45;&gt;D3T2</title>
<path fill="none" stroke="black" d="M87.8493,-117.691C92.1229,-102.825 98.2293,-81.5832 103.126,-64.5481"/>
<polygon fill="black" stroke="black" points="106.593,-65.1573 105.992,-54.5796 99.8654,-63.2233 106.593,-65.1573"/>
</g>
</g>
</svg>
