<?xml version="1.0" encoding="UTF-8" standalone="no"?>
<!DOCTYPE svg PUBLIC "-//W3C//DTD SVG 1.1//EN"
 "http://www.w3.org/Graphics/SVG/1.1/DTD/svg11.dtd">
<!-- Generated by graphviz version 2.26.3 (20100126.1600)
 -->
<!-- Title: FirstlevelCluster Pages: 1 -->
<svg width="937pt" height="980pt"
 viewBox="0.00 0.00 937.00 980.00" xmlns="http://www.w3.org/2000/svg" xmlns:xlink="http://www.w3.org/1999/xlink">
<g id="graph1" class="graph" transform="scale(1 1) rotate(0) translate(4 976)">
<title>FirstlevelCluster</title>
<polygon fill="white" stroke="white" points="-4,5 -4,-976 934,-976 934,5 -4,5"/>
<g id="graph2" class="cluster"><title>cluster_0</title>
<polygon fill="none" stroke="black" points="0.238117,-0.640888 0.238117,-970.641 928.238,-970.641 928.238,-0.640888 0.238117,-0.640888"/>
<text text-anchor="middle" x="464.238" y="-954.041" font-family="Times Roman,serif" font-size="14.00">BNF&gt;</text>
</g>
<g id="graph3" class="cluster"><title>cluster_2</title>
<polygon fill="lightgrey" stroke="black" points="228.476,-328.782 228.476,-505.782 422.476,-505.782 422.476,-328.782 228.476,-328.782"/>
<text text-anchor="middle" x="325.476" y="-489.182" font-family="Times Roman,serif" font-size="14.00">211001</text>
</g>
<g id="graph4" class="cluster"><title>cluster_3</title>
<polygon fill="lightgrey" stroke="black" points="468.976,-749.282 468.976,-931.282 607.976,-931.282 607.976,-749.282 468.976,-749.282"/>
<text text-anchor="middle" x="538.476" y="-914.682" font-family="Times Roman,serif" font-size="14.00">200001</text>
</g>
<g id="graph5" class="cluster"><title>cluster_4</title>
<polygon fill="none" stroke="black" points="568.976,-89.2818 568.976,-267.282 711.976,-267.282 711.976,-89.2818 568.976,-89.2818"/>
<text text-anchor="middle" x="640.476" y="-250.682" font-family="Times Roman,serif" font-size="14.00">201001</text>
</g>
<g id="graph6" class="cluster"><title>cluster_5</title>
<polygon fill="none" stroke="black" points="269.476,-769.282 269.476,-919.282 439.476,-919.282 439.476,-769.282 269.476,-769.282"/>
<text text-anchor="middle" x="354.476" y="-902.682" font-family="Times Roman,serif" font-size="14.00">210001</text>
</g>
<g id="graph7" class="cluster"><title>cluster_6</title>
<polygon fill="lightgrey" stroke="black" points="448.476,-309.782 448.476,-490.782 626.476,-490.782 626.476,-309.782 448.476,-309.782"/>
<text text-anchor="middle" x="537.476" y="-474.182" font-family="Times Roman,serif" font-size="14.00">201002</text>
</g>
<g id="graph8" class="cluster"><title>cluster_7</title>
<polygon fill="none" stroke="black" points="668.976,-309.282 668.976,-487.282 811.976,-487.282 811.976,-309.282 668.976,-309.282"/>
<text text-anchor="middle" x="740.476" y="-470.682" font-family="Times Roman,serif" font-size="14.00">221001</text>
</g>
<g id="graph9" class="cluster"><title>cluster_8</title>
<polygon fill="lightgrey" stroke="black" points="448.976,-528.782 448.976,-713.782 633.976,-713.782 633.976,-528.782 448.976,-528.782"/>
<text text-anchor="middle" x="541.476" y="-697.182" font-family="Times Roman,serif" font-size="14.00">210000</text>
</g>
<g id="graph10" class="cluster"><title>cluster_9</title>
<polygon fill="lightgrey" stroke="black" points="228.476,-549.782 228.476,-730.782 406.476,-730.782 406.476,-549.782 228.476,-549.782"/>
<text text-anchor="middle" x="317.476" y="-714.182" font-family="Times Roman,serif" font-size="14.00">221000</text>
</g>
<g id="graph11" class="cluster"><title>cluster_10</title>
<polygon fill="none" stroke="black" points="28.4762,-128.782 28.4762,-287.782 232.476,-287.782 232.476,-128.782 28.4762,-128.782"/>
<text text-anchor="middle" x="130.476" y="-271.182" font-family="Times Roman,serif" font-size="14.00">211002</text>
</g>
<g id="graph12" class="cluster"><title>cluster_11</title>
<polygon fill="none" stroke="black" points="749.476,-9.28178 749.476,-159.282 919.476,-159.282 919.476,-9.28178 749.476,-9.28178"/>
<text text-anchor="middle" x="834.476" y="-142.682" font-family="Times Roman,serif" font-size="14.00">212001</text>
</g>
<g id="graph13" class="cluster"><title>cluster_12</title>
<polygon fill="none" stroke="black" points="328.476,-108.782 328.476,-267.782 532.476,-267.782 532.476,-108.782 328.476,-108.782"/>
<text text-anchor="middle" x="430.476" y="-251.182" font-family="Times Roman,serif" font-size="14.00">211000</text>
</g>
<g id="graph14" class="cluster"><title>cluster_13</title>
<polygon fill="lightgrey" stroke="black" points="668.976,-529.282 668.976,-711.282 807.976,-711.282 807.976,-529.282 668.976,-529.282"/>
<text text-anchor="middle" x="738.476" y="-694.682" font-family="Times Roman,serif" font-size="14.00">222001</text>
</g>
<g id="graph15" class="cluster"><title>cluster_14</title>
<polygon fill="lightgrey" stroke="black" points="648.976,-748.782 648.976,-933.782 833.976,-933.782 833.976,-748.782 648.976,-748.782"/>
<text text-anchor="middle" x="741.476" y="-917.182" font-family="Times Roman,serif" font-size="14.00">212002</text>
</g>
<g id="graph16" class="cluster"><title>cluster_15</title>
<polygon fill="lightgrey" stroke="black" points="9.47623,-428.782 9.47623,-615.782 189.476,-615.782 189.476,-428.782 9.47623,-428.782"/>
<text text-anchor="middle" x="99.4762" y="-599.182" font-family="Times Roman,serif" font-size="14.00">222002</text>
</g>
<g id="graph17" class="cluster"><title>cluster_16</title>
<polygon fill="lightgrey" stroke="black" points="9.47623,-748.782 9.47623,-935.782 189.476,-935.782 189.476,-748.782 9.47623,-748.782"/>
<text text-anchor="middle" x="99.4762" y="-919.182" font-family="Times Roman,serif" font-size="14.00">222000</text>
</g>
<!-- CON2 -->
<g id="node3" class="node"><title>CON2</title>
<text text-anchor="middle" x="264.214" y="-382.106" font-family="Times Roman,serif" font-size="16.00">CON</text>
</g>
<!-- BNF2 -->
<g id="node4" class="node"><title>BNF2</title>
<text text-anchor="middle" x="329.52" y="-399.649" font-family="Times Roman,serif" font-size="16.00">BNF</text>
</g>
<!-- BNF2&#45;&gt;CON2 -->
<g id="edge4" class="edge"><title>BNF2&#45;&gt;CON2</title>
<path fill="none" stroke="black" d="M302.203,-396.711C301.984,-396.652 301.765,-396.593 301.546,-396.535"/>
<polygon fill="black" stroke="black" points="302.197,-393.085 291.631,-393.871 300.381,-399.846 302.197,-393.085"/>
</g>
<!-- D3T2 -->
<g id="node5" class="node"><title>D3T2</title>
<text text-anchor="middle" x="386.225" y="-351.448" font-family="Times Roman,serif" font-size="16.00">D3T</text>
</g>
<!-- BNF2&#45;&gt;D3T2 -->
<g id="edge6" class="edge"><title>BNF2&#45;&gt;D3T2</title>
<path fill="none" stroke="black" d="M350.958,-385.826C352.933,-384.147 354.957,-382.427 356.987,-380.702"/>
<polygon fill="black" stroke="black" points="359.404,-383.24 364.757,-374.097 354.871,-377.907 359.404,-383.24"/>
</g>
<!-- OLT2 -->
<g id="node6" class="node"><title>OLT2</title>
<text text-anchor="middle" x="356.471" y="-448.574" font-family="Times Roman,serif" font-size="16.00">OLT</text>
</g>
<!-- BNF2&#45;&gt;OLT2 -->
<g id="edge8" class="edge"><title>BNF2&#45;&gt;OLT2</title>
<path fill="none" stroke="black" d="M339.556,-422.267C340.195,-423.428 340.846,-424.61 341.502,-425.8"/>
<polygon fill="black" stroke="black" points="338.626,-427.834 346.517,-434.904 344.757,-424.456 338.626,-427.834"/>
</g>
<!-- CON3 -->
<g id="node11" class="node"><title>CON3</title>
<text text-anchor="middle" x="505.094" y="-820.401" font-family="Times Roman,serif" font-size="16.00">CON</text>
</g>
<!-- D3T3 -->
<g id="node13" class="node"><title>D3T3</title>
<text text-anchor="middle" x="548.272" y="-772.381" font-family="Times Roman,serif" font-size="16.00">D3T</text>
</g>
<!-- CON3&#45;&gt;D3T3 -->
<g id="edge11" class="edge"><title>CON3&#45;&gt;D3T3</title>
<path fill="none" stroke="black" d="M521.418,-806.646C522.6,-805.332 523.804,-803.992 525.016,-802.645"/>
<polygon fill="black" stroke="black" points="527.842,-804.737 531.925,-794.961 522.636,-800.056 527.842,-804.737"/>
</g>
<!-- OLT3 -->
<g id="node14" class="node"><title>OLT3</title>
<text text-anchor="middle" x="529.309" y="-873.805" font-family="Times Roman,serif" font-size="16.00">OLT</text>
</g>
<!-- CON3&#45;&gt;OLT3 -->
<g id="edge13" class="edge"><title>CON3&#45;&gt;OLT3</title>
<path fill="none" stroke="black" d="M513.292,-842.881C514.475,-845.491 515.715,-848.224 516.957,-850.964"/>
<polygon fill="black" stroke="black" points="513.802,-852.481 521.12,-860.143 520.177,-849.59 513.802,-852.481"/>
</g>
<!-- BNF3 -->
<g id="node12" class="node"><title>BNF3</title>
<text text-anchor="middle" x="571.537" y="-829.21" font-family="Times Roman,serif" font-size="16.00">BNF</text>
</g>
<!-- BNF3&#45;&gt;CON3 -->
<g id="edge15" class="edge"><title>BNF3&#45;&gt;CON3</title>
<path fill="none" stroke="black" d="M544.512,-830.027C543.758,-829.927 542.999,-829.826 542.237,-829.725"/>
<polygon fill="black" stroke="black" points="542.684,-826.254 532.311,-828.409 541.764,-833.193 542.684,-826.254"/>
</g>
<!-- BNF3&#45;&gt;D3T3 -->
<g id="edge17" class="edge"><title>BNF3&#45;&gt;D3T3</title>
<path fill="none" stroke="black" d="M564.048,-815.316C562.637,-811.868 561.132,-808.192 559.633,-804.531"/>
<polygon fill="black" stroke="black" points="562.775,-802.969 555.748,-795.04 556.297,-805.621 562.775,-802.969"/>
</g>
<!-- BNF3&#45;&gt;OLT3 -->
<g id="edge19" class="edge"><title>BNF3&#45;&gt;OLT3</title>
<path fill="none" stroke="black" d="M554.362,-851.748C554.122,-852.002 553.882,-852.256 553.64,-852.51"/>
<polygon fill="black" stroke="black" points="550.941,-850.27 546.607,-859.938 556.024,-855.083 550.941,-850.27"/>
</g>
<!-- CON4 -->
<g id="node21" class="node"><title>CON4</title>
<text text-anchor="middle" x="604.791" y="-172.456" font-family="Times Roman,serif" font-size="16.00">CON</text>
</g>
<!-- D3T4 -->
<g id="node23" class="node"><title>D3T4</title>
<text text-anchor="middle" x="624.662" y="-111.735" font-family="Times Roman,serif" font-size="16.00">D3T</text>
</g>
<!-- CON4&#45;&gt;D3T4 -->
<g id="edge22" class="edge"><title>CON4&#45;&gt;D3T4</title>
<path fill="none" stroke="black" d="M610.753,-158.638C612.246,-154.074 613.883,-149.073 615.492,-144.154"/>
<polygon fill="black" stroke="black" points="618.92,-144.933 618.704,-134.341 612.267,-142.756 618.92,-144.933"/>
</g>
<!-- BNF4 -->
<g id="node22" class="node"><title>BNF4</title>
<text text-anchor="middle" x="673.418" y="-160.847" font-family="Times Roman,serif" font-size="16.00">BNF</text>
</g>
<!-- BNF4&#45;&gt;CON4 -->
<g id="edge24" class="edge"><title>BNF4&#45;&gt;CON4</title>
<path fill="none" stroke="black" d="M646.295,-169.835C644.988,-170.056 643.667,-170.28 642.339,-170.504"/>
<polygon fill="black" stroke="black" points="641.443,-167.106 632.167,-172.225 642.61,-174.008 641.443,-167.106"/>
</g>
<!-- BNF4&#45;&gt;D3T4 -->
<g id="edge26" class="edge"><title>BNF4&#45;&gt;D3T4</title>
<path fill="none" stroke="black" d="M655.54,-147.239C653.685,-145.37 651.776,-143.447 649.86,-141.518"/>
<polygon fill="black" stroke="black" points="652.067,-138.773 642.538,-134.142 647.099,-143.704 652.067,-138.773"/>
</g>
<!-- OLT4 -->
<g id="node24" class="node"><title>OLT4</title>
<text text-anchor="middle" x="675.921" y="-209.758" font-family="Times Roman,serif" font-size="16.00">OLT</text>
</g>
<!-- BNF4&#45;&gt;OLT4 -->
<g id="edge28" class="edge"><title>BNF4&#45;&gt;OLT4</title>
<path fill="none" stroke="black" d="M674.35,-183.46C674.39,-184.234 674.43,-185.017 674.47,-185.805"/>
<polygon fill="black" stroke="black" points="670.99,-186.285 674.996,-196.093 677.981,-185.927 670.99,-186.285"/>
</g>
<!-- CON5 -->
<g id="node30" class="node"><title>CON5</title>
<text text-anchor="middle" x="315.269" y="-803.131" font-family="Times Roman,serif" font-size="16.00">CON</text>
</g>
<!-- OLT5 -->
<g id="node33" class="node"><title>OLT5</title>
<text text-anchor="middle" x="305.769" y="-861.413" font-family="Times Roman,serif" font-size="16.00">OLT</text>
</g>
<!-- CON5&#45;&gt;OLT5 -->
<g id="edge31" class="edge"><title>CON5&#45;&gt;OLT5</title>
<path fill="none" stroke="black" d="M312.315,-825.652C311.696,-829.453 311.028,-833.548 310.365,-837.617"/>
<polygon fill="black" stroke="black" points="306.908,-837.069 308.754,-847.502 313.817,-838.195 306.908,-837.069"/>
</g>
<!-- BNF5 -->
<g id="node31" class="node"><title>BNF5</title>
<text text-anchor="middle" x="372.2" y="-848.376" font-family="Times Roman,serif" font-size="16.00">BNF</text>
</g>
<!-- BNF5&#45;&gt;CON5 -->
<g id="edge33" class="edge"><title>BNF5&#45;&gt;CON5</title>
<path fill="none" stroke="black" d="M349.372,-834.634C348.328,-833.804 347.274,-832.966 346.214,-832.124"/>
<polygon fill="black" stroke="black" points="348.109,-829.159 338.102,-825.677 343.753,-834.639 348.109,-829.159"/>
</g>
<!-- D3T5 -->
<g id="node32" class="node"><title>D3T5</title>
<text text-anchor="middle" x="403.04" y="-792.207" font-family="Times Roman,serif" font-size="16.00">D3T</text>
</g>
<!-- BNF5&#45;&gt;D3T5 -->
<g id="edge35" class="edge"><title>BNF5&#45;&gt;D3T5</title>
<path fill="none" stroke="black" d="M382.128,-834.695C384.054,-831.187 386.111,-827.44 388.156,-823.716"/>
<polygon fill="black" stroke="black" points="391.386,-825.105 393.131,-814.655 385.25,-821.736 391.386,-825.105"/>
</g>
<!-- BNF5&#45;&gt;OLT5 -->
<g id="edge37" class="edge"><title>BNF5&#45;&gt;OLT5</title>
<path fill="none" stroke="black" d="M345.18,-858.079C344.426,-858.227 343.667,-858.376 342.906,-858.525"/>
<polygon fill="black" stroke="black" points="342.12,-855.112 332.981,-860.473 343.468,-861.981 342.12,-855.112"/>
</g>
<!-- CON6 -->
<g id="node39" class="node"><title>CON6</title>
<text text-anchor="middle" x="484.109" y="-364.95" font-family="Times Roman,serif" font-size="16.00">CON</text>
</g>
<!-- D3T6 -->
<g id="node41" class="node"><title>D3T6</title>
<text text-anchor="middle" x="551.833" y="-332.467" font-family="Times Roman,serif" font-size="16.00">D3T</text>
</g>
<!-- CON6&#45;&gt;D3T6 -->
<g id="edge40" class="edge"><title>CON6&#45;&gt;D3T6</title>
<path fill="none" stroke="black" d="M511.265,-356.325C512.645,-355.663 514.04,-354.994 515.442,-354.322"/>
<polygon fill="black" stroke="black" points="517.169,-357.375 524.671,-349.895 514.141,-351.064 517.169,-357.375"/>
</g>
<!-- BNF6 -->
<g id="node40" class="node"><title>BNF6</title>
<text text-anchor="middle" x="590.229" y="-384.932" font-family="Times Roman,serif" font-size="16.00">BNF</text>
</g>
<!-- BNF6&#45;&gt;CON6 -->
<g id="edge42" class="edge"><title>BNF6&#45;&gt;CON6</title>
<path fill="none" stroke="black" d="M563.176,-384.238C550.453,-381.842 535.08,-378.948 521.284,-376.35"/>
<polygon fill="black" stroke="black" points="521.588,-372.846 511.113,-374.435 520.292,-379.725 521.588,-372.846"/>
</g>
<!-- BNF6&#45;&gt;D3T6 -->
<g id="edge44" class="edge"><title>BNF6&#45;&gt;D3T6</title>
<path fill="none" stroke="black" d="M577.015,-371.276C575.106,-368.668 573.11,-365.94 571.112,-363.21"/>
<polygon fill="black" stroke="black" points="573.932,-361.137 565.201,-355.134 568.283,-365.271 573.932,-361.137"/>
</g>
<!-- OLT6 -->
<g id="node42" class="node"><title>OLT6</title>
<text text-anchor="middle" x="537.03" y="-433.43" font-family="Times Roman,serif" font-size="16.00">OLT</text>
</g>
<!-- BNF6&#45;&gt;OLT6 -->
<g id="edge46" class="edge"><title>BNF6&#45;&gt;OLT6</title>
<path fill="none" stroke="black" d="M570.42,-407.391C568.507,-409.134 566.544,-410.924 564.574,-412.72"/>
<polygon fill="black" stroke="black" points="562.065,-410.271 557.033,-419.594 566.781,-415.444 562.065,-410.271"/>
</g>
<!-- OLT6&#45;&gt;D3T6 -->
<g id="edge48" class="edge"><title>OLT6&#45;&gt;D3T6</title>
<path fill="none" stroke="black" d="M539.677,-419.78C541.894,-404.655 545.099,-382.795 547.662,-365.317"/>
<polygon fill="black" stroke="black" points="551.172,-365.503 549.16,-355.101 544.246,-364.488 551.172,-365.503"/>
</g>
<!-- CON7 -->
<g id="node49" class="node"><title>CON7</title>
<text text-anchor="middle" x="704.791" y="-392.456" font-family="Times Roman,serif" font-size="16.00">CON</text>
</g>
<!-- BNF7 -->
<g id="node50" class="node"><title>BNF7</title>
<text text-anchor="middle" x="773.418" y="-380.847" font-family="Times Roman,serif" font-size="16.00">BNF</text>
</g>
<!-- BNF7&#45;&gt;CON7 -->
<g id="edge51" class="edge"><title>BNF7&#45;&gt;CON7</title>
<path fill="none" stroke="black" d="M746.295,-389.835C744.988,-390.056 743.667,-390.28 742.339,-390.504"/>
<polygon fill="black" stroke="black" points="741.443,-387.106 732.167,-392.225 742.61,-394.008 741.443,-387.106"/>
</g>
<!-- D3T7 -->
<g id="node51" class="node"><title>D3T7</title>
<text text-anchor="middle" x="724.662" y="-331.735" font-family="Times Roman,serif" font-size="16.00">D3T</text>
</g>
<!-- BNF7&#45;&gt;D3T7 -->
<g id="edge53" class="edge"><title>BNF7&#45;&gt;D3T7</title>
<path fill="none" stroke="black" d="M755.54,-367.239C753.685,-365.37 751.776,-363.447 749.86,-361.518"/>
<polygon fill="black" stroke="black" points="752.067,-358.773 742.538,-354.142 747.099,-363.704 752.067,-358.773"/>
</g>
<!-- OLT7 -->
<g id="node52" class="node"><title>OLT7</title>
<text text-anchor="middle" x="775.921" y="-429.758" font-family="Times Roman,serif" font-size="16.00">OLT</text>
</g>
<!-- BNF7&#45;&gt;OLT7 -->
<g id="edge55" class="edge"><title>BNF7&#45;&gt;OLT7</title>
<path fill="none" stroke="black" d="M774.35,-403.46C774.39,-404.234 774.43,-405.017 774.47,-405.805"/>
<polygon fill="black" stroke="black" points="770.99,-406.285 774.996,-416.093 777.981,-405.927 770.99,-406.285"/>
</g>
<!-- D3T7&#45;&gt;CON7 -->
<g id="edge57" class="edge"><title>D3T7&#45;&gt;CON7</title>
<path fill="none" stroke="black" d="M718.7,-354.353C717.207,-358.917 715.57,-363.918 713.96,-368.836"/>
<polygon fill="black" stroke="black" points="710.532,-368.058 710.748,-378.65 717.185,-370.235 710.532,-368.058"/>
</g>
<!-- CON8 -->
<g id="node58" class="node"><title>CON8</title>
<text text-anchor="middle" x="485.373" y="-597.242" font-family="Times Roman,serif" font-size="16.00">CON</text>
</g>
<!-- OLT8 -->
<g id="node61" class="node"><title>OLT8</title>
<text text-anchor="middle" x="531.823" y="-656.671" font-family="Times Roman,serif" font-size="16.00">OLT</text>
</g>
<!-- CON8&#45;&gt;OLT8 -->
<g id="edge60" class="edge"><title>CON8&#45;&gt;OLT8</title>
<path fill="none" stroke="black" d="M499.562,-619.796C503.344,-624.634 507.504,-629.957 511.544,-635.126"/>
<polygon fill="black" stroke="black" points="508.805,-637.305 517.721,-643.028 514.32,-632.994 508.805,-637.305"/>
</g>
<!-- BNF8 -->
<g id="node59" class="node"><title>BNF8</title>
<text text-anchor="middle" x="597.548" y="-615.695" font-family="Times Roman,serif" font-size="16.00">BNF</text>
</g>
<!-- BNF8&#45;&gt;CON8 -->
<g id="edge62" class="edge"><title>BNF8&#45;&gt;CON8</title>
<path fill="none" stroke="black" d="M570.394,-615.628C556.032,-613.265 538.186,-610.33 522.557,-607.759"/>
<polygon fill="black" stroke="black" points="523.102,-604.301 512.666,-606.132 521.965,-611.209 523.102,-604.301"/>
</g>
<!-- D3T8 -->
<g id="node60" class="node"><title>D3T8</title>
<text text-anchor="middle" x="570.792" y="-551.229" font-family="Times Roman,serif" font-size="16.00">D3T</text>
</g>
<!-- BNF8&#45;&gt;D3T8 -->
<g id="edge64" class="edge"><title>BNF8&#45;&gt;D3T8</title>
<path fill="none" stroke="black" d="M589.952,-601.794C587.56,-596.029 584.861,-589.527 582.261,-583.262"/>
<polygon fill="black" stroke="black" points="585.38,-581.647 578.314,-573.752 578.915,-584.33 585.38,-581.647"/>
</g>
<!-- BNF8&#45;&gt;OLT8 -->
<g id="edge66" class="edge"><title>BNF8&#45;&gt;OLT8</title>
<path fill="none" stroke="black" d="M570.436,-636.998C569.481,-637.593 568.52,-638.192 567.555,-638.794"/>
<polygon fill="black" stroke="black" points="565.507,-635.946 558.873,-644.206 569.211,-641.886 565.507,-635.946"/>
</g>
<!-- D3T8&#45;&gt;OLT8 -->
<g id="edge68" class="edge"><title>D3T8&#45;&gt;OLT8</title>
<path fill="none" stroke="black" d="M564.004,-573.996C557.941,-590.4 548.973,-614.665 542.043,-633.417"/>
<polygon fill="black" stroke="black" points="538.717,-632.321 538.533,-642.915 545.283,-634.748 538.717,-632.321"/>
</g>
<!-- CON9 -->
<g id="node68" class="node"><title>CON9</title>
<text text-anchor="middle" x="264.109" y="-604.95" font-family="Times Roman,serif" font-size="16.00">CON</text>
</g>
<!-- BNF9 -->
<g id="node69" class="node"><title>BNF9</title>
<text text-anchor="middle" x="370.229" y="-624.932" font-family="Times Roman,serif" font-size="16.00">BNF</text>
</g>
<!-- BNF9&#45;&gt;CON9 -->
<g id="edge71" class="edge"><title>BNF9&#45;&gt;CON9</title>
<path fill="none" stroke="black" d="M343.176,-624.238C330.453,-621.842 315.08,-618.948 301.284,-616.35"/>
<polygon fill="black" stroke="black" points="301.588,-612.846 291.113,-614.435 300.292,-619.725 301.588,-612.846"/>
</g>
<!-- D3T9 -->
<g id="node70" class="node"><title>D3T9</title>
<text text-anchor="middle" x="331.833" y="-572.467" font-family="Times Roman,serif" font-size="16.00">D3T</text>
</g>
<!-- BNF9&#45;&gt;D3T9 -->
<g id="edge73" class="edge"><title>BNF9&#45;&gt;D3T9</title>
<path fill="none" stroke="black" d="M357.015,-611.276C355.106,-608.668 353.11,-605.94 351.112,-603.21"/>
<polygon fill="black" stroke="black" points="353.932,-601.137 345.201,-595.134 348.283,-605.271 353.932,-601.137"/>
</g>
<!-- OLT9 -->
<g id="node71" class="node"><title>OLT9</title>
<text text-anchor="middle" x="317.03" y="-673.43" font-family="Times Roman,serif" font-size="16.00">OLT</text>
</g>
<!-- BNF9&#45;&gt;OLT9 -->
<g id="edge75" class="edge"><title>BNF9&#45;&gt;OLT9</title>
<path fill="none" stroke="black" d="M350.42,-647.391C348.507,-649.134 346.544,-650.924 344.574,-652.72"/>
<polygon fill="black" stroke="black" points="342.065,-650.271 337.033,-659.594 346.781,-655.444 342.065,-650.271"/>
</g>
<!-- D3T9&#45;&gt;CON9 -->
<g id="edge77" class="edge"><title>D3T9&#45;&gt;CON9</title>
<path fill="none" stroke="black" d="M304.677,-589.892C303.297,-590.554 301.902,-591.223 300.501,-591.895"/>
<polygon fill="black" stroke="black" points="298.774,-588.842 291.271,-596.322 301.801,-595.153 298.774,-588.842"/>
</g>
<!-- D3T9&#45;&gt;OLT9 -->
<g id="edge79" class="edge"><title>D3T9&#45;&gt;OLT9</title>
<path fill="none" stroke="black" d="M329.187,-594.917C326.969,-610.042 323.764,-631.902 321.201,-649.379"/>
<polygon fill="black" stroke="black" points="317.691,-649.194 319.704,-659.595 324.617,-650.209 317.691,-649.194"/>
</g>
<!-- CON10 -->
<g id="node78" class="node"><title>CON10</title>
<text text-anchor="middle" x="64.1254" y="-162.177" font-family="Times Roman,serif" font-size="16.00">CON</text>
</g>
<!-- BNF10 -->
<g id="node79" class="node"><title>BNF10</title>
<text text-anchor="middle" x="127.001" y="-176.913" font-family="Times Roman,serif" font-size="16.00">BNF</text>
</g>
<!-- BNF10&#45;&gt;CON10 -->
<g id="edge82" class="edge"><title>BNF10&#45;&gt;CON10</title>
<path fill="none" stroke="black" d="M99.9712,-174.978C99.8796,-174.957 99.7881,-174.935 99.6964,-174.914"/>
<polygon fill="black" stroke="black" points="101.667,-171.781 91.1324,-172.907 100.07,-178.596 101.667,-171.781"/>
</g>
<!-- D3T10 -->
<g id="node80" class="node"><title>D3T10</title>
<text text-anchor="middle" x="196.364" y="-151.2" font-family="Times Roman,serif" font-size="16.00">D3T</text>
</g>
<!-- BNF10&#45;&gt;D3T10 -->
<g id="edge84" class="edge"><title>BNF10&#45;&gt;D3T10</title>
<path fill="none" stroke="black" d="M154.017,-171.298C155.9,-170.6 157.815,-169.891 159.737,-169.178"/>
<polygon fill="black" stroke="black" points="161.147,-172.388 169.307,-165.63 158.714,-165.824 161.147,-172.388"/>
</g>
<!-- OLT10 -->
<g id="node81" class="node"><title>OLT10</title>
<text text-anchor="middle" x="177.715" y="-230.769" font-family="Times Roman,serif" font-size="16.00">OLT</text>
</g>
<!-- BNF10&#45;&gt;OLT10 -->
<g id="edge86" class="edge"><title>BNF10&#45;&gt;OLT10</title>
<path fill="none" stroke="black" d="M144.17,-199.546C147.227,-202.793 150.462,-206.227 153.668,-209.633"/>
<polygon fill="black" stroke="black" points="151.16,-212.074 160.563,-216.955 156.256,-207.275 151.16,-212.074"/>
</g>
<!-- OLT10&#45;&gt;D3T10 -->
<g id="edge88" class="edge"><title>OLT10&#45;&gt;D3T10</title>
<path fill="none" stroke="black" d="M181.947,-217.114C184.243,-207.315 187.134,-194.98 189.724,-183.932"/>
<polygon fill="black" stroke="black" points="193.21,-184.395 192.084,-173.86 186.395,-182.797 193.21,-184.395"/>
</g>
<!-- CON11 -->
<g id="node87" class="node"><title>CON11</title>
<text text-anchor="middle" x="795.269" y="-43.131" font-family="Times Roman,serif" font-size="16.00">CON</text>
</g>
<!-- BNF11 -->
<g id="node88" class="node"><title>BNF11</title>
<text text-anchor="middle" x="852.2" y="-88.376" font-family="Times Roman,serif" font-size="16.00">BNF</text>
</g>
<!-- BNF11&#45;&gt;CON11 -->
<g id="edge91" class="edge"><title>BNF11&#45;&gt;CON11</title>
<path fill="none" stroke="black" d="M829.372,-74.6339C828.328,-73.8041 827.274,-72.966 826.214,-72.1242"/>
<polygon fill="black" stroke="black" points="828.109,-69.159 818.102,-65.6773 823.753,-74.6392 828.109,-69.159"/>
</g>
<!-- D3T11 -->
<g id="node89" class="node"><title>D3T11</title>
<text text-anchor="middle" x="883.04" y="-32.2072" font-family="Times Roman,serif" font-size="16.00">D3T</text>
</g>
<!-- BNF11&#45;&gt;D3T11 -->
<g id="edge93" class="edge"><title>BNF11&#45;&gt;D3T11</title>
<path fill="none" stroke="black" d="M862.128,-74.6947C864.054,-71.187 866.111,-67.4399 868.156,-63.7156"/>
<polygon fill="black" stroke="black" points="871.386,-65.1048 873.131,-54.6547 865.25,-61.7358 871.386,-65.1048"/>
</g>
<!-- OLT11 -->
<g id="node90" class="node"><title>OLT11</title>
<text text-anchor="middle" x="785.769" y="-101.413" font-family="Times Roman,serif" font-size="16.00">OLT</text>
</g>
<!-- BNF11&#45;&gt;OLT11 -->
<g id="edge95" class="edge"><title>BNF11&#45;&gt;OLT11</title>
<path fill="none" stroke="black" d="M825.18,-98.0786C824.426,-98.2267 823.667,-98.3756 822.906,-98.525"/>
<polygon fill="black" stroke="black" points="822.12,-95.1124 812.981,-100.473 823.468,-101.981 822.12,-95.1124"/>
</g>
<!-- OLT11&#45;&gt;CON11 -->
<g id="edge97" class="edge"><title>OLT11&#45;&gt;CON11</title>
<path fill="none" stroke="black" d="M788.723,-87.6916C789.343,-83.8906 790.01,-79.7962 790.673,-75.7265"/>
<polygon fill="black" stroke="black" points="794.13,-76.2747 792.284,-65.8418 787.221,-75.1485 794.13,-76.2747"/>
</g>
<!-- CON12 -->
<g id="node96" class="node"><title>CON12</title>
<text text-anchor="middle" x="364.125" y="-142.177" font-family="Times Roman,serif" font-size="16.00">CON</text>
</g>
<!-- BNF12 -->
<g id="node97" class="node"><title>BNF12</title>
<text text-anchor="middle" x="427.001" y="-156.913" font-family="Times Roman,serif" font-size="16.00">BNF</text>
</g>
<!-- BNF12&#45;&gt;CON12 -->
<g id="edge100" class="edge"><title>BNF12&#45;&gt;CON12</title>
<path fill="none" stroke="black" d="M399.971,-154.978C399.88,-154.957 399.788,-154.935 399.696,-154.914"/>
<polygon fill="black" stroke="black" points="401.667,-151.781 391.132,-152.907 400.07,-158.596 401.667,-151.781"/>
</g>
<!-- D3T12 -->
<g id="node98" class="node"><title>D3T12</title>
<text text-anchor="middle" x="496.364" y="-131.2" font-family="Times Roman,serif" font-size="16.00">D3T</text>
</g>
<!-- BNF12&#45;&gt;D3T12 -->
<g id="edge102" class="edge"><title>BNF12&#45;&gt;D3T12</title>
<path fill="none" stroke="black" d="M454.017,-151.298C455.9,-150.6 457.815,-149.891 459.737,-149.178"/>
<polygon fill="black" stroke="black" points="461.147,-152.388 469.307,-145.63 458.714,-145.824 461.147,-152.388"/>
</g>
<!-- OLT12 -->
<g id="node99" class="node"><title>OLT12</title>
<text text-anchor="middle" x="477.715" y="-210.769" font-family="Times Roman,serif" font-size="16.00">OLT</text>
</g>
<!-- BNF12&#45;&gt;OLT12 -->
<g id="edge104" class="edge"><title>BNF12&#45;&gt;OLT12</title>
<path fill="none" stroke="black" d="M444.17,-179.546C447.227,-182.793 450.462,-186.227 453.668,-189.633"/>
<polygon fill="black" stroke="black" points="451.16,-192.074 460.563,-196.955 456.256,-187.275 451.16,-192.074"/>
</g>
<!-- D3T12&#45;&gt;OLT12 -->
<g id="edge106" class="edge"><title>D3T12&#45;&gt;OLT12</title>
<path fill="none" stroke="black" d="M492.132,-153.656C489.836,-163.454 486.944,-175.79 484.355,-186.837"/>
<polygon fill="black" stroke="black" points="480.869,-186.375 481.995,-196.91 487.684,-187.972 480.869,-186.375"/>
</g>
<!-- CON13 -->
<g id="node105" class="node"><title>CON13</title>
<text text-anchor="middle" x="705.094" y="-600.401" font-family="Times Roman,serif" font-size="16.00">CON</text>
</g>
<!-- BNF13 -->
<g id="node106" class="node"><title>BNF13</title>
<text text-anchor="middle" x="771.537" y="-609.21" font-family="Times Roman,serif" font-size="16.00">BNF</text>
</g>
<!-- BNF13&#45;&gt;CON13 -->
<g id="edge109" class="edge"><title>BNF13&#45;&gt;CON13</title>
<path fill="none" stroke="black" d="M744.512,-610.027C743.758,-609.927 742.999,-609.826 742.237,-609.725"/>
<polygon fill="black" stroke="black" points="742.684,-606.254 732.311,-608.409 741.764,-613.193 742.684,-606.254"/>
</g>
<!-- D3T13 -->
<g id="node107" class="node"><title>D3T13</title>
<text text-anchor="middle" x="748.272" y="-552.381" font-family="Times Roman,serif" font-size="16.00">D3T</text>
</g>
<!-- BNF13&#45;&gt;D3T13 -->
<g id="edge111" class="edge"><title>BNF13&#45;&gt;D3T13</title>
<path fill="none" stroke="black" d="M764.048,-595.316C762.637,-591.868 761.132,-588.192 759.633,-584.531"/>
<polygon fill="black" stroke="black" points="762.775,-582.969 755.748,-575.04 756.297,-585.621 762.775,-582.969"/>
</g>
<!-- OLT13 -->
<g id="node108" class="node"><title>OLT13</title>
<text text-anchor="middle" x="729.309" y="-653.805" font-family="Times Roman,serif" font-size="16.00">OLT</text>
</g>
<!-- BNF13&#45;&gt;OLT13 -->
<g id="edge113" class="edge"><title>BNF13&#45;&gt;OLT13</title>
<path fill="none" stroke="black" d="M754.362,-631.748C754.122,-632.002 753.882,-632.256 753.64,-632.51"/>
<polygon fill="black" stroke="black" points="750.941,-630.27 746.607,-639.938 756.024,-635.083 750.941,-630.27"/>
</g>
<!-- D3T13&#45;&gt;CON13 -->
<g id="edge115" class="edge"><title>D3T13&#45;&gt;CON13</title>
<path fill="none" stroke="black" d="M731.948,-574.935C730.766,-576.25 729.562,-577.589 728.35,-578.937"/>
<polygon fill="black" stroke="black" points="725.524,-576.845 721.441,-586.621 730.73,-581.525 725.524,-576.845"/>
</g>
<!-- OLT13&#45;&gt;CON13 -->
<g id="edge117" class="edge"><title>OLT13&#45;&gt;CON13</title>
<path fill="none" stroke="black" d="M721.111,-640.125C719.928,-637.515 718.688,-634.782 717.446,-632.041"/>
<polygon fill="black" stroke="black" points="720.601,-630.524 713.284,-622.862 714.226,-633.415 720.601,-630.524"/>
</g>
<!-- CON14 -->
<g id="node115" class="node"><title>CON14</title>
<text text-anchor="middle" x="685.373" y="-817.242" font-family="Times Roman,serif" font-size="16.00">CON</text>
</g>
<!-- BNF14 -->
<g id="node116" class="node"><title>BNF14</title>
<text text-anchor="middle" x="797.548" y="-835.695" font-family="Times Roman,serif" font-size="16.00">BNF</text>
</g>
<!-- BNF14&#45;&gt;CON14 -->
<g id="edge120" class="edge"><title>BNF14&#45;&gt;CON14</title>
<path fill="none" stroke="black" d="M770.394,-835.628C756.032,-833.265 738.186,-830.33 722.557,-827.759"/>
<polygon fill="black" stroke="black" points="723.102,-824.301 712.666,-826.132 721.965,-831.209 723.102,-824.301"/>
</g>
<!-- D3T14 -->
<g id="node117" class="node"><title>D3T14</title>
<text text-anchor="middle" x="770.792" y="-771.229" font-family="Times Roman,serif" font-size="16.00">D3T</text>
</g>
<!-- BNF14&#45;&gt;D3T14 -->
<g id="edge122" class="edge"><title>BNF14&#45;&gt;D3T14</title>
<path fill="none" stroke="black" d="M789.952,-821.794C787.56,-816.029 784.861,-809.527 782.261,-803.262"/>
<polygon fill="black" stroke="black" points="785.38,-801.647 778.314,-793.752 778.915,-804.33 785.38,-801.647"/>
</g>
<!-- OLT14 -->
<g id="node118" class="node"><title>OLT14</title>
<text text-anchor="middle" x="731.823" y="-876.671" font-family="Times Roman,serif" font-size="16.00">OLT</text>
</g>
<!-- BNF14&#45;&gt;OLT14 -->
<g id="edge124" class="edge"><title>BNF14&#45;&gt;OLT14</title>
<path fill="none" stroke="black" d="M770.436,-856.998C769.481,-857.593 768.52,-858.192 767.555,-858.794"/>
<polygon fill="black" stroke="black" points="765.507,-855.946 758.873,-864.206 769.211,-861.886 765.507,-855.946"/>
</g>
<!-- OLT14&#45;&gt;CON14 -->
<g id="edge126" class="edge"><title>OLT14&#45;&gt;CON14</title>
<path fill="none" stroke="black" d="M717.634,-862.917C713.852,-858.079 709.692,-852.756 705.652,-847.587"/>
<polygon fill="black" stroke="black" points="708.391,-845.408 699.475,-839.684 702.876,-849.719 708.391,-845.408"/>
</g>
<!-- OLT14&#45;&gt;D3T14 -->
<g id="edge128" class="edge"><title>OLT14&#45;&gt;D3T14</title>
<path fill="none" stroke="black" d="M738.611,-862.704C744.674,-846.299 753.641,-822.034 760.571,-803.283"/>
<polygon fill="black" stroke="black" points="763.898,-804.378 764.082,-793.785 757.332,-801.952 763.898,-804.378"/>
</g>
<!-- CON15 -->
<g id="node125" class="node"><title>CON15</title>
<text text-anchor="middle" x="45.8532" y="-496.379" font-family="Times Roman,serif" font-size="16.00">CON</text>
</g>
<!-- BNF15 -->
<g id="node126" class="node"><title>BNF15</title>
<text text-anchor="middle" x="153.031" y="-513.616" font-family="Times Roman,serif" font-size="16.00">BNF</text>
</g>
<!-- BNF15&#45;&gt;CON15 -->
<g id="edge131" class="edge"><title>BNF15&#45;&gt;CON15</title>
<path fill="none" stroke="black" d="M125.985,-513.667C112.911,-511.564 97.0173,-509.008 82.8425,-506.728"/>
<polygon fill="black" stroke="black" points="83.3188,-503.26 72.8899,-505.127 82.2072,-510.171 83.3188,-503.26"/>
</g>
<!-- D3T15 -->
<g id="node127" class="node"><title>D3T15</title>
<text text-anchor="middle" x="109.352" y="-451.194" font-family="Times Roman,serif" font-size="16.00">D3T</text>
</g>
<!-- BNF15&#45;&gt;D3T15 -->
<g id="edge133" class="edge"><title>BNF15&#45;&gt;D3T15</title>
<path fill="none" stroke="black" d="M140.397,-499.961C136.537,-494.445 132.208,-488.258 128.036,-482.296"/>
<polygon fill="black" stroke="black" points="130.709,-480.011 122.108,-473.825 124.974,-484.025 130.709,-480.011"/>
</g>
<!-- OLT15 -->
<g id="node128" class="node"><title>OLT15</title>
<text text-anchor="middle" x="89.5322" y="-558.802" font-family="Times Roman,serif" font-size="16.00">OLT</text>
</g>
<!-- BNF15&#45;&gt;OLT15 -->
<g id="edge135" class="edge"><title>BNF15&#45;&gt;OLT15</title>
<path fill="none" stroke="black" d="M127.569,-536.135C126.146,-537.148 124.705,-538.173 123.259,-539.202"/>
<polygon fill="black" stroke="black" points="121.118,-536.43 114.999,-545.08 125.176,-542.133 121.118,-536.43"/>
</g>
<!-- D3T15&#45;&gt;CON15 -->
<g id="edge137" class="edge"><title>D3T15&#45;&gt;CON15</title>
<path fill="none" stroke="black" d="M83.8902,-473.712C82.467,-474.725 81.0261,-475.75 79.5798,-476.779"/>
<polygon fill="black" stroke="black" points="77.4386,-474.007 71.3202,-482.657 81.4972,-479.71 77.4386,-474.007"/>
</g>
<!-- OLT15&#45;&gt;CON15 -->
<g id="edge139" class="edge"><title>OLT15&#45;&gt;CON15</title>
<path fill="none" stroke="black" d="M76.8984,-545.147C73.0387,-539.631 68.7096,-533.444 64.5374,-527.481"/>
<polygon fill="black" stroke="black" points="67.2107,-525.197 58.6099,-519.01 61.4753,-529.21 67.2107,-525.197"/>
</g>
<!-- OLT15&#45;&gt;D3T15 -->
<g id="edge141" class="edge"><title>OLT15&#45;&gt;D3T15</title>
<path fill="none" stroke="black" d="M92.8942,-544.948C95.9693,-528.252 100.567,-503.289 104.122,-483.989"/>
<polygon fill="black" stroke="black" points="107.604,-484.406 105.973,-473.937 100.719,-483.138 107.604,-484.406"/>
</g>
<!-- CON16 -->
<g id="node136" class="node"><title>CON16</title>
<text text-anchor="middle" x="45.8532" y="-816.379" font-family="Times Roman,serif" font-size="16.00">CON</text>
</g>
<!-- BNF16 -->
<g id="node137" class="node"><title>BNF16</title>
<text text-anchor="middle" x="153.031" y="-833.616" font-family="Times Roman,serif" font-size="16.00">BNF</text>
</g>
<!-- BNF16&#45;&gt;CON16 -->
<g id="edge144" class="edge"><title>BNF16&#45;&gt;CON16</title>
<path fill="none" stroke="black" d="M125.985,-833.667C112.911,-831.564 97.0173,-829.008 82.8425,-826.728"/>
<polygon fill="black" stroke="black" points="83.3188,-823.26 72.8899,-825.127 82.2072,-830.171 83.3188,-823.26"/>
</g>
<!-- D3T16 -->
<g id="node138" class="node"><title>D3T16</title>
<text text-anchor="middle" x="109.352" y="-771.194" font-family="Times Roman,serif" font-size="16.00">D3T</text>
</g>
<!-- BNF16&#45;&gt;D3T16 -->
<g id="edge146" class="edge"><title>BNF16&#45;&gt;D3T16</title>
<path fill="none" stroke="black" d="M140.397,-819.961C136.537,-814.445 132.208,-808.258 128.036,-802.296"/>
<polygon fill="black" stroke="black" points="130.709,-800.011 122.108,-793.825 124.974,-804.025 130.709,-800.011"/>
</g>
<!-- OLT16 -->
<g id="node139" class="node"><title>OLT16</title>
<text text-anchor="middle" x="89.5322" y="-878.802" font-family="Times Roman,serif" font-size="16.00">OLT</text>
</g>
<!-- BNF16&#45;&gt;OLT16 -->
<g id="edge148" class="edge"><title>BNF16&#45;&gt;OLT16</title>
<path fill="none" stroke="black" d="M127.569,-856.135C126.146,-857.148 124.705,-858.173 123.259,-859.202"/>
<polygon fill="black" stroke="black" points="121.118,-856.43 114.999,-865.08 125.176,-862.133 121.118,-856.43"/>
</g>
<!-- D3T16&#45;&gt;CON16 -->
<g id="edge150" class="edge"><title>D3T16&#45;&gt;CON16</title>
<path fill="none" stroke="black" d="M83.8902,-793.712C82.467,-794.725 81.0261,-795.75 79.5798,-796.779"/>
<polygon fill="black" stroke="black" points="77.4386,-794.007 71.3202,-802.657 81.4972,-799.71 77.4386,-794.007"/>
</g>
<!-- D3T16&#45;&gt;OLT16 -->
<g id="edge152" class="edge"><title>D3T16&#45;&gt;OLT16</title>
<path fill="none" stroke="black" d="M105.989,-793.848C102.914,-810.544 98.3168,-835.506 94.762,-854.807"/>
<polygon fill="black" stroke="black" points="91.2801,-854.39 92.9107,-864.858 98.1643,-855.658 91.2801,-854.39"/>
</g>
<!-- OLT16&#45;&gt;CON16 -->
<g id="edge154" class="edge"><title>OLT16&#45;&gt;CON16</title>
<path fill="none" stroke="black" d="M76.8984,-865.147C73.0387,-859.631 68.7096,-853.444 64.5374,-847.481"/>
<polygon fill="black" stroke="black" points="67.2107,-845.197 58.6099,-839.01 61.4753,-849.21 67.2107,-845.197"/>
</g>
</g>
</svg>
