<?xml version="1.0" encoding="UTF-8" standalone="no"?>
<!DOCTYPE svg PUBLIC "-//W3C//DTD SVG 1.1//EN"
 "http://www.w3.org/Graphics/SVG/1.1/DTD/svg11.dtd">
<!-- Generated by graphviz version 2.26.3 (20100126.1600)
 -->
<!-- Title: FirstlevelCluster Pages: 1 -->
<svg width="852pt" height="897pt"
 viewBox="0.00 0.00 852.00 897.00" xmlns="http://www.w3.org/2000/svg" xmlns:xlink="http://www.w3.org/1999/xlink">
<g id="graph1" class="graph" transform="scale(1 1) rotate(0) translate(4 893)">
<title>FirstlevelCluster</title>
<polygon fill="white" stroke="white" points="-4,5 -4,-893 849,-893 849,5 -4,5"/>
<g id="graph2" class="cluster"><title>cluster_0</title>
<polygon fill="none" stroke="black" points="1.23812,-0.640888 1.23812,-888.641 843.238,-888.641 843.238,-0.640888 1.23812,-0.640888"/>
<text text-anchor="middle" x="422.238" y="-872.041" font-family="Times Roman,serif" font-size="14.00">&gt;BNF</text>
</g>
<g id="graph3" class="cluster"><title>cluster_2</title>
<polygon fill="lightgrey" stroke="black" points="229.476,-248.782 229.476,-425.782 423.476,-425.782 423.476,-248.782 229.476,-248.782"/>
<text text-anchor="middle" x="326.476" y="-409.182" font-family="Times Roman,serif" font-size="14.00">011221</text>
</g>
<g id="graph4" class="cluster"><title>cluster_3</title>
<polygon fill="lightgrey" stroke="black" points="29.9762,-649.282 29.9762,-831.282 168.976,-831.282 168.976,-649.282 29.9762,-649.282"/>
<text text-anchor="middle" x="99.4762" y="-814.682" font-family="Times Roman,serif" font-size="14.00">022221</text>
</g>
<g id="graph5" class="cluster"><title>cluster_4</title>
<polygon fill="lightgrey" stroke="black" points="449.476,-229.782 449.476,-410.782 627.476,-410.782 627.476,-229.782 449.476,-229.782"/>
<text text-anchor="middle" x="538.476" y="-394.182" font-family="Times Roman,serif" font-size="14.00">021220</text>
</g>
<g id="graph6" class="cluster"><title>cluster_5</title>
<polygon fill="none" stroke="black" points="269.976,-29.2818 269.976,-207.282 412.976,-207.282 412.976,-29.2818 269.976,-29.2818"/>
<text text-anchor="middle" x="341.476" y="-190.682" font-family="Times Roman,serif" font-size="14.00">021221</text>
</g>
<g id="graph7" class="cluster"><title>cluster_6</title>
<polygon fill="lightgrey" stroke="black" points="450.476,-448.782 450.476,-635.782 630.476,-635.782 630.476,-448.782 450.476,-448.782"/>
<text text-anchor="middle" x="540.476" y="-619.182" font-family="Times Roman,serif" font-size="14.00">022220</text>
</g>
<g id="graph8" class="cluster"><title>cluster_7</title>
<polygon fill="none" stroke="black" points="630.476,-49.2818 630.476,-199.282 800.476,-199.282 800.476,-49.2818 630.476,-49.2818"/>
<text text-anchor="middle" x="715.476" y="-182.682" font-family="Times Roman,serif" font-size="14.00">012221</text>
</g>
<g id="graph9" class="cluster"><title>cluster_8</title>
<polygon fill="none" stroke="black" points="209.476,-468.782 209.476,-627.782 413.476,-627.782 413.476,-468.782 209.476,-468.782"/>
<text text-anchor="middle" x="311.476" y="-611.182" font-family="Times Roman,serif" font-size="14.00">011220</text>
</g>
<g id="graph10" class="cluster"><title>cluster_9</title>
<polygon fill="lightgrey" stroke="black" points="249.976,-669.282 249.976,-851.282 388.976,-851.282 388.976,-669.282 249.976,-669.282"/>
<text text-anchor="middle" x="319.476" y="-834.682" font-family="Times Roman,serif" font-size="14.00">000221</text>
</g>
<g id="graph11" class="cluster"><title>cluster_10</title>
<polygon fill="none" stroke="black" points="449.976,-9.28178 449.976,-187.282 592.976,-187.282 592.976,-9.28178 449.976,-9.28178"/>
<text text-anchor="middle" x="521.476" y="-170.682" font-family="Times Roman,serif" font-size="14.00">001221</text>
</g>
<g id="graph12" class="cluster"><title>cluster_11</title>
<polygon fill="lightgrey" stroke="black" points="9.47623,-249.782 9.47623,-430.782 187.476,-430.782 187.476,-249.782 9.47623,-249.782"/>
<text text-anchor="middle" x="98.4762" y="-414.182" font-family="Times Roman,serif" font-size="14.00">001222</text>
</g>
<g id="graph13" class="cluster"><title>cluster_12</title>
<polygon fill="none" stroke="black" points="29.4762,-48.7818 29.4762,-207.782 233.476,-207.782 233.476,-48.7818 29.4762,-48.7818"/>
<text text-anchor="middle" x="131.476" y="-191.182" font-family="Times Roman,serif" font-size="14.00">011222</text>
</g>
<g id="graph14" class="cluster"><title>cluster_13</title>
<polygon fill="none" stroke="black" points="10.4762,-469.282 10.4762,-619.282 180.476,-619.282 180.476,-469.282 10.4762,-469.282"/>
<text text-anchor="middle" x="95.4762" y="-602.682" font-family="Times Roman,serif" font-size="14.00">010221</text>
</g>
<g id="graph15" class="cluster"><title>cluster_14</title>
<polygon fill="lightgrey" stroke="black" points="649.976,-668.782 649.976,-853.782 834.976,-853.782 834.976,-668.782 649.976,-668.782"/>
<text text-anchor="middle" x="742.476" y="-837.182" font-family="Times Roman,serif" font-size="14.00">010220</text>
</g>
<g id="graph16" class="cluster"><title>cluster_15</title>
<polygon fill="lightgrey" stroke="black" points="429.976,-668.782 429.976,-853.782 614.976,-853.782 614.976,-668.782 429.976,-668.782"/>
<text text-anchor="middle" x="522.476" y="-837.182" font-family="Times Roman,serif" font-size="14.00">012222</text>
</g>
<!-- CON2 -->
<g id="node3" class="node"><title>CON2</title>
<text text-anchor="middle" x="265.214" y="-302.106" font-family="Times Roman,serif" font-size="16.00">CON</text>
</g>
<!-- BNF2 -->
<g id="node4" class="node"><title>BNF2</title>
<text text-anchor="middle" x="330.52" y="-319.649" font-family="Times Roman,serif" font-size="16.00">BNF</text>
</g>
<!-- CON2&#45;&gt;BNF2 -->
<g id="edge4" class="edge"><title>CON2&#45;&gt;BNF2</title>
<path fill="none" stroke="black" d="M292.531,-313.844C292.749,-313.903 292.968,-313.962 293.187,-314.02"/>
<polygon fill="black" stroke="black" points="292.536,-317.47 303.102,-316.684 294.353,-310.709 292.536,-317.47"/>
</g>
<!-- D3T2 -->
<g id="node5" class="node"><title>D3T2</title>
<text text-anchor="middle" x="387.225" y="-271.448" font-family="Times Roman,serif" font-size="16.00">D3T</text>
</g>
<!-- D3T2&#45;&gt;BNF2 -->
<g id="edge6" class="edge"><title>D3T2&#45;&gt;BNF2</title>
<path fill="none" stroke="black" d="M365.787,-294.071C363.811,-295.75 361.788,-297.471 359.758,-299.196"/>
<polygon fill="black" stroke="black" points="357.34,-296.657 351.988,-305.801 361.874,-301.991 357.34,-296.657"/>
</g>
<!-- OLT2 -->
<g id="node6" class="node"><title>OLT2</title>
<text text-anchor="middle" x="357.471" y="-368.574" font-family="Times Roman,serif" font-size="16.00">OLT</text>
</g>
<!-- OLT2&#45;&gt;BNF2 -->
<g id="edge8" class="edge"><title>OLT2&#45;&gt;BNF2</title>
<path fill="none" stroke="black" d="M347.435,-354.756C346.796,-353.595 346.145,-352.413 345.489,-351.223"/>
<polygon fill="black" stroke="black" points="348.365,-349.189 340.474,-342.119 342.234,-352.567 348.365,-349.189"/>
</g>
<!-- CON3 -->
<g id="node11" class="node"><title>CON3</title>
<text text-anchor="middle" x="66.0937" y="-720.401" font-family="Times Roman,serif" font-size="16.00">CON</text>
</g>
<!-- BNF3 -->
<g id="node12" class="node"><title>BNF3</title>
<text text-anchor="middle" x="132.537" y="-729.21" font-family="Times Roman,serif" font-size="16.00">BNF</text>
</g>
<!-- CON3&#45;&gt;BNF3 -->
<g id="edge11" class="edge"><title>CON3&#45;&gt;BNF3</title>
<path fill="none" stroke="black" d="M93.1189,-728.384C93.8734,-728.484 94.6323,-728.584 95.394,-728.685"/>
<polygon fill="black" stroke="black" points="94.9472,-732.157 105.321,-730.002 95.8673,-725.218 94.9472,-732.157"/>
</g>
<!-- D3T3 -->
<g id="node13" class="node"><title>D3T3</title>
<text text-anchor="middle" x="109.272" y="-672.381" font-family="Times Roman,serif" font-size="16.00">D3T</text>
</g>
<!-- D3T3&#45;&gt;CON3 -->
<g id="edge13" class="edge"><title>D3T3&#45;&gt;CON3</title>
<path fill="none" stroke="black" d="M92.9484,-694.935C91.7662,-696.25 90.5616,-697.589 89.35,-698.937"/>
<polygon fill="black" stroke="black" points="86.5245,-696.845 82.4408,-706.621 91.7297,-701.525 86.5245,-696.845"/>
</g>
<!-- D3T3&#45;&gt;BNF3 -->
<g id="edge15" class="edge"><title>D3T3&#45;&gt;BNF3</title>
<path fill="none" stroke="black" d="M116.762,-695.075C118.173,-698.522 119.678,-702.198 121.177,-705.86"/>
<polygon fill="black" stroke="black" points="118.034,-707.422 125.062,-715.35 124.513,-704.77 118.034,-707.422"/>
</g>
<!-- OLT3 -->
<g id="node14" class="node"><title>OLT3</title>
<text text-anchor="middle" x="90.3094" y="-773.805" font-family="Times Roman,serif" font-size="16.00">OLT</text>
</g>
<!-- OLT3&#45;&gt;CON3 -->
<g id="edge17" class="edge"><title>OLT3&#45;&gt;CON3</title>
<path fill="none" stroke="black" d="M82.1111,-760.125C80.9276,-757.515 79.6884,-754.782 78.4457,-752.041"/>
<polygon fill="black" stroke="black" points="81.601,-750.524 74.2836,-742.862 75.2257,-753.415 81.601,-750.524"/>
</g>
<!-- OLT3&#45;&gt;BNF3 -->
<g id="edge19" class="edge"><title>OLT3&#45;&gt;BNF3</title>
<path fill="none" stroke="black" d="M107.485,-760.066C107.725,-759.813 107.965,-759.559 108.206,-759.305"/>
<polygon fill="black" stroke="black" points="110.905,-761.545 115.24,-751.877 105.823,-756.732 110.905,-761.545"/>
</g>
<!-- CON4 -->
<g id="node21" class="node"><title>CON4</title>
<text text-anchor="middle" x="485.109" y="-284.95" font-family="Times Roman,serif" font-size="16.00">CON</text>
</g>
<!-- BNF4 -->
<g id="node22" class="node"><title>BNF4</title>
<text text-anchor="middle" x="591.229" y="-304.932" font-family="Times Roman,serif" font-size="16.00">BNF</text>
</g>
<!-- CON4&#45;&gt;BNF4 -->
<g id="edge22" class="edge"><title>CON4&#45;&gt;BNF4</title>
<path fill="none" stroke="black" d="M512.162,-294.444C524.885,-296.84 540.258,-299.734 554.053,-302.332"/>
<polygon fill="black" stroke="black" points="553.75,-305.836 564.225,-304.247 555.045,-298.957 553.75,-305.836"/>
</g>
<!-- D3T4 -->
<g id="node23" class="node"><title>D3T4</title>
<text text-anchor="middle" x="552.833" y="-252.467" font-family="Times Roman,serif" font-size="16.00">D3T</text>
</g>
<!-- D3T4&#45;&gt;CON4 -->
<g id="edge24" class="edge"><title>D3T4&#45;&gt;CON4</title>
<path fill="none" stroke="black" d="M525.677,-269.892C524.297,-270.554 522.902,-271.223 521.501,-271.895"/>
<polygon fill="black" stroke="black" points="519.774,-268.842 512.271,-276.322 522.801,-275.153 519.774,-268.842"/>
</g>
<!-- D3T4&#45;&gt;BNF4 -->
<g id="edge26" class="edge"><title>D3T4&#45;&gt;BNF4</title>
<path fill="none" stroke="black" d="M566.047,-274.922C567.956,-277.531 569.952,-280.259 571.95,-282.989"/>
<polygon fill="black" stroke="black" points="569.13,-285.062 577.86,-291.065 574.779,-280.928 569.13,-285.062"/>
</g>
<!-- OLT4 -->
<g id="node24" class="node"><title>OLT4</title>
<text text-anchor="middle" x="538.03" y="-353.43" font-family="Times Roman,serif" font-size="16.00">OLT</text>
</g>
<!-- D3T4&#45;&gt;OLT4 -->
<g id="edge28" class="edge"><title>D3T4&#45;&gt;OLT4</title>
<path fill="none" stroke="black" d="M550.187,-274.917C547.969,-290.042 544.764,-311.902 542.201,-329.379"/>
<polygon fill="black" stroke="black" points="538.691,-329.194 540.704,-339.595 545.617,-330.209 538.691,-329.194"/>
</g>
<!-- OLT4&#45;&gt;BNF4 -->
<g id="edge30" class="edge"><title>OLT4&#45;&gt;BNF4</title>
<path fill="none" stroke="black" d="M557.839,-339.771C559.752,-338.027 561.715,-336.238 563.685,-334.442"/>
<polygon fill="black" stroke="black" points="566.193,-336.891 571.226,-327.568 561.478,-331.718 566.193,-336.891"/>
</g>
<!-- CON5 -->
<g id="node31" class="node"><title>CON5</title>
<text text-anchor="middle" x="305.791" y="-112.456" font-family="Times Roman,serif" font-size="16.00">CON</text>
</g>
<!-- BNF5 -->
<g id="node32" class="node"><title>BNF5</title>
<text text-anchor="middle" x="374.418" y="-100.847" font-family="Times Roman,serif" font-size="16.00">BNF</text>
</g>
<!-- CON5&#45;&gt;BNF5 -->
<g id="edge33" class="edge"><title>CON5&#45;&gt;BNF5</title>
<path fill="none" stroke="black" d="M332.914,-112.268C334.221,-112.047 335.542,-111.823 336.87,-111.599"/>
<polygon fill="black" stroke="black" points="337.766,-114.997 347.042,-109.878 336.598,-108.095 337.766,-114.997"/>
</g>
<!-- D3T5 -->
<g id="node33" class="node"><title>D3T5</title>
<text text-anchor="middle" x="325.662" y="-51.7354" font-family="Times Roman,serif" font-size="16.00">D3T</text>
</g>
<!-- D3T5&#45;&gt;CON5 -->
<g id="edge35" class="edge"><title>D3T5&#45;&gt;CON5</title>
<path fill="none" stroke="black" d="M319.7,-74.3534C318.207,-78.9165 316.57,-83.9177 314.96,-88.8365"/>
<polygon fill="black" stroke="black" points="311.532,-88.0577 311.748,-98.6504 318.185,-90.235 311.532,-88.0577"/>
</g>
<!-- D3T5&#45;&gt;BNF5 -->
<g id="edge37" class="edge"><title>D3T5&#45;&gt;BNF5</title>
<path fill="none" stroke="black" d="M343.54,-74.144C345.395,-76.0124 347.304,-77.9354 349.22,-79.8652"/>
<polygon fill="black" stroke="black" points="347.013,-82.61 356.542,-87.2409 351.981,-77.6783 347.013,-82.61"/>
</g>
<!-- OLT5 -->
<g id="node34" class="node"><title>OLT5</title>
<text text-anchor="middle" x="376.921" y="-149.758" font-family="Times Roman,serif" font-size="16.00">OLT</text>
</g>
<!-- OLT5&#45;&gt;BNF5 -->
<g id="edge39" class="edge"><title>OLT5&#45;&gt;BNF5</title>
<path fill="none" stroke="black" d="M375.989,-135.945C375.949,-135.171 375.909,-134.388 375.869,-133.6"/>
<polygon fill="black" stroke="black" points="379.349,-133.12 375.342,-123.312 372.358,-133.478 379.349,-133.12"/>
</g>
<!-- CON6 -->
<g id="node40" class="node"><title>CON6</title>
<text text-anchor="middle" x="486.853" y="-516.379" font-family="Times Roman,serif" font-size="16.00">CON</text>
</g>
<!-- BNF6 -->
<g id="node41" class="node"><title>BNF6</title>
<text text-anchor="middle" x="594.031" y="-533.616" font-family="Times Roman,serif" font-size="16.00">BNF</text>
</g>
<!-- CON6&#45;&gt;BNF6 -->
<g id="edge42" class="edge"><title>CON6&#45;&gt;BNF6</title>
<path fill="none" stroke="black" d="M513.899,-525.129C526.973,-527.232 542.866,-529.788 557.041,-532.067"/>
<polygon fill="black" stroke="black" points="556.565,-535.536 566.994,-533.668 557.677,-528.625 556.565,-535.536"/>
</g>
<!-- D3T6 -->
<g id="node42" class="node"><title>D3T6</title>
<text text-anchor="middle" x="550.352" y="-471.194" font-family="Times Roman,serif" font-size="16.00">D3T</text>
</g>
<!-- D3T6&#45;&gt;CON6 -->
<g id="edge44" class="edge"><title>D3T6&#45;&gt;CON6</title>
<path fill="none" stroke="black" d="M524.89,-493.712C523.467,-494.725 522.026,-495.75 520.58,-496.779"/>
<polygon fill="black" stroke="black" points="518.439,-494.007 512.32,-502.657 522.497,-499.71 518.439,-494.007"/>
</g>
<!-- D3T6&#45;&gt;BNF6 -->
<g id="edge46" class="edge"><title>D3T6&#45;&gt;BNF6</title>
<path fill="none" stroke="black" d="M562.985,-493.649C566.845,-499.165 571.174,-505.352 575.346,-511.314"/>
<polygon fill="black" stroke="black" points="572.673,-513.599 581.274,-519.785 578.408,-509.585 572.673,-513.599"/>
</g>
<!-- OLT6 -->
<g id="node43" class="node"><title>OLT6</title>
<text text-anchor="middle" x="530.532" y="-578.802" font-family="Times Roman,serif" font-size="16.00">OLT</text>
</g>
<!-- D3T6&#45;&gt;OLT6 -->
<g id="edge48" class="edge"><title>D3T6&#45;&gt;OLT6</title>
<path fill="none" stroke="black" d="M546.989,-493.848C543.914,-510.544 539.317,-535.506 535.762,-554.807"/>
<polygon fill="black" stroke="black" points="532.28,-554.39 533.911,-564.858 539.164,-555.658 532.28,-554.39"/>
</g>
<!-- OLT6&#45;&gt;CON6 -->
<g id="edge50" class="edge"><title>OLT6&#45;&gt;CON6</title>
<path fill="none" stroke="black" d="M517.898,-565.147C514.039,-559.631 509.71,-553.444 505.537,-547.481"/>
<polygon fill="black" stroke="black" points="508.211,-545.197 499.61,-539.01 502.475,-549.21 508.211,-545.197"/>
</g>
<!-- OLT6&#45;&gt;BNF6 -->
<g id="edge52" class="edge"><title>OLT6&#45;&gt;BNF6</title>
<path fill="none" stroke="black" d="M555.994,-565.084C557.417,-564.071 558.858,-563.046 560.304,-562.016"/>
<polygon fill="black" stroke="black" points="562.445,-564.788 568.564,-556.139 558.387,-559.085 562.445,-564.788"/>
</g>
<!-- CON7 -->
<g id="node51" class="node"><title>CON7</title>
<text text-anchor="middle" x="676.269" y="-83.131" font-family="Times Roman,serif" font-size="16.00">CON</text>
</g>
<!-- BNF7 -->
<g id="node52" class="node"><title>BNF7</title>
<text text-anchor="middle" x="733.2" y="-128.376" font-family="Times Roman,serif" font-size="16.00">BNF</text>
</g>
<!-- CON7&#45;&gt;BNF7 -->
<g id="edge55" class="edge"><title>CON7&#45;&gt;BNF7</title>
<path fill="none" stroke="black" d="M699.097,-105.673C700.141,-106.503 701.196,-107.341 702.255,-108.183"/>
<polygon fill="black" stroke="black" points="700.361,-111.148 710.367,-114.63 704.716,-105.668 700.361,-111.148"/>
</g>
<!-- D3T7 -->
<g id="node53" class="node"><title>D3T7</title>
<text text-anchor="middle" x="764.04" y="-72.2072" font-family="Times Roman,serif" font-size="16.00">D3T</text>
</g>
<!-- D3T7&#45;&gt;BNF7 -->
<g id="edge57" class="edge"><title>D3T7&#45;&gt;BNF7</title>
<path fill="none" stroke="black" d="M754.113,-94.6885C752.187,-98.1962 750.129,-101.943 748.084,-105.668"/>
<polygon fill="black" stroke="black" points="744.854,-104.278 743.109,-114.729 750.99,-107.647 744.854,-104.278"/>
</g>
<!-- OLT7 -->
<g id="node54" class="node"><title>OLT7</title>
<text text-anchor="middle" x="666.769" y="-141.413" font-family="Times Roman,serif" font-size="16.00">OLT</text>
</g>
<!-- OLT7&#45;&gt;CON7 -->
<g id="edge59" class="edge"><title>OLT7&#45;&gt;CON7</title>
<path fill="none" stroke="black" d="M669.723,-127.692C670.343,-123.891 671.01,-119.796 671.673,-115.726"/>
<polygon fill="black" stroke="black" points="675.13,-116.275 673.284,-105.842 668.221,-115.149 675.13,-116.275"/>
</g>
<!-- OLT7&#45;&gt;BNF7 -->
<g id="edge61" class="edge"><title>OLT7&#45;&gt;BNF7</title>
<path fill="none" stroke="black" d="M693.789,-140.51C694.544,-140.362 695.302,-140.213 696.064,-140.064"/>
<polygon fill="black" stroke="black" points="696.85,-143.477 705.989,-138.116 695.502,-136.608 696.85,-143.477"/>
</g>
<!-- CON8 -->
<g id="node60" class="node"><title>CON8</title>
<text text-anchor="middle" x="245.125" y="-502.177" font-family="Times Roman,serif" font-size="16.00">CON</text>
</g>
<!-- BNF8 -->
<g id="node61" class="node"><title>BNF8</title>
<text text-anchor="middle" x="308.001" y="-516.913" font-family="Times Roman,serif" font-size="16.00">BNF</text>
</g>
<!-- CON8&#45;&gt;BNF8 -->
<g id="edge64" class="edge"><title>CON8&#45;&gt;BNF8</title>
<path fill="none" stroke="black" d="M272.155,-512.912C272.247,-512.933 272.338,-512.955 272.43,-512.976"/>
<polygon fill="black" stroke="black" points="270.459,-516.109 280.994,-514.984 272.057,-509.294 270.459,-516.109"/>
</g>
<!-- D3T8 -->
<g id="node62" class="node"><title>D3T8</title>
<text text-anchor="middle" x="377.364" y="-491.2" font-family="Times Roman,serif" font-size="16.00">D3T</text>
</g>
<!-- D3T8&#45;&gt;BNF8 -->
<g id="edge66" class="edge"><title>D3T8&#45;&gt;BNF8</title>
<path fill="none" stroke="black" d="M350.348,-505.615C348.465,-506.313 346.55,-507.023 344.627,-507.736"/>
<polygon fill="black" stroke="black" points="343.217,-504.526 335.057,-511.283 345.651,-511.089 343.217,-504.526"/>
</g>
<!-- OLT8 -->
<g id="node63" class="node"><title>OLT8</title>
<text text-anchor="middle" x="358.715" y="-570.769" font-family="Times Roman,serif" font-size="16.00">OLT</text>
</g>
<!-- D3T8&#45;&gt;OLT8 -->
<g id="edge68" class="edge"><title>D3T8&#45;&gt;OLT8</title>
<path fill="none" stroke="black" d="M373.132,-513.656C370.836,-523.454 367.944,-535.79 365.355,-546.837"/>
<polygon fill="black" stroke="black" points="361.869,-546.375 362.995,-556.91 368.684,-547.972 361.869,-546.375"/>
</g>
<!-- OLT8&#45;&gt;BNF8 -->
<g id="edge70" class="edge"><title>OLT8&#45;&gt;BNF8</title>
<path fill="none" stroke="black" d="M341.546,-556.936C338.489,-553.69 335.254,-550.255 332.048,-546.85"/>
<polygon fill="black" stroke="black" points="334.556,-544.408 325.153,-539.528 329.46,-549.207 334.556,-544.408"/>
</g>
<!-- CON9 -->
<g id="node69" class="node"><title>CON9</title>
<text text-anchor="middle" x="286.094" y="-740.401" font-family="Times Roman,serif" font-size="16.00">CON</text>
</g>
<!-- BNF9 -->
<g id="node70" class="node"><title>BNF9</title>
<text text-anchor="middle" x="352.537" y="-749.21" font-family="Times Roman,serif" font-size="16.00">BNF</text>
</g>
<!-- CON9&#45;&gt;BNF9 -->
<g id="edge73" class="edge"><title>CON9&#45;&gt;BNF9</title>
<path fill="none" stroke="black" d="M313.119,-748.384C313.873,-748.484 314.632,-748.584 315.394,-748.685"/>
<polygon fill="black" stroke="black" points="314.947,-752.157 325.321,-750.002 315.867,-745.218 314.947,-752.157"/>
</g>
<!-- D3T9 -->
<g id="node71" class="node"><title>D3T9</title>
<text text-anchor="middle" x="329.272" y="-692.381" font-family="Times Roman,serif" font-size="16.00">D3T</text>
</g>
<!-- CON9&#45;&gt;D3T9 -->
<g id="edge75" class="edge"><title>CON9&#45;&gt;D3T9</title>
<path fill="none" stroke="black" d="M302.418,-726.646C303.6,-725.332 304.804,-723.992 306.016,-722.645"/>
<polygon fill="black" stroke="black" points="308.842,-724.737 312.925,-714.961 303.636,-720.056 308.842,-724.737"/>
</g>
<!-- OLT9 -->
<g id="node72" class="node"><title>OLT9</title>
<text text-anchor="middle" x="310.309" y="-793.805" font-family="Times Roman,serif" font-size="16.00">OLT</text>
</g>
<!-- CON9&#45;&gt;OLT9 -->
<g id="edge77" class="edge"><title>CON9&#45;&gt;OLT9</title>
<path fill="none" stroke="black" d="M294.292,-762.881C295.475,-765.491 296.715,-768.224 297.957,-770.964"/>
<polygon fill="black" stroke="black" points="294.802,-772.481 302.12,-780.143 301.177,-769.59 294.802,-772.481"/>
</g>
<!-- D3T9&#45;&gt;BNF9 -->
<g id="edge79" class="edge"><title>D3T9&#45;&gt;BNF9</title>
<path fill="none" stroke="black" d="M336.762,-715.075C338.173,-718.522 339.678,-722.198 341.177,-725.86"/>
<polygon fill="black" stroke="black" points="338.034,-727.422 345.062,-735.35 344.513,-724.77 338.034,-727.422"/>
</g>
<!-- OLT9&#45;&gt;BNF9 -->
<g id="edge81" class="edge"><title>OLT9&#45;&gt;BNF9</title>
<path fill="none" stroke="black" d="M327.485,-780.066C327.725,-779.813 327.965,-779.559 328.206,-779.305"/>
<polygon fill="black" stroke="black" points="330.905,-781.545 335.24,-771.877 325.823,-776.732 330.905,-781.545"/>
</g>
<!-- CON10 -->
<g id="node79" class="node"><title>CON10</title>
<text text-anchor="middle" x="485.791" y="-92.4556" font-family="Times Roman,serif" font-size="16.00">CON</text>
</g>
<!-- BNF10 -->
<g id="node80" class="node"><title>BNF10</title>
<text text-anchor="middle" x="554.418" y="-80.8473" font-family="Times Roman,serif" font-size="16.00">BNF</text>
</g>
<!-- CON10&#45;&gt;BNF10 -->
<g id="edge84" class="edge"><title>CON10&#45;&gt;BNF10</title>
<path fill="none" stroke="black" d="M512.914,-92.2677C514.221,-92.0467 515.542,-91.8232 516.87,-91.5986"/>
<polygon fill="black" stroke="black" points="517.766,-94.9968 527.042,-89.878 516.598,-88.0948 517.766,-94.9968"/>
</g>
<!-- D3T10 -->
<g id="node81" class="node"><title>D3T10</title>
<text text-anchor="middle" x="505.662" y="-31.7354" font-family="Times Roman,serif" font-size="16.00">D3T</text>
</g>
<!-- CON10&#45;&gt;D3T10 -->
<g id="edge86" class="edge"><title>CON10&#45;&gt;D3T10</title>
<path fill="none" stroke="black" d="M491.753,-78.6375C493.246,-74.0744 494.883,-69.0732 496.492,-64.1545"/>
<polygon fill="black" stroke="black" points="499.92,-64.9332 499.704,-54.3406 493.267,-62.756 499.92,-64.9332"/>
</g>
<!-- D3T10&#45;&gt;BNF10 -->
<g id="edge88" class="edge"><title>D3T10&#45;&gt;BNF10</title>
<path fill="none" stroke="black" d="M523.54,-54.144C525.395,-56.0124 527.304,-57.9354 529.22,-59.8652"/>
<polygon fill="black" stroke="black" points="527.013,-62.61 536.542,-67.2409 531.981,-57.6783 527.013,-62.61"/>
</g>
<!-- OLT10 -->
<g id="node82" class="node"><title>OLT10</title>
<text text-anchor="middle" x="556.921" y="-129.758" font-family="Times Roman,serif" font-size="16.00">OLT</text>
</g>
<!-- OLT10&#45;&gt;BNF10 -->
<g id="edge90" class="edge"><title>OLT10&#45;&gt;BNF10</title>
<path fill="none" stroke="black" d="M555.989,-115.945C555.949,-115.171 555.909,-114.388 555.869,-113.6"/>
<polygon fill="black" stroke="black" points="559.349,-113.12 555.342,-103.312 552.358,-113.478 559.349,-113.12"/>
</g>
<!-- CON11 -->
<g id="node88" class="node"><title>CON11</title>
<text text-anchor="middle" x="45.1091" y="-304.95" font-family="Times Roman,serif" font-size="16.00">CON</text>
</g>
<!-- BNF11 -->
<g id="node89" class="node"><title>BNF11</title>
<text text-anchor="middle" x="151.229" y="-324.932" font-family="Times Roman,serif" font-size="16.00">BNF</text>
</g>
<!-- CON11&#45;&gt;BNF11 -->
<g id="edge93" class="edge"><title>CON11&#45;&gt;BNF11</title>
<path fill="none" stroke="black" d="M72.1622,-314.444C84.885,-316.84 100.258,-319.734 114.053,-322.332"/>
<polygon fill="black" stroke="black" points="113.75,-325.836 124.225,-324.247 115.045,-318.957 113.75,-325.836"/>
</g>
<!-- D3T11 -->
<g id="node90" class="node"><title>D3T11</title>
<text text-anchor="middle" x="112.833" y="-272.467" font-family="Times Roman,serif" font-size="16.00">D3T</text>
</g>
<!-- CON11&#45;&gt;D3T11 -->
<g id="edge95" class="edge"><title>CON11&#45;&gt;D3T11</title>
<path fill="none" stroke="black" d="M72.2649,-296.325C73.6449,-295.663 75.0403,-294.994 76.4416,-294.322"/>
<polygon fill="black" stroke="black" points="78.1686,-297.375 85.6714,-289.895 75.1412,-291.064 78.1686,-297.375"/>
</g>
<!-- D3T11&#45;&gt;BNF11 -->
<g id="edge97" class="edge"><title>D3T11&#45;&gt;BNF11</title>
<path fill="none" stroke="black" d="M126.047,-294.922C127.956,-297.531 129.952,-300.259 131.95,-302.989"/>
<polygon fill="black" stroke="black" points="129.13,-305.062 137.86,-311.065 134.779,-300.928 129.13,-305.062"/>
</g>
<!-- OLT11 -->
<g id="node91" class="node"><title>OLT11</title>
<text text-anchor="middle" x="98.03" y="-373.43" font-family="Times Roman,serif" font-size="16.00">OLT</text>
</g>
<!-- OLT11&#45;&gt;BNF11 -->
<g id="edge99" class="edge"><title>OLT11&#45;&gt;BNF11</title>
<path fill="none" stroke="black" d="M117.839,-359.771C119.752,-358.027 121.715,-356.238 123.685,-354.442"/>
<polygon fill="black" stroke="black" points="126.193,-356.891 131.226,-347.568 121.478,-351.718 126.193,-356.891"/>
</g>
<!-- OLT11&#45;&gt;D3T11 -->
<g id="edge101" class="edge"><title>OLT11&#45;&gt;D3T11</title>
<path fill="none" stroke="black" d="M100.677,-359.78C102.894,-344.655 106.099,-322.795 108.662,-305.317"/>
<polygon fill="black" stroke="black" points="112.172,-305.503 110.16,-295.101 105.246,-304.488 112.172,-305.503"/>
</g>
<!-- CON12 -->
<g id="node98" class="node"><title>CON12</title>
<text text-anchor="middle" x="65.1254" y="-82.1769" font-family="Times Roman,serif" font-size="16.00">CON</text>
</g>
<!-- BNF12 -->
<g id="node99" class="node"><title>BNF12</title>
<text text-anchor="middle" x="128.001" y="-96.9133" font-family="Times Roman,serif" font-size="16.00">BNF</text>
</g>
<!-- CON12&#45;&gt;BNF12 -->
<g id="edge104" class="edge"><title>CON12&#45;&gt;BNF12</title>
<path fill="none" stroke="black" d="M92.1552,-92.912C92.2467,-92.9334 92.3383,-92.9549 92.4299,-92.9764"/>
<polygon fill="black" stroke="black" points="90.4591,-96.1092 100.994,-94.9836 92.0565,-89.2939 90.4591,-96.1092"/>
</g>
<!-- D3T12 -->
<g id="node100" class="node"><title>D3T12</title>
<text text-anchor="middle" x="197.364" y="-71.2003" font-family="Times Roman,serif" font-size="16.00">D3T</text>
</g>
<!-- D3T12&#45;&gt;BNF12 -->
<g id="edge106" class="edge"><title>D3T12&#45;&gt;BNF12</title>
<path fill="none" stroke="black" d="M170.348,-85.6153C168.465,-86.3133 166.55,-87.023 164.627,-87.7358"/>
<polygon fill="black" stroke="black" points="163.217,-84.5257 155.057,-91.2834 165.651,-91.0892 163.217,-84.5257"/>
</g>
<!-- OLT12 -->
<g id="node101" class="node"><title>OLT12</title>
<text text-anchor="middle" x="178.715" y="-150.769" font-family="Times Roman,serif" font-size="16.00">OLT</text>
</g>
<!-- OLT12&#45;&gt;BNF12 -->
<g id="edge108" class="edge"><title>OLT12&#45;&gt;BNF12</title>
<path fill="none" stroke="black" d="M161.546,-136.936C158.489,-133.69 155.254,-130.255 152.048,-126.85"/>
<polygon fill="black" stroke="black" points="154.556,-124.408 145.153,-119.528 149.46,-129.207 154.556,-124.408"/>
</g>
<!-- OLT12&#45;&gt;D3T12 -->
<g id="edge110" class="edge"><title>OLT12&#45;&gt;D3T12</title>
<path fill="none" stroke="black" d="M182.947,-137.114C185.243,-127.315 188.134,-114.98 190.724,-103.932"/>
<polygon fill="black" stroke="black" points="194.21,-104.395 193.084,-93.8597 187.395,-102.797 194.21,-104.395"/>
</g>
<!-- CON13 -->
<g id="node107" class="node"><title>CON13</title>
<text text-anchor="middle" x="56.2689" y="-503.131" font-family="Times Roman,serif" font-size="16.00">CON</text>
</g>
<!-- BNF13 -->
<g id="node108" class="node"><title>BNF13</title>
<text text-anchor="middle" x="113.2" y="-548.376" font-family="Times Roman,serif" font-size="16.00">BNF</text>
</g>
<!-- CON13&#45;&gt;BNF13 -->
<g id="edge113" class="edge"><title>CON13&#45;&gt;BNF13</title>
<path fill="none" stroke="black" d="M79.0971,-525.673C80.1411,-526.503 81.1957,-527.341 82.2549,-528.183"/>
<polygon fill="black" stroke="black" points="80.3606,-531.148 90.3671,-534.63 84.7159,-525.668 80.3606,-531.148"/>
</g>
<!-- OLT13 -->
<g id="node110" class="node"><title>OLT13</title>
<text text-anchor="middle" x="46.7693" y="-561.413" font-family="Times Roman,serif" font-size="16.00">OLT</text>
</g>
<!-- CON13&#45;&gt;OLT13 -->
<g id="edge115" class="edge"><title>CON13&#45;&gt;OLT13</title>
<path fill="none" stroke="black" d="M53.3153,-525.652C52.6957,-529.453 52.0284,-533.548 51.365,-537.617"/>
<polygon fill="black" stroke="black" points="47.9082,-537.069 49.7539,-547.502 54.8171,-538.195 47.9082,-537.069"/>
</g>
<!-- D3T13 -->
<g id="node109" class="node"><title>D3T13</title>
<text text-anchor="middle" x="144.04" y="-492.207" font-family="Times Roman,serif" font-size="16.00">D3T</text>
</g>
<!-- D3T13&#45;&gt;BNF13 -->
<g id="edge117" class="edge"><title>D3T13&#45;&gt;BNF13</title>
<path fill="none" stroke="black" d="M134.113,-514.689C132.187,-518.196 130.129,-521.943 128.084,-525.668"/>
<polygon fill="black" stroke="black" points="124.854,-524.278 123.109,-534.729 130.99,-527.647 124.854,-524.278"/>
</g>
<!-- OLT13&#45;&gt;BNF13 -->
<g id="edge119" class="edge"><title>OLT13&#45;&gt;BNF13</title>
<path fill="none" stroke="black" d="M73.7893,-560.51C74.5437,-560.362 75.3025,-560.213 76.064,-560.064"/>
<polygon fill="black" stroke="black" points="76.8498,-563.477 85.9886,-558.116 75.5017,-556.608 76.8498,-563.477"/>
</g>
<!-- CON14 -->
<g id="node116" class="node"><title>CON14</title>
<text text-anchor="middle" x="686.373" y="-737.242" font-family="Times Roman,serif" font-size="16.00">CON</text>
</g>
<!-- BNF14 -->
<g id="node117" class="node"><title>BNF14</title>
<text text-anchor="middle" x="798.548" y="-755.695" font-family="Times Roman,serif" font-size="16.00">BNF</text>
</g>
<!-- CON14&#45;&gt;BNF14 -->
<g id="edge122" class="edge"><title>CON14&#45;&gt;BNF14</title>
<path fill="none" stroke="black" d="M713.527,-746.109C727.889,-748.471 745.735,-751.407 761.364,-753.978"/>
<polygon fill="black" stroke="black" points="760.819,-757.435 771.255,-755.605 761.956,-750.528 760.819,-757.435"/>
</g>
<!-- OLT14 -->
<g id="node119" class="node"><title>OLT14</title>
<text text-anchor="middle" x="732.823" y="-796.671" font-family="Times Roman,serif" font-size="16.00">OLT</text>
</g>
<!-- CON14&#45;&gt;OLT14 -->
<g id="edge124" class="edge"><title>CON14&#45;&gt;OLT14</title>
<path fill="none" stroke="black" d="M700.562,-759.796C704.344,-764.634 708.504,-769.957 712.544,-775.126"/>
<polygon fill="black" stroke="black" points="709.805,-777.305 718.721,-783.028 715.32,-772.994 709.805,-777.305"/>
</g>
<!-- D3T14 -->
<g id="node118" class="node"><title>D3T14</title>
<text text-anchor="middle" x="771.792" y="-691.229" font-family="Times Roman,serif" font-size="16.00">D3T</text>
</g>
<!-- D3T14&#45;&gt;BNF14 -->
<g id="edge126" class="edge"><title>D3T14&#45;&gt;BNF14</title>
<path fill="none" stroke="black" d="M779.387,-713.93C781.78,-719.695 784.479,-726.196 787.079,-732.461"/>
<polygon fill="black" stroke="black" points="783.96,-734.077 791.026,-741.971 790.425,-731.393 783.96,-734.077"/>
</g>
<!-- D3T14&#45;&gt;OLT14 -->
<g id="edge128" class="edge"><title>D3T14&#45;&gt;OLT14</title>
<path fill="none" stroke="black" d="M765.004,-713.996C758.941,-730.4 749.973,-754.665 743.043,-773.417"/>
<polygon fill="black" stroke="black" points="739.717,-772.321 739.533,-782.915 746.283,-774.748 739.717,-772.321"/>
</g>
<!-- OLT14&#45;&gt;BNF14 -->
<g id="edge130" class="edge"><title>OLT14&#45;&gt;BNF14</title>
<path fill="none" stroke="black" d="M759.936,-784.168C760.89,-783.572 761.852,-782.973 762.816,-782.371"/>
<polygon fill="black" stroke="black" points="764.864,-785.219 771.498,-776.959 761.161,-779.279 764.864,-785.219"/>
</g>
<!-- CON15 -->
<g id="node126" class="node"><title>CON15</title>
<text text-anchor="middle" x="466.373" y="-737.242" font-family="Times Roman,serif" font-size="16.00">CON</text>
</g>
<!-- BNF15 -->
<g id="node127" class="node"><title>BNF15</title>
<text text-anchor="middle" x="578.548" y="-755.695" font-family="Times Roman,serif" font-size="16.00">BNF</text>
</g>
<!-- CON15&#45;&gt;BNF15 -->
<g id="edge133" class="edge"><title>CON15&#45;&gt;BNF15</title>
<path fill="none" stroke="black" d="M493.527,-746.109C507.889,-748.471 525.735,-751.407 541.364,-753.978"/>
<polygon fill="black" stroke="black" points="540.819,-757.435 551.255,-755.605 541.956,-750.528 540.819,-757.435"/>
</g>
<!-- D3T15 -->
<g id="node128" class="node"><title>D3T15</title>
<text text-anchor="middle" x="551.792" y="-691.229" font-family="Times Roman,serif" font-size="16.00">D3T</text>
</g>
<!-- D3T15&#45;&gt;BNF15 -->
<g id="edge135" class="edge"><title>D3T15&#45;&gt;BNF15</title>
<path fill="none" stroke="black" d="M559.387,-713.93C561.78,-719.695 564.479,-726.196 567.079,-732.461"/>
<polygon fill="black" stroke="black" points="563.96,-734.077 571.026,-741.971 570.425,-731.393 563.96,-734.077"/>
</g>
<!-- OLT15 -->
<g id="node129" class="node"><title>OLT15</title>
<text text-anchor="middle" x="512.823" y="-796.671" font-family="Times Roman,serif" font-size="16.00">OLT</text>
</g>
<!-- OLT15&#45;&gt;CON15 -->
<g id="edge137" class="edge"><title>OLT15&#45;&gt;CON15</title>
<path fill="none" stroke="black" d="M498.634,-782.917C494.852,-778.079 490.692,-772.756 486.652,-767.587"/>
<polygon fill="black" stroke="black" points="489.391,-765.408 480.475,-759.684 483.876,-769.719 489.391,-765.408"/>
</g>
<!-- OLT15&#45;&gt;BNF15 -->
<g id="edge139" class="edge"><title>OLT15&#45;&gt;BNF15</title>
<path fill="none" stroke="black" d="M539.936,-784.168C540.89,-783.572 541.852,-782.973 542.816,-782.371"/>
<polygon fill="black" stroke="black" points="544.864,-785.219 551.498,-776.959 541.161,-779.279 544.864,-785.219"/>
</g>
<!-- OLT15&#45;&gt;D3T15 -->
<g id="edge141" class="edge"><title>OLT15&#45;&gt;D3T15</title>
<path fill="none" stroke="black" d="M519.611,-782.704C525.674,-766.299 534.641,-742.034 541.571,-723.283"/>
<polygon fill="black" stroke="black" points="544.898,-724.378 545.082,-713.785 538.332,-721.952 544.898,-724.378"/>
</g>
</g>
</svg>
