<?xml version="1.0" encoding="UTF-8" standalone="no"?>
<!DOCTYPE svg PUBLIC "-//W3C//DTD SVG 1.1//EN"
 "http://www.w3.org/Graphics/SVG/1.1/DTD/svg11.dtd">
<!-- Generated by graphviz version 2.26.3 (20100126.1600)
 -->
<!-- Title: FirstlevelCluster Pages: 1 -->
<svg width="221pt" height="230pt"
 viewBox="0.00 0.00 221.00 230.00" xmlns="http://www.w3.org/2000/svg" xmlns:xlink="http://www.w3.org/1999/xlink">
<g id="graph1" class="graph" transform="scale(1 1) rotate(0) translate(4 226)">
<title>FirstlevelCluster</title>
<polygon fill="white" stroke="white" points="-4,5 -4,-226 218,-226 218,5 -4,5"/>
<g id="graph2" class="cluster"><title>cluster_0</title>
<polygon fill="none" stroke="black" points="0.738117,-0.640888 0.738117,-220.641 211.738,-220.641 211.738,-0.640888 0.738117,-0.640888"/>
<text text-anchor="middle" x="106.238" y="-204.041" font-family="Times Roman,serif" font-size="14.00">CON~D3T~OLT&gt;</text>
</g>
<g id="graph3" class="cluster"><title>cluster_2</title>
<polygon fill="lightgrey" stroke="black" points="8.97623,-8.78178 8.97623,-185.782 202.976,-185.782 202.976,-8.78178 8.97623,-8.78178"/>
<text text-anchor="middle" x="105.976" y="-169.182" font-family="Times Roman,serif" font-size="14.00">011221</text>
</g>
<!-- CON2 -->
<g id="node3" class="node"><title>CON2</title>
<text text-anchor="middle" x="44.7138" y="-62.1057" font-family="Times Roman,serif" font-size="16.00">CON</text>
</g>
<!-- BNF2 -->
<g id="node4" class="node"><title>BNF2</title>
<text text-anchor="middle" x="110.02" y="-79.6493" font-family="Times Roman,serif" font-size="16.00">BNF</text>
</g>
<!-- CON2&#45;&gt;BNF2 -->
<g id="edge4" class="edge"><title>CON2&#45;&gt;BNF2</title>
<path fill="none" stroke="black" d="M72.031,-73.8441C72.2495,-73.9028 72.4683,-73.9616 72.6873,-74.0204"/>
<polygon fill="black" stroke="black" points="72.0365,-77.4696 82.6022,-76.6839 73.8526,-70.7093 72.0365,-77.4696"/>
</g>
<!-- D3T2 -->
<g id="node5" class="node"><title>D3T2</title>
<text text-anchor="middle" x="166.725" y="-31.4481" font-family="Times Roman,serif" font-size="16.00">D3T</text>
</g>
<!-- D3T2&#45;&gt;BNF2 -->
<g id="edge6" class="edge"><title>D3T2&#45;&gt;BNF2</title>
<path fill="none" stroke="black" d="M145.287,-54.0709C143.311,-55.7504 141.288,-57.4705 139.258,-59.1958"/>
<polygon fill="black" stroke="black" points="136.84,-56.6573 131.488,-65.8007 141.374,-61.9908 136.84,-56.6573"/>
</g>
<!-- OLT2 -->
<g id="node6" class="node"><title>OLT2</title>
<text text-anchor="middle" x="136.971" y="-128.574" font-family="Times Roman,serif" font-size="16.00">OLT</text>
</g>
<!-- OLT2&#45;&gt;BNF2 -->
<g id="edge8" class="edge"><title>OLT2&#45;&gt;BNF2</title>
<path fill="none" stroke="black" d="M126.935,-114.756C126.296,-113.595 125.645,-112.413 124.989,-111.223"/>
<polygon fill="black" stroke="black" points="127.865,-109.189 119.974,-102.119 121.734,-112.567 127.865,-109.189"/>
</g>
</g>
</svg>
