<?xml version="1.0" encoding="UTF-8" standalone="no"?>
<!DOCTYPE svg PUBLIC "-//W3C//DTD SVG 1.1//EN"
 "http://www.w3.org/Graphics/SVG/1.1/DTD/svg11.dtd">
<!-- Generated by graphviz version 2.26.3 (20100126.1600)
 -->
<!-- Title: FirstlevelCluster Pages: 1 -->
<svg width="192pt" height="237pt"
 viewBox="0.00 0.00 192.00 237.00" xmlns="http://www.w3.org/2000/svg" xmlns:xlink="http://www.w3.org/1999/xlink">
<g id="graph1" class="graph" transform="scale(1 1) rotate(0) translate(4 233)">
<title>FirstlevelCluster</title>
<polygon fill="white" stroke="white" points="-4,5 -4,-233 189,-233 189,5 -4,5"/>
<g id="graph2" class="cluster"><title>cluster_0</title>
<polygon fill="none" stroke="black" points="1.23812,-1.14089 1.23812,-228.141 183.238,-228.141 183.238,-1.14089 1.23812,-1.14089"/>
<text text-anchor="middle" x="92.2381" y="-211.541" font-family="Times Roman,serif" font-size="14.00">&gt;CON~BNF~D3T</text>
</g>
<g id="graph3" class="cluster"><title>cluster_2</title>
<polygon fill="lightgrey" stroke="black" points="10.4762,-10.2818 10.4762,-193.282 174.476,-193.282 174.476,-10.2818 10.4762,-10.2818"/>
<text text-anchor="middle" x="92.4762" y="-176.682" font-family="Times Roman,serif" font-size="14.00">112122</text>
</g>
<!-- CON2 -->
<g id="node3" class="node"><title>CON2</title>
<text text-anchor="middle" x="46.3057" y="-132.635" font-family="Times Roman,serif" font-size="16.00">CON</text>
</g>
<!-- BNF2 -->
<g id="node4" class="node"><title>BNF2</title>
<text text-anchor="middle" x="138.785" y="-135.51" font-family="Times Roman,serif" font-size="16.00">BNF</text>
</g>
<!-- D3T2 -->
<g id="node5" class="node"><title>D3T2</title>
<text text-anchor="middle" x="109.308" y="-32.877" font-family="Times Roman,serif" font-size="16.00">D3T</text>
</g>
<!-- OLT2 -->
<g id="node6" class="node"><title>OLT2</title>
<text text-anchor="middle" x="93.4332" y="-85.0027" font-family="Times Roman,serif" font-size="16.00">OLT</text>
</g>
<!-- OLT2&#45;&gt;CON2 -->
<g id="edge4" class="edge"><title>OLT2&#45;&gt;CON2</title>
<path fill="none" stroke="black" d="M75.6163,-107.41C74.2088,-108.833 72.7721,-110.285 71.3281,-111.744"/>
<polygon fill="black" stroke="black" points="68.6931,-109.431 64.1478,-119.002 73.6692,-114.355 68.6931,-109.431"/>
</g>
<!-- OLT2&#45;&gt;BNF2 -->
<g id="edge6" class="edge"><title>OLT2&#45;&gt;BNF2</title>
<path fill="none" stroke="black" d="M109.806,-107.637C111.757,-109.809 113.775,-112.057 115.796,-114.308"/>
<polygon fill="black" stroke="black" points="113.303,-116.77 122.588,-121.872 118.511,-112.093 113.303,-116.77"/>
</g>
<!-- OLT2&#45;&gt;D3T2 -->
<g id="edge8" class="edge"><title>OLT2&#45;&gt;D3T2</title>
<path fill="none" stroke="black" d="M98.9853,-71.1717C99.562,-69.2781 100.157,-67.3236 100.757,-65.3538"/>
<polygon fill="black" stroke="black" points="104.167,-66.1718 103.732,-55.5859 97.4703,-64.1324 104.167,-66.1718"/>
</g>
</g>
</svg>
