<?xml version="1.0" encoding="UTF-8" standalone="no"?>
<!DOCTYPE svg PUBLIC "-//W3C//DTD SVG 1.1//EN"
 "http://www.w3.org/Graphics/SVG/1.1/DTD/svg11.dtd">
<!-- Generated by graphviz version 2.26.3 (20100126.1600)
 -->
<!-- Title: FirstlevelCluster Pages: 1 -->
<svg width="192pt" height="237pt"
 viewBox="0.00 0.00 192.00 237.00" xmlns="http://www.w3.org/2000/svg" xmlns:xlink="http://www.w3.org/1999/xlink">
<g id="graph1" class="graph" transform="scale(1 1) rotate(0) translate(4 233)">
<title>FirstlevelCluster</title>
<polygon fill="white" stroke="white" points="-4,5 -4,-233 189,-233 189,5 -4,5"/>
<g id="graph2" class="cluster"><title>cluster_0</title>
<polygon fill="none" stroke="black" points="1.23812,-1.14089 1.23812,-228.141 183.238,-228.141 183.238,-1.14089 1.23812,-1.14089"/>
<text text-anchor="middle" x="92.2381" y="-211.541" font-family="Times Roman,serif" font-size="14.00">CON~BNF~D3T&gt;</text>
</g>
<g id="graph3" class="cluster"><title>cluster_2</title>
<polygon fill="lightgrey" stroke="black" points="10.4762,-10.2818 10.4762,-193.282 174.476,-193.282 174.476,-10.2818 10.4762,-10.2818"/>
<text text-anchor="middle" x="92.4762" y="-176.682" font-family="Times Roman,serif" font-size="14.00">110100</text>
</g>
<!-- CON2 -->
<g id="node3" class="node"><title>CON2</title>
<text text-anchor="middle" x="46.3057" y="-132.635" font-family="Times Roman,serif" font-size="16.00">CON</text>
</g>
<!-- OLT2 -->
<g id="node6" class="node"><title>OLT2</title>
<text text-anchor="middle" x="93.4332" y="-85.0027" font-family="Times Roman,serif" font-size="16.00">OLT</text>
</g>
<!-- CON2&#45;&gt;OLT2 -->
<g id="edge4" class="edge"><title>CON2&#45;&gt;OLT2</title>
<path fill="none" stroke="black" d="M64.1226,-119.027C65.5302,-117.604 66.9668,-116.152 68.4109,-114.693"/>
<polygon fill="black" stroke="black" points="71.0458,-117.006 75.5911,-107.436 66.0697,-112.083 71.0458,-117.006"/>
</g>
<!-- BNF2 -->
<g id="node4" class="node"><title>BNF2</title>
<text text-anchor="middle" x="138.785" y="-135.51" font-family="Times Roman,serif" font-size="16.00">BNF</text>
</g>
<!-- BNF2&#45;&gt;OLT2 -->
<g id="edge6" class="edge"><title>BNF2&#45;&gt;OLT2</title>
<path fill="none" stroke="black" d="M122.412,-121.676C120.462,-119.504 118.444,-117.256 116.422,-115.005"/>
<polygon fill="black" stroke="black" points="118.916,-112.543 109.63,-107.441 113.707,-117.22 118.916,-112.543"/>
</g>
<!-- D3T2 -->
<g id="node5" class="node"><title>D3T2</title>
<text text-anchor="middle" x="109.308" y="-32.877" font-family="Times Roman,serif" font-size="16.00">D3T</text>
</g>
<!-- D3T2&#45;&gt;OLT2 -->
<g id="edge8" class="edge"><title>D3T2&#45;&gt;OLT2</title>
<path fill="none" stroke="black" d="M103.756,-55.5081C103.179,-57.4017 102.584,-59.3561 101.984,-61.326"/>
<polygon fill="black" stroke="black" points="98.5742,-60.508 99.009,-71.0939 105.271,-62.5474 98.5742,-60.508"/>
</g>
</g>
</svg>
