<?xml version="1.0" encoding="UTF-8" standalone="no"?>
<!DOCTYPE svg PUBLIC "-//W3C//DTD SVG 1.1//EN"
 "http://www.w3.org/Graphics/SVG/1.1/DTD/svg11.dtd">
<!-- Generated by graphviz version 2.26.3 (20100126.1600)
 -->
<!-- Title: FirstlevelCluster Pages: 1 -->
<svg width="414pt" height="410pt"
 viewBox="0.00 0.00 414.00 410.00" xmlns="http://www.w3.org/2000/svg" xmlns:xlink="http://www.w3.org/1999/xlink">
<g id="graph1" class="graph" transform="scale(1 1) rotate(0) translate(4 406)">
<title>FirstlevelCluster</title>
<polygon fill="white" stroke="white" points="-4,5 -4,-406 411,-406 411,5 -4,5"/>
<g id="graph2" class="cluster"><title>cluster_0</title>
<polygon fill="none" stroke="black" points="1.23812,-0.140888 1.23812,-401.141 405.238,-401.141 405.238,-0.140888 1.23812,-0.140888"/>
<text text-anchor="middle" x="203.238" y="-384.541" font-family="Times Roman,serif" font-size="14.00">&gt;CON~BNF</text>
</g>
<g id="graph3" class="cluster"><title>cluster_2</title>
<polygon fill="lightgrey" stroke="black" points="10.4762,-29.2818 10.4762,-208.282 176.476,-208.282 176.476,-29.2818 10.4762,-29.2818"/>
<text text-anchor="middle" x="93.4762" y="-191.682" font-family="Times Roman,serif" font-size="14.00">122221</text>
</g>
<g id="graph4" class="cluster"><title>cluster_3</title>
<polygon fill="lightgrey" stroke="black" points="209.976,-9.28178 209.976,-166.282 396.976,-166.282 396.976,-9.28178 209.976,-9.28178"/>
<text text-anchor="middle" x="303.476" y="-149.682" font-family="Times Roman,serif" font-size="14.00">122220</text>
</g>
<g id="graph5" class="cluster"><title>cluster_4</title>
<polygon fill="lightgrey" stroke="black" points="209.976,-209.282 209.976,-366.282 396.976,-366.282 396.976,-209.282 209.976,-209.282"/>
<text text-anchor="middle" x="303.476" y="-349.682" font-family="Times Roman,serif" font-size="14.00">122222</text>
</g>
<!-- CON2 -->
<g id="node3" class="node"><title>CON2</title>
<text text-anchor="middle" x="46.1067" y="-96.1656" font-family="Times Roman,serif" font-size="16.00">CON</text>
</g>
<!-- BNF2 -->
<g id="node4" class="node"><title>BNF2</title>
<text text-anchor="middle" x="140.255" y="-106.542" font-family="Times Roman,serif" font-size="16.00">BNF</text>
</g>
<!-- D3T2 -->
<g id="node5" class="node"><title>D3T2</title>
<text text-anchor="middle" x="106.952" y="-51.7848" font-family="Times Roman,serif" font-size="16.00">D3T</text>
</g>
<!-- D3T2&#45;&gt;CON2 -->
<g id="edge4" class="edge"><title>D3T2&#45;&gt;CON2</title>
<path fill="none" stroke="black" d="M82.2037,-74.2362C81.2825,-74.9081 80.354,-75.5853 79.422,-76.2652"/>
<polygon fill="black" stroke="black" points="77.0468,-73.6655 71.0302,-82.3862 81.172,-79.3209 77.0468,-73.6655"/>
</g>
<!-- D3T2&#45;&gt;BNF2 -->
<g id="edge6" class="edge"><title>D3T2&#45;&gt;BNF2</title>
<path fill="none" stroke="black" d="M118.041,-74.4183C119.875,-77.4341 121.811,-80.6172 123.745,-83.7961"/>
<polygon fill="black" stroke="black" points="120.914,-85.8766 129.1,-92.6017 126.894,-82.2391 120.914,-85.8766"/>
</g>
<!-- OLT2 -->
<g id="node6" class="node"><title>OLT2</title>
<text text-anchor="middle" x="79.41" y="-150.923" font-family="Times Roman,serif" font-size="16.00">OLT</text>
</g>
<!-- OLT2&#45;&gt;CON2 -->
<g id="edge8" class="edge"><title>OLT2&#45;&gt;CON2</title>
<path fill="none" stroke="black" d="M68.3205,-137.09C66.4863,-134.074 64.5503,-130.891 62.6169,-127.712"/>
<polygon fill="black" stroke="black" points="65.4481,-125.631 57.2613,-118.906 59.4674,-129.269 65.4481,-125.631"/>
</g>
<!-- OLT2&#45;&gt;BNF2 -->
<g id="edge10" class="edge"><title>OLT2&#45;&gt;BNF2</title>
<path fill="none" stroke="black" d="M104.158,-137.272C105.079,-136.6 106.008,-135.922 106.94,-135.243"/>
<polygon fill="black" stroke="black" points="109.315,-137.842 115.331,-129.122 105.19,-132.187 109.315,-137.842"/>
</g>
<!-- CON3 -->
<g id="node12" class="node"><title>CON3</title>
<text text-anchor="middle" x="245.678" y="-59.6294" font-family="Times Roman,serif" font-size="16.00">CON</text>
</g>
<!-- BNF3 -->
<g id="node13" class="node"><title>BNF3</title>
<text text-anchor="middle" x="360.682" y="-80.7548" font-family="Times Roman,serif" font-size="16.00">BNF</text>
</g>
<!-- D3T3 -->
<g id="node14" class="node"><title>D3T3</title>
<text text-anchor="middle" x="311.153" y="-31.4845" font-family="Times Roman,serif" font-size="16.00">D3T</text>
</g>
<!-- D3T3&#45;&gt;CON3 -->
<g id="edge13" class="edge"><title>D3T3&#45;&gt;CON3</title>
<path fill="none" stroke="black" d="M284.143,-47.4946C283.571,-47.7407 282.996,-47.9878 282.42,-48.2356"/>
<polygon fill="black" stroke="black" points="280.853,-45.0994 273.048,-52.2642 283.617,-51.5304 280.853,-45.0994"/>
</g>
<!-- D3T3&#45;&gt;BNF3 -->
<g id="edge15" class="edge"><title>D3T3&#45;&gt;BNF3</title>
<path fill="none" stroke="black" d="M329.314,-53.9512C331.198,-55.8256 333.138,-57.7548 335.084,-59.6908"/>
<polygon fill="black" stroke="black" points="332.964,-62.5191 342.522,-67.0903 337.901,-57.5564 332.964,-62.5191"/>
</g>
<!-- OLT3 -->
<g id="node15" class="node"><title>OLT3</title>
<text text-anchor="middle" x="295.207" y="-108.9" font-family="Times Roman,serif" font-size="16.00">OLT</text>
</g>
<!-- D3T3&#45;&gt;OLT3 -->
<g id="edge17" class="edge"><title>D3T3&#45;&gt;OLT3</title>
<path fill="none" stroke="black" d="M307.374,-54.2308C305.467,-63.4863 303.114,-74.913 300.986,-85.2424"/>
<polygon fill="black" stroke="black" points="297.548,-84.5845 298.959,-95.0851 304.404,-85.9968 297.548,-84.5845"/>
</g>
<!-- OLT3&#45;&gt;CON3 -->
<g id="edge19" class="edge"><title>OLT3&#45;&gt;CON3</title>
<path fill="none" stroke="black" d="M277.045,-95.233C275.161,-93.3586 273.222,-91.4294 271.275,-89.4934"/>
<polygon fill="black" stroke="black" points="273.395,-86.6651 263.837,-82.0939 268.458,-91.6278 273.395,-86.6651"/>
</g>
<!-- OLT3&#45;&gt;BNF3 -->
<g id="edge21" class="edge"><title>OLT3&#45;&gt;BNF3</title>
<path fill="none" stroke="black" d="M322.216,-101.69C322.788,-101.444 323.363,-101.196 323.94,-100.949"/>
<polygon fill="black" stroke="black" points="325.507,-104.085 333.312,-96.9201 322.742,-97.6538 325.507,-104.085"/>
</g>
<!-- CON4 -->
<g id="node22" class="node"><title>CON4</title>
<text text-anchor="middle" x="245.678" y="-259.629" font-family="Times Roman,serif" font-size="16.00">CON</text>
</g>
<!-- BNF4 -->
<g id="node23" class="node"><title>BNF4</title>
<text text-anchor="middle" x="360.682" y="-280.755" font-family="Times Roman,serif" font-size="16.00">BNF</text>
</g>
<!-- D3T4 -->
<g id="node24" class="node"><title>D3T4</title>
<text text-anchor="middle" x="311.153" y="-231.485" font-family="Times Roman,serif" font-size="16.00">D3T</text>
</g>
<!-- D3T4&#45;&gt;CON4 -->
<g id="edge24" class="edge"><title>D3T4&#45;&gt;CON4</title>
<path fill="none" stroke="black" d="M284.143,-247.495C283.571,-247.741 282.996,-247.988 282.42,-248.236"/>
<polygon fill="black" stroke="black" points="280.853,-245.099 273.048,-252.264 283.617,-251.53 280.853,-245.099"/>
</g>
<!-- D3T4&#45;&gt;BNF4 -->
<g id="edge26" class="edge"><title>D3T4&#45;&gt;BNF4</title>
<path fill="none" stroke="black" d="M329.314,-253.951C331.198,-255.826 333.138,-257.755 335.084,-259.691"/>
<polygon fill="black" stroke="black" points="332.964,-262.519 342.522,-267.09 337.901,-257.556 332.964,-262.519"/>
</g>
<!-- OLT4 -->
<g id="node25" class="node"><title>OLT4</title>
<text text-anchor="middle" x="295.207" y="-308.9" font-family="Times Roman,serif" font-size="16.00">OLT</text>
</g>
<!-- OLT4&#45;&gt;CON4 -->
<g id="edge28" class="edge"><title>OLT4&#45;&gt;CON4</title>
<path fill="none" stroke="black" d="M277.045,-295.233C275.161,-293.359 273.222,-291.429 271.275,-289.493"/>
<polygon fill="black" stroke="black" points="273.395,-286.665 263.837,-282.094 268.458,-291.628 273.395,-286.665"/>
</g>
<!-- OLT4&#45;&gt;BNF4 -->
<g id="edge30" class="edge"><title>OLT4&#45;&gt;BNF4</title>
<path fill="none" stroke="black" d="M322.216,-301.69C322.788,-301.444 323.363,-301.196 323.94,-300.949"/>
<polygon fill="black" stroke="black" points="325.507,-304.085 333.312,-296.92 322.742,-297.654 325.507,-304.085"/>
</g>
<!-- OLT4&#45;&gt;D3T4 -->
<g id="edge32" class="edge"><title>OLT4&#45;&gt;D3T4</title>
<path fill="none" stroke="black" d="M298.986,-294.953C300.892,-285.698 303.246,-274.271 305.373,-263.942"/>
<polygon fill="black" stroke="black" points="308.811,-264.6 307.401,-254.099 301.955,-263.187 308.811,-264.6"/>
</g>
</g>
</svg>
