<?xml version="1.0" encoding="UTF-8" standalone="no"?>
<!DOCTYPE svg PUBLIC "-//W3C//DTD SVG 1.1//EN"
 "http://www.w3.org/Graphics/SVG/1.1/DTD/svg11.dtd">
<!-- Generated by graphviz version 2.26.3 (20100126.1600)
 -->
<!-- Title: FirstlevelCluster Pages: 1 -->
<svg width="433pt" height="258pt"
 viewBox="0.00 0.00 433.00 258.00" xmlns="http://www.w3.org/2000/svg" xmlns:xlink="http://www.w3.org/1999/xlink">
<g id="graph1" class="graph" transform="scale(1 1) rotate(0) translate(4 254)">
<title>FirstlevelCluster</title>
<polygon fill="white" stroke="white" points="-4,5 -4,-254 430,-254 430,5 -4,5"/>
<g id="graph2" class="cluster"><title>cluster_0</title>
<polygon fill="none" stroke="black" points="0.238117,-0.140888 0.238117,-249.141 424.238,-249.141 424.238,-0.140888 0.238117,-0.140888"/>
<text text-anchor="middle" x="212.238" y="-232.541" font-family="Times Roman,serif" font-size="14.00">CON~D3T&gt;</text>
</g>
<g id="graph3" class="cluster"><title>cluster_2</title>
<polygon fill="lightgrey" stroke="black" points="239.476,-8.78178 239.476,-188.782 415.476,-188.782 415.476,-8.78178 239.476,-8.78178"/>
<text text-anchor="middle" x="327.476" y="-172.182" font-family="Times Roman,serif" font-size="14.00">010210</text>
</g>
<g id="graph4" class="cluster"><title>cluster_3</title>
<polygon fill="lightgrey" stroke="black" points="8.97623,-29.2818 8.97623,-214.282 193.976,-214.282 193.976,-29.2818 8.97623,-29.2818"/>
<text text-anchor="middle" x="101.476" y="-197.682" font-family="Times Roman,serif" font-size="14.00">010220</text>
</g>
<!-- CON2 -->
<g id="node3" class="node"><title>CON2</title>
<text text-anchor="middle" x="275.718" y="-78.0604" font-family="Times Roman,serif" font-size="16.00">CON</text>
</g>
<!-- BNF2 -->
<g id="node4" class="node"><title>BNF2</title>
<text text-anchor="middle" x="379.09" y="-84.5261" font-family="Times Roman,serif" font-size="16.00">BNF</text>
</g>
<!-- CON2&#45;&gt;BNF2 -->
<g id="edge4" class="edge"><title>CON2&#45;&gt;BNF2</title>
<path fill="none" stroke="black" d="M302.878,-84.1592C314.655,-84.8958 328.643,-85.7707 341.401,-86.5687"/>
<polygon fill="black" stroke="black" points="341.554,-90.085 351.753,-87.2162 341.991,-83.0987 341.554,-90.085"/>
</g>
<!-- OLT2 -->
<g id="node6" class="node"><title>OLT2</title>
<text text-anchor="middle" x="313.103" y="-131.04" font-family="Times Roman,serif" font-size="16.00">OLT</text>
</g>
<!-- CON2&#45;&gt;OLT2 -->
<g id="edge6" class="edge"><title>CON2&#45;&gt;OLT2</title>
<path fill="none" stroke="black" d="M288.584,-100.693C290.485,-103.387 292.475,-106.207 294.465,-109.026"/>
<polygon fill="black" stroke="black" points="291.715,-111.201 300.34,-117.353 297.434,-107.165 291.715,-111.201"/>
</g>
<!-- D3T2 -->
<g id="node5" class="node"><title>D3T2</title>
<text text-anchor="middle" x="341.705" y="-31.5467" font-family="Times Roman,serif" font-size="16.00">D3T</text>
</g>
<!-- D3T2&#45;&gt;BNF2 -->
<g id="edge8" class="edge"><title>D3T2&#45;&gt;BNF2</title>
<path fill="none" stroke="black" d="M354.571,-54.1792C356.472,-56.8731 358.462,-59.6935 360.451,-62.5128"/>
<polygon fill="black" stroke="black" points="357.702,-64.6869 366.327,-70.8395 363.421,-60.6509 357.702,-64.6869"/>
</g>
<!-- D3T2&#45;&gt;OLT2 -->
<g id="edge10" class="edge"><title>D3T2&#45;&gt;OLT2</title>
<path fill="none" stroke="black" d="M336.459,-54.1953C332.185,-69.0616 326.079,-90.3033 321.182,-107.338"/>
<polygon fill="black" stroke="black" points="317.715,-106.729 318.316,-117.307 324.443,-108.663 317.715,-106.729"/>
</g>
<!-- CON3 -->
<g id="node12" class="node"><title>CON3</title>
<text text-anchor="middle" x="45.3729" y="-97.7422" font-family="Times Roman,serif" font-size="16.00">CON</text>
</g>
<!-- BNF3 -->
<g id="node13" class="node"><title>BNF3</title>
<text text-anchor="middle" x="157.548" y="-116.195" font-family="Times Roman,serif" font-size="16.00">BNF</text>
</g>
<!-- CON3&#45;&gt;BNF3 -->
<g id="edge13" class="edge"><title>CON3&#45;&gt;BNF3</title>
<path fill="none" stroke="black" d="M72.5274,-106.609C86.8887,-108.971 104.735,-111.907 120.364,-114.478"/>
<polygon fill="black" stroke="black" points="119.819,-117.935 130.255,-116.105 120.956,-111.028 119.819,-117.935"/>
</g>
<!-- OLT3 -->
<g id="node15" class="node"><title>OLT3</title>
<text text-anchor="middle" x="91.8233" y="-157.171" font-family="Times Roman,serif" font-size="16.00">OLT</text>
</g>
<!-- CON3&#45;&gt;OLT3 -->
<g id="edge15" class="edge"><title>CON3&#45;&gt;OLT3</title>
<path fill="none" stroke="black" d="M59.562,-120.296C63.3439,-125.134 67.5045,-130.457 71.5442,-135.626"/>
<polygon fill="black" stroke="black" points="68.8053,-137.805 77.7211,-143.528 74.3205,-133.494 68.8053,-137.805"/>
</g>
<!-- D3T3 -->
<g id="node14" class="node"><title>D3T3</title>
<text text-anchor="middle" x="130.792" y="-51.729" font-family="Times Roman,serif" font-size="16.00">D3T</text>
</g>
<!-- D3T3&#45;&gt;BNF3 -->
<g id="edge17" class="edge"><title>D3T3&#45;&gt;BNF3</title>
<path fill="none" stroke="black" d="M138.387,-74.4298C140.78,-80.1949 143.479,-86.6963 146.079,-92.9611"/>
<polygon fill="black" stroke="black" points="142.96,-94.5768 150.026,-102.471 149.425,-91.8933 142.96,-94.5768"/>
</g>
<!-- D3T3&#45;&gt;OLT3 -->
<g id="edge19" class="edge"><title>D3T3&#45;&gt;OLT3</title>
<path fill="none" stroke="black" d="M124.004,-74.4956C117.941,-90.9004 108.973,-115.165 102.043,-133.917"/>
<polygon fill="black" stroke="black" points="98.7169,-132.821 98.5332,-143.415 105.283,-135.248 98.7169,-132.821"/>
</g>
<!-- OLT3&#45;&gt;BNF3 -->
<g id="edge21" class="edge"><title>OLT3&#45;&gt;BNF3</title>
<path fill="none" stroke="black" d="M118.936,-144.668C119.89,-144.072 120.852,-143.473 121.816,-142.871"/>
<polygon fill="black" stroke="black" points="123.864,-145.719 130.498,-137.459 120.161,-139.779 123.864,-145.719"/>
</g>
</g>
</svg>
