<?xml version="1.0" encoding="UTF-8" standalone="no"?>
<!DOCTYPE svg PUBLIC "-//W3C//DTD SVG 1.1//EN"
 "http://www.w3.org/Graphics/SVG/1.1/DTD/svg11.dtd">
<!-- Generated by graphviz version 2.26.3 (20100126.1600)
 -->
<!-- Title: FirstlevelCluster Pages: 1 -->
<svg width="433pt" height="258pt"
 viewBox="0.00 0.00 433.00 258.00" xmlns="http://www.w3.org/2000/svg" xmlns:xlink="http://www.w3.org/1999/xlink">
<g id="graph1" class="graph" transform="scale(1 1) rotate(0) translate(4 254)">
<title>FirstlevelCluster</title>
<polygon fill="white" stroke="white" points="-4,5 -4,-254 430,-254 430,5 -4,5"/>
<g id="graph2" class="cluster"><title>cluster_0</title>
<polygon fill="none" stroke="black" points="0.238117,-0.140888 0.238117,-249.141 424.238,-249.141 424.238,-0.140888 0.238117,-0.140888"/>
<text text-anchor="middle" x="212.238" y="-232.541" font-family="Times Roman,serif" font-size="14.00">&gt;CON~D3T</text>
</g>
<g id="graph3" class="cluster"><title>cluster_2</title>
<polygon fill="lightgrey" stroke="black" points="8.97623,-29.2818 8.97623,-214.282 193.976,-214.282 193.976,-29.2818 8.97623,-29.2818"/>
<text text-anchor="middle" x="101.476" y="-197.682" font-family="Times Roman,serif" font-size="14.00">212002</text>
</g>
<g id="graph4" class="cluster"><title>cluster_3</title>
<polygon fill="lightgrey" stroke="black" points="239.476,-8.78178 239.476,-188.782 415.476,-188.782 415.476,-8.78178 239.476,-8.78178"/>
<text text-anchor="middle" x="327.476" y="-172.182" font-family="Times Roman,serif" font-size="14.00">212012</text>
</g>
<!-- CON2 -->
<g id="node3" class="node"><title>CON2</title>
<text text-anchor="middle" x="45.3729" y="-97.7422" font-family="Times Roman,serif" font-size="16.00">CON</text>
</g>
<!-- BNF2 -->
<g id="node4" class="node"><title>BNF2</title>
<text text-anchor="middle" x="157.548" y="-116.195" font-family="Times Roman,serif" font-size="16.00">BNF</text>
</g>
<!-- BNF2&#45;&gt;CON2 -->
<g id="edge4" class="edge"><title>BNF2&#45;&gt;CON2</title>
<path fill="none" stroke="black" d="M130.394,-116.128C116.032,-113.765 98.1861,-110.83 82.5573,-108.259"/>
<polygon fill="black" stroke="black" points="83.1017,-104.801 72.6662,-106.632 81.9654,-111.709 83.1017,-104.801"/>
</g>
<!-- D3T2 -->
<g id="node5" class="node"><title>D3T2</title>
<text text-anchor="middle" x="130.792" y="-51.729" font-family="Times Roman,serif" font-size="16.00">D3T</text>
</g>
<!-- BNF2&#45;&gt;D3T2 -->
<g id="edge6" class="edge"><title>BNF2&#45;&gt;D3T2</title>
<path fill="none" stroke="black" d="M149.952,-102.294C147.56,-96.5286 144.861,-90.0272 142.261,-83.7624"/>
<polygon fill="black" stroke="black" points="145.38,-82.1468 138.314,-74.2525 138.915,-84.8302 145.38,-82.1468"/>
</g>
<!-- OLT2 -->
<g id="node6" class="node"><title>OLT2</title>
<text text-anchor="middle" x="91.8233" y="-157.171" font-family="Times Roman,serif" font-size="16.00">OLT</text>
</g>
<!-- BNF2&#45;&gt;OLT2 -->
<g id="edge8" class="edge"><title>BNF2&#45;&gt;OLT2</title>
<path fill="none" stroke="black" d="M130.436,-137.498C129.481,-138.093 128.52,-138.692 127.555,-139.294"/>
<polygon fill="black" stroke="black" points="125.507,-136.446 118.873,-144.706 129.211,-142.386 125.507,-136.446"/>
</g>
<!-- OLT2&#45;&gt;CON2 -->
<g id="edge10" class="edge"><title>OLT2&#45;&gt;CON2</title>
<path fill="none" stroke="black" d="M77.6342,-143.417C73.8523,-138.579 69.6917,-133.256 65.652,-128.087"/>
<polygon fill="black" stroke="black" points="68.3909,-125.908 59.4751,-120.184 62.8757,-130.219 68.3909,-125.908"/>
</g>
<!-- OLT2&#45;&gt;D3T2 -->
<g id="edge12" class="edge"><title>OLT2&#45;&gt;D3T2</title>
<path fill="none" stroke="black" d="M98.611,-143.204C104.674,-126.799 113.641,-102.534 120.571,-83.7832"/>
<polygon fill="black" stroke="black" points="123.898,-84.8784 124.082,-74.2851 117.332,-82.4517 123.898,-84.8784"/>
</g>
<!-- CON3 -->
<g id="node13" class="node"><title>CON3</title>
<text text-anchor="middle" x="275.718" y="-78.0604" font-family="Times Roman,serif" font-size="16.00">CON</text>
</g>
<!-- BNF3 -->
<g id="node14" class="node"><title>BNF3</title>
<text text-anchor="middle" x="379.09" y="-84.5261" font-family="Times Roman,serif" font-size="16.00">BNF</text>
</g>
<!-- BNF3&#45;&gt;CON3 -->
<g id="edge15" class="edge"><title>BNF3&#45;&gt;CON3</title>
<path fill="none" stroke="black" d="M351.93,-87.2273C340.153,-86.4907 326.165,-85.6157 313.407,-84.8177"/>
<polygon fill="black" stroke="black" points="313.254,-81.3014 303.055,-84.1703 312.817,-88.2878 313.254,-81.3014"/>
</g>
<!-- D3T3 -->
<g id="node15" class="node"><title>D3T3</title>
<text text-anchor="middle" x="341.705" y="-31.5467" font-family="Times Roman,serif" font-size="16.00">D3T</text>
</g>
<!-- BNF3&#45;&gt;D3T3 -->
<g id="edge17" class="edge"><title>BNF3&#45;&gt;D3T3</title>
<path fill="none" stroke="black" d="M366.224,-70.6936C364.323,-67.9997 362.333,-65.1793 360.344,-62.36"/>
<polygon fill="black" stroke="black" points="363.093,-60.1859 354.468,-54.0333 357.374,-64.2219 363.093,-60.1859"/>
</g>
<!-- OLT3 -->
<g id="node16" class="node"><title>OLT3</title>
<text text-anchor="middle" x="313.103" y="-131.04" font-family="Times Roman,serif" font-size="16.00">OLT</text>
</g>
<!-- OLT3&#45;&gt;CON3 -->
<g id="edge19" class="edge"><title>OLT3&#45;&gt;CON3</title>
<path fill="none" stroke="black" d="M300.237,-117.207C298.336,-114.513 296.346,-111.693 294.357,-108.874"/>
<polygon fill="black" stroke="black" points="297.106,-106.7 288.481,-100.547 291.387,-110.736 297.106,-106.7"/>
</g>
<!-- OLT3&#45;&gt;D3T3 -->
<g id="edge21" class="edge"><title>OLT3&#45;&gt;D3T3</title>
<path fill="none" stroke="black" d="M318.349,-117.191C322.623,-102.325 328.729,-81.0832 333.626,-64.0481"/>
<polygon fill="black" stroke="black" points="337.093,-64.6573 336.492,-54.0796 330.365,-62.7233 337.093,-64.6573"/>
</g>
</g>
</svg>
