<?xml version="1.0" encoding="UTF-8" standalone="no"?>
<!DOCTYPE svg PUBLIC "-//W3C//DTD SVG 1.1//EN"
 "http://www.w3.org/Graphics/SVG/1.1/DTD/svg11.dtd">
<!-- Generated by graphviz version 2.26.3 (20100126.1600)
 -->
<!-- Title: FirstlevelCluster Pages: 1 -->
<svg width="415pt" height="444pt"
 viewBox="0.00 0.00 415.00 444.00" xmlns="http://www.w3.org/2000/svg" xmlns:xlink="http://www.w3.org/1999/xlink">
<g id="graph1" class="graph" transform="scale(1 1) rotate(0) translate(4 440)">
<title>FirstlevelCluster</title>
<polygon fill="white" stroke="white" points="-4,5 -4,-440 412,-440 412,5 -4,5"/>
<g id="graph2" class="cluster"><title>cluster_0</title>
<polygon fill="none" stroke="black" points="0.738117,-0.140888 0.738117,-435.141 405.738,-435.141 405.738,-0.140888 0.738117,-0.140888"/>
<text text-anchor="middle" x="203.238" y="-418.541" font-family="Times Roman,serif" font-size="14.00">CON~OLT&gt;</text>
</g>
<g id="graph3" class="cluster"><title>cluster_2</title>
<polygon fill="lightgrey" stroke="black" points="9.97623,-9.28178 9.97623,-198.282 191.976,-198.282 191.976,-9.28178 9.97623,-9.28178"/>
<text text-anchor="middle" x="100.976" y="-181.682" font-family="Times Roman,serif" font-size="14.00">001122</text>
</g>
<g id="graph4" class="cluster"><title>cluster_3</title>
<polygon fill="lightgrey" stroke="black" points="218.976,-9.28178 218.976,-190.282 396.976,-190.282 396.976,-9.28178 218.976,-9.28178"/>
<text text-anchor="middle" x="307.976" y="-173.682" font-family="Times Roman,serif" font-size="14.00">001222</text>
</g>
<g id="graph5" class="cluster"><title>cluster_4</title>
<polygon fill="lightgrey" stroke="black" points="218.976,-219.282 218.976,-400.282 396.976,-400.282 396.976,-219.282 218.976,-219.282"/>
<text text-anchor="middle" x="307.976" y="-383.682" font-family="Times Roman,serif" font-size="14.00">001022</text>
</g>
<!-- CON2 -->
<g id="node3" class="node"><title>CON2</title>
<text text-anchor="middle" x="45.7612" y="-77.1683" font-family="Times Roman,serif" font-size="16.00">CON</text>
</g>
<!-- BNF2 -->
<g id="node4" class="node"><title>BNF2</title>
<text text-anchor="middle" x="155.636" y="-96.0396" font-family="Times Roman,serif" font-size="16.00">BNF</text>
</g>
<!-- CON2&#45;&gt;BNF2 -->
<g id="edge4" class="edge"><title>CON2&#45;&gt;BNF2</title>
<path fill="none" stroke="black" d="M72.9213,-86.2331C86.6558,-88.592 103.534,-91.4908 118.454,-94.0534"/>
<polygon fill="black" stroke="black" points="117.959,-97.5197 128.408,-95.763 119.144,-90.6207 117.959,-97.5197"/>
</g>
<!-- D3T2 -->
<g id="node5" class="node"><title>D3T2</title>
<text text-anchor="middle" x="111.482" y="-31.9405" font-family="Times Roman,serif" font-size="16.00">D3T</text>
</g>
<!-- CON2&#45;&gt;D3T2 -->
<g id="edge6" class="edge"><title>CON2&#45;&gt;D3T2</title>
<path fill="none" stroke="black" d="M72.1135,-63.433C73.5866,-62.4193 75.0778,-61.393 76.5748,-60.3628"/>
<polygon fill="black" stroke="black" points="78.8697,-63.0322 85.1233,-54.4798 74.9013,-57.2658 78.8697,-63.0322"/>
</g>
<!-- OLT2 -->
<g id="node6" class="node"><title>OLT2</title>
<text text-anchor="middle" x="89.9158" y="-141.267" font-family="Times Roman,serif" font-size="16.00">OLT</text>
</g>
<!-- OLT2&#45;&gt;BNF2 -->
<g id="edge8" class="edge"><title>OLT2&#45;&gt;BNF2</title>
<path fill="none" stroke="black" d="M116.268,-127.532C117.741,-126.518 119.232,-125.492 120.729,-124.462"/>
<polygon fill="black" stroke="black" points="123.024,-127.131 129.278,-118.579 119.056,-121.365 123.024,-127.131"/>
</g>
<!-- OLT2&#45;&gt;D3T2 -->
<g id="edge10" class="edge"><title>OLT2&#45;&gt;D3T2</title>
<path fill="none" stroke="black" d="M93.4769,-127.614C96.864,-110.444 102.01,-84.3539 105.935,-64.4591"/>
<polygon fill="black" stroke="black" points="109.414,-64.9088 107.915,-54.4204 102.546,-63.554 109.414,-64.9088"/>
</g>
<!-- CON3 -->
<g id="node12" class="node"><title>CON3</title>
<text text-anchor="middle" x="254.609" y="-64.4503" font-family="Times Roman,serif" font-size="16.00">CON</text>
</g>
<!-- BNF3 -->
<g id="node13" class="node"><title>BNF3</title>
<text text-anchor="middle" x="360.729" y="-84.4319" font-family="Times Roman,serif" font-size="16.00">BNF</text>
</g>
<!-- CON3&#45;&gt;BNF3 -->
<g id="edge13" class="edge"><title>CON3&#45;&gt;BNF3</title>
<path fill="none" stroke="black" d="M281.662,-73.9442C294.385,-76.3398 309.758,-79.2345 323.553,-81.832"/>
<polygon fill="black" stroke="black" points="323.25,-85.3363 333.725,-83.7473 324.545,-78.4572 323.25,-85.3363"/>
</g>
<!-- D3T3 -->
<g id="node14" class="node"><title>D3T3</title>
<text text-anchor="middle" x="322.333" y="-31.9669" font-family="Times Roman,serif" font-size="16.00">D3T</text>
</g>
<!-- CON3&#45;&gt;D3T3 -->
<g id="edge15" class="edge"><title>CON3&#45;&gt;D3T3</title>
<path fill="none" stroke="black" d="M281.765,-55.8252C283.145,-55.1633 284.54,-54.494 285.942,-53.8219"/>
<polygon fill="black" stroke="black" points="287.669,-56.8754 295.171,-49.3949 284.641,-50.5639 287.669,-56.8754"/>
</g>
<!-- D3T3&#45;&gt;BNF3 -->
<g id="edge17" class="edge"><title>D3T3&#45;&gt;BNF3</title>
<path fill="none" stroke="black" d="M335.547,-54.4224C337.456,-57.0308 339.452,-59.7591 341.45,-62.4889"/>
<polygon fill="black" stroke="black" points="338.63,-64.5622 347.36,-70.565 344.279,-60.4282 338.63,-64.5622"/>
</g>
<!-- OLT3 -->
<g id="node15" class="node"><title>OLT3</title>
<text text-anchor="middle" x="307.53" y="-132.93" font-family="Times Roman,serif" font-size="16.00">OLT</text>
</g>
<!-- OLT3&#45;&gt;BNF3 -->
<g id="edge19" class="edge"><title>OLT3&#45;&gt;BNF3</title>
<path fill="none" stroke="black" d="M327.339,-119.271C329.252,-117.527 331.215,-115.738 333.185,-113.942"/>
<polygon fill="black" stroke="black" points="335.693,-116.391 340.726,-107.068 330.978,-111.218 335.693,-116.391"/>
</g>
<!-- OLT3&#45;&gt;D3T3 -->
<g id="edge21" class="edge"><title>OLT3&#45;&gt;D3T3</title>
<path fill="none" stroke="black" d="M310.177,-119.28C312.394,-104.155 315.599,-82.2948 318.162,-64.8175"/>
<polygon fill="black" stroke="black" points="321.672,-65.0032 319.66,-54.6012 314.746,-63.9876 321.672,-65.0032"/>
</g>
<!-- CON4 -->
<g id="node22" class="node"><title>CON4</title>
<text text-anchor="middle" x="254.609" y="-274.45" font-family="Times Roman,serif" font-size="16.00">CON</text>
</g>
<!-- BNF4 -->
<g id="node23" class="node"><title>BNF4</title>
<text text-anchor="middle" x="360.729" y="-294.432" font-family="Times Roman,serif" font-size="16.00">BNF</text>
</g>
<!-- CON4&#45;&gt;BNF4 -->
<g id="edge24" class="edge"><title>CON4&#45;&gt;BNF4</title>
<path fill="none" stroke="black" d="M281.662,-283.944C294.385,-286.34 309.758,-289.234 323.553,-291.832"/>
<polygon fill="black" stroke="black" points="323.25,-295.336 333.725,-293.747 324.545,-288.457 323.25,-295.336"/>
</g>
<!-- D3T4 -->
<g id="node24" class="node"><title>D3T4</title>
<text text-anchor="middle" x="322.333" y="-241.967" font-family="Times Roman,serif" font-size="16.00">D3T</text>
</g>
<!-- CON4&#45;&gt;D3T4 -->
<g id="edge26" class="edge"><title>CON4&#45;&gt;D3T4</title>
<path fill="none" stroke="black" d="M281.765,-265.825C283.145,-265.163 284.54,-264.494 285.942,-263.822"/>
<polygon fill="black" stroke="black" points="287.669,-266.875 295.171,-259.395 284.641,-260.564 287.669,-266.875"/>
</g>
<!-- BNF4&#45;&gt;D3T4 -->
<g id="edge28" class="edge"><title>BNF4&#45;&gt;D3T4</title>
<path fill="none" stroke="black" d="M347.515,-280.776C345.606,-278.168 343.61,-275.44 341.612,-272.71"/>
<polygon fill="black" stroke="black" points="344.432,-270.637 335.701,-264.634 338.783,-274.771 344.432,-270.637"/>
</g>
<!-- OLT4 -->
<g id="node25" class="node"><title>OLT4</title>
<text text-anchor="middle" x="307.53" y="-342.93" font-family="Times Roman,serif" font-size="16.00">OLT</text>
</g>
<!-- OLT4&#45;&gt;BNF4 -->
<g id="edge30" class="edge"><title>OLT4&#45;&gt;BNF4</title>
<path fill="none" stroke="black" d="M327.339,-329.271C329.252,-327.527 331.215,-325.738 333.185,-323.942"/>
<polygon fill="black" stroke="black" points="335.693,-326.391 340.726,-317.068 330.978,-321.218 335.693,-326.391"/>
</g>
<!-- OLT4&#45;&gt;D3T4 -->
<g id="edge32" class="edge"><title>OLT4&#45;&gt;D3T4</title>
<path fill="none" stroke="black" d="M310.177,-329.28C312.394,-314.155 315.599,-292.295 318.162,-274.817"/>
<polygon fill="black" stroke="black" points="321.672,-275.003 319.66,-264.601 314.746,-273.988 321.672,-275.003"/>
</g>
</g>
</svg>
