<?xml version="1.0" encoding="UTF-8" standalone="no"?>
<!DOCTYPE svg PUBLIC "-//W3C//DTD SVG 1.1//EN"
 "http://www.w3.org/Graphics/SVG/1.1/DTD/svg11.dtd">
<!-- Generated by graphviz version 2.26.3 (20100126.1600)
 -->
<!-- Title: FirstlevelCluster Pages: 1 -->
<svg width="203pt" height="248pt"
 viewBox="0.00 0.00 203.00 248.00" xmlns="http://www.w3.org/2000/svg" xmlns:xlink="http://www.w3.org/1999/xlink">
<g id="graph1" class="graph" transform="scale(1 1) rotate(0) translate(4 244)">
<title>FirstlevelCluster</title>
<polygon fill="white" stroke="white" points="-4,5 -4,-244 200,-244 200,5 -4,5"/>
<g id="graph2" class="cluster"><title>cluster_0</title>
<polygon fill="none" stroke="black" points="0.238117,-0.640888 0.238117,-238.641 194.238,-238.641 194.238,-0.640888 0.238117,-0.640888"/>
<text text-anchor="middle" x="97.2381" y="-222.041" font-family="Times Roman,serif" font-size="14.00">&gt;CON~BNF~OLT</text>
</g>
<g id="graph3" class="cluster"><title>cluster_2</title>
<polygon fill="lightgrey" stroke="black" points="8.97623,-8.78178 8.97623,-203.782 185.976,-203.782 185.976,-8.78178 8.97623,-8.78178"/>
<text text-anchor="middle" x="97.4762" y="-187.182" font-family="Times Roman,serif" font-size="14.00">121210</text>
</g>
<!-- CON2 -->
<g id="node3" class="node"><title>CON2</title>
<text text-anchor="middle" x="45.14" y="-31.5764" font-family="Times Roman,serif" font-size="16.00">CON</text>
</g>
<!-- BNF2 -->
<g id="node4" class="node"><title>BNF2</title>
<text text-anchor="middle" x="150.449" y="-43.8644" font-family="Times Roman,serif" font-size="16.00">BNF</text>
</g>
<!-- D3T2 -->
<g id="node5" class="node"><title>D3T2</title>
<text text-anchor="middle" x="91.3806" y="-93.1617" font-family="Times Roman,serif" font-size="16.00">D3T</text>
</g>
<!-- D3T2&#45;&gt;CON2 -->
<g id="edge4" class="edge"><title>D3T2&#45;&gt;CON2</title>
<path fill="none" stroke="black" d="M77.757,-79.4172C73.7476,-74.0773 69.2771,-68.1233 64.9629,-62.3775"/>
<polygon fill="black" stroke="black" points="67.6292,-60.0993 58.826,-54.2041 62.0315,-64.3024 67.6292,-60.0993"/>
</g>
<!-- D3T2&#45;&gt;BNF2 -->
<g id="edge6" class="edge"><title>D3T2&#45;&gt;BNF2</title>
<path fill="none" stroke="black" d="M113.04,-79.4852C115.608,-77.3418 118.262,-75.1269 120.916,-72.912"/>
<polygon fill="black" stroke="black" points="123.357,-75.4335 128.792,-66.3388 118.872,-70.0592 123.357,-75.4335"/>
</g>
<!-- OLT2 -->
<g id="node6" class="node"><title>OLT2</title>
<text text-anchor="middle" x="84.2056" y="-146.419" font-family="Times Roman,serif" font-size="16.00">OLT</text>
</g>
<!-- D3T2&#45;&gt;OLT2 -->
<g id="edge8" class="edge"><title>D3T2&#45;&gt;OLT2</title>
<path fill="none" stroke="black" d="M88.9515,-115.592C88.6359,-117.935 88.3069,-120.377 87.9759,-122.834"/>
<polygon fill="black" stroke="black" points="84.4988,-122.429 86.6322,-132.807 91.4361,-123.364 84.4988,-122.429"/>
</g>
</g>
</svg>
