<?xml version="1.0" encoding="UTF-8" standalone="no"?>
<!DOCTYPE svg PUBLIC "-//W3C//DTD SVG 1.1//EN"
 "http://www.w3.org/Graphics/SVG/1.1/DTD/svg11.dtd">
<!-- Generated by graphviz version 2.26.3 (20100126.1600)
 -->
<!-- Title: FirstlevelCluster Pages: 1 -->
<svg width="414pt" height="410pt"
 viewBox="0.00 0.00 414.00 410.00" xmlns="http://www.w3.org/2000/svg" xmlns:xlink="http://www.w3.org/1999/xlink">
<g id="graph1" class="graph" transform="scale(1 1) rotate(0) translate(4 406)">
<title>FirstlevelCluster</title>
<polygon fill="white" stroke="white" points="-4,5 -4,-406 411,-406 411,5 -4,5"/>
<g id="graph2" class="cluster"><title>cluster_0</title>
<polygon fill="none" stroke="black" points="1.23812,-0.140888 1.23812,-401.141 405.238,-401.141 405.238,-0.140888 1.23812,-0.140888"/>
<text text-anchor="middle" x="203.238" y="-384.541" font-family="Times Roman,serif" font-size="14.00">CON~BNF&gt;</text>
</g>
<g id="graph3" class="cluster"><title>cluster_2</title>
<polygon fill="lightgrey" stroke="black" points="10.4762,-29.2818 10.4762,-208.282 176.476,-208.282 176.476,-29.2818 10.4762,-29.2818"/>
<text text-anchor="middle" x="93.4762" y="-191.682" font-family="Times Roman,serif" font-size="14.00">100001</text>
</g>
<g id="graph4" class="cluster"><title>cluster_3</title>
<polygon fill="lightgrey" stroke="black" points="209.976,-9.28178 209.976,-166.282 396.976,-166.282 396.976,-9.28178 209.976,-9.28178"/>
<text text-anchor="middle" x="303.476" y="-149.682" font-family="Times Roman,serif" font-size="14.00">100002</text>
</g>
<g id="graph5" class="cluster"><title>cluster_4</title>
<polygon fill="lightgrey" stroke="black" points="209.976,-209.282 209.976,-366.282 396.976,-366.282 396.976,-209.282 209.976,-209.282"/>
<text text-anchor="middle" x="303.476" y="-349.682" font-family="Times Roman,serif" font-size="14.00">100000</text>
</g>
<!-- CON2 -->
<g id="node3" class="node"><title>CON2</title>
<text text-anchor="middle" x="46.1067" y="-96.1656" font-family="Times Roman,serif" font-size="16.00">CON</text>
</g>
<!-- D3T2 -->
<g id="node5" class="node"><title>D3T2</title>
<text text-anchor="middle" x="106.952" y="-51.7848" font-family="Times Roman,serif" font-size="16.00">D3T</text>
</g>
<!-- CON2&#45;&gt;D3T2 -->
<g id="edge4" class="edge"><title>CON2&#45;&gt;D3T2</title>
<path fill="none" stroke="black" d="M70.8547,-82.5143C71.7759,-81.8423 72.7043,-81.1651 73.6364,-80.4852"/>
<polygon fill="black" stroke="black" points="76.0115,-83.085 82.0281,-74.3643 71.8864,-77.4296 76.0115,-83.085"/>
</g>
<!-- OLT2 -->
<g id="node6" class="node"><title>OLT2</title>
<text text-anchor="middle" x="79.41" y="-150.923" font-family="Times Roman,serif" font-size="16.00">OLT</text>
</g>
<!-- CON2&#45;&gt;OLT2 -->
<g id="edge6" class="edge"><title>CON2&#45;&gt;OLT2</title>
<path fill="none" stroke="black" d="M57.1962,-118.799C59.0304,-121.815 60.9664,-124.998 62.8998,-128.177"/>
<polygon fill="black" stroke="black" points="60.0686,-130.257 68.2554,-136.982 66.0493,-126.62 60.0686,-130.257"/>
</g>
<!-- BNF2 -->
<g id="node4" class="node"><title>BNF2</title>
<text text-anchor="middle" x="140.255" y="-106.542" font-family="Times Roman,serif" font-size="16.00">BNF</text>
</g>
<!-- BNF2&#45;&gt;D3T2 -->
<g id="edge8" class="edge"><title>BNF2&#45;&gt;D3T2</title>
<path fill="none" stroke="black" d="M129.166,-92.7088C127.331,-89.693 125.395,-86.5099 123.462,-83.3309"/>
<polygon fill="black" stroke="black" points="126.293,-81.2505 118.106,-74.5253 120.312,-84.888 126.293,-81.2505"/>
</g>
<!-- BNF2&#45;&gt;OLT2 -->
<g id="edge10" class="edge"><title>BNF2&#45;&gt;OLT2</title>
<path fill="none" stroke="black" d="M115.507,-128.994C114.586,-129.666 113.657,-130.343 112.725,-131.023"/>
<polygon fill="black" stroke="black" points="110.35,-128.423 104.334,-137.144 114.475,-134.078 110.35,-128.423"/>
</g>
<!-- CON3 -->
<g id="node12" class="node"><title>CON3</title>
<text text-anchor="middle" x="245.678" y="-59.6294" font-family="Times Roman,serif" font-size="16.00">CON</text>
</g>
<!-- D3T3 -->
<g id="node14" class="node"><title>D3T3</title>
<text text-anchor="middle" x="311.153" y="-31.4845" font-family="Times Roman,serif" font-size="16.00">D3T</text>
</g>
<!-- CON3&#45;&gt;D3T3 -->
<g id="edge13" class="edge"><title>CON3&#45;&gt;D3T3</title>
<path fill="none" stroke="black" d="M272.687,-52.4193C273.259,-52.1732 273.834,-51.9262 274.411,-51.6783"/>
<polygon fill="black" stroke="black" points="275.978,-54.8145 283.783,-47.6498 273.213,-48.3835 275.978,-54.8145"/>
</g>
<!-- OLT3 -->
<g id="node15" class="node"><title>OLT3</title>
<text text-anchor="middle" x="295.207" y="-108.9" font-family="Times Roman,serif" font-size="16.00">OLT</text>
</g>
<!-- CON3&#45;&gt;OLT3 -->
<g id="edge15" class="edge"><title>CON3&#45;&gt;OLT3</title>
<path fill="none" stroke="black" d="M263.839,-82.0961C265.724,-83.9705 267.663,-85.8997 269.609,-87.8357"/>
<polygon fill="black" stroke="black" points="267.489,-90.664 277.047,-95.2352 272.426,-85.7013 267.489,-90.664"/>
</g>
<!-- BNF3 -->
<g id="node13" class="node"><title>BNF3</title>
<text text-anchor="middle" x="360.682" y="-80.7548" font-family="Times Roman,serif" font-size="16.00">BNF</text>
</g>
<!-- BNF3&#45;&gt;D3T3 -->
<g id="edge17" class="edge"><title>BNF3&#45;&gt;D3T3</title>
<path fill="none" stroke="black" d="M342.52,-67.0881C340.636,-65.2137 338.697,-63.2845 336.75,-61.3485"/>
<polygon fill="black" stroke="black" points="338.87,-58.5202 329.312,-53.949 333.933,-63.4829 338.87,-58.5202"/>
</g>
<!-- BNF3&#45;&gt;OLT3 -->
<g id="edge19" class="edge"><title>BNF3&#45;&gt;OLT3</title>
<path fill="none" stroke="black" d="M333.673,-96.7649C333.1,-97.011 332.525,-97.2581 331.949,-97.5059"/>
<polygon fill="black" stroke="black" points="330.382,-94.3697 322.577,-101.534 333.146,-100.801 330.382,-94.3697"/>
</g>
<!-- OLT3&#45;&gt;D3T3 -->
<g id="edge21" class="edge"><title>OLT3&#45;&gt;D3T3</title>
<path fill="none" stroke="black" d="M298.986,-94.9534C300.892,-85.6979 303.246,-74.2712 305.373,-63.9418"/>
<polygon fill="black" stroke="black" points="308.811,-64.5997 307.401,-54.0991 301.955,-63.1874 308.811,-64.5997"/>
</g>
<!-- CON4 -->
<g id="node22" class="node"><title>CON4</title>
<text text-anchor="middle" x="245.678" y="-259.629" font-family="Times Roman,serif" font-size="16.00">CON</text>
</g>
<!-- D3T4 -->
<g id="node24" class="node"><title>D3T4</title>
<text text-anchor="middle" x="311.153" y="-231.485" font-family="Times Roman,serif" font-size="16.00">D3T</text>
</g>
<!-- CON4&#45;&gt;D3T4 -->
<g id="edge24" class="edge"><title>CON4&#45;&gt;D3T4</title>
<path fill="none" stroke="black" d="M272.687,-252.419C273.259,-252.173 273.834,-251.926 274.411,-251.678"/>
<polygon fill="black" stroke="black" points="275.978,-254.815 283.783,-247.65 273.213,-248.383 275.978,-254.815"/>
</g>
<!-- OLT4 -->
<g id="node25" class="node"><title>OLT4</title>
<text text-anchor="middle" x="295.207" y="-308.9" font-family="Times Roman,serif" font-size="16.00">OLT</text>
</g>
<!-- CON4&#45;&gt;OLT4 -->
<g id="edge26" class="edge"><title>CON4&#45;&gt;OLT4</title>
<path fill="none" stroke="black" d="M263.839,-282.096C265.724,-283.97 267.663,-285.9 269.609,-287.836"/>
<polygon fill="black" stroke="black" points="267.489,-290.664 277.047,-295.235 272.426,-285.701 267.489,-290.664"/>
</g>
<!-- BNF4 -->
<g id="node23" class="node"><title>BNF4</title>
<text text-anchor="middle" x="360.682" y="-280.755" font-family="Times Roman,serif" font-size="16.00">BNF</text>
</g>
<!-- BNF4&#45;&gt;D3T4 -->
<g id="edge28" class="edge"><title>BNF4&#45;&gt;D3T4</title>
<path fill="none" stroke="black" d="M342.52,-267.088C340.636,-265.214 338.697,-263.285 336.75,-261.349"/>
<polygon fill="black" stroke="black" points="338.87,-258.52 329.312,-253.949 333.933,-263.483 338.87,-258.52"/>
</g>
<!-- BNF4&#45;&gt;OLT4 -->
<g id="edge30" class="edge"><title>BNF4&#45;&gt;OLT4</title>
<path fill="none" stroke="black" d="M333.673,-296.765C333.1,-297.011 332.525,-297.258 331.949,-297.506"/>
<polygon fill="black" stroke="black" points="330.382,-294.37 322.577,-301.534 333.146,-300.801 330.382,-294.37"/>
</g>
<!-- D3T4&#45;&gt;OLT4 -->
<g id="edge32" class="edge"><title>D3T4&#45;&gt;OLT4</title>
<path fill="none" stroke="black" d="M307.374,-254.231C305.467,-263.486 303.114,-274.913 300.986,-285.242"/>
<polygon fill="black" stroke="black" points="297.548,-284.585 298.959,-295.085 304.404,-285.997 297.548,-284.585"/>
</g>
</g>
</svg>
