<?xml version="1.0" encoding="UTF-8" standalone="no"?>
<!DOCTYPE svg PUBLIC "-//W3C//DTD SVG 1.1//EN"
 "http://www.w3.org/Graphics/SVG/1.1/DTD/svg11.dtd">
<!-- Generated by graphviz version 2.26.3 (20100126.1600)
 -->
<!-- Title: FirstlevelCluster Pages: 1 -->
<svg width="221pt" height="230pt"
 viewBox="0.00 0.00 221.00 230.00" xmlns="http://www.w3.org/2000/svg" xmlns:xlink="http://www.w3.org/1999/xlink">
<g id="graph1" class="graph" transform="scale(1 1) rotate(0) translate(4 226)">
<title>FirstlevelCluster</title>
<polygon fill="white" stroke="white" points="-4,5 -4,-226 218,-226 218,5 -4,5"/>
<g id="graph2" class="cluster"><title>cluster_0</title>
<polygon fill="none" stroke="black" points="0.738117,-0.640888 0.738117,-220.641 211.738,-220.641 211.738,-0.640888 0.738117,-0.640888"/>
<text text-anchor="middle" x="106.238" y="-204.041" font-family="Times Roman,serif" font-size="14.00">&gt;CON~D3T~OLT</text>
</g>
<g id="graph3" class="cluster"><title>cluster_2</title>
<polygon fill="lightgrey" stroke="black" points="8.97623,-8.78178 8.97623,-185.782 202.976,-185.782 202.976,-8.78178 8.97623,-8.78178"/>
<text text-anchor="middle" x="105.976" y="-169.182" font-family="Times Roman,serif" font-size="14.00">211001</text>
</g>
<!-- CON2 -->
<g id="node3" class="node"><title>CON2</title>
<text text-anchor="middle" x="44.7138" y="-62.1057" font-family="Times Roman,serif" font-size="16.00">CON</text>
</g>
<!-- BNF2 -->
<g id="node4" class="node"><title>BNF2</title>
<text text-anchor="middle" x="110.02" y="-79.6493" font-family="Times Roman,serif" font-size="16.00">BNF</text>
</g>
<!-- BNF2&#45;&gt;CON2 -->
<g id="edge4" class="edge"><title>BNF2&#45;&gt;CON2</title>
<path fill="none" stroke="black" d="M82.7026,-76.7109C82.4842,-76.6522 82.2654,-76.5934 82.0463,-76.5346"/>
<polygon fill="black" stroke="black" points="82.6972,-73.0854 72.1315,-73.8711 80.881,-79.8457 82.6972,-73.0854"/>
</g>
<!-- D3T2 -->
<g id="node5" class="node"><title>D3T2</title>
<text text-anchor="middle" x="166.725" y="-31.4481" font-family="Times Roman,serif" font-size="16.00">D3T</text>
</g>
<!-- BNF2&#45;&gt;D3T2 -->
<g id="edge6" class="edge"><title>BNF2&#45;&gt;D3T2</title>
<path fill="none" stroke="black" d="M131.458,-65.8265C133.433,-64.1469 135.457,-62.4268 137.487,-60.7015"/>
<polygon fill="black" stroke="black" points="139.904,-63.2401 145.257,-54.0966 135.371,-57.9066 139.904,-63.2401"/>
</g>
<!-- OLT2 -->
<g id="node6" class="node"><title>OLT2</title>
<text text-anchor="middle" x="136.971" y="-128.574" font-family="Times Roman,serif" font-size="16.00">OLT</text>
</g>
<!-- BNF2&#45;&gt;OLT2 -->
<g id="edge8" class="edge"><title>BNF2&#45;&gt;OLT2</title>
<path fill="none" stroke="black" d="M120.056,-102.267C120.695,-103.428 121.346,-104.61 122.002,-105.8"/>
<polygon fill="black" stroke="black" points="119.126,-107.834 127.017,-114.904 125.257,-104.456 119.126,-107.834"/>
</g>
</g>
</svg>
