<?xml version="1.0" encoding="UTF-8" standalone="no"?>
<!DOCTYPE svg PUBLIC "-//W3C//DTD SVG 1.1//EN"
 "http://www.w3.org/Graphics/SVG/1.1/DTD/svg11.dtd">
<!-- Generated by graphviz version 2.26.3 (20100126.1600)
 -->
<!-- Title: FirstlevelCluster Pages: 1 -->
<svg width="203pt" height="248pt"
 viewBox="0.00 0.00 203.00 248.00" xmlns="http://www.w3.org/2000/svg" xmlns:xlink="http://www.w3.org/1999/xlink">
<g id="graph1" class="graph" transform="scale(1 1) rotate(0) translate(4 244)">
<title>FirstlevelCluster</title>
<polygon fill="white" stroke="white" points="-4,5 -4,-244 200,-244 200,5 -4,5"/>
<g id="graph2" class="cluster"><title>cluster_0</title>
<polygon fill="none" stroke="black" points="0.238117,-0.640888 0.238117,-238.641 194.238,-238.641 194.238,-0.640888 0.238117,-0.640888"/>
<text text-anchor="middle" x="97.2381" y="-222.041" font-family="Times Roman,serif" font-size="14.00">CON~BNF~OLT&gt;</text>
</g>
<g id="graph3" class="cluster"><title>cluster_2</title>
<polygon fill="lightgrey" stroke="black" points="8.97623,-8.78178 8.97623,-203.782 185.976,-203.782 185.976,-8.78178 8.97623,-8.78178"/>
<text text-anchor="middle" x="97.4762" y="-187.182" font-family="Times Roman,serif" font-size="14.00">101012</text>
</g>
<!-- CON2 -->
<g id="node3" class="node"><title>CON2</title>
<text text-anchor="middle" x="45.14" y="-31.5764" font-family="Times Roman,serif" font-size="16.00">CON</text>
</g>
<!-- D3T2 -->
<g id="node5" class="node"><title>D3T2</title>
<text text-anchor="middle" x="91.3806" y="-93.1617" font-family="Times Roman,serif" font-size="16.00">D3T</text>
</g>
<!-- CON2&#45;&gt;D3T2 -->
<g id="edge4" class="edge"><title>CON2&#45;&gt;D3T2</title>
<path fill="none" stroke="black" d="M58.7636,-54.1209C62.773,-59.4608 67.2435,-65.4148 71.5576,-71.1606"/>
<polygon fill="black" stroke="black" points="68.8914,-73.4388 77.6946,-79.3341 74.4891,-69.2357 68.8914,-73.4388"/>
</g>
<!-- BNF2 -->
<g id="node4" class="node"><title>BNF2</title>
<text text-anchor="middle" x="150.449" y="-43.8644" font-family="Times Roman,serif" font-size="16.00">BNF</text>
</g>
<!-- BNF2&#45;&gt;D3T2 -->
<g id="edge6" class="edge"><title>BNF2&#45;&gt;D3T2</title>
<path fill="none" stroke="black" d="M128.789,-66.341C126.221,-68.4844 123.567,-70.6993 120.913,-72.9142"/>
<polygon fill="black" stroke="black" points="118.472,-70.3927 113.037,-79.4873 122.958,-75.7669 118.472,-70.3927"/>
</g>
<!-- OLT2 -->
<g id="node6" class="node"><title>OLT2</title>
<text text-anchor="middle" x="84.2056" y="-146.419" font-family="Times Roman,serif" font-size="16.00">OLT</text>
</g>
<!-- OLT2&#45;&gt;D3T2 -->
<g id="edge8" class="edge"><title>OLT2&#45;&gt;D3T2</title>
<path fill="none" stroke="black" d="M86.6347,-132.789C86.9503,-130.446 87.2793,-128.004 87.6104,-125.547"/>
<polygon fill="black" stroke="black" points="91.0874,-125.951 88.954,-115.574 84.1501,-125.017 91.0874,-125.951"/>
</g>
</g>
</svg>
