<?xml version="1.0" encoding="UTF-8" standalone="no"?>
<!DOCTYPE svg PUBLIC "-//W3C//DTD SVG 1.1//EN"
 "http://www.w3.org/Graphics/SVG/1.1/DTD/svg11.dtd">
<!-- Generated by graphviz version 2.26.3 (20100126.1600)
 -->
<!-- Title: FirstlevelCluster Pages: 1 -->
<svg width="415pt" height="242pt"
 viewBox="0.00 0.00 415.00 242.00" xmlns="http://www.w3.org/2000/svg" xmlns:xlink="http://www.w3.org/1999/xlink">
<g id="graph1" class="graph" transform="scale(1 1) rotate(0) translate(4 238)">
<title>FirstlevelCluster</title>
<polygon fill="white" stroke="white" points="-4,5 -4,-238 412,-238 412,5 -4,5"/>
<g id="graph2" class="cluster"><title>cluster_0</title>
<polygon fill="none" stroke="black" points="0.738117,-0.140888 0.738117,-233.141 405.738,-233.141 405.738,-0.140888 0.738117,-0.140888"/>
<text text-anchor="middle" x="203.238" y="-216.541" font-family="Times Roman,serif" font-size="14.00">&gt;CON~OLT</text>
</g>
<g id="graph3" class="cluster"><title>cluster_2</title>
<polygon fill="lightgrey" stroke="black" points="9.97623,-9.28178 9.97623,-198.282 191.976,-198.282 191.976,-9.28178 9.97623,-9.28178"/>
<text text-anchor="middle" x="100.976" y="-181.682" font-family="Times Roman,serif" font-size="14.00">221100</text>
</g>
<g id="graph4" class="cluster"><title>cluster_3</title>
<polygon fill="lightgrey" stroke="black" points="218.976,-9.28178 218.976,-190.282 396.976,-190.282 396.976,-9.28178 218.976,-9.28178"/>
<text text-anchor="middle" x="307.976" y="-173.682" font-family="Times Roman,serif" font-size="14.00">221000</text>
</g>
<!-- CON2 -->
<g id="node3" class="node"><title>CON2</title>
<text text-anchor="middle" x="45.7612" y="-77.1683" font-family="Times Roman,serif" font-size="16.00">CON</text>
</g>
<!-- BNF2 -->
<g id="node4" class="node"><title>BNF2</title>
<text text-anchor="middle" x="155.636" y="-96.0396" font-family="Times Roman,serif" font-size="16.00">BNF</text>
</g>
<!-- BNF2&#45;&gt;CON2 -->
<g id="edge4" class="edge"><title>BNF2&#45;&gt;CON2</title>
<path fill="none" stroke="black" d="M128.476,-95.7747C114.741,-93.4158 97.8637,-90.517 82.9435,-87.9544"/>
<polygon fill="black" stroke="black" points="83.4378,-84.4881 72.9897,-86.2448 82.2529,-91.3871 83.4378,-84.4881"/>
</g>
<!-- OLT2 -->
<g id="node6" class="node"><title>OLT2</title>
<text text-anchor="middle" x="89.9158" y="-141.267" font-family="Times Roman,serif" font-size="16.00">OLT</text>
</g>
<!-- BNF2&#45;&gt;OLT2 -->
<g id="edge6" class="edge"><title>BNF2&#45;&gt;OLT2</title>
<path fill="none" stroke="black" d="M129.284,-118.575C127.811,-119.589 126.319,-120.615 124.823,-121.645"/>
<polygon fill="black" stroke="black" points="122.528,-118.976 116.274,-127.528 126.496,-124.742 122.528,-118.976"/>
</g>
<!-- D3T2 -->
<g id="node5" class="node"><title>D3T2</title>
<text text-anchor="middle" x="111.482" y="-31.9405" font-family="Times Roman,serif" font-size="16.00">D3T</text>
</g>
<!-- D3T2&#45;&gt;CON2 -->
<g id="edge8" class="edge"><title>D3T2&#45;&gt;CON2</title>
<path fill="none" stroke="black" d="M85.1292,-54.4758C83.6562,-55.4895 82.1649,-56.5158 80.668,-57.5459"/>
<polygon fill="black" stroke="black" points="78.373,-54.8765 72.1194,-63.4289 82.3414,-60.643 78.373,-54.8765"/>
</g>
<!-- D3T2&#45;&gt;OLT2 -->
<g id="edge10" class="edge"><title>D3T2&#45;&gt;OLT2</title>
<path fill="none" stroke="black" d="M107.92,-54.3936C104.533,-71.5642 99.3869,-97.6539 95.4624,-117.549"/>
<polygon fill="black" stroke="black" points="91.9838,-117.099 93.4822,-127.587 98.8514,-118.454 91.9838,-117.099"/>
</g>
<!-- CON3 -->
<g id="node12" class="node"><title>CON3</title>
<text text-anchor="middle" x="254.609" y="-64.4503" font-family="Times Roman,serif" font-size="16.00">CON</text>
</g>
<!-- BNF3 -->
<g id="node13" class="node"><title>BNF3</title>
<text text-anchor="middle" x="360.729" y="-84.4319" font-family="Times Roman,serif" font-size="16.00">BNF</text>
</g>
<!-- BNF3&#45;&gt;CON3 -->
<g id="edge13" class="edge"><title>BNF3&#45;&gt;CON3</title>
<path fill="none" stroke="black" d="M333.676,-83.738C320.953,-81.3424 305.58,-78.4477 291.784,-75.8501"/>
<polygon fill="black" stroke="black" points="292.088,-72.3458 281.613,-73.9349 290.792,-79.2249 292.088,-72.3458"/>
</g>
<!-- D3T3 -->
<g id="node14" class="node"><title>D3T3</title>
<text text-anchor="middle" x="322.333" y="-31.9669" font-family="Times Roman,serif" font-size="16.00">D3T</text>
</g>
<!-- BNF3&#45;&gt;D3T3 -->
<g id="edge15" class="edge"><title>BNF3&#45;&gt;D3T3</title>
<path fill="none" stroke="black" d="M347.515,-70.7764C345.606,-68.168 343.61,-65.4397 341.612,-62.7099"/>
<polygon fill="black" stroke="black" points="344.432,-60.6366 335.701,-54.6338 338.783,-64.7706 344.432,-60.6366"/>
</g>
<!-- OLT3 -->
<g id="node15" class="node"><title>OLT3</title>
<text text-anchor="middle" x="307.53" y="-132.93" font-family="Times Roman,serif" font-size="16.00">OLT</text>
</g>
<!-- BNF3&#45;&gt;OLT3 -->
<g id="edge17" class="edge"><title>BNF3&#45;&gt;OLT3</title>
<path fill="none" stroke="black" d="M340.92,-106.891C339.007,-108.634 337.044,-110.424 335.074,-112.22"/>
<polygon fill="black" stroke="black" points="332.565,-109.771 327.533,-119.094 337.281,-114.944 332.565,-109.771"/>
</g>
<!-- D3T3&#45;&gt;CON3 -->
<g id="edge19" class="edge"><title>D3T3&#45;&gt;CON3</title>
<path fill="none" stroke="black" d="M295.177,-49.392C293.797,-50.0539 292.402,-50.7232 291.001,-51.3953"/>
<polygon fill="black" stroke="black" points="289.274,-48.3418 281.771,-55.8223 292.301,-54.6533 289.274,-48.3418"/>
</g>
<!-- D3T3&#45;&gt;OLT3 -->
<g id="edge21" class="edge"><title>D3T3&#45;&gt;OLT3</title>
<path fill="none" stroke="black" d="M319.687,-54.4171C317.469,-69.5417 314.264,-91.4019 311.701,-108.879"/>
<polygon fill="black" stroke="black" points="308.191,-108.694 310.204,-119.095 315.117,-109.709 308.191,-108.694"/>
</g>
</g>
</svg>
