<?xml version="1.0" encoding="UTF-8" standalone="no"?>
<!DOCTYPE svg PUBLIC "-//W3C//DTD SVG 1.1//EN"
 "http://www.w3.org/Graphics/SVG/1.1/DTD/svg11.dtd">
<!-- Generated by graphviz version 2.26.3 (20100126.1600)
 -->
<!-- Title: FirstlevelCluster Pages: 1 -->
<svg width="869pt" height="896pt"
 viewBox="0.00 0.00 869.00 896.00" xmlns="http://www.w3.org/2000/svg" xmlns:xlink="http://www.w3.org/1999/xlink">
<g id="graph1" class="graph" transform="scale(1 1) rotate(0) translate(4 892)">
<title>FirstlevelCluster</title>
<polygon fill="white" stroke="white" points="-4,5 -4,-892 866,-892 866,5 -4,5"/>
<g id="graph2" class="cluster"><title>cluster_0</title>
<polygon fill="none" stroke="black" points="0.738117,-0.640888 0.738117,-886.641 859.738,-886.641 859.738,-0.640888 0.738117,-0.640888"/>
<text text-anchor="middle" x="430.238" y="-870.041" font-family="Times Roman,serif" font-size="14.00">CON&gt;</text>
</g>
<g id="graph3" class="cluster"><title>cluster_2</title>
<polygon fill="lightgrey" stroke="black" points="669.476,-669.282 669.476,-851.282 808.476,-851.282 808.476,-669.282 669.476,-669.282"/>
<text text-anchor="middle" x="738.976" y="-834.682" font-family="Times Roman,serif" font-size="14.00">000001</text>
</g>
<g id="graph4" class="cluster"><title>cluster_3</title>
<polygon fill="lightgrey" stroke="black" points="9.97623,-649.782 9.97623,-832.782 173.976,-832.782 173.976,-649.782 9.97623,-649.782"/>
<text text-anchor="middle" x="91.9762" y="-816.182" font-family="Times Roman,serif" font-size="14.00">000111</text>
</g>
<g id="graph5" class="cluster"><title>cluster_4</title>
<polygon fill="none" stroke="black" points="9.97623,-469.282 9.97623,-613.282 171.976,-613.282 171.976,-469.282 9.97623,-469.282"/>
<text text-anchor="middle" x="90.9762" y="-596.682" font-family="Times Roman,serif" font-size="14.00">000011</text>
</g>
<g id="graph6" class="cluster"><title>cluster_5</title>
<polygon fill="lightgrey" stroke="black" points="209.476,-449.282 209.476,-635.282 390.476,-635.282 390.476,-449.282 209.476,-449.282"/>
<text text-anchor="middle" x="299.976" y="-618.682" font-family="Times Roman,serif" font-size="14.00">000012</text>
</g>
<g id="graph7" class="cluster"><title>cluster_6</title>
<polygon fill="none" stroke="black" points="249.976,-209.282 249.976,-423.282 403.976,-423.282 403.976,-209.282 249.976,-209.282"/>
<text text-anchor="middle" x="326.976" y="-406.682" font-family="Times Roman,serif" font-size="14.00">000101</text>
</g>
<g id="graph8" class="cluster"><title>cluster_7</title>
<polygon fill="lightgrey" stroke="black" points="468.976,-468.782 468.976,-653.782 644.976,-653.782 644.976,-468.782 468.976,-468.782"/>
<text text-anchor="middle" x="556.976" y="-637.182" font-family="Times Roman,serif" font-size="14.00">000100</text>
</g>
<g id="graph9" class="cluster"><title>cluster_8</title>
<polygon fill="lightgrey" stroke="black" points="289.476,-669.282 289.476,-851.282 428.476,-851.282 428.476,-669.282 289.476,-669.282"/>
<text text-anchor="middle" x="358.976" y="-834.682" font-family="Times Roman,serif" font-size="14.00">000221</text>
</g>
<g id="graph10" class="cluster"><title>cluster_9</title>
<polygon fill="lightgrey" stroke="black" points="609.976,-48.7818 609.976,-235.782 789.976,-235.782 789.976,-48.7818 609.976,-48.7818"/>
<text text-anchor="middle" x="699.976" y="-219.182" font-family="Times Roman,serif" font-size="14.00">000002</text>
</g>
<g id="graph11" class="cluster"><title>cluster_10</title>
<polygon fill="none" stroke="black" points="609.476,-269.782 609.476,-420.782 818.476,-420.782 818.476,-269.782 609.476,-269.782"/>
<text text-anchor="middle" x="713.976" y="-404.182" font-family="Times Roman,serif" font-size="14.00">000112</text>
</g>
<g id="graph12" class="cluster"><title>cluster_11</title>
<polygon fill="none" stroke="black" points="469.976,-689.282 469.976,-833.282 631.976,-833.282 631.976,-689.282 469.976,-689.282"/>
<text text-anchor="middle" x="550.976" y="-816.682" font-family="Times Roman,serif" font-size="14.00">000211</text>
</g>
<g id="graph13" class="cluster"><title>cluster_12</title>
<polygon fill="none" stroke="black" points="329.476,-29.7818 329.476,-180.782 538.476,-180.782 538.476,-29.7818 329.476,-29.7818"/>
<text text-anchor="middle" x="433.976" y="-164.182" font-family="Times Roman,serif" font-size="14.00">000110</text>
</g>
<g id="graph14" class="cluster"><title>cluster_13</title>
<polygon fill="none" stroke="black" points="429.976,-229.282 429.976,-443.282 583.976,-443.282 583.976,-229.282 429.976,-229.282"/>
<text text-anchor="middle" x="506.976" y="-426.682" font-family="Times Roman,serif" font-size="14.00">000121</text>
</g>
<g id="graph15" class="cluster"><title>cluster_14</title>
<polygon fill="lightgrey" stroke="black" points="29.9762,-228.782 29.9762,-415.782 209.976,-415.782 209.976,-228.782 29.9762,-228.782"/>
<text text-anchor="middle" x="119.976" y="-399.182" font-family="Times Roman,serif" font-size="14.00">000000</text>
</g>
<g id="graph16" class="cluster"><title>cluster_15</title>
<polygon fill="lightgrey" stroke="black" points="8.97623,-8.78178 8.97623,-193.782 184.976,-193.782 184.976,-8.78178 8.97623,-8.78178"/>
<text text-anchor="middle" x="96.9762" y="-177.182" font-family="Times Roman,serif" font-size="14.00">000122</text>
</g>
<g id="graph17" class="cluster"><title>cluster_16</title>
<polygon fill="lightgrey" stroke="black" points="669.476,-449.282 669.476,-635.282 850.476,-635.282 850.476,-449.282 669.476,-449.282"/>
<text text-anchor="middle" x="759.976" y="-618.682" font-family="Times Roman,serif" font-size="14.00">000210</text>
</g>
<!-- CON2 -->
<g id="node3" class="node"><title>CON2</title>
<text text-anchor="middle" x="705.594" y="-740.401" font-family="Times Roman,serif" font-size="16.00">CON</text>
</g>
<!-- BNF2 -->
<g id="node4" class="node"><title>BNF2</title>
<text text-anchor="middle" x="772.037" y="-749.21" font-family="Times Roman,serif" font-size="16.00">BNF</text>
</g>
<!-- CON2&#45;&gt;BNF2 -->
<g id="edge4" class="edge"><title>CON2&#45;&gt;BNF2</title>
<path fill="none" stroke="black" d="M732.619,-748.384C733.373,-748.484 734.132,-748.584 734.894,-748.685"/>
<polygon fill="black" stroke="black" points="734.447,-752.157 744.821,-750.002 735.367,-745.218 734.447,-752.157"/>
</g>
<!-- D3T2 -->
<g id="node5" class="node"><title>D3T2</title>
<text text-anchor="middle" x="748.772" y="-692.381" font-family="Times Roman,serif" font-size="16.00">D3T</text>
</g>
<!-- CON2&#45;&gt;D3T2 -->
<g id="edge6" class="edge"><title>CON2&#45;&gt;D3T2</title>
<path fill="none" stroke="black" d="M721.918,-726.646C723.1,-725.332 724.304,-723.992 725.516,-722.645"/>
<polygon fill="black" stroke="black" points="728.342,-724.737 732.425,-714.961 723.136,-720.056 728.342,-724.737"/>
</g>
<!-- OLT2 -->
<g id="node6" class="node"><title>OLT2</title>
<text text-anchor="middle" x="729.809" y="-793.805" font-family="Times Roman,serif" font-size="16.00">OLT</text>
</g>
<!-- CON2&#45;&gt;OLT2 -->
<g id="edge8" class="edge"><title>CON2&#45;&gt;OLT2</title>
<path fill="none" stroke="black" d="M713.792,-762.881C714.975,-765.491 716.215,-768.224 717.457,-770.964"/>
<polygon fill="black" stroke="black" points="714.302,-772.481 721.62,-780.143 720.677,-769.59 714.302,-772.481"/>
</g>
<!-- BNF2&#45;&gt;D3T2 -->
<g id="edge10" class="edge"><title>BNF2&#45;&gt;D3T2</title>
<path fill="none" stroke="black" d="M764.548,-735.316C763.137,-731.868 761.632,-728.192 760.133,-724.531"/>
<polygon fill="black" stroke="black" points="763.275,-722.969 756.248,-715.04 756.797,-725.621 763.275,-722.969"/>
</g>
<!-- BNF2&#45;&gt;OLT2 -->
<g id="edge12" class="edge"><title>BNF2&#45;&gt;OLT2</title>
<path fill="none" stroke="black" d="M754.862,-771.748C754.622,-772.002 754.382,-772.256 754.14,-772.51"/>
<polygon fill="black" stroke="black" points="751.441,-770.27 747.107,-779.938 756.524,-775.083 751.441,-770.27"/>
</g>
<!-- CON3 -->
<g id="node13" class="node"><title>CON3</title>
<text text-anchor="middle" x="74.9617" y="-724.374" font-family="Times Roman,serif" font-size="16.00">CON</text>
</g>
<!-- BNF3 -->
<g id="node14" class="node"><title>BNF3</title>
<text text-anchor="middle" x="138.215" y="-719.082" font-family="Times Roman,serif" font-size="16.00">BNF</text>
</g>
<!-- CON3&#45;&gt;BNF3 -->
<g id="edge15" class="edge"><title>CON3&#45;&gt;BNF3</title>
<path fill="none" stroke="black" d="M102.154,-726.499C102.246,-726.491 102.338,-726.484 102.43,-726.476"/>
<polygon fill="black" stroke="black" points="101.373,-730.077 111.046,-725.755 100.789,-723.101 101.373,-730.077"/>
</g>
<!-- D3T3 -->
<g id="node15" class="node"><title>D3T3</title>
<text text-anchor="middle" x="62.8171" y="-672.231" font-family="Times Roman,serif" font-size="16.00">D3T</text>
</g>
<!-- CON3&#45;&gt;D3T3 -->
<g id="edge17" class="edge"><title>CON3&#45;&gt;D3T3</title>
<path fill="none" stroke="black" d="M70.7141,-710.537C70.2729,-708.643 69.8176,-706.687 69.3586,-704.717"/>
<polygon fill="black" stroke="black" points="72.76,-703.891 67.0828,-694.946 65.9425,-705.479 72.76,-703.891"/>
</g>
<!-- OLT3 -->
<g id="node16" class="node"><title>OLT3</title>
<text text-anchor="middle" x="45.9666" y="-775.156" font-family="Times Roman,serif" font-size="16.00">OLT</text>
</g>
<!-- CON3&#45;&gt;OLT3 -->
<g id="edge19" class="edge"><title>CON3&#45;&gt;OLT3</title>
<path fill="none" stroke="black" d="M64.6574,-746.821C63.6564,-748.574 62.6261,-750.378 61.5882,-752.196"/>
<polygon fill="black" stroke="black" points="58.3522,-750.805 56.4332,-761.225 64.4311,-754.276 58.3522,-750.805"/>
</g>
<!-- CON4 -->
<g id="node21" class="node"><title>CON4</title>
<text text-anchor="middle" x="72.3497" y="-506.536" font-family="Times Roman,serif" font-size="16.00">CON</text>
</g>
<!-- BNF4 -->
<g id="node22" class="node"><title>BNF4</title>
<text text-anchor="middle" x="123.651" y="-554.271" font-family="Times Roman,serif" font-size="16.00">BNF</text>
</g>
<!-- CON4&#45;&gt;BNF4 -->
<g id="edge22" class="edge"><title>CON4&#45;&gt;BNF4</title>
<path fill="none" stroke="black" d="M91.7443,-528.983C93.4042,-530.527 95.1013,-532.106 96.8055,-533.692"/>
<polygon fill="black" stroke="black" points="94.5233,-536.349 104.228,-540.599 99.2918,-531.225 94.5233,-536.349"/>
</g>
<!-- D3T4 -->
<g id="node23" class="node"><title>D3T4</title>
<text text-anchor="middle" x="136.274" y="-491.514" font-family="Times Roman,serif" font-size="16.00">D3T</text>
</g>
<!-- CON4&#45;&gt;D3T4 -->
<g id="edge24" class="edge"><title>CON4&#45;&gt;D3T4</title>
<path fill="none" stroke="black" d="M99.4592,-504.565C99.557,-504.542 99.6549,-504.519 99.7528,-504.496"/>
<polygon fill="black" stroke="black" points="99.9837,-508.037 108.918,-502.342 98.3823,-501.223 99.9837,-508.037"/>
</g>
<!-- OLT4 -->
<g id="node24" class="node"><title>OLT4</title>
<text text-anchor="middle" x="45.7589" y="-555.894" font-family="Times Roman,serif" font-size="16.00">OLT</text>
</g>
<!-- CON4&#45;&gt;OLT4 -->
<g id="edge26" class="edge"><title>CON4&#45;&gt;OLT4</title>
<path fill="none" stroke="black" d="M62.5992,-529.035C61.8767,-530.376 61.139,-531.745 60.3957,-533.125"/>
<polygon fill="black" stroke="black" points="57.1698,-531.733 55.5082,-542.197 63.3324,-535.054 57.1698,-531.733"/>
</g>
<!-- BNF4&#45;&gt;D3T4 -->
<g id="edge28" class="edge"><title>BNF4&#45;&gt;D3T4</title>
<path fill="none" stroke="black" d="M127.302,-540.519C128.313,-535.49 129.437,-529.905 130.536,-524.437"/>
<polygon fill="black" stroke="black" points="134.046,-524.736 132.587,-514.242 127.184,-523.356 134.046,-524.736"/>
</g>
<!-- CON5 -->
<g id="node30" class="node"><title>CON5</title>
<text text-anchor="middle" x="245.902" y="-518.86" font-family="Times Roman,serif" font-size="16.00">CON</text>
</g>
<!-- BNF5 -->
<g id="node31" class="node"><title>BNF5</title>
<text text-anchor="middle" x="354.006" y="-522.296" font-family="Times Roman,serif" font-size="16.00">BNF</text>
</g>
<!-- CON5&#45;&gt;BNF5 -->
<g id="edge31" class="edge"><title>CON5&#45;&gt;BNF5</title>
<path fill="none" stroke="black" d="M272.902,-524.118C286.188,-524.541 302.411,-525.056 316.847,-525.515"/>
<polygon fill="black" stroke="black" points="316.869,-529.018 326.975,-525.837 317.091,-522.021 316.869,-529.018"/>
</g>
<!-- D3T5 -->
<g id="node32" class="node"><title>D3T5</title>
<text text-anchor="middle" x="300.969" y="-471.495" font-family="Times Roman,serif" font-size="16.00">D3T</text>
</g>
<!-- CON5&#45;&gt;D3T5 -->
<g id="edge33" class="edge"><title>CON5&#45;&gt;D3T5</title>
<path fill="none" stroke="black" d="M267.035,-505.083C268.76,-503.599 270.52,-502.085 272.287,-500.565"/>
<polygon fill="black" stroke="black" points="274.685,-503.12 279.984,-493.945 270.12,-497.813 274.685,-503.12"/>
</g>
<!-- OLT5 -->
<g id="node33" class="node"><title>OLT5</title>
<text text-anchor="middle" x="278.778" y="-577.551" font-family="Times Roman,serif" font-size="16.00">OLT</text>
</g>
<!-- CON5&#45;&gt;OLT5 -->
<g id="edge35" class="edge"><title>CON5&#45;&gt;OLT5</title>
<path fill="none" stroke="black" d="M256.124,-541.508C258.496,-545.744 261.071,-550.342 263.606,-554.867"/>
<polygon fill="black" stroke="black" points="260.734,-556.901 268.675,-563.916 266.841,-553.481 260.734,-556.901"/>
</g>
<!-- BNF5&#45;&gt;D3T5 -->
<g id="edge37" class="edge"><title>BNF5&#45;&gt;D3T5</title>
<path fill="none" stroke="black" d="M335.158,-508.643C332.716,-506.304 330.18,-503.875 327.642,-501.444"/>
<polygon fill="black" stroke="black" points="329.757,-498.623 320.114,-494.233 324.915,-503.678 329.757,-498.623"/>
</g>
<!-- OLT5&#45;&gt;D3T5 -->
<g id="edge39" class="edge"><title>OLT5&#45;&gt;D3T5</title>
<path fill="none" stroke="black" d="M282.643,-563.478C286.08,-547.053 291.156,-522.796 295.094,-503.972"/>
<polygon fill="black" stroke="black" points="298.526,-504.662 297.148,-494.157 291.674,-503.228 298.526,-504.662"/>
</g>
<!-- CON6 -->
<g id="node40" class="node"><title>CON6</title>
<text text-anchor="middle" x="286.236" y="-289.182" font-family="Times Roman,serif" font-size="16.00">CON</text>
</g>
<!-- BNF6 -->
<g id="node41" class="node"><title>BNF6</title>
<text text-anchor="middle" x="368.441" y="-321.774" font-family="Times Roman,serif" font-size="16.00">BNF</text>
</g>
<!-- CON6&#45;&gt;BNF6 -->
<g id="edge42" class="edge"><title>CON6&#45;&gt;BNF6</title>
<path fill="none" stroke="black" d="M313.609,-304.435C319.433,-306.744 325.672,-309.217 331.779,-311.639"/>
<polygon fill="black" stroke="black" points="330.602,-314.937 341.188,-315.369 333.181,-308.43 330.602,-314.937"/>
</g>
<!-- D3T6 -->
<g id="node42" class="node"><title>D3T6</title>
<text text-anchor="middle" x="310.12" y="-232.353" font-family="Times Roman,serif" font-size="16.00">D3T</text>
</g>
<!-- CON6&#45;&gt;D3T6 -->
<g id="edge44" class="edge"><title>CON6&#45;&gt;D3T6</title>
<path fill="none" stroke="black" d="M293.925,-275.288C295.374,-271.841 296.919,-268.164 298.457,-264.503"/>
<polygon fill="black" stroke="black" points="301.798,-265.587 302.446,-255.012 295.345,-262.875 301.798,-265.587"/>
</g>
<!-- OLT6 -->
<g id="node43" class="node"><title>OLT6</title>
<text text-anchor="middle" x="302.594" y="-365.86" font-family="Times Roman,serif" font-size="16.00">OLT</text>
</g>
<!-- CON6&#45;&gt;OLT6 -->
<g id="edge46" class="edge"><title>CON6&#45;&gt;OLT6</title>
<path fill="none" stroke="black" d="M290.113,-311.754C292.048,-320.825 294.433,-332.003 296.597,-342.15"/>
<polygon fill="black" stroke="black" points="293.236,-343.169 298.745,-352.219 300.082,-341.708 293.236,-343.169"/>
</g>
<!-- BNF6&#45;&gt;OLT6 -->
<g id="edge48" class="edge"><title>BNF6&#45;&gt;OLT6</title>
<path fill="none" stroke="black" d="M341.278,-344.36C340.202,-345.08 339.118,-345.806 338.03,-346.535"/>
<polygon fill="black" stroke="black" points="336.057,-343.644 329.694,-352.116 339.951,-349.461 336.057,-343.644"/>
</g>
<!-- CON7 -->
<g id="node49" class="node"><title>CON7</title>
<text text-anchor="middle" x="505.339" y="-543.499" font-family="Times Roman,serif" font-size="16.00">CON</text>
</g>
<!-- BNF7 -->
<g id="node50" class="node"><title>BNF7</title>
<text text-anchor="middle" x="608.676" y="-559.893" font-family="Times Roman,serif" font-size="16.00">BNF</text>
</g>
<!-- CON7&#45;&gt;BNF7 -->
<g id="edge51" class="edge"><title>CON7&#45;&gt;BNF7</title>
<path fill="none" stroke="black" d="M532.49,-552.206C544.38,-554.093 558.526,-556.337 571.382,-558.377"/>
<polygon fill="black" stroke="black" points="570.923,-561.847 581.348,-559.958 572.02,-554.934 570.923,-561.847"/>
</g>
<!-- D3T7 -->
<g id="node51" class="node"><title>D3T7</title>
<text text-anchor="middle" x="554.449" y="-491.71" font-family="Times Roman,serif" font-size="16.00">D3T</text>
</g>
<!-- CON7&#45;&gt;D3T7 -->
<g id="edge53" class="edge"><title>CON7&#45;&gt;D3T7</title>
<path fill="none" stroke="black" d="M522.516,-529.786C524.894,-527.277 527.375,-524.661 529.856,-522.045"/>
<polygon fill="black" stroke="black" points="532.859,-523.965 537.2,-514.3 527.779,-519.148 532.859,-523.965"/>
</g>
<!-- OLT7 -->
<g id="node52" class="node"><title>OLT7</title>
<text text-anchor="middle" x="546.179" y="-596.147" font-family="Times Roman,serif" font-size="16.00">OLT</text>
</g>
<!-- CON7&#45;&gt;OLT7 -->
<g id="edge55" class="edge"><title>CON7&#45;&gt;OLT7</title>
<path fill="none" stroke="black" d="M519.394,-566.018C521.425,-568.635 523.548,-571.373 525.673,-574.112"/>
<polygon fill="black" stroke="black" points="523.065,-576.461 531.96,-582.217 528.596,-572.17 523.065,-576.461"/>
</g>
<!-- BNF7&#45;&gt;OLT7 -->
<g id="edge57" class="edge"><title>BNF7&#45;&gt;OLT7</title>
<path fill="none" stroke="black" d="M581.446,-580.089C581.281,-580.185 581.117,-580.28 580.952,-580.376"/>
<polygon fill="black" stroke="black" points="580.405,-576.647 573.512,-584.692 583.918,-582.701 580.405,-576.647"/>
</g>
<!-- D3T7&#45;&gt;OLT7 -->
<g id="edge59" class="edge"><title>D3T7&#45;&gt;OLT7</title>
<path fill="none" stroke="black" d="M553.009,-514.301C551.748,-530.228 549.894,-553.633 548.436,-572.045"/>
<polygon fill="black" stroke="black" points="544.932,-571.969 547.631,-582.214 551.91,-572.521 544.932,-571.969"/>
</g>
<!-- CON8 -->
<g id="node59" class="node"><title>CON8</title>
<text text-anchor="middle" x="325.594" y="-740.401" font-family="Times Roman,serif" font-size="16.00">CON</text>
</g>
<!-- BNF8 -->
<g id="node60" class="node"><title>BNF8</title>
<text text-anchor="middle" x="392.037" y="-749.21" font-family="Times Roman,serif" font-size="16.00">BNF</text>
</g>
<!-- CON8&#45;&gt;BNF8 -->
<g id="edge62" class="edge"><title>CON8&#45;&gt;BNF8</title>
<path fill="none" stroke="black" d="M352.619,-748.384C353.373,-748.484 354.132,-748.584 354.894,-748.685"/>
<polygon fill="black" stroke="black" points="354.447,-752.157 364.821,-750.002 355.367,-745.218 354.447,-752.157"/>
</g>
<!-- D3T8 -->
<g id="node61" class="node"><title>D3T8</title>
<text text-anchor="middle" x="368.772" y="-692.381" font-family="Times Roman,serif" font-size="16.00">D3T</text>
</g>
<!-- CON8&#45;&gt;D3T8 -->
<g id="edge64" class="edge"><title>CON8&#45;&gt;D3T8</title>
<path fill="none" stroke="black" d="M341.918,-726.646C343.1,-725.332 344.304,-723.992 345.516,-722.645"/>
<polygon fill="black" stroke="black" points="348.342,-724.737 352.425,-714.961 343.136,-720.056 348.342,-724.737"/>
</g>
<!-- OLT8 -->
<g id="node62" class="node"><title>OLT8</title>
<text text-anchor="middle" x="349.809" y="-793.805" font-family="Times Roman,serif" font-size="16.00">OLT</text>
</g>
<!-- CON8&#45;&gt;OLT8 -->
<g id="edge66" class="edge"><title>CON8&#45;&gt;OLT8</title>
<path fill="none" stroke="black" d="M333.792,-762.881C334.975,-765.491 336.215,-768.224 337.457,-770.964"/>
<polygon fill="black" stroke="black" points="334.302,-772.481 341.62,-780.143 340.677,-769.59 334.302,-772.481"/>
</g>
<!-- D3T8&#45;&gt;BNF8 -->
<g id="edge68" class="edge"><title>D3T8&#45;&gt;BNF8</title>
<path fill="none" stroke="black" d="M376.262,-715.075C377.673,-718.522 379.178,-722.198 380.677,-725.86"/>
<polygon fill="black" stroke="black" points="377.534,-727.422 384.562,-735.35 384.013,-724.77 377.534,-727.422"/>
</g>
<!-- OLT8&#45;&gt;BNF8 -->
<g id="edge70" class="edge"><title>OLT8&#45;&gt;BNF8</title>
<path fill="none" stroke="black" d="M366.985,-780.066C367.225,-779.813 367.465,-779.559 367.706,-779.305"/>
<polygon fill="black" stroke="black" points="370.405,-781.545 374.74,-771.877 365.323,-776.732 370.405,-781.545"/>
</g>
<!-- CON9 -->
<g id="node69" class="node"><title>CON9</title>
<text text-anchor="middle" x="646.353" y="-116.379" font-family="Times Roman,serif" font-size="16.00">CON</text>
</g>
<!-- BNF9 -->
<g id="node70" class="node"><title>BNF9</title>
<text text-anchor="middle" x="753.531" y="-133.616" font-family="Times Roman,serif" font-size="16.00">BNF</text>
</g>
<!-- CON9&#45;&gt;BNF9 -->
<g id="edge73" class="edge"><title>CON9&#45;&gt;BNF9</title>
<path fill="none" stroke="black" d="M673.399,-125.129C686.473,-127.232 702.366,-129.788 716.541,-132.067"/>
<polygon fill="black" stroke="black" points="716.065,-135.536 726.494,-133.668 717.177,-128.625 716.065,-135.536"/>
</g>
<!-- D3T9 -->
<g id="node71" class="node"><title>D3T9</title>
<text text-anchor="middle" x="709.852" y="-71.1935" font-family="Times Roman,serif" font-size="16.00">D3T</text>
</g>
<!-- CON9&#45;&gt;D3T9 -->
<g id="edge75" class="edge"><title>CON9&#45;&gt;D3T9</title>
<path fill="none" stroke="black" d="M671.815,-102.661C673.238,-101.648 674.679,-100.623 676.125,-99.5935"/>
<polygon fill="black" stroke="black" points="678.266,-102.366 684.385,-93.716 674.208,-96.6622 678.266,-102.366"/>
</g>
<!-- OLT9 -->
<g id="node72" class="node"><title>OLT9</title>
<text text-anchor="middle" x="690.032" y="-178.802" font-family="Times Roman,serif" font-size="16.00">OLT</text>
</g>
<!-- CON9&#45;&gt;OLT9 -->
<g id="edge77" class="edge"><title>CON9&#45;&gt;OLT9</title>
<path fill="none" stroke="black" d="M658.987,-138.834C662.847,-144.35 667.176,-150.537 671.348,-156.5"/>
<polygon fill="black" stroke="black" points="668.675,-158.784 677.275,-164.971 674.41,-154.771 668.675,-158.784"/>
</g>
<!-- BNF9&#45;&gt;D3T9 -->
<g id="edge79" class="edge"><title>BNF9&#45;&gt;D3T9</title>
<path fill="none" stroke="black" d="M740.897,-119.961C737.037,-114.445 732.708,-108.258 728.536,-102.296"/>
<polygon fill="black" stroke="black" points="731.209,-100.011 722.608,-93.8245 725.474,-104.025 731.209,-100.011"/>
</g>
<!-- BNF9&#45;&gt;OLT9 -->
<g id="edge81" class="edge"><title>BNF9&#45;&gt;OLT9</title>
<path fill="none" stroke="black" d="M728.069,-156.135C726.646,-157.148 725.205,-158.173 723.759,-159.202"/>
<polygon fill="black" stroke="black" points="721.618,-156.43 715.499,-165.08 725.676,-162.133 721.618,-156.43"/>
</g>
<!-- OLT9&#45;&gt;D3T9 -->
<g id="edge83" class="edge"><title>OLT9&#45;&gt;D3T9</title>
<path fill="none" stroke="black" d="M693.394,-164.948C696.469,-148.252 701.067,-123.289 704.622,-103.989"/>
<polygon fill="black" stroke="black" points="708.104,-104.406 706.473,-93.9374 701.219,-103.138 708.104,-104.406"/>
</g>
<!-- CON10 -->
<g id="node80" class="node"><title>CON10</title>
<text text-anchor="middle" x="720.598" y="-339.575" font-family="Times Roman,serif" font-size="16.00">CON</text>
</g>
<!-- BNF10 -->
<g id="node81" class="node"><title>BNF10</title>
<text text-anchor="middle" x="782.848" y="-349.436" font-family="Times Roman,serif" font-size="16.00">BNF</text>
</g>
<!-- CON10&#45;&gt;BNF10 -->
<g id="edge86" class="edge"><title>CON10&#45;&gt;BNF10</title>
<path fill="none" stroke="black" d="M747.721,-348.271C747.885,-348.297 748.049,-348.323 748.213,-348.349"/>
<polygon fill="black" stroke="black" points="745.199,-351.416 755.624,-349.523 746.294,-344.502 745.199,-351.416"/>
</g>
<!-- D3T10 -->
<g id="node82" class="node"><title>D3T10</title>
<text text-anchor="middle" x="656.031" y="-292.228" font-family="Times Roman,serif" font-size="16.00">D3T</text>
</g>
<!-- CON10&#45;&gt;D3T10 -->
<g id="edge88" class="edge"><title>CON10&#45;&gt;D3T10</title>
<path fill="none" stroke="black" d="M695.819,-325.805C693.485,-324.094 691.096,-322.342 688.704,-320.587"/>
<polygon fill="black" stroke="black" points="690.77,-317.763 680.636,-314.672 686.631,-323.407 690.77,-317.763"/>
</g>
<!-- OLT10 -->
<g id="node83" class="node"><title>OLT10</title>
<text text-anchor="middle" x="645.009" y="-363.026" font-family="Times Roman,serif" font-size="16.00">OLT</text>
</g>
<!-- CON10&#45;&gt;OLT10 -->
<g id="edge90" class="edge"><title>CON10&#45;&gt;OLT10</title>
<path fill="none" stroke="black" d="M693.308,-352.442C689.669,-353.571 685.888,-354.744 682.117,-355.914"/>
<polygon fill="black" stroke="black" points="680.772,-352.666 672.258,-358.972 682.846,-359.352 680.772,-352.666"/>
</g>
<!-- OLT10&#45;&gt;D3T10 -->
<g id="edge92" class="edge"><title>OLT10&#45;&gt;D3T10</title>
<path fill="none" stroke="black" d="M647.847,-349.194C648.995,-341.819 650.347,-333.133 651.618,-324.969"/>
<polygon fill="black" stroke="black" points="655.083,-325.464 653.163,-315.045 648.167,-324.387 655.083,-325.464"/>
</g>
<!-- CON11 -->
<g id="node89" class="node"><title>CON11</title>
<text text-anchor="middle" x="532.35" y="-726.536" font-family="Times Roman,serif" font-size="16.00">CON</text>
</g>
<!-- BNF11 -->
<g id="node90" class="node"><title>BNF11</title>
<text text-anchor="middle" x="583.651" y="-774.271" font-family="Times Roman,serif" font-size="16.00">BNF</text>
</g>
<!-- CON11&#45;&gt;BNF11 -->
<g id="edge95" class="edge"><title>CON11&#45;&gt;BNF11</title>
<path fill="none" stroke="black" d="M551.744,-748.983C553.404,-750.527 555.101,-752.106 556.805,-753.692"/>
<polygon fill="black" stroke="black" points="554.523,-756.349 564.228,-760.599 559.292,-751.225 554.523,-756.349"/>
</g>
<!-- D3T11 -->
<g id="node91" class="node"><title>D3T11</title>
<text text-anchor="middle" x="596.274" y="-711.514" font-family="Times Roman,serif" font-size="16.00">D3T</text>
</g>
<!-- CON11&#45;&gt;D3T11 -->
<g id="edge97" class="edge"><title>CON11&#45;&gt;D3T11</title>
<path fill="none" stroke="black" d="M559.459,-724.565C559.557,-724.542 559.655,-724.519 559.753,-724.496"/>
<polygon fill="black" stroke="black" points="559.984,-728.037 568.918,-722.342 558.382,-721.223 559.984,-728.037"/>
</g>
<!-- OLT11 -->
<g id="node92" class="node"><title>OLT11</title>
<text text-anchor="middle" x="505.759" y="-775.894" font-family="Times Roman,serif" font-size="16.00">OLT</text>
</g>
<!-- CON11&#45;&gt;OLT11 -->
<g id="edge99" class="edge"><title>CON11&#45;&gt;OLT11</title>
<path fill="none" stroke="black" d="M522.599,-749.035C521.877,-750.376 521.139,-751.745 520.396,-753.125"/>
<polygon fill="black" stroke="black" points="517.17,-751.733 515.508,-762.197 523.332,-755.054 517.17,-751.733"/>
</g>
<!-- D3T11&#45;&gt;BNF11 -->
<g id="edge101" class="edge"><title>D3T11&#45;&gt;BNF11</title>
<path fill="none" stroke="black" d="M592.623,-734.066C591.611,-739.095 590.488,-744.68 589.388,-750.148"/>
<polygon fill="black" stroke="black" points="585.878,-749.849 587.337,-760.343 592.74,-751.229 585.878,-749.849"/>
</g>
<!-- CON12 -->
<g id="node98" class="node"><title>CON12</title>
<text text-anchor="middle" x="440.598" y="-99.5752" font-family="Times Roman,serif" font-size="16.00">CON</text>
</g>
<!-- BNF12 -->
<g id="node99" class="node"><title>BNF12</title>
<text text-anchor="middle" x="502.848" y="-109.436" font-family="Times Roman,serif" font-size="16.00">BNF</text>
</g>
<!-- CON12&#45;&gt;BNF12 -->
<g id="edge104" class="edge"><title>CON12&#45;&gt;BNF12</title>
<path fill="none" stroke="black" d="M467.721,-108.271C467.885,-108.297 468.049,-108.323 468.213,-108.349"/>
<polygon fill="black" stroke="black" points="465.199,-111.416 475.624,-109.523 466.294,-104.502 465.199,-111.416"/>
</g>
<!-- D3T12 -->
<g id="node100" class="node"><title>D3T12</title>
<text text-anchor="middle" x="376.031" y="-52.2281" font-family="Times Roman,serif" font-size="16.00">D3T</text>
</g>
<!-- CON12&#45;&gt;D3T12 -->
<g id="edge106" class="edge"><title>CON12&#45;&gt;D3T12</title>
<path fill="none" stroke="black" d="M415.819,-85.805C413.485,-84.0936 411.096,-82.3416 408.704,-80.5875"/>
<polygon fill="black" stroke="black" points="410.77,-77.7625 400.636,-74.6715 406.631,-83.4075 410.77,-77.7625"/>
</g>
<!-- OLT12 -->
<g id="node101" class="node"><title>OLT12</title>
<text text-anchor="middle" x="365.009" y="-123.026" font-family="Times Roman,serif" font-size="16.00">OLT</text>
</g>
<!-- CON12&#45;&gt;OLT12 -->
<g id="edge108" class="edge"><title>CON12&#45;&gt;OLT12</title>
<path fill="none" stroke="black" d="M413.308,-112.442C409.669,-113.571 405.888,-114.744 402.117,-115.914"/>
<polygon fill="black" stroke="black" points="400.772,-112.666 392.258,-118.972 402.846,-119.352 400.772,-112.666"/>
</g>
<!-- D3T12&#45;&gt;OLT12 -->
<g id="edge110" class="edge"><title>D3T12&#45;&gt;OLT12</title>
<path fill="none" stroke="black" d="M373.192,-74.8604C372.044,-82.2351 370.692,-90.9215 369.421,-99.0857"/>
<polygon fill="black" stroke="black" points="365.956,-98.5904 367.876,-109.01 372.872,-99.6672 365.956,-98.5904"/>
</g>
<!-- CON13 -->
<g id="node107" class="node"><title>CON13</title>
<text text-anchor="middle" x="466.236" y="-309.182" font-family="Times Roman,serif" font-size="16.00">CON</text>
</g>
<!-- BNF13 -->
<g id="node108" class="node"><title>BNF13</title>
<text text-anchor="middle" x="548.441" y="-341.774" font-family="Times Roman,serif" font-size="16.00">BNF</text>
</g>
<!-- CON13&#45;&gt;BNF13 -->
<g id="edge113" class="edge"><title>CON13&#45;&gt;BNF13</title>
<path fill="none" stroke="black" d="M493.609,-324.435C499.433,-326.744 505.672,-329.217 511.779,-331.639"/>
<polygon fill="black" stroke="black" points="510.602,-334.937 521.188,-335.369 513.181,-328.43 510.602,-334.937"/>
</g>
<!-- D3T13 -->
<g id="node109" class="node"><title>D3T13</title>
<text text-anchor="middle" x="490.12" y="-252.353" font-family="Times Roman,serif" font-size="16.00">D3T</text>
</g>
<!-- CON13&#45;&gt;D3T13 -->
<g id="edge115" class="edge"><title>CON13&#45;&gt;D3T13</title>
<path fill="none" stroke="black" d="M473.925,-295.288C475.374,-291.841 476.919,-288.164 478.457,-284.503"/>
<polygon fill="black" stroke="black" points="481.798,-285.587 482.446,-275.012 475.345,-282.875 481.798,-285.587"/>
</g>
<!-- OLT13 -->
<g id="node110" class="node"><title>OLT13</title>
<text text-anchor="middle" x="482.594" y="-385.86" font-family="Times Roman,serif" font-size="16.00">OLT</text>
</g>
<!-- CON13&#45;&gt;OLT13 -->
<g id="edge117" class="edge"><title>CON13&#45;&gt;OLT13</title>
<path fill="none" stroke="black" d="M470.113,-331.754C472.048,-340.825 474.433,-352.003 476.597,-362.15"/>
<polygon fill="black" stroke="black" points="473.236,-363.169 478.745,-372.219 480.082,-361.708 473.236,-363.169"/>
</g>
<!-- OLT13&#45;&gt;BNF13 -->
<g id="edge119" class="edge"><title>OLT13&#45;&gt;BNF13</title>
<path fill="none" stroke="black" d="M509.757,-372.074C510.833,-371.353 511.917,-370.627 513.006,-369.899"/>
<polygon fill="black" stroke="black" points="514.978,-372.79 521.341,-364.318 511.084,-366.973 514.978,-372.79"/>
</g>
<!-- CON14 -->
<g id="node116" class="node"><title>CON14</title>
<text text-anchor="middle" x="66.3532" y="-296.379" font-family="Times Roman,serif" font-size="16.00">CON</text>
</g>
<!-- BNF14 -->
<g id="node117" class="node"><title>BNF14</title>
<text text-anchor="middle" x="173.531" y="-313.616" font-family="Times Roman,serif" font-size="16.00">BNF</text>
</g>
<!-- CON14&#45;&gt;BNF14 -->
<g id="edge122" class="edge"><title>CON14&#45;&gt;BNF14</title>
<path fill="none" stroke="black" d="M93.3985,-305.129C106.473,-307.232 122.366,-309.788 136.541,-312.067"/>
<polygon fill="black" stroke="black" points="136.065,-315.536 146.494,-313.668 137.177,-308.625 136.065,-315.536"/>
</g>
<!-- D3T14 -->
<g id="node118" class="node"><title>D3T14</title>
<text text-anchor="middle" x="129.852" y="-251.194" font-family="Times Roman,serif" font-size="16.00">D3T</text>
</g>
<!-- CON14&#45;&gt;D3T14 -->
<g id="edge124" class="edge"><title>CON14&#45;&gt;D3T14</title>
<path fill="none" stroke="black" d="M91.8145,-282.661C93.2378,-281.648 94.6786,-280.623 96.1249,-279.593"/>
<polygon fill="black" stroke="black" points="98.2661,-282.366 104.385,-273.716 94.2075,-276.662 98.2661,-282.366"/>
</g>
<!-- OLT14 -->
<g id="node119" class="node"><title>OLT14</title>
<text text-anchor="middle" x="110.032" y="-358.802" font-family="Times Roman,serif" font-size="16.00">OLT</text>
</g>
<!-- CON14&#45;&gt;OLT14 -->
<g id="edge126" class="edge"><title>CON14&#45;&gt;OLT14</title>
<path fill="none" stroke="black" d="M78.9869,-318.834C82.8466,-324.35 87.1757,-330.537 91.3479,-336.5"/>
<polygon fill="black" stroke="black" points="88.6746,-338.784 97.2754,-344.971 94.41,-334.771 88.6746,-338.784"/>
</g>
<!-- BNF14&#45;&gt;D3T14 -->
<g id="edge128" class="edge"><title>BNF14&#45;&gt;D3T14</title>
<path fill="none" stroke="black" d="M160.897,-299.961C157.037,-294.445 152.708,-288.258 148.536,-282.296"/>
<polygon fill="black" stroke="black" points="151.209,-280.011 142.608,-273.825 145.474,-284.025 151.209,-280.011"/>
</g>
<!-- BNF14&#45;&gt;OLT14 -->
<g id="edge130" class="edge"><title>BNF14&#45;&gt;OLT14</title>
<path fill="none" stroke="black" d="M148.069,-336.135C146.646,-337.148 145.205,-338.173 143.759,-339.202"/>
<polygon fill="black" stroke="black" points="141.618,-336.43 135.499,-345.08 145.676,-342.133 141.618,-336.43"/>
</g>
<!-- D3T14&#45;&gt;OLT14 -->
<g id="edge132" class="edge"><title>D3T14&#45;&gt;OLT14</title>
<path fill="none" stroke="black" d="M126.489,-273.848C123.414,-290.544 118.817,-315.506 115.262,-334.807"/>
<polygon fill="black" stroke="black" points="111.78,-334.39 113.411,-344.858 118.664,-335.658 111.78,-334.39"/>
</g>
<!-- CON15 -->
<g id="node127" class="node"><title>CON15</title>
<text text-anchor="middle" x="45.3394" y="-83.4991" font-family="Times Roman,serif" font-size="16.00">CON</text>
</g>
<!-- BNF15 -->
<g id="node128" class="node"><title>BNF15</title>
<text text-anchor="middle" x="148.676" y="-99.8931" font-family="Times Roman,serif" font-size="16.00">BNF</text>
</g>
<!-- CON15&#45;&gt;BNF15 -->
<g id="edge135" class="edge"><title>CON15&#45;&gt;BNF15</title>
<path fill="none" stroke="black" d="M72.4898,-92.2064C84.3804,-94.0928 98.5262,-96.337 111.382,-98.3766"/>
<polygon fill="black" stroke="black" points="110.923,-101.847 121.348,-99.9576 112.02,-94.9339 110.923,-101.847"/>
</g>
<!-- D3T15 -->
<g id="node129" class="node"><title>D3T15</title>
<text text-anchor="middle" x="94.4495" y="-31.7097" font-family="Times Roman,serif" font-size="16.00">D3T</text>
</g>
<!-- CON15&#45;&gt;D3T15 -->
<g id="edge137" class="edge"><title>CON15&#45;&gt;D3T15</title>
<path fill="none" stroke="black" d="M62.5157,-69.7857C64.8945,-67.2771 67.3751,-64.6612 69.8562,-62.0447"/>
<polygon fill="black" stroke="black" points="72.8587,-63.965 77.1999,-54.3004 67.7792,-59.1484 72.8587,-63.965"/>
</g>
<!-- OLT15 -->
<g id="node130" class="node"><title>OLT15</title>
<text text-anchor="middle" x="86.1794" y="-136.147" font-family="Times Roman,serif" font-size="16.00">OLT</text>
</g>
<!-- CON15&#45;&gt;OLT15 -->
<g id="edge139" class="edge"><title>CON15&#45;&gt;OLT15</title>
<path fill="none" stroke="black" d="M59.3942,-106.018C61.4246,-108.635 63.5484,-111.373 65.6734,-114.112"/>
<polygon fill="black" stroke="black" points="63.0652,-116.461 71.96,-122.217 68.5962,-112.17 63.0652,-116.461"/>
</g>
<!-- OLT15&#45;&gt;BNF15 -->
<g id="edge141" class="edge"><title>OLT15&#45;&gt;BNF15</title>
<path fill="none" stroke="black" d="M113.409,-124.751C113.574,-124.656 113.739,-124.56 113.903,-124.465"/>
<polygon fill="black" stroke="black" points="114.45,-128.194 121.344,-120.149 110.937,-122.139 114.45,-128.194"/>
</g>
<!-- OLT15&#45;&gt;D3T15 -->
<g id="edge143" class="edge"><title>OLT15&#45;&gt;D3T15</title>
<path fill="none" stroke="black" d="M87.6199,-122.356C88.8811,-106.43 90.7345,-83.0237 92.1925,-64.6122"/>
<polygon fill="black" stroke="black" points="95.6973,-64.6884 92.9977,-54.4433 88.7191,-64.1358 95.6973,-64.6884"/>
</g>
<!-- CON16 -->
<g id="node137" class="node"><title>CON16</title>
<text text-anchor="middle" x="705.902" y="-518.86" font-family="Times Roman,serif" font-size="16.00">CON</text>
</g>
<!-- BNF16 -->
<g id="node138" class="node"><title>BNF16</title>
<text text-anchor="middle" x="814.006" y="-522.296" font-family="Times Roman,serif" font-size="16.00">BNF</text>
</g>
<!-- CON16&#45;&gt;BNF16 -->
<g id="edge146" class="edge"><title>CON16&#45;&gt;BNF16</title>
<path fill="none" stroke="black" d="M732.902,-524.118C746.188,-524.541 762.411,-525.056 776.847,-525.515"/>
<polygon fill="black" stroke="black" points="776.869,-529.018 786.975,-525.837 777.091,-522.021 776.869,-529.018"/>
</g>
<!-- D3T16 -->
<g id="node139" class="node"><title>D3T16</title>
<text text-anchor="middle" x="760.969" y="-471.495" font-family="Times Roman,serif" font-size="16.00">D3T</text>
</g>
<!-- CON16&#45;&gt;D3T16 -->
<g id="edge148" class="edge"><title>CON16&#45;&gt;D3T16</title>
<path fill="none" stroke="black" d="M727.035,-505.083C728.76,-503.599 730.52,-502.085 732.287,-500.565"/>
<polygon fill="black" stroke="black" points="734.685,-503.12 739.984,-493.945 730.12,-497.813 734.685,-503.12"/>
</g>
<!-- OLT16 -->
<g id="node140" class="node"><title>OLT16</title>
<text text-anchor="middle" x="738.778" y="-577.551" font-family="Times Roman,serif" font-size="16.00">OLT</text>
</g>
<!-- CON16&#45;&gt;OLT16 -->
<g id="edge150" class="edge"><title>CON16&#45;&gt;OLT16</title>
<path fill="none" stroke="black" d="M716.124,-541.508C718.496,-545.744 721.071,-550.342 723.606,-554.867"/>
<polygon fill="black" stroke="black" points="720.734,-556.901 728.675,-563.916 726.841,-553.481 720.734,-556.901"/>
</g>
<!-- D3T16&#45;&gt;BNF16 -->
<g id="edge152" class="edge"><title>D3T16&#45;&gt;BNF16</title>
<path fill="none" stroke="black" d="M779.817,-493.949C782.259,-496.287 784.795,-498.717 787.334,-501.148"/>
<polygon fill="black" stroke="black" points="785.218,-503.969 794.861,-508.358 790.06,-498.913 785.218,-503.969"/>
</g>
<!-- D3T16&#45;&gt;OLT16 -->
<g id="edge154" class="edge"><title>D3T16&#45;&gt;OLT16</title>
<path fill="none" stroke="black" d="M757.104,-494.369C753.667,-510.793 748.591,-535.051 744.652,-553.875"/>
<polygon fill="black" stroke="black" points="741.221,-553.184 742.599,-563.689 748.073,-554.618 741.221,-553.184"/>
</g>
</g>
</svg>
