<?xml version="1.0" encoding="UTF-8" standalone="no"?>
<!DOCTYPE svg PUBLIC "-//W3C//DTD SVG 1.1//EN"
 "http://www.w3.org/Graphics/SVG/1.1/DTD/svg11.dtd">
<!-- Generated by graphviz version 2.26.3 (20100126.1600)
 -->
<!-- Title: FirstlevelCluster Pages: 1 -->
<svg width="827pt" height="897pt"
 viewBox="0.00 0.00 827.00 897.00" xmlns="http://www.w3.org/2000/svg" xmlns:xlink="http://www.w3.org/1999/xlink">
<g id="graph1" class="graph" transform="scale(1 1) rotate(0) translate(4 893)">
<title>FirstlevelCluster</title>
<polygon fill="white" stroke="white" points="-4,5 -4,-893 824,-893 824,5 -4,5"/>
<g id="graph2" class="cluster"><title>cluster_0</title>
<polygon fill="none" stroke="black" points="0.738117,-1.14089 0.738117,-888.141 817.738,-888.141 817.738,-1.14089 0.738117,-1.14089"/>
<text text-anchor="middle" x="409.238" y="-871.541" font-family="Times Roman,serif" font-size="14.00">&gt;CON</text>
</g>
<g id="graph3" class="cluster"><title>cluster_2</title>
<polygon fill="lightgrey" stroke="black" points="209.476,-469.782 209.476,-655.782 390.476,-655.782 390.476,-469.782 209.476,-469.782"/>
<text text-anchor="middle" x="299.976" y="-639.182" font-family="Times Roman,serif" font-size="14.00">222210</text>
</g>
<g id="graph4" class="cluster"><title>cluster_3</title>
<polygon fill="lightgrey" stroke="black" points="229.476,-9.78178 229.476,-191.782 368.476,-191.782 368.476,-9.78178 229.476,-9.78178"/>
<text text-anchor="middle" x="298.976" y="-175.182" font-family="Times Roman,serif" font-size="14.00">222221</text>
</g>
<g id="graph5" class="cluster"><title>cluster_4</title>
<polygon fill="none" stroke="black" points="9.97623,-489.782 9.97623,-633.782 171.976,-633.782 171.976,-489.782 9.97623,-489.782"/>
<text text-anchor="middle" x="90.9762" y="-617.182" font-family="Times Roman,serif" font-size="14.00">222211</text>
</g>
<g id="graph6" class="cluster"><title>cluster_5</title>
<polygon fill="lightgrey" stroke="black" points="9.97623,-670.282 9.97623,-853.282 173.976,-853.282 173.976,-670.282 9.97623,-670.282"/>
<text text-anchor="middle" x="91.9762" y="-836.682" font-family="Times Roman,serif" font-size="14.00">222111</text>
</g>
<g id="graph7" class="cluster"><title>cluster_6</title>
<polygon fill="lightgrey" stroke="black" points="469.976,-489.282 469.976,-676.282 649.976,-676.282 649.976,-489.282 469.976,-489.282"/>
<text text-anchor="middle" x="559.976" y="-659.682" font-family="Times Roman,serif" font-size="14.00">222220</text>
</g>
<g id="graph8" class="cluster"><title>cluster_7</title>
<polygon fill="none" stroke="black" points="249.976,-229.782 249.976,-443.782 403.976,-443.782 403.976,-229.782 249.976,-229.782"/>
<text text-anchor="middle" x="326.976" y="-427.182" font-family="Times Roman,serif" font-size="14.00">222121</text>
</g>
<g id="graph9" class="cluster"><title>cluster_8</title>
<polygon fill="lightgrey" stroke="black" points="669.476,-9.78178 669.476,-191.782 808.476,-191.782 808.476,-9.78178 669.476,-9.78178"/>
<text text-anchor="middle" x="738.976" y="-175.182" font-family="Times Roman,serif" font-size="14.00">222001</text>
</g>
<g id="graph10" class="cluster"><title>cluster_9</title>
<polygon fill="none" stroke="black" points="429.476,-70.2818 429.476,-221.282 638.476,-221.282 638.476,-70.2818 429.476,-70.2818"/>
<text text-anchor="middle" x="533.976" y="-204.682" font-family="Times Roman,serif" font-size="14.00">222110</text>
</g>
<g id="graph11" class="cluster"><title>cluster_10</title>
<polygon fill="lightgrey" stroke="black" points="609.976,-249.282 609.976,-436.282 789.976,-436.282 789.976,-249.282 609.976,-249.282"/>
<text text-anchor="middle" x="699.976" y="-419.682" font-family="Times Roman,serif" font-size="14.00">222002</text>
</g>
<g id="graph12" class="cluster"><title>cluster_11</title>
<polygon fill="none" stroke="black" points="429.976,-249.782 429.976,-463.782 583.976,-463.782 583.976,-249.782 429.976,-249.782"/>
<text text-anchor="middle" x="506.976" y="-447.182" font-family="Times Roman,serif" font-size="14.00">222101</text>
</g>
<g id="graph13" class="cluster"><title>cluster_12</title>
<polygon fill="lightgrey" stroke="black" points="48.9762,-249.282 48.9762,-434.282 224.976,-434.282 224.976,-249.282 48.9762,-249.282"/>
<text text-anchor="middle" x="136.976" y="-417.682" font-family="Times Roman,serif" font-size="14.00">222100</text>
</g>
<g id="graph14" class="cluster"><title>cluster_13</title>
<polygon fill="none" stroke="black" points="269.976,-689.782 269.976,-833.782 431.976,-833.782 431.976,-689.782 269.976,-689.782"/>
<text text-anchor="middle" x="350.976" y="-817.182" font-family="Times Roman,serif" font-size="14.00">222011</text>
</g>
<g id="graph15" class="cluster"><title>cluster_14</title>
<polygon fill="lightgrey" stroke="black" points="9.97623,-29.2818 9.97623,-216.282 189.976,-216.282 189.976,-29.2818 9.97623,-29.2818"/>
<text text-anchor="middle" x="99.9762" y="-199.682" font-family="Times Roman,serif" font-size="14.00">222000</text>
</g>
<!-- CON2 -->
<g id="node3" class="node"><title>CON2</title>
<text text-anchor="middle" x="245.902" y="-539.36" font-family="Times Roman,serif" font-size="16.00">CON</text>
</g>
<!-- BNF2 -->
<g id="node4" class="node"><title>BNF2</title>
<text text-anchor="middle" x="354.006" y="-542.796" font-family="Times Roman,serif" font-size="16.00">BNF</text>
</g>
<!-- BNF2&#45;&gt;CON2 -->
<g id="edge4" class="edge"><title>BNF2&#45;&gt;CON2</title>
<path fill="none" stroke="black" d="M327.006,-546.338C313.72,-545.916 297.497,-545.4 283.061,-544.941"/>
<polygon fill="black" stroke="black" points="283.039,-541.439 272.933,-544.619 282.816,-548.435 283.039,-541.439"/>
</g>
<!-- D3T2 -->
<g id="node5" class="node"><title>D3T2</title>
<text text-anchor="middle" x="300.969" y="-491.995" font-family="Times Roman,serif" font-size="16.00">D3T</text>
</g>
<!-- D3T2&#45;&gt;CON2 -->
<g id="edge6" class="edge"><title>D3T2&#45;&gt;CON2</title>
<path fill="none" stroke="black" d="M279.836,-514.572C278.111,-516.056 276.351,-517.57 274.584,-519.09"/>
<polygon fill="black" stroke="black" points="272.186,-516.535 266.887,-525.71 276.751,-521.842 272.186,-516.535"/>
</g>
<!-- D3T2&#45;&gt;BNF2 -->
<g id="edge8" class="edge"><title>D3T2&#45;&gt;BNF2</title>
<path fill="none" stroke="black" d="M319.817,-514.449C322.259,-516.787 324.795,-519.217 327.334,-521.648"/>
<polygon fill="black" stroke="black" points="325.218,-524.469 334.861,-528.858 330.06,-519.413 325.218,-524.469"/>
</g>
<!-- OLT2 -->
<g id="node6" class="node"><title>OLT2</title>
<text text-anchor="middle" x="278.778" y="-598.051" font-family="Times Roman,serif" font-size="16.00">OLT</text>
</g>
<!-- D3T2&#45;&gt;OLT2 -->
<g id="edge10" class="edge"><title>D3T2&#45;&gt;OLT2</title>
<path fill="none" stroke="black" d="M297.104,-514.869C293.667,-531.293 288.591,-555.551 284.652,-574.375"/>
<polygon fill="black" stroke="black" points="281.221,-573.684 282.599,-584.189 288.073,-575.118 281.221,-573.684"/>
</g>
<!-- OLT2&#45;&gt;CON2 -->
<g id="edge12" class="edge"><title>OLT2&#45;&gt;CON2</title>
<path fill="none" stroke="black" d="M268.556,-584.203C266.183,-579.967 263.608,-575.369 261.073,-570.844"/>
<polygon fill="black" stroke="black" points="263.945,-568.81 256.004,-561.796 257.838,-572.231 263.945,-568.81"/>
</g>
<!-- CON3 -->
<g id="node13" class="node"><title>CON3</title>
<text text-anchor="middle" x="265.594" y="-80.9008" font-family="Times Roman,serif" font-size="16.00">CON</text>
</g>
<!-- BNF3 -->
<g id="node14" class="node"><title>BNF3</title>
<text text-anchor="middle" x="332.037" y="-89.71" font-family="Times Roman,serif" font-size="16.00">BNF</text>
</g>
<!-- BNF3&#45;&gt;CON3 -->
<g id="edge15" class="edge"><title>BNF3&#45;&gt;CON3</title>
<path fill="none" stroke="black" d="M305.012,-90.527C304.258,-90.4269 303.499,-90.3263 302.737,-90.2253"/>
<polygon fill="black" stroke="black" points="303.184,-86.754 292.811,-88.9093 302.264,-93.6933 303.184,-86.754"/>
</g>
<!-- D3T3 -->
<g id="node15" class="node"><title>D3T3</title>
<text text-anchor="middle" x="308.772" y="-32.8806" font-family="Times Roman,serif" font-size="16.00">D3T</text>
</g>
<!-- D3T3&#45;&gt;CON3 -->
<g id="edge17" class="edge"><title>D3T3&#45;&gt;CON3</title>
<path fill="none" stroke="black" d="M292.448,-55.435C291.266,-56.7497 290.062,-58.0893 288.85,-59.4368"/>
<polygon fill="black" stroke="black" points="286.024,-57.3445 281.941,-67.1207 291.23,-62.0249 286.024,-57.3445"/>
</g>
<!-- D3T3&#45;&gt;BNF3 -->
<g id="edge19" class="edge"><title>D3T3&#45;&gt;BNF3</title>
<path fill="none" stroke="black" d="M316.262,-55.5746C317.673,-59.0221 319.178,-62.6983 320.677,-66.3598"/>
<polygon fill="black" stroke="black" points="317.534,-67.9218 324.562,-75.8503 324.013,-65.2697 317.534,-67.9218"/>
</g>
<!-- OLT3 -->
<g id="node16" class="node"><title>OLT3</title>
<text text-anchor="middle" x="289.809" y="-134.305" font-family="Times Roman,serif" font-size="16.00">OLT</text>
</g>
<!-- OLT3&#45;&gt;CON3 -->
<g id="edge21" class="edge"><title>OLT3&#45;&gt;CON3</title>
<path fill="none" stroke="black" d="M281.611,-120.625C280.428,-118.015 279.188,-115.282 277.946,-112.541"/>
<polygon fill="black" stroke="black" points="281.101,-111.024 273.784,-103.362 274.726,-113.915 281.101,-111.024"/>
</g>
<!-- OLT3&#45;&gt;BNF3 -->
<g id="edge23" class="edge"><title>OLT3&#45;&gt;BNF3</title>
<path fill="none" stroke="black" d="M306.985,-120.566C307.225,-120.313 307.465,-120.059 307.706,-119.805"/>
<polygon fill="black" stroke="black" points="310.405,-122.045 314.74,-112.377 305.323,-117.232 310.405,-122.045"/>
</g>
<!-- CON4 -->
<g id="node23" class="node"><title>CON4</title>
<text text-anchor="middle" x="72.3497" y="-527.036" font-family="Times Roman,serif" font-size="16.00">CON</text>
</g>
<!-- BNF4 -->
<g id="node24" class="node"><title>BNF4</title>
<text text-anchor="middle" x="123.651" y="-574.771" font-family="Times Roman,serif" font-size="16.00">BNF</text>
</g>
<!-- BNF4&#45;&gt;CON4 -->
<g id="edge26" class="edge"><title>BNF4&#45;&gt;CON4</title>
<path fill="none" stroke="black" d="M104.256,-561.125C102.596,-559.58 100.899,-558.001 99.1948,-556.415"/>
<polygon fill="black" stroke="black" points="101.477,-553.758 91.7718,-549.508 96.7084,-558.883 101.477,-553.758"/>
</g>
<!-- D3T4 -->
<g id="node25" class="node"><title>D3T4</title>
<text text-anchor="middle" x="136.274" y="-512.014" font-family="Times Roman,serif" font-size="16.00">D3T</text>
</g>
<!-- D3T4&#45;&gt;CON4 -->
<g id="edge28" class="edge"><title>D3T4&#45;&gt;CON4</title>
<path fill="none" stroke="black" d="M109.164,-522.784C109.066,-522.807 108.968,-522.83 108.87,-522.853"/>
<polygon fill="black" stroke="black" points="108.64,-519.312 99.7055,-525.007 110.241,-526.127 108.64,-519.312"/>
</g>
<!-- D3T4&#45;&gt;BNF4 -->
<g id="edge30" class="edge"><title>D3T4&#45;&gt;BNF4</title>
<path fill="none" stroke="black" d="M132.623,-534.566C131.611,-539.595 130.488,-545.18 129.388,-550.648"/>
<polygon fill="black" stroke="black" points="125.878,-550.349 127.337,-560.843 132.74,-551.729 125.878,-550.349"/>
</g>
<!-- OLT4 -->
<g id="node26" class="node"><title>OLT4</title>
<text text-anchor="middle" x="45.7589" y="-576.394" font-family="Times Roman,serif" font-size="16.00">OLT</text>
</g>
<!-- OLT4&#45;&gt;CON4 -->
<g id="edge32" class="edge"><title>OLT4&#45;&gt;CON4</title>
<path fill="none" stroke="black" d="M55.5093,-562.695C56.2319,-561.354 56.9696,-559.985 57.7129,-558.605"/>
<polygon fill="black" stroke="black" points="60.9388,-559.996 62.6004,-549.533 54.7762,-556.676 60.9388,-559.996"/>
</g>
<!-- CON5 -->
<g id="node32" class="node"><title>CON5</title>
<text text-anchor="middle" x="74.9617" y="-744.874" font-family="Times Roman,serif" font-size="16.00">CON</text>
</g>
<!-- BNF5 -->
<g id="node33" class="node"><title>BNF5</title>
<text text-anchor="middle" x="138.215" y="-739.582" font-family="Times Roman,serif" font-size="16.00">BNF</text>
</g>
<!-- BNF5&#45;&gt;CON5 -->
<g id="edge35" class="edge"><title>BNF5&#45;&gt;CON5</title>
<path fill="none" stroke="black" d="M111.023,-746.257C110.931,-746.265 110.839,-746.272 110.747,-746.28"/>
<polygon fill="black" stroke="black" points="111.804,-742.679 102.131,-747.001 112.388,-749.655 111.804,-742.679"/>
</g>
<!-- D3T5 -->
<g id="node34" class="node"><title>D3T5</title>
<text text-anchor="middle" x="62.8171" y="-692.731" font-family="Times Roman,serif" font-size="16.00">D3T</text>
</g>
<!-- D3T5&#45;&gt;CON5 -->
<g id="edge37" class="edge"><title>D3T5&#45;&gt;CON5</title>
<path fill="none" stroke="black" d="M67.0647,-715.368C67.5059,-717.262 67.9612,-719.217 68.4202,-721.188"/>
<polygon fill="black" stroke="black" points="65.0188,-722.014 70.696,-730.959 71.8363,-720.426 65.0188,-722.014"/>
</g>
<!-- OLT5 -->
<g id="node35" class="node"><title>OLT5</title>
<text text-anchor="middle" x="45.9666" y="-795.656" font-family="Times Roman,serif" font-size="16.00">OLT</text>
</g>
<!-- OLT5&#45;&gt;CON5 -->
<g id="edge39" class="edge"><title>OLT5&#45;&gt;CON5</title>
<path fill="none" stroke="black" d="M56.2708,-782.009C57.2719,-780.256 58.3021,-778.451 59.3401,-776.633"/>
<polygon fill="black" stroke="black" points="62.576,-778.025 64.495,-767.605 56.4971,-774.554 62.576,-778.025"/>
</g>
<!-- CON6 -->
<g id="node40" class="node"><title>CON6</title>
<text text-anchor="middle" x="506.353" y="-556.879" font-family="Times Roman,serif" font-size="16.00">CON</text>
</g>
<!-- BNF6 -->
<g id="node41" class="node"><title>BNF6</title>
<text text-anchor="middle" x="613.531" y="-574.116" font-family="Times Roman,serif" font-size="16.00">BNF</text>
</g>
<!-- BNF6&#45;&gt;CON6 -->
<g id="edge42" class="edge"><title>BNF6&#45;&gt;CON6</title>
<path fill="none" stroke="black" d="M586.485,-574.167C573.411,-572.064 557.517,-569.508 543.343,-567.228"/>
<polygon fill="black" stroke="black" points="543.819,-563.76 533.39,-565.627 542.707,-570.671 543.819,-563.76"/>
</g>
<!-- D3T6 -->
<g id="node42" class="node"><title>D3T6</title>
<text text-anchor="middle" x="569.852" y="-511.694" font-family="Times Roman,serif" font-size="16.00">D3T</text>
</g>
<!-- D3T6&#45;&gt;CON6 -->
<g id="edge44" class="edge"><title>D3T6&#45;&gt;CON6</title>
<path fill="none" stroke="black" d="M544.39,-534.212C542.967,-535.225 541.526,-536.25 540.08,-537.279"/>
<polygon fill="black" stroke="black" points="537.939,-534.507 531.82,-543.157 541.997,-540.21 537.939,-534.507"/>
</g>
<!-- D3T6&#45;&gt;BNF6 -->
<g id="edge46" class="edge"><title>D3T6&#45;&gt;BNF6</title>
<path fill="none" stroke="black" d="M582.485,-534.149C586.345,-539.665 590.674,-545.852 594.846,-551.814"/>
<polygon fill="black" stroke="black" points="592.173,-554.099 600.774,-560.285 597.908,-550.085 592.173,-554.099"/>
</g>
<!-- OLT6 -->
<g id="node43" class="node"><title>OLT6</title>
<text text-anchor="middle" x="550.032" y="-619.302" font-family="Times Roman,serif" font-size="16.00">OLT</text>
</g>
<!-- D3T6&#45;&gt;OLT6 -->
<g id="edge48" class="edge"><title>D3T6&#45;&gt;OLT6</title>
<path fill="none" stroke="black" d="M566.489,-534.348C563.414,-551.044 558.817,-576.006 555.262,-595.307"/>
<polygon fill="black" stroke="black" points="551.78,-594.89 553.411,-605.358 558.664,-596.158 551.78,-594.89"/>
</g>
<!-- OLT6&#45;&gt;CON6 -->
<g id="edge50" class="edge"><title>OLT6&#45;&gt;CON6</title>
<path fill="none" stroke="black" d="M537.398,-605.647C533.539,-600.131 529.21,-593.944 525.037,-587.981"/>
<polygon fill="black" stroke="black" points="527.711,-585.697 519.11,-579.51 521.975,-589.71 527.711,-585.697"/>
</g>
<!-- OLT6&#45;&gt;BNF6 -->
<g id="edge52" class="edge"><title>OLT6&#45;&gt;BNF6</title>
<path fill="none" stroke="black" d="M575.494,-605.584C576.917,-604.571 578.358,-603.546 579.804,-602.516"/>
<polygon fill="black" stroke="black" points="581.945,-605.288 588.064,-596.639 577.887,-599.585 581.945,-605.288"/>
</g>
<!-- CON7 -->
<g id="node51" class="node"><title>CON7</title>
<text text-anchor="middle" x="286.236" y="-309.682" font-family="Times Roman,serif" font-size="16.00">CON</text>
</g>
<!-- BNF7 -->
<g id="node52" class="node"><title>BNF7</title>
<text text-anchor="middle" x="368.441" y="-342.274" font-family="Times Roman,serif" font-size="16.00">BNF</text>
</g>
<!-- BNF7&#45;&gt;CON7 -->
<g id="edge55" class="edge"><title>BNF7&#45;&gt;CON7</title>
<path fill="none" stroke="black" d="M341.068,-335.821C335.244,-333.513 329.005,-331.039 322.898,-328.618"/>
<polygon fill="black" stroke="black" points="324.076,-325.319 313.49,-324.887 321.496,-331.827 324.076,-325.319"/>
</g>
<!-- D3T7 -->
<g id="node53" class="node"><title>D3T7</title>
<text text-anchor="middle" x="310.12" y="-252.853" font-family="Times Roman,serif" font-size="16.00">D3T</text>
</g>
<!-- D3T7&#45;&gt;CON7 -->
<g id="edge57" class="edge"><title>D3T7&#45;&gt;CON7</title>
<path fill="none" stroke="black" d="M302.432,-275.547C300.983,-278.994 299.438,-282.67 297.899,-286.332"/>
<polygon fill="black" stroke="black" points="294.558,-285.247 293.91,-295.822 301.011,-287.96 294.558,-285.247"/>
</g>
<!-- OLT7 -->
<g id="node54" class="node"><title>OLT7</title>
<text text-anchor="middle" x="302.594" y="-386.36" font-family="Times Roman,serif" font-size="16.00">OLT</text>
</g>
<!-- OLT7&#45;&gt;CON7 -->
<g id="edge59" class="edge"><title>OLT7&#45;&gt;CON7</title>
<path fill="none" stroke="black" d="M298.717,-372.588C296.782,-363.516 294.397,-352.339 292.233,-342.192"/>
<polygon fill="black" stroke="black" points="295.594,-341.173 290.085,-332.123 288.748,-342.633 295.594,-341.173"/>
</g>
<!-- OLT7&#45;&gt;BNF7 -->
<g id="edge61" class="edge"><title>OLT7&#45;&gt;BNF7</title>
<path fill="none" stroke="black" d="M329.757,-372.574C330.833,-371.853 331.917,-371.127 333.006,-370.399"/>
<polygon fill="black" stroke="black" points="334.978,-373.29 341.341,-364.818 331.084,-367.473 334.978,-373.29"/>
</g>
<!-- CON8 -->
<g id="node60" class="node"><title>CON8</title>
<text text-anchor="middle" x="705.594" y="-80.9008" font-family="Times Roman,serif" font-size="16.00">CON</text>
</g>
<!-- BNF8 -->
<g id="node61" class="node"><title>BNF8</title>
<text text-anchor="middle" x="772.037" y="-89.71" font-family="Times Roman,serif" font-size="16.00">BNF</text>
</g>
<!-- BNF8&#45;&gt;CON8 -->
<g id="edge64" class="edge"><title>BNF8&#45;&gt;CON8</title>
<path fill="none" stroke="black" d="M745.012,-90.527C744.258,-90.4269 743.499,-90.3263 742.737,-90.2253"/>
<polygon fill="black" stroke="black" points="743.184,-86.754 732.811,-88.9093 742.264,-93.6933 743.184,-86.754"/>
</g>
<!-- D3T8 -->
<g id="node62" class="node"><title>D3T8</title>
<text text-anchor="middle" x="748.772" y="-32.8806" font-family="Times Roman,serif" font-size="16.00">D3T</text>
</g>
<!-- BNF8&#45;&gt;D3T8 -->
<g id="edge66" class="edge"><title>BNF8&#45;&gt;D3T8</title>
<path fill="none" stroke="black" d="M764.548,-75.816C763.137,-72.3685 761.632,-68.6923 760.133,-65.0309"/>
<polygon fill="black" stroke="black" points="763.275,-63.4688 756.248,-55.5403 756.797,-66.1209 763.275,-63.4688"/>
</g>
<!-- OLT8 -->
<g id="node63" class="node"><title>OLT8</title>
<text text-anchor="middle" x="729.809" y="-134.305" font-family="Times Roman,serif" font-size="16.00">OLT</text>
</g>
<!-- BNF8&#45;&gt;OLT8 -->
<g id="edge68" class="edge"><title>BNF8&#45;&gt;OLT8</title>
<path fill="none" stroke="black" d="M754.862,-112.248C754.622,-112.502 754.382,-112.756 754.14,-113.01"/>
<polygon fill="black" stroke="black" points="751.441,-110.77 747.107,-120.438 756.524,-115.583 751.441,-110.77"/>
</g>
<!-- D3T8&#45;&gt;CON8 -->
<g id="edge70" class="edge"><title>D3T8&#45;&gt;CON8</title>
<path fill="none" stroke="black" d="M732.448,-55.435C731.266,-56.7497 730.062,-58.0893 728.85,-59.4368"/>
<polygon fill="black" stroke="black" points="726.024,-57.3445 721.941,-67.1207 731.23,-62.0249 726.024,-57.3445"/>
</g>
<!-- OLT8&#45;&gt;CON8 -->
<g id="edge72" class="edge"><title>OLT8&#45;&gt;CON8</title>
<path fill="none" stroke="black" d="M721.611,-120.625C720.428,-118.015 719.188,-115.282 717.946,-112.541"/>
<polygon fill="black" stroke="black" points="721.101,-111.024 713.784,-103.362 714.726,-113.915 721.101,-111.024"/>
</g>
<!-- CON9 -->
<g id="node70" class="node"><title>CON9</title>
<text text-anchor="middle" x="540.598" y="-140.075" font-family="Times Roman,serif" font-size="16.00">CON</text>
</g>
<!-- BNF9 -->
<g id="node71" class="node"><title>BNF9</title>
<text text-anchor="middle" x="602.848" y="-149.936" font-family="Times Roman,serif" font-size="16.00">BNF</text>
</g>
<!-- BNF9&#45;&gt;CON9 -->
<g id="edge75" class="edge"><title>BNF9&#45;&gt;CON9</title>
<path fill="none" stroke="black" d="M575.726,-150.039C575.562,-150.013 575.398,-149.988 575.234,-149.962"/>
<polygon fill="black" stroke="black" points="578.247,-146.895 567.823,-148.788 577.152,-153.809 578.247,-146.895"/>
</g>
<!-- D3T9 -->
<g id="node72" class="node"><title>D3T9</title>
<text text-anchor="middle" x="476.031" y="-92.7281" font-family="Times Roman,serif" font-size="16.00">D3T</text>
</g>
<!-- D3T9&#45;&gt;CON9 -->
<g id="edge77" class="edge"><title>D3T9&#45;&gt;CON9</title>
<path fill="none" stroke="black" d="M500.809,-115.298C503.143,-117.01 505.532,-118.762 507.924,-120.516"/>
<polygon fill="black" stroke="black" points="505.858,-123.341 515.992,-126.432 509.998,-117.696 505.858,-123.341"/>
</g>
<!-- OLT9 -->
<g id="node73" class="node"><title>OLT9</title>
<text text-anchor="middle" x="465.009" y="-163.526" font-family="Times Roman,serif" font-size="16.00">OLT</text>
</g>
<!-- D3T9&#45;&gt;OLT9 -->
<g id="edge79" class="edge"><title>D3T9&#45;&gt;OLT9</title>
<path fill="none" stroke="black" d="M473.192,-115.36C472.044,-122.735 470.692,-131.421 469.421,-139.586"/>
<polygon fill="black" stroke="black" points="465.956,-139.09 467.876,-149.51 472.872,-140.167 465.956,-139.09"/>
</g>
<!-- OLT9&#45;&gt;CON9 -->
<g id="edge81" class="edge"><title>OLT9&#45;&gt;CON9</title>
<path fill="none" stroke="black" d="M492.298,-159.46C495.937,-158.331 499.718,-157.158 503.49,-155.988"/>
<polygon fill="black" stroke="black" points="504.835,-159.235 513.348,-152.929 502.76,-152.55 504.835,-159.235"/>
</g>
<!-- CON10 -->
<g id="node79" class="node"><title>CON10</title>
<text text-anchor="middle" x="646.353" y="-316.879" font-family="Times Roman,serif" font-size="16.00">CON</text>
</g>
<!-- BNF10 -->
<g id="node80" class="node"><title>BNF10</title>
<text text-anchor="middle" x="753.531" y="-334.116" font-family="Times Roman,serif" font-size="16.00">BNF</text>
</g>
<!-- BNF10&#45;&gt;CON10 -->
<g id="edge84" class="edge"><title>BNF10&#45;&gt;CON10</title>
<path fill="none" stroke="black" d="M726.485,-334.167C713.411,-332.064 697.517,-329.508 683.343,-327.228"/>
<polygon fill="black" stroke="black" points="683.819,-323.76 673.39,-325.627 682.707,-330.671 683.819,-323.76"/>
</g>
<!-- D3T10 -->
<g id="node81" class="node"><title>D3T10</title>
<text text-anchor="middle" x="709.852" y="-271.694" font-family="Times Roman,serif" font-size="16.00">D3T</text>
</g>
<!-- BNF10&#45;&gt;D3T10 -->
<g id="edge86" class="edge"><title>BNF10&#45;&gt;D3T10</title>
<path fill="none" stroke="black" d="M740.897,-320.461C737.037,-314.945 732.708,-308.758 728.536,-302.796"/>
<polygon fill="black" stroke="black" points="731.209,-300.511 722.608,-294.325 725.474,-304.525 731.209,-300.511"/>
</g>
<!-- OLT10 -->
<g id="node82" class="node"><title>OLT10</title>
<text text-anchor="middle" x="690.032" y="-379.302" font-family="Times Roman,serif" font-size="16.00">OLT</text>
</g>
<!-- BNF10&#45;&gt;OLT10 -->
<g id="edge88" class="edge"><title>BNF10&#45;&gt;OLT10</title>
<path fill="none" stroke="black" d="M728.069,-356.635C726.646,-357.648 725.205,-358.673 723.759,-359.702"/>
<polygon fill="black" stroke="black" points="721.618,-356.93 715.499,-365.58 725.676,-362.633 721.618,-356.93"/>
</g>
<!-- D3T10&#45;&gt;CON10 -->
<g id="edge90" class="edge"><title>D3T10&#45;&gt;CON10</title>
<path fill="none" stroke="black" d="M684.39,-294.212C682.967,-295.225 681.526,-296.25 680.08,-297.279"/>
<polygon fill="black" stroke="black" points="677.939,-294.507 671.82,-303.157 681.997,-300.21 677.939,-294.507"/>
</g>
<!-- OLT10&#45;&gt;CON10 -->
<g id="edge92" class="edge"><title>OLT10&#45;&gt;CON10</title>
<path fill="none" stroke="black" d="M677.398,-365.647C673.539,-360.131 669.21,-353.944 665.037,-347.981"/>
<polygon fill="black" stroke="black" points="667.711,-345.697 659.11,-339.51 661.975,-349.71 667.711,-345.697"/>
</g>
<!-- OLT10&#45;&gt;D3T10 -->
<g id="edge94" class="edge"><title>OLT10&#45;&gt;D3T10</title>
<path fill="none" stroke="black" d="M693.394,-365.448C696.469,-348.752 701.067,-323.789 704.622,-304.489"/>
<polygon fill="black" stroke="black" points="708.104,-304.906 706.473,-294.437 701.219,-303.638 708.104,-304.906"/>
</g>
<!-- CON11 -->
<g id="node90" class="node"><title>CON11</title>
<text text-anchor="middle" x="466.236" y="-329.682" font-family="Times Roman,serif" font-size="16.00">CON</text>
</g>
<!-- BNF11 -->
<g id="node91" class="node"><title>BNF11</title>
<text text-anchor="middle" x="548.441" y="-362.274" font-family="Times Roman,serif" font-size="16.00">BNF</text>
</g>
<!-- BNF11&#45;&gt;CON11 -->
<g id="edge97" class="edge"><title>BNF11&#45;&gt;CON11</title>
<path fill="none" stroke="black" d="M521.068,-355.821C515.244,-353.513 509.005,-351.039 502.898,-348.618"/>
<polygon fill="black" stroke="black" points="504.076,-345.319 493.49,-344.887 501.496,-351.827 504.076,-345.319"/>
</g>
<!-- OLT11 -->
<g id="node93" class="node"><title>OLT11</title>
<text text-anchor="middle" x="482.594" y="-406.36" font-family="Times Roman,serif" font-size="16.00">OLT</text>
</g>
<!-- BNF11&#45;&gt;OLT11 -->
<g id="edge99" class="edge"><title>BNF11&#45;&gt;OLT11</title>
<path fill="none" stroke="black" d="M521.278,-384.86C520.202,-385.58 519.118,-386.306 518.03,-387.035"/>
<polygon fill="black" stroke="black" points="516.057,-384.144 509.694,-392.616 519.951,-389.961 516.057,-384.144"/>
</g>
<!-- D3T11 -->
<g id="node92" class="node"><title>D3T11</title>
<text text-anchor="middle" x="490.12" y="-272.853" font-family="Times Roman,serif" font-size="16.00">D3T</text>
</g>
<!-- D3T11&#45;&gt;CON11 -->
<g id="edge101" class="edge"><title>D3T11&#45;&gt;CON11</title>
<path fill="none" stroke="black" d="M482.432,-295.547C480.983,-298.994 479.438,-302.67 477.899,-306.332"/>
<polygon fill="black" stroke="black" points="474.558,-305.247 473.91,-315.822 481.011,-307.96 474.558,-305.247"/>
</g>
<!-- OLT11&#45;&gt;CON11 -->
<g id="edge103" class="edge"><title>OLT11&#45;&gt;CON11</title>
<path fill="none" stroke="black" d="M478.717,-392.588C476.782,-383.516 474.397,-372.339 472.233,-362.192"/>
<polygon fill="black" stroke="black" points="475.594,-361.173 470.085,-352.123 468.748,-362.633 475.594,-361.173"/>
</g>
<!-- CON12 -->
<g id="node99" class="node"><title>CON12</title>
<text text-anchor="middle" x="85.3394" y="-323.999" font-family="Times Roman,serif" font-size="16.00">CON</text>
</g>
<!-- BNF12 -->
<g id="node100" class="node"><title>BNF12</title>
<text text-anchor="middle" x="188.676" y="-340.393" font-family="Times Roman,serif" font-size="16.00">BNF</text>
</g>
<!-- BNF12&#45;&gt;CON12 -->
<g id="edge106" class="edge"><title>BNF12&#45;&gt;CON12</title>
<path fill="none" stroke="black" d="M161.525,-340.486C149.635,-338.599 135.489,-336.355 122.633,-334.316"/>
<polygon fill="black" stroke="black" points="123.092,-330.845 112.667,-332.735 121.995,-337.758 123.092,-330.845"/>
</g>
<!-- OLT12 -->
<g id="node102" class="node"><title>OLT12</title>
<text text-anchor="middle" x="126.179" y="-376.647" font-family="Times Roman,serif" font-size="16.00">OLT</text>
</g>
<!-- BNF12&#45;&gt;OLT12 -->
<g id="edge108" class="edge"><title>BNF12&#45;&gt;OLT12</title>
<path fill="none" stroke="black" d="M161.446,-360.589C161.281,-360.685 161.117,-360.78 160.952,-360.876"/>
<polygon fill="black" stroke="black" points="160.405,-357.147 153.512,-365.192 163.918,-363.201 160.405,-357.147"/>
</g>
<!-- D3T12 -->
<g id="node101" class="node"><title>D3T12</title>
<text text-anchor="middle" x="134.449" y="-272.21" font-family="Times Roman,serif" font-size="16.00">D3T</text>
</g>
<!-- D3T12&#45;&gt;CON12 -->
<g id="edge110" class="edge"><title>D3T12&#45;&gt;CON12</title>
<path fill="none" stroke="black" d="M117.273,-294.723C114.894,-297.232 112.414,-299.848 109.933,-302.464"/>
<polygon fill="black" stroke="black" points="106.93,-300.544 102.589,-310.208 112.01,-305.36 106.93,-300.544"/>
</g>
<!-- D3T12&#45;&gt;OLT12 -->
<g id="edge112" class="edge"><title>D3T12&#45;&gt;OLT12</title>
<path fill="none" stroke="black" d="M133.009,-294.801C131.748,-310.728 129.894,-334.133 128.436,-352.545"/>
<polygon fill="black" stroke="black" points="124.932,-352.469 127.631,-362.714 131.91,-353.021 124.932,-352.469"/>
</g>
<!-- OLT12&#45;&gt;CON12 -->
<g id="edge114" class="edge"><title>OLT12&#45;&gt;CON12</title>
<path fill="none" stroke="black" d="M112.125,-362.929C110.094,-360.311 107.97,-357.574 105.845,-354.834"/>
<polygon fill="black" stroke="black" points="108.454,-352.486 99.5587,-346.73 102.923,-356.776 108.454,-352.486"/>
</g>
<!-- CON13 -->
<g id="node109" class="node"><title>CON13</title>
<text text-anchor="middle" x="332.35" y="-727.036" font-family="Times Roman,serif" font-size="16.00">CON</text>
</g>
<!-- BNF13 -->
<g id="node110" class="node"><title>BNF13</title>
<text text-anchor="middle" x="383.651" y="-774.771" font-family="Times Roman,serif" font-size="16.00">BNF</text>
</g>
<!-- BNF13&#45;&gt;CON13 -->
<g id="edge117" class="edge"><title>BNF13&#45;&gt;CON13</title>
<path fill="none" stroke="black" d="M364.256,-761.125C362.596,-759.58 360.899,-758.001 359.195,-756.415"/>
<polygon fill="black" stroke="black" points="361.477,-753.758 351.772,-749.508 356.708,-758.883 361.477,-753.758"/>
</g>
<!-- D3T13 -->
<g id="node111" class="node"><title>D3T13</title>
<text text-anchor="middle" x="396.274" y="-712.014" font-family="Times Roman,serif" font-size="16.00">D3T</text>
</g>
<!-- BNF13&#45;&gt;D3T13 -->
<g id="edge119" class="edge"><title>BNF13&#45;&gt;D3T13</title>
<path fill="none" stroke="black" d="M387.302,-761.019C388.313,-755.99 389.437,-750.405 390.536,-744.937"/>
<polygon fill="black" stroke="black" points="394.046,-745.236 392.587,-734.742 387.184,-743.856 394.046,-745.236"/>
</g>
<!-- D3T13&#45;&gt;CON13 -->
<g id="edge121" class="edge"><title>D3T13&#45;&gt;CON13</title>
<path fill="none" stroke="black" d="M369.164,-722.784C369.066,-722.807 368.968,-722.83 368.87,-722.853"/>
<polygon fill="black" stroke="black" points="368.64,-719.312 359.705,-725.007 370.241,-726.127 368.64,-719.312"/>
</g>
<!-- OLT13 -->
<g id="node112" class="node"><title>OLT13</title>
<text text-anchor="middle" x="305.759" y="-776.394" font-family="Times Roman,serif" font-size="16.00">OLT</text>
</g>
<!-- OLT13&#45;&gt;CON13 -->
<g id="edge123" class="edge"><title>OLT13&#45;&gt;CON13</title>
<path fill="none" stroke="black" d="M315.509,-762.695C316.232,-761.354 316.97,-759.985 317.713,-758.605"/>
<polygon fill="black" stroke="black" points="320.939,-759.996 322.6,-749.533 314.776,-756.676 320.939,-759.996"/>
</g>
<!-- CON14 -->
<g id="node118" class="node"><title>CON14</title>
<text text-anchor="middle" x="46.3532" y="-96.8791" font-family="Times Roman,serif" font-size="16.00">CON</text>
</g>
<!-- BNF14 -->
<g id="node119" class="node"><title>BNF14</title>
<text text-anchor="middle" x="153.531" y="-114.116" font-family="Times Roman,serif" font-size="16.00">BNF</text>
</g>
<!-- BNF14&#45;&gt;CON14 -->
<g id="edge126" class="edge"><title>BNF14&#45;&gt;CON14</title>
<path fill="none" stroke="black" d="M126.485,-114.167C113.411,-112.064 97.5173,-109.508 83.3425,-107.228"/>
<polygon fill="black" stroke="black" points="83.8188,-103.76 73.3899,-105.627 82.7072,-110.671 83.8188,-103.76"/>
</g>
<!-- D3T14 -->
<g id="node120" class="node"><title>D3T14</title>
<text text-anchor="middle" x="109.852" y="-51.6935" font-family="Times Roman,serif" font-size="16.00">D3T</text>
</g>
<!-- BNF14&#45;&gt;D3T14 -->
<g id="edge128" class="edge"><title>BNF14&#45;&gt;D3T14</title>
<path fill="none" stroke="black" d="M140.897,-100.461C137.037,-94.9453 132.708,-88.7583 128.536,-82.7957"/>
<polygon fill="black" stroke="black" points="131.209,-80.5113 122.608,-74.3245 125.474,-84.5245 131.209,-80.5113"/>
</g>
<!-- OLT14 -->
<g id="node121" class="node"><title>OLT14</title>
<text text-anchor="middle" x="90.0322" y="-159.302" font-family="Times Roman,serif" font-size="16.00">OLT</text>
</g>
<!-- BNF14&#45;&gt;OLT14 -->
<g id="edge130" class="edge"><title>BNF14&#45;&gt;OLT14</title>
<path fill="none" stroke="black" d="M128.069,-136.635C126.646,-137.648 125.205,-138.673 123.759,-139.702"/>
<polygon fill="black" stroke="black" points="121.618,-136.93 115.499,-145.58 125.676,-142.633 121.618,-136.93"/>
</g>
<!-- D3T14&#45;&gt;CON14 -->
<g id="edge132" class="edge"><title>D3T14&#45;&gt;CON14</title>
<path fill="none" stroke="black" d="M84.3902,-74.2119C82.967,-75.2247 81.5261,-76.25 80.0798,-77.2792"/>
<polygon fill="black" stroke="black" points="77.9386,-74.5071 71.8202,-83.1567 81.9972,-80.2105 77.9386,-74.5071"/>
</g>
<!-- D3T14&#45;&gt;OLT14 -->
<g id="edge134" class="edge"><title>D3T14&#45;&gt;OLT14</title>
<path fill="none" stroke="black" d="M106.489,-74.3479C103.414,-91.0439 98.8168,-116.006 95.262,-135.307"/>
<polygon fill="black" stroke="black" points="91.7801,-134.89 93.4107,-145.358 98.6643,-136.158 91.7801,-134.89"/>
</g>
<!-- OLT14&#45;&gt;CON14 -->
<g id="edge136" class="edge"><title>OLT14&#45;&gt;CON14</title>
<path fill="none" stroke="black" d="M77.3984,-145.647C73.5387,-140.131 69.2096,-133.944 65.0374,-127.981"/>
<polygon fill="black" stroke="black" points="67.7107,-125.697 59.1099,-119.51 61.9753,-129.71 67.7107,-125.697"/>
</g>
</g>
</svg>
