<?xml version="1.0" encoding="UTF-8" standalone="no"?>
<!DOCTYPE svg PUBLIC "-//W3C//DTD SVG 1.1//EN"
 "http://www.w3.org/Graphics/SVG/1.1/DTD/svg11.dtd">
<!-- Generated by graphviz version 2.26.3 (20100126.1600)
 -->
<!-- Title: FirstlevelCluster Pages: 1 -->
<svg width="376pt" height="444pt"
 viewBox="0.00 0.00 376.00 444.00" xmlns="http://www.w3.org/2000/svg" xmlns:xlink="http://www.w3.org/1999/xlink">
<g id="graph1" class="graph" transform="scale(1 1) rotate(0) translate(4 440)">
<title>FirstlevelCluster</title>
<polygon fill="white" stroke="white" points="-4,5 -4,-440 373,-440 373,5 -4,5"/>
<g id="graph2" class="cluster"><title>cluster_0</title>
<polygon fill="none" stroke="black" points="1.23812,-0.140888 1.23812,-435.141 367.238,-435.141 367.238,-0.140888 1.23812,-0.140888"/>
<text text-anchor="middle" x="184.238" y="-418.541" font-family="Times Roman,serif" font-size="14.00">D3T~OLT&gt;</text>
</g>
<g id="graph3" class="cluster"><title>cluster_2</title>
<polygon fill="lightgrey" stroke="black" points="10.4762,-28.2818 10.4762,-207.282 176.476,-207.282 176.476,-28.2818 10.4762,-28.2818"/>
<text text-anchor="middle" x="93.4762" y="-190.682" font-family="Times Roman,serif" font-size="14.00">122221</text>
</g>
<g id="graph4" class="cluster"><title>cluster_3</title>
<polygon fill="lightgrey" stroke="black" points="218.976,-8.78178 218.976,-190.782 357.976,-190.782 357.976,-8.78178 218.976,-8.78178"/>
<text text-anchor="middle" x="288.476" y="-174.182" font-family="Times Roman,serif" font-size="14.00">022221</text>
</g>
<g id="graph5" class="cluster"><title>cluster_4</title>
<polygon fill="lightgrey" stroke="black" points="218.976,-217.782 218.976,-399.782 357.976,-399.782 357.976,-217.782 218.976,-217.782"/>
<text text-anchor="middle" x="288.476" y="-383.182" font-family="Times Roman,serif" font-size="14.00">222221</text>
</g>
<!-- CON2 -->
<g id="node3" class="node"><title>CON2</title>
<text text-anchor="middle" x="46.1067" y="-95.1656" font-family="Times Roman,serif" font-size="16.00">CON</text>
</g>
<!-- BNF2 -->
<g id="node4" class="node"><title>BNF2</title>
<text text-anchor="middle" x="140.255" y="-105.542" font-family="Times Roman,serif" font-size="16.00">BNF</text>
</g>
<!-- D3T2 -->
<g id="node5" class="node"><title>D3T2</title>
<text text-anchor="middle" x="106.952" y="-50.7848" font-family="Times Roman,serif" font-size="16.00">D3T</text>
</g>
<!-- D3T2&#45;&gt;CON2 -->
<g id="edge4" class="edge"><title>D3T2&#45;&gt;CON2</title>
<path fill="none" stroke="black" d="M82.2037,-73.2362C81.2825,-73.9081 80.354,-74.5853 79.422,-75.2652"/>
<polygon fill="black" stroke="black" points="77.0468,-72.6655 71.0302,-81.3862 81.172,-78.3209 77.0468,-72.6655"/>
</g>
<!-- D3T2&#45;&gt;BNF2 -->
<g id="edge6" class="edge"><title>D3T2&#45;&gt;BNF2</title>
<path fill="none" stroke="black" d="M118.041,-73.4183C119.875,-76.4341 121.811,-79.6172 123.745,-82.7961"/>
<polygon fill="black" stroke="black" points="120.914,-84.8766 129.1,-91.6017 126.894,-81.2391 120.914,-84.8766"/>
</g>
<!-- OLT2 -->
<g id="node6" class="node"><title>OLT2</title>
<text text-anchor="middle" x="79.41" y="-149.923" font-family="Times Roman,serif" font-size="16.00">OLT</text>
</g>
<!-- OLT2&#45;&gt;CON2 -->
<g id="edge8" class="edge"><title>OLT2&#45;&gt;CON2</title>
<path fill="none" stroke="black" d="M68.3205,-136.09C66.4863,-133.074 64.5503,-129.891 62.6169,-126.712"/>
<polygon fill="black" stroke="black" points="65.4481,-124.631 57.2613,-117.906 59.4674,-128.269 65.4481,-124.631"/>
</g>
<!-- OLT2&#45;&gt;BNF2 -->
<g id="edge10" class="edge"><title>OLT2&#45;&gt;BNF2</title>
<path fill="none" stroke="black" d="M104.158,-136.272C105.079,-135.6 106.008,-134.922 106.94,-134.243"/>
<polygon fill="black" stroke="black" points="109.315,-136.842 115.331,-128.122 105.19,-131.187 109.315,-136.842"/>
</g>
<!-- CON3 -->
<g id="node12" class="node"><title>CON3</title>
<text text-anchor="middle" x="255.094" y="-79.9008" font-family="Times Roman,serif" font-size="16.00">CON</text>
</g>
<!-- BNF3 -->
<g id="node13" class="node"><title>BNF3</title>
<text text-anchor="middle" x="321.537" y="-88.71" font-family="Times Roman,serif" font-size="16.00">BNF</text>
</g>
<!-- CON3&#45;&gt;BNF3 -->
<g id="edge13" class="edge"><title>CON3&#45;&gt;BNF3</title>
<path fill="none" stroke="black" d="M282.119,-87.8838C282.873,-87.9839 283.632,-88.0845 284.394,-88.1855"/>
<polygon fill="black" stroke="black" points="283.947,-91.6568 294.321,-89.5015 284.867,-84.7175 283.947,-91.6568"/>
</g>
<!-- D3T3 -->
<g id="node14" class="node"><title>D3T3</title>
<text text-anchor="middle" x="298.272" y="-31.8806" font-family="Times Roman,serif" font-size="16.00">D3T</text>
</g>
<!-- D3T3&#45;&gt;CON3 -->
<g id="edge15" class="edge"><title>D3T3&#45;&gt;CON3</title>
<path fill="none" stroke="black" d="M281.948,-54.435C280.766,-55.7497 279.562,-57.0893 278.35,-58.4368"/>
<polygon fill="black" stroke="black" points="275.524,-56.3445 271.441,-66.1207 280.73,-61.0249 275.524,-56.3445"/>
</g>
<!-- D3T3&#45;&gt;BNF3 -->
<g id="edge17" class="edge"><title>D3T3&#45;&gt;BNF3</title>
<path fill="none" stroke="black" d="M305.762,-54.5746C307.173,-58.0221 308.678,-61.6983 310.177,-65.3598"/>
<polygon fill="black" stroke="black" points="307.034,-66.9218 314.062,-74.8503 313.513,-64.2697 307.034,-66.9218"/>
</g>
<!-- OLT3 -->
<g id="node15" class="node"><title>OLT3</title>
<text text-anchor="middle" x="279.309" y="-133.305" font-family="Times Roman,serif" font-size="16.00">OLT</text>
</g>
<!-- OLT3&#45;&gt;CON3 -->
<g id="edge19" class="edge"><title>OLT3&#45;&gt;CON3</title>
<path fill="none" stroke="black" d="M271.111,-119.625C269.928,-117.015 268.688,-114.282 267.446,-111.541"/>
<polygon fill="black" stroke="black" points="270.601,-110.024 263.284,-102.362 264.226,-112.915 270.601,-110.024"/>
</g>
<!-- OLT3&#45;&gt;BNF3 -->
<g id="edge21" class="edge"><title>OLT3&#45;&gt;BNF3</title>
<path fill="none" stroke="black" d="M296.485,-119.566C296.725,-119.313 296.965,-119.059 297.206,-118.805"/>
<polygon fill="black" stroke="black" points="299.905,-121.045 304.24,-111.377 294.823,-116.232 299.905,-121.045"/>
</g>
<!-- CON4 -->
<g id="node22" class="node"><title>CON4</title>
<text text-anchor="middle" x="255.094" y="-288.901" font-family="Times Roman,serif" font-size="16.00">CON</text>
</g>
<!-- BNF4 -->
<g id="node23" class="node"><title>BNF4</title>
<text text-anchor="middle" x="321.537" y="-297.71" font-family="Times Roman,serif" font-size="16.00">BNF</text>
</g>
<!-- BNF4&#45;&gt;CON4 -->
<g id="edge24" class="edge"><title>BNF4&#45;&gt;CON4</title>
<path fill="none" stroke="black" d="M294.512,-298.527C293.758,-298.427 292.999,-298.326 292.237,-298.225"/>
<polygon fill="black" stroke="black" points="292.684,-294.754 282.311,-296.909 291.764,-301.693 292.684,-294.754"/>
</g>
<!-- D3T4 -->
<g id="node24" class="node"><title>D3T4</title>
<text text-anchor="middle" x="298.272" y="-240.881" font-family="Times Roman,serif" font-size="16.00">D3T</text>
</g>
<!-- D3T4&#45;&gt;CON4 -->
<g id="edge26" class="edge"><title>D3T4&#45;&gt;CON4</title>
<path fill="none" stroke="black" d="M281.948,-263.435C280.766,-264.75 279.562,-266.089 278.35,-267.437"/>
<polygon fill="black" stroke="black" points="275.524,-265.345 271.441,-275.121 280.73,-270.025 275.524,-265.345"/>
</g>
<!-- D3T4&#45;&gt;BNF4 -->
<g id="edge28" class="edge"><title>D3T4&#45;&gt;BNF4</title>
<path fill="none" stroke="black" d="M305.762,-263.575C307.173,-267.022 308.678,-270.698 310.177,-274.36"/>
<polygon fill="black" stroke="black" points="307.034,-275.922 314.062,-283.85 313.513,-273.27 307.034,-275.922"/>
</g>
<!-- OLT4 -->
<g id="node25" class="node"><title>OLT4</title>
<text text-anchor="middle" x="279.309" y="-342.305" font-family="Times Roman,serif" font-size="16.00">OLT</text>
</g>
<!-- OLT4&#45;&gt;CON4 -->
<g id="edge30" class="edge"><title>OLT4&#45;&gt;CON4</title>
<path fill="none" stroke="black" d="M271.111,-328.625C269.928,-326.015 268.688,-323.282 267.446,-320.541"/>
<polygon fill="black" stroke="black" points="270.601,-319.024 263.284,-311.362 264.226,-321.915 270.601,-319.024"/>
</g>
<!-- OLT4&#45;&gt;BNF4 -->
<g id="edge32" class="edge"><title>OLT4&#45;&gt;BNF4</title>
<path fill="none" stroke="black" d="M296.485,-328.566C296.725,-328.313 296.965,-328.059 297.206,-327.805"/>
<polygon fill="black" stroke="black" points="299.905,-330.045 304.24,-320.377 294.823,-325.232 299.905,-330.045"/>
</g>
</g>
</svg>
