<?xml version="1.0" encoding="UTF-8" standalone="no"?>
<!DOCTYPE svg PUBLIC "-//W3C//DTD SVG 1.1//EN"
 "http://www.w3.org/Graphics/SVG/1.1/DTD/svg11.dtd">
<!-- Generated by graphviz version 2.26.3 (20100126.1600)
 -->
<!-- Title: FirstlevelCluster Pages: 1 -->
<svg width="376pt" height="444pt"
 viewBox="0.00 0.00 376.00 444.00" xmlns="http://www.w3.org/2000/svg" xmlns:xlink="http://www.w3.org/1999/xlink">
<g id="graph1" class="graph" transform="scale(1 1) rotate(0) translate(4 440)">
<title>FirstlevelCluster</title>
<polygon fill="white" stroke="white" points="-4,5 -4,-440 373,-440 373,5 -4,5"/>
<g id="graph2" class="cluster"><title>cluster_0</title>
<polygon fill="none" stroke="black" points="1.23812,-0.140888 1.23812,-435.141 367.238,-435.141 367.238,-0.140888 1.23812,-0.140888"/>
<text text-anchor="middle" x="184.238" y="-418.541" font-family="Times Roman,serif" font-size="14.00">&gt;D3T~OLT</text>
</g>
<g id="graph3" class="cluster"><title>cluster_2</title>
<polygon fill="lightgrey" stroke="black" points="10.4762,-28.2818 10.4762,-207.282 176.476,-207.282 176.476,-28.2818 10.4762,-28.2818"/>
<text text-anchor="middle" x="93.4762" y="-190.682" font-family="Times Roman,serif" font-size="14.00">100001</text>
</g>
<g id="graph4" class="cluster"><title>cluster_3</title>
<polygon fill="lightgrey" stroke="black" points="218.976,-8.78178 218.976,-190.782 357.976,-190.782 357.976,-8.78178 218.976,-8.78178"/>
<text text-anchor="middle" x="288.476" y="-174.182" font-family="Times Roman,serif" font-size="14.00">000001</text>
</g>
<g id="graph5" class="cluster"><title>cluster_4</title>
<polygon fill="lightgrey" stroke="black" points="218.976,-217.782 218.976,-399.782 357.976,-399.782 357.976,-217.782 218.976,-217.782"/>
<text text-anchor="middle" x="288.476" y="-383.182" font-family="Times Roman,serif" font-size="14.00">200001</text>
</g>
<!-- CON2 -->
<g id="node3" class="node"><title>CON2</title>
<text text-anchor="middle" x="46.1067" y="-95.1656" font-family="Times Roman,serif" font-size="16.00">CON</text>
</g>
<!-- D3T2 -->
<g id="node5" class="node"><title>D3T2</title>
<text text-anchor="middle" x="106.952" y="-50.7848" font-family="Times Roman,serif" font-size="16.00">D3T</text>
</g>
<!-- CON2&#45;&gt;D3T2 -->
<g id="edge4" class="edge"><title>CON2&#45;&gt;D3T2</title>
<path fill="none" stroke="black" d="M70.8547,-81.5143C71.7759,-80.8423 72.7043,-80.1651 73.6364,-79.4852"/>
<polygon fill="black" stroke="black" points="76.0115,-82.085 82.0281,-73.3643 71.8864,-76.4296 76.0115,-82.085"/>
</g>
<!-- OLT2 -->
<g id="node6" class="node"><title>OLT2</title>
<text text-anchor="middle" x="79.41" y="-149.923" font-family="Times Roman,serif" font-size="16.00">OLT</text>
</g>
<!-- CON2&#45;&gt;OLT2 -->
<g id="edge6" class="edge"><title>CON2&#45;&gt;OLT2</title>
<path fill="none" stroke="black" d="M57.1962,-117.799C59.0304,-120.815 60.9664,-123.998 62.8998,-127.177"/>
<polygon fill="black" stroke="black" points="60.0686,-129.257 68.2554,-135.982 66.0493,-125.62 60.0686,-129.257"/>
</g>
<!-- BNF2 -->
<g id="node4" class="node"><title>BNF2</title>
<text text-anchor="middle" x="140.255" y="-105.542" font-family="Times Roman,serif" font-size="16.00">BNF</text>
</g>
<!-- BNF2&#45;&gt;D3T2 -->
<g id="edge8" class="edge"><title>BNF2&#45;&gt;D3T2</title>
<path fill="none" stroke="black" d="M129.166,-91.7088C127.331,-88.693 125.395,-85.5099 123.462,-82.3309"/>
<polygon fill="black" stroke="black" points="126.293,-80.2505 118.106,-73.5253 120.312,-83.888 126.293,-80.2505"/>
</g>
<!-- BNF2&#45;&gt;OLT2 -->
<g id="edge10" class="edge"><title>BNF2&#45;&gt;OLT2</title>
<path fill="none" stroke="black" d="M115.507,-127.994C114.586,-128.666 113.657,-129.343 112.725,-130.023"/>
<polygon fill="black" stroke="black" points="110.35,-127.423 104.334,-136.144 114.475,-133.078 110.35,-127.423"/>
</g>
<!-- CON3 -->
<g id="node12" class="node"><title>CON3</title>
<text text-anchor="middle" x="255.094" y="-79.9008" font-family="Times Roman,serif" font-size="16.00">CON</text>
</g>
<!-- BNF3 -->
<g id="node13" class="node"><title>BNF3</title>
<text text-anchor="middle" x="321.537" y="-88.71" font-family="Times Roman,serif" font-size="16.00">BNF</text>
</g>
<!-- CON3&#45;&gt;BNF3 -->
<g id="edge13" class="edge"><title>CON3&#45;&gt;BNF3</title>
<path fill="none" stroke="black" d="M282.119,-87.8838C282.873,-87.9839 283.632,-88.0845 284.394,-88.1855"/>
<polygon fill="black" stroke="black" points="283.947,-91.6568 294.321,-89.5015 284.867,-84.7175 283.947,-91.6568"/>
</g>
<!-- D3T3 -->
<g id="node14" class="node"><title>D3T3</title>
<text text-anchor="middle" x="298.272" y="-31.8806" font-family="Times Roman,serif" font-size="16.00">D3T</text>
</g>
<!-- CON3&#45;&gt;D3T3 -->
<g id="edge15" class="edge"><title>CON3&#45;&gt;D3T3</title>
<path fill="none" stroke="black" d="M271.418,-66.1464C272.6,-64.8317 273.804,-63.4921 275.016,-62.1446"/>
<polygon fill="black" stroke="black" points="277.842,-64.2369 281.925,-54.4607 272.636,-59.5564 277.842,-64.2369"/>
</g>
<!-- OLT3 -->
<g id="node15" class="node"><title>OLT3</title>
<text text-anchor="middle" x="279.309" y="-133.305" font-family="Times Roman,serif" font-size="16.00">OLT</text>
</g>
<!-- CON3&#45;&gt;OLT3 -->
<g id="edge17" class="edge"><title>CON3&#45;&gt;OLT3</title>
<path fill="none" stroke="black" d="M263.292,-102.381C264.475,-104.991 265.715,-107.724 266.957,-110.464"/>
<polygon fill="black" stroke="black" points="263.802,-111.981 271.12,-119.643 270.177,-109.09 263.802,-111.981"/>
</g>
<!-- BNF3&#45;&gt;D3T3 -->
<g id="edge19" class="edge"><title>BNF3&#45;&gt;D3T3</title>
<path fill="none" stroke="black" d="M314.048,-74.816C312.637,-71.3685 311.132,-67.6923 309.633,-64.0309"/>
<polygon fill="black" stroke="black" points="312.775,-62.4688 305.748,-54.5403 306.297,-65.1209 312.775,-62.4688"/>
</g>
<!-- BNF3&#45;&gt;OLT3 -->
<g id="edge21" class="edge"><title>BNF3&#45;&gt;OLT3</title>
<path fill="none" stroke="black" d="M304.362,-111.248C304.122,-111.502 303.882,-111.756 303.64,-112.01"/>
<polygon fill="black" stroke="black" points="300.941,-109.77 296.607,-119.438 306.024,-114.583 300.941,-109.77"/>
</g>
<!-- CON4 -->
<g id="node22" class="node"><title>CON4</title>
<text text-anchor="middle" x="255.094" y="-288.901" font-family="Times Roman,serif" font-size="16.00">CON</text>
</g>
<!-- D3T4 -->
<g id="node24" class="node"><title>D3T4</title>
<text text-anchor="middle" x="298.272" y="-240.881" font-family="Times Roman,serif" font-size="16.00">D3T</text>
</g>
<!-- CON4&#45;&gt;D3T4 -->
<g id="edge24" class="edge"><title>CON4&#45;&gt;D3T4</title>
<path fill="none" stroke="black" d="M271.418,-275.146C272.6,-273.832 273.804,-272.492 275.016,-271.145"/>
<polygon fill="black" stroke="black" points="277.842,-273.237 281.925,-263.461 272.636,-268.556 277.842,-273.237"/>
</g>
<!-- OLT4 -->
<g id="node25" class="node"><title>OLT4</title>
<text text-anchor="middle" x="279.309" y="-342.305" font-family="Times Roman,serif" font-size="16.00">OLT</text>
</g>
<!-- CON4&#45;&gt;OLT4 -->
<g id="edge26" class="edge"><title>CON4&#45;&gt;OLT4</title>
<path fill="none" stroke="black" d="M263.292,-311.381C264.475,-313.991 265.715,-316.724 266.957,-319.464"/>
<polygon fill="black" stroke="black" points="263.802,-320.981 271.12,-328.643 270.177,-318.09 263.802,-320.981"/>
</g>
<!-- BNF4 -->
<g id="node23" class="node"><title>BNF4</title>
<text text-anchor="middle" x="321.537" y="-297.71" font-family="Times Roman,serif" font-size="16.00">BNF</text>
</g>
<!-- BNF4&#45;&gt;CON4 -->
<g id="edge28" class="edge"><title>BNF4&#45;&gt;CON4</title>
<path fill="none" stroke="black" d="M294.512,-298.527C293.758,-298.427 292.999,-298.326 292.237,-298.225"/>
<polygon fill="black" stroke="black" points="292.684,-294.754 282.311,-296.909 291.764,-301.693 292.684,-294.754"/>
</g>
<!-- BNF4&#45;&gt;D3T4 -->
<g id="edge30" class="edge"><title>BNF4&#45;&gt;D3T4</title>
<path fill="none" stroke="black" d="M314.048,-283.816C312.637,-280.368 311.132,-276.692 309.633,-273.031"/>
<polygon fill="black" stroke="black" points="312.775,-271.469 305.748,-263.54 306.297,-274.121 312.775,-271.469"/>
</g>
<!-- BNF4&#45;&gt;OLT4 -->
<g id="edge32" class="edge"><title>BNF4&#45;&gt;OLT4</title>
<path fill="none" stroke="black" d="M304.362,-320.248C304.122,-320.502 303.882,-320.756 303.64,-321.01"/>
<polygon fill="black" stroke="black" points="300.941,-318.77 296.607,-328.438 306.024,-323.583 300.941,-318.77"/>
</g>
</g>
</svg>
