<?xml version="1.0" encoding="UTF-8" standalone="no"?>
<!DOCTYPE svg PUBLIC "-//W3C//DTD SVG 1.1//EN"
 "http://www.w3.org/Graphics/SVG/1.1/DTD/svg11.dtd">
<!-- Generated by graphviz version 2.26.3 (20100126.1600)
 -->
<!-- Title: FirstlevelCluster Pages: 1 -->
<svg width="807pt" height="883pt"
 viewBox="0.00 0.00 807.00 883.00" xmlns="http://www.w3.org/2000/svg" xmlns:xlink="http://www.w3.org/1999/xlink">
<g id="graph1" class="graph" transform="scale(1 1) rotate(0) translate(4 879)">
<title>FirstlevelCluster</title>
<polygon fill="white" stroke="white" points="-4,5 -4,-879 804,-879 804,5 -4,5"/>
<g id="graph2" class="cluster"><title>cluster_0</title>
<polygon fill="none" stroke="black" points="0.738117,-0.640888 0.738117,-874.641 797.738,-874.641 797.738,-0.640888 0.738117,-0.640888"/>
<text text-anchor="middle" x="399.238" y="-858.041" font-family="Times Roman,serif" font-size="14.00">D3T&gt;</text>
</g>
<g id="graph3" class="cluster"><title>cluster_2</title>
<polygon fill="lightgrey" stroke="black" points="448.976,-209.782 448.976,-390.782 626.976,-390.782 626.976,-209.782 448.976,-209.782"/>
<text text-anchor="middle" x="537.976" y="-374.182" font-family="Times Roman,serif" font-size="14.00">021220</text>
</g>
<g id="graph4" class="cluster"><title>cluster_3</title>
<polygon fill="lightgrey" stroke="black" points="329.476,-9.78178 329.476,-166.782 516.476,-166.782 516.476,-9.78178 329.476,-9.78178"/>
<text text-anchor="middle" x="422.976" y="-150.182" font-family="Times Roman,serif" font-size="14.00">122220</text>
</g>
<g id="graph5" class="cluster"><title>cluster_4</title>
<polygon fill="lightgrey" stroke="black" points="449.476,-429.282 449.476,-615.282 630.476,-615.282 630.476,-429.282 449.476,-429.282"/>
<text text-anchor="middle" x="539.976" y="-598.682" font-family="Times Roman,serif" font-size="14.00">222210</text>
</g>
<g id="graph6" class="cluster"><title>cluster_5</title>
<polygon fill="lightgrey" stroke="black" points="229.976,-448.782 229.976,-635.782 409.976,-635.782 409.976,-448.782 229.976,-448.782"/>
<text text-anchor="middle" x="319.976" y="-619.182" font-family="Times Roman,serif" font-size="14.00">022220</text>
</g>
<g id="graph7" class="cluster"><title>cluster_6</title>
<polygon fill="lightgrey" stroke="black" points="229.476,-228.782 229.476,-423.782 406.476,-423.782 406.476,-228.782 229.476,-228.782"/>
<text text-anchor="middle" x="317.976" y="-407.182" font-family="Times Roman,serif" font-size="14.00">121210</text>
</g>
<g id="graph8" class="cluster"><title>cluster_7</title>
<polygon fill="none" stroke="black" points="49.4762,-609.282 49.4762,-795.282 186.476,-795.282 186.476,-609.282 49.4762,-609.282"/>
<text text-anchor="middle" x="117.976" y="-778.682" font-family="Times Roman,serif" font-size="14.00">121220</text>
</g>
<g id="graph9" class="cluster"><title>cluster_8</title>
<polygon fill="none" stroke="black" points="28.9762,-28.7818 28.9762,-187.782 224.976,-187.782 224.976,-28.7818 28.9762,-28.7818"/>
<text text-anchor="middle" x="126.976" y="-171.182" font-family="Times Roman,serif" font-size="14.00">122210</text>
</g>
<g id="graph10" class="cluster"><title>cluster_9</title>
<polygon fill="none" stroke="black" points="649.476,-649.282 649.476,-839.282 788.476,-839.282 788.476,-649.282 649.476,-649.282"/>
<text text-anchor="middle" x="718.976" y="-822.682" font-family="Times Roman,serif" font-size="14.00">021210</text>
</g>
<g id="graph11" class="cluster"><title>cluster_10</title>
<polygon fill="lightgrey" stroke="black" points="9.97623,-328.782 9.97623,-515.782 189.976,-515.782 189.976,-328.782 9.97623,-328.782"/>
<text text-anchor="middle" x="99.9762" y="-499.182" font-family="Times Roman,serif" font-size="14.00">222220</text>
</g>
<g id="graph12" class="cluster"><title>cluster_11</title>
<polygon fill="none" stroke="black" points="469.476,-649.282 469.476,-839.282 608.476,-839.282 608.476,-649.282 469.476,-649.282"/>
<text text-anchor="middle" x="538.976" y="-822.682" font-family="Times Roman,serif" font-size="14.00">221210</text>
</g>
<!-- CON2 -->
<g id="node3" class="node"><title>CON2</title>
<text text-anchor="middle" x="484.609" y="-264.95" font-family="Times Roman,serif" font-size="16.00">CON</text>
</g>
<!-- BNF2 -->
<g id="node4" class="node"><title>BNF2</title>
<text text-anchor="middle" x="590.729" y="-284.932" font-family="Times Roman,serif" font-size="16.00">BNF</text>
</g>
<!-- CON2&#45;&gt;BNF2 -->
<g id="edge4" class="edge"><title>CON2&#45;&gt;BNF2</title>
<path fill="none" stroke="black" d="M511.662,-274.444C524.385,-276.84 539.758,-279.734 553.553,-282.332"/>
<polygon fill="black" stroke="black" points="553.25,-285.836 563.725,-284.247 554.545,-278.957 553.25,-285.836"/>
</g>
<!-- D3T2 -->
<g id="node5" class="node"><title>D3T2</title>
<text text-anchor="middle" x="552.333" y="-232.467" font-family="Times Roman,serif" font-size="16.00">D3T</text>
</g>
<!-- D3T2&#45;&gt;CON2 -->
<g id="edge6" class="edge"><title>D3T2&#45;&gt;CON2</title>
<path fill="none" stroke="black" d="M525.177,-249.892C523.797,-250.554 522.402,-251.223 521.001,-251.895"/>
<polygon fill="black" stroke="black" points="519.274,-248.842 511.771,-256.322 522.301,-255.153 519.274,-248.842"/>
</g>
<!-- D3T2&#45;&gt;BNF2 -->
<g id="edge8" class="edge"><title>D3T2&#45;&gt;BNF2</title>
<path fill="none" stroke="black" d="M565.547,-254.922C567.456,-257.531 569.452,-260.259 571.45,-262.989"/>
<polygon fill="black" stroke="black" points="568.63,-265.062 577.36,-271.065 574.279,-260.928 568.63,-265.062"/>
</g>
<!-- OLT2 -->
<g id="node6" class="node"><title>OLT2</title>
<text text-anchor="middle" x="537.53" y="-333.43" font-family="Times Roman,serif" font-size="16.00">OLT</text>
</g>
<!-- D3T2&#45;&gt;OLT2 -->
<g id="edge10" class="edge"><title>D3T2&#45;&gt;OLT2</title>
<path fill="none" stroke="black" d="M549.687,-254.917C547.469,-270.042 544.264,-291.902 541.701,-309.379"/>
<polygon fill="black" stroke="black" points="538.191,-309.194 540.204,-319.595 545.117,-310.209 538.191,-309.194"/>
</g>
<!-- OLT2&#45;&gt;BNF2 -->
<g id="edge12" class="edge"><title>OLT2&#45;&gt;BNF2</title>
<path fill="none" stroke="black" d="M557.339,-319.771C559.252,-318.027 561.215,-316.238 563.185,-314.442"/>
<polygon fill="black" stroke="black" points="565.693,-316.891 570.726,-307.568 560.978,-311.718 565.693,-316.891"/>
</g>
<!-- CON3 -->
<g id="node13" class="node"><title>CON3</title>
<text text-anchor="middle" x="365.178" y="-60.1294" font-family="Times Roman,serif" font-size="16.00">CON</text>
</g>
<!-- BNF3 -->
<g id="node14" class="node"><title>BNF3</title>
<text text-anchor="middle" x="480.182" y="-81.2548" font-family="Times Roman,serif" font-size="16.00">BNF</text>
</g>
<!-- D3T3 -->
<g id="node15" class="node"><title>D3T3</title>
<text text-anchor="middle" x="430.653" y="-31.9845" font-family="Times Roman,serif" font-size="16.00">D3T</text>
</g>
<!-- D3T3&#45;&gt;CON3 -->
<g id="edge15" class="edge"><title>D3T3&#45;&gt;CON3</title>
<path fill="none" stroke="black" d="M403.643,-47.9946C403.071,-48.2407 402.496,-48.4878 401.92,-48.7356"/>
<polygon fill="black" stroke="black" points="400.353,-45.5994 392.548,-52.7642 403.117,-52.0304 400.353,-45.5994"/>
</g>
<!-- D3T3&#45;&gt;BNF3 -->
<g id="edge17" class="edge"><title>D3T3&#45;&gt;BNF3</title>
<path fill="none" stroke="black" d="M448.814,-54.4512C450.698,-56.3256 452.638,-58.2548 454.584,-60.1908"/>
<polygon fill="black" stroke="black" points="452.464,-63.0191 462.022,-67.5903 457.401,-58.0564 452.464,-63.0191"/>
</g>
<!-- OLT3 -->
<g id="node16" class="node"><title>OLT3</title>
<text text-anchor="middle" x="414.707" y="-109.4" font-family="Times Roman,serif" font-size="16.00">OLT</text>
</g>
<!-- D3T3&#45;&gt;OLT3 -->
<g id="edge19" class="edge"><title>D3T3&#45;&gt;OLT3</title>
<path fill="none" stroke="black" d="M426.874,-54.7308C424.967,-63.9863 422.614,-75.413 420.486,-85.7424"/>
<polygon fill="black" stroke="black" points="417.048,-85.0845 418.459,-95.5851 423.904,-86.4968 417.048,-85.0845"/>
</g>
<!-- OLT3&#45;&gt;CON3 -->
<g id="edge21" class="edge"><title>OLT3&#45;&gt;CON3</title>
<path fill="none" stroke="black" d="M396.545,-95.733C394.661,-93.8586 392.722,-91.9294 390.775,-89.9934"/>
<polygon fill="black" stroke="black" points="392.895,-87.1651 383.337,-82.5939 387.958,-92.1278 392.895,-87.1651"/>
</g>
<!-- OLT3&#45;&gt;BNF3 -->
<g id="edge23" class="edge"><title>OLT3&#45;&gt;BNF3</title>
<path fill="none" stroke="black" d="M441.716,-102.19C442.288,-101.944 442.863,-101.696 443.44,-101.449"/>
<polygon fill="black" stroke="black" points="445.007,-104.585 452.812,-97.4201 442.242,-98.1538 445.007,-104.585"/>
</g>
<!-- CON4 -->
<g id="node23" class="node"><title>CON4</title>
<text text-anchor="middle" x="485.902" y="-498.86" font-family="Times Roman,serif" font-size="16.00">CON</text>
</g>
<!-- BNF4 -->
<g id="node24" class="node"><title>BNF4</title>
<text text-anchor="middle" x="594.006" y="-502.296" font-family="Times Roman,serif" font-size="16.00">BNF</text>
</g>
<!-- BNF4&#45;&gt;CON4 -->
<g id="edge26" class="edge"><title>BNF4&#45;&gt;CON4</title>
<path fill="none" stroke="black" d="M567.006,-505.838C553.72,-505.416 537.497,-504.9 523.061,-504.441"/>
<polygon fill="black" stroke="black" points="523.039,-500.939 512.933,-504.119 522.816,-507.935 523.039,-500.939"/>
</g>
<!-- D3T4 -->
<g id="node25" class="node"><title>D3T4</title>
<text text-anchor="middle" x="540.969" y="-451.495" font-family="Times Roman,serif" font-size="16.00">D3T</text>
</g>
<!-- D3T4&#45;&gt;CON4 -->
<g id="edge28" class="edge"><title>D3T4&#45;&gt;CON4</title>
<path fill="none" stroke="black" d="M519.836,-474.072C518.111,-475.556 516.351,-477.07 514.584,-478.59"/>
<polygon fill="black" stroke="black" points="512.186,-476.035 506.887,-485.21 516.751,-481.342 512.186,-476.035"/>
</g>
<!-- D3T4&#45;&gt;BNF4 -->
<g id="edge30" class="edge"><title>D3T4&#45;&gt;BNF4</title>
<path fill="none" stroke="black" d="M559.817,-473.949C562.259,-476.287 564.795,-478.717 567.334,-481.148"/>
<polygon fill="black" stroke="black" points="565.218,-483.969 574.861,-488.358 570.06,-478.913 565.218,-483.969"/>
</g>
<!-- OLT4 -->
<g id="node26" class="node"><title>OLT4</title>
<text text-anchor="middle" x="518.778" y="-557.551" font-family="Times Roman,serif" font-size="16.00">OLT</text>
</g>
<!-- D3T4&#45;&gt;OLT4 -->
<g id="edge32" class="edge"><title>D3T4&#45;&gt;OLT4</title>
<path fill="none" stroke="black" d="M537.104,-474.369C533.667,-490.793 528.591,-515.051 524.652,-533.875"/>
<polygon fill="black" stroke="black" points="521.221,-533.184 522.599,-543.689 528.073,-534.618 521.221,-533.184"/>
</g>
<!-- OLT4&#45;&gt;CON4 -->
<g id="edge34" class="edge"><title>OLT4&#45;&gt;CON4</title>
<path fill="none" stroke="black" d="M508.556,-543.703C506.183,-539.467 503.608,-534.869 501.073,-530.344"/>
<polygon fill="black" stroke="black" points="503.945,-528.31 496.004,-521.296 497.838,-531.731 503.945,-528.31"/>
</g>
<!-- CON5 -->
<g id="node33" class="node"><title>CON5</title>
<text text-anchor="middle" x="266.353" y="-516.379" font-family="Times Roman,serif" font-size="16.00">CON</text>
</g>
<!-- BNF5 -->
<g id="node34" class="node"><title>BNF5</title>
<text text-anchor="middle" x="373.531" y="-533.616" font-family="Times Roman,serif" font-size="16.00">BNF</text>
</g>
<!-- CON5&#45;&gt;BNF5 -->
<g id="edge37" class="edge"><title>CON5&#45;&gt;BNF5</title>
<path fill="none" stroke="black" d="M293.399,-525.129C306.473,-527.232 322.366,-529.788 336.541,-532.067"/>
<polygon fill="black" stroke="black" points="336.065,-535.536 346.494,-533.668 337.177,-528.625 336.065,-535.536"/>
</g>
<!-- D3T5 -->
<g id="node35" class="node"><title>D3T5</title>
<text text-anchor="middle" x="329.852" y="-471.194" font-family="Times Roman,serif" font-size="16.00">D3T</text>
</g>
<!-- D3T5&#45;&gt;CON5 -->
<g id="edge39" class="edge"><title>D3T5&#45;&gt;CON5</title>
<path fill="none" stroke="black" d="M304.39,-493.712C302.967,-494.725 301.526,-495.75 300.08,-496.779"/>
<polygon fill="black" stroke="black" points="297.939,-494.007 291.82,-502.657 301.997,-499.71 297.939,-494.007"/>
</g>
<!-- D3T5&#45;&gt;BNF5 -->
<g id="edge41" class="edge"><title>D3T5&#45;&gt;BNF5</title>
<path fill="none" stroke="black" d="M342.485,-493.649C346.345,-499.165 350.674,-505.352 354.846,-511.314"/>
<polygon fill="black" stroke="black" points="352.173,-513.599 360.774,-519.785 357.908,-509.585 352.173,-513.599"/>
</g>
<!-- OLT5 -->
<g id="node36" class="node"><title>OLT5</title>
<text text-anchor="middle" x="310.032" y="-578.802" font-family="Times Roman,serif" font-size="16.00">OLT</text>
</g>
<!-- D3T5&#45;&gt;OLT5 -->
<g id="edge43" class="edge"><title>D3T5&#45;&gt;OLT5</title>
<path fill="none" stroke="black" d="M326.489,-493.848C323.414,-510.544 318.817,-535.506 315.262,-554.807"/>
<polygon fill="black" stroke="black" points="311.78,-554.39 313.411,-564.858 318.664,-555.658 311.78,-554.39"/>
</g>
<!-- OLT5&#45;&gt;CON5 -->
<g id="edge45" class="edge"><title>OLT5&#45;&gt;CON5</title>
<path fill="none" stroke="black" d="M297.398,-565.147C293.539,-559.631 289.21,-553.444 285.037,-547.481"/>
<polygon fill="black" stroke="black" points="287.711,-545.197 279.11,-539.01 281.975,-549.21 287.711,-545.197"/>
</g>
<!-- OLT5&#45;&gt;BNF5 -->
<g id="edge47" class="edge"><title>OLT5&#45;&gt;BNF5</title>
<path fill="none" stroke="black" d="M335.494,-565.084C336.917,-564.071 338.358,-563.046 339.804,-562.016"/>
<polygon fill="black" stroke="black" points="341.945,-564.788 348.064,-556.139 337.887,-559.085 341.945,-564.788"/>
</g>
<!-- CON6 -->
<g id="node44" class="node"><title>CON6</title>
<text text-anchor="middle" x="265.64" y="-251.576" font-family="Times Roman,serif" font-size="16.00">CON</text>
</g>
<!-- BNF6 -->
<g id="node45" class="node"><title>BNF6</title>
<text text-anchor="middle" x="370.949" y="-263.864" font-family="Times Roman,serif" font-size="16.00">BNF</text>
</g>
<!-- D3T6 -->
<g id="node46" class="node"><title>D3T6</title>
<text text-anchor="middle" x="311.881" y="-313.162" font-family="Times Roman,serif" font-size="16.00">D3T</text>
</g>
<!-- D3T6&#45;&gt;CON6 -->
<g id="edge50" class="edge"><title>D3T6&#45;&gt;CON6</title>
<path fill="none" stroke="black" d="M298.257,-299.417C294.248,-294.077 289.777,-288.123 285.463,-282.377"/>
<polygon fill="black" stroke="black" points="288.129,-280.099 279.326,-274.204 282.531,-284.302 288.129,-280.099"/>
</g>
<!-- D3T6&#45;&gt;BNF6 -->
<g id="edge52" class="edge"><title>D3T6&#45;&gt;BNF6</title>
<path fill="none" stroke="black" d="M333.54,-299.485C336.108,-297.342 338.762,-295.127 341.416,-292.912"/>
<polygon fill="black" stroke="black" points="343.857,-295.433 349.292,-286.339 339.372,-290.059 343.857,-295.433"/>
</g>
<!-- OLT6 -->
<g id="node47" class="node"><title>OLT6</title>
<text text-anchor="middle" x="304.706" y="-366.419" font-family="Times Roman,serif" font-size="16.00">OLT</text>
</g>
<!-- D3T6&#45;&gt;OLT6 -->
<g id="edge54" class="edge"><title>D3T6&#45;&gt;OLT6</title>
<path fill="none" stroke="black" d="M309.451,-335.592C309.136,-337.935 308.807,-340.377 308.476,-342.834"/>
<polygon fill="black" stroke="black" points="304.999,-342.429 307.132,-352.807 311.936,-343.364 304.999,-342.429"/>
</g>
<!-- CON7 -->
<g id="node52" class="node"><title>CON7</title>
<text text-anchor="middle" x="97.4646" y="-631.884" font-family="Times Roman,serif" font-size="16.00">CON</text>
</g>
<!-- BNF7 -->
<g id="node53" class="node"><title>BNF7</title>
<text text-anchor="middle" x="150.137" y="-737.576" font-family="Times Roman,serif" font-size="16.00">BNF</text>
</g>
<!-- D3T7 -->
<g id="node54" class="node"><title>D3T7</title>
<text text-anchor="middle" x="147.827" y="-681.611" font-family="Times Roman,serif" font-size="16.00">D3T</text>
</g>
<!-- D3T7&#45;&gt;CON7 -->
<g id="edge57" class="edge"><title>D3T7&#45;&gt;CON7</title>
<path fill="none" stroke="black" d="M129.36,-667.777C127.307,-665.75 125.19,-663.659 123.069,-661.565"/>
<polygon fill="black" stroke="black" points="125.504,-659.051 115.929,-654.516 120.586,-664.032 125.504,-659.051"/>
</g>
<!-- D3T7&#45;&gt;BNF7 -->
<g id="edge59" class="edge"><title>D3T7&#45;&gt;BNF7</title>
<path fill="none" stroke="black" d="M148.57,-704.027C148.696,-707.06 148.828,-710.274 148.961,-713.496"/>
<polygon fill="black" stroke="black" points="145.469,-713.762 149.379,-723.609 152.463,-713.474 145.469,-713.762"/>
</g>
<!-- OLT7 -->
<g id="node55" class="node"><title>OLT7</title>
<text text-anchor="middle" x="85.097" y="-716.542" font-family="Times Roman,serif" font-size="16.00">OLT</text>
</g>
<!-- D3T7&#45;&gt;OLT7 -->
<g id="edge61" class="edge"><title>D3T7&#45;&gt;OLT7</title>
<path fill="none" stroke="black" d="M120.495,-701.231C120.408,-701.279 120.322,-701.327 120.235,-701.376"/>
<polygon fill="black" stroke="black" points="119.169,-697.963 112.135,-705.886 122.575,-704.079 119.169,-697.963"/>
</g>
<!-- OLT7&#45;&gt;BNF7 -->
<g id="edge63" class="edge"><title>OLT7&#45;&gt;BNF7</title>
<path fill="none" stroke="black" d="M112.303,-729.74C112.629,-729.846 112.956,-729.952 113.284,-730.058"/>
<polygon fill="black" stroke="black" points="112.239,-733.398 122.831,-733.145 114.393,-726.738 112.239,-733.398"/>
</g>
<!-- CON8 -->
<g id="node61" class="node"><title>CON8</title>
<text text-anchor="middle" x="65.2762" y="-97.6448" font-family="Times Roman,serif" font-size="16.00">CON</text>
</g>
<!-- BNF8 -->
<g id="node62" class="node"><title>BNF8</title>
<text text-anchor="middle" x="188.848" y="-64.4247" font-family="Times Roman,serif" font-size="16.00">BNF</text>
</g>
<!-- D3T8 -->
<g id="node63" class="node"><title>D3T8</title>
<text text-anchor="middle" x="118.294" y="-51.4971" font-family="Times Roman,serif" font-size="16.00">D3T</text>
</g>
<!-- D3T8&#45;&gt;CON8 -->
<g id="edge66" class="edge"><title>D3T8&#45;&gt;CON8</title>
<path fill="none" stroke="black" d="M97.3401,-74.1359C96.1823,-75.1437 95.0097,-76.1643 93.8318,-77.1896"/>
<polygon fill="black" stroke="black" points="91.3231,-74.733 86.0781,-83.9385 95.919,-80.013 91.3231,-74.733"/>
</g>
<!-- D3T8&#45;&gt;BNF8 -->
<g id="edge68" class="edge"><title>D3T8&#45;&gt;BNF8</title>
<path fill="none" stroke="black" d="M145.371,-60.8583C147.435,-61.2366 149.539,-61.6221 151.653,-62.0094"/>
<polygon fill="black" stroke="black" points="151.028,-65.453 161.495,-63.8127 152.289,-58.5677 151.028,-65.453"/>
</g>
<!-- OLT8 -->
<g id="node64" class="node"><title>OLT8</title>
<text text-anchor="middle" x="131.811" y="-130.843" font-family="Times Roman,serif" font-size="16.00">OLT</text>
</g>
<!-- D3T8&#45;&gt;OLT8 -->
<g id="edge70" class="edge"><title>D3T8&#45;&gt;OLT8</title>
<path fill="none" stroke="black" d="M121.361,-73.9018C123.026,-83.673 125.121,-95.9738 126.998,-106.99"/>
<polygon fill="black" stroke="black" points="123.579,-107.764 128.709,-117.034 130.48,-106.589 123.579,-107.764"/>
</g>
<!-- OLT8&#45;&gt;CON8 -->
<g id="edge72" class="edge"><title>OLT8&#45;&gt;CON8</title>
<path fill="none" stroke="black" d="M104.749,-121.74C103.741,-121.237 102.726,-120.731 101.707,-120.222"/>
<polygon fill="black" stroke="black" points="103.041,-116.976 92.5303,-115.643 99.9157,-123.24 103.041,-116.976"/>
</g>
<!-- CON9 -->
<g id="node70" class="node"><title>CON9</title>
<text text-anchor="middle" x="685.164" y="-716.99" font-family="Times Roman,serif" font-size="16.00">CON</text>
</g>
<!-- BNF9 -->
<g id="node71" class="node"><title>BNF9</title>
<text text-anchor="middle" x="736.463" y="-672.201" font-family="Times Roman,serif" font-size="16.00">BNF</text>
</g>
<!-- CON9&#45;&gt;BNF9 -->
<g id="edge75" class="edge"><title>CON9&#45;&gt;BNF9</title>
<path fill="none" stroke="black" d="M706.029,-703.173C706.733,-702.558 707.442,-701.939 708.154,-701.318"/>
<polygon fill="black" stroke="black" points="710.552,-703.871 715.783,-694.657 705.948,-698.598 710.552,-703.871"/>
</g>
<!-- D3T9 -->
<g id="node72" class="node"><title>D3T9</title>
<text text-anchor="middle" x="752.687" y="-732.617" font-family="Times Roman,serif" font-size="16.00">D3T</text>
</g>
<!-- D3T9&#45;&gt;CON9 -->
<g id="edge77" class="edge"><title>D3T9&#45;&gt;CON9</title>
<path fill="none" stroke="black" d="M725.612,-730.751C724.511,-730.496 723.401,-730.239 722.285,-729.981"/>
<polygon fill="black" stroke="black" points="722.777,-726.503 712.245,-727.658 721.199,-733.322 722.777,-726.503"/>
</g>
<!-- D3T9&#45;&gt;BNF9 -->
<g id="edge79" class="edge"><title>D3T9&#45;&gt;BNF9</title>
<path fill="none" stroke="black" d="M747.819,-718.891C746.6,-714.35 745.264,-709.374 743.95,-704.48"/>
<polygon fill="black" stroke="black" points="747.301,-703.465 741.328,-694.715 740.541,-705.281 747.301,-703.465"/>
</g>
<!-- OLT9 -->
<g id="node73" class="node"><title>OLT9</title>
<text text-anchor="middle" x="727.172" y="-782.29" font-family="Times Roman,serif" font-size="16.00">OLT</text>
</g>
<!-- D3T9&#45;&gt;OLT9 -->
<g id="edge81" class="edge"><title>D3T9&#45;&gt;OLT9</title>
<path fill="none" stroke="black" d="M743.331,-755.232C742.638,-756.582 741.93,-757.96 741.217,-759.348"/>
<polygon fill="black" stroke="black" points="737.983,-757.984 736.527,-768.478 744.209,-761.182 737.983,-757.984"/>
</g>
<!-- CON10 -->
<g id="node79" class="node"><title>CON10</title>
<text text-anchor="middle" x="46.3532" y="-396.379" font-family="Times Roman,serif" font-size="16.00">CON</text>
</g>
<!-- BNF10 -->
<g id="node80" class="node"><title>BNF10</title>
<text text-anchor="middle" x="153.531" y="-413.616" font-family="Times Roman,serif" font-size="16.00">BNF</text>
</g>
<!-- BNF10&#45;&gt;CON10 -->
<g id="edge84" class="edge"><title>BNF10&#45;&gt;CON10</title>
<path fill="none" stroke="black" d="M126.485,-413.667C113.411,-411.564 97.5173,-409.008 83.3425,-406.728"/>
<polygon fill="black" stroke="black" points="83.8188,-403.26 73.3899,-405.127 82.7072,-410.171 83.8188,-403.26"/>
</g>
<!-- D3T10 -->
<g id="node81" class="node"><title>D3T10</title>
<text text-anchor="middle" x="109.852" y="-351.194" font-family="Times Roman,serif" font-size="16.00">D3T</text>
</g>
<!-- D3T10&#45;&gt;CON10 -->
<g id="edge86" class="edge"><title>D3T10&#45;&gt;CON10</title>
<path fill="none" stroke="black" d="M84.3902,-373.712C82.967,-374.725 81.5261,-375.75 80.0798,-376.779"/>
<polygon fill="black" stroke="black" points="77.9386,-374.007 71.8202,-382.657 81.9972,-379.71 77.9386,-374.007"/>
</g>
<!-- D3T10&#45;&gt;BNF10 -->
<g id="edge88" class="edge"><title>D3T10&#45;&gt;BNF10</title>
<path fill="none" stroke="black" d="M122.485,-373.649C126.345,-379.165 130.674,-385.352 134.846,-391.314"/>
<polygon fill="black" stroke="black" points="132.173,-393.599 140.774,-399.785 137.908,-389.585 132.173,-393.599"/>
</g>
<!-- OLT10 -->
<g id="node82" class="node"><title>OLT10</title>
<text text-anchor="middle" x="90.0322" y="-458.802" font-family="Times Roman,serif" font-size="16.00">OLT</text>
</g>
<!-- D3T10&#45;&gt;OLT10 -->
<g id="edge90" class="edge"><title>D3T10&#45;&gt;OLT10</title>
<path fill="none" stroke="black" d="M106.489,-373.848C103.414,-390.544 98.8168,-415.506 95.262,-434.807"/>
<polygon fill="black" stroke="black" points="91.7801,-434.39 93.4107,-444.858 98.6643,-435.658 91.7801,-434.39"/>
</g>
<!-- OLT10&#45;&gt;CON10 -->
<g id="edge92" class="edge"><title>OLT10&#45;&gt;CON10</title>
<path fill="none" stroke="black" d="M77.3984,-445.147C73.5387,-439.631 69.2096,-433.444 65.0374,-427.481"/>
<polygon fill="black" stroke="black" points="67.7107,-425.197 59.1099,-419.01 61.9753,-429.21 67.7107,-425.197"/>
</g>
<!-- OLT10&#45;&gt;BNF10 -->
<g id="edge94" class="edge"><title>OLT10&#45;&gt;BNF10</title>
<path fill="none" stroke="black" d="M115.494,-445.084C116.917,-444.071 118.358,-443.046 119.804,-442.016"/>
<polygon fill="black" stroke="black" points="121.945,-444.788 128.064,-436.139 117.887,-439.085 121.945,-444.788"/>
</g>
<!-- CON11 -->
<g id="node90" class="node"><title>CON11</title>
<text text-anchor="middle" x="505.164" y="-716.99" font-family="Times Roman,serif" font-size="16.00">CON</text>
</g>
<!-- BNF11 -->
<g id="node91" class="node"><title>BNF11</title>
<text text-anchor="middle" x="556.463" y="-672.201" font-family="Times Roman,serif" font-size="16.00">BNF</text>
</g>
<!-- BNF11&#45;&gt;CON11 -->
<g id="edge97" class="edge"><title>BNF11&#45;&gt;CON11</title>
<path fill="none" stroke="black" d="M535.598,-694.819C534.894,-695.433 534.185,-696.052 533.474,-696.673"/>
<polygon fill="black" stroke="black" points="531.076,-694.121 525.845,-703.334 535.679,-699.394 531.076,-694.121"/>
</g>
<!-- D3T11 -->
<g id="node92" class="node"><title>D3T11</title>
<text text-anchor="middle" x="572.687" y="-732.617" font-family="Times Roman,serif" font-size="16.00">D3T</text>
</g>
<!-- D3T11&#45;&gt;CON11 -->
<g id="edge99" class="edge"><title>D3T11&#45;&gt;CON11</title>
<path fill="none" stroke="black" d="M545.612,-730.751C544.511,-730.496 543.401,-730.239 542.285,-729.981"/>
<polygon fill="black" stroke="black" points="542.777,-726.503 532.245,-727.658 541.199,-733.322 542.777,-726.503"/>
</g>
<!-- D3T11&#45;&gt;BNF11 -->
<g id="edge101" class="edge"><title>D3T11&#45;&gt;BNF11</title>
<path fill="none" stroke="black" d="M567.819,-718.891C566.6,-714.35 565.264,-709.374 563.95,-704.48"/>
<polygon fill="black" stroke="black" points="567.301,-703.465 561.328,-694.715 560.541,-705.281 567.301,-703.465"/>
</g>
<!-- OLT11 -->
<g id="node93" class="node"><title>OLT11</title>
<text text-anchor="middle" x="547.172" y="-782.29" font-family="Times Roman,serif" font-size="16.00">OLT</text>
</g>
<!-- D3T11&#45;&gt;OLT11 -->
<g id="edge103" class="edge"><title>D3T11&#45;&gt;OLT11</title>
<path fill="none" stroke="black" d="M563.331,-755.232C562.638,-756.582 561.93,-757.96 561.217,-759.348"/>
<polygon fill="black" stroke="black" points="557.983,-757.984 556.527,-768.478 564.209,-761.182 557.983,-757.984"/>
</g>
</g>
</svg>
