<?xml version="1.0" encoding="UTF-8" standalone="no"?>
<!DOCTYPE svg PUBLIC "-//W3C//DTD SVG 1.1//EN"
 "http://www.w3.org/Graphics/SVG/1.1/DTD/svg11.dtd">
<!-- Generated by graphviz version 2.26.3 (20100126.1600)
 -->
<!-- Title: FirstlevelCluster Pages: 1 -->
<svg width="807pt" height="883pt"
 viewBox="0.00 0.00 807.00 883.00" xmlns="http://www.w3.org/2000/svg" xmlns:xlink="http://www.w3.org/1999/xlink">
<g id="graph1" class="graph" transform="scale(1 1) rotate(0) translate(4 879)">
<title>FirstlevelCluster</title>
<polygon fill="white" stroke="white" points="-4,5 -4,-879 804,-879 804,5 -4,5"/>
<g id="graph2" class="cluster"><title>cluster_0</title>
<polygon fill="none" stroke="black" points="0.738117,-0.640888 0.738117,-874.641 797.738,-874.641 797.738,-0.640888 0.738117,-0.640888"/>
<text text-anchor="middle" x="399.238" y="-858.041" font-family="Times Roman,serif" font-size="14.00">&gt;D3T</text>
</g>
<g id="graph3" class="cluster"><title>cluster_2</title>
<polygon fill="lightgrey" stroke="black" points="329.476,-9.78178 329.476,-166.782 516.476,-166.782 516.476,-9.78178 329.476,-9.78178"/>
<text text-anchor="middle" x="422.976" y="-150.182" font-family="Times Roman,serif" font-size="14.00">100002</text>
</g>
<g id="graph4" class="cluster"><title>cluster_3</title>
<polygon fill="lightgrey" stroke="black" points="449.476,-209.282 449.476,-395.282 630.476,-395.282 630.476,-209.282 449.476,-209.282"/>
<text text-anchor="middle" x="539.976" y="-378.682" font-family="Times Roman,serif" font-size="14.00">000012</text>
</g>
<g id="graph5" class="cluster"><title>cluster_4</title>
<polygon fill="lightgrey" stroke="black" points="448.976,-429.782 448.976,-610.782 626.976,-610.782 626.976,-429.782 448.976,-429.782"/>
<text text-anchor="middle" x="537.976" y="-594.182" font-family="Times Roman,serif" font-size="14.00">201002</text>
</g>
<g id="graph6" class="cluster"><title>cluster_5</title>
<polygon fill="lightgrey" stroke="black" points="229.476,-228.782 229.476,-423.782 406.476,-423.782 406.476,-228.782 229.476,-228.782"/>
<text text-anchor="middle" x="317.976" y="-407.182" font-family="Times Roman,serif" font-size="14.00">101012</text>
</g>
<g id="graph7" class="cluster"><title>cluster_6</title>
<polygon fill="lightgrey" stroke="black" points="229.976,-448.782 229.976,-635.782 409.976,-635.782 409.976,-448.782 229.976,-448.782"/>
<text text-anchor="middle" x="319.976" y="-619.182" font-family="Times Roman,serif" font-size="14.00">000002</text>
</g>
<g id="graph8" class="cluster"><title>cluster_7</title>
<polygon fill="none" stroke="black" points="28.9762,-28.7818 28.9762,-187.782 224.976,-187.782 224.976,-28.7818 28.9762,-28.7818"/>
<text text-anchor="middle" x="126.976" y="-171.182" font-family="Times Roman,serif" font-size="14.00">100012</text>
</g>
<g id="graph9" class="cluster"><title>cluster_8</title>
<polygon fill="none" stroke="black" points="49.4762,-609.282 49.4762,-795.282 186.476,-795.282 186.476,-609.282 49.4762,-609.282"/>
<text text-anchor="middle" x="117.976" y="-778.682" font-family="Times Roman,serif" font-size="14.00">101002</text>
</g>
<g id="graph10" class="cluster"><title>cluster_9</title>
<polygon fill="none" stroke="black" points="649.476,-649.282 649.476,-839.282 788.476,-839.282 788.476,-649.282 649.476,-649.282"/>
<text text-anchor="middle" x="718.976" y="-822.682" font-family="Times Roman,serif" font-size="14.00">001012</text>
</g>
<g id="graph11" class="cluster"><title>cluster_10</title>
<polygon fill="lightgrey" stroke="black" points="8.97623,-329.782 8.97623,-510.782 186.976,-510.782 186.976,-329.782 8.97623,-329.782"/>
<text text-anchor="middle" x="97.9762" y="-494.182" font-family="Times Roman,serif" font-size="14.00">001022</text>
</g>
<!-- CON2 -->
<g id="node3" class="node"><title>CON2</title>
<text text-anchor="middle" x="365.178" y="-60.1294" font-family="Times Roman,serif" font-size="16.00">CON</text>
</g>
<!-- D3T2 -->
<g id="node5" class="node"><title>D3T2</title>
<text text-anchor="middle" x="430.653" y="-31.9845" font-family="Times Roman,serif" font-size="16.00">D3T</text>
</g>
<!-- CON2&#45;&gt;D3T2 -->
<g id="edge4" class="edge"><title>CON2&#45;&gt;D3T2</title>
<path fill="none" stroke="black" d="M392.187,-52.9193C392.759,-52.6732 393.334,-52.4262 393.911,-52.1783"/>
<polygon fill="black" stroke="black" points="395.478,-55.3145 403.283,-48.1498 392.713,-48.8835 395.478,-55.3145"/>
</g>
<!-- OLT2 -->
<g id="node6" class="node"><title>OLT2</title>
<text text-anchor="middle" x="414.707" y="-109.4" font-family="Times Roman,serif" font-size="16.00">OLT</text>
</g>
<!-- CON2&#45;&gt;OLT2 -->
<g id="edge6" class="edge"><title>CON2&#45;&gt;OLT2</title>
<path fill="none" stroke="black" d="M383.339,-82.5961C385.224,-84.4705 387.163,-86.3997 389.109,-88.3357"/>
<polygon fill="black" stroke="black" points="386.989,-91.164 396.547,-95.7352 391.926,-86.2013 386.989,-91.164"/>
</g>
<!-- BNF2 -->
<g id="node4" class="node"><title>BNF2</title>
<text text-anchor="middle" x="480.182" y="-81.2548" font-family="Times Roman,serif" font-size="16.00">BNF</text>
</g>
<!-- BNF2&#45;&gt;D3T2 -->
<g id="edge8" class="edge"><title>BNF2&#45;&gt;D3T2</title>
<path fill="none" stroke="black" d="M462.02,-67.5881C460.136,-65.7137 458.197,-63.7845 456.25,-61.8485"/>
<polygon fill="black" stroke="black" points="458.37,-59.0202 448.812,-54.449 453.433,-63.9829 458.37,-59.0202"/>
</g>
<!-- BNF2&#45;&gt;OLT2 -->
<g id="edge10" class="edge"><title>BNF2&#45;&gt;OLT2</title>
<path fill="none" stroke="black" d="M453.173,-97.2649C452.6,-97.511 452.025,-97.7581 451.449,-98.0059"/>
<polygon fill="black" stroke="black" points="449.882,-94.8697 442.077,-102.034 452.646,-101.301 449.882,-94.8697"/>
</g>
<!-- OLT2&#45;&gt;D3T2 -->
<g id="edge12" class="edge"><title>OLT2&#45;&gt;D3T2</title>
<path fill="none" stroke="black" d="M418.486,-95.4534C420.392,-86.1979 422.746,-74.7712 424.873,-64.4418"/>
<polygon fill="black" stroke="black" points="428.311,-65.0997 426.901,-54.5991 421.455,-63.6874 428.311,-65.0997"/>
</g>
<!-- CON3 -->
<g id="node13" class="node"><title>CON3</title>
<text text-anchor="middle" x="485.902" y="-278.86" font-family="Times Roman,serif" font-size="16.00">CON</text>
</g>
<!-- BNF3 -->
<g id="node14" class="node"><title>BNF3</title>
<text text-anchor="middle" x="594.006" y="-282.296" font-family="Times Roman,serif" font-size="16.00">BNF</text>
</g>
<!-- CON3&#45;&gt;BNF3 -->
<g id="edge15" class="edge"><title>CON3&#45;&gt;BNF3</title>
<path fill="none" stroke="black" d="M512.902,-284.118C526.188,-284.541 542.411,-285.056 556.847,-285.515"/>
<polygon fill="black" stroke="black" points="556.869,-289.018 566.975,-285.837 557.091,-282.021 556.869,-289.018"/>
</g>
<!-- D3T3 -->
<g id="node15" class="node"><title>D3T3</title>
<text text-anchor="middle" x="540.969" y="-231.495" font-family="Times Roman,serif" font-size="16.00">D3T</text>
</g>
<!-- CON3&#45;&gt;D3T3 -->
<g id="edge17" class="edge"><title>CON3&#45;&gt;D3T3</title>
<path fill="none" stroke="black" d="M507.035,-265.083C508.76,-263.599 510.52,-262.085 512.287,-260.565"/>
<polygon fill="black" stroke="black" points="514.685,-263.12 519.984,-253.945 510.12,-257.813 514.685,-263.12"/>
</g>
<!-- OLT3 -->
<g id="node16" class="node"><title>OLT3</title>
<text text-anchor="middle" x="518.778" y="-337.551" font-family="Times Roman,serif" font-size="16.00">OLT</text>
</g>
<!-- CON3&#45;&gt;OLT3 -->
<g id="edge19" class="edge"><title>CON3&#45;&gt;OLT3</title>
<path fill="none" stroke="black" d="M496.124,-301.508C498.496,-305.744 501.071,-310.342 503.606,-314.867"/>
<polygon fill="black" stroke="black" points="500.734,-316.901 508.675,-323.916 506.841,-313.481 500.734,-316.901"/>
</g>
<!-- BNF3&#45;&gt;D3T3 -->
<g id="edge21" class="edge"><title>BNF3&#45;&gt;D3T3</title>
<path fill="none" stroke="black" d="M575.158,-268.643C572.716,-266.304 570.18,-263.875 567.642,-261.444"/>
<polygon fill="black" stroke="black" points="569.757,-258.623 560.114,-254.233 564.915,-263.678 569.757,-258.623"/>
</g>
<!-- OLT3&#45;&gt;D3T3 -->
<g id="edge23" class="edge"><title>OLT3&#45;&gt;D3T3</title>
<path fill="none" stroke="black" d="M522.643,-323.478C526.08,-307.053 531.156,-282.796 535.094,-263.972"/>
<polygon fill="black" stroke="black" points="538.526,-264.662 537.148,-254.157 531.674,-263.228 538.526,-264.662"/>
</g>
<!-- CON4 -->
<g id="node23" class="node"><title>CON4</title>
<text text-anchor="middle" x="484.609" y="-484.95" font-family="Times Roman,serif" font-size="16.00">CON</text>
</g>
<!-- D3T4 -->
<g id="node25" class="node"><title>D3T4</title>
<text text-anchor="middle" x="552.333" y="-452.467" font-family="Times Roman,serif" font-size="16.00">D3T</text>
</g>
<!-- CON4&#45;&gt;D3T4 -->
<g id="edge26" class="edge"><title>CON4&#45;&gt;D3T4</title>
<path fill="none" stroke="black" d="M511.765,-476.325C513.145,-475.663 514.54,-474.994 515.942,-474.322"/>
<polygon fill="black" stroke="black" points="517.669,-477.375 525.171,-469.895 514.641,-471.064 517.669,-477.375"/>
</g>
<!-- BNF4 -->
<g id="node24" class="node"><title>BNF4</title>
<text text-anchor="middle" x="590.729" y="-504.932" font-family="Times Roman,serif" font-size="16.00">BNF</text>
</g>
<!-- BNF4&#45;&gt;CON4 -->
<g id="edge28" class="edge"><title>BNF4&#45;&gt;CON4</title>
<path fill="none" stroke="black" d="M563.676,-504.238C550.953,-501.842 535.58,-498.948 521.784,-496.35"/>
<polygon fill="black" stroke="black" points="522.088,-492.846 511.613,-494.435 520.792,-499.725 522.088,-492.846"/>
</g>
<!-- BNF4&#45;&gt;D3T4 -->
<g id="edge30" class="edge"><title>BNF4&#45;&gt;D3T4</title>
<path fill="none" stroke="black" d="M577.515,-491.276C575.606,-488.668 573.61,-485.94 571.612,-483.21"/>
<polygon fill="black" stroke="black" points="574.432,-481.137 565.701,-475.134 568.783,-485.271 574.432,-481.137"/>
</g>
<!-- OLT4 -->
<g id="node26" class="node"><title>OLT4</title>
<text text-anchor="middle" x="537.53" y="-553.43" font-family="Times Roman,serif" font-size="16.00">OLT</text>
</g>
<!-- BNF4&#45;&gt;OLT4 -->
<g id="edge32" class="edge"><title>BNF4&#45;&gt;OLT4</title>
<path fill="none" stroke="black" d="M570.92,-527.391C569.007,-529.134 567.044,-530.924 565.074,-532.72"/>
<polygon fill="black" stroke="black" points="562.565,-530.271 557.533,-539.594 567.281,-535.444 562.565,-530.271"/>
</g>
<!-- OLT4&#45;&gt;D3T4 -->
<g id="edge34" class="edge"><title>OLT4&#45;&gt;D3T4</title>
<path fill="none" stroke="black" d="M540.177,-539.78C542.394,-524.655 545.599,-502.795 548.162,-485.317"/>
<polygon fill="black" stroke="black" points="551.672,-485.503 549.66,-475.101 544.746,-484.488 551.672,-485.503"/>
</g>
<!-- CON5 -->
<g id="node33" class="node"><title>CON5</title>
<text text-anchor="middle" x="265.64" y="-251.576" font-family="Times Roman,serif" font-size="16.00">CON</text>
</g>
<!-- D3T5 -->
<g id="node35" class="node"><title>D3T5</title>
<text text-anchor="middle" x="311.881" y="-313.162" font-family="Times Roman,serif" font-size="16.00">D3T</text>
</g>
<!-- CON5&#45;&gt;D3T5 -->
<g id="edge37" class="edge"><title>CON5&#45;&gt;D3T5</title>
<path fill="none" stroke="black" d="M279.264,-274.121C283.273,-279.461 287.743,-285.415 292.058,-291.161"/>
<polygon fill="black" stroke="black" points="289.391,-293.439 298.195,-299.334 294.989,-289.236 289.391,-293.439"/>
</g>
<!-- BNF5 -->
<g id="node34" class="node"><title>BNF5</title>
<text text-anchor="middle" x="370.949" y="-263.864" font-family="Times Roman,serif" font-size="16.00">BNF</text>
</g>
<!-- BNF5&#45;&gt;D3T5 -->
<g id="edge39" class="edge"><title>BNF5&#45;&gt;D3T5</title>
<path fill="none" stroke="black" d="M349.289,-286.341C346.721,-288.484 344.067,-290.699 341.413,-292.914"/>
<polygon fill="black" stroke="black" points="338.972,-290.393 333.537,-299.487 343.458,-295.767 338.972,-290.393"/>
</g>
<!-- OLT5 -->
<g id="node36" class="node"><title>OLT5</title>
<text text-anchor="middle" x="304.706" y="-366.419" font-family="Times Roman,serif" font-size="16.00">OLT</text>
</g>
<!-- OLT5&#45;&gt;D3T5 -->
<g id="edge41" class="edge"><title>OLT5&#45;&gt;D3T5</title>
<path fill="none" stroke="black" d="M307.135,-352.789C307.45,-350.446 307.779,-348.004 308.11,-345.547"/>
<polygon fill="black" stroke="black" points="311.587,-345.951 309.454,-335.574 304.65,-345.017 311.587,-345.951"/>
</g>
<!-- CON6 -->
<g id="node41" class="node"><title>CON6</title>
<text text-anchor="middle" x="266.353" y="-516.379" font-family="Times Roman,serif" font-size="16.00">CON</text>
</g>
<!-- BNF6 -->
<g id="node42" class="node"><title>BNF6</title>
<text text-anchor="middle" x="373.531" y="-533.616" font-family="Times Roman,serif" font-size="16.00">BNF</text>
</g>
<!-- CON6&#45;&gt;BNF6 -->
<g id="edge44" class="edge"><title>CON6&#45;&gt;BNF6</title>
<path fill="none" stroke="black" d="M293.399,-525.129C306.473,-527.232 322.366,-529.788 336.541,-532.067"/>
<polygon fill="black" stroke="black" points="336.065,-535.536 346.494,-533.668 337.177,-528.625 336.065,-535.536"/>
</g>
<!-- D3T6 -->
<g id="node43" class="node"><title>D3T6</title>
<text text-anchor="middle" x="329.852" y="-471.194" font-family="Times Roman,serif" font-size="16.00">D3T</text>
</g>
<!-- CON6&#45;&gt;D3T6 -->
<g id="edge46" class="edge"><title>CON6&#45;&gt;D3T6</title>
<path fill="none" stroke="black" d="M291.815,-502.661C293.238,-501.648 294.679,-500.623 296.125,-499.593"/>
<polygon fill="black" stroke="black" points="298.266,-502.366 304.385,-493.716 294.208,-496.662 298.266,-502.366"/>
</g>
<!-- OLT6 -->
<g id="node44" class="node"><title>OLT6</title>
<text text-anchor="middle" x="310.032" y="-578.802" font-family="Times Roman,serif" font-size="16.00">OLT</text>
</g>
<!-- CON6&#45;&gt;OLT6 -->
<g id="edge48" class="edge"><title>CON6&#45;&gt;OLT6</title>
<path fill="none" stroke="black" d="M278.987,-538.834C282.847,-544.35 287.176,-550.537 291.348,-556.5"/>
<polygon fill="black" stroke="black" points="288.675,-558.784 297.275,-564.971 294.41,-554.771 288.675,-558.784"/>
</g>
<!-- BNF6&#45;&gt;D3T6 -->
<g id="edge50" class="edge"><title>BNF6&#45;&gt;D3T6</title>
<path fill="none" stroke="black" d="M360.897,-519.961C357.037,-514.445 352.708,-508.258 348.536,-502.296"/>
<polygon fill="black" stroke="black" points="351.209,-500.011 342.608,-493.825 345.474,-504.025 351.209,-500.011"/>
</g>
<!-- BNF6&#45;&gt;OLT6 -->
<g id="edge52" class="edge"><title>BNF6&#45;&gt;OLT6</title>
<path fill="none" stroke="black" d="M348.069,-556.135C346.646,-557.148 345.205,-558.173 343.759,-559.202"/>
<polygon fill="black" stroke="black" points="341.618,-556.43 335.499,-565.08 345.676,-562.133 341.618,-556.43"/>
</g>
<!-- OLT6&#45;&gt;D3T6 -->
<g id="edge54" class="edge"><title>OLT6&#45;&gt;D3T6</title>
<path fill="none" stroke="black" d="M313.394,-564.948C316.469,-548.252 321.067,-523.289 324.622,-503.989"/>
<polygon fill="black" stroke="black" points="328.104,-504.406 326.473,-493.937 321.219,-503.138 328.104,-504.406"/>
</g>
<!-- CON7 -->
<g id="node52" class="node"><title>CON7</title>
<text text-anchor="middle" x="65.2762" y="-97.6448" font-family="Times Roman,serif" font-size="16.00">CON</text>
</g>
<!-- D3T7 -->
<g id="node54" class="node"><title>D3T7</title>
<text text-anchor="middle" x="118.294" y="-51.4971" font-family="Times Roman,serif" font-size="16.00">D3T</text>
</g>
<!-- CON7&#45;&gt;D3T7 -->
<g id="edge57" class="edge"><title>CON7&#45;&gt;D3T7</title>
<path fill="none" stroke="black" d="M86.2303,-83.806C87.3881,-82.7983 88.5607,-81.7777 89.7386,-80.7523"/>
<polygon fill="black" stroke="black" points="92.2473,-83.209 97.4922,-74.0035 87.6514,-77.9289 92.2473,-83.209"/>
</g>
<!-- OLT7 -->
<g id="node55" class="node"><title>OLT7</title>
<text text-anchor="middle" x="131.811" y="-130.843" font-family="Times Roman,serif" font-size="16.00">OLT</text>
</g>
<!-- CON7&#45;&gt;OLT7 -->
<g id="edge59" class="edge"><title>CON7&#45;&gt;OLT7</title>
<path fill="none" stroke="black" d="M92.3384,-115.548C93.3457,-116.05 94.361,-116.557 95.3802,-117.065"/>
<polygon fill="black" stroke="black" points="94.046,-120.311 104.557,-121.644 97.1713,-114.047 94.046,-120.311"/>
</g>
<!-- BNF7 -->
<g id="node53" class="node"><title>BNF7</title>
<text text-anchor="middle" x="188.848" y="-64.4247" font-family="Times Roman,serif" font-size="16.00">BNF</text>
</g>
<!-- BNF7&#45;&gt;D3T7 -->
<g id="edge61" class="edge"><title>BNF7&#45;&gt;D3T7</title>
<path fill="none" stroke="black" d="M161.772,-63.8636C159.708,-63.4853 157.604,-63.0998 155.49,-62.7125"/>
<polygon fill="black" stroke="black" points="156.115,-59.2688 145.648,-60.9092 154.853,-66.1542 156.115,-59.2688"/>
</g>
<!-- OLT7&#45;&gt;D3T7 -->
<g id="edge63" class="edge"><title>OLT7&#45;&gt;D3T7</title>
<path fill="none" stroke="black" d="M128.744,-117.238C127.079,-107.467 124.984,-95.1659 123.107,-84.1494"/>
<polygon fill="black" stroke="black" points="126.526,-83.3754 121.396,-74.1052 119.625,-84.551 126.526,-83.3754"/>
</g>
<!-- CON8 -->
<g id="node61" class="node"><title>CON8</title>
<text text-anchor="middle" x="97.4646" y="-631.884" font-family="Times Roman,serif" font-size="16.00">CON</text>
</g>
<!-- D3T8 -->
<g id="node63" class="node"><title>D3T8</title>
<text text-anchor="middle" x="147.827" y="-681.611" font-family="Times Roman,serif" font-size="16.00">D3T</text>
</g>
<!-- CON8&#45;&gt;D3T8 -->
<g id="edge66" class="edge"><title>CON8&#45;&gt;D3T8</title>
<path fill="none" stroke="black" d="M115.932,-654.518C117.984,-656.545 120.102,-658.635 122.223,-660.73"/>
<polygon fill="black" stroke="black" points="119.787,-663.243 129.362,-667.779 124.705,-658.262 119.787,-663.243"/>
</g>
<!-- BNF8 -->
<g id="node62" class="node"><title>BNF8</title>
<text text-anchor="middle" x="150.137" y="-737.576" font-family="Times Roman,serif" font-size="16.00">BNF</text>
</g>
<!-- BNF8&#45;&gt;D3T8 -->
<g id="edge68" class="edge"><title>BNF8&#45;&gt;D3T8</title>
<path fill="none" stroke="black" d="M149.393,-723.96C149.268,-720.926 149.135,-717.713 149.002,-714.491"/>
<polygon fill="black" stroke="black" points="152.494,-714.224 148.585,-704.377 145.5,-714.513 152.494,-714.224"/>
</g>
<!-- OLT8 -->
<g id="node64" class="node"><title>OLT8</title>
<text text-anchor="middle" x="85.097" y="-716.542" font-family="Times Roman,serif" font-size="16.00">OLT</text>
</g>
<!-- BNF8&#45;&gt;OLT8 -->
<g id="edge70" class="edge"><title>BNF8&#45;&gt;OLT8</title>
<path fill="none" stroke="black" d="M122.931,-733.177C122.605,-733.072 122.277,-732.966 121.95,-732.86"/>
<polygon fill="black" stroke="black" points="122.995,-729.52 112.403,-729.773 120.841,-736.18 122.995,-729.52"/>
</g>
<!-- OLT8&#45;&gt;D3T8 -->
<g id="edge72" class="edge"><title>OLT8&#45;&gt;D3T8</title>
<path fill="none" stroke="black" d="M112.429,-705.723C112.515,-705.674 112.602,-705.626 112.689,-705.578"/>
<polygon fill="black" stroke="black" points="113.755,-708.99 120.788,-701.067 110.349,-702.875 113.755,-708.99"/>
</g>
<!-- CON9 -->
<g id="node70" class="node"><title>CON9</title>
<text text-anchor="middle" x="685.164" y="-716.99" font-family="Times Roman,serif" font-size="16.00">CON</text>
</g>
<!-- BNF9 -->
<g id="node71" class="node"><title>BNF9</title>
<text text-anchor="middle" x="736.463" y="-672.201" font-family="Times Roman,serif" font-size="16.00">BNF</text>
</g>
<!-- CON9&#45;&gt;BNF9 -->
<g id="edge75" class="edge"><title>CON9&#45;&gt;BNF9</title>
<path fill="none" stroke="black" d="M706.029,-703.173C706.733,-702.558 707.442,-701.939 708.154,-701.318"/>
<polygon fill="black" stroke="black" points="710.552,-703.871 715.783,-694.657 705.948,-698.598 710.552,-703.871"/>
</g>
<!-- D3T9 -->
<g id="node72" class="node"><title>D3T9</title>
<text text-anchor="middle" x="752.687" y="-732.617" font-family="Times Roman,serif" font-size="16.00">D3T</text>
</g>
<!-- CON9&#45;&gt;D3T9 -->
<g id="edge77" class="edge"><title>CON9&#45;&gt;D3T9</title>
<path fill="none" stroke="black" d="M712.239,-727.656C713.34,-727.911 714.45,-728.168 715.566,-728.426"/>
<polygon fill="black" stroke="black" points="715.074,-731.905 725.606,-730.75 716.653,-725.085 715.074,-731.905"/>
</g>
<!-- BNF9&#45;&gt;D3T9 -->
<g id="edge79" class="edge"><title>BNF9&#45;&gt;D3T9</title>
<path fill="none" stroke="black" d="M741.331,-694.728C742.55,-699.268 743.886,-704.244 745.201,-709.139"/>
<polygon fill="black" stroke="black" points="741.849,-710.153 747.823,-718.903 748.61,-708.338 741.849,-710.153"/>
</g>
<!-- OLT9 -->
<g id="node73" class="node"><title>OLT9</title>
<text text-anchor="middle" x="727.172" y="-782.29" font-family="Times Roman,serif" font-size="16.00">OLT</text>
</g>
<!-- OLT9&#45;&gt;D3T9 -->
<g id="edge81" class="edge"><title>OLT9&#45;&gt;D3T9</title>
<path fill="none" stroke="black" d="M736.528,-768.476C737.221,-767.126 737.929,-765.748 738.642,-764.36"/>
<polygon fill="black" stroke="black" points="741.876,-765.724 743.332,-755.23 735.65,-762.525 741.876,-765.724"/>
</g>
<!-- CON10 -->
<g id="node79" class="node"><title>CON10</title>
<text text-anchor="middle" x="44.6091" y="-384.95" font-family="Times Roman,serif" font-size="16.00">CON</text>
</g>
<!-- BNF10 -->
<g id="node80" class="node"><title>BNF10</title>
<text text-anchor="middle" x="150.729" y="-404.932" font-family="Times Roman,serif" font-size="16.00">BNF</text>
</g>
<!-- CON10&#45;&gt;BNF10 -->
<g id="edge84" class="edge"><title>CON10&#45;&gt;BNF10</title>
<path fill="none" stroke="black" d="M71.6622,-394.444C84.385,-396.84 99.7583,-399.734 113.553,-402.332"/>
<polygon fill="black" stroke="black" points="113.25,-405.836 123.725,-404.247 114.545,-398.957 113.25,-405.836"/>
</g>
<!-- D3T10 -->
<g id="node81" class="node"><title>D3T10</title>
<text text-anchor="middle" x="112.333" y="-352.467" font-family="Times Roman,serif" font-size="16.00">D3T</text>
</g>
<!-- CON10&#45;&gt;D3T10 -->
<g id="edge86" class="edge"><title>CON10&#45;&gt;D3T10</title>
<path fill="none" stroke="black" d="M71.7649,-376.325C73.1449,-375.663 74.5403,-374.994 75.9416,-374.322"/>
<polygon fill="black" stroke="black" points="77.6686,-377.375 85.1714,-369.895 74.6412,-371.064 77.6686,-377.375"/>
</g>
<!-- BNF10&#45;&gt;D3T10 -->
<g id="edge88" class="edge"><title>BNF10&#45;&gt;D3T10</title>
<path fill="none" stroke="black" d="M137.515,-391.276C135.606,-388.668 133.61,-385.94 131.612,-383.21"/>
<polygon fill="black" stroke="black" points="134.432,-381.137 125.701,-375.134 128.783,-385.271 134.432,-381.137"/>
</g>
<!-- OLT10 -->
<g id="node82" class="node"><title>OLT10</title>
<text text-anchor="middle" x="97.53" y="-453.43" font-family="Times Roman,serif" font-size="16.00">OLT</text>
</g>
<!-- OLT10&#45;&gt;BNF10 -->
<g id="edge90" class="edge"><title>OLT10&#45;&gt;BNF10</title>
<path fill="none" stroke="black" d="M117.339,-439.771C119.252,-438.027 121.215,-436.238 123.185,-434.442"/>
<polygon fill="black" stroke="black" points="125.693,-436.891 130.726,-427.568 120.978,-431.718 125.693,-436.891"/>
</g>
<!-- OLT10&#45;&gt;D3T10 -->
<g id="edge92" class="edge"><title>OLT10&#45;&gt;D3T10</title>
<path fill="none" stroke="black" d="M100.177,-439.78C102.394,-424.655 105.599,-402.795 108.162,-385.317"/>
<polygon fill="black" stroke="black" points="111.672,-385.503 109.66,-375.101 104.746,-384.488 111.672,-385.503"/>
</g>
</g>
</svg>
