<?xml version="1.0" encoding="UTF-8" standalone="no"?>
<!DOCTYPE svg PUBLIC "-//W3C//DTD SVG 1.1//EN"
 "http://www.w3.org/Graphics/SVG/1.1/DTD/svg11.dtd">
<!-- Generated by graphviz version 2.26.3 (20100126.1600)
 -->
<!-- Title: FirstlevelCluster Pages: 1 -->
<svg width="762pt" height="611pt"
 viewBox="0.00 0.00 762.00 611.00" xmlns="http://www.w3.org/2000/svg" xmlns:xlink="http://www.w3.org/1999/xlink">
<g id="graph1" class="graph" transform="scale(1 1) rotate(0) translate(4 607)">
<title>FirstlevelCluster</title>
<polygon fill="white" stroke="white" points="-4,5 -4,-607 759,-607 759,5 -4,5"/>
<g id="graph2" class="cluster"><title>cluster_0</title>
<polygon fill="none" stroke="black" points="1.23812,-1.14089 1.23812,-602.141 753.238,-602.141 753.238,-1.14089 1.23812,-1.14089"/>
<text text-anchor="middle" x="377.238" y="-585.541" font-family="Times Roman,serif" font-size="14.00">OLT&gt;</text>
</g>
<g id="graph3" class="cluster"><title>cluster_2</title>
<polygon fill="lightgrey" stroke="black" points="409.476,-10.2818 409.476,-193.282 573.476,-193.282 573.476,-10.2818 409.476,-10.2818"/>
<text text-anchor="middle" x="491.476" y="-176.682" font-family="Times Roman,serif" font-size="14.00">112122</text>
</g>
<g id="graph4" class="cluster"><title>cluster_3</title>
<polygon fill="none" stroke="black" points="580.476,-408.282 580.476,-567.282 744.476,-567.282 744.476,-408.282 580.476,-408.282"/>
<text text-anchor="middle" x="662.476" y="-550.682" font-family="Times Roman,serif" font-size="14.00">112222</text>
</g>
<g id="graph5" class="cluster"><title>cluster_4</title>
<polygon fill="lightgrey" stroke="black" points="408.976,-219.282 408.976,-376.282 595.976,-376.282 595.976,-219.282 408.976,-219.282"/>
<text text-anchor="middle" x="502.476" y="-359.682" font-family="Times Roman,serif" font-size="14.00">122222</text>
</g>
<g id="graph6" class="cluster"><title>cluster_5</title>
<polygon fill="lightgrey" stroke="black" points="199.976,-28.2818 199.976,-213.282 384.976,-213.282 384.976,-28.2818 199.976,-28.2818"/>
<text text-anchor="middle" x="292.476" y="-196.682" font-family="Times Roman,serif" font-size="14.00">012222</text>
</g>
<g id="graph7" class="cluster"><title>cluster_6</title>
<polygon fill="none" stroke="black" points="218.976,-237.782 218.976,-411.782 381.976,-411.782 381.976,-237.782 218.976,-237.782"/>
<text text-anchor="middle" x="300.476" y="-395.182" font-family="Times Roman,serif" font-size="14.00">012122</text>
</g>
<g id="graph8" class="cluster"><title>cluster_7</title>
<polygon fill="none" stroke="black" points="9.47623,-123.782 9.47623,-285.782 167.476,-285.782 167.476,-123.782 9.47623,-123.782"/>
<text text-anchor="middle" x="88.4762" y="-269.182" font-family="Times Roman,serif" font-size="14.00">122122</text>
</g>
<g id="graph9" class="cluster"><title>cluster_8</title>
<polygon fill="none" stroke="black" points="28.9762,-389.782 28.9762,-563.782 191.976,-563.782 191.976,-389.782 28.9762,-389.782"/>
<text text-anchor="middle" x="110.476" y="-547.182" font-family="Times Roman,serif" font-size="14.00">212122</text>
</g>
<!-- CON2 -->
<g id="node3" class="node"><title>CON2</title>
<text text-anchor="middle" x="445.306" y="-132.635" font-family="Times Roman,serif" font-size="16.00">CON</text>
</g>
<!-- BNF2 -->
<g id="node4" class="node"><title>BNF2</title>
<text text-anchor="middle" x="537.785" y="-135.51" font-family="Times Roman,serif" font-size="16.00">BNF</text>
</g>
<!-- D3T2 -->
<g id="node5" class="node"><title>D3T2</title>
<text text-anchor="middle" x="508.308" y="-32.877" font-family="Times Roman,serif" font-size="16.00">D3T</text>
</g>
<!-- OLT2 -->
<g id="node6" class="node"><title>OLT2</title>
<text text-anchor="middle" x="492.433" y="-85.0027" font-family="Times Roman,serif" font-size="16.00">OLT</text>
</g>
<!-- OLT2&#45;&gt;CON2 -->
<g id="edge4" class="edge"><title>OLT2&#45;&gt;CON2</title>
<path fill="none" stroke="black" d="M474.616,-107.41C473.209,-108.833 471.772,-110.285 470.328,-111.744"/>
<polygon fill="black" stroke="black" points="467.693,-109.431 463.148,-119.002 472.669,-114.355 467.693,-109.431"/>
</g>
<!-- OLT2&#45;&gt;BNF2 -->
<g id="edge6" class="edge"><title>OLT2&#45;&gt;BNF2</title>
<path fill="none" stroke="black" d="M508.806,-107.637C510.757,-109.809 512.775,-112.057 514.796,-114.308"/>
<polygon fill="black" stroke="black" points="512.303,-116.77 521.588,-121.872 517.511,-112.093 512.303,-116.77"/>
</g>
<!-- OLT2&#45;&gt;D3T2 -->
<g id="edge8" class="edge"><title>OLT2&#45;&gt;D3T2</title>
<path fill="none" stroke="black" d="M497.985,-71.1717C498.562,-69.2781 499.157,-67.3236 499.757,-65.3538"/>
<polygon fill="black" stroke="black" points="503.167,-66.1718 502.732,-55.5859 496.47,-64.1324 503.167,-66.1718"/>
</g>
<!-- CON3 -->
<g id="node11" class="node"><title>CON3</title>
<text text-anchor="middle" x="616.824" y="-510.323" font-family="Times Roman,serif" font-size="16.00">CON</text>
</g>
<!-- BNF3 -->
<g id="node12" class="node"><title>BNF3</title>
<text text-anchor="middle" x="708.07" y="-434.195" font-family="Times Roman,serif" font-size="16.00">BNF</text>
</g>
<!-- D3T3 -->
<g id="node13" class="node"><title>D3T3</title>
<text text-anchor="middle" x="639.96" y="-431.002" font-family="Times Roman,serif" font-size="16.00">D3T</text>
</g>
<!-- D3T3&#45;&gt;BNF3 -->
<g id="edge11" class="edge"><title>D3T3&#45;&gt;BNF3</title>
<path fill="none" stroke="black" d="M667.27,-436.682C668.381,-436.734 669.501,-436.787 670.626,-436.84"/>
<polygon fill="black" stroke="black" points="670.6,-440.342 680.753,-437.315 670.928,-433.35 670.6,-440.342"/>
</g>
<!-- OLT3 -->
<g id="node14" class="node"><title>OLT3</title>
<text text-anchor="middle" x="684.865" y="-485.359" font-family="Times Roman,serif" font-size="16.00">OLT</text>
</g>
<!-- OLT3&#45;&gt;CON3 -->
<g id="edge13" class="edge"><title>OLT3&#45;&gt;CON3</title>
<path fill="none" stroke="black" d="M657.582,-499.769C656.334,-500.227 655.074,-500.689 653.808,-501.154"/>
<polygon fill="black" stroke="black" points="652.295,-497.98 644.113,-504.711 654.707,-504.552 652.295,-497.98"/>
</g>
<!-- OLT3&#45;&gt;BNF3 -->
<g id="edge15" class="edge"><title>OLT3&#45;&gt;BNF3</title>
<path fill="none" stroke="black" d="M693.111,-471.577C693.932,-469.767 694.777,-467.904 695.628,-466.027"/>
<polygon fill="black" stroke="black" points="698.907,-467.272 699.85,-456.719 692.532,-464.381 698.907,-467.272"/>
</g>
<!-- OLT3&#45;&gt;D3T3 -->
<g id="edge17" class="edge"><title>OLT3&#45;&gt;D3T3</title>
<path fill="none" stroke="black" d="M669.912,-471.659C667.214,-468.393 664.353,-464.929 661.511,-461.489"/>
<polygon fill="black" stroke="black" points="664.068,-459.089 655,-453.608 658.671,-463.547 664.068,-459.089"/>
</g>
<!-- CON4 -->
<g id="node20" class="node"><title>CON4</title>
<text text-anchor="middle" x="444.678" y="-269.629" font-family="Times Roman,serif" font-size="16.00">CON</text>
</g>
<!-- BNF4 -->
<g id="node21" class="node"><title>BNF4</title>
<text text-anchor="middle" x="559.682" y="-290.755" font-family="Times Roman,serif" font-size="16.00">BNF</text>
</g>
<!-- D3T4 -->
<g id="node22" class="node"><title>D3T4</title>
<text text-anchor="middle" x="510.153" y="-241.485" font-family="Times Roman,serif" font-size="16.00">D3T</text>
</g>
<!-- D3T4&#45;&gt;CON4 -->
<g id="edge20" class="edge"><title>D3T4&#45;&gt;CON4</title>
<path fill="none" stroke="black" d="M483.143,-257.495C482.571,-257.741 481.996,-257.988 481.42,-258.236"/>
<polygon fill="black" stroke="black" points="479.853,-255.099 472.048,-262.264 482.617,-261.53 479.853,-255.099"/>
</g>
<!-- D3T4&#45;&gt;BNF4 -->
<g id="edge22" class="edge"><title>D3T4&#45;&gt;BNF4</title>
<path fill="none" stroke="black" d="M528.314,-263.951C530.198,-265.826 532.138,-267.755 534.084,-269.691"/>
<polygon fill="black" stroke="black" points="531.964,-272.519 541.522,-277.09 536.901,-267.556 531.964,-272.519"/>
</g>
<!-- OLT4 -->
<g id="node23" class="node"><title>OLT4</title>
<text text-anchor="middle" x="494.207" y="-318.9" font-family="Times Roman,serif" font-size="16.00">OLT</text>
</g>
<!-- OLT4&#45;&gt;CON4 -->
<g id="edge24" class="edge"><title>OLT4&#45;&gt;CON4</title>
<path fill="none" stroke="black" d="M476.045,-305.233C474.161,-303.359 472.222,-301.429 470.275,-299.493"/>
<polygon fill="black" stroke="black" points="472.395,-296.665 462.837,-292.094 467.458,-301.628 472.395,-296.665"/>
</g>
<!-- OLT4&#45;&gt;BNF4 -->
<g id="edge26" class="edge"><title>OLT4&#45;&gt;BNF4</title>
<path fill="none" stroke="black" d="M521.216,-311.69C521.788,-311.444 522.363,-311.196 522.94,-310.949"/>
<polygon fill="black" stroke="black" points="524.507,-314.085 532.312,-306.92 521.742,-307.654 524.507,-314.085"/>
</g>
<!-- OLT4&#45;&gt;D3T4 -->
<g id="edge28" class="edge"><title>OLT4&#45;&gt;D3T4</title>
<path fill="none" stroke="black" d="M497.986,-304.953C499.892,-295.698 502.246,-284.271 504.373,-273.942"/>
<polygon fill="black" stroke="black" points="507.811,-274.6 506.401,-264.099 500.955,-273.187 507.811,-274.6"/>
</g>
<!-- CON5 -->
<g id="node30" class="node"><title>CON5</title>
<text text-anchor="middle" x="236.373" y="-96.7422" font-family="Times Roman,serif" font-size="16.00">CON</text>
</g>
<!-- BNF5 -->
<g id="node31" class="node"><title>BNF5</title>
<text text-anchor="middle" x="348.548" y="-115.195" font-family="Times Roman,serif" font-size="16.00">BNF</text>
</g>
<!-- CON5&#45;&gt;BNF5 -->
<g id="edge31" class="edge"><title>CON5&#45;&gt;BNF5</title>
<path fill="none" stroke="black" d="M263.527,-105.609C277.889,-107.971 295.735,-110.907 311.364,-113.478"/>
<polygon fill="black" stroke="black" points="310.819,-116.935 321.255,-115.105 311.956,-110.028 310.819,-116.935"/>
</g>
<!-- D3T5 -->
<g id="node32" class="node"><title>D3T5</title>
<text text-anchor="middle" x="321.792" y="-50.729" font-family="Times Roman,serif" font-size="16.00">D3T</text>
</g>
<!-- D3T5&#45;&gt;BNF5 -->
<g id="edge33" class="edge"><title>D3T5&#45;&gt;BNF5</title>
<path fill="none" stroke="black" d="M329.387,-73.4298C331.78,-79.1949 334.479,-85.6963 337.079,-91.9611"/>
<polygon fill="black" stroke="black" points="333.96,-93.5768 341.026,-101.471 340.425,-90.8933 333.96,-93.5768"/>
</g>
<!-- OLT5 -->
<g id="node33" class="node"><title>OLT5</title>
<text text-anchor="middle" x="282.823" y="-156.171" font-family="Times Roman,serif" font-size="16.00">OLT</text>
</g>
<!-- OLT5&#45;&gt;CON5 -->
<g id="edge35" class="edge"><title>OLT5&#45;&gt;CON5</title>
<path fill="none" stroke="black" d="M268.634,-142.417C264.852,-137.579 260.692,-132.256 256.652,-127.087"/>
<polygon fill="black" stroke="black" points="259.391,-124.908 250.475,-119.184 253.876,-129.219 259.391,-124.908"/>
</g>
<!-- OLT5&#45;&gt;BNF5 -->
<g id="edge37" class="edge"><title>OLT5&#45;&gt;BNF5</title>
<path fill="none" stroke="black" d="M309.936,-143.668C310.89,-143.072 311.852,-142.473 312.816,-141.871"/>
<polygon fill="black" stroke="black" points="314.864,-144.719 321.498,-136.459 311.161,-138.779 314.864,-144.719"/>
</g>
<!-- OLT5&#45;&gt;D3T5 -->
<g id="edge39" class="edge"><title>OLT5&#45;&gt;D3T5</title>
<path fill="none" stroke="black" d="M289.611,-142.204C295.674,-125.799 304.641,-101.534 311.571,-82.7832"/>
<polygon fill="black" stroke="black" points="314.898,-83.8784 315.082,-73.2851 308.332,-81.4517 314.898,-83.8784"/>
</g>
<!-- CON6 -->
<g id="node40" class="node"><title>CON6</title>
<text text-anchor="middle" x="255.088" y="-353.08" font-family="Times Roman,serif" font-size="16.00">CON</text>
</g>
<!-- BNF6 -->
<g id="node41" class="node"><title>BNF6</title>
<text text-anchor="middle" x="336.956" y="-354.648" font-family="Times Roman,serif" font-size="16.00">BNF</text>
</g>
<!-- CON6&#45;&gt;BNF6 -->
<g id="edge42" class="edge"><title>CON6&#45;&gt;BNF6</title>
<path fill="none" stroke="black" d="M282.349,-358.002C287.872,-358.108 293.771,-358.221 299.574,-358.332"/>
<polygon fill="black" stroke="black" points="299.749,-361.836 309.814,-358.528 299.883,-354.837 299.749,-361.836"/>
</g>
<!-- D3T6 -->
<g id="node42" class="node"><title>D3T6</title>
<text text-anchor="middle" x="346.465" y="-260.077" font-family="Times Roman,serif" font-size="16.00">D3T</text>
</g>
<!-- OLT6 -->
<g id="node43" class="node"><title>OLT6</title>
<text text-anchor="middle" x="280.199" y="-297.124" font-family="Times Roman,serif" font-size="16.00">OLT</text>
</g>
<!-- OLT6&#45;&gt;CON6 -->
<g id="edge44" class="edge"><title>OLT6&#45;&gt;CON6</title>
<path fill="none" stroke="black" d="M272.116,-319.537C270.623,-322.864 269.033,-326.407 267.447,-329.94"/>
<polygon fill="black" stroke="black" points="264.23,-328.561 263.329,-339.117 270.616,-331.427 264.23,-328.561"/>
</g>
<!-- OLT6&#45;&gt;BNF6 -->
<g id="edge46" class="edge"><title>OLT6&#45;&gt;BNF6</title>
<path fill="none" stroke="black" d="M298.157,-319.725C302.505,-324.132 307.232,-328.922 311.842,-333.595"/>
<polygon fill="black" stroke="black" points="309.405,-336.108 318.92,-340.768 314.388,-331.191 309.405,-336.108"/>
</g>
<!-- OLT6&#45;&gt;D3T6 -->
<g id="edge48" class="edge"><title>OLT6&#45;&gt;D3T6</title>
<path fill="none" stroke="black" d="M307.535,-286.242C308.497,-285.704 309.466,-285.162 310.439,-284.618"/>
<polygon fill="black" stroke="black" points="312.172,-287.659 319.192,-279.724 308.756,-281.549 312.172,-287.659"/>
</g>
<!-- CON7 -->
<g id="node49" class="node"><title>CON7</title>
<text text-anchor="middle" x="45.0123" y="-146.946" font-family="Times Roman,serif" font-size="16.00">CON</text>
</g>
<!-- BNF7 -->
<g id="node50" class="node"><title>BNF7</title>
<text text-anchor="middle" x="131.698" y="-228.224" font-family="Times Roman,serif" font-size="16.00">BNF</text>
</g>
<!-- D3T7 -->
<g id="node51" class="node"><title>D3T7</title>
<text text-anchor="middle" x="113.005" y="-146.111" font-family="Times Roman,serif" font-size="16.00">D3T</text>
</g>
<!-- D3T7&#45;&gt;CON7 -->
<g id="edge51" class="edge"><title>D3T7&#45;&gt;CON7</title>
<path fill="none" stroke="black" d="M85.7414,-150.846C84.633,-150.859 83.5147,-150.873 82.3914,-150.887"/>
<polygon fill="black" stroke="black" points="82.238,-147.388 72.2818,-151.011 82.3241,-154.388 82.238,-147.388"/>
</g>
<!-- OLT7 -->
<g id="node52" class="node"><title>OLT7</title>
<text text-anchor="middle" x="66.093" y="-198.359" font-family="Times Roman,serif" font-size="16.00">OLT</text>
</g>
<!-- OLT7&#45;&gt;CON7 -->
<g id="edge53" class="edge"><title>OLT7&#45;&gt;CON7</title>
<path fill="none" stroke="black" d="M58.6014,-184.488C57.8558,-182.67 57.088,-180.797 56.3147,-178.911"/>
<polygon fill="black" stroke="black" points="59.512,-177.483 52.4798,-169.558 53.0353,-180.139 59.512,-177.483"/>
</g>
<!-- OLT7&#45;&gt;BNF7 -->
<g id="edge55" class="edge"><title>OLT7&#45;&gt;BNF7</title>
<path fill="none" stroke="black" d="M93.1557,-215.079C93.8704,-215.404 94.5889,-215.731 95.3097,-216.059"/>
<polygon fill="black" stroke="black" points="94.1457,-219.375 104.697,-220.333 97.046,-213.004 94.1457,-219.375"/>
</g>
<!-- OLT7&#45;&gt;D3T7 -->
<g id="edge57" class="edge"><title>OLT7&#45;&gt;D3T7</title>
<path fill="none" stroke="black" d="M82.5004,-184.485C84.7727,-181.954 87.1423,-179.315 89.5123,-176.675"/>
<polygon fill="black" stroke="black" points="92.4506,-178.642 96.5272,-168.863 87.242,-173.965 92.4506,-178.642"/>
</g>
<!-- CON8 -->
<g id="node58" class="node"><title>CON8</title>
<text text-anchor="middle" x="65.0879" y="-505.08" font-family="Times Roman,serif" font-size="16.00">CON</text>
</g>
<!-- BNF8 -->
<g id="node59" class="node"><title>BNF8</title>
<text text-anchor="middle" x="146.956" y="-506.648" font-family="Times Roman,serif" font-size="16.00">BNF</text>
</g>
<!-- BNF8&#45;&gt;CON8 -->
<g id="edge60" class="edge"><title>BNF8&#45;&gt;CON8</title>
<path fill="none" stroke="black" d="M119.695,-510.526C114.171,-510.42 108.272,-510.307 102.47,-510.196"/>
<polygon fill="black" stroke="black" points="102.295,-506.692 92.2296,-510 102.161,-513.691 102.295,-506.692"/>
</g>
<!-- D3T8 -->
<g id="node60" class="node"><title>D3T8</title>
<text text-anchor="middle" x="156.465" y="-412.077" font-family="Times Roman,serif" font-size="16.00">D3T</text>
</g>
<!-- OLT8 -->
<g id="node61" class="node"><title>OLT8</title>
<text text-anchor="middle" x="90.1993" y="-449.124" font-family="Times Roman,serif" font-size="16.00">OLT</text>
</g>
<!-- OLT8&#45;&gt;CON8 -->
<g id="edge62" class="edge"><title>OLT8&#45;&gt;CON8</title>
<path fill="none" stroke="black" d="M82.1157,-471.537C80.6228,-474.864 79.0328,-478.407 77.4471,-481.94"/>
<polygon fill="black" stroke="black" points="74.23,-480.561 73.3288,-491.117 80.6163,-483.427 74.23,-480.561"/>
</g>
<!-- OLT8&#45;&gt;BNF8 -->
<g id="edge64" class="edge"><title>OLT8&#45;&gt;BNF8</title>
<path fill="none" stroke="black" d="M108.157,-471.725C112.505,-476.132 117.232,-480.922 121.842,-485.595"/>
<polygon fill="black" stroke="black" points="119.405,-488.108 128.92,-492.768 124.388,-483.191 119.405,-488.108"/>
</g>
<!-- OLT8&#45;&gt;D3T8 -->
<g id="edge66" class="edge"><title>OLT8&#45;&gt;D3T8</title>
<path fill="none" stroke="black" d="M117.535,-438.242C118.497,-437.704 119.466,-437.162 120.439,-436.618"/>
<polygon fill="black" stroke="black" points="122.172,-439.659 129.192,-431.724 118.756,-433.549 122.172,-439.659"/>
</g>
</g>
</svg>
