<?xml version="1.0" encoding="UTF-8" standalone="no"?>
<!DOCTYPE svg PUBLIC "-//W3C//DTD SVG 1.1//EN"
 "http://www.w3.org/Graphics/SVG/1.1/DTD/svg11.dtd">
<!-- Generated by graphviz version 2.26.3 (20100126.1600)
 -->
<!-- Title: FirstlevelCluster Pages: 1 -->
<svg width="792pt" height="659pt"
 viewBox="0.00 0.00 792.00 659.00" xmlns="http://www.w3.org/2000/svg" xmlns:xlink="http://www.w3.org/1999/xlink">
<g id="graph1" class="graph" transform="scale(1 1) rotate(0) translate(4 655)">
<title>FirstlevelCluster</title>
<polygon fill="white" stroke="white" points="-4,5 -4,-655 789,-655 789,5 -4,5"/>
<g id="graph2" class="cluster"><title>cluster_0</title>
<polygon fill="none" stroke="black" points="1.23812,-0.640888 1.23812,-650.641 783.238,-650.641 783.238,-0.640888 1.23812,-0.640888"/>
<text text-anchor="middle" x="392.238" y="-634.041" font-family="Times Roman,serif" font-size="14.00">&gt;OLT</text>
</g>
<g id="graph3" class="cluster"><title>cluster_2</title>
<polygon fill="lightgrey" stroke="black" points="209.976,-429.782 209.976,-586.782 396.976,-586.782 396.976,-429.782 209.976,-429.782"/>
<text text-anchor="middle" x="303.476" y="-570.182" font-family="Times Roman,serif" font-size="14.00">100000</text>
</g>
<g id="graph4" class="cluster"><title>cluster_3</title>
<polygon fill="lightgrey" stroke="black" points="209.476,-208.782 209.476,-393.782 385.476,-393.782 385.476,-208.782 209.476,-208.782"/>
<text text-anchor="middle" x="297.476" y="-377.182" font-family="Times Roman,serif" font-size="14.00">000100</text>
</g>
<g id="graph5" class="cluster"><title>cluster_4</title>
<polygon fill="none" stroke="black" points="409.476,-9.28178 409.476,-171.282 567.476,-171.282 567.476,-9.28178 409.476,-9.28178"/>
<text text-anchor="middle" x="488.476" y="-154.682" font-family="Times Roman,serif" font-size="14.00">100100</text>
</g>
<g id="graph6" class="cluster"><title>cluster_5</title>
<polygon fill="lightgrey" stroke="black" points="10.4762,-309.782 10.4762,-492.782 174.476,-492.782 174.476,-309.782 10.4762,-309.782"/>
<text text-anchor="middle" x="92.4762" y="-476.182" font-family="Times Roman,serif" font-size="14.00">110100</text>
</g>
<g id="graph7" class="cluster"><title>cluster_6</title>
<polygon fill="none" stroke="black" points="610.476,-8.78178 610.476,-167.782 774.476,-167.782 774.476,-8.78178 610.476,-8.78178"/>
<text text-anchor="middle" x="692.476" y="-151.182" font-family="Times Roman,serif" font-size="14.00">110000</text>
</g>
<g id="graph8" class="cluster"><title>cluster_7</title>
<polygon fill="lightgrey" stroke="black" points="409.976,-208.782 409.976,-393.782 594.976,-393.782 594.976,-208.782 409.976,-208.782"/>
<text text-anchor="middle" x="502.476" y="-377.182" font-family="Times Roman,serif" font-size="14.00">210000</text>
</g>
<g id="graph9" class="cluster"><title>cluster_8</title>
<polygon fill="lightgrey" stroke="black" points="430.476,-428.782 430.476,-615.782 610.476,-615.782 610.476,-428.782 430.476,-428.782"/>
<text text-anchor="middle" x="520.476" y="-599.182" font-family="Times Roman,serif" font-size="14.00">000000</text>
</g>
<g id="graph10" class="cluster"><title>cluster_9</title>
<polygon fill="none" stroke="black" points="9.97623,-109.282 9.97623,-283.282 172.976,-283.282 172.976,-109.282 9.97623,-109.282"/>
<text text-anchor="middle" x="91.4762" y="-266.682" font-family="Times Roman,serif" font-size="14.00">010100</text>
</g>
<g id="graph11" class="cluster"><title>cluster_10</title>
<polygon fill="none" stroke="black" points="209.976,-9.28178 209.976,-183.282 372.976,-183.282 372.976,-9.28178 209.976,-9.28178"/>
<text text-anchor="middle" x="291.476" y="-166.682" font-family="Times Roman,serif" font-size="14.00">210100</text>
</g>
<!-- CON2 -->
<g id="node3" class="node"><title>CON2</title>
<text text-anchor="middle" x="245.678" y="-480.129" font-family="Times Roman,serif" font-size="16.00">CON</text>
</g>
<!-- D3T2 -->
<g id="node5" class="node"><title>D3T2</title>
<text text-anchor="middle" x="311.153" y="-451.985" font-family="Times Roman,serif" font-size="16.00">D3T</text>
</g>
<!-- CON2&#45;&gt;D3T2 -->
<g id="edge4" class="edge"><title>CON2&#45;&gt;D3T2</title>
<path fill="none" stroke="black" d="M272.687,-472.919C273.259,-472.673 273.834,-472.426 274.411,-472.178"/>
<polygon fill="black" stroke="black" points="275.978,-475.315 283.783,-468.15 273.213,-468.883 275.978,-475.315"/>
</g>
<!-- OLT2 -->
<g id="node6" class="node"><title>OLT2</title>
<text text-anchor="middle" x="295.207" y="-529.4" font-family="Times Roman,serif" font-size="16.00">OLT</text>
</g>
<!-- CON2&#45;&gt;OLT2 -->
<g id="edge6" class="edge"><title>CON2&#45;&gt;OLT2</title>
<path fill="none" stroke="black" d="M263.839,-502.596C265.724,-504.47 267.663,-506.4 269.609,-508.336"/>
<polygon fill="black" stroke="black" points="267.489,-511.164 277.047,-515.735 272.426,-506.201 267.489,-511.164"/>
</g>
<!-- BNF2 -->
<g id="node4" class="node"><title>BNF2</title>
<text text-anchor="middle" x="360.682" y="-501.255" font-family="Times Roman,serif" font-size="16.00">BNF</text>
</g>
<!-- BNF2&#45;&gt;D3T2 -->
<g id="edge8" class="edge"><title>BNF2&#45;&gt;D3T2</title>
<path fill="none" stroke="black" d="M342.52,-487.588C340.636,-485.714 338.697,-483.785 336.75,-481.849"/>
<polygon fill="black" stroke="black" points="338.87,-479.02 329.312,-474.449 333.933,-483.983 338.87,-479.02"/>
</g>
<!-- BNF2&#45;&gt;OLT2 -->
<g id="edge10" class="edge"><title>BNF2&#45;&gt;OLT2</title>
<path fill="none" stroke="black" d="M333.673,-517.265C333.1,-517.511 332.525,-517.758 331.949,-518.006"/>
<polygon fill="black" stroke="black" points="330.382,-514.87 322.577,-522.034 333.146,-521.301 330.382,-514.87"/>
</g>
<!-- D3T2&#45;&gt;OLT2 -->
<g id="edge12" class="edge"><title>D3T2&#45;&gt;OLT2</title>
<path fill="none" stroke="black" d="M307.374,-474.731C305.467,-483.986 303.114,-495.413 300.986,-505.742"/>
<polygon fill="black" stroke="black" points="297.548,-505.085 298.959,-515.585 304.404,-506.497 297.548,-505.085"/>
</g>
<!-- CON3 -->
<g id="node13" class="node"><title>CON3</title>
<text text-anchor="middle" x="245.839" y="-283.499" font-family="Times Roman,serif" font-size="16.00">CON</text>
</g>
<!-- BNF3 -->
<g id="node14" class="node"><title>BNF3</title>
<text text-anchor="middle" x="349.176" y="-299.893" font-family="Times Roman,serif" font-size="16.00">BNF</text>
</g>
<!-- CON3&#45;&gt;BNF3 -->
<g id="edge15" class="edge"><title>CON3&#45;&gt;BNF3</title>
<path fill="none" stroke="black" d="M272.99,-292.206C284.88,-294.093 299.026,-296.337 311.882,-298.377"/>
<polygon fill="black" stroke="black" points="311.423,-301.847 321.848,-299.958 312.52,-294.934 311.423,-301.847"/>
</g>
<!-- D3T3 -->
<g id="node15" class="node"><title>D3T3</title>
<text text-anchor="middle" x="294.949" y="-231.71" font-family="Times Roman,serif" font-size="16.00">D3T</text>
</g>
<!-- CON3&#45;&gt;D3T3 -->
<g id="edge17" class="edge"><title>CON3&#45;&gt;D3T3</title>
<path fill="none" stroke="black" d="M263.016,-269.786C265.394,-267.277 267.875,-264.661 270.356,-262.045"/>
<polygon fill="black" stroke="black" points="273.359,-263.965 277.7,-254.3 268.279,-259.148 273.359,-263.965"/>
</g>
<!-- OLT3 -->
<g id="node16" class="node"><title>OLT3</title>
<text text-anchor="middle" x="286.679" y="-336.147" font-family="Times Roman,serif" font-size="16.00">OLT</text>
</g>
<!-- CON3&#45;&gt;OLT3 -->
<g id="edge19" class="edge"><title>CON3&#45;&gt;OLT3</title>
<path fill="none" stroke="black" d="M259.894,-306.018C261.925,-308.635 264.048,-311.373 266.173,-314.112"/>
<polygon fill="black" stroke="black" points="263.565,-316.461 272.46,-322.217 269.096,-312.17 263.565,-316.461"/>
</g>
<!-- BNF3&#45;&gt;OLT3 -->
<g id="edge21" class="edge"><title>BNF3&#45;&gt;OLT3</title>
<path fill="none" stroke="black" d="M321.946,-320.089C321.781,-320.185 321.617,-320.28 321.452,-320.376"/>
<polygon fill="black" stroke="black" points="320.905,-316.647 314.012,-324.692 324.418,-322.701 320.905,-316.647"/>
</g>
<!-- D3T3&#45;&gt;OLT3 -->
<g id="edge23" class="edge"><title>D3T3&#45;&gt;OLT3</title>
<path fill="none" stroke="black" d="M293.509,-254.301C292.248,-270.228 290.394,-293.633 288.936,-312.045"/>
<polygon fill="black" stroke="black" points="285.432,-311.969 288.131,-322.214 292.41,-312.521 285.432,-311.969"/>
</g>
<!-- CON4 -->
<g id="node23" class="node"><title>CON4</title>
<text text-anchor="middle" x="445.012" y="-32.4463" font-family="Times Roman,serif" font-size="16.00">CON</text>
</g>
<!-- D3T4 -->
<g id="node25" class="node"><title>D3T4</title>
<text text-anchor="middle" x="513.005" y="-31.6108" font-family="Times Roman,serif" font-size="16.00">D3T</text>
</g>
<!-- CON4&#45;&gt;D3T4 -->
<g id="edge26" class="edge"><title>CON4&#45;&gt;D3T4</title>
<path fill="none" stroke="black" d="M472.276,-36.5112C473.384,-36.4976 474.502,-36.4839 475.626,-36.4701"/>
<polygon fill="black" stroke="black" points="475.779,-39.9686 485.735,-36.3458 475.693,-32.9691 475.779,-39.9686"/>
</g>
<!-- OLT4 -->
<g id="node26" class="node"><title>OLT4</title>
<text text-anchor="middle" x="466.093" y="-83.8589" font-family="Times Roman,serif" font-size="16.00">OLT</text>
</g>
<!-- CON4&#45;&gt;OLT4 -->
<g id="edge28" class="edge"><title>CON4&#45;&gt;OLT4</title>
<path fill="none" stroke="black" d="M452.504,-55.1172C453.25,-56.9355 454.017,-58.8081 454.791,-60.6942"/>
<polygon fill="black" stroke="black" points="451.593,-62.1222 458.626,-70.0468 458.07,-59.4665 451.593,-62.1222"/>
</g>
<!-- BNF4 -->
<g id="node24" class="node"><title>BNF4</title>
<text text-anchor="middle" x="531.698" y="-113.724" font-family="Times Roman,serif" font-size="16.00">BNF</text>
</g>
<!-- BNF4&#45;&gt;OLT4 -->
<g id="edge30" class="edge"><title>BNF4&#45;&gt;OLT4</title>
<path fill="none" stroke="black" d="M504.635,-105.805C503.92,-105.479 503.202,-105.152 502.481,-104.824"/>
<polygon fill="black" stroke="black" points="503.645,-101.508 493.093,-100.55 500.745,-107.879 503.645,-101.508"/>
</g>
<!-- D3T4&#45;&gt;OLT4 -->
<g id="edge32" class="edge"><title>D3T4&#45;&gt;OLT4</title>
<path fill="none" stroke="black" d="M496.597,-54.2846C494.325,-56.8154 491.955,-59.4545 489.585,-62.0942"/>
<polygon fill="black" stroke="black" points="486.647,-60.1279 482.57,-69.9071 491.856,-64.8045 486.647,-60.1279"/>
</g>
<!-- CON5 -->
<g id="node32" class="node"><title>CON5</title>
<text text-anchor="middle" x="46.3057" y="-432.135" font-family="Times Roman,serif" font-size="16.00">CON</text>
</g>
<!-- OLT5 -->
<g id="node35" class="node"><title>OLT5</title>
<text text-anchor="middle" x="93.4332" y="-384.503" font-family="Times Roman,serif" font-size="16.00">OLT</text>
</g>
<!-- CON5&#45;&gt;OLT5 -->
<g id="edge35" class="edge"><title>CON5&#45;&gt;OLT5</title>
<path fill="none" stroke="black" d="M64.1226,-418.527C65.5302,-417.104 66.9668,-415.652 68.4109,-414.193"/>
<polygon fill="black" stroke="black" points="71.0458,-416.506 75.5911,-406.936 66.0697,-411.583 71.0458,-416.506"/>
</g>
<!-- BNF5 -->
<g id="node33" class="node"><title>BNF5</title>
<text text-anchor="middle" x="138.785" y="-435.01" font-family="Times Roman,serif" font-size="16.00">BNF</text>
</g>
<!-- BNF5&#45;&gt;OLT5 -->
<g id="edge37" class="edge"><title>BNF5&#45;&gt;OLT5</title>
<path fill="none" stroke="black" d="M122.412,-421.176C120.462,-419.004 118.444,-416.756 116.422,-414.505"/>
<polygon fill="black" stroke="black" points="118.916,-412.043 109.63,-406.941 113.707,-416.72 118.916,-412.043"/>
</g>
<!-- D3T5 -->
<g id="node34" class="node"><title>D3T5</title>
<text text-anchor="middle" x="109.308" y="-332.377" font-family="Times Roman,serif" font-size="16.00">D3T</text>
</g>
<!-- D3T5&#45;&gt;OLT5 -->
<g id="edge39" class="edge"><title>D3T5&#45;&gt;OLT5</title>
<path fill="none" stroke="black" d="M103.756,-355.008C103.179,-356.902 102.584,-358.856 101.984,-360.826"/>
<polygon fill="black" stroke="black" points="98.5742,-360.008 99.009,-370.594 105.271,-362.047 98.5742,-360.008"/>
</g>
<!-- CON6 -->
<g id="node40" class="node"><title>CON6</title>
<text text-anchor="middle" x="646.824" y="-110.823" font-family="Times Roman,serif" font-size="16.00">CON</text>
</g>
<!-- OLT6 -->
<g id="node43" class="node"><title>OLT6</title>
<text text-anchor="middle" x="714.865" y="-85.8592" font-family="Times Roman,serif" font-size="16.00">OLT</text>
</g>
<!-- CON6&#45;&gt;OLT6 -->
<g id="edge42" class="edge"><title>CON6&#45;&gt;OLT6</title>
<path fill="none" stroke="black" d="M674.107,-105.213C675.355,-104.755 676.615,-104.293 677.881,-103.828"/>
<polygon fill="black" stroke="black" points="679.393,-107.001 687.576,-100.271 676.982,-100.43 679.393,-107.001"/>
</g>
<!-- BNF6 -->
<g id="node41" class="node"><title>BNF6</title>
<text text-anchor="middle" x="738.07" y="-34.6953" font-family="Times Roman,serif" font-size="16.00">BNF</text>
</g>
<!-- D3T6 -->
<g id="node42" class="node"><title>D3T6</title>
<text text-anchor="middle" x="669.96" y="-31.5019" font-family="Times Roman,serif" font-size="16.00">D3T</text>
</g>
<!-- BNF6&#45;&gt;D3T6 -->
<g id="edge44" class="edge"><title>BNF6&#45;&gt;D3T6</title>
<path fill="none" stroke="black" d="M710.759,-37.8148C709.649,-37.7628 708.529,-37.7103 707.404,-37.6575"/>
<polygon fill="black" stroke="black" points="707.429,-34.155 697.276,-37.1827 707.101,-41.1473 707.429,-34.155"/>
</g>
<!-- BNF6&#45;&gt;OLT6 -->
<g id="edge46" class="edge"><title>BNF6&#45;&gt;OLT6</title>
<path fill="none" stroke="black" d="M729.823,-57.2778C729.002,-59.0874 728.157,-60.9509 727.306,-62.8278"/>
<polygon fill="black" stroke="black" points="724.028,-61.5824 723.085,-72.1352 730.403,-64.4738 724.028,-61.5824"/>
</g>
<!-- D3T6&#45;&gt;OLT6 -->
<g id="edge48" class="edge"><title>D3T6&#45;&gt;OLT6</title>
<path fill="none" stroke="black" d="M684.913,-54.0021C687.611,-57.2681 690.472,-60.7316 693.314,-64.1719"/>
<polygon fill="black" stroke="black" points="690.757,-66.5723 699.824,-72.0527 696.154,-62.114 690.757,-66.5723"/>
</g>
<!-- CON7 -->
<g id="node49" class="node"><title>CON7</title>
<text text-anchor="middle" x="446.373" y="-277.242" font-family="Times Roman,serif" font-size="16.00">CON</text>
</g>
<!-- OLT7 -->
<g id="node52" class="node"><title>OLT7</title>
<text text-anchor="middle" x="492.823" y="-336.671" font-family="Times Roman,serif" font-size="16.00">OLT</text>
</g>
<!-- CON7&#45;&gt;OLT7 -->
<g id="edge51" class="edge"><title>CON7&#45;&gt;OLT7</title>
<path fill="none" stroke="black" d="M460.562,-299.796C464.344,-304.634 468.504,-309.957 472.544,-315.126"/>
<polygon fill="black" stroke="black" points="469.805,-317.305 478.721,-323.028 475.32,-312.994 469.805,-317.305"/>
</g>
<!-- BNF7 -->
<g id="node50" class="node"><title>BNF7</title>
<text text-anchor="middle" x="558.548" y="-295.695" font-family="Times Roman,serif" font-size="16.00">BNF</text>
</g>
<!-- BNF7&#45;&gt;CON7 -->
<g id="edge53" class="edge"><title>BNF7&#45;&gt;CON7</title>
<path fill="none" stroke="black" d="M531.394,-295.628C517.032,-293.265 499.186,-290.33 483.557,-287.759"/>
<polygon fill="black" stroke="black" points="484.102,-284.301 473.666,-286.132 482.965,-291.209 484.102,-284.301"/>
</g>
<!-- D3T7 -->
<g id="node51" class="node"><title>D3T7</title>
<text text-anchor="middle" x="531.792" y="-231.229" font-family="Times Roman,serif" font-size="16.00">D3T</text>
</g>
<!-- BNF7&#45;&gt;D3T7 -->
<g id="edge55" class="edge"><title>BNF7&#45;&gt;D3T7</title>
<path fill="none" stroke="black" d="M550.952,-281.794C548.56,-276.029 545.861,-269.527 543.261,-263.262"/>
<polygon fill="black" stroke="black" points="546.38,-261.647 539.314,-253.752 539.915,-264.33 546.38,-261.647"/>
</g>
<!-- BNF7&#45;&gt;OLT7 -->
<g id="edge57" class="edge"><title>BNF7&#45;&gt;OLT7</title>
<path fill="none" stroke="black" d="M531.436,-316.998C530.481,-317.593 529.52,-318.192 528.555,-318.794"/>
<polygon fill="black" stroke="black" points="526.507,-315.946 519.873,-324.206 530.211,-321.886 526.507,-315.946"/>
</g>
<!-- D3T7&#45;&gt;OLT7 -->
<g id="edge59" class="edge"><title>D3T7&#45;&gt;OLT7</title>
<path fill="none" stroke="black" d="M525.004,-253.996C518.941,-270.4 509.973,-294.665 503.043,-313.417"/>
<polygon fill="black" stroke="black" points="499.717,-312.321 499.533,-322.915 506.283,-314.748 499.717,-312.321"/>
</g>
<!-- CON8 -->
<g id="node59" class="node"><title>CON8</title>
<text text-anchor="middle" x="466.853" y="-496.379" font-family="Times Roman,serif" font-size="16.00">CON</text>
</g>
<!-- BNF8 -->
<g id="node60" class="node"><title>BNF8</title>
<text text-anchor="middle" x="574.031" y="-513.616" font-family="Times Roman,serif" font-size="16.00">BNF</text>
</g>
<!-- CON8&#45;&gt;BNF8 -->
<g id="edge62" class="edge"><title>CON8&#45;&gt;BNF8</title>
<path fill="none" stroke="black" d="M493.899,-505.129C506.973,-507.232 522.866,-509.788 537.041,-512.067"/>
<polygon fill="black" stroke="black" points="536.565,-515.536 546.994,-513.668 537.677,-508.625 536.565,-515.536"/>
</g>
<!-- D3T8 -->
<g id="node61" class="node"><title>D3T8</title>
<text text-anchor="middle" x="530.352" y="-451.194" font-family="Times Roman,serif" font-size="16.00">D3T</text>
</g>
<!-- CON8&#45;&gt;D3T8 -->
<g id="edge64" class="edge"><title>CON8&#45;&gt;D3T8</title>
<path fill="none" stroke="black" d="M492.315,-482.661C493.738,-481.648 495.179,-480.623 496.625,-479.593"/>
<polygon fill="black" stroke="black" points="498.766,-482.366 504.885,-473.716 494.708,-476.662 498.766,-482.366"/>
</g>
<!-- OLT8 -->
<g id="node62" class="node"><title>OLT8</title>
<text text-anchor="middle" x="510.532" y="-558.802" font-family="Times Roman,serif" font-size="16.00">OLT</text>
</g>
<!-- CON8&#45;&gt;OLT8 -->
<g id="edge66" class="edge"><title>CON8&#45;&gt;OLT8</title>
<path fill="none" stroke="black" d="M479.487,-518.834C483.347,-524.35 487.676,-530.537 491.848,-536.5"/>
<polygon fill="black" stroke="black" points="489.175,-538.784 497.775,-544.971 494.91,-534.771 489.175,-538.784"/>
</g>
<!-- BNF8&#45;&gt;D3T8 -->
<g id="edge68" class="edge"><title>BNF8&#45;&gt;D3T8</title>
<path fill="none" stroke="black" d="M561.397,-499.961C557.537,-494.445 553.208,-488.258 549.036,-482.296"/>
<polygon fill="black" stroke="black" points="551.709,-480.011 543.108,-473.825 545.974,-484.025 551.709,-480.011"/>
</g>
<!-- BNF8&#45;&gt;OLT8 -->
<g id="edge70" class="edge"><title>BNF8&#45;&gt;OLT8</title>
<path fill="none" stroke="black" d="M548.569,-536.135C547.146,-537.148 545.705,-538.173 544.259,-539.202"/>
<polygon fill="black" stroke="black" points="542.118,-536.43 535.999,-545.08 546.176,-542.133 542.118,-536.43"/>
</g>
<!-- D3T8&#45;&gt;OLT8 -->
<g id="edge72" class="edge"><title>D3T8&#45;&gt;OLT8</title>
<path fill="none" stroke="black" d="M526.989,-473.848C523.914,-490.544 519.317,-515.506 515.762,-534.807"/>
<polygon fill="black" stroke="black" points="512.28,-534.39 513.911,-544.858 519.164,-535.658 512.28,-534.39"/>
</g>
<!-- CON9 -->
<g id="node70" class="node"><title>CON9</title>
<text text-anchor="middle" x="46.0879" y="-224.58" font-family="Times Roman,serif" font-size="16.00">CON</text>
</g>
<!-- BNF9 -->
<g id="node71" class="node"><title>BNF9</title>
<text text-anchor="middle" x="127.956" y="-226.148" font-family="Times Roman,serif" font-size="16.00">BNF</text>
</g>
<!-- CON9&#45;&gt;BNF9 -->
<g id="edge75" class="edge"><title>CON9&#45;&gt;BNF9</title>
<path fill="none" stroke="black" d="M73.3487,-229.502C78.8723,-229.608 84.7712,-229.721 90.5741,-229.832"/>
<polygon fill="black" stroke="black" points="90.7488,-233.336 100.814,-230.028 90.8829,-226.337 90.7488,-233.336"/>
</g>
<!-- OLT9 -->
<g id="node73" class="node"><title>OLT9</title>
<text text-anchor="middle" x="71.1993" y="-168.624" font-family="Times Roman,serif" font-size="16.00">OLT</text>
</g>
<!-- CON9&#45;&gt;OLT9 -->
<g id="edge77" class="edge"><title>CON9&#45;&gt;OLT9</title>
<path fill="none" stroke="black" d="M54.1715,-210.967C55.6644,-207.641 57.2544,-204.098 58.8401,-200.564"/>
<polygon fill="black" stroke="black" points="62.0572,-201.944 62.9584,-191.387 55.6708,-199.078 62.0572,-201.944"/>
</g>
<!-- BNF9&#45;&gt;OLT9 -->
<g id="edge79" class="edge"><title>BNF9&#45;&gt;OLT9</title>
<path fill="none" stroke="black" d="M109.998,-212.347C105.65,-207.94 100.923,-203.15 96.313,-198.477"/>
<polygon fill="black" stroke="black" points="98.7503,-195.964 89.2354,-191.304 93.7674,-200.881 98.7503,-195.964"/>
</g>
<!-- D3T9 -->
<g id="node72" class="node"><title>D3T9</title>
<text text-anchor="middle" x="137.465" y="-131.577" font-family="Times Roman,serif" font-size="16.00">D3T</text>
</g>
<!-- D3T9&#45;&gt;OLT9 -->
<g id="edge81" class="edge"><title>D3T9&#45;&gt;OLT9</title>
<path fill="none" stroke="black" d="M110.129,-151.259C109.167,-151.797 108.197,-152.339 107.225,-152.883"/>
<polygon fill="black" stroke="black" points="105.492,-149.842 98.4717,-157.777 108.908,-155.952 105.492,-149.842"/>
</g>
<!-- CON10 -->
<g id="node79" class="node"><title>CON10</title>
<text text-anchor="middle" x="246.088" y="-124.58" font-family="Times Roman,serif" font-size="16.00">CON</text>
</g>
<!-- OLT10 -->
<g id="node82" class="node"><title>OLT10</title>
<text text-anchor="middle" x="271.199" y="-68.6243" font-family="Times Roman,serif" font-size="16.00">OLT</text>
</g>
<!-- CON10&#45;&gt;OLT10 -->
<g id="edge84" class="edge"><title>CON10&#45;&gt;OLT10</title>
<path fill="none" stroke="black" d="M254.172,-110.967C255.664,-107.641 257.254,-104.098 258.84,-100.564"/>
<polygon fill="black" stroke="black" points="262.057,-101.944 262.958,-91.3875 255.671,-99.0779 262.057,-101.944"/>
</g>
<!-- BNF10 -->
<g id="node80" class="node"><title>BNF10</title>
<text text-anchor="middle" x="327.956" y="-126.148" font-family="Times Roman,serif" font-size="16.00">BNF</text>
</g>
<!-- BNF10&#45;&gt;CON10 -->
<g id="edge86" class="edge"><title>BNF10&#45;&gt;CON10</title>
<path fill="none" stroke="black" d="M300.695,-130.026C295.171,-129.92 289.272,-129.807 283.47,-129.696"/>
<polygon fill="black" stroke="black" points="283.295,-126.192 273.23,-129.5 283.161,-133.191 283.295,-126.192"/>
</g>
<!-- BNF10&#45;&gt;OLT10 -->
<g id="edge88" class="edge"><title>BNF10&#45;&gt;OLT10</title>
<path fill="none" stroke="black" d="M309.998,-112.347C305.65,-107.94 300.923,-103.15 296.313,-98.4773"/>
<polygon fill="black" stroke="black" points="298.75,-95.9643 289.235,-91.3041 293.767,-100.881 298.75,-95.9643"/>
</g>
<!-- D3T10 -->
<g id="node81" class="node"><title>D3T10</title>
<text text-anchor="middle" x="337.465" y="-31.5768" font-family="Times Roman,serif" font-size="16.00">D3T</text>
</g>
<!-- D3T10&#45;&gt;OLT10 -->
<g id="edge90" class="edge"><title>D3T10&#45;&gt;OLT10</title>
<path fill="none" stroke="black" d="M310.129,-51.2593C309.167,-51.7975 308.197,-52.3394 307.225,-52.8832"/>
<polygon fill="black" stroke="black" points="305.492,-49.8419 298.472,-57.7769 308.908,-55.9519 305.492,-49.8419"/>
</g>
</g>
</svg>
