<?xml version="1.0" encoding="UTF-8" standalone="no"?>
<!DOCTYPE svg PUBLIC "-//W3C//DTD SVG 1.0//EN"
 "http://www.w3.org/TR/2001/REC-SVG-20010904/DTD/svg10.dtd" [
 <!ATTLIST svg xmlns:xlink CDATA #FIXED "http://www.w3.org/1999/xlink">
]>
<!-- Generated by Graphviz version 2.20.2 (Tue Mar &#160;2 20:02:18 UTC 2010)
     For user: (nsvo) Nam Sy Vo,,, -->
<!-- Title: FirstlevelCluster Pages: 1 -->
<svg width="318pt" height="366pt"
 viewBox="0.00 0.00 318.00 366.00" xmlns="http://www.w3.org/2000/svg" xmlns:xlink="http://www.w3.org/1999/xlink">
<g id="graph0" class="graph" transform="scale(1 1) rotate(0) translate(4 362)">
<title>FirstlevelCluster</title>
<polygon style="fill:white;stroke:white;" points="-4,4 -4,-362 314,-362 314,4 -4,4"/>
<g id="cluster2" class="cluster"><title>cluster_0</title>
<polygon style="fill:none;stroke:black;" points="1,-0 1,-349 310,-349 310,-0 1,-0"/>
<text text-anchor="middle" x="155" y="-332.9" style="font-family:Times New Roman;font-size:14.00;">&gt;D3T</text>
</g>
<g id="cluster3" class="cluster"><title>cluster_2</title>
<polygon style="fill:lightgrey;stroke:black;" points="10,-8 10,-197 150,-197 150,-8 10,-8"/>
<text text-anchor="middle" x="80" y="-180.9" style="font-family:Times New Roman;font-size:14.00;">012</text>
</g>
<g id="cluster4" class="cluster"><title>cluster_3</title>
<polygon style="fill:lightgrey;stroke:black;" points="162,-26 162,-162 301,-162 301,-26 162,-26"/>
<text text-anchor="middle" x="231" y="-145.9" style="font-family:Times New Roman;font-size:14.00;">022</text>
</g>
<g id="cluster5" class="cluster"><title>cluster_4</title>
<polygon style="fill:lightgrey;stroke:black;" points="162,-179 162,-315 301,-315 301,-179 162,-179"/>
<text text-anchor="middle" x="231" y="-298.9" style="font-family:Times New Roman;font-size:14.00;">002</text>
</g>
<!-- VEH2 -->
<g id="node3" class="node"><title>VEH2</title>
<text text-anchor="middle" x="46" y="-140.6" style="font-family:Times New Roman;font-size:16.00;">VEH</text>
</g>
<!-- D3T2 -->
<g id="node4" class="node"><title>D3T2</title>
<text text-anchor="middle" x="113" y="-96.6" style="font-family:Times New Roman;font-size:16.00;">D3T</text>
</g>
<!-- VEH2&#45;&gt;D3T2 -->
<g id="edge4" class="edge"><title>VEH2&#45;&gt;D3T2</title>
<path style="fill:none;stroke:black;" d="M73,-127C74,-126 76,-125 77,-124"/>
<polygon style="fill:black;stroke:black;" points="78.9582,-126.916 86,-119 75.5586,-120.797 78.9582,-126.916"/>
</g>
<!-- C102 -->
<g id="node5" class="node"><title>C102</title>
<text text-anchor="middle" x="110" y="-30.6" style="font-family:Times New Roman;font-size:16.00;">C10</text>
</g>
<!-- C102&#45;&gt;D3T2 -->
<g id="edge6" class="edge"><title>C102&#45;&gt;D3T2</title>
<path style="fill:none;stroke:black;" d="M111,-53C111,-59 111,-66 112,-73"/>
<polygon style="fill:black;stroke:black;" points="108.5,-73 112,-83 115.5,-73 108.5,-73"/>
</g>
<!-- VEH3 -->
<g id="node9" class="node"><title>VEH3</title>
<text text-anchor="middle" x="199" y="-104.6" style="font-family:Times New Roman;font-size:16.00;">VEH</text>
</g>
<!-- D3T3 -->
<g id="node10" class="node"><title>D3T3</title>
<text text-anchor="middle" x="266" y="-103.6" style="font-family:Times New Roman;font-size:16.00;">D3T</text>
</g>
<!-- VEH3&#45;&gt;D3T3 -->
<g id="edge9" class="edge"><title>VEH3&#45;&gt;D3T3</title>
<path style="fill:none;stroke:black;" d="M226,-109C227,-109 228,-109 229,-109"/>
<polygon style="fill:black;stroke:black;" points="229.398,-112.478 239,-108 228.701,-105.512 229.398,-112.478"/>
</g>
<!-- C103 -->
<g id="node11" class="node"><title>C103</title>
<text text-anchor="middle" x="232" y="-48.6" style="font-family:Times New Roman;font-size:16.00;">C10</text>
</g>
<!-- C103&#45;&gt;VEH3 -->
<g id="edge11" class="edge"><title>C103&#45;&gt;VEH3</title>
<path style="fill:none;stroke:black;" d="M221,-71C219,-74 217,-78 214,-82"/>
<polygon style="fill:black;stroke:black;" points="210.863,-80.4404 210,-91 217.26,-83.2834 210.863,-80.4404"/>
</g>
<!-- C103&#45;&gt;D3T3 -->
<g id="edge13" class="edge"><title>C103&#45;&gt;D3T3</title>
<path style="fill:none;stroke:black;" d="M243,-71C245,-74 247,-78 250,-81"/>
<polygon style="fill:black;stroke:black;" points="247.084,-82.9582 255,-90 253.203,-79.5586 247.084,-82.9582"/>
</g>
<!-- VEH4 -->
<g id="node16" class="node"><title>VEH4</title>
<text text-anchor="middle" x="199" y="-257.6" style="font-family:Times New Roman;font-size:16.00;">VEH</text>
</g>
<!-- D3T4 -->
<g id="node17" class="node"><title>D3T4</title>
<text text-anchor="middle" x="266" y="-256.6" style="font-family:Times New Roman;font-size:16.00;">D3T</text>
</g>
<!-- VEH4&#45;&gt;D3T4 -->
<g id="edge16" class="edge"><title>VEH4&#45;&gt;D3T4</title>
<path style="fill:none;stroke:black;" d="M226,-262C227,-262 228,-262 229,-262"/>
<polygon style="fill:black;stroke:black;" points="229.398,-265.478 239,-261 228.701,-258.512 229.398,-265.478"/>
</g>
<!-- C104 -->
<g id="node18" class="node"><title>C104</title>
<text text-anchor="middle" x="232" y="-201.6" style="font-family:Times New Roman;font-size:16.00;">C10</text>
</g>
<!-- VEH4&#45;&gt;C104 -->
<g id="edge18" class="edge"><title>VEH4&#45;&gt;C104</title>
<path style="fill:none;stroke:black;" d="M210,-244C212,-241 215,-237 217,-233"/>
<polygon style="fill:black;stroke:black;" points="220.137,-234.56 221,-224 213.74,-231.717 220.137,-234.56"/>
</g>
<!-- C104&#45;&gt;D3T4 -->
<g id="edge20" class="edge"><title>C104&#45;&gt;D3T4</title>
<path style="fill:none;stroke:black;" d="M243,-224C245,-227 247,-231 250,-234"/>
<polygon style="fill:black;stroke:black;" points="247.084,-235.958 255,-243 253.203,-232.559 247.084,-235.958"/>
</g>
</g>
</svg>
