<?xml version="1.0" encoding="UTF-8" standalone="no"?>
<!DOCTYPE svg PUBLIC "-//W3C//DTD SVG 1.0//EN"
 "http://www.w3.org/TR/2001/REC-SVG-20010904/DTD/svg10.dtd" [
 <!ATTLIST svg xmlns:xlink CDATA #FIXED "http://www.w3.org/1999/xlink">
]>
<!-- Generated by Graphviz version 2.20.2 (Tue Mar &#160;2 20:02:18 UTC 2010)
     For user: (nsvo) Nam Sy Vo,,, -->
<!-- Title: FirstlevelCluster Pages: 1 -->
<svg width="326pt" height="372pt"
 viewBox="0.00 0.00 326.00 372.00" xmlns="http://www.w3.org/2000/svg" xmlns:xlink="http://www.w3.org/1999/xlink">
<g id="graph0" class="graph" transform="scale(1 1) rotate(0) translate(4 368)">
<title>FirstlevelCluster</title>
<polygon style="fill:white;stroke:white;" points="-4,4 -4,-368 322,-368 322,4 -4,4"/>
<g id="cluster2" class="cluster"><title>cluster_0</title>
<polygon style="fill:none;stroke:black;" points="1,-0 1,-355 317,-355 317,-0 1,-0"/>
<text text-anchor="middle" x="159" y="-338.9" style="font-family:Times New Roman;font-size:14.00;">VEH&gt;</text>
</g>
<g id="cluster3" class="cluster"><title>cluster_2</title>
<polygon style="fill:lightgrey;stroke:black;" points="10,-9 10,-179 148,-179 148,-9 10,-9"/>
<text text-anchor="middle" x="79" y="-162.9" style="font-family:Times New Roman;font-size:14.00;">001</text>
</g>
<g id="cluster4" class="cluster"><title>cluster_3</title>
<polygon style="fill:lightgrey;stroke:black;" points="154,-41 154,-177 293,-177 293,-41 154,-41"/>
<text text-anchor="middle" x="223" y="-160.9" style="font-family:Times New Roman;font-size:14.00;">000</text>
</g>
<g id="cluster5" class="cluster"><title>cluster_4</title>
<polygon style="fill:lightgrey;stroke:black;" points="170,-185 170,-321 309,-321 309,-185 170,-185"/>
<text text-anchor="middle" x="239" y="-304.9" style="font-family:Times New Roman;font-size:14.00;">002</text>
</g>
<!-- VEH2 -->
<g id="node3" class="node"><title>VEH2</title>
<text text-anchor="middle" x="49" y="-81.6" style="font-family:Times New Roman;font-size:16.00;">VEH</text>
</g>
<!-- D3T2 -->
<g id="node4" class="node"><title>D3T2</title>
<text text-anchor="middle" x="112" y="-122.6" style="font-family:Times New Roman;font-size:16.00;">D3T</text>
</g>
<!-- VEH2&#45;&gt;D3T2 -->
<g id="edge4" class="edge"><title>VEH2&#45;&gt;D3T2</title>
<path style="fill:none;stroke:black;" d="M76,-104C76,-104 76,-104 77,-104"/>
<polygon style="fill:black;stroke:black;" points="74.9,-106.8 85,-110 79.1,-101.2 74.9,-106.8"/>
</g>
<!-- C102 -->
<g id="node5" class="node"><title>C102</title>
<text text-anchor="middle" x="46" y="-31.6" style="font-family:Times New Roman;font-size:16.00;">C10</text>
</g>
<!-- VEH2&#45;&gt;C102 -->
<g id="edge6" class="edge"><title>VEH2&#45;&gt;C102</title>
<path style="fill:none;stroke:black;" d="M48,-68C48,-67 48,-65 48,-64"/>
<polygon style="fill:black;stroke:black;" points="51.4778,-63.6021 47,-54 44.5125,-64.2987 51.4778,-63.6021"/>
</g>
<!-- VEH3 -->
<g id="node9" class="node"><title>VEH3</title>
<text text-anchor="middle" x="190" y="-119.6" style="font-family:Times New Roman;font-size:16.00;">VEH</text>
</g>
<!-- D3T3 -->
<g id="node10" class="node"><title>D3T3</title>
<text text-anchor="middle" x="257" y="-118.6" style="font-family:Times New Roman;font-size:16.00;">D3T</text>
</g>
<!-- VEH3&#45;&gt;D3T3 -->
<g id="edge9" class="edge"><title>VEH3&#45;&gt;D3T3</title>
<path style="fill:none;stroke:black;" d="M217,-124C218,-124 219,-124 220,-124"/>
<polygon style="fill:black;stroke:black;" points="220.398,-127.478 230,-123 219.701,-120.512 220.398,-127.478"/>
</g>
<!-- C103 -->
<g id="node11" class="node"><title>C103</title>
<text text-anchor="middle" x="223" y="-63.6" style="font-family:Times New Roman;font-size:16.00;">C10</text>
</g>
<!-- VEH3&#45;&gt;C103 -->
<g id="edge11" class="edge"><title>VEH3&#45;&gt;C103</title>
<path style="fill:none;stroke:black;" d="M201,-106C203,-103 206,-99 208,-95"/>
<polygon style="fill:black;stroke:black;" points="211.137,-96.5596 212,-86 204.74,-93.7166 211.137,-96.5596"/>
</g>
<!-- D3T3&#45;&gt;C103 -->
<g id="edge13" class="edge"><title>D3T3&#45;&gt;C103</title>
<path style="fill:none;stroke:black;" d="M246,-105C244,-102 242,-98 239,-95"/>
<polygon style="fill:black;stroke:black;" points="241.916,-93.0418 234,-86 235.797,-96.4414 241.916,-93.0418"/>
</g>
<!-- VEH4 -->
<g id="node16" class="node"><title>VEH4</title>
<text text-anchor="middle" x="206" y="-263.6" style="font-family:Times New Roman;font-size:16.00;">VEH</text>
</g>
<!-- D3T4 -->
<g id="node17" class="node"><title>D3T4</title>
<text text-anchor="middle" x="273" y="-262.6" style="font-family:Times New Roman;font-size:16.00;">D3T</text>
</g>
<!-- VEH4&#45;&gt;D3T4 -->
<g id="edge16" class="edge"><title>VEH4&#45;&gt;D3T4</title>
<path style="fill:none;stroke:black;" d="M233,-268C234,-268 235,-268 236,-268"/>
<polygon style="fill:black;stroke:black;" points="236.398,-271.478 246,-267 235.701,-264.512 236.398,-271.478"/>
</g>
<!-- C104 -->
<g id="node18" class="node"><title>C104</title>
<text text-anchor="middle" x="239" y="-207.6" style="font-family:Times New Roman;font-size:16.00;">C10</text>
</g>
<!-- VEH4&#45;&gt;C104 -->
<g id="edge18" class="edge"><title>VEH4&#45;&gt;C104</title>
<path style="fill:none;stroke:black;" d="M217,-250C219,-247 222,-243 224,-239"/>
<polygon style="fill:black;stroke:black;" points="227.137,-240.56 228,-230 220.74,-237.717 227.137,-240.56"/>
</g>
<!-- C104&#45;&gt;D3T4 -->
<g id="edge20" class="edge"><title>C104&#45;&gt;D3T4</title>
<path style="fill:none;stroke:black;" d="M250,-230C252,-233 254,-237 257,-240"/>
<polygon style="fill:black;stroke:black;" points="254.084,-241.958 262,-249 260.203,-238.559 254.084,-241.958"/>
</g>
</g>
</svg>
