<?xml version="1.0" encoding="UTF-8" standalone="no"?>
<!DOCTYPE svg PUBLIC "-//W3C//DTD SVG 1.0//EN"
 "http://www.w3.org/TR/2001/REC-SVG-20010904/DTD/svg10.dtd" [
 <!ATTLIST svg xmlns:xlink CDATA #FIXED "http://www.w3.org/1999/xlink">
]>
<!-- Generated by Graphviz version 2.20.2 (Tue Mar &#160;2 20:02:18 UTC 2010)
     For user: (nsvo) Nam Sy Vo,,, -->
<!-- Title: TDAGS Pages: 1 -->
<svg width="816pt" height="788pt"
 viewBox="0.00 0.00 816.00 788.00" xmlns="http://www.w3.org/2000/svg" xmlns:xlink="http://www.w3.org/1999/xlink">
<g id="graph0" class="graph" transform="scale(1 1) rotate(0) translate(4 784)">
<title>TDAGS</title>
<polygon style="fill:white;stroke:white;" points="-4,4 -4,-784 812,-784 812,4 -4,4"/>
<g id="cluster2" class="cluster"><title>cluster_0</title>
<polygon style="fill:none;stroke:black;" points="1,-1 1,-771 807,-771 807,-1 1,-1"/>
</g>
<g id="cluster3" class="cluster"><title>cluster_1</title>
<polygon style="fill:lightgrey;stroke:black;" points="234,-281 234,-406 439,-406 439,-281 234,-281"/>
<text text-anchor="middle" x="336" y="-389.9" style="font-family:Times New Roman;font-size:14.00;">100</text>
</g>
<g id="cluster4" class="cluster"><title>cluster_2</title>
<polygon style="fill:lightgrey;stroke:black;" points="426,-425 426,-550 631,-550 631,-425 426,-425"/>
<text text-anchor="middle" x="528" y="-533.9" style="font-family:Times New Roman;font-size:14.00;">122</text>
</g>
<g id="cluster5" class="cluster"><title>cluster_3</title>
<polygon style="fill:lightgrey;stroke:black;" points="266,-425 266,-614 406,-614 406,-425 266,-425"/>
<text text-anchor="middle" x="336" y="-597.9" style="font-family:Times New Roman;font-size:14.00;">210</text>
</g>
<g id="cluster6" class="cluster"><title>cluster_4</title>
<polygon style="fill:lightgrey;stroke:black;" points="570,-569 570,-739 708,-739 708,-569 570,-569"/>
<text text-anchor="middle" x="639" y="-722.9" style="font-family:Times New Roman;font-size:14.00;">221</text>
</g>
<g id="cluster7" class="cluster"><title>cluster_5</title>
<polygon style="fill:lightgrey;stroke:black;" points="426,-569 426,-739 564,-739 564,-569 426,-569"/>
<text text-anchor="middle" x="495" y="-722.9" style="font-family:Times New Roman;font-size:14.00;">001</text>
</g>
<g id="cluster8" class="cluster"><title>cluster_6</title>
<polygon style="fill:lightgrey;stroke:black;" points="138,-137 138,-273 277,-273 277,-137 138,-137"/>
<text text-anchor="middle" x="207" y="-256.9" style="font-family:Times New Roman;font-size:14.00;">000</text>
</g>
<g id="cluster9" class="cluster"><title>cluster_7</title>
<polygon style="fill:lightgrey;stroke:black;" points="282,-137 282,-273 421,-273 421,-137 282,-137"/>
<text text-anchor="middle" x="351" y="-256.9" style="font-family:Times New Roman;font-size:14.00;">220</text>
</g>
<g id="cluster10" class="cluster"><title>cluster_8</title>
<polygon style="fill:none;stroke:black;" points="570,-89 570,-210 719,-210 719,-89 570,-89"/>
<text text-anchor="middle" x="644" y="-193.9" style="font-family:Times New Roman;font-size:14.00;">101</text>
</g>
<g id="cluster11" class="cluster"><title>cluster_9</title>
<polygon style="fill:lightgrey;stroke:black;" points="122,-569 122,-705 261,-705 261,-569 122,-569"/>
<text text-anchor="middle" x="191" y="-688.9" style="font-family:Times New Roman;font-size:14.00;">222</text>
</g>
<g id="cluster12" class="cluster"><title>cluster_10</title>
<polygon style="fill:lightgrey;stroke:black;" points="458,-217 458,-406 598,-406 598,-217 458,-217"/>
<text text-anchor="middle" x="528" y="-389.9" style="font-family:Times New Roman;font-size:14.00;">012</text>
</g>
<g id="cluster13" class="cluster"><title>cluster_11</title>
<polygon style="fill:lightgrey;stroke:black;" points="122,-425 122,-561 261,-561 261,-425 122,-425"/>
<text text-anchor="middle" x="191" y="-544.9" style="font-family:Times New Roman;font-size:14.00;">022</text>
</g>
<g id="cluster14" class="cluster"><title>cluster_12</title>
<polygon style="fill:lightgrey;stroke:black;" points="90,-281 90,-417 229,-417 229,-281 90,-281"/>
<text text-anchor="middle" x="159" y="-400.9" style="font-family:Times New Roman;font-size:14.00;">200</text>
</g>
<g id="cluster15" class="cluster"><title>cluster_13</title>
<polygon style="fill:none;stroke:black;" points="618,-217 618,-338 767,-338 767,-217 618,-217"/>
<text text-anchor="middle" x="692" y="-321.9" style="font-family:Times New Roman;font-size:14.00;">121</text>
</g>
<g id="cluster16" class="cluster"><title>cluster_14</title>
<polygon style="fill:none;stroke:black;" points="266,-633 266,-754 415,-754 415,-633 266,-633"/>
<text text-anchor="middle" x="340" y="-737.9" style="font-family:Times New Roman;font-size:14.00;">211</text>
</g>
<g id="cluster17" class="cluster"><title>cluster_15</title>
<polygon style="fill:none;stroke:black;" points="650,-345 650,-466 799,-466 799,-345 650,-345"/>
<text text-anchor="middle" x="724" y="-449.9" style="font-family:Times New Roman;font-size:14.00;">110</text>
</g>
<g id="cluster18" class="cluster"><title>cluster_16</title>
<polygon style="fill:lightgrey;stroke:black;" points="426,-73 426,-209 565,-209 565,-73 426,-73"/>
<text text-anchor="middle" x="495" y="-192.9" style="font-family:Times New Roman;font-size:14.00;">002</text>
</g>
<g id="cluster19" class="cluster"><title>cluster_17</title>
<polygon style="fill:none;stroke:black;" points="10,-9 10,-130 159,-130 159,-9 10,-9"/>
<text text-anchor="middle" x="84" y="-113.9" style="font-family:Times New Roman;font-size:14.00;">011</text>
</g>
<g id="cluster20" class="cluster"><title>cluster_18</title>
<polygon style="fill:none;stroke:black;" points="170,-9 170,-130 319,-130 319,-9 170,-9"/>
<text text-anchor="middle" x="244" y="-113.9" style="font-family:Times New Roman;font-size:14.00;">112</text>
</g>
<!-- VEH1 -->
<g id="node3" class="node"><title>VEH1</title>
<text text-anchor="middle" x="270" y="-350.2" style="font-family:Times New Roman;font-size:12.00;">VEH</text>
</g>
<!-- C101 -->
<g id="node5" class="node"><title>C101</title>
<text text-anchor="middle" x="336" y="-304.2" style="font-family:Times New Roman;font-size:12.00;">C10</text>
</g>
<!-- VEH1&#45;&gt;C101 -->
<g id="edge4" class="edge"><title>VEH1&#45;&gt;C101</title>
<path style="fill:none;stroke:black;" d="M296,-336C298,-335 300,-334 302,-332"/>
<polygon style="fill:black;stroke:black;" points="304.1,-334.8 310,-326 299.9,-329.2 304.1,-334.8"/>
</g>
<!-- D3T1 -->
<g id="node4" class="node"><title>D3T1</title>
<text text-anchor="middle" x="403" y="-350.2" style="font-family:Times New Roman;font-size:12.00;">D3T</text>
</g>
<!-- D3T1&#45;&gt;C101 -->
<g id="edge6" class="edge"><title>D3T1&#45;&gt;C101</title>
<path style="fill:none;stroke:black;" d="M377,-336C375,-335 373,-334 371,-332"/>
<polygon style="fill:black;stroke:black;" points="373.1,-329.2 363,-326 368.9,-334.8 373.1,-329.2"/>
</g>
<!-- VEH2 -->
<g id="node9" class="node"><title>VEH2</title>
<text text-anchor="middle" x="462" y="-494.2" style="font-family:Times New Roman;font-size:12.00;">VEH</text>
</g>
<!-- D3T2 -->
<g id="node10" class="node"><title>D3T2</title>
<text text-anchor="middle" x="595" y="-494.2" style="font-family:Times New Roman;font-size:12.00;">D3T</text>
</g>
<!-- C102 -->
<g id="node11" class="node"><title>C102</title>
<text text-anchor="middle" x="528" y="-448.2" style="font-family:Times New Roman;font-size:12.00;">C10</text>
</g>
<!-- C102&#45;&gt;VEH2 -->
<g id="edge9" class="edge"><title>C102&#45;&gt;VEH2</title>
<path style="fill:none;stroke:black;" d="M502,-470C500,-471 498,-472 496,-474"/>
<polygon style="fill:black;stroke:black;" points="493.9,-471.2 488,-480 498.1,-476.8 493.9,-471.2"/>
</g>
<!-- C102&#45;&gt;D3T2 -->
<g id="edge11" class="edge"><title>C102&#45;&gt;D3T2</title>
<path style="fill:none;stroke:black;" d="M554,-470C556,-471 558,-472 560,-474"/>
<polygon style="fill:black;stroke:black;" points="557.9,-476.8 568,-480 562.1,-471.2 557.9,-476.8"/>
</g>
<!-- VEH3 -->
<g id="node15" class="node"><title>VEH3</title>
<text text-anchor="middle" x="302" y="-558.2" style="font-family:Times New Roman;font-size:12.00;">VEH</text>
</g>
<!-- D3T3 -->
<g id="node16" class="node"><title>D3T3</title>
<text text-anchor="middle" x="370" y="-513.2" style="font-family:Times New Roman;font-size:12.00;">D3T</text>
</g>
<!-- D3T3&#45;&gt;VEH3 -->
<g id="edge14" class="edge"><title>D3T3&#45;&gt;VEH3</title>
<path style="fill:none;stroke:black;" d="M343,-535C341,-536 339,-537 338,-538"/>
<polygon style="fill:black;stroke:black;" points="335.379,-535.541 329,-544 339.262,-541.365 335.379,-535.541"/>
</g>
<!-- C103 -->
<g id="node17" class="node"><title>C103</title>
<text text-anchor="middle" x="367" y="-447.2" style="font-family:Times New Roman;font-size:12.00;">C10</text>
</g>
<!-- D3T3&#45;&gt;C103 -->
<g id="edge16" class="edge"><title>D3T3&#45;&gt;C103</title>
<path style="fill:none;stroke:black;" d="M369,-499C369,-493 369,-486 368,-479"/>
<polygon style="fill:black;stroke:black;" points="371.5,-479 368,-469 364.5,-479 371.5,-479"/>
</g>
<!-- VEH4 -->
<g id="node21" class="node"><title>VEH4</title>
<text text-anchor="middle" x="609" y="-643.2" style="font-family:Times New Roman;font-size:12.00;">VEH</text>
</g>
<!-- D3T4 -->
<g id="node22" class="node"><title>D3T4</title>
<text text-anchor="middle" x="672" y="-683.2" style="font-family:Times New Roman;font-size:12.00;">D3T</text>
</g>
<!-- D3T4&#45;&gt;VEH4 -->
<g id="edge19" class="edge"><title>D3T4&#45;&gt;VEH4</title>
<path style="fill:none;stroke:black;" d="M645,-670C645,-670 645,-670 644,-670"/>
<polygon style="fill:black;stroke:black;" points="646.1,-667.2 636,-664 641.9,-672.8 646.1,-667.2"/>
</g>
<!-- C104 -->
<g id="node23" class="node"><title>C104</title>
<text text-anchor="middle" x="606" y="-592.2" style="font-family:Times New Roman;font-size:12.00;">C10</text>
</g>
<!-- C104&#45;&gt;VEH4 -->
<g id="edge21" class="edge"><title>C104&#45;&gt;VEH4</title>
<path style="fill:none;stroke:black;" d="M607,-614C607,-616 607,-617 607,-619"/>
<polygon style="fill:black;stroke:black;" points="603.522,-619.398 608,-629 610.488,-618.701 603.522,-619.398"/>
</g>
<!-- VEH5 -->
<g id="node27" class="node"><title>VEH5</title>
<text text-anchor="middle" x="465" y="-643.2" style="font-family:Times New Roman;font-size:12.00;">VEH</text>
</g>
<!-- D3T5 -->
<g id="node28" class="node"><title>D3T5</title>
<text text-anchor="middle" x="528" y="-683.2" style="font-family:Times New Roman;font-size:12.00;">D3T</text>
</g>
<!-- VEH5&#45;&gt;D3T5 -->
<g id="edge24" class="edge"><title>VEH5&#45;&gt;D3T5</title>
<path style="fill:none;stroke:black;" d="M492,-664C492,-664 492,-664 493,-664"/>
<polygon style="fill:black;stroke:black;" points="490.9,-666.8 501,-670 495.1,-661.2 490.9,-666.8"/>
</g>
<!-- C105 -->
<g id="node29" class="node"><title>C105</title>
<text text-anchor="middle" x="462" y="-592.2" style="font-family:Times New Roman;font-size:12.00;">C10</text>
</g>
<!-- VEH5&#45;&gt;C105 -->
<g id="edge26" class="edge"><title>VEH5&#45;&gt;C105</title>
<path style="fill:none;stroke:black;" d="M464,-629C464,-627 464,-626 464,-624"/>
<polygon style="fill:black;stroke:black;" points="467.478,-623.602 463,-614 460.512,-624.299 467.478,-623.602"/>
</g>
<!-- VEH6 -->
<g id="node33" class="node"><title>VEH6</title>
<text text-anchor="middle" x="174" y="-217.2" style="font-family:Times New Roman;font-size:12.00;">VEH</text>
</g>
<!-- D3T6 -->
<g id="node34" class="node"><title>D3T6</title>
<text text-anchor="middle" x="241" y="-216.2" style="font-family:Times New Roman;font-size:12.00;">D3T</text>
</g>
<!-- VEH6&#45;&gt;D3T6 -->
<g id="edge29" class="edge"><title>VEH6&#45;&gt;D3T6</title>
<path style="fill:none;stroke:black;" d="M201,-221C202,-221 203,-221 204,-221"/>
<polygon style="fill:black;stroke:black;" points="204.398,-224.478 214,-220 203.701,-217.512 204.398,-224.478"/>
</g>
<!-- C106 -->
<g id="node35" class="node"><title>C106</title>
<text text-anchor="middle" x="207" y="-160.2" style="font-family:Times New Roman;font-size:12.00;">C10</text>
</g>
<!-- VEH6&#45;&gt;C106 -->
<g id="edge31" class="edge"><title>VEH6&#45;&gt;C106</title>
<path style="fill:none;stroke:black;" d="M184,-203C186,-199 189,-195 191,-191"/>
<polygon style="fill:black;stroke:black;" points="194.203,-192.441 196,-182 188.084,-189.042 194.203,-192.441"/>
</g>
<!-- D3T6&#45;&gt;C106 -->
<g id="edge33" class="edge"><title>D3T6&#45;&gt;C106</title>
<path style="fill:none;stroke:black;" d="M230,-202C228,-199 225,-195 223,-191"/>
<polygon style="fill:black;stroke:black;" points="225.916,-189.042 218,-182 219.797,-192.441 225.916,-189.042"/>
</g>
<!-- VEH7 -->
<g id="node40" class="node"><title>VEH7</title>
<text text-anchor="middle" x="318" y="-217.2" style="font-family:Times New Roman;font-size:12.00;">VEH</text>
</g>
<!-- D3T7 -->
<g id="node41" class="node"><title>D3T7</title>
<text text-anchor="middle" x="385" y="-216.2" style="font-family:Times New Roman;font-size:12.00;">D3T</text>
</g>
<!-- D3T7&#45;&gt;VEH7 -->
<g id="edge36" class="edge"><title>D3T7&#45;&gt;VEH7</title>
<path style="fill:none;stroke:black;" d="M358,-220C357,-220 356,-220 355,-220"/>
<polygon style="fill:black;stroke:black;" points="354.602,-216.522 345,-221 355.299,-223.488 354.602,-216.522"/>
</g>
<!-- C107 -->
<g id="node42" class="node"><title>C107</title>
<text text-anchor="middle" x="351" y="-160.2" style="font-family:Times New Roman;font-size:12.00;">C10</text>
</g>
<!-- D3T7&#45;&gt;C107 -->
<g id="edge38" class="edge"><title>D3T7&#45;&gt;C107</title>
<path style="fill:none;stroke:black;" d="M374,-202C372,-199 369,-195 367,-191"/>
<polygon style="fill:black;stroke:black;" points="369.916,-189.042 362,-182 363.797,-192.441 369.916,-189.042"/>
</g>
<!-- C107&#45;&gt;VEH7 -->
<g id="edge40" class="edge"><title>C107&#45;&gt;VEH7</title>
<path style="fill:none;stroke:black;" d="M341,-182C339,-186 336,-190 334,-194"/>
<polygon style="fill:black;stroke:black;" points="330.797,-192.559 329,-203 336.916,-195.958 330.797,-192.559"/>
</g>
<!-- VEH8 -->
<g id="node47" class="node"><title>VEH8</title>
<text text-anchor="middle" x="606" y="-121.2" style="font-family:Times New Roman;font-size:12.00;">VEH</text>
</g>
<!-- C108 -->
<g id="node49" class="node"><title>C108</title>
<text text-anchor="middle" x="672" y="-111.2" style="font-family:Times New Roman;font-size:12.00;">C10</text>
</g>
<!-- VEH8&#45;&gt;C108 -->
<g id="edge43" class="edge"><title>VEH8&#45;&gt;C108</title>
<path style="fill:none;stroke:black;" d="M633,-121C634,-121 634,-121 635,-121"/>
<polygon style="fill:black;stroke:black;" points="635.881,-124.393 645,-119 634.508,-117.529 635.881,-124.393"/>
</g>
<!-- D3T8 -->
<g id="node48" class="node"><title>D3T8</title>
<text text-anchor="middle" x="683" y="-153.2" style="font-family:Times New Roman;font-size:12.00;">D3T</text>
</g>
<!-- VEH9 -->
<g id="node52" class="node"><title>VEH9</title>
<text text-anchor="middle" x="158" y="-649.2" style="font-family:Times New Roman;font-size:12.00;">VEH</text>
</g>
<!-- D3T9 -->
<g id="node53" class="node"><title>D3T9</title>
<text text-anchor="middle" x="225" y="-648.2" style="font-family:Times New Roman;font-size:12.00;">D3T</text>
</g>
<!-- D3T9&#45;&gt;VEH9 -->
<g id="edge46" class="edge"><title>D3T9&#45;&gt;VEH9</title>
<path style="fill:none;stroke:black;" d="M198,-652C197,-652 196,-652 195,-652"/>
<polygon style="fill:black;stroke:black;" points="194.602,-648.522 185,-653 195.299,-655.488 194.602,-648.522"/>
</g>
<!-- C109 -->
<g id="node54" class="node"><title>C109</title>
<text text-anchor="middle" x="191" y="-592.2" style="font-family:Times New Roman;font-size:12.00;">C10</text>
</g>
<!-- C109&#45;&gt;VEH9 -->
<g id="edge48" class="edge"><title>C109&#45;&gt;VEH9</title>
<path style="fill:none;stroke:black;" d="M181,-614C179,-618 176,-622 174,-626"/>
<polygon style="fill:black;stroke:black;" points="170.797,-624.559 169,-635 176.916,-627.958 170.797,-624.559"/>
</g>
<!-- C109&#45;&gt;D3T9 -->
<g id="edge50" class="edge"><title>C109&#45;&gt;D3T9</title>
<path style="fill:none;stroke:black;" d="M202,-614C204,-617 207,-621 209,-625"/>
<polygon style="fill:black;stroke:black;" points="206.084,-626.958 214,-634 212.203,-623.559 206.084,-626.958"/>
</g>
<!-- VEH10 -->
<g id="node59" class="node"><title>VEH10</title>
<text text-anchor="middle" x="494" y="-350.2" style="font-family:Times New Roman;font-size:12.00;">VEH</text>
</g>
<!-- D3T10 -->
<g id="node60" class="node"><title>D3T10</title>
<text text-anchor="middle" x="562" y="-305.2" style="font-family:Times New Roman;font-size:12.00;">D3T</text>
</g>
<!-- VEH10&#45;&gt;D3T10 -->
<g id="edge53" class="edge"><title>VEH10&#45;&gt;D3T10</title>
<path style="fill:none;stroke:black;" d="M521,-336C523,-335 525,-334 526,-333"/>
<polygon style="fill:black;stroke:black;" points="528.621,-335.459 535,-327 524.738,-329.635 528.621,-335.459"/>
</g>
<!-- C1010 -->
<g id="node61" class="node"><title>C1010</title>
<text text-anchor="middle" x="559" y="-239.2" style="font-family:Times New Roman;font-size:12.00;">C10</text>
</g>
<!-- C1010&#45;&gt;D3T10 -->
<g id="edge55" class="edge"><title>C1010&#45;&gt;D3T10</title>
<path style="fill:none;stroke:black;" d="M560,-261C560,-267 560,-274 561,-281"/>
<polygon style="fill:black;stroke:black;" points="557.5,-281 561,-291 564.5,-281 557.5,-281"/>
</g>
<!-- VEH11 -->
<g id="node65" class="node"><title>VEH11</title>
<text text-anchor="middle" x="158" y="-505.2" style="font-family:Times New Roman;font-size:12.00;">VEH</text>
</g>
<!-- D3T11 -->
<g id="node66" class="node"><title>D3T11</title>
<text text-anchor="middle" x="225" y="-504.2" style="font-family:Times New Roman;font-size:12.00;">D3T</text>
</g>
<!-- VEH11&#45;&gt;D3T11 -->
<g id="edge58" class="edge"><title>VEH11&#45;&gt;D3T11</title>
<path style="fill:none;stroke:black;" d="M185,-509C186,-509 187,-509 188,-509"/>
<polygon style="fill:black;stroke:black;" points="188.398,-512.478 198,-508 187.701,-505.512 188.398,-512.478"/>
</g>
<!-- C1011 -->
<g id="node67" class="node"><title>C1011</title>
<text text-anchor="middle" x="191" y="-448.2" style="font-family:Times New Roman;font-size:12.00;">C10</text>
</g>
<!-- C1011&#45;&gt;VEH11 -->
<g id="edge60" class="edge"><title>C1011&#45;&gt;VEH11</title>
<path style="fill:none;stroke:black;" d="M181,-470C179,-474 176,-478 174,-482"/>
<polygon style="fill:black;stroke:black;" points="170.797,-480.559 169,-491 176.916,-483.958 170.797,-480.559"/>
</g>
<!-- C1011&#45;&gt;D3T11 -->
<g id="edge62" class="edge"><title>C1011&#45;&gt;D3T11</title>
<path style="fill:none;stroke:black;" d="M202,-470C204,-473 207,-477 209,-481"/>
<polygon style="fill:black;stroke:black;" points="206.084,-482.958 214,-490 212.203,-479.559 206.084,-482.958"/>
</g>
<!-- VEH12 -->
<g id="node72" class="node"><title>VEH12</title>
<text text-anchor="middle" x="126" y="-361.2" style="font-family:Times New Roman;font-size:12.00;">VEH</text>
</g>
<!-- C1012 -->
<g id="node74" class="node"><title>C1012</title>
<text text-anchor="middle" x="159" y="-304.2" style="font-family:Times New Roman;font-size:12.00;">C10</text>
</g>
<!-- VEH12&#45;&gt;C1012 -->
<g id="edge65" class="edge"><title>VEH12&#45;&gt;C1012</title>
<path style="fill:none;stroke:black;" d="M136,-347C138,-343 141,-339 143,-335"/>
<polygon style="fill:black;stroke:black;" points="146.203,-336.441 148,-326 140.084,-333.042 146.203,-336.441"/>
</g>
<!-- D3T12 -->
<g id="node73" class="node"><title>D3T12</title>
<text text-anchor="middle" x="193" y="-360.2" style="font-family:Times New Roman;font-size:12.00;">D3T</text>
</g>
<!-- D3T12&#45;&gt;VEH12 -->
<g id="edge67" class="edge"><title>D3T12&#45;&gt;VEH12</title>
<path style="fill:none;stroke:black;" d="M166,-364C165,-364 164,-364 163,-364"/>
<polygon style="fill:black;stroke:black;" points="162.602,-360.522 153,-365 163.299,-367.488 162.602,-360.522"/>
</g>
<!-- D3T12&#45;&gt;C1012 -->
<g id="edge69" class="edge"><title>D3T12&#45;&gt;C1012</title>
<path style="fill:none;stroke:black;" d="M182,-346C180,-343 177,-339 175,-335"/>
<polygon style="fill:black;stroke:black;" points="177.916,-333.042 170,-326 171.797,-336.441 177.916,-333.042"/>
</g>
<!-- VEH13 -->
<g id="node79" class="node"><title>VEH13</title>
<text text-anchor="middle" x="654" y="-249.2" style="font-family:Times New Roman;font-size:12.00;">VEH</text>
</g>
<!-- D3T13 -->
<g id="node80" class="node"><title>D3T13</title>
<text text-anchor="middle" x="731" y="-281.2" style="font-family:Times New Roman;font-size:12.00;">D3T</text>
</g>
<!-- C1013 -->
<g id="node81" class="node"><title>C1013</title>
<text text-anchor="middle" x="720" y="-239.2" style="font-family:Times New Roman;font-size:12.00;">C10</text>
</g>
<!-- C1013&#45;&gt;VEH13 -->
<g id="edge72" class="edge"><title>C1013&#45;&gt;VEH13</title>
<path style="fill:none;stroke:black;" d="M693,-247C692,-247 692,-247 691,-247"/>
<polygon style="fill:black;stroke:black;" points="690.119,-243.607 681,-249 691.492,-250.471 690.119,-243.607"/>
</g>
<!-- VEH14 -->
<g id="node84" class="node"><title>VEH14</title>
<text text-anchor="middle" x="302" y="-665.2" style="font-family:Times New Roman;font-size:12.00;">VEH</text>
</g>
<!-- D3T14 -->
<g id="node85" class="node"><title>D3T14</title>
<text text-anchor="middle" x="368" y="-655.2" style="font-family:Times New Roman;font-size:12.00;">D3T</text>
</g>
<!-- D3T14&#45;&gt;VEH14 -->
<g id="edge75" class="edge"><title>D3T14&#45;&gt;VEH14</title>
<path style="fill:none;stroke:black;" d="M341,-663C340,-663 340,-663 339,-663"/>
<polygon style="fill:black;stroke:black;" points="338.119,-659.607 329,-665 339.492,-666.471 338.119,-659.607"/>
</g>
<!-- C1014 -->
<g id="node86" class="node"><title>C1014</title>
<text text-anchor="middle" x="379" y="-697.2" style="font-family:Times New Roman;font-size:12.00;">C10</text>
</g>
<!-- VEH15 -->
<g id="node89" class="node"><title>VEH15</title>
<text text-anchor="middle" x="763" y="-409.2" style="font-family:Times New Roman;font-size:12.00;">VEH</text>
</g>
<!-- D3T15 -->
<g id="node90" class="node"><title>D3T15</title>
<text text-anchor="middle" x="686" y="-377.2" style="font-family:Times New Roman;font-size:12.00;">D3T</text>
</g>
<!-- C1015 -->
<g id="node91" class="node"><title>C1015</title>
<text text-anchor="middle" x="752" y="-367.2" style="font-family:Times New Roman;font-size:12.00;">C10</text>
</g>
<!-- D3T15&#45;&gt;C1015 -->
<g id="edge78" class="edge"><title>D3T15&#45;&gt;C1015</title>
<path style="fill:none;stroke:black;" d="M713,-377C714,-377 714,-377 715,-377"/>
<polygon style="fill:black;stroke:black;" points="715.881,-380.393 725,-375 714.508,-373.529 715.881,-380.393"/>
</g>
<!-- VEH16 -->
<g id="node94" class="node"><title>VEH16</title>
<text text-anchor="middle" x="462" y="-153.2" style="font-family:Times New Roman;font-size:12.00;">VEH</text>
</g>
<!-- D3T16 -->
<g id="node95" class="node"><title>D3T16</title>
<text text-anchor="middle" x="529" y="-152.2" style="font-family:Times New Roman;font-size:12.00;">D3T</text>
</g>
<!-- VEH16&#45;&gt;D3T16 -->
<g id="edge81" class="edge"><title>VEH16&#45;&gt;D3T16</title>
<path style="fill:none;stroke:black;" d="M489,-157C490,-157 491,-157 492,-157"/>
<polygon style="fill:black;stroke:black;" points="492.398,-160.478 502,-156 491.701,-153.512 492.398,-160.478"/>
</g>
<!-- C1016 -->
<g id="node96" class="node"><title>C1016</title>
<text text-anchor="middle" x="495" y="-96.2" style="font-family:Times New Roman;font-size:12.00;">C10</text>
</g>
<!-- VEH16&#45;&gt;C1016 -->
<g id="edge83" class="edge"><title>VEH16&#45;&gt;C1016</title>
<path style="fill:none;stroke:black;" d="M472,-139C474,-135 477,-131 479,-127"/>
<polygon style="fill:black;stroke:black;" points="482.203,-128.441 484,-118 476.084,-125.042 482.203,-128.441"/>
</g>
<!-- C1016&#45;&gt;D3T16 -->
<g id="edge85" class="edge"><title>C1016&#45;&gt;D3T16</title>
<path style="fill:none;stroke:black;" d="M506,-118C508,-121 511,-125 513,-129"/>
<polygon style="fill:black;stroke:black;" points="510.084,-130.958 518,-138 516.203,-127.559 510.084,-130.958"/>
</g>
<!-- VEH17 -->
<g id="node101" class="node"><title>VEH17</title>
<text text-anchor="middle" x="46" y="-41.2" style="font-family:Times New Roman;font-size:12.00;">VEH</text>
</g>
<!-- D3T17 -->
<g id="node102" class="node"><title>D3T17</title>
<text text-anchor="middle" x="112" y="-31.2" style="font-family:Times New Roman;font-size:12.00;">D3T</text>
</g>
<!-- VEH17&#45;&gt;D3T17 -->
<g id="edge88" class="edge"><title>VEH17&#45;&gt;D3T17</title>
<path style="fill:none;stroke:black;" d="M73,-41C74,-41 74,-41 75,-41"/>
<polygon style="fill:black;stroke:black;" points="75.8806,-44.3933 85,-39 74.5078,-37.5292 75.8806,-44.3933"/>
</g>
<!-- C1017 -->
<g id="node103" class="node"><title>C1017</title>
<text text-anchor="middle" x="123" y="-73.2" style="font-family:Times New Roman;font-size:12.00;">C10</text>
</g>
<!-- VEH18 -->
<g id="node106" class="node"><title>VEH18</title>
<text text-anchor="middle" x="283" y="-73.2" style="font-family:Times New Roman;font-size:12.00;">VEH</text>
</g>
<!-- D3T18 -->
<g id="node107" class="node"><title>D3T18</title>
<text text-anchor="middle" x="206" y="-41.2" style="font-family:Times New Roman;font-size:12.00;">D3T</text>
</g>
<!-- C1018 -->
<g id="node108" class="node"><title>C1018</title>
<text text-anchor="middle" x="272" y="-31.2" style="font-family:Times New Roman;font-size:12.00;">C10</text>
</g>
<!-- C1018&#45;&gt;D3T18 -->
<g id="edge91" class="edge"><title>C1018&#45;&gt;D3T18</title>
<path style="fill:none;stroke:black;" d="M245,-39C244,-39 244,-39 243,-39"/>
<polygon style="fill:black;stroke:black;" points="242.119,-35.6067 233,-41 243.492,-42.4708 242.119,-35.6067"/>
</g>
</g>
</svg>
