<?xml version="1.0" encoding="UTF-8" standalone="no"?>
<!DOCTYPE svg PUBLIC "-//W3C//DTD SVG 1.1//EN"
 "http://www.w3.org/Graphics/SVG/1.1/DTD/svg11.dtd">
<!-- Generated by graphviz version 2.26.3 (20100126.1600)
 -->
<!-- Title: TDAGS Pages: 1 -->
<svg width="1111pt" height="1110pt"
 viewBox="0.00 0.00 1111.00 1110.00" xmlns="http://www.w3.org/2000/svg" xmlns:xlink="http://www.w3.org/1999/xlink">
<g id="graph1" class="graph" transform="scale(1 1) rotate(0) translate(4 1106)">
<title>TDAGS</title>
<polygon fill="white" stroke="white" points="-4,5 -4,-1106 1108,-1106 1108,5 -4,5"/>
<g id="graph2" class="cluster"><title>cluster_0</title>
<polygon fill="none" stroke="black" points="0.738117,-0.640888 0.738117,-1100.64 1101.74,-1100.64 1101.74,-0.640888 0.738117,-0.640888"/>
</g>
<g id="graph3" class="cluster"><title>cluster_1</title>
<polygon fill="lightgrey" stroke="black" points="369.976,-129.782 369.976,-308.782 535.976,-308.782 535.976,-129.782 369.976,-129.782"/>
<text text-anchor="middle" x="452.976" y="-292.182" font-family="Times Roman,serif" font-size="14.00">100001</text>
</g>
<g id="graph4" class="cluster"><title>cluster_2</title>
<polygon fill="lightgrey" stroke="black" points="9.47623,-909.282 9.47623,-1091.28 148.476,-1091.28 148.476,-909.282 9.47623,-909.282"/>
<text text-anchor="middle" x="78.9762" y="-1074.68" font-family="Times Roman,serif" font-size="14.00">022221</text>
</g>
<g id="graph5" class="cluster"><title>cluster_3</title>
<polygon fill="lightgrey" stroke="black" points="368.976,-348.782 368.976,-525.782 562.976,-525.782 562.976,-348.782 368.976,-348.782"/>
<text text-anchor="middle" x="465.976" y="-509.182" font-family="Times Roman,serif" font-size="14.00">211001</text>
</g>
<g id="graph6" class="cluster"><title>cluster_4</title>
<polygon fill="none" stroke="black" points="589.476,-549.282 589.476,-683.282 804.476,-683.282 804.476,-549.282 589.476,-549.282"/>
<text text-anchor="middle" x="696.976" y="-666.682" font-family="Times Roman,serif" font-size="14.00">121211</text>
</g>
<g id="graph7" class="cluster"><title>cluster_5</title>
<polygon fill="none" stroke="black" points="389.476,-569.282 389.476,-745.282 560.476,-745.282 560.476,-569.282 389.476,-569.282"/>
<text text-anchor="middle" x="474.976" y="-728.682" font-family="Times Roman,serif" font-size="14.00">011122</text>
</g>
<g id="graph8" class="cluster"><title>cluster_6</title>
<polygon fill="lightgrey" stroke="black" points="569.976,-109.782 569.976,-288.782 735.976,-288.782 735.976,-109.782 569.976,-109.782"/>
<text text-anchor="middle" x="652.976" y="-272.182" font-family="Times Roman,serif" font-size="14.00">122221</text>
</g>
<g id="graph9" class="cluster"><title>cluster_7</title>
<polygon fill="lightgrey" stroke="black" points="9.47623,-689.282 9.47623,-871.282 148.476,-871.282 148.476,-689.282 9.47623,-689.282"/>
<text text-anchor="middle" x="78.9762" y="-854.682" font-family="Times Roman,serif" font-size="14.00">000001</text>
</g>
<g id="graph10" class="cluster"><title>cluster_8</title>
<polygon fill="lightgrey" stroke="black" points="729.976,-708.782 729.976,-895.782 909.976,-895.782 909.976,-708.782 729.976,-708.782"/>
<text text-anchor="middle" x="819.976" y="-879.182" font-family="Times Roman,serif" font-size="14.00">222220</text>
</g>
<g id="graph11" class="cluster"><title>cluster_9</title>
<polygon fill="none" stroke="black" points="189.476,-729.782 189.476,-910.782 362.476,-910.782 362.476,-729.782 189.476,-729.782"/>
<text text-anchor="middle" x="275.976" y="-894.182" font-family="Times Roman,serif" font-size="14.00">101001</text>
</g>
<g id="graph12" class="cluster"><title>cluster_10</title>
<polygon fill="none" stroke="black" points="949.476,-549.282 949.476,-739.282 1088.48,-739.282 1088.48,-549.282 949.476,-549.282"/>
<text text-anchor="middle" x="1018.98" y="-722.682" font-family="Times Roman,serif" font-size="14.00">021210</text>
</g>
<g id="graph13" class="cluster"><title>cluster_11</title>
<polygon fill="none" stroke="black" points="769.476,-109.782 769.476,-284.782 934.476,-284.782 934.476,-109.782 769.476,-109.782"/>
<text text-anchor="middle" x="851.976" y="-268.182" font-family="Times Roman,serif" font-size="14.00">122121</text>
</g>
<g id="graph14" class="cluster"><title>cluster_12</title>
<polygon fill="lightgrey" stroke="black" points="149.476,-449.282 149.476,-635.282 330.476,-635.282 330.476,-449.282 149.476,-449.282"/>
<text text-anchor="middle" x="239.976" y="-618.682" font-family="Times Roman,serif" font-size="14.00">222210</text>
</g>
<g id="graph15" class="cluster"><title>cluster_13</title>
<polygon fill="none" stroke="black" points="809.476,-329.782 809.476,-504.782 974.476,-504.782 974.476,-329.782 809.476,-329.782"/>
<text text-anchor="middle" x="891.976" y="-488.182" font-family="Times Roman,serif" font-size="14.00">100101</text>
</g>
<g id="graph16" class="cluster"><title>cluster_14</title>
<polygon fill="lightgrey" stroke="black" points="149.976,-229.782 149.976,-418.782 331.976,-418.782 331.976,-229.782 149.976,-229.782"/>
<text text-anchor="middle" x="240.976" y="-402.182" font-family="Times Roman,serif" font-size="14.00">221100</text>
</g>
<g id="graph17" class="cluster"><title>cluster_15</title>
<polygon fill="none" stroke="black" points="949.476,-769.282 949.476,-947.282 1092.48,-947.282 1092.48,-769.282 949.476,-769.282"/>
<text text-anchor="middle" x="1020.98" y="-930.682" font-family="Times Roman,serif" font-size="14.00">021221</text>
</g>
<g id="graph18" class="cluster"><title>cluster_16</title>
<polygon fill="lightgrey" stroke="black" points="509.476,-789.782 509.476,-946.782 696.476,-946.782 696.476,-789.782 509.476,-789.782"/>
<text text-anchor="middle" x="602.976" y="-930.182" font-family="Times Roman,serif" font-size="14.00">100002</text>
</g>
<g id="graph19" class="cluster"><title>cluster_17</title>
<polygon fill="lightgrey" stroke="black" points="29.9762,-9.78178 29.9762,-192.782 193.976,-192.782 193.976,-9.78178 29.9762,-9.78178"/>
<text text-anchor="middle" x="111.976" y="-176.182" font-family="Times Roman,serif" font-size="14.00">000111</text>
</g>
<g id="graph20" class="cluster"><title>cluster_18</title>
<polygon fill="lightgrey" stroke="black" points="589.476,-328.782 589.476,-523.782 766.476,-523.782 766.476,-328.782 589.476,-328.782"/>
<text text-anchor="middle" x="677.976" y="-507.182" font-family="Times Roman,serif" font-size="14.00">101012</text>
</g>
<!-- CON1 -->
<g id="node3" class="node"><title>CON1</title>
<text text-anchor="middle" x="405.607" y="-197.766" font-family="Times Roman,serif" font-size="12.00">CON</text>
</g>
<!-- D3T1 -->
<g id="node5" class="node"><title>D3T1</title>
<text text-anchor="middle" x="466.452" y="-153.385" font-family="Times Roman,serif" font-size="12.00">D3T</text>
</g>
<!-- CON1&#45;&gt;D3T1 -->
<g id="edge4" class="edge"><title>CON1&#45;&gt;D3T1</title>
<path fill="none" stroke="black" d="M430.355,-183.014C431.276,-182.342 432.204,-181.665 433.136,-180.985"/>
<polygon fill="black" stroke="black" points="435.512,-183.585 441.528,-174.864 431.386,-177.93 435.512,-183.585"/>
</g>
<!-- OLT1 -->
<g id="node6" class="node"><title>OLT1</title>
<text text-anchor="middle" x="438.91" y="-252.523" font-family="Times Roman,serif" font-size="12.00">OLT</text>
</g>
<!-- CON1&#45;&gt;OLT1 -->
<g id="edge6" class="edge"><title>CON1&#45;&gt;OLT1</title>
<path fill="none" stroke="black" d="M416.696,-219.299C418.53,-222.315 420.466,-225.498 422.4,-228.677"/>
<polygon fill="black" stroke="black" points="419.569,-230.757 427.755,-237.482 425.549,-227.12 419.569,-230.757"/>
</g>
<!-- BNF1 -->
<g id="node4" class="node"><title>BNF1</title>
<text text-anchor="middle" x="499.755" y="-208.142" font-family="Times Roman,serif" font-size="12.00">BNF</text>
</g>
<!-- BNF1&#45;&gt;D3T1 -->
<g id="edge8" class="edge"><title>BNF1&#45;&gt;D3T1</title>
<path fill="none" stroke="black" d="M488.666,-193.209C486.831,-190.193 484.895,-187.01 482.962,-183.831"/>
<polygon fill="black" stroke="black" points="485.793,-181.75 477.606,-175.025 479.812,-185.388 485.793,-181.75"/>
</g>
<!-- BNF1&#45;&gt;OLT1 -->
<g id="edge10" class="edge"><title>BNF1&#45;&gt;OLT1</title>
<path fill="none" stroke="black" d="M475.007,-229.494C474.086,-230.166 473.157,-230.843 472.225,-231.523"/>
<polygon fill="black" stroke="black" points="469.85,-228.923 463.834,-237.644 473.975,-234.578 469.85,-228.923"/>
</g>
<!-- CON2 -->
<g id="node12" class="node"><title>CON2</title>
<text text-anchor="middle" x="45.5937" y="-981.501" font-family="Times Roman,serif" font-size="12.00">CON</text>
</g>
<!-- BNF2 -->
<g id="node13" class="node"><title>BNF2</title>
<text text-anchor="middle" x="112.037" y="-990.31" font-family="Times Roman,serif" font-size="12.00">BNF</text>
</g>
<!-- CON2&#45;&gt;BNF2 -->
<g id="edge13" class="edge"><title>CON2&#45;&gt;BNF2</title>
<path fill="none" stroke="black" d="M72.6189,-988.384C73.3734,-988.484 74.1323,-988.584 74.894,-988.685"/>
<polygon fill="black" stroke="black" points="74.4472,-992.157 84.8205,-990.002 75.3673,-985.218 74.4472,-992.157"/>
</g>
<!-- D3T2 -->
<g id="node14" class="node"><title>D3T2</title>
<text text-anchor="middle" x="88.7724" y="-933.481" font-family="Times Roman,serif" font-size="12.00">D3T</text>
</g>
<!-- D3T2&#45;&gt;CON2 -->
<g id="edge15" class="edge"><title>D3T2&#45;&gt;CON2</title>
<path fill="none" stroke="black" d="M72.4484,-954.935C71.2662,-956.25 70.0616,-957.589 68.85,-958.937"/>
<polygon fill="black" stroke="black" points="66.0245,-956.845 61.9408,-966.621 71.2297,-961.525 66.0245,-956.845"/>
</g>
<!-- D3T2&#45;&gt;BNF2 -->
<g id="edge17" class="edge"><title>D3T2&#45;&gt;BNF2</title>
<path fill="none" stroke="black" d="M96.2617,-955.075C97.673,-958.522 99.178,-962.198 100.677,-965.86"/>
<polygon fill="black" stroke="black" points="97.5344,-967.422 104.562,-975.35 104.013,-964.77 97.5344,-967.422"/>
</g>
<!-- OLT2 -->
<g id="node15" class="node"><title>OLT2</title>
<text text-anchor="middle" x="69.8094" y="-1034.9" font-family="Times Roman,serif" font-size="12.00">OLT</text>
</g>
<!-- OLT2&#45;&gt;CON2 -->
<g id="edge19" class="edge"><title>OLT2&#45;&gt;CON2</title>
<path fill="none" stroke="black" d="M61.6111,-1020.12C60.4276,-1017.51 59.1884,-1014.78 57.9457,-1012.04"/>
<polygon fill="black" stroke="black" points="61.101,-1010.52 53.7836,-1002.86 54.7257,-1013.42 61.101,-1010.52"/>
</g>
<!-- OLT2&#45;&gt;BNF2 -->
<g id="edge21" class="edge"><title>OLT2&#45;&gt;BNF2</title>
<path fill="none" stroke="black" d="M86.9852,-1020.07C87.225,-1019.81 87.4654,-1019.56 87.7065,-1019.3"/>
<polygon fill="black" stroke="black" points="90.4055,-1021.54 94.7399,-1011.88 85.3227,-1016.73 90.4055,-1021.54"/>
</g>
<!-- CON3 -->
<g id="node22" class="node"><title>CON3</title>
<text text-anchor="middle" x="404.714" y="-403.206" font-family="Times Roman,serif" font-size="12.00">CON</text>
</g>
<!-- BNF3 -->
<g id="node23" class="node"><title>BNF3</title>
<text text-anchor="middle" x="470.02" y="-420.749" font-family="Times Roman,serif" font-size="12.00">BNF</text>
</g>
<!-- BNF3&#45;&gt;CON3 -->
<g id="edge24" class="edge"><title>BNF3&#45;&gt;CON3</title>
<path fill="none" stroke="black" d="M442.703,-416.711C442.484,-416.652 442.265,-416.593 442.046,-416.535"/>
<polygon fill="black" stroke="black" points="442.697,-413.085 432.131,-413.871 440.881,-419.846 442.697,-413.085"/>
</g>
<!-- D3T3 -->
<g id="node24" class="node"><title>D3T3</title>
<text text-anchor="middle" x="526.725" y="-372.548" font-family="Times Roman,serif" font-size="12.00">D3T</text>
</g>
<!-- BNF3&#45;&gt;D3T3 -->
<g id="edge26" class="edge"><title>BNF3&#45;&gt;D3T3</title>
<path fill="none" stroke="black" d="M491.458,-405.826C493.433,-404.147 495.457,-402.427 497.487,-400.702"/>
<polygon fill="black" stroke="black" points="499.904,-403.24 505.257,-394.097 495.371,-397.907 499.904,-403.24"/>
</g>
<!-- OLT3 -->
<g id="node25" class="node"><title>OLT3</title>
<text text-anchor="middle" x="496.971" y="-469.674" font-family="Times Roman,serif" font-size="12.00">OLT</text>
</g>
<!-- BNF3&#45;&gt;OLT3 -->
<g id="edge28" class="edge"><title>BNF3&#45;&gt;OLT3</title>
<path fill="none" stroke="black" d="M480.056,-442.267C480.695,-443.428 481.346,-444.61 482.002,-445.8"/>
<polygon fill="black" stroke="black" points="479.126,-447.834 487.017,-454.904 485.257,-444.456 479.126,-447.834"/>
</g>
<!-- CON4 -->
<g id="node30" class="node"><title>CON4</title>
<text text-anchor="middle" x="625.816" y="-627.433" font-family="Times Roman,serif" font-size="12.00">CON</text>
</g>
<!-- BNF4 -->
<g id="node31" class="node"><title>BNF4</title>
<text text-anchor="middle" x="754.434" y="-625.253" font-family="Times Roman,serif" font-size="12.00">BNF</text>
</g>
<!-- D3T4 -->
<g id="node32" class="node"><title>D3T4</title>
<text text-anchor="middle" x="691.234" y="-584.393" font-family="Times Roman,serif" font-size="12.00">D3T</text>
</g>
<!-- D3T4&#45;&gt;CON4 -->
<g id="edge31" class="edge"><title>D3T4&#45;&gt;CON4</title>
<path fill="none" stroke="black" d="M663.87,-605.697C663.073,-606.221 662.272,-606.748 661.469,-607.276"/>
<polygon fill="black" stroke="black" points="659.291,-604.519 652.861,-612.94 663.138,-610.367 659.291,-604.519"/>
</g>
<!-- D3T4&#45;&gt;BNF4 -->
<g id="edge33" class="edge"><title>D3T4&#45;&gt;BNF4</title>
<path fill="none" stroke="black" d="M718.403,-605.258C718.495,-605.318 718.587,-605.377 718.679,-605.437"/>
<polygon fill="black" stroke="black" points="716.99,-608.512 727.288,-611.002 720.79,-602.634 716.99,-608.512"/>
</g>
<!-- OLT4 -->
<g id="node33" class="node"><title>OLT4</title>
<text text-anchor="middle" x="768.714" y="-572.623" font-family="Times Roman,serif" font-size="12.00">OLT</text>
</g>
<!-- CON5 -->
<g id="node37" class="node"><title>CON5</title>
<text text-anchor="middle" x="425.276" y="-625.751" font-family="Times Roman,serif" font-size="12.00">CON</text>
</g>
<!-- BNF5 -->
<g id="node38" class="node"><title>BNF5</title>
<text text-anchor="middle" x="524.355" y="-658.049" font-family="Times Roman,serif" font-size="12.00">BNF</text>
</g>
<!-- CON5&#45;&gt;BNF5 -->
<g id="edge36" class="edge"><title>CON5&#45;&gt;BNF5</title>
<path fill="none" stroke="black" d="M452.35,-637.876C463.272,-641.437 476.042,-645.599 487.771,-649.423"/>
<polygon fill="black" stroke="black" points="486.722,-652.762 497.314,-652.534 488.892,-646.107 486.722,-652.762"/>
</g>
<!-- D3T5 -->
<g id="node39" class="node"><title>D3T5</title>
<text text-anchor="middle" x="504.043" y="-592.815" font-family="Times Roman,serif" font-size="12.00">D3T</text>
</g>
<!-- OLT5 -->
<g id="node40" class="node"><title>OLT5</title>
<text text-anchor="middle" x="461.113" y="-688.904" font-family="Times Roman,serif" font-size="12.00">OLT</text>
</g>
<!-- OLT5&#45;&gt;BNF5 -->
<g id="edge38" class="edge"><title>OLT5&#45;&gt;BNF5</title>
<path fill="none" stroke="black" d="M488.301,-678.94C488.393,-678.895 488.485,-678.85 488.577,-678.805"/>
<polygon fill="black" stroke="black" points="489.738,-682.133 497.191,-674.602 486.669,-675.841 489.738,-682.133"/>
</g>
<!-- OLT5&#45;&gt;D3T5 -->
<g id="edge40" class="edge"><title>OLT5&#45;&gt;D3T5</title>
<path fill="none" stroke="black" d="M469.188,-674.131C475.504,-659.994 484.395,-640.094 491.616,-623.931"/>
<polygon fill="black" stroke="black" points="494.975,-624.992 495.858,-614.435 488.584,-622.137 494.975,-624.992"/>
</g>
<!-- CON6 -->
<g id="node45" class="node"><title>CON6</title>
<text text-anchor="middle" x="605.607" y="-177.766" font-family="Times Roman,serif" font-size="12.00">CON</text>
</g>
<!-- BNF6 -->
<g id="node46" class="node"><title>BNF6</title>
<text text-anchor="middle" x="699.755" y="-188.142" font-family="Times Roman,serif" font-size="12.00">BNF</text>
</g>
<!-- D3T6 -->
<g id="node47" class="node"><title>D3T6</title>
<text text-anchor="middle" x="666.452" y="-133.385" font-family="Times Roman,serif" font-size="12.00">D3T</text>
</g>
<!-- D3T6&#45;&gt;CON6 -->
<g id="edge43" class="edge"><title>D3T6&#45;&gt;CON6</title>
<path fill="none" stroke="black" d="M641.704,-154.736C640.782,-155.408 639.854,-156.085 638.922,-156.765"/>
<polygon fill="black" stroke="black" points="636.547,-154.165 630.53,-162.886 640.672,-159.821 636.547,-154.165"/>
</g>
<!-- D3T6&#45;&gt;BNF6 -->
<g id="edge45" class="edge"><title>D3T6&#45;&gt;BNF6</title>
<path fill="none" stroke="black" d="M677.541,-154.918C679.375,-157.934 681.311,-161.117 683.245,-164.296"/>
<polygon fill="black" stroke="black" points="680.414,-166.377 688.6,-173.102 686.394,-162.739 680.414,-166.377"/>
</g>
<!-- OLT6 -->
<g id="node48" class="node"><title>OLT6</title>
<text text-anchor="middle" x="638.91" y="-232.523" font-family="Times Roman,serif" font-size="12.00">OLT</text>
</g>
<!-- OLT6&#45;&gt;CON6 -->
<g id="edge47" class="edge"><title>OLT6&#45;&gt;CON6</title>
<path fill="none" stroke="black" d="M627.821,-217.59C625.986,-214.574 624.05,-211.391 622.117,-208.212"/>
<polygon fill="black" stroke="black" points="624.948,-206.131 616.761,-199.406 618.967,-209.769 624.948,-206.131"/>
</g>
<!-- OLT6&#45;&gt;BNF6 -->
<g id="edge49" class="edge"><title>OLT6&#45;&gt;BNF6</title>
<path fill="none" stroke="black" d="M663.658,-217.772C664.579,-217.1 665.508,-216.422 666.44,-215.743"/>
<polygon fill="black" stroke="black" points="668.815,-218.342 674.831,-209.622 664.69,-212.687 668.815,-218.342"/>
</g>
<!-- CON7 -->
<g id="node54" class="node"><title>CON7</title>
<text text-anchor="middle" x="45.5937" y="-761.501" font-family="Times Roman,serif" font-size="12.00">CON</text>
</g>
<!-- BNF7 -->
<g id="node55" class="node"><title>BNF7</title>
<text text-anchor="middle" x="112.037" y="-770.31" font-family="Times Roman,serif" font-size="12.00">BNF</text>
</g>
<!-- CON7&#45;&gt;BNF7 -->
<g id="edge52" class="edge"><title>CON7&#45;&gt;BNF7</title>
<path fill="none" stroke="black" d="M72.6189,-768.384C73.3734,-768.484 74.1323,-768.584 74.894,-768.685"/>
<polygon fill="black" stroke="black" points="74.4472,-772.157 84.8205,-770.002 75.3673,-765.218 74.4472,-772.157"/>
</g>
<!-- D3T7 -->
<g id="node56" class="node"><title>D3T7</title>
<text text-anchor="middle" x="88.7724" y="-713.481" font-family="Times Roman,serif" font-size="12.00">D3T</text>
</g>
<!-- CON7&#45;&gt;D3T7 -->
<g id="edge54" class="edge"><title>CON7&#45;&gt;D3T7</title>
<path fill="none" stroke="black" d="M61.9177,-746.646C63.0998,-745.332 64.3044,-743.992 65.516,-742.645"/>
<polygon fill="black" stroke="black" points="68.3416,-744.737 72.4253,-734.961 63.1364,-740.056 68.3416,-744.737"/>
</g>
<!-- OLT7 -->
<g id="node57" class="node"><title>OLT7</title>
<text text-anchor="middle" x="69.8094" y="-814.905" font-family="Times Roman,serif" font-size="12.00">OLT</text>
</g>
<!-- CON7&#45;&gt;OLT7 -->
<g id="edge56" class="edge"><title>CON7&#45;&gt;OLT7</title>
<path fill="none" stroke="black" d="M53.792,-782.881C54.9755,-785.491 56.2147,-788.224 57.4574,-790.964"/>
<polygon fill="black" stroke="black" points="54.3021,-792.481 61.6195,-800.143 60.6773,-789.59 54.3021,-792.481"/>
</g>
<!-- BNF7&#45;&gt;D3T7 -->
<g id="edge58" class="edge"><title>BNF7&#45;&gt;D3T7</title>
<path fill="none" stroke="black" d="M104.548,-755.316C103.137,-751.868 101.632,-748.192 100.133,-744.531"/>
<polygon fill="black" stroke="black" points="103.275,-742.969 96.2476,-735.04 96.7973,-745.621 103.275,-742.969"/>
</g>
<!-- BNF7&#45;&gt;OLT7 -->
<g id="edge60" class="edge"><title>BNF7&#45;&gt;OLT7</title>
<path fill="none" stroke="black" d="M94.8617,-791.748C94.622,-792.002 94.3815,-792.256 94.1405,-792.51"/>
<polygon fill="black" stroke="black" points="91.4414,-790.27 87.107,-799.938 96.5242,-795.083 91.4414,-790.27"/>
</g>
<!-- CON8 -->
<g id="node64" class="node"><title>CON8</title>
<text text-anchor="middle" x="766.353" y="-777.479" font-family="Times Roman,serif" font-size="12.00">CON</text>
</g>
<!-- BNF8 -->
<g id="node65" class="node"><title>BNF8</title>
<text text-anchor="middle" x="873.531" y="-794.716" font-family="Times Roman,serif" font-size="12.00">BNF</text>
</g>
<!-- BNF8&#45;&gt;CON8 -->
<g id="edge63" class="edge"><title>BNF8&#45;&gt;CON8</title>
<path fill="none" stroke="black" d="M846.485,-793.667C833.411,-791.564 817.517,-789.008 803.343,-786.728"/>
<polygon fill="black" stroke="black" points="803.819,-783.26 793.39,-785.127 802.707,-790.171 803.819,-783.26"/>
</g>
<!-- D3T8 -->
<g id="node66" class="node"><title>D3T8</title>
<text text-anchor="middle" x="829.852" y="-732.294" font-family="Times Roman,serif" font-size="12.00">D3T</text>
</g>
<!-- D3T8&#45;&gt;CON8 -->
<g id="edge65" class="edge"><title>D3T8&#45;&gt;CON8</title>
<path fill="none" stroke="black" d="M804.39,-753.712C802.967,-754.725 801.526,-755.75 800.08,-756.779"/>
<polygon fill="black" stroke="black" points="797.939,-754.007 791.82,-762.657 801.997,-759.71 797.939,-754.007"/>
</g>
<!-- D3T8&#45;&gt;BNF8 -->
<g id="edge67" class="edge"><title>D3T8&#45;&gt;BNF8</title>
<path fill="none" stroke="black" d="M842.485,-753.649C846.345,-759.165 850.674,-765.352 854.846,-771.314"/>
<polygon fill="black" stroke="black" points="852.173,-773.599 860.774,-779.785 857.908,-769.585 852.173,-773.599"/>
</g>
<!-- OLT8 -->
<g id="node67" class="node"><title>OLT8</title>
<text text-anchor="middle" x="810.032" y="-839.902" font-family="Times Roman,serif" font-size="12.00">OLT</text>
</g>
<!-- D3T8&#45;&gt;OLT8 -->
<g id="edge69" class="edge"><title>D3T8&#45;&gt;OLT8</title>
<path fill="none" stroke="black" d="M826.489,-753.848C823.414,-770.544 818.817,-795.506 815.262,-814.807"/>
<polygon fill="black" stroke="black" points="811.78,-814.39 813.411,-824.858 818.664,-815.658 811.78,-814.39"/>
</g>
<!-- OLT8&#45;&gt;CON8 -->
<g id="edge71" class="edge"><title>OLT8&#45;&gt;CON8</title>
<path fill="none" stroke="black" d="M797.398,-825.147C793.539,-819.631 789.21,-813.444 785.037,-807.481"/>
<polygon fill="black" stroke="black" points="787.711,-805.197 779.11,-799.01 781.975,-809.21 787.711,-805.197"/>
</g>
<!-- OLT8&#45;&gt;BNF8 -->
<g id="edge73" class="edge"><title>OLT8&#45;&gt;BNF8</title>
<path fill="none" stroke="black" d="M835.494,-825.084C836.917,-824.071 838.358,-823.046 839.804,-822.016"/>
<polygon fill="black" stroke="black" points="841.945,-824.788 848.064,-816.139 837.887,-819.085 841.945,-824.788"/>
</g>
<!-- CON9 -->
<g id="node75" class="node"><title>CON9</title>
<text text-anchor="middle" x="225.03" y="-784.908" font-family="Times Roman,serif" font-size="12.00">CON</text>
</g>
<!-- D3T9 -->
<g id="node77" class="node"><title>D3T9</title>
<text text-anchor="middle" x="292.99" y="-753.048" font-family="Times Roman,serif" font-size="12.00">D3T</text>
</g>
<!-- CON9&#45;&gt;D3T9 -->
<g id="edge76" class="edge"><title>CON9&#45;&gt;D3T9</title>
<path fill="none" stroke="black" d="M252.28,-775.433C253.665,-774.784 255.065,-774.127 256.471,-773.468"/>
<polygon fill="black" stroke="black" points="258.164,-776.54 265.733,-769.126 255.193,-770.202 258.164,-776.54"/>
</g>
<!-- BNF9 -->
<g id="node76" class="node"><title>BNF9</title>
<text text-anchor="middle" x="326.463" y="-804.642" font-family="Times Roman,serif" font-size="12.00">BNF</text>
</g>
<!-- BNF9&#45;&gt;D3T9 -->
<g id="edge78" class="edge"><title>BNF9&#45;&gt;D3T9</title>
<path fill="none" stroke="black" d="M314.756,-789.897C313.337,-787.711 311.865,-785.442 310.387,-783.163"/>
<polygon fill="black" stroke="black" points="313.126,-780.955 304.747,-774.47 307.254,-784.765 313.126,-780.955"/>
</g>
<!-- OLT9 -->
<g id="node78" class="node"><title>OLT9</title>
<text text-anchor="middle" x="272.33" y="-854.75" font-family="Times Roman,serif" font-size="12.00">OLT</text>
</g>
<!-- BNF9&#45;&gt;OLT9 -->
<g id="edge80" class="edge"><title>BNF9&#45;&gt;OLT9</title>
<path fill="none" stroke="black" d="M306.92,-826.032C304.497,-828.275 301.987,-830.599 299.476,-832.923"/>
<polygon fill="black" stroke="black" points="296.988,-830.457 292.027,-839.818 301.743,-835.594 296.988,-830.457"/>
</g>
<!-- CON10 -->
<g id="node83" class="node"><title>CON10</title>
<text text-anchor="middle" x="985.164" y="-618.09" font-family="Times Roman,serif" font-size="12.00">CON</text>
</g>
<!-- BNF10 -->
<g id="node84" class="node"><title>BNF10</title>
<text text-anchor="middle" x="1036.46" y="-573.301" font-family="Times Roman,serif" font-size="12.00">BNF</text>
</g>
<!-- CON10&#45;&gt;BNF10 -->
<g id="edge83" class="edge"><title>CON10&#45;&gt;BNF10</title>
<path fill="none" stroke="black" d="M1006.03,-603.173C1006.73,-602.558 1007.44,-601.939 1008.15,-601.318"/>
<polygon fill="black" stroke="black" points="1010.55,-603.871 1015.78,-594.657 1005.95,-598.598 1010.55,-603.871"/>
</g>
<!-- D3T10 -->
<g id="node85" class="node"><title>D3T10</title>
<text text-anchor="middle" x="1052.69" y="-633.717" font-family="Times Roman,serif" font-size="12.00">D3T</text>
</g>
<!-- D3T10&#45;&gt;CON10 -->
<g id="edge85" class="edge"><title>D3T10&#45;&gt;CON10</title>
<path fill="none" stroke="black" d="M1025.61,-630.751C1024.51,-630.496 1023.4,-630.239 1022.29,-629.981"/>
<polygon fill="black" stroke="black" points="1022.78,-626.503 1012.25,-627.658 1021.2,-633.322 1022.78,-626.503"/>
</g>
<!-- D3T10&#45;&gt;BNF10 -->
<g id="edge87" class="edge"><title>D3T10&#45;&gt;BNF10</title>
<path fill="none" stroke="black" d="M1047.82,-618.891C1046.6,-614.35 1045.26,-609.374 1043.95,-604.48"/>
<polygon fill="black" stroke="black" points="1047.3,-603.465 1041.33,-594.715 1040.54,-605.281 1047.3,-603.465"/>
</g>
<!-- OLT10 -->
<g id="node86" class="node"><title>OLT10</title>
<text text-anchor="middle" x="1027.17" y="-683.39" font-family="Times Roman,serif" font-size="12.00">OLT</text>
</g>
<!-- D3T10&#45;&gt;OLT10 -->
<g id="edge89" class="edge"><title>D3T10&#45;&gt;OLT10</title>
<path fill="none" stroke="black" d="M1043.33,-655.232C1042.64,-656.582 1041.93,-657.96 1041.22,-659.348"/>
<polygon fill="black" stroke="black" points="1037.98,-657.984 1036.53,-668.478 1044.21,-661.182 1037.98,-657.984"/>
</g>
<!-- CON11 -->
<g id="node92" class="node"><title>CON11</title>
<text text-anchor="middle" x="805.86" y="-179.306" font-family="Times Roman,serif" font-size="12.00">CON</text>
</g>
<!-- BNF11 -->
<g id="node93" class="node"><title>BNF11</title>
<text text-anchor="middle" x="898.053" y="-201.73" font-family="Times Roman,serif" font-size="12.00">BNF</text>
</g>
<!-- D3T11 -->
<g id="node94" class="node"><title>D3T11</title>
<text text-anchor="middle" x="856.873" y="-133.481" font-family="Times Roman,serif" font-size="12.00">D3T</text>
</g>
<!-- D3T11&#45;&gt;CON11 -->
<g id="edge92" class="edge"><title>D3T11&#45;&gt;CON11</title>
<path fill="none" stroke="black" d="M836.711,-154.893C835.74,-155.765 834.758,-156.647 833.771,-157.534"/>
<polygon fill="black" stroke="black" points="831.309,-155.04 826.209,-164.326 835.987,-160.247 831.309,-155.04"/>
</g>
<!-- OLT11 -->
<g id="node95" class="node"><title>OLT11</title>
<text text-anchor="middle" x="835.02" y="-228.745" font-family="Times Roman,serif" font-size="12.00">OLT</text>
</g>
<!-- OLT11&#45;&gt;CON11 -->
<g id="edge94" class="edge"><title>OLT11&#45;&gt;CON11</title>
<path fill="none" stroke="black" d="M824.328,-213.917C823.456,-212.439 822.564,-210.927 821.666,-209.405"/>
<polygon fill="black" stroke="black" points="824.646,-207.568 816.551,-200.733 818.617,-211.124 824.646,-207.568"/>
</g>
<!-- OLT11&#45;&gt;BNF11 -->
<g id="edge96" class="edge"><title>OLT11&#45;&gt;BNF11</title>
<path fill="none" stroke="black" d="M862.118,-220.431C862.21,-220.392 862.301,-220.353 862.393,-220.313"/>
<polygon fill="black" stroke="black" points="863.166,-223.79 870.979,-216.634 860.409,-217.356 863.166,-223.79"/>
</g>
<!-- CON12 -->
<g id="node100" class="node"><title>CON12</title>
<text text-anchor="middle" x="185.902" y="-519.96" font-family="Times Roman,serif" font-size="12.00">CON</text>
</g>
<!-- BNF12 -->
<g id="node101" class="node"><title>BNF12</title>
<text text-anchor="middle" x="294.006" y="-523.396" font-family="Times Roman,serif" font-size="12.00">BNF</text>
</g>
<!-- BNF12&#45;&gt;CON12 -->
<g id="edge99" class="edge"><title>BNF12&#45;&gt;CON12</title>
<path fill="none" stroke="black" d="M267.006,-525.838C253.72,-525.416 237.497,-524.9 223.061,-524.441"/>
<polygon fill="black" stroke="black" points="223.039,-520.939 212.933,-524.119 222.816,-527.935 223.039,-520.939"/>
</g>
<!-- D3T12 -->
<g id="node102" class="node"><title>D3T12</title>
<text text-anchor="middle" x="240.969" y="-472.595" font-family="Times Roman,serif" font-size="12.00">D3T</text>
</g>
<!-- D3T12&#45;&gt;CON12 -->
<g id="edge101" class="edge"><title>D3T12&#45;&gt;CON12</title>
<path fill="none" stroke="black" d="M219.836,-494.072C218.111,-495.556 216.351,-497.07 214.584,-498.59"/>
<polygon fill="black" stroke="black" points="212.186,-496.035 206.887,-505.21 216.751,-501.342 212.186,-496.035"/>
</g>
<!-- D3T12&#45;&gt;BNF12 -->
<g id="edge103" class="edge"><title>D3T12&#45;&gt;BNF12</title>
<path fill="none" stroke="black" d="M259.817,-493.949C262.259,-496.287 264.795,-498.717 267.334,-501.148"/>
<polygon fill="black" stroke="black" points="265.218,-503.969 274.861,-508.358 270.06,-498.913 265.218,-503.969"/>
</g>
<!-- OLT12 -->
<g id="node103" class="node"><title>OLT12</title>
<text text-anchor="middle" x="218.778" y="-578.651" font-family="Times Roman,serif" font-size="12.00">OLT</text>
</g>
<!-- D3T12&#45;&gt;OLT12 -->
<g id="edge105" class="edge"><title>D3T12&#45;&gt;OLT12</title>
<path fill="none" stroke="black" d="M237.104,-494.369C233.667,-510.793 228.591,-535.051 224.652,-553.875"/>
<polygon fill="black" stroke="black" points="221.221,-553.184 222.599,-563.689 228.073,-554.618 221.221,-553.184"/>
</g>
<!-- OLT12&#45;&gt;CON12 -->
<g id="edge107" class="edge"><title>OLT12&#45;&gt;CON12</title>
<path fill="none" stroke="black" d="M208.556,-563.703C206.183,-559.467 203.608,-554.869 201.073,-550.344"/>
<polygon fill="black" stroke="black" points="203.945,-548.31 196.004,-541.296 197.838,-551.731 203.945,-548.31"/>
</g>
<!-- CON13 -->
<g id="node110" class="node"><title>CON13</title>
<text text-anchor="middle" x="845.86" y="-399.306" font-family="Times Roman,serif" font-size="12.00">CON</text>
</g>
<!-- D3T13 -->
<g id="node112" class="node"><title>D3T13</title>
<text text-anchor="middle" x="896.873" y="-353.481" font-family="Times Roman,serif" font-size="12.00">D3T</text>
</g>
<!-- CON13&#45;&gt;D3T13 -->
<g id="edge110" class="edge"><title>CON13&#45;&gt;D3T13</title>
<path fill="none" stroke="black" d="M866.021,-384.495C866.993,-383.623 867.975,-382.74 868.962,-381.854"/>
<polygon fill="black" stroke="black" points="871.423,-384.348 876.523,-375.061 866.745,-379.14 871.423,-384.348"/>
</g>
<!-- OLT13 -->
<g id="node113" class="node"><title>OLT13</title>
<text text-anchor="middle" x="875.02" y="-448.745" font-family="Times Roman,serif" font-size="12.00">OLT</text>
</g>
<!-- CON13&#45;&gt;OLT13 -->
<g id="edge112" class="edge"><title>CON13&#45;&gt;OLT13</title>
<path fill="none" stroke="black" d="M856.553,-420.735C857.424,-422.213 858.316,-423.724 859.214,-425.247"/>
<polygon fill="black" stroke="black" points="856.234,-427.084 864.329,-433.919 862.263,-423.528 856.234,-427.084"/>
</g>
<!-- BNF13 -->
<g id="node111" class="node"><title>BNF13</title>
<text text-anchor="middle" x="938.053" y="-421.73" font-family="Times Roman,serif" font-size="12.00">BNF</text>
</g>
<!-- BNF13&#45;&gt;OLT13 -->
<g id="edge114" class="edge"><title>BNF13&#45;&gt;OLT13</title>
<path fill="none" stroke="black" d="M910.956,-436.644C910.864,-436.683 910.772,-436.722 910.68,-436.762"/>
<polygon fill="black" stroke="black" points="909.908,-433.285 902.095,-440.441 912.665,-439.719 909.908,-433.285"/>
</g>
<!-- CON14 -->
<g id="node118" class="node"><title>CON14</title>
<text text-anchor="middle" x="185.761" y="-298.768" font-family="Times Roman,serif" font-size="12.00">CON</text>
</g>
<!-- BNF14 -->
<g id="node119" class="node"><title>BNF14</title>
<text text-anchor="middle" x="295.636" y="-317.64" font-family="Times Roman,serif" font-size="12.00">BNF</text>
</g>
<!-- BNF14&#45;&gt;CON14 -->
<g id="edge117" class="edge"><title>BNF14&#45;&gt;CON14</title>
<path fill="none" stroke="black" d="M268.476,-316.275C254.741,-313.916 237.864,-311.017 222.944,-308.454"/>
<polygon fill="black" stroke="black" points="223.438,-304.988 212.99,-306.745 222.253,-311.887 223.438,-304.988"/>
</g>
<!-- OLT14 -->
<g id="node121" class="node"><title>OLT14</title>
<text text-anchor="middle" x="229.916" y="-362.867" font-family="Times Roman,serif" font-size="12.00">OLT</text>
</g>
<!-- BNF14&#45;&gt;OLT14 -->
<g id="edge119" class="edge"><title>BNF14&#45;&gt;OLT14</title>
<path fill="none" stroke="black" d="M269.284,-339.075C267.811,-340.089 266.319,-341.115 264.823,-342.145"/>
<polygon fill="black" stroke="black" points="262.528,-339.476 256.274,-348.028 266.496,-345.242 262.528,-339.476"/>
</g>
<!-- D3T14 -->
<g id="node120" class="node"><title>D3T14</title>
<text text-anchor="middle" x="251.482" y="-253.541" font-family="Times Roman,serif" font-size="12.00">D3T</text>
</g>
<!-- D3T14&#45;&gt;CON14 -->
<g id="edge121" class="edge"><title>D3T14&#45;&gt;CON14</title>
<path fill="none" stroke="black" d="M225.129,-274.976C223.656,-275.99 222.165,-277.016 220.668,-278.046"/>
<polygon fill="black" stroke="black" points="218.373,-275.377 212.119,-283.929 222.341,-281.143 218.373,-275.377"/>
</g>
<!-- D3T14&#45;&gt;OLT14 -->
<g id="edge123" class="edge"><title>D3T14&#45;&gt;OLT14</title>
<path fill="none" stroke="black" d="M247.92,-274.894C244.533,-292.064 239.387,-318.154 235.462,-338.049"/>
<polygon fill="black" stroke="black" points="231.984,-337.599 233.482,-348.087 238.851,-338.954 231.984,-337.599"/>
</g>
<!-- CON15 -->
<g id="node127" class="node"><title>CON15</title>
<text text-anchor="middle" x="985.291" y="-853.556" font-family="Times Roman,serif" font-size="12.00">CON</text>
</g>
<!-- BNF15 -->
<g id="node128" class="node"><title>BNF15</title>
<text text-anchor="middle" x="1053.92" y="-841.947" font-family="Times Roman,serif" font-size="12.00">BNF</text>
</g>
<!-- CON15&#45;&gt;BNF15 -->
<g id="edge126" class="edge"><title>CON15&#45;&gt;BNF15</title>
<path fill="none" stroke="black" d="M1012.41,-852.268C1013.72,-852.047 1015.04,-851.823 1016.37,-851.599"/>
<polygon fill="black" stroke="black" points="1017.27,-854.997 1026.54,-849.878 1016.1,-848.095 1017.27,-854.997"/>
</g>
<!-- D3T15 -->
<g id="node129" class="node"><title>D3T15</title>
<text text-anchor="middle" x="1005.16" y="-792.835" font-family="Times Roman,serif" font-size="12.00">D3T</text>
</g>
<!-- D3T15&#45;&gt;CON15 -->
<g id="edge128" class="edge"><title>D3T15&#45;&gt;CON15</title>
<path fill="none" stroke="black" d="M999.2,-814.353C997.707,-818.917 996.07,-823.918 994.46,-828.836"/>
<polygon fill="black" stroke="black" points="991.032,-828.058 991.248,-838.65 997.685,-830.235 991.032,-828.058"/>
</g>
<!-- D3T15&#45;&gt;BNF15 -->
<g id="edge130" class="edge"><title>D3T15&#45;&gt;BNF15</title>
<path fill="none" stroke="black" d="M1023.04,-814.144C1024.89,-816.012 1026.8,-817.935 1028.72,-819.865"/>
<polygon fill="black" stroke="black" points="1026.51,-822.61 1036.04,-827.241 1031.48,-817.678 1026.51,-822.61"/>
</g>
<!-- OLT15 -->
<g id="node130" class="node"><title>OLT15</title>
<text text-anchor="middle" x="1056.42" y="-890.858" font-family="Times Roman,serif" font-size="12.00">OLT</text>
</g>
<!-- OLT15&#45;&gt;BNF15 -->
<g id="edge132" class="edge"><title>OLT15&#45;&gt;BNF15</title>
<path fill="none" stroke="black" d="M1055.49,-875.945C1055.45,-875.171 1055.41,-874.388 1055.37,-873.6"/>
<polygon fill="black" stroke="black" points="1058.85,-873.12 1054.84,-863.312 1051.86,-873.478 1058.85,-873.12"/>
</g>
<!-- CON16 -->
<g id="node136" class="node"><title>CON16</title>
<text text-anchor="middle" x="545.178" y="-841.229" font-family="Times Roman,serif" font-size="12.00">CON</text>
</g>
<!-- D3T16 -->
<g id="node138" class="node"><title>D3T16</title>
<text text-anchor="middle" x="610.653" y="-813.085" font-family="Times Roman,serif" font-size="12.00">D3T</text>
</g>
<!-- CON16&#45;&gt;D3T16 -->
<g id="edge135" class="edge"><title>CON16&#45;&gt;D3T16</title>
<path fill="none" stroke="black" d="M572.187,-832.919C572.759,-832.673 573.334,-832.426 573.911,-832.178"/>
<polygon fill="black" stroke="black" points="575.478,-835.315 583.283,-828.15 572.713,-828.883 575.478,-835.315"/>
</g>
<!-- OLT16 -->
<g id="node139" class="node"><title>OLT16</title>
<text text-anchor="middle" x="594.707" y="-890.5" font-family="Times Roman,serif" font-size="12.00">OLT</text>
</g>
<!-- CON16&#45;&gt;OLT16 -->
<g id="edge137" class="edge"><title>CON16&#45;&gt;OLT16</title>
<path fill="none" stroke="black" d="M563.339,-862.596C565.224,-864.47 567.163,-866.4 569.109,-868.336"/>
<polygon fill="black" stroke="black" points="566.989,-871.164 576.547,-875.735 571.926,-866.201 566.989,-871.164"/>
</g>
<!-- BNF16 -->
<g id="node137" class="node"><title>BNF16</title>
<text text-anchor="middle" x="660.182" y="-862.355" font-family="Times Roman,serif" font-size="12.00">BNF</text>
</g>
<!-- BNF16&#45;&gt;D3T16 -->
<g id="edge139" class="edge"><title>BNF16&#45;&gt;D3T16</title>
<path fill="none" stroke="black" d="M642.02,-847.588C640.136,-845.714 638.197,-843.785 636.25,-841.849"/>
<polygon fill="black" stroke="black" points="638.37,-839.02 628.812,-834.449 633.433,-843.983 638.37,-839.02"/>
</g>
<!-- BNF16&#45;&gt;OLT16 -->
<g id="edge141" class="edge"><title>BNF16&#45;&gt;OLT16</title>
<path fill="none" stroke="black" d="M633.173,-877.265C632.6,-877.511 632.025,-877.758 631.449,-878.006"/>
<polygon fill="black" stroke="black" points="629.882,-874.87 622.077,-882.034 632.646,-881.301 629.882,-874.87"/>
</g>
<!-- OLT16&#45;&gt;D3T16 -->
<g id="edge143" class="edge"><title>OLT16&#45;&gt;D3T16</title>
<path fill="none" stroke="black" d="M598.486,-875.453C600.392,-866.198 602.746,-854.771 604.873,-844.442"/>
<polygon fill="black" stroke="black" points="608.311,-845.1 606.901,-834.599 601.455,-843.687 608.311,-845.1"/>
</g>
<!-- CON17 -->
<g id="node146" class="node"><title>CON17</title>
<text text-anchor="middle" x="94.9617" y="-85.4741" font-family="Times Roman,serif" font-size="12.00">CON</text>
</g>
<!-- BNF17 -->
<g id="node147" class="node"><title>BNF17</title>
<text text-anchor="middle" x="158.215" y="-80.1818" font-family="Times Roman,serif" font-size="12.00">BNF</text>
</g>
<!-- CON17&#45;&gt;BNF17 -->
<g id="edge146" class="edge"><title>CON17&#45;&gt;BNF17</title>
<path fill="none" stroke="black" d="M122.154,-86.499C122.246,-86.4913 122.338,-86.4836 122.43,-86.4759"/>
<polygon fill="black" stroke="black" points="121.373,-90.0767 131.046,-85.755 120.789,-83.1011 121.373,-90.0767"/>
</g>
<!-- D3T17 -->
<g id="node148" class="node"><title>D3T17</title>
<text text-anchor="middle" x="82.8171" y="-33.3307" font-family="Times Roman,serif" font-size="12.00">D3T</text>
</g>
<!-- CON17&#45;&gt;D3T17 -->
<g id="edge148" class="edge"><title>CON17&#45;&gt;D3T17</title>
<path fill="none" stroke="black" d="M90.7141,-70.5369C90.2729,-68.6426 89.8176,-66.6875 89.3586,-64.717"/>
<polygon fill="black" stroke="black" points="92.76,-63.8911 87.0828,-54.9457 85.9425,-65.479 92.76,-63.8911"/>
</g>
<!-- OLT17 -->
<g id="node149" class="node"><title>OLT17</title>
<text text-anchor="middle" x="65.9666" y="-136.256" font-family="Times Roman,serif" font-size="12.00">OLT</text>
</g>
<!-- CON17&#45;&gt;OLT17 -->
<g id="edge150" class="edge"><title>CON17&#45;&gt;OLT17</title>
<path fill="none" stroke="black" d="M84.6574,-106.821C83.6564,-108.574 82.6261,-110.378 81.5882,-112.196"/>
<polygon fill="black" stroke="black" points="78.3522,-110.805 76.4332,-121.225 84.4311,-114.276 78.3522,-110.805"/>
</g>
<!-- CON18 -->
<g id="node154" class="node"><title>CON18</title>
<text text-anchor="middle" x="625.64" y="-352.676" font-family="Times Roman,serif" font-size="12.00">CON</text>
</g>
<!-- D3T18 -->
<g id="node156" class="node"><title>D3T18</title>
<text text-anchor="middle" x="671.881" y="-414.262" font-family="Times Roman,serif" font-size="12.00">D3T</text>
</g>
<!-- CON18&#45;&gt;D3T18 -->
<g id="edge153" class="edge"><title>CON18&#45;&gt;D3T18</title>
<path fill="none" stroke="black" d="M639.264,-374.121C643.273,-379.461 647.743,-385.415 652.058,-391.161"/>
<polygon fill="black" stroke="black" points="649.391,-393.439 658.195,-399.334 654.989,-389.236 649.391,-393.439"/>
</g>
<!-- BNF18 -->
<g id="node155" class="node"><title>BNF18</title>
<text text-anchor="middle" x="730.949" y="-364.964" font-family="Times Roman,serif" font-size="12.00">BNF</text>
</g>
<!-- BNF18&#45;&gt;D3T18 -->
<g id="edge155" class="edge"><title>BNF18&#45;&gt;D3T18</title>
<path fill="none" stroke="black" d="M709.289,-386.341C706.721,-388.484 704.067,-390.699 701.413,-392.914"/>
<polygon fill="black" stroke="black" points="698.972,-390.393 693.537,-399.487 703.458,-395.767 698.972,-390.393"/>
</g>
<!-- OLT18 -->
<g id="node157" class="node"><title>OLT18</title>
<text text-anchor="middle" x="664.706" y="-467.519" font-family="Times Roman,serif" font-size="12.00">OLT</text>
</g>
<!-- OLT18&#45;&gt;D3T18 -->
<g id="edge157" class="edge"><title>OLT18&#45;&gt;D3T18</title>
<path fill="none" stroke="black" d="M667.135,-452.789C667.45,-450.446 667.779,-448.004 668.11,-445.547"/>
<polygon fill="black" stroke="black" points="671.587,-445.951 669.454,-435.574 664.65,-445.017 671.587,-445.951"/>
</g>
</g>
</svg>
