<?xml version="1.0" encoding="UTF-8" standalone="no"?>
<!DOCTYPE svg PUBLIC "-//W3C//DTD SVG 1.1//EN"
 "http://www.w3.org/Graphics/SVG/1.1/DTD/svg11.dtd">
<!-- Generated by graphviz version 2.26.3 (20100126.1600)
 -->
<!-- Title: FirstlevelCluster Pages: 1 -->
<svg width="354pt" height="343pt"
 viewBox="0.00 0.00 354.00 343.00" xmlns="http://www.w3.org/2000/svg" xmlns:xlink="http://www.w3.org/1999/xlink">
<g id="graph1" class="graph" transform="scale(1 1) rotate(0) translate(4 339)">
<title>FirstlevelCluster</title>
<polygon fill="white" stroke="white" points="-4,5 -4,-339 351,-339 351,5 -4,5"/>
<g id="graph2" class="cluster"><title>cluster_0</title>
<polygon fill="none" stroke="black" points="1.23812,-0.640888 1.23812,-334.641 345.238,-334.641 345.238,-0.640888 1.23812,-0.640888"/>
<text text-anchor="middle" x="173.238" y="-318.041" font-family="Times Roman,serif" font-size="14.00">C10&gt;</text>
</g>
<g id="graph3" class="cluster"><title>cluster_2</title>
<polygon fill="lightgrey" stroke="black" points="9.97623,-9.78178 9.97623,-132.782 210.976,-132.782 210.976,-9.78178 9.97623,-9.78178"/>
<text text-anchor="middle" x="110.476" y="-116.182" font-family="Times Roman,serif" font-size="14.00">122</text>
</g>
<g id="graph4" class="cluster"><title>cluster_3</title>
<polygon fill="lightgrey" stroke="black" points="196.976,-162.782 196.976,-299.782 335.976,-299.782 335.976,-162.782 196.976,-162.782"/>
<text text-anchor="middle" x="266.476" y="-283.182" font-family="Times Roman,serif" font-size="14.00">222</text>
</g>
<g id="graph5" class="cluster"><title>cluster_4</title>
<polygon fill="lightgrey" stroke="black" points="26.9762,-162.782 26.9762,-299.782 165.976,-299.782 165.976,-162.782 26.9762,-162.782"/>
<text text-anchor="middle" x="96.4762" y="-283.182" font-family="Times Roman,serif" font-size="14.00">022</text>
</g>
<!-- VEH2 -->
<g id="node3" class="node"><title>VEH2</title>
<text text-anchor="middle" x="46.3159" y="-75.8334" font-family="Times Roman,serif" font-size="16.00">VEH</text>
</g>
<!-- D3T2 -->
<g id="node4" class="node"><title>D3T2</title>
<text text-anchor="middle" x="174.934" y="-73.6526" font-family="Times Roman,serif" font-size="16.00">D3T</text>
</g>
<!-- C102 -->
<g id="node5" class="node"><title>C102</title>
<text text-anchor="middle" x="111.734" y="-32.793" font-family="Times Roman,serif" font-size="16.00">C10</text>
</g>
<!-- C102&#45;&gt;VEH2 -->
<g id="edge4" class="edge"><title>C102&#45;&gt;VEH2</title>
<path fill="none" stroke="black" d="M84.3696,-55.1966C83.5731,-55.7206 82.7722,-56.2476 81.969,-56.7761"/>
<polygon fill="black" stroke="black" points="79.7908,-54.0195 73.3605,-62.4398 83.6383,-59.8673 79.7908,-54.0195"/>
</g>
<!-- C102&#45;&gt;D3T2 -->
<g id="edge6" class="edge"><title>C102&#45;&gt;D3T2</title>
<path fill="none" stroke="black" d="M138.903,-54.7582C138.995,-54.8177 139.087,-54.8772 139.179,-54.9368"/>
<polygon fill="black" stroke="black" points="137.49,-58.0121 147.788,-60.5021 141.29,-52.1336 137.49,-58.0121"/>
</g>
<!-- VEH3 -->
<g id="node9" class="node"><title>VEH3</title>
<text text-anchor="middle" x="233.414" y="-241.895" font-family="Times Roman,serif" font-size="16.00">VEH</text>
</g>
<!-- D3T3 -->
<g id="node10" class="node"><title>D3T3</title>
<text text-anchor="middle" x="300.075" y="-241.028" font-family="Times Roman,serif" font-size="16.00">D3T</text>
</g>
<!-- D3T3&#45;&gt;VEH3 -->
<g id="edge9" class="edge"><title>D3T3&#45;&gt;VEH3</title>
<path fill="none" stroke="black" d="M272.961,-245.781C272.331,-245.789 271.697,-245.797 271.061,-245.805"/>
<polygon fill="black" stroke="black" points="270.674,-242.31 260.72,-245.94 270.765,-249.309 270.674,-242.31"/>
</g>
<!-- C103 -->
<g id="node11" class="node"><title>C103</title>
<text text-anchor="middle" x="266.012" y="-185.158" font-family="Times Roman,serif" font-size="16.00">C10</text>
</g>
<!-- C103&#45;&gt;VEH3 -->
<g id="edge11" class="edge"><title>C103&#45;&gt;VEH3</title>
<path fill="none" stroke="black" d="M255.518,-207.823C253.425,-211.467 251.184,-215.367 248.961,-219.235"/>
<polygon fill="black" stroke="black" points="245.835,-217.651 243.888,-228.065 251.905,-221.138 245.835,-217.651"/>
</g>
<!-- C103&#45;&gt;D3T3 -->
<g id="edge13" class="edge"><title>C103&#45;&gt;D3T3</title>
<path fill="none" stroke="black" d="M277.166,-207.852C279.245,-211.263 281.458,-214.893 283.658,-218.5"/>
<polygon fill="black" stroke="black" points="280.819,-220.568 289.013,-227.284 286.796,-216.924 280.819,-220.568"/>
</g>
<!-- VEH4 -->
<g id="node16" class="node"><title>VEH4</title>
<text text-anchor="middle" x="63.414" y="-241.895" font-family="Times Roman,serif" font-size="16.00">VEH</text>
</g>
<!-- D3T4 -->
<g id="node17" class="node"><title>D3T4</title>
<text text-anchor="middle" x="130.075" y="-241.028" font-family="Times Roman,serif" font-size="16.00">D3T</text>
</g>
<!-- VEH4&#45;&gt;D3T4 -->
<g id="edge16" class="edge"><title>VEH4&#45;&gt;D3T4</title>
<path fill="none" stroke="black" d="M90.5276,-245.942C91.1584,-245.934 91.7923,-245.926 92.4283,-245.918"/>
<polygon fill="black" stroke="black" points="92.8155,-249.413 102.769,-245.783 92.7244,-242.414 92.8155,-249.413"/>
</g>
<!-- C104 -->
<g id="node18" class="node"><title>C104</title>
<text text-anchor="middle" x="96.0122" y="-185.158" font-family="Times Roman,serif" font-size="16.00">C10</text>
</g>
<!-- C104&#45;&gt;VEH4 -->
<g id="edge18" class="edge"><title>C104&#45;&gt;VEH4</title>
<path fill="none" stroke="black" d="M85.5185,-207.823C83.4246,-211.467 81.1837,-215.367 78.9614,-219.235"/>
<polygon fill="black" stroke="black" points="75.8351,-217.651 73.888,-228.065 81.9046,-221.138 75.8351,-217.651"/>
</g>
<!-- C104&#45;&gt;D3T4 -->
<g id="edge20" class="edge"><title>C104&#45;&gt;D3T4</title>
<path fill="none" stroke="black" d="M107.166,-207.852C109.245,-211.263 111.458,-214.893 113.658,-218.5"/>
<polygon fill="black" stroke="black" points="110.819,-220.568 119.013,-227.284 116.796,-216.924 110.819,-220.568"/>
</g>
</g>
</svg>
