<?xml version="1.0" encoding="UTF-8" standalone="no"?>
<!DOCTYPE svg PUBLIC "-//W3C//DTD SVG 1.1//EN"
 "http://www.w3.org/Graphics/SVG/1.1/DTD/svg11.dtd">
<!-- Generated by graphviz version 2.26.3 (20100126.1600)
 -->
<!-- Title: FirstlevelCluster Pages: 1 -->
<svg width="354pt" height="343pt"
 viewBox="0.00 0.00 354.00 343.00" xmlns="http://www.w3.org/2000/svg" xmlns:xlink="http://www.w3.org/1999/xlink">
<g id="graph1" class="graph" transform="scale(1 1) rotate(0) translate(4 339)">
<title>FirstlevelCluster</title>
<polygon fill="white" stroke="white" points="-4,5 -4,-339 351,-339 351,5 -4,5"/>
<g id="graph2" class="cluster"><title>cluster_0</title>
<polygon fill="none" stroke="black" points="1.23812,-0.640888 1.23812,-334.641 345.238,-334.641 345.238,-0.640888 1.23812,-0.640888"/>
<text text-anchor="middle" x="173.238" y="-318.041" font-family="Times Roman,serif" font-size="14.00">&gt;C10</text>
</g>
<g id="graph3" class="cluster"><title>cluster_2</title>
<polygon fill="lightgrey" stroke="black" points="9.97623,-9.78178 9.97623,-132.782 210.976,-132.782 210.976,-9.78178 9.97623,-9.78178"/>
<text text-anchor="middle" x="110.476" y="-116.182" font-family="Times Roman,serif" font-size="14.00">100</text>
</g>
<g id="graph4" class="cluster"><title>cluster_3</title>
<polygon fill="lightgrey" stroke="black" points="196.976,-162.782 196.976,-299.782 335.976,-299.782 335.976,-162.782 196.976,-162.782"/>
<text text-anchor="middle" x="266.476" y="-283.182" font-family="Times Roman,serif" font-size="14.00">000</text>
</g>
<g id="graph5" class="cluster"><title>cluster_4</title>
<polygon fill="lightgrey" stroke="black" points="26.9762,-162.782 26.9762,-299.782 165.976,-299.782 165.976,-162.782 26.9762,-162.782"/>
<text text-anchor="middle" x="96.4762" y="-283.182" font-family="Times Roman,serif" font-size="14.00">200</text>
</g>
<!-- VEH2 -->
<g id="node3" class="node"><title>VEH2</title>
<text text-anchor="middle" x="46.3159" y="-75.8334" font-family="Times Roman,serif" font-size="16.00">VEH</text>
</g>
<!-- C102 -->
<g id="node5" class="node"><title>C102</title>
<text text-anchor="middle" x="111.734" y="-32.793" font-family="Times Roman,serif" font-size="16.00">C10</text>
</g>
<!-- VEH2&#45;&gt;C102 -->
<g id="edge4" class="edge"><title>VEH2&#45;&gt;C102</title>
<path fill="none" stroke="black" d="M73.6798,-62.2297C74.4763,-61.7057 75.2772,-61.1788 76.0805,-60.6503"/>
<polygon fill="black" stroke="black" points="78.2586,-63.4068 84.6889,-54.9865 74.4111,-57.559 78.2586,-63.4068"/>
</g>
<!-- D3T2 -->
<g id="node4" class="node"><title>D3T2</title>
<text text-anchor="middle" x="174.934" y="-73.6526" font-family="Times Roman,serif" font-size="16.00">D3T</text>
</g>
<!-- D3T2&#45;&gt;C102 -->
<g id="edge6" class="edge"><title>D3T2&#45;&gt;C102</title>
<path fill="none" stroke="black" d="M147.765,-60.4873C147.673,-60.4278 147.581,-60.3683 147.489,-60.3087"/>
<polygon fill="black" stroke="black" points="149.178,-57.2334 138.88,-54.7434 145.378,-63.1119 149.178,-57.2334"/>
</g>
<!-- VEH3 -->
<g id="node9" class="node"><title>VEH3</title>
<text text-anchor="middle" x="233.414" y="-241.895" font-family="Times Roman,serif" font-size="16.00">VEH</text>
</g>
<!-- D3T3 -->
<g id="node10" class="node"><title>D3T3</title>
<text text-anchor="middle" x="300.075" y="-241.028" font-family="Times Roman,serif" font-size="16.00">D3T</text>
</g>
<!-- VEH3&#45;&gt;D3T3 -->
<g id="edge9" class="edge"><title>VEH3&#45;&gt;D3T3</title>
<path fill="none" stroke="black" d="M260.528,-245.942C261.158,-245.934 261.792,-245.926 262.428,-245.918"/>
<polygon fill="black" stroke="black" points="262.816,-249.413 272.769,-245.783 262.724,-242.414 262.816,-249.413"/>
</g>
<!-- C103 -->
<g id="node11" class="node"><title>C103</title>
<text text-anchor="middle" x="266.012" y="-185.158" font-family="Times Roman,serif" font-size="16.00">C10</text>
</g>
<!-- VEH3&#45;&gt;C103 -->
<g id="edge11" class="edge"><title>VEH3&#45;&gt;C103</title>
<path fill="none" stroke="black" d="M243.908,-228.031C246.002,-224.387 248.242,-220.486 250.465,-216.618"/>
<polygon fill="black" stroke="black" points="253.591,-218.203 255.538,-207.788 247.522,-214.715 253.591,-218.203"/>
</g>
<!-- D3T3&#45;&gt;C103 -->
<g id="edge13" class="edge"><title>D3T3&#45;&gt;C103</title>
<path fill="none" stroke="black" d="M288.922,-227.134C286.842,-223.723 284.629,-220.093 282.43,-216.486"/>
<polygon fill="black" stroke="black" points="285.268,-214.419 277.074,-207.702 279.292,-218.063 285.268,-214.419"/>
</g>
<!-- VEH4 -->
<g id="node16" class="node"><title>VEH4</title>
<text text-anchor="middle" x="63.414" y="-241.895" font-family="Times Roman,serif" font-size="16.00">VEH</text>
</g>
<!-- C104 -->
<g id="node18" class="node"><title>C104</title>
<text text-anchor="middle" x="96.0122" y="-185.158" font-family="Times Roman,serif" font-size="16.00">C10</text>
</g>
<!-- VEH4&#45;&gt;C104 -->
<g id="edge16" class="edge"><title>VEH4&#45;&gt;C104</title>
<path fill="none" stroke="black" d="M73.9077,-228.031C76.0016,-224.387 78.2425,-220.486 80.4647,-216.618"/>
<polygon fill="black" stroke="black" points="83.5911,-218.203 85.5381,-207.788 77.5215,-214.715 83.5911,-218.203"/>
</g>
<!-- D3T4 -->
<g id="node17" class="node"><title>D3T4</title>
<text text-anchor="middle" x="130.075" y="-241.028" font-family="Times Roman,serif" font-size="16.00">D3T</text>
</g>
<!-- D3T4&#45;&gt;VEH4 -->
<g id="edge18" class="edge"><title>D3T4&#45;&gt;VEH4</title>
<path fill="none" stroke="black" d="M102.961,-245.781C102.331,-245.789 101.697,-245.797 101.061,-245.805"/>
<polygon fill="black" stroke="black" points="100.674,-242.31 90.7199,-245.94 100.765,-249.309 100.674,-242.31"/>
</g>
<!-- D3T4&#45;&gt;C104 -->
<g id="edge20" class="edge"><title>D3T4&#45;&gt;C104</title>
<path fill="none" stroke="black" d="M118.922,-227.134C116.842,-223.723 114.629,-220.093 112.43,-216.486"/>
<polygon fill="black" stroke="black" points="115.268,-214.419 107.074,-207.702 109.292,-218.063 115.268,-214.419"/>
</g>
</g>
</svg>
