<?xml version="1.0" encoding="UTF-8" standalone="no"?>
<!DOCTYPE svg PUBLIC "-//W3C//DTD SVG 1.1//EN"
 "http://www.w3.org/Graphics/SVG/1.1/DTD/svg11.dtd">
<!-- Generated by graphviz version 2.26.3 (20100126.1600)
 -->
<!-- Title: FirstlevelCluster Pages: 1 -->
<svg width="168pt" height="228pt"
 viewBox="0.00 0.00 168.00 228.00" xmlns="http://www.w3.org/2000/svg" xmlns:xlink="http://www.w3.org/1999/xlink">
<g id="graph1" class="graph" transform="scale(1 1) rotate(0) translate(4 224)">
<title>FirstlevelCluster</title>
<polygon fill="white" stroke="white" points="-4,5 -4,-224 165,-224 165,5 -4,5"/>
<g id="graph2" class="cluster"><title>cluster_0</title>
<polygon fill="none" stroke="black" points="0.738117,-0.640888 0.738117,-218.641 159.738,-218.641 159.738,-0.640888 0.738117,-0.640888"/>
<text text-anchor="middle" x="80.2381" y="-202.041" font-family="Times Roman,serif" font-size="14.00">&gt;D3T~C10</text>
</g>
<g id="graph3" class="cluster"><title>cluster_2</title>
<polygon fill="lightgrey" stroke="black" points="9.47623,-9.28178 9.47623,-183.282 150.476,-183.282 150.476,-9.28178 9.47623,-9.28178"/>
<text text-anchor="middle" x="79.9762" y="-166.682" font-family="Times Roman,serif" font-size="14.00">001</text>
</g>
<!-- VEH2 -->
<g id="node3" class="node"><title>VEH2</title>
<text text-anchor="middle" x="45.8396" y="-99.7895" font-family="Times Roman,serif" font-size="16.00">VEH</text>
</g>
<!-- D3T2 -->
<g id="node4" class="node"><title>D3T2</title>
<text text-anchor="middle" x="114.514" y="-126.252" font-family="Times Roman,serif" font-size="16.00">D3T</text>
</g>
<!-- VEH2&#45;&gt;D3T2 -->
<g id="edge4" class="edge"><title>VEH2&#45;&gt;D3T2</title>
<path fill="none" stroke="black" d="M72.9816,-114.648C74.4344,-115.208 75.9052,-115.775 77.383,-116.344"/>
<polygon fill="black" stroke="black" points="76.5297,-119.766 87.1194,-120.096 79.0467,-113.235 76.5297,-119.766"/>
</g>
<!-- C102 -->
<g id="node5" class="node"><title>C102</title>
<text text-anchor="middle" x="51.2535" y="-32.1567" font-family="Times Roman,serif" font-size="16.00">C10</text>
</g>
<!-- VEH2&#45;&gt;C102 -->
<g id="edge6" class="edge"><title>VEH2&#45;&gt;C102</title>
<path fill="none" stroke="black" d="M47.2904,-86.0651C47.8123,-79.5454 48.4143,-72.0257 48.9889,-64.8475"/>
<polygon fill="black" stroke="black" points="52.4895,-64.9785 49.7987,-54.7311 45.5118,-64.4199 52.4895,-64.9785"/>
</g>
</g>
</svg>
