<?xml version="1.0" encoding="UTF-8" standalone="no"?>
<!DOCTYPE svg PUBLIC "-//W3C//DTD SVG 1.1//EN"
 "http://www.w3.org/Graphics/SVG/1.1/DTD/svg11.dtd">
<!-- Generated by graphviz version 2.26.3 (20100126.1600)
 -->
<!-- Title: FirstlevelCluster Pages: 1 -->
<svg width="168pt" height="228pt"
 viewBox="0.00 0.00 168.00 228.00" xmlns="http://www.w3.org/2000/svg" xmlns:xlink="http://www.w3.org/1999/xlink">
<g id="graph1" class="graph" transform="scale(1 1) rotate(0) translate(4 224)">
<title>FirstlevelCluster</title>
<polygon fill="white" stroke="white" points="-4,5 -4,-224 165,-224 165,5 -4,5"/>
<g id="graph2" class="cluster"><title>cluster_0</title>
<polygon fill="none" stroke="black" points="0.738117,-0.640888 0.738117,-218.641 159.738,-218.641 159.738,-0.640888 0.738117,-0.640888"/>
<text text-anchor="middle" x="80.2381" y="-202.041" font-family="Times Roman,serif" font-size="14.00">D3T~C10&gt;</text>
</g>
<g id="graph3" class="cluster"><title>cluster_2</title>
<polygon fill="lightgrey" stroke="black" points="9.47623,-9.28178 9.47623,-183.282 150.476,-183.282 150.476,-9.28178 9.47623,-9.28178"/>
<text text-anchor="middle" x="79.9762" y="-166.682" font-family="Times Roman,serif" font-size="14.00">221</text>
</g>
<!-- VEH2 -->
<g id="node3" class="node"><title>VEH2</title>
<text text-anchor="middle" x="45.8396" y="-99.7895" font-family="Times Roman,serif" font-size="16.00">VEH</text>
</g>
<!-- D3T2 -->
<g id="node4" class="node"><title>D3T2</title>
<text text-anchor="middle" x="114.514" y="-126.252" font-family="Times Roman,serif" font-size="16.00">D3T</text>
</g>
<!-- D3T2&#45;&gt;VEH2 -->
<g id="edge4" class="edge"><title>D3T2&#45;&gt;VEH2</title>
<path fill="none" stroke="black" d="M87.3722,-120.194C85.9194,-119.634 84.4486,-119.067 82.9709,-118.498"/>
<polygon fill="black" stroke="black" points="83.8242,-115.076 73.2345,-114.746 81.3072,-121.607 83.8242,-115.076"/>
</g>
<!-- C102 -->
<g id="node5" class="node"><title>C102</title>
<text text-anchor="middle" x="51.2535" y="-32.1567" font-family="Times Roman,serif" font-size="16.00">C10</text>
</g>
<!-- C102&#45;&gt;VEH2 -->
<g id="edge6" class="edge"><title>C102&#45;&gt;VEH2</title>
<path fill="none" stroke="black" d="M49.8027,-54.681C49.2808,-61.2008 48.6788,-68.7204 48.1042,-75.8987"/>
<polygon fill="black" stroke="black" points="44.6036,-75.7677 47.2944,-86.0151 51.5813,-76.3263 44.6036,-75.7677"/>
</g>
</g>
</svg>
