<?xml version="1.0" encoding="UTF-8" standalone="no"?>
<!DOCTYPE svg PUBLIC "-//W3C//DTD SVG 1.1//EN"
 "http://www.w3.org/Graphics/SVG/1.1/DTD/svg11.dtd">
<!-- Generated by graphviz version 2.26.3 (20100126.1600)
 -->
<!-- Title: FirstlevelCluster Pages: 1 -->
<svg width="327pt" height="351pt"
 viewBox="0.00 0.00 327.00 351.00" xmlns="http://www.w3.org/2000/svg" xmlns:xlink="http://www.w3.org/1999/xlink">
<g id="graph1" class="graph" transform="scale(1 1) rotate(0) translate(4 347)">
<title>FirstlevelCluster</title>
<polygon fill="white" stroke="white" points="-4,5 -4,-347 324,-347 324,5 -4,5"/>
<g id="graph2" class="cluster"><title>cluster_0</title>
<polygon fill="none" stroke="black" points="0.738117,-1.14089 0.738117,-342.141 317.738,-342.141 317.738,-1.14089 0.738117,-1.14089"/>
<text text-anchor="middle" x="159.238" y="-325.541" font-family="Times Roman,serif" font-size="14.00">D3T&gt;</text>
</g>
<g id="graph3" class="cluster"><title>cluster_2</title>
<polygon fill="lightgrey" stroke="black" points="9.47623,-10.2818 9.47623,-185.282 142.476,-185.282 142.476,-10.2818 9.47623,-10.2818"/>
<text text-anchor="middle" x="75.9762" y="-168.682" font-family="Times Roman,serif" font-size="14.00">210</text>
</g>
<g id="graph4" class="cluster"><title>cluster_3</title>
<polygon fill="lightgrey" stroke="black" points="169.476,-10.2818 169.476,-147.282 308.476,-147.282 308.476,-10.2818 169.476,-10.2818"/>
<text text-anchor="middle" x="238.976" y="-130.682" font-family="Times Roman,serif" font-size="14.00">220</text>
</g>
<g id="graph5" class="cluster"><title>cluster_4</title>
<polygon fill="lightgrey" stroke="black" points="169.476,-170.282 169.476,-307.282 308.476,-307.282 308.476,-170.282 169.476,-170.282"/>
<text text-anchor="middle" x="238.976" y="-290.682" font-family="Times Roman,serif" font-size="14.00">200</text>
</g>
<!-- VEH2 -->
<g id="node3" class="node"><title>VEH2</title>
<text text-anchor="middle" x="45.2953" y="-128.316" font-family="Times Roman,serif" font-size="16.00">VEH</text>
</g>
<!-- D3T2 -->
<g id="node4" class="node"><title>D3T2</title>
<text text-anchor="middle" x="105.089" y="-81.4955" font-family="Times Roman,serif" font-size="16.00">D3T</text>
</g>
<!-- D3T2&#45;&gt;VEH2 -->
<g id="edge4" class="edge"><title>D3T2&#45;&gt;VEH2</title>
<path fill="none" stroke="black" d="M81.8,-104.132C80.1768,-105.403 78.5263,-106.695 76.8689,-107.993"/>
<polygon fill="black" stroke="black" points="74.3347,-105.532 68.6191,-114.453 78.6504,-111.043 74.3347,-105.532"/>
</g>
<!-- C102 -->
<g id="node5" class="node"><title>C102</title>
<text text-anchor="middle" x="106.384" y="-32.833" font-family="Times Roman,serif" font-size="16.00">C10</text>
</g>
<!-- D3T2&#45;&gt;C102 -->
<g id="edge6" class="edge"><title>D3T2&#45;&gt;C102</title>
<path fill="none" stroke="black" d="M105.571,-67.7754C105.588,-67.1505 105.605,-66.5197 105.622,-65.8849"/>
<polygon fill="black" stroke="black" points="109.13,-65.6202 105.897,-55.5305 102.132,-65.4338 109.13,-65.6202"/>
</g>
<!-- VEH3 -->
<g id="node9" class="node"><title>VEH3</title>
<text text-anchor="middle" x="205.914" y="-89.3951" font-family="Times Roman,serif" font-size="16.00">VEH</text>
</g>
<!-- D3T3 -->
<g id="node10" class="node"><title>D3T3</title>
<text text-anchor="middle" x="272.575" y="-88.528" font-family="Times Roman,serif" font-size="16.00">D3T</text>
</g>
<!-- D3T3&#45;&gt;VEH3 -->
<g id="edge9" class="edge"><title>D3T3&#45;&gt;VEH3</title>
<path fill="none" stroke="black" d="M245.461,-93.2807C244.831,-93.2889 244.197,-93.2971 243.561,-93.3054"/>
<polygon fill="black" stroke="black" points="243.174,-89.8101 233.22,-93.4399 243.265,-96.8095 243.174,-89.8101"/>
</g>
<!-- C103 -->
<g id="node11" class="node"><title>C103</title>
<text text-anchor="middle" x="238.512" y="-32.6584" font-family="Times Roman,serif" font-size="16.00">C10</text>
</g>
<!-- D3T3&#45;&gt;C103 -->
<g id="edge11" class="edge"><title>D3T3&#45;&gt;C103</title>
<path fill="none" stroke="black" d="M261.422,-74.6342C259.342,-71.2231 257.129,-67.5933 254.93,-63.986"/>
<polygon fill="black" stroke="black" points="257.768,-61.9187 249.574,-55.2025 251.792,-65.5627 257.768,-61.9187"/>
</g>
<!-- C103&#45;&gt;VEH3 -->
<g id="edge13" class="edge"><title>C103&#45;&gt;VEH3</title>
<path fill="none" stroke="black" d="M228.018,-55.3225C225.925,-58.9669 223.684,-62.8672 221.461,-66.735"/>
<polygon fill="black" stroke="black" points="218.335,-65.1507 216.388,-75.5651 224.405,-68.638 218.335,-65.1507"/>
</g>
<!-- VEH4 -->
<g id="node16" class="node"><title>VEH4</title>
<text text-anchor="middle" x="205.914" y="-249.395" font-family="Times Roman,serif" font-size="16.00">VEH</text>
</g>
<!-- C104 -->
<g id="node18" class="node"><title>C104</title>
<text text-anchor="middle" x="238.512" y="-192.658" font-family="Times Roman,serif" font-size="16.00">C10</text>
</g>
<!-- VEH4&#45;&gt;C104 -->
<g id="edge16" class="edge"><title>VEH4&#45;&gt;C104</title>
<path fill="none" stroke="black" d="M216.408,-235.531C218.502,-231.887 220.742,-227.986 222.965,-224.118"/>
<polygon fill="black" stroke="black" points="226.091,-225.703 228.038,-215.288 220.022,-222.215 226.091,-225.703"/>
</g>
<!-- D3T4 -->
<g id="node17" class="node"><title>D3T4</title>
<text text-anchor="middle" x="272.575" y="-248.528" font-family="Times Roman,serif" font-size="16.00">D3T</text>
</g>
<!-- D3T4&#45;&gt;VEH4 -->
<g id="edge18" class="edge"><title>D3T4&#45;&gt;VEH4</title>
<path fill="none" stroke="black" d="M245.461,-253.281C244.831,-253.289 244.197,-253.297 243.561,-253.305"/>
<polygon fill="black" stroke="black" points="243.174,-249.81 233.22,-253.44 243.265,-256.809 243.174,-249.81"/>
</g>
<!-- D3T4&#45;&gt;C104 -->
<g id="edge20" class="edge"><title>D3T4&#45;&gt;C104</title>
<path fill="none" stroke="black" d="M261.422,-234.634C259.342,-231.223 257.129,-227.593 254.93,-223.986"/>
<polygon fill="black" stroke="black" points="257.768,-221.919 249.574,-215.202 251.792,-225.563 257.768,-221.919"/>
</g>
</g>
</svg>
