<?xml version="1.0" encoding="UTF-8" standalone="no"?>
<!DOCTYPE svg PUBLIC "-//W3C//DTD SVG 1.1//EN"
 "http://www.w3.org/Graphics/SVG/1.1/DTD/svg11.dtd">
<!-- Generated by graphviz version 2.26.3 (20100126.1600)
 -->
<!-- Title: FirstlevelCluster Pages: 1 -->
<svg width="327pt" height="351pt"
 viewBox="0.00 0.00 327.00 351.00" xmlns="http://www.w3.org/2000/svg" xmlns:xlink="http://www.w3.org/1999/xlink">
<g id="graph1" class="graph" transform="scale(1 1) rotate(0) translate(4 347)">
<title>FirstlevelCluster</title>
<polygon fill="white" stroke="white" points="-4,5 -4,-347 324,-347 324,5 -4,5"/>
<g id="graph2" class="cluster"><title>cluster_0</title>
<polygon fill="none" stroke="black" points="0.738117,-1.14089 0.738117,-342.141 317.738,-342.141 317.738,-1.14089 0.738117,-1.14089"/>
<text text-anchor="middle" x="159.238" y="-325.541" font-family="Times Roman,serif" font-size="14.00">&gt;D3T</text>
</g>
<g id="graph3" class="cluster"><title>cluster_2</title>
<polygon fill="lightgrey" stroke="black" points="9.47623,-10.2818 9.47623,-185.282 142.476,-185.282 142.476,-10.2818 9.47623,-10.2818"/>
<text text-anchor="middle" x="75.9762" y="-168.682" font-family="Times Roman,serif" font-size="14.00">012</text>
</g>
<g id="graph4" class="cluster"><title>cluster_3</title>
<polygon fill="lightgrey" stroke="black" points="169.476,-10.2818 169.476,-147.282 308.476,-147.282 308.476,-10.2818 169.476,-10.2818"/>
<text text-anchor="middle" x="238.976" y="-130.682" font-family="Times Roman,serif" font-size="14.00">022</text>
</g>
<g id="graph5" class="cluster"><title>cluster_4</title>
<polygon fill="lightgrey" stroke="black" points="169.476,-170.282 169.476,-307.282 308.476,-307.282 308.476,-170.282 169.476,-170.282"/>
<text text-anchor="middle" x="238.976" y="-290.682" font-family="Times Roman,serif" font-size="14.00">002</text>
</g>
<!-- VEH2 -->
<g id="node3" class="node"><title>VEH2</title>
<text text-anchor="middle" x="45.2953" y="-128.316" font-family="Times Roman,serif" font-size="16.00">VEH</text>
</g>
<!-- D3T2 -->
<g id="node4" class="node"><title>D3T2</title>
<text text-anchor="middle" x="105.089" y="-81.4955" font-family="Times Roman,serif" font-size="16.00">D3T</text>
</g>
<!-- VEH2&#45;&gt;D3T2 -->
<g id="edge4" class="edge"><title>VEH2&#45;&gt;D3T2</title>
<path fill="none" stroke="black" d="M68.5843,-114.48C70.2075,-113.209 71.858,-111.917 73.5154,-110.619"/>
<polygon fill="black" stroke="black" points="76.0496,-113.08 81.7652,-104.159 71.7339,-107.569 76.0496,-113.08"/>
</g>
<!-- C102 -->
<g id="node5" class="node"><title>C102</title>
<text text-anchor="middle" x="106.384" y="-32.833" font-family="Times Roman,serif" font-size="16.00">C10</text>
</g>
<!-- C102&#45;&gt;D3T2 -->
<g id="edge6" class="edge"><title>C102&#45;&gt;D3T2</title>
<path fill="none" stroke="black" d="M105.902,-55.3531C105.885,-55.978 105.869,-56.6088 105.852,-57.2436"/>
<polygon fill="black" stroke="black" points="102.344,-57.5083 105.576,-67.5979 109.341,-57.6947 102.344,-57.5083"/>
</g>
<!-- VEH3 -->
<g id="node9" class="node"><title>VEH3</title>
<text text-anchor="middle" x="205.914" y="-89.3951" font-family="Times Roman,serif" font-size="16.00">VEH</text>
</g>
<!-- D3T3 -->
<g id="node10" class="node"><title>D3T3</title>
<text text-anchor="middle" x="272.575" y="-88.528" font-family="Times Roman,serif" font-size="16.00">D3T</text>
</g>
<!-- VEH3&#45;&gt;D3T3 -->
<g id="edge9" class="edge"><title>VEH3&#45;&gt;D3T3</title>
<path fill="none" stroke="black" d="M233.028,-93.4424C233.658,-93.4342 234.292,-93.426 234.928,-93.4177"/>
<polygon fill="black" stroke="black" points="235.316,-96.913 245.269,-93.2832 235.224,-89.9136 235.316,-96.913"/>
</g>
<!-- C103 -->
<g id="node11" class="node"><title>C103</title>
<text text-anchor="middle" x="238.512" y="-32.6584" font-family="Times Roman,serif" font-size="16.00">C10</text>
</g>
<!-- C103&#45;&gt;VEH3 -->
<g id="edge11" class="edge"><title>C103&#45;&gt;VEH3</title>
<path fill="none" stroke="black" d="M228.018,-55.3225C225.925,-58.9669 223.684,-62.8672 221.461,-66.735"/>
<polygon fill="black" stroke="black" points="218.335,-65.1507 216.388,-75.5651 224.405,-68.638 218.335,-65.1507"/>
</g>
<!-- C103&#45;&gt;D3T3 -->
<g id="edge13" class="edge"><title>C103&#45;&gt;D3T3</title>
<path fill="none" stroke="black" d="M249.666,-55.3522C251.745,-58.7633 253.958,-62.3931 256.158,-66.0004"/>
<polygon fill="black" stroke="black" points="253.319,-68.0677 261.513,-74.7839 259.296,-64.4237 253.319,-68.0677"/>
</g>
<!-- VEH4 -->
<g id="node16" class="node"><title>VEH4</title>
<text text-anchor="middle" x="205.914" y="-249.395" font-family="Times Roman,serif" font-size="16.00">VEH</text>
</g>
<!-- D3T4 -->
<g id="node17" class="node"><title>D3T4</title>
<text text-anchor="middle" x="272.575" y="-248.528" font-family="Times Roman,serif" font-size="16.00">D3T</text>
</g>
<!-- VEH4&#45;&gt;D3T4 -->
<g id="edge16" class="edge"><title>VEH4&#45;&gt;D3T4</title>
<path fill="none" stroke="black" d="M233.028,-253.442C233.658,-253.434 234.292,-253.426 234.928,-253.418"/>
<polygon fill="black" stroke="black" points="235.316,-256.913 245.269,-253.283 235.224,-249.914 235.316,-256.913"/>
</g>
<!-- C104 -->
<g id="node18" class="node"><title>C104</title>
<text text-anchor="middle" x="238.512" y="-192.658" font-family="Times Roman,serif" font-size="16.00">C10</text>
</g>
<!-- VEH4&#45;&gt;C104 -->
<g id="edge18" class="edge"><title>VEH4&#45;&gt;C104</title>
<path fill="none" stroke="black" d="M216.408,-235.531C218.502,-231.887 220.742,-227.986 222.965,-224.118"/>
<polygon fill="black" stroke="black" points="226.091,-225.703 228.038,-215.288 220.022,-222.215 226.091,-225.703"/>
</g>
<!-- C104&#45;&gt;D3T4 -->
<g id="edge20" class="edge"><title>C104&#45;&gt;D3T4</title>
<path fill="none" stroke="black" d="M249.666,-215.352C251.745,-218.763 253.958,-222.393 256.158,-226"/>
<polygon fill="black" stroke="black" points="253.319,-228.068 261.513,-234.784 259.296,-224.424 253.319,-228.068"/>
</g>
</g>
</svg>
