<?xml version="1.0" encoding="UTF-8" standalone="no"?>
<!DOCTYPE svg PUBLIC "-//W3C//DTD SVG 1.1//EN"
 "http://www.w3.org/Graphics/SVG/1.1/DTD/svg11.dtd">
<!-- Generated by graphviz version 2.26.3 (20100126.1600)
 -->
<!-- Title: FirstlevelCluster Pages: 1 -->
<svg width="161pt" height="229pt"
 viewBox="0.00 0.00 161.00 229.00" xmlns="http://www.w3.org/2000/svg" xmlns:xlink="http://www.w3.org/1999/xlink">
<g id="graph1" class="graph" transform="scale(1 1) rotate(0) translate(4 225)">
<title>FirstlevelCluster</title>
<polygon fill="white" stroke="white" points="-4,5 -4,-225 158,-225 158,5 -4,5"/>
<g id="graph2" class="cluster"><title>cluster_0</title>
<polygon fill="none" stroke="black" points="0.738117,-1.14089 0.738117,-220.141 151.738,-220.141 151.738,-1.14089 0.738117,-1.14089"/>
<text text-anchor="middle" x="76.2381" y="-203.541" font-family="Times Roman,serif" font-size="14.00">VEH~C10&gt;</text>
</g>
<g id="graph3" class="cluster"><title>cluster_2</title>
<polygon fill="lightgrey" stroke="black" points="9.47623,-10.2818 9.47623,-185.282 142.476,-185.282 142.476,-10.2818 9.47623,-10.2818"/>
<text text-anchor="middle" x="75.9762" y="-168.682" font-family="Times Roman,serif" font-size="14.00">012</text>
</g>
<!-- VEH2 -->
<g id="node3" class="node"><title>VEH2</title>
<text text-anchor="middle" x="45.2953" y="-128.316" font-family="Times Roman,serif" font-size="16.00">VEH</text>
</g>
<!-- D3T2 -->
<g id="node4" class="node"><title>D3T2</title>
<text text-anchor="middle" x="105.089" y="-81.4955" font-family="Times Roman,serif" font-size="16.00">D3T</text>
</g>
<!-- VEH2&#45;&gt;D3T2 -->
<g id="edge4" class="edge"><title>VEH2&#45;&gt;D3T2</title>
<path fill="none" stroke="black" d="M68.5843,-114.48C70.2075,-113.209 71.858,-111.917 73.5154,-110.619"/>
<polygon fill="black" stroke="black" points="76.0496,-113.08 81.7652,-104.159 71.7339,-107.569 76.0496,-113.08"/>
</g>
<!-- C102 -->
<g id="node5" class="node"><title>C102</title>
<text text-anchor="middle" x="106.384" y="-32.833" font-family="Times Roman,serif" font-size="16.00">C10</text>
</g>
<!-- C102&#45;&gt;D3T2 -->
<g id="edge6" class="edge"><title>C102&#45;&gt;D3T2</title>
<path fill="none" stroke="black" d="M105.902,-55.3531C105.885,-55.978 105.869,-56.6088 105.852,-57.2436"/>
<polygon fill="black" stroke="black" points="102.344,-57.5083 105.576,-67.5979 109.341,-57.6947 102.344,-57.5083"/>
</g>
</g>
</svg>
