<?xml version="1.0" encoding="UTF-8" standalone="no"?>
<!DOCTYPE svg PUBLIC "-//W3C//DTD SVG 1.1//EN"
 "http://www.w3.org/Graphics/SVG/1.1/DTD/svg11.dtd">
<!-- Generated by graphviz version 2.26.3 (20100126.1600)
 -->
<!-- Title: FirstlevelCluster Pages: 1 -->
<svg width="229pt" height="176pt"
 viewBox="0.00 0.00 229.00 176.00" xmlns="http://www.w3.org/2000/svg" xmlns:xlink="http://www.w3.org/1999/xlink">
<g id="graph1" class="graph" transform="scale(1 1) rotate(0) translate(4 172)">
<title>FirstlevelCluster</title>
<polygon fill="white" stroke="white" points="-4,5 -4,-172 226,-172 226,5 -4,5"/>
<g id="graph2" class="cluster"><title>cluster_0</title>
<polygon fill="none" stroke="black" points="0.738117,-0.140888 0.738117,-167.141 219.738,-167.141 219.738,-0.140888 0.738117,-0.140888"/>
<text text-anchor="middle" x="110.238" y="-150.541" font-family="Times Roman,serif" font-size="14.00">&gt;VEH~D3T</text>
</g>
<g id="graph3" class="cluster"><title>cluster_2</title>
<polygon fill="lightgrey" stroke="black" points="9.47623,-9.28178 9.47623,-132.282 210.476,-132.282 210.476,-9.28178 9.47623,-9.28178"/>
<text text-anchor="middle" x="109.976" y="-115.682" font-family="Times Roman,serif" font-size="14.00">122</text>
</g>
<!-- VEH2 -->
<g id="node3" class="node"><title>VEH2</title>
<text text-anchor="middle" x="45.8159" y="-75.3334" font-family="Times Roman,serif" font-size="16.00">VEH</text>
</g>
<!-- D3T2 -->
<g id="node4" class="node"><title>D3T2</title>
<text text-anchor="middle" x="174.434" y="-73.1526" font-family="Times Roman,serif" font-size="16.00">D3T</text>
</g>
<!-- C102 -->
<g id="node5" class="node"><title>C102</title>
<text text-anchor="middle" x="111.234" y="-32.293" font-family="Times Roman,serif" font-size="16.00">C10</text>
</g>
<!-- C102&#45;&gt;VEH2 -->
<g id="edge4" class="edge"><title>C102&#45;&gt;VEH2</title>
<path fill="none" stroke="black" d="M83.8696,-54.6966C83.0731,-55.2206 82.2722,-55.7476 81.469,-56.2761"/>
<polygon fill="black" stroke="black" points="79.2908,-53.5195 72.8605,-61.9398 83.1383,-59.3673 79.2908,-53.5195"/>
</g>
<!-- C102&#45;&gt;D3T2 -->
<g id="edge6" class="edge"><title>C102&#45;&gt;D3T2</title>
<path fill="none" stroke="black" d="M138.403,-54.2582C138.495,-54.3177 138.587,-54.3772 138.679,-54.4368"/>
<polygon fill="black" stroke="black" points="136.99,-57.5121 147.288,-60.0021 140.79,-51.6336 136.99,-57.5121"/>
</g>
</g>
</svg>
