<?xml version="1.0" encoding="UTF-8" standalone="no"?>
<!DOCTYPE svg PUBLIC "-//W3C//DTD SVG 1.1//EN"
 "http://www.w3.org/Graphics/SVG/1.1/DTD/svg11.dtd">
<!-- Generated by graphviz version 2.26.3 (20100126.1600)
 -->
<!-- Title: FirstlevelCluster Pages: 1 -->
<svg width="229pt" height="176pt"
 viewBox="0.00 0.00 229.00 176.00" xmlns="http://www.w3.org/2000/svg" xmlns:xlink="http://www.w3.org/1999/xlink">
<g id="graph1" class="graph" transform="scale(1 1) rotate(0) translate(4 172)">
<title>FirstlevelCluster</title>
<polygon fill="white" stroke="white" points="-4,5 -4,-172 226,-172 226,5 -4,5"/>
<g id="graph2" class="cluster"><title>cluster_0</title>
<polygon fill="none" stroke="black" points="0.738117,-0.140888 0.738117,-167.141 219.738,-167.141 219.738,-0.140888 0.738117,-0.140888"/>
<text text-anchor="middle" x="110.238" y="-150.541" font-family="Times Roman,serif" font-size="14.00">VEH~D3T&gt;</text>
</g>
<g id="graph3" class="cluster"><title>cluster_2</title>
<polygon fill="lightgrey" stroke="black" points="9.47623,-9.28178 9.47623,-132.282 210.476,-132.282 210.476,-9.28178 9.47623,-9.28178"/>
<text text-anchor="middle" x="109.976" y="-115.682" font-family="Times Roman,serif" font-size="14.00">100</text>
</g>
<!-- VEH2 -->
<g id="node3" class="node"><title>VEH2</title>
<text text-anchor="middle" x="45.8159" y="-75.3334" font-family="Times Roman,serif" font-size="16.00">VEH</text>
</g>
<!-- C102 -->
<g id="node5" class="node"><title>C102</title>
<text text-anchor="middle" x="111.234" y="-32.293" font-family="Times Roman,serif" font-size="16.00">C10</text>
</g>
<!-- VEH2&#45;&gt;C102 -->
<g id="edge4" class="edge"><title>VEH2&#45;&gt;C102</title>
<path fill="none" stroke="black" d="M73.1798,-61.7297C73.9763,-61.2057 74.7772,-60.6788 75.5805,-60.1503"/>
<polygon fill="black" stroke="black" points="77.7586,-62.9068 84.1889,-54.4865 73.9111,-57.059 77.7586,-62.9068"/>
</g>
<!-- D3T2 -->
<g id="node4" class="node"><title>D3T2</title>
<text text-anchor="middle" x="174.434" y="-73.1526" font-family="Times Roman,serif" font-size="16.00">D3T</text>
</g>
<!-- D3T2&#45;&gt;C102 -->
<g id="edge6" class="edge"><title>D3T2&#45;&gt;C102</title>
<path fill="none" stroke="black" d="M147.265,-59.9873C147.173,-59.9278 147.081,-59.8683 146.989,-59.8087"/>
<polygon fill="black" stroke="black" points="148.678,-56.7334 138.38,-54.2434 144.878,-62.6119 148.678,-56.7334"/>
</g>
</g>
</svg>
