<?xml version="1.0" encoding="UTF-8" standalone="no"?>
<!DOCTYPE svg PUBLIC "-//W3C//DTD SVG 1.1//EN"
 "http://www.w3.org/Graphics/SVG/1.1/DTD/svg11.dtd">
<!-- Generated by graphviz version 2.26.3 (20100126.1600)
 -->
<!-- Title: FirstlevelCluster Pages: 1 -->
<svg width="336pt" height="361pt"
 viewBox="0.00 0.00 336.00 361.00" xmlns="http://www.w3.org/2000/svg" xmlns:xlink="http://www.w3.org/1999/xlink">
<g id="graph1" class="graph" transform="scale(1 1) rotate(0) translate(4 357)">
<title>FirstlevelCluster</title>
<polygon fill="white" stroke="white" points="-4,5 -4,-357 333,-357 333,5 -4,5"/>
<g id="graph2" class="cluster"><title>cluster_0</title>
<polygon fill="none" stroke="black" points="0.738117,-1.14089 0.738117,-352.141 327.738,-352.141 327.738,-1.14089 0.738117,-1.14089"/>
<text text-anchor="middle" x="164.238" y="-335.541" font-family="Times Roman,serif" font-size="14.00">VEH&gt;</text>
</g>
<g id="graph3" class="cluster"><title>cluster_2</title>
<polygon fill="lightgrey" stroke="black" points="9.47623,-26.7818 9.47623,-200.782 150.476,-200.782 150.476,-26.7818 9.47623,-26.7818"/>
<text text-anchor="middle" x="79.9762" y="-184.182" font-family="Times Roman,serif" font-size="14.00">001</text>
</g>
<g id="graph4" class="cluster"><title>cluster_3</title>
<polygon fill="lightgrey" stroke="black" points="179.476,-10.2818 179.476,-147.282 318.476,-147.282 318.476,-10.2818 179.476,-10.2818"/>
<text text-anchor="middle" x="248.976" y="-130.682" font-family="Times Roman,serif" font-size="14.00">000</text>
</g>
<g id="graph5" class="cluster"><title>cluster_4</title>
<polygon fill="lightgrey" stroke="black" points="179.476,-180.282 179.476,-317.282 318.476,-317.282 318.476,-180.282 179.476,-180.282"/>
<text text-anchor="middle" x="248.976" y="-300.682" font-family="Times Roman,serif" font-size="14.00">002</text>
</g>
<!-- VEH2 -->
<g id="node3" class="node"><title>VEH2</title>
<text text-anchor="middle" x="45.8396" y="-117.289" font-family="Times Roman,serif" font-size="16.00">VEH</text>
</g>
<!-- D3T2 -->
<g id="node4" class="node"><title>D3T2</title>
<text text-anchor="middle" x="114.514" y="-143.752" font-family="Times Roman,serif" font-size="16.00">D3T</text>
</g>
<!-- VEH2&#45;&gt;D3T2 -->
<g id="edge4" class="edge"><title>VEH2&#45;&gt;D3T2</title>
<path fill="none" stroke="black" d="M72.9816,-132.148C74.4344,-132.708 75.9052,-133.275 77.383,-133.844"/>
<polygon fill="black" stroke="black" points="76.5297,-137.266 87.1194,-137.596 79.0467,-130.735 76.5297,-137.266"/>
</g>
<!-- C102 -->
<g id="node5" class="node"><title>C102</title>
<text text-anchor="middle" x="51.2535" y="-49.6567" font-family="Times Roman,serif" font-size="16.00">C10</text>
</g>
<!-- VEH2&#45;&gt;C102 -->
<g id="edge6" class="edge"><title>VEH2&#45;&gt;C102</title>
<path fill="none" stroke="black" d="M47.2904,-103.565C47.8123,-97.0454 48.4143,-89.5257 48.9889,-82.3475"/>
<polygon fill="black" stroke="black" points="52.4895,-82.4785 49.7987,-72.2311 45.5118,-81.9199 52.4895,-82.4785"/>
</g>
<!-- VEH3 -->
<g id="node9" class="node"><title>VEH3</title>
<text text-anchor="middle" x="215.914" y="-89.3951" font-family="Times Roman,serif" font-size="16.00">VEH</text>
</g>
<!-- D3T3 -->
<g id="node10" class="node"><title>D3T3</title>
<text text-anchor="middle" x="282.575" y="-88.528" font-family="Times Roman,serif" font-size="16.00">D3T</text>
</g>
<!-- VEH3&#45;&gt;D3T3 -->
<g id="edge9" class="edge"><title>VEH3&#45;&gt;D3T3</title>
<path fill="none" stroke="black" d="M243.028,-93.4424C243.658,-93.4342 244.292,-93.426 244.928,-93.4177"/>
<polygon fill="black" stroke="black" points="245.316,-96.913 255.269,-93.2832 245.224,-89.9136 245.316,-96.913"/>
</g>
<!-- C103 -->
<g id="node11" class="node"><title>C103</title>
<text text-anchor="middle" x="248.512" y="-32.6584" font-family="Times Roman,serif" font-size="16.00">C10</text>
</g>
<!-- VEH3&#45;&gt;C103 -->
<g id="edge11" class="edge"><title>VEH3&#45;&gt;C103</title>
<path fill="none" stroke="black" d="M226.408,-75.5309C228.502,-71.8866 230.742,-67.9863 232.965,-64.1185"/>
<polygon fill="black" stroke="black" points="236.091,-65.7027 238.038,-55.2883 230.022,-62.2154 236.091,-65.7027"/>
</g>
<!-- D3T3&#45;&gt;C103 -->
<g id="edge13" class="edge"><title>D3T3&#45;&gt;C103</title>
<path fill="none" stroke="black" d="M271.422,-74.6342C269.342,-71.2231 267.129,-67.5933 264.93,-63.986"/>
<polygon fill="black" stroke="black" points="267.768,-61.9187 259.574,-55.2025 261.792,-65.5627 267.768,-61.9187"/>
</g>
<!-- VEH4 -->
<g id="node16" class="node"><title>VEH4</title>
<text text-anchor="middle" x="215.914" y="-259.395" font-family="Times Roman,serif" font-size="16.00">VEH</text>
</g>
<!-- D3T4 -->
<g id="node17" class="node"><title>D3T4</title>
<text text-anchor="middle" x="282.575" y="-258.528" font-family="Times Roman,serif" font-size="16.00">D3T</text>
</g>
<!-- VEH4&#45;&gt;D3T4 -->
<g id="edge16" class="edge"><title>VEH4&#45;&gt;D3T4</title>
<path fill="none" stroke="black" d="M243.028,-263.442C243.658,-263.434 244.292,-263.426 244.928,-263.418"/>
<polygon fill="black" stroke="black" points="245.316,-266.913 255.269,-263.283 245.224,-259.914 245.316,-266.913"/>
</g>
<!-- C104 -->
<g id="node18" class="node"><title>C104</title>
<text text-anchor="middle" x="248.512" y="-202.658" font-family="Times Roman,serif" font-size="16.00">C10</text>
</g>
<!-- VEH4&#45;&gt;C104 -->
<g id="edge18" class="edge"><title>VEH4&#45;&gt;C104</title>
<path fill="none" stroke="black" d="M226.408,-245.531C228.502,-241.887 230.742,-237.986 232.965,-234.118"/>
<polygon fill="black" stroke="black" points="236.091,-235.703 238.038,-225.288 230.022,-232.215 236.091,-235.703"/>
</g>
<!-- C104&#45;&gt;D3T4 -->
<g id="edge20" class="edge"><title>C104&#45;&gt;D3T4</title>
<path fill="none" stroke="black" d="M259.666,-225.352C261.745,-228.763 263.958,-232.393 266.158,-236"/>
<polygon fill="black" stroke="black" points="263.319,-238.068 271.513,-244.784 269.296,-234.424 263.319,-238.068"/>
</g>
</g>
</svg>
