<?xml version="1.0" encoding="UTF-8" standalone="no"?>
<!DOCTYPE svg PUBLIC "-//W3C//DTD SVG 1.1//EN"
 "http://www.w3.org/Graphics/SVG/1.1/DTD/svg11.dtd">
<!-- Generated by graphviz version 2.26.3 (20100126.1600)
 -->
<!-- Title: FirstlevelCluster Pages: 1 -->
<svg width="336pt" height="361pt"
 viewBox="0.00 0.00 336.00 361.00" xmlns="http://www.w3.org/2000/svg" xmlns:xlink="http://www.w3.org/1999/xlink">
<g id="graph1" class="graph" transform="scale(1 1) rotate(0) translate(4 357)">
<title>FirstlevelCluster</title>
<polygon fill="white" stroke="white" points="-4,5 -4,-357 333,-357 333,5 -4,5"/>
<g id="graph2" class="cluster"><title>cluster_0</title>
<polygon fill="none" stroke="black" points="0.738117,-1.14089 0.738117,-352.141 327.738,-352.141 327.738,-1.14089 0.738117,-1.14089"/>
<text text-anchor="middle" x="164.238" y="-335.541" font-family="Times Roman,serif" font-size="14.00">&gt;VEH</text>
</g>
<g id="graph3" class="cluster"><title>cluster_2</title>
<polygon fill="lightgrey" stroke="black" points="9.47623,-26.7818 9.47623,-200.782 150.476,-200.782 150.476,-26.7818 9.47623,-26.7818"/>
<text text-anchor="middle" x="79.9762" y="-184.182" font-family="Times Roman,serif" font-size="14.00">221</text>
</g>
<g id="graph4" class="cluster"><title>cluster_3</title>
<polygon fill="lightgrey" stroke="black" points="179.476,-10.2818 179.476,-147.282 318.476,-147.282 318.476,-10.2818 179.476,-10.2818"/>
<text text-anchor="middle" x="248.976" y="-130.682" font-family="Times Roman,serif" font-size="14.00">220</text>
</g>
<g id="graph5" class="cluster"><title>cluster_4</title>
<polygon fill="lightgrey" stroke="black" points="179.476,-180.282 179.476,-317.282 318.476,-317.282 318.476,-180.282 179.476,-180.282"/>
<text text-anchor="middle" x="248.976" y="-300.682" font-family="Times Roman,serif" font-size="14.00">222</text>
</g>
<!-- VEH2 -->
<g id="node3" class="node"><title>VEH2</title>
<text text-anchor="middle" x="45.8396" y="-117.289" font-family="Times Roman,serif" font-size="16.00">VEH</text>
</g>
<!-- D3T2 -->
<g id="node4" class="node"><title>D3T2</title>
<text text-anchor="middle" x="114.514" y="-143.752" font-family="Times Roman,serif" font-size="16.00">D3T</text>
</g>
<!-- D3T2&#45;&gt;VEH2 -->
<g id="edge4" class="edge"><title>D3T2&#45;&gt;VEH2</title>
<path fill="none" stroke="black" d="M87.3722,-137.694C85.9194,-137.134 84.4486,-136.567 82.9709,-135.998"/>
<polygon fill="black" stroke="black" points="83.8242,-132.576 73.2345,-132.246 81.3072,-139.107 83.8242,-132.576"/>
</g>
<!-- C102 -->
<g id="node5" class="node"><title>C102</title>
<text text-anchor="middle" x="51.2535" y="-49.6567" font-family="Times Roman,serif" font-size="16.00">C10</text>
</g>
<!-- C102&#45;&gt;VEH2 -->
<g id="edge6" class="edge"><title>C102&#45;&gt;VEH2</title>
<path fill="none" stroke="black" d="M49.8027,-72.181C49.2808,-78.7008 48.6788,-86.2204 48.1042,-93.3987"/>
<polygon fill="black" stroke="black" points="44.6036,-93.2677 47.2944,-103.515 51.5813,-93.8263 44.6036,-93.2677"/>
</g>
<!-- VEH3 -->
<g id="node9" class="node"><title>VEH3</title>
<text text-anchor="middle" x="215.914" y="-89.3951" font-family="Times Roman,serif" font-size="16.00">VEH</text>
</g>
<!-- D3T3 -->
<g id="node10" class="node"><title>D3T3</title>
<text text-anchor="middle" x="282.575" y="-88.528" font-family="Times Roman,serif" font-size="16.00">D3T</text>
</g>
<!-- D3T3&#45;&gt;VEH3 -->
<g id="edge9" class="edge"><title>D3T3&#45;&gt;VEH3</title>
<path fill="none" stroke="black" d="M255.461,-93.2807C254.831,-93.2889 254.197,-93.2971 253.561,-93.3054"/>
<polygon fill="black" stroke="black" points="253.174,-89.8101 243.22,-93.4399 253.265,-96.8095 253.174,-89.8101"/>
</g>
<!-- C103 -->
<g id="node11" class="node"><title>C103</title>
<text text-anchor="middle" x="248.512" y="-32.6584" font-family="Times Roman,serif" font-size="16.00">C10</text>
</g>
<!-- D3T3&#45;&gt;C103 -->
<g id="edge11" class="edge"><title>D3T3&#45;&gt;C103</title>
<path fill="none" stroke="black" d="M271.422,-74.6342C269.342,-71.2231 267.129,-67.5933 264.93,-63.986"/>
<polygon fill="black" stroke="black" points="267.768,-61.9187 259.574,-55.2025 261.792,-65.5627 267.768,-61.9187"/>
</g>
<!-- C103&#45;&gt;VEH3 -->
<g id="edge13" class="edge"><title>C103&#45;&gt;VEH3</title>
<path fill="none" stroke="black" d="M238.018,-55.3225C235.925,-58.9669 233.684,-62.8672 231.461,-66.735"/>
<polygon fill="black" stroke="black" points="228.335,-65.1507 226.388,-75.5651 234.405,-68.638 228.335,-65.1507"/>
</g>
<!-- VEH4 -->
<g id="node16" class="node"><title>VEH4</title>
<text text-anchor="middle" x="215.914" y="-259.395" font-family="Times Roman,serif" font-size="16.00">VEH</text>
</g>
<!-- D3T4 -->
<g id="node17" class="node"><title>D3T4</title>
<text text-anchor="middle" x="282.575" y="-258.528" font-family="Times Roman,serif" font-size="16.00">D3T</text>
</g>
<!-- D3T4&#45;&gt;VEH4 -->
<g id="edge16" class="edge"><title>D3T4&#45;&gt;VEH4</title>
<path fill="none" stroke="black" d="M255.461,-263.281C254.831,-263.289 254.197,-263.297 253.561,-263.305"/>
<polygon fill="black" stroke="black" points="253.174,-259.81 243.22,-263.44 253.265,-266.809 253.174,-259.81"/>
</g>
<!-- C104 -->
<g id="node18" class="node"><title>C104</title>
<text text-anchor="middle" x="248.512" y="-202.658" font-family="Times Roman,serif" font-size="16.00">C10</text>
</g>
<!-- C104&#45;&gt;VEH4 -->
<g id="edge18" class="edge"><title>C104&#45;&gt;VEH4</title>
<path fill="none" stroke="black" d="M238.018,-225.323C235.925,-228.967 233.684,-232.867 231.461,-236.735"/>
<polygon fill="black" stroke="black" points="228.335,-235.151 226.388,-245.565 234.405,-238.638 228.335,-235.151"/>
</g>
<!-- C104&#45;&gt;D3T4 -->
<g id="edge20" class="edge"><title>C104&#45;&gt;D3T4</title>
<path fill="none" stroke="black" d="M259.666,-225.352C261.745,-228.763 263.958,-232.393 266.158,-236"/>
<polygon fill="black" stroke="black" points="263.319,-238.068 271.513,-244.784 269.296,-234.424 263.319,-238.068"/>
</g>
</g>
</svg>
