<?xml version="1.0" encoding="UTF-8" standalone="no"?>
<!DOCTYPE svg PUBLIC "-//W3C//DTD SVG 1.1//EN"
 "http://www.w3.org/Graphics/SVG/1.1/DTD/svg11.dtd">
<!-- Generated by graphviz version 2.26.3 (20100126.1600)
 -->
<!-- Title: FirstlevelCluster Pages: 1 -->
<svg width="192pt" height="237pt"
 viewBox="0.00 0.00 192.00 237.00" xmlns="http://www.w3.org/2000/svg" xmlns:xlink="http://www.w3.org/1999/xlink">
<g id="graph1" class="graph" transform="scale(1 1) rotate(0) translate(4 233)">
<title>FirstlevelCluster</title>
<polygon fill="white" stroke="white" points="-4,5 -4,-233 189,-233 189,5 -4,5"/>
<g id="graph2" class="cluster"><title>cluster_0</title>
<polygon fill="none" stroke="black" points="1.23812,-1.14089 1.23812,-228.141 183.238,-228.141 183.238,-1.14089 1.23812,-1.14089"/>
<text text-anchor="middle" x="92.2381" y="-211.541" font-family="Times Roman,serif" font-size="14.00">&gt;BNF~D3T~OLT</text>
</g>
<g id="graph3" class="cluster"><title>cluster_2</title>
<polygon fill="lightgrey" stroke="black" points="10.4762,-10.2818 10.4762,-193.282 174.476,-193.282 174.476,-10.2818 10.4762,-10.2818"/>
<text text-anchor="middle" x="92.4762" y="-176.682" font-family="Times Roman,serif" font-size="14.00">000111</text>
</g>
<!-- CON2 -->
<g id="node3" class="node"><title>CON2</title>
<text text-anchor="middle" x="75.4617" y="-84.8741" font-family="Times Roman,serif" font-size="16.00">CON</text>
</g>
<!-- BNF2 -->
<g id="node4" class="node"><title>BNF2</title>
<text text-anchor="middle" x="138.715" y="-79.5818" font-family="Times Roman,serif" font-size="16.00">BNF</text>
</g>
<!-- CON2&#45;&gt;BNF2 -->
<g id="edge4" class="edge"><title>CON2&#45;&gt;BNF2</title>
<path fill="none" stroke="black" d="M102.654,-86.999C102.746,-86.9913 102.838,-86.9836 102.93,-86.9759"/>
<polygon fill="black" stroke="black" points="101.873,-90.5767 111.546,-86.255 101.289,-83.6011 101.873,-90.5767"/>
</g>
<!-- D3T2 -->
<g id="node5" class="node"><title>D3T2</title>
<text text-anchor="middle" x="63.3171" y="-32.7307" font-family="Times Roman,serif" font-size="16.00">D3T</text>
</g>
<!-- CON2&#45;&gt;D3T2 -->
<g id="edge6" class="edge"><title>CON2&#45;&gt;D3T2</title>
<path fill="none" stroke="black" d="M71.2141,-71.0369C70.7729,-69.1426 70.3176,-67.1875 69.8586,-65.217"/>
<polygon fill="black" stroke="black" points="73.26,-64.3911 67.5828,-55.4457 66.4425,-65.979 73.26,-64.3911"/>
</g>
<!-- OLT2 -->
<g id="node6" class="node"><title>OLT2</title>
<text text-anchor="middle" x="46.4666" y="-135.656" font-family="Times Roman,serif" font-size="16.00">OLT</text>
</g>
<!-- CON2&#45;&gt;OLT2 -->
<g id="edge8" class="edge"><title>CON2&#45;&gt;OLT2</title>
<path fill="none" stroke="black" d="M65.1574,-107.321C64.1564,-109.074 63.1261,-110.878 62.0882,-112.696"/>
<polygon fill="black" stroke="black" points="58.8522,-111.305 56.9332,-121.725 64.9311,-114.776 58.8522,-111.305"/>
</g>
</g>
</svg>
