<?xml version="1.0" encoding="UTF-8" standalone="no"?>
<!DOCTYPE svg PUBLIC "-//W3C//DTD SVG 1.1//EN"
 "http://www.w3.org/Graphics/SVG/1.1/DTD/svg11.dtd">
<!-- Generated by graphviz version 2.26.3 (20100126.1600)
 -->
<!-- Title: FirstlevelCluster Pages: 1 -->
<svg width="210pt" height="242pt"
 viewBox="0.00 0.00 210.00 242.00" xmlns="http://www.w3.org/2000/svg" xmlns:xlink="http://www.w3.org/1999/xlink">
<g id="graph1" class="graph" transform="scale(1 1) rotate(0) translate(4 238)">
<title>FirstlevelCluster</title>
<polygon fill="white" stroke="white" points="-4,5 -4,-238 207,-238 207,5 -4,5"/>
<g id="graph2" class="cluster"><title>cluster_0</title>
<polygon fill="none" stroke="black" points="1.23812,-0.140888 1.23812,-233.141 201.238,-233.141 201.238,-0.140888 1.23812,-0.140888"/>
<text text-anchor="middle" x="101.238" y="-216.541" font-family="Times Roman,serif" font-size="14.00">BNF~D3T&gt;</text>
</g>
<g id="graph3" class="cluster"><title>cluster_2</title>
<polygon fill="lightgrey" stroke="black" points="10.4762,-9.28178 10.4762,-198.282 192.476,-198.282 192.476,-9.28178 10.4762,-9.28178"/>
<text text-anchor="middle" x="101.476" y="-181.682" font-family="Times Roman,serif" font-size="14.00">221100</text>
</g>
<!-- CON2 -->
<g id="node3" class="node"><title>CON2</title>
<text text-anchor="middle" x="46.2612" y="-77.1683" font-family="Times Roman,serif" font-size="16.00">CON</text>
</g>
<!-- BNF2 -->
<g id="node4" class="node"><title>BNF2</title>
<text text-anchor="middle" x="156.136" y="-96.0396" font-family="Times Roman,serif" font-size="16.00">BNF</text>
</g>
<!-- BNF2&#45;&gt;CON2 -->
<g id="edge4" class="edge"><title>BNF2&#45;&gt;CON2</title>
<path fill="none" stroke="black" d="M128.976,-95.7747C115.241,-93.4158 98.3637,-90.517 83.4435,-87.9544"/>
<polygon fill="black" stroke="black" points="83.9378,-84.4881 73.4897,-86.2448 82.7529,-91.3871 83.9378,-84.4881"/>
</g>
<!-- OLT2 -->
<g id="node6" class="node"><title>OLT2</title>
<text text-anchor="middle" x="90.4158" y="-141.267" font-family="Times Roman,serif" font-size="16.00">OLT</text>
</g>
<!-- BNF2&#45;&gt;OLT2 -->
<g id="edge6" class="edge"><title>BNF2&#45;&gt;OLT2</title>
<path fill="none" stroke="black" d="M129.784,-118.575C128.311,-119.589 126.819,-120.615 125.323,-121.645"/>
<polygon fill="black" stroke="black" points="123.028,-118.976 116.774,-127.528 126.996,-124.742 123.028,-118.976"/>
</g>
<!-- D3T2 -->
<g id="node5" class="node"><title>D3T2</title>
<text text-anchor="middle" x="111.982" y="-31.9405" font-family="Times Roman,serif" font-size="16.00">D3T</text>
</g>
<!-- D3T2&#45;&gt;CON2 -->
<g id="edge8" class="edge"><title>D3T2&#45;&gt;CON2</title>
<path fill="none" stroke="black" d="M85.6292,-54.4758C84.1562,-55.4895 82.6649,-56.5158 81.168,-57.5459"/>
<polygon fill="black" stroke="black" points="78.873,-54.8765 72.6194,-63.4289 82.8414,-60.643 78.873,-54.8765"/>
</g>
<!-- D3T2&#45;&gt;OLT2 -->
<g id="edge10" class="edge"><title>D3T2&#45;&gt;OLT2</title>
<path fill="none" stroke="black" d="M108.42,-54.3936C105.033,-71.5642 99.8869,-97.6539 95.9624,-117.549"/>
<polygon fill="black" stroke="black" points="92.4838,-117.099 93.9822,-127.587 99.3514,-118.454 92.4838,-117.099"/>
</g>
</g>
</svg>
