<?xml version="1.0" encoding="UTF-8" standalone="no"?>
<!DOCTYPE svg PUBLIC "-//W3C//DTD SVG 1.1//EN"
 "http://www.w3.org/Graphics/SVG/1.1/DTD/svg11.dtd">
<!-- Generated by graphviz version 2.26.3 (20100126.1600)
 -->
<!-- Title: FirstlevelCluster Pages: 1 -->
<svg width="333pt" height="236pt"
 viewBox="0.00 0.00 333.00 236.00" xmlns="http://www.w3.org/2000/svg" xmlns:xlink="http://www.w3.org/1999/xlink">
<g id="graph1" class="graph" transform="scale(1 1) rotate(0) translate(4 232)">
<title>FirstlevelCluster</title>
<polygon fill="white" stroke="white" points="-4,5 -4,-232 330,-232 330,5 -4,5"/>
<g id="graph2" class="cluster"><title>cluster_0</title>
<polygon fill="none" stroke="black" points="0.738117,-0.640888 0.738117,-226.641 323.738,-226.641 323.738,-0.640888 0.738117,-0.640888"/>
<text text-anchor="middle" x="162.238" y="-210.041" font-family="Times Roman,serif" font-size="14.00">&gt;BNF</text>
</g>
<g id="graph3" class="cluster"><title>cluster_2</title>
<polygon fill="lightgrey" stroke="black" points="9.47623,-9.28178 9.47623,-191.282 148.476,-191.282 148.476,-9.28178 9.47623,-9.28178"/>
<text text-anchor="middle" x="78.9762" y="-174.682" font-family="Times Roman,serif" font-size="14.00">022221</text>
</g>
<g id="graph4" class="cluster"><title>cluster_3</title>
<polygon fill="none" stroke="black" points="171.476,-9.28178 171.476,-187.282 314.476,-187.282 314.476,-9.28178 171.476,-9.28178"/>
<text text-anchor="middle" x="242.976" y="-170.682" font-family="Times Roman,serif" font-size="14.00">021221</text>
</g>
<!-- CON2 -->
<g id="node3" class="node"><title>CON2</title>
<text text-anchor="middle" x="45.5937" y="-80.4008" font-family="Times Roman,serif" font-size="16.00">CON</text>
</g>
<!-- BNF2 -->
<g id="node4" class="node"><title>BNF2</title>
<text text-anchor="middle" x="112.037" y="-89.21" font-family="Times Roman,serif" font-size="16.00">BNF</text>
</g>
<!-- CON2&#45;&gt;BNF2 -->
<g id="edge4" class="edge"><title>CON2&#45;&gt;BNF2</title>
<path fill="none" stroke="black" d="M72.6189,-88.3838C73.3734,-88.4839 74.1323,-88.5845 74.894,-88.6855"/>
<polygon fill="black" stroke="black" points="74.4472,-92.1568 84.8205,-90.0015 75.3673,-85.2175 74.4472,-92.1568"/>
</g>
<!-- D3T2 -->
<g id="node5" class="node"><title>D3T2</title>
<text text-anchor="middle" x="88.7724" y="-32.3806" font-family="Times Roman,serif" font-size="16.00">D3T</text>
</g>
<!-- D3T2&#45;&gt;CON2 -->
<g id="edge6" class="edge"><title>D3T2&#45;&gt;CON2</title>
<path fill="none" stroke="black" d="M72.4484,-54.935C71.2662,-56.2497 70.0616,-57.5893 68.85,-58.9368"/>
<polygon fill="black" stroke="black" points="66.0245,-56.8445 61.9408,-66.6207 71.2297,-61.5249 66.0245,-56.8445"/>
</g>
<!-- D3T2&#45;&gt;BNF2 -->
<g id="edge8" class="edge"><title>D3T2&#45;&gt;BNF2</title>
<path fill="none" stroke="black" d="M96.2617,-55.0746C97.673,-58.5221 99.178,-62.1983 100.677,-65.8598"/>
<polygon fill="black" stroke="black" points="97.5344,-67.4218 104.562,-75.3503 104.013,-64.7697 97.5344,-67.4218"/>
</g>
<!-- OLT2 -->
<g id="node6" class="node"><title>OLT2</title>
<text text-anchor="middle" x="69.8094" y="-133.805" font-family="Times Roman,serif" font-size="16.00">OLT</text>
</g>
<!-- OLT2&#45;&gt;CON2 -->
<g id="edge10" class="edge"><title>OLT2&#45;&gt;CON2</title>
<path fill="none" stroke="black" d="M61.6111,-120.125C60.4276,-117.515 59.1884,-114.782 57.9457,-112.041"/>
<polygon fill="black" stroke="black" points="61.101,-110.524 53.7836,-102.862 54.7257,-113.415 61.101,-110.524"/>
</g>
<!-- OLT2&#45;&gt;BNF2 -->
<g id="edge12" class="edge"><title>OLT2&#45;&gt;BNF2</title>
<path fill="none" stroke="black" d="M86.9852,-120.066C87.225,-119.813 87.4654,-119.559 87.7065,-119.305"/>
<polygon fill="black" stroke="black" points="90.4055,-121.545 94.7399,-111.877 85.3227,-116.732 90.4055,-121.545"/>
</g>
<!-- CON3 -->
<g id="node13" class="node"><title>CON3</title>
<text text-anchor="middle" x="207.291" y="-92.4556" font-family="Times Roman,serif" font-size="16.00">CON</text>
</g>
<!-- BNF3 -->
<g id="node14" class="node"><title>BNF3</title>
<text text-anchor="middle" x="275.918" y="-80.8473" font-family="Times Roman,serif" font-size="16.00">BNF</text>
</g>
<!-- CON3&#45;&gt;BNF3 -->
<g id="edge15" class="edge"><title>CON3&#45;&gt;BNF3</title>
<path fill="none" stroke="black" d="M234.414,-92.2677C235.721,-92.0467 237.042,-91.8232 238.37,-91.5986"/>
<polygon fill="black" stroke="black" points="239.266,-94.9968 248.542,-89.878 238.098,-88.0948 239.266,-94.9968"/>
</g>
<!-- D3T3 -->
<g id="node15" class="node"><title>D3T3</title>
<text text-anchor="middle" x="227.162" y="-31.7354" font-family="Times Roman,serif" font-size="16.00">D3T</text>
</g>
<!-- D3T3&#45;&gt;CON3 -->
<g id="edge17" class="edge"><title>D3T3&#45;&gt;CON3</title>
<path fill="none" stroke="black" d="M221.2,-54.3534C219.707,-58.9165 218.07,-63.9177 216.46,-68.8365"/>
<polygon fill="black" stroke="black" points="213.032,-68.0577 213.248,-78.6504 219.685,-70.235 213.032,-68.0577"/>
</g>
<!-- D3T3&#45;&gt;BNF3 -->
<g id="edge19" class="edge"><title>D3T3&#45;&gt;BNF3</title>
<path fill="none" stroke="black" d="M245.04,-54.144C246.895,-56.0124 248.804,-57.9354 250.72,-59.8652"/>
<polygon fill="black" stroke="black" points="248.513,-62.61 258.042,-67.2409 253.481,-57.6783 248.513,-62.61"/>
</g>
<!-- OLT3 -->
<g id="node16" class="node"><title>OLT3</title>
<text text-anchor="middle" x="278.421" y="-129.758" font-family="Times Roman,serif" font-size="16.00">OLT</text>
</g>
<!-- OLT3&#45;&gt;BNF3 -->
<g id="edge21" class="edge"><title>OLT3&#45;&gt;BNF3</title>
<path fill="none" stroke="black" d="M277.489,-115.945C277.449,-115.171 277.409,-114.388 277.369,-113.6"/>
<polygon fill="black" stroke="black" points="280.849,-113.12 276.842,-103.312 273.858,-113.478 280.849,-113.12"/>
</g>
</g>
</svg>
