<?xml version="1.0" encoding="UTF-8" standalone="no"?>
<!DOCTYPE svg PUBLIC "-//W3C//DTD SVG 1.1//EN"
 "http://www.w3.org/Graphics/SVG/1.1/DTD/svg11.dtd">
<!-- Generated by graphviz version 2.26.3 (20100126.1600)
 -->
<!-- Title: FirstlevelCluster Pages: 1 -->
<svg width="194pt" height="232pt"
 viewBox="0.00 0.00 194.00 232.00" xmlns="http://www.w3.org/2000/svg" xmlns:xlink="http://www.w3.org/1999/xlink">
<g id="graph1" class="graph" transform="scale(1 1) rotate(0) translate(4 228)">
<title>FirstlevelCluster</title>
<polygon fill="white" stroke="white" points="-4,5 -4,-228 191,-228 191,5 -4,5"/>
<g id="graph2" class="cluster"><title>cluster_0</title>
<polygon fill="none" stroke="black" points="1.23812,-0.140888 1.23812,-223.141 185.238,-223.141 185.238,-0.140888 1.23812,-0.140888"/>
<text text-anchor="middle" x="93.2381" y="-206.541" font-family="Times Roman,serif" font-size="14.00">&gt;CON~BNF</text>
</g>
<g id="graph3" class="cluster"><title>cluster_2</title>
<polygon fill="lightgrey" stroke="black" points="10.4762,-9.28178 10.4762,-188.282 176.476,-188.282 176.476,-9.28178 10.4762,-9.28178"/>
<text text-anchor="middle" x="93.4762" y="-171.682" font-family="Times Roman,serif" font-size="14.00">122221</text>
</g>
<!-- CON2 -->
<g id="node3" class="node"><title>CON2</title>
<text text-anchor="middle" x="46.1067" y="-76.1656" font-family="Times Roman,serif" font-size="16.00">CON</text>
</g>
<!-- BNF2 -->
<g id="node4" class="node"><title>BNF2</title>
<text text-anchor="middle" x="140.255" y="-86.5422" font-family="Times Roman,serif" font-size="16.00">BNF</text>
</g>
<!-- D3T2 -->
<g id="node5" class="node"><title>D3T2</title>
<text text-anchor="middle" x="106.952" y="-31.7848" font-family="Times Roman,serif" font-size="16.00">D3T</text>
</g>
<!-- D3T2&#45;&gt;CON2 -->
<g id="edge4" class="edge"><title>D3T2&#45;&gt;CON2</title>
<path fill="none" stroke="black" d="M82.2037,-54.2362C81.2825,-54.9081 80.354,-55.5853 79.422,-56.2652"/>
<polygon fill="black" stroke="black" points="77.0468,-53.6655 71.0302,-62.3862 81.172,-59.3209 77.0468,-53.6655"/>
</g>
<!-- D3T2&#45;&gt;BNF2 -->
<g id="edge6" class="edge"><title>D3T2&#45;&gt;BNF2</title>
<path fill="none" stroke="black" d="M118.041,-54.4183C119.875,-57.4341 121.811,-60.6172 123.745,-63.7961"/>
<polygon fill="black" stroke="black" points="120.914,-65.8766 129.1,-72.6017 126.894,-62.2391 120.914,-65.8766"/>
</g>
<!-- OLT2 -->
<g id="node6" class="node"><title>OLT2</title>
<text text-anchor="middle" x="79.41" y="-130.923" font-family="Times Roman,serif" font-size="16.00">OLT</text>
</g>
<!-- OLT2&#45;&gt;CON2 -->
<g id="edge8" class="edge"><title>OLT2&#45;&gt;CON2</title>
<path fill="none" stroke="black" d="M68.3205,-117.09C66.4863,-114.074 64.5503,-110.891 62.6169,-107.712"/>
<polygon fill="black" stroke="black" points="65.4481,-105.631 57.2613,-98.9061 59.4674,-109.269 65.4481,-105.631"/>
</g>
<!-- OLT2&#45;&gt;BNF2 -->
<g id="edge10" class="edge"><title>OLT2&#45;&gt;BNF2</title>
<path fill="none" stroke="black" d="M104.158,-117.272C105.079,-116.6 106.008,-115.922 106.94,-115.243"/>
<polygon fill="black" stroke="black" points="109.315,-117.842 115.331,-109.122 105.19,-112.187 109.315,-117.842"/>
</g>
</g>
</svg>
