<?xml version="1.0" encoding="UTF-8" standalone="no"?>
<!DOCTYPE svg PUBLIC "-//W3C//DTD SVG 1.1//EN"
 "http://www.w3.org/Graphics/SVG/1.1/DTD/svg11.dtd">
<!-- Generated by graphviz version 2.26.3 (20100126.1600)
 -->
<!-- Title: FirstlevelCluster Pages: 1 -->
<svg width="414pt" height="253pt"
 viewBox="0.00 0.00 414.00 253.00" xmlns="http://www.w3.org/2000/svg" xmlns:xlink="http://www.w3.org/1999/xlink">
<g id="graph1" class="graph" transform="scale(1 1) rotate(0) translate(4 249)">
<title>FirstlevelCluster</title>
<polygon fill="white" stroke="white" points="-4,5 -4,-249 411,-249 411,5 -4,5"/>
<g id="graph2" class="cluster"><title>cluster_0</title>
<polygon fill="none" stroke="black" points="1.23812,-1.14089 1.23812,-244.141 405.238,-244.141 405.238,-1.14089 1.23812,-1.14089"/>
<text text-anchor="middle" x="203.238" y="-227.541" font-family="Times Roman,serif" font-size="14.00">CON~BNF&gt;</text>
</g>
<g id="graph3" class="cluster"><title>cluster_2</title>
<polygon fill="lightgrey" stroke="black" points="10.4762,-30.2818 10.4762,-209.282 176.476,-209.282 176.476,-30.2818 10.4762,-30.2818"/>
<text text-anchor="middle" x="93.4762" y="-192.682" font-family="Times Roman,serif" font-size="14.00">100001</text>
</g>
<g id="graph4" class="cluster"><title>cluster_3</title>
<polygon fill="lightgrey" stroke="black" points="209.976,-10.2818 209.976,-167.282 396.976,-167.282 396.976,-10.2818 209.976,-10.2818"/>
<text text-anchor="middle" x="303.476" y="-150.682" font-family="Times Roman,serif" font-size="14.00">100002</text>
</g>
<!-- CON2 -->
<g id="node3" class="node"><title>CON2</title>
<text text-anchor="middle" x="46.1067" y="-97.1656" font-family="Times Roman,serif" font-size="16.00">CON</text>
</g>
<!-- D3T2 -->
<g id="node5" class="node"><title>D3T2</title>
<text text-anchor="middle" x="106.952" y="-52.7848" font-family="Times Roman,serif" font-size="16.00">D3T</text>
</g>
<!-- CON2&#45;&gt;D3T2 -->
<g id="edge4" class="edge"><title>CON2&#45;&gt;D3T2</title>
<path fill="none" stroke="black" d="M70.8547,-83.5143C71.7759,-82.8423 72.7043,-82.1651 73.6364,-81.4852"/>
<polygon fill="black" stroke="black" points="76.0115,-84.085 82.0281,-75.3643 71.8864,-78.4296 76.0115,-84.085"/>
</g>
<!-- OLT2 -->
<g id="node6" class="node"><title>OLT2</title>
<text text-anchor="middle" x="79.41" y="-151.923" font-family="Times Roman,serif" font-size="16.00">OLT</text>
</g>
<!-- CON2&#45;&gt;OLT2 -->
<g id="edge6" class="edge"><title>CON2&#45;&gt;OLT2</title>
<path fill="none" stroke="black" d="M57.1962,-119.799C59.0304,-122.815 60.9664,-125.998 62.8998,-129.177"/>
<polygon fill="black" stroke="black" points="60.0686,-131.257 68.2554,-137.982 66.0493,-127.62 60.0686,-131.257"/>
</g>
<!-- BNF2 -->
<g id="node4" class="node"><title>BNF2</title>
<text text-anchor="middle" x="140.255" y="-107.542" font-family="Times Roman,serif" font-size="16.00">BNF</text>
</g>
<!-- BNF2&#45;&gt;D3T2 -->
<g id="edge8" class="edge"><title>BNF2&#45;&gt;D3T2</title>
<path fill="none" stroke="black" d="M129.166,-93.7088C127.331,-90.693 125.395,-87.5099 123.462,-84.3309"/>
<polygon fill="black" stroke="black" points="126.293,-82.2505 118.106,-75.5253 120.312,-85.888 126.293,-82.2505"/>
</g>
<!-- BNF2&#45;&gt;OLT2 -->
<g id="edge10" class="edge"><title>BNF2&#45;&gt;OLT2</title>
<path fill="none" stroke="black" d="M115.507,-129.994C114.586,-130.666 113.657,-131.343 112.725,-132.023"/>
<polygon fill="black" stroke="black" points="110.35,-129.423 104.334,-138.144 114.475,-135.078 110.35,-129.423"/>
</g>
<!-- CON3 -->
<g id="node12" class="node"><title>CON3</title>
<text text-anchor="middle" x="245.678" y="-60.6294" font-family="Times Roman,serif" font-size="16.00">CON</text>
</g>
<!-- D3T3 -->
<g id="node14" class="node"><title>D3T3</title>
<text text-anchor="middle" x="311.153" y="-32.4845" font-family="Times Roman,serif" font-size="16.00">D3T</text>
</g>
<!-- CON3&#45;&gt;D3T3 -->
<g id="edge13" class="edge"><title>CON3&#45;&gt;D3T3</title>
<path fill="none" stroke="black" d="M272.687,-53.4193C273.259,-53.1732 273.834,-52.9262 274.411,-52.6783"/>
<polygon fill="black" stroke="black" points="275.978,-55.8145 283.783,-48.6498 273.213,-49.3835 275.978,-55.8145"/>
</g>
<!-- OLT3 -->
<g id="node15" class="node"><title>OLT3</title>
<text text-anchor="middle" x="295.207" y="-109.9" font-family="Times Roman,serif" font-size="16.00">OLT</text>
</g>
<!-- CON3&#45;&gt;OLT3 -->
<g id="edge15" class="edge"><title>CON3&#45;&gt;OLT3</title>
<path fill="none" stroke="black" d="M263.839,-83.0961C265.724,-84.9705 267.663,-86.8997 269.609,-88.8357"/>
<polygon fill="black" stroke="black" points="267.489,-91.664 277.047,-96.2352 272.426,-86.7013 267.489,-91.664"/>
</g>
<!-- BNF3 -->
<g id="node13" class="node"><title>BNF3</title>
<text text-anchor="middle" x="360.682" y="-81.7548" font-family="Times Roman,serif" font-size="16.00">BNF</text>
</g>
<!-- BNF3&#45;&gt;D3T3 -->
<g id="edge17" class="edge"><title>BNF3&#45;&gt;D3T3</title>
<path fill="none" stroke="black" d="M342.52,-68.0881C340.636,-66.2137 338.697,-64.2845 336.75,-62.3485"/>
<polygon fill="black" stroke="black" points="338.87,-59.5202 329.312,-54.949 333.933,-64.4829 338.87,-59.5202"/>
</g>
<!-- BNF3&#45;&gt;OLT3 -->
<g id="edge19" class="edge"><title>BNF3&#45;&gt;OLT3</title>
<path fill="none" stroke="black" d="M333.673,-97.7649C333.1,-98.011 332.525,-98.2581 331.949,-98.5059"/>
<polygon fill="black" stroke="black" points="330.382,-95.3697 322.577,-102.534 333.146,-101.801 330.382,-95.3697"/>
</g>
<!-- OLT3&#45;&gt;D3T3 -->
<g id="edge21" class="edge"><title>OLT3&#45;&gt;D3T3</title>
<path fill="none" stroke="black" d="M298.986,-95.9534C300.892,-86.6979 303.246,-75.2712 305.373,-64.9418"/>
<polygon fill="black" stroke="black" points="308.811,-65.5997 307.401,-55.0991 301.955,-64.1874 308.811,-65.5997"/>
</g>
</g>
</svg>
