<?xml version="1.0" encoding="UTF-8" standalone="no"?>
<!DOCTYPE svg PUBLIC "-//W3C//DTD SVG 1.1//EN"
 "http://www.w3.org/Graphics/SVG/1.1/DTD/svg11.dtd">
<!-- Generated by graphviz version 2.26.3 (20100126.1600)
 -->
<!-- Title: FirstlevelCluster Pages: 1 -->
<svg width="356pt" height="237pt"
 viewBox="0.00 0.00 356.00 237.00" xmlns="http://www.w3.org/2000/svg" xmlns:xlink="http://www.w3.org/1999/xlink">
<g id="graph1" class="graph" transform="scale(1 1) rotate(0) translate(4 233)">
<title>FirstlevelCluster</title>
<polygon fill="white" stroke="white" points="-4,5 -4,-233 353,-233 353,5 -4,5"/>
<g id="graph2" class="cluster"><title>cluster_0</title>
<polygon fill="none" stroke="black" points="0.738117,-1.14089 0.738117,-228.141 347.738,-228.141 347.738,-1.14089 0.738117,-1.14089"/>
<text text-anchor="middle" x="174.238" y="-211.541" font-family="Times Roman,serif" font-size="14.00">CON&gt;</text>
</g>
<g id="graph3" class="cluster"><title>cluster_2</title>
<polygon fill="lightgrey" stroke="black" points="9.97623,-10.2818 9.97623,-193.282 173.976,-193.282 173.976,-10.2818 9.97623,-10.2818"/>
<text text-anchor="middle" x="91.9762" y="-176.682" font-family="Times Roman,serif" font-size="14.00">000111</text>
</g>
<g id="graph4" class="cluster"><title>cluster_3</title>
<polygon fill="lightgrey" stroke="black" points="199.476,-9.78178 199.476,-191.782 338.476,-191.782 338.476,-9.78178 199.476,-9.78178"/>
<text text-anchor="middle" x="268.976" y="-175.182" font-family="Times Roman,serif" font-size="14.00">000001</text>
</g>
<!-- CON2 -->
<g id="node3" class="node"><title>CON2</title>
<text text-anchor="middle" x="74.9617" y="-84.8741" font-family="Times Roman,serif" font-size="16.00">CON</text>
</g>
<!-- BNF2 -->
<g id="node4" class="node"><title>BNF2</title>
<text text-anchor="middle" x="138.215" y="-79.5818" font-family="Times Roman,serif" font-size="16.00">BNF</text>
</g>
<!-- CON2&#45;&gt;BNF2 -->
<g id="edge4" class="edge"><title>CON2&#45;&gt;BNF2</title>
<path fill="none" stroke="black" d="M102.154,-86.999C102.246,-86.9913 102.338,-86.9836 102.43,-86.9759"/>
<polygon fill="black" stroke="black" points="101.373,-90.5767 111.046,-86.255 100.789,-83.6011 101.373,-90.5767"/>
</g>
<!-- D3T2 -->
<g id="node5" class="node"><title>D3T2</title>
<text text-anchor="middle" x="62.8171" y="-32.7307" font-family="Times Roman,serif" font-size="16.00">D3T</text>
</g>
<!-- CON2&#45;&gt;D3T2 -->
<g id="edge6" class="edge"><title>CON2&#45;&gt;D3T2</title>
<path fill="none" stroke="black" d="M70.7141,-71.0369C70.2729,-69.1426 69.8176,-67.1875 69.3586,-65.217"/>
<polygon fill="black" stroke="black" points="72.76,-64.3911 67.0828,-55.4457 65.9425,-65.979 72.76,-64.3911"/>
</g>
<!-- OLT2 -->
<g id="node6" class="node"><title>OLT2</title>
<text text-anchor="middle" x="45.9666" y="-135.656" font-family="Times Roman,serif" font-size="16.00">OLT</text>
</g>
<!-- CON2&#45;&gt;OLT2 -->
<g id="edge8" class="edge"><title>CON2&#45;&gt;OLT2</title>
<path fill="none" stroke="black" d="M64.6574,-107.321C63.6564,-109.074 62.6261,-110.878 61.5882,-112.696"/>
<polygon fill="black" stroke="black" points="58.3522,-111.305 56.4332,-121.725 64.4311,-114.776 58.3522,-111.305"/>
</g>
<!-- CON3 -->
<g id="node11" class="node"><title>CON3</title>
<text text-anchor="middle" x="235.594" y="-80.9008" font-family="Times Roman,serif" font-size="16.00">CON</text>
</g>
<!-- BNF3 -->
<g id="node12" class="node"><title>BNF3</title>
<text text-anchor="middle" x="302.037" y="-89.71" font-family="Times Roman,serif" font-size="16.00">BNF</text>
</g>
<!-- CON3&#45;&gt;BNF3 -->
<g id="edge11" class="edge"><title>CON3&#45;&gt;BNF3</title>
<path fill="none" stroke="black" d="M262.619,-88.8838C263.373,-88.9839 264.132,-89.0845 264.894,-89.1855"/>
<polygon fill="black" stroke="black" points="264.447,-92.6568 274.821,-90.5015 265.367,-85.7175 264.447,-92.6568"/>
</g>
<!-- D3T3 -->
<g id="node13" class="node"><title>D3T3</title>
<text text-anchor="middle" x="278.772" y="-32.8806" font-family="Times Roman,serif" font-size="16.00">D3T</text>
</g>
<!-- CON3&#45;&gt;D3T3 -->
<g id="edge13" class="edge"><title>CON3&#45;&gt;D3T3</title>
<path fill="none" stroke="black" d="M251.918,-67.1464C253.1,-65.8317 254.304,-64.4921 255.516,-63.1446"/>
<polygon fill="black" stroke="black" points="258.342,-65.2369 262.425,-55.4607 253.136,-60.5564 258.342,-65.2369"/>
</g>
<!-- OLT3 -->
<g id="node14" class="node"><title>OLT3</title>
<text text-anchor="middle" x="259.809" y="-134.305" font-family="Times Roman,serif" font-size="16.00">OLT</text>
</g>
<!-- CON3&#45;&gt;OLT3 -->
<g id="edge15" class="edge"><title>CON3&#45;&gt;OLT3</title>
<path fill="none" stroke="black" d="M243.792,-103.381C244.975,-105.991 246.215,-108.724 247.457,-111.464"/>
<polygon fill="black" stroke="black" points="244.302,-112.981 251.62,-120.643 250.677,-110.09 244.302,-112.981"/>
</g>
<!-- BNF3&#45;&gt;D3T3 -->
<g id="edge17" class="edge"><title>BNF3&#45;&gt;D3T3</title>
<path fill="none" stroke="black" d="M294.548,-75.816C293.137,-72.3685 291.632,-68.6923 290.133,-65.0309"/>
<polygon fill="black" stroke="black" points="293.275,-63.4688 286.248,-55.5403 286.797,-66.1209 293.275,-63.4688"/>
</g>
<!-- BNF3&#45;&gt;OLT3 -->
<g id="edge19" class="edge"><title>BNF3&#45;&gt;OLT3</title>
<path fill="none" stroke="black" d="M284.862,-112.248C284.622,-112.502 284.382,-112.756 284.14,-113.01"/>
<polygon fill="black" stroke="black" points="281.441,-110.77 277.107,-120.438 286.524,-115.583 281.441,-110.77"/>
</g>
</g>
</svg>
