<?xml version="1.0" encoding="UTF-8" standalone="no"?>
<!DOCTYPE svg PUBLIC "-//W3C//DTD SVG 1.1//EN"
 "http://www.w3.org/Graphics/SVG/1.1/DTD/svg11.dtd">
<!-- Generated by graphviz version 2.26.3 (20100126.1600)
 -->
<!-- Title: FirstlevelCluster Pages: 1 -->
<svg width="419pt" height="239pt"
 viewBox="0.00 0.00 419.00 239.00" xmlns="http://www.w3.org/2000/svg" xmlns:xlink="http://www.w3.org/1999/xlink">
<g id="graph1" class="graph" transform="scale(1 1) rotate(0) translate(4 235)">
<title>FirstlevelCluster</title>
<polygon fill="white" stroke="white" points="-4,5 -4,-235 416,-235 416,5 -4,5"/>
<g id="graph2" class="cluster"><title>cluster_0</title>
<polygon fill="none" stroke="black" points="0.738117,-0.640888 0.738117,-230.641 409.738,-230.641 409.738,-0.640888 0.738117,-0.640888"/>
<text text-anchor="middle" x="205.238" y="-214.041" font-family="Times Roman,serif" font-size="14.00">&gt;CON</text>
</g>
<g id="graph3" class="cluster"><title>cluster_2</title>
<polygon fill="lightgrey" stroke="black" points="9.97623,-8.78178 9.97623,-195.782 189.976,-195.782 189.976,-8.78178 9.97623,-8.78178"/>
<text text-anchor="middle" x="99.9762" y="-179.182" font-family="Times Roman,serif" font-size="14.00">222220</text>
</g>
<g id="graph4" class="cluster"><title>cluster_3</title>
<polygon fill="lightgrey" stroke="black" points="219.476,-9.28178 219.476,-195.282 400.476,-195.282 400.476,-9.28178 219.476,-9.28178"/>
<text text-anchor="middle" x="309.976" y="-178.682" font-family="Times Roman,serif" font-size="14.00">222210</text>
</g>
<!-- CON2 -->
<g id="node3" class="node"><title>CON2</title>
<text text-anchor="middle" x="46.3532" y="-76.3791" font-family="Times Roman,serif" font-size="16.00">CON</text>
</g>
<!-- BNF2 -->
<g id="node4" class="node"><title>BNF2</title>
<text text-anchor="middle" x="153.531" y="-93.6164" font-family="Times Roman,serif" font-size="16.00">BNF</text>
</g>
<!-- BNF2&#45;&gt;CON2 -->
<g id="edge4" class="edge"><title>BNF2&#45;&gt;CON2</title>
<path fill="none" stroke="black" d="M126.485,-93.6667C113.411,-91.5641 97.5173,-89.0078 83.3425,-86.7281"/>
<polygon fill="black" stroke="black" points="83.8188,-83.2598 73.3899,-85.1275 82.7072,-90.171 83.8188,-83.2598"/>
</g>
<!-- D3T2 -->
<g id="node5" class="node"><title>D3T2</title>
<text text-anchor="middle" x="109.852" y="-31.1935" font-family="Times Roman,serif" font-size="16.00">D3T</text>
</g>
<!-- D3T2&#45;&gt;CON2 -->
<g id="edge6" class="edge"><title>D3T2&#45;&gt;CON2</title>
<path fill="none" stroke="black" d="M84.3902,-53.7119C82.967,-54.7247 81.5261,-55.75 80.0798,-56.7792"/>
<polygon fill="black" stroke="black" points="77.9386,-54.0071 71.8202,-62.6567 81.9972,-59.7105 77.9386,-54.0071"/>
</g>
<!-- D3T2&#45;&gt;BNF2 -->
<g id="edge8" class="edge"><title>D3T2&#45;&gt;BNF2</title>
<path fill="none" stroke="black" d="M122.485,-53.6488C126.345,-59.1647 130.674,-65.3517 134.846,-71.3143"/>
<polygon fill="black" stroke="black" points="132.173,-73.5987 140.774,-79.7855 137.908,-69.5855 132.173,-73.5987"/>
</g>
<!-- OLT2 -->
<g id="node6" class="node"><title>OLT2</title>
<text text-anchor="middle" x="90.0322" y="-138.802" font-family="Times Roman,serif" font-size="16.00">OLT</text>
</g>
<!-- D3T2&#45;&gt;OLT2 -->
<g id="edge10" class="edge"><title>D3T2&#45;&gt;OLT2</title>
<path fill="none" stroke="black" d="M106.489,-53.8479C103.414,-70.5439 98.8168,-95.5065 95.262,-114.807"/>
<polygon fill="black" stroke="black" points="91.7801,-114.39 93.4107,-124.858 98.6643,-115.658 91.7801,-114.39"/>
</g>
<!-- OLT2&#45;&gt;CON2 -->
<g id="edge12" class="edge"><title>OLT2&#45;&gt;CON2</title>
<path fill="none" stroke="black" d="M77.3984,-125.147C73.5387,-119.631 69.2096,-113.444 65.0374,-107.481"/>
<polygon fill="black" stroke="black" points="67.7107,-105.197 59.1099,-99.0101 61.9753,-109.21 67.7107,-105.197"/>
</g>
<!-- OLT2&#45;&gt;BNF2 -->
<g id="edge14" class="edge"><title>OLT2&#45;&gt;BNF2</title>
<path fill="none" stroke="black" d="M115.494,-125.084C116.917,-124.071 118.358,-123.046 119.804,-122.016"/>
<polygon fill="black" stroke="black" points="121.945,-124.788 128.064,-116.139 117.887,-119.085 121.945,-124.788"/>
</g>
<!-- CON3 -->
<g id="node14" class="node"><title>CON3</title>
<text text-anchor="middle" x="255.902" y="-78.8599" font-family="Times Roman,serif" font-size="16.00">CON</text>
</g>
<!-- BNF3 -->
<g id="node15" class="node"><title>BNF3</title>
<text text-anchor="middle" x="364.006" y="-82.2964" font-family="Times Roman,serif" font-size="16.00">BNF</text>
</g>
<!-- BNF3&#45;&gt;CON3 -->
<g id="edge17" class="edge"><title>BNF3&#45;&gt;CON3</title>
<path fill="none" stroke="black" d="M337.006,-85.8381C323.72,-85.4158 307.497,-84.9001 293.061,-84.4412"/>
<polygon fill="black" stroke="black" points="293.039,-80.9388 282.933,-84.1192 292.816,-87.9353 293.039,-80.9388"/>
</g>
<!-- D3T3 -->
<g id="node16" class="node"><title>D3T3</title>
<text text-anchor="middle" x="310.969" y="-31.4954" font-family="Times Roman,serif" font-size="16.00">D3T</text>
</g>
<!-- D3T3&#45;&gt;CON3 -->
<g id="edge19" class="edge"><title>D3T3&#45;&gt;CON3</title>
<path fill="none" stroke="black" d="M289.836,-54.0723C288.111,-55.556 286.351,-57.0703 284.584,-58.59"/>
<polygon fill="black" stroke="black" points="282.186,-56.0354 276.887,-65.2099 286.751,-61.3424 282.186,-56.0354"/>
</g>
<!-- D3T3&#45;&gt;BNF3 -->
<g id="edge21" class="edge"><title>D3T3&#45;&gt;BNF3</title>
<path fill="none" stroke="black" d="M329.817,-53.9489C332.259,-56.2875 334.795,-58.7169 337.334,-61.1482"/>
<polygon fill="black" stroke="black" points="335.218,-63.9686 344.861,-68.3583 340.06,-58.9135 335.218,-63.9686"/>
</g>
<!-- OLT3 -->
<g id="node17" class="node"><title>OLT3</title>
<text text-anchor="middle" x="288.778" y="-137.551" font-family="Times Roman,serif" font-size="16.00">OLT</text>
</g>
<!-- D3T3&#45;&gt;OLT3 -->
<g id="edge23" class="edge"><title>D3T3&#45;&gt;OLT3</title>
<path fill="none" stroke="black" d="M307.104,-54.3689C303.667,-70.7932 298.591,-95.0508 294.652,-113.875"/>
<polygon fill="black" stroke="black" points="291.221,-113.184 292.599,-123.689 298.073,-114.618 291.221,-113.184"/>
</g>
<!-- OLT3&#45;&gt;CON3 -->
<g id="edge25" class="edge"><title>OLT3&#45;&gt;CON3</title>
<path fill="none" stroke="black" d="M278.556,-123.703C276.183,-119.467 273.608,-114.869 271.073,-110.344"/>
<polygon fill="black" stroke="black" points="273.945,-108.31 266.004,-101.296 267.838,-111.731 273.945,-108.31"/>
</g>
</g>
</svg>
