<?xml version="1.0" encoding="UTF-8" standalone="no"?>
<!DOCTYPE svg PUBLIC "-//W3C//DTD SVG 1.1//EN"
 "http://www.w3.org/Graphics/SVG/1.1/DTD/svg11.dtd">
<!-- Generated by graphviz version 2.26.3 (20100126.1600)
 -->
<!-- Title: FirstlevelCluster Pages: 1 -->
<svg width="376pt" height="251pt"
 viewBox="0.00 0.00 376.00 251.00" xmlns="http://www.w3.org/2000/svg" xmlns:xlink="http://www.w3.org/1999/xlink">
<g id="graph1" class="graph" transform="scale(1 1) rotate(0) translate(4 247)">
<title>FirstlevelCluster</title>
<polygon fill="white" stroke="white" points="-4,5 -4,-247 373,-247 373,5 -4,5"/>
<g id="graph2" class="cluster"><title>cluster_0</title>
<polygon fill="none" stroke="black" points="1.23812,-0.640888 1.23812,-242.641 367.238,-242.641 367.238,-0.640888 1.23812,-0.640888"/>
<text text-anchor="middle" x="184.238" y="-226.041" font-family="Times Roman,serif" font-size="14.00">D3T~OLT&gt;</text>
</g>
<g id="graph3" class="cluster"><title>cluster_2</title>
<polygon fill="lightgrey" stroke="black" points="218.976,-9.28178 218.976,-191.282 357.976,-191.282 357.976,-9.28178 218.976,-9.28178"/>
<text text-anchor="middle" x="288.476" y="-174.682" font-family="Times Roman,serif" font-size="14.00">022221</text>
</g>
<g id="graph4" class="cluster"><title>cluster_3</title>
<polygon fill="lightgrey" stroke="black" points="10.4762,-28.7818 10.4762,-207.782 176.476,-207.782 176.476,-28.7818 10.4762,-28.7818"/>
<text text-anchor="middle" x="93.4762" y="-191.182" font-family="Times Roman,serif" font-size="14.00">122221</text>
</g>
<!-- CON2 -->
<g id="node3" class="node"><title>CON2</title>
<text text-anchor="middle" x="255.094" y="-80.4008" font-family="Times Roman,serif" font-size="16.00">CON</text>
</g>
<!-- BNF2 -->
<g id="node4" class="node"><title>BNF2</title>
<text text-anchor="middle" x="321.537" y="-89.21" font-family="Times Roman,serif" font-size="16.00">BNF</text>
</g>
<!-- CON2&#45;&gt;BNF2 -->
<g id="edge4" class="edge"><title>CON2&#45;&gt;BNF2</title>
<path fill="none" stroke="black" d="M282.119,-88.3838C282.873,-88.4839 283.632,-88.5845 284.394,-88.6855"/>
<polygon fill="black" stroke="black" points="283.947,-92.1568 294.321,-90.0015 284.867,-85.2175 283.947,-92.1568"/>
</g>
<!-- D3T2 -->
<g id="node5" class="node"><title>D3T2</title>
<text text-anchor="middle" x="298.272" y="-32.3806" font-family="Times Roman,serif" font-size="16.00">D3T</text>
</g>
<!-- D3T2&#45;&gt;CON2 -->
<g id="edge6" class="edge"><title>D3T2&#45;&gt;CON2</title>
<path fill="none" stroke="black" d="M281.948,-54.935C280.766,-56.2497 279.562,-57.5893 278.35,-58.9368"/>
<polygon fill="black" stroke="black" points="275.524,-56.8445 271.441,-66.6207 280.73,-61.5249 275.524,-56.8445"/>
</g>
<!-- D3T2&#45;&gt;BNF2 -->
<g id="edge8" class="edge"><title>D3T2&#45;&gt;BNF2</title>
<path fill="none" stroke="black" d="M305.762,-55.0746C307.173,-58.5221 308.678,-62.1983 310.177,-65.8598"/>
<polygon fill="black" stroke="black" points="307.034,-67.4218 314.062,-75.3503 313.513,-64.7697 307.034,-67.4218"/>
</g>
<!-- OLT2 -->
<g id="node6" class="node"><title>OLT2</title>
<text text-anchor="middle" x="279.309" y="-133.805" font-family="Times Roman,serif" font-size="16.00">OLT</text>
</g>
<!-- OLT2&#45;&gt;CON2 -->
<g id="edge10" class="edge"><title>OLT2&#45;&gt;CON2</title>
<path fill="none" stroke="black" d="M271.111,-120.125C269.928,-117.515 268.688,-114.782 267.446,-112.041"/>
<polygon fill="black" stroke="black" points="270.601,-110.524 263.284,-102.862 264.226,-113.415 270.601,-110.524"/>
</g>
<!-- OLT2&#45;&gt;BNF2 -->
<g id="edge12" class="edge"><title>OLT2&#45;&gt;BNF2</title>
<path fill="none" stroke="black" d="M296.485,-120.066C296.725,-119.813 296.965,-119.559 297.206,-119.305"/>
<polygon fill="black" stroke="black" points="299.905,-121.545 304.24,-111.877 294.823,-116.732 299.905,-121.545"/>
</g>
<!-- CON3 -->
<g id="node13" class="node"><title>CON3</title>
<text text-anchor="middle" x="46.1067" y="-95.6656" font-family="Times Roman,serif" font-size="16.00">CON</text>
</g>
<!-- BNF3 -->
<g id="node14" class="node"><title>BNF3</title>
<text text-anchor="middle" x="140.255" y="-106.042" font-family="Times Roman,serif" font-size="16.00">BNF</text>
</g>
<!-- D3T3 -->
<g id="node15" class="node"><title>D3T3</title>
<text text-anchor="middle" x="106.952" y="-51.2848" font-family="Times Roman,serif" font-size="16.00">D3T</text>
</g>
<!-- D3T3&#45;&gt;CON3 -->
<g id="edge15" class="edge"><title>D3T3&#45;&gt;CON3</title>
<path fill="none" stroke="black" d="M82.2037,-73.7362C81.2825,-74.4081 80.354,-75.0853 79.422,-75.7652"/>
<polygon fill="black" stroke="black" points="77.0468,-73.1655 71.0302,-81.8862 81.172,-78.8209 77.0468,-73.1655"/>
</g>
<!-- D3T3&#45;&gt;BNF3 -->
<g id="edge17" class="edge"><title>D3T3&#45;&gt;BNF3</title>
<path fill="none" stroke="black" d="M118.041,-73.9183C119.875,-76.9341 121.811,-80.1172 123.745,-83.2961"/>
<polygon fill="black" stroke="black" points="120.914,-85.3766 129.1,-92.1017 126.894,-81.7391 120.914,-85.3766"/>
</g>
<!-- OLT3 -->
<g id="node16" class="node"><title>OLT3</title>
<text text-anchor="middle" x="79.41" y="-150.423" font-family="Times Roman,serif" font-size="16.00">OLT</text>
</g>
<!-- OLT3&#45;&gt;CON3 -->
<g id="edge19" class="edge"><title>OLT3&#45;&gt;CON3</title>
<path fill="none" stroke="black" d="M68.3205,-136.59C66.4863,-133.574 64.5503,-130.391 62.6169,-127.212"/>
<polygon fill="black" stroke="black" points="65.4481,-125.131 57.2613,-118.406 59.4674,-128.769 65.4481,-125.131"/>
</g>
<!-- OLT3&#45;&gt;BNF3 -->
<g id="edge21" class="edge"><title>OLT3&#45;&gt;BNF3</title>
<path fill="none" stroke="black" d="M104.158,-136.772C105.079,-136.1 106.008,-135.422 106.94,-134.743"/>
<polygon fill="black" stroke="black" points="109.315,-137.342 115.331,-128.622 105.19,-131.687 109.315,-137.342"/>
</g>
</g>
</svg>
