<?xml version="1.0" encoding="UTF-8" standalone="no"?>
<!DOCTYPE svg PUBLIC "-//W3C//DTD SVG 1.1//EN"
 "http://www.w3.org/Graphics/SVG/1.1/DTD/svg11.dtd">
<!-- Generated by graphviz version 2.26.3 (20100126.1600)
 -->
<!-- Title: FirstlevelCluster Pages: 1 -->
<svg width="376pt" height="251pt"
 viewBox="0.00 0.00 376.00 251.00" xmlns="http://www.w3.org/2000/svg" xmlns:xlink="http://www.w3.org/1999/xlink">
<g id="graph1" class="graph" transform="scale(1 1) rotate(0) translate(4 247)">
<title>FirstlevelCluster</title>
<polygon fill="white" stroke="white" points="-4,5 -4,-247 373,-247 373,5 -4,5"/>
<g id="graph2" class="cluster"><title>cluster_0</title>
<polygon fill="none" stroke="black" points="1.23812,-0.640888 1.23812,-242.641 367.238,-242.641 367.238,-0.640888 1.23812,-0.640888"/>
<text text-anchor="middle" x="184.238" y="-226.041" font-family="Times Roman,serif" font-size="14.00">&gt;D3T~OLT</text>
</g>
<g id="graph3" class="cluster"><title>cluster_2</title>
<polygon fill="lightgrey" stroke="black" points="10.4762,-28.7818 10.4762,-207.782 176.476,-207.782 176.476,-28.7818 10.4762,-28.7818"/>
<text text-anchor="middle" x="93.4762" y="-191.182" font-family="Times Roman,serif" font-size="14.00">100001</text>
</g>
<g id="graph4" class="cluster"><title>cluster_3</title>
<polygon fill="lightgrey" stroke="black" points="218.976,-9.28178 218.976,-191.282 357.976,-191.282 357.976,-9.28178 218.976,-9.28178"/>
<text text-anchor="middle" x="288.476" y="-174.682" font-family="Times Roman,serif" font-size="14.00">000001</text>
</g>
<!-- CON2 -->
<g id="node3" class="node"><title>CON2</title>
<text text-anchor="middle" x="46.1067" y="-95.6656" font-family="Times Roman,serif" font-size="16.00">CON</text>
</g>
<!-- D3T2 -->
<g id="node5" class="node"><title>D3T2</title>
<text text-anchor="middle" x="106.952" y="-51.2848" font-family="Times Roman,serif" font-size="16.00">D3T</text>
</g>
<!-- CON2&#45;&gt;D3T2 -->
<g id="edge4" class="edge"><title>CON2&#45;&gt;D3T2</title>
<path fill="none" stroke="black" d="M70.8547,-82.0143C71.7759,-81.3423 72.7043,-80.6651 73.6364,-79.9852"/>
<polygon fill="black" stroke="black" points="76.0115,-82.585 82.0281,-73.8643 71.8864,-76.9296 76.0115,-82.585"/>
</g>
<!-- OLT2 -->
<g id="node6" class="node"><title>OLT2</title>
<text text-anchor="middle" x="79.41" y="-150.423" font-family="Times Roman,serif" font-size="16.00">OLT</text>
</g>
<!-- CON2&#45;&gt;OLT2 -->
<g id="edge6" class="edge"><title>CON2&#45;&gt;OLT2</title>
<path fill="none" stroke="black" d="M57.1962,-118.299C59.0304,-121.315 60.9664,-124.498 62.8998,-127.677"/>
<polygon fill="black" stroke="black" points="60.0686,-129.757 68.2554,-136.482 66.0493,-126.12 60.0686,-129.757"/>
</g>
<!-- BNF2 -->
<g id="node4" class="node"><title>BNF2</title>
<text text-anchor="middle" x="140.255" y="-106.042" font-family="Times Roman,serif" font-size="16.00">BNF</text>
</g>
<!-- BNF2&#45;&gt;D3T2 -->
<g id="edge8" class="edge"><title>BNF2&#45;&gt;D3T2</title>
<path fill="none" stroke="black" d="M129.166,-92.2088C127.331,-89.193 125.395,-86.0099 123.462,-82.8309"/>
<polygon fill="black" stroke="black" points="126.293,-80.7505 118.106,-74.0253 120.312,-84.388 126.293,-80.7505"/>
</g>
<!-- BNF2&#45;&gt;OLT2 -->
<g id="edge10" class="edge"><title>BNF2&#45;&gt;OLT2</title>
<path fill="none" stroke="black" d="M115.507,-128.494C114.586,-129.166 113.657,-129.843 112.725,-130.523"/>
<polygon fill="black" stroke="black" points="110.35,-127.923 104.334,-136.644 114.475,-133.578 110.35,-127.923"/>
</g>
<!-- CON3 -->
<g id="node12" class="node"><title>CON3</title>
<text text-anchor="middle" x="255.094" y="-80.4008" font-family="Times Roman,serif" font-size="16.00">CON</text>
</g>
<!-- BNF3 -->
<g id="node13" class="node"><title>BNF3</title>
<text text-anchor="middle" x="321.537" y="-89.21" font-family="Times Roman,serif" font-size="16.00">BNF</text>
</g>
<!-- CON3&#45;&gt;BNF3 -->
<g id="edge13" class="edge"><title>CON3&#45;&gt;BNF3</title>
<path fill="none" stroke="black" d="M282.119,-88.3838C282.873,-88.4839 283.632,-88.5845 284.394,-88.6855"/>
<polygon fill="black" stroke="black" points="283.947,-92.1568 294.321,-90.0015 284.867,-85.2175 283.947,-92.1568"/>
</g>
<!-- D3T3 -->
<g id="node14" class="node"><title>D3T3</title>
<text text-anchor="middle" x="298.272" y="-32.3806" font-family="Times Roman,serif" font-size="16.00">D3T</text>
</g>
<!-- CON3&#45;&gt;D3T3 -->
<g id="edge15" class="edge"><title>CON3&#45;&gt;D3T3</title>
<path fill="none" stroke="black" d="M271.418,-66.6464C272.6,-65.3317 273.804,-63.9921 275.016,-62.6446"/>
<polygon fill="black" stroke="black" points="277.842,-64.7369 281.925,-54.9607 272.636,-60.0564 277.842,-64.7369"/>
</g>
<!-- OLT3 -->
<g id="node15" class="node"><title>OLT3</title>
<text text-anchor="middle" x="279.309" y="-133.805" font-family="Times Roman,serif" font-size="16.00">OLT</text>
</g>
<!-- CON3&#45;&gt;OLT3 -->
<g id="edge17" class="edge"><title>CON3&#45;&gt;OLT3</title>
<path fill="none" stroke="black" d="M263.292,-102.881C264.475,-105.491 265.715,-108.224 266.957,-110.964"/>
<polygon fill="black" stroke="black" points="263.802,-112.481 271.12,-120.143 270.177,-109.59 263.802,-112.481"/>
</g>
<!-- BNF3&#45;&gt;D3T3 -->
<g id="edge19" class="edge"><title>BNF3&#45;&gt;D3T3</title>
<path fill="none" stroke="black" d="M314.048,-75.316C312.637,-71.8685 311.132,-68.1923 309.633,-64.5309"/>
<polygon fill="black" stroke="black" points="312.775,-62.9688 305.748,-55.0403 306.297,-65.6209 312.775,-62.9688"/>
</g>
<!-- BNF3&#45;&gt;OLT3 -->
<g id="edge21" class="edge"><title>BNF3&#45;&gt;OLT3</title>
<path fill="none" stroke="black" d="M304.362,-111.748C304.122,-112.002 303.882,-112.256 303.64,-112.51"/>
<polygon fill="black" stroke="black" points="300.941,-110.27 296.607,-119.938 306.024,-115.083 300.941,-110.27"/>
</g>
</g>
</svg>
