<?xml version="1.0" encoding="UTF-8" standalone="no"?>
<!DOCTYPE svg PUBLIC "-//W3C//DTD SVG 1.1//EN"
 "http://www.w3.org/Graphics/SVG/1.1/DTD/svg11.dtd">
<!-- Generated by graphviz version 2.26.3 (20100126.1600)
 -->
<!-- Title: FirstlevelCluster Pages: 1 -->
<svg width="428pt" height="464pt"
 viewBox="0.00 0.00 428.00 464.00" xmlns="http://www.w3.org/2000/svg" xmlns:xlink="http://www.w3.org/1999/xlink">
<g id="graph1" class="graph" transform="scale(1 1) rotate(0) translate(4 460)">
<title>FirstlevelCluster</title>
<polygon fill="white" stroke="white" points="-4,5 -4,-460 425,-460 425,5 -4,5"/>
<g id="graph2" class="cluster"><title>cluster_0</title>
<polygon fill="none" stroke="black" points="0.738117,-0.640888 0.738117,-454.641 419.738,-454.641 419.738,-0.640888 0.738117,-0.640888"/>
<text text-anchor="middle" x="210.238" y="-438.041" font-family="Times Roman,serif" font-size="14.00">D3T&gt;</text>
</g>
<g id="graph3" class="cluster"><title>cluster_2</title>
<polygon fill="lightgrey" stroke="black" points="9.97623,-28.7818 9.97623,-215.782 189.976,-215.782 189.976,-28.7818 9.97623,-28.7818"/>
<text text-anchor="middle" x="99.9762" y="-199.182" font-family="Times Roman,serif" font-size="14.00">222220</text>
</g>
<g id="graph4" class="cluster"><title>cluster_3</title>
<polygon fill="none" stroke="black" points="229.476,-229.282 229.476,-419.282 368.476,-419.282 368.476,-229.282 229.476,-229.282"/>
<text text-anchor="middle" x="298.976" y="-402.682" font-family="Times Roman,serif" font-size="14.00">021210</text>
</g>
<g id="graph5" class="cluster"><title>cluster_4</title>
<polygon fill="lightgrey" stroke="black" points="229.476,-9.28178 229.476,-195.282 410.476,-195.282 410.476,-9.28178 229.476,-9.28178"/>
<text text-anchor="middle" x="319.976" y="-178.682" font-family="Times Roman,serif" font-size="14.00">222210</text>
</g>
<!-- CON2 -->
<g id="node3" class="node"><title>CON2</title>
<text text-anchor="middle" x="46.3532" y="-96.3791" font-family="Times Roman,serif" font-size="16.00">CON</text>
</g>
<!-- BNF2 -->
<g id="node4" class="node"><title>BNF2</title>
<text text-anchor="middle" x="153.531" y="-113.616" font-family="Times Roman,serif" font-size="16.00">BNF</text>
</g>
<!-- BNF2&#45;&gt;CON2 -->
<g id="edge4" class="edge"><title>BNF2&#45;&gt;CON2</title>
<path fill="none" stroke="black" d="M126.485,-113.667C113.411,-111.564 97.5173,-109.008 83.3425,-106.728"/>
<polygon fill="black" stroke="black" points="83.8188,-103.26 73.3899,-105.127 82.7072,-110.171 83.8188,-103.26"/>
</g>
<!-- D3T2 -->
<g id="node5" class="node"><title>D3T2</title>
<text text-anchor="middle" x="109.852" y="-51.1935" font-family="Times Roman,serif" font-size="16.00">D3T</text>
</g>
<!-- D3T2&#45;&gt;CON2 -->
<g id="edge6" class="edge"><title>D3T2&#45;&gt;CON2</title>
<path fill="none" stroke="black" d="M84.3902,-73.7119C82.967,-74.7247 81.5261,-75.75 80.0798,-76.7792"/>
<polygon fill="black" stroke="black" points="77.9386,-74.0071 71.8202,-82.6567 81.9972,-79.7105 77.9386,-74.0071"/>
</g>
<!-- D3T2&#45;&gt;BNF2 -->
<g id="edge8" class="edge"><title>D3T2&#45;&gt;BNF2</title>
<path fill="none" stroke="black" d="M122.485,-73.6488C126.345,-79.1647 130.674,-85.3517 134.846,-91.3143"/>
<polygon fill="black" stroke="black" points="132.173,-93.5987 140.774,-99.7855 137.908,-89.5855 132.173,-93.5987"/>
</g>
<!-- OLT2 -->
<g id="node6" class="node"><title>OLT2</title>
<text text-anchor="middle" x="90.0322" y="-158.802" font-family="Times Roman,serif" font-size="16.00">OLT</text>
</g>
<!-- D3T2&#45;&gt;OLT2 -->
<g id="edge10" class="edge"><title>D3T2&#45;&gt;OLT2</title>
<path fill="none" stroke="black" d="M106.489,-73.8479C103.414,-90.5439 98.8168,-115.506 95.262,-134.807"/>
<polygon fill="black" stroke="black" points="91.7801,-134.39 93.4107,-144.858 98.6643,-135.658 91.7801,-134.39"/>
</g>
<!-- OLT2&#45;&gt;CON2 -->
<g id="edge12" class="edge"><title>OLT2&#45;&gt;CON2</title>
<path fill="none" stroke="black" d="M77.3984,-145.147C73.5387,-139.631 69.2096,-133.444 65.0374,-127.481"/>
<polygon fill="black" stroke="black" points="67.7107,-125.197 59.1099,-119.01 61.9753,-129.21 67.7107,-125.197"/>
</g>
<!-- OLT2&#45;&gt;BNF2 -->
<g id="edge14" class="edge"><title>OLT2&#45;&gt;BNF2</title>
<path fill="none" stroke="black" d="M115.494,-145.084C116.917,-144.071 118.358,-143.046 119.804,-142.016"/>
<polygon fill="black" stroke="black" points="121.945,-144.788 128.064,-136.139 117.887,-139.085 121.945,-144.788"/>
</g>
<!-- CON3 -->
<g id="node14" class="node"><title>CON3</title>
<text text-anchor="middle" x="265.164" y="-296.99" font-family="Times Roman,serif" font-size="16.00">CON</text>
</g>
<!-- BNF3 -->
<g id="node15" class="node"><title>BNF3</title>
<text text-anchor="middle" x="316.463" y="-252.201" font-family="Times Roman,serif" font-size="16.00">BNF</text>
</g>
<!-- CON3&#45;&gt;BNF3 -->
<g id="edge17" class="edge"><title>CON3&#45;&gt;BNF3</title>
<path fill="none" stroke="black" d="M286.029,-283.173C286.733,-282.558 287.442,-281.939 288.154,-281.318"/>
<polygon fill="black" stroke="black" points="290.552,-283.871 295.783,-274.657 285.948,-278.598 290.552,-283.871"/>
</g>
<!-- D3T3 -->
<g id="node16" class="node"><title>D3T3</title>
<text text-anchor="middle" x="332.687" y="-312.617" font-family="Times Roman,serif" font-size="16.00">D3T</text>
</g>
<!-- D3T3&#45;&gt;CON3 -->
<g id="edge19" class="edge"><title>D3T3&#45;&gt;CON3</title>
<path fill="none" stroke="black" d="M305.612,-310.751C304.511,-310.496 303.401,-310.239 302.285,-309.981"/>
<polygon fill="black" stroke="black" points="302.777,-306.503 292.245,-307.658 301.199,-313.322 302.777,-306.503"/>
</g>
<!-- D3T3&#45;&gt;BNF3 -->
<g id="edge21" class="edge"><title>D3T3&#45;&gt;BNF3</title>
<path fill="none" stroke="black" d="M327.819,-298.891C326.6,-294.35 325.264,-289.374 323.95,-284.48"/>
<polygon fill="black" stroke="black" points="327.301,-283.465 321.328,-274.715 320.541,-285.281 327.301,-283.465"/>
</g>
<!-- OLT3 -->
<g id="node17" class="node"><title>OLT3</title>
<text text-anchor="middle" x="307.172" y="-362.29" font-family="Times Roman,serif" font-size="16.00">OLT</text>
</g>
<!-- D3T3&#45;&gt;OLT3 -->
<g id="edge23" class="edge"><title>D3T3&#45;&gt;OLT3</title>
<path fill="none" stroke="black" d="M323.331,-335.232C322.638,-336.582 321.93,-337.96 321.217,-339.348"/>
<polygon fill="black" stroke="black" points="317.983,-337.984 316.527,-348.478 324.209,-341.182 317.983,-337.984"/>
</g>
<!-- CON4 -->
<g id="node23" class="node"><title>CON4</title>
<text text-anchor="middle" x="265.902" y="-78.8599" font-family="Times Roman,serif" font-size="16.00">CON</text>
</g>
<!-- BNF4 -->
<g id="node24" class="node"><title>BNF4</title>
<text text-anchor="middle" x="374.006" y="-82.2964" font-family="Times Roman,serif" font-size="16.00">BNF</text>
</g>
<!-- BNF4&#45;&gt;CON4 -->
<g id="edge26" class="edge"><title>BNF4&#45;&gt;CON4</title>
<path fill="none" stroke="black" d="M347.006,-85.8381C333.72,-85.4158 317.497,-84.9001 303.061,-84.4412"/>
<polygon fill="black" stroke="black" points="303.039,-80.9388 292.933,-84.1192 302.816,-87.9353 303.039,-80.9388"/>
</g>
<!-- D3T4 -->
<g id="node25" class="node"><title>D3T4</title>
<text text-anchor="middle" x="320.969" y="-31.4954" font-family="Times Roman,serif" font-size="16.00">D3T</text>
</g>
<!-- D3T4&#45;&gt;CON4 -->
<g id="edge28" class="edge"><title>D3T4&#45;&gt;CON4</title>
<path fill="none" stroke="black" d="M299.836,-54.0723C298.111,-55.556 296.351,-57.0703 294.584,-58.59"/>
<polygon fill="black" stroke="black" points="292.186,-56.0354 286.887,-65.2099 296.751,-61.3424 292.186,-56.0354"/>
</g>
<!-- D3T4&#45;&gt;BNF4 -->
<g id="edge30" class="edge"><title>D3T4&#45;&gt;BNF4</title>
<path fill="none" stroke="black" d="M339.817,-53.9489C342.259,-56.2875 344.795,-58.7169 347.334,-61.1482"/>
<polygon fill="black" stroke="black" points="345.218,-63.9686 354.861,-68.3583 350.06,-58.9135 345.218,-63.9686"/>
</g>
<!-- OLT4 -->
<g id="node26" class="node"><title>OLT4</title>
<text text-anchor="middle" x="298.778" y="-137.551" font-family="Times Roman,serif" font-size="16.00">OLT</text>
</g>
<!-- D3T4&#45;&gt;OLT4 -->
<g id="edge32" class="edge"><title>D3T4&#45;&gt;OLT4</title>
<path fill="none" stroke="black" d="M317.104,-54.3689C313.667,-70.7932 308.591,-95.0508 304.652,-113.875"/>
<polygon fill="black" stroke="black" points="301.221,-113.184 302.599,-123.689 308.073,-114.618 301.221,-113.184"/>
</g>
<!-- OLT4&#45;&gt;CON4 -->
<g id="edge34" class="edge"><title>OLT4&#45;&gt;CON4</title>
<path fill="none" stroke="black" d="M288.556,-123.703C286.183,-119.467 283.608,-114.869 281.073,-110.344"/>
<polygon fill="black" stroke="black" points="283.945,-108.31 276.004,-101.296 277.838,-111.731 283.945,-108.31"/>
</g>
</g>
</svg>
