<?xml version="1.0" encoding="UTF-8" standalone="no"?>
<!DOCTYPE svg PUBLIC "-//W3C//DTD SVG 1.1//EN"
 "http://www.w3.org/Graphics/SVG/1.1/DTD/svg11.dtd">
<!-- Generated by graphviz version 2.26.3 (20100126.1600)
 -->
<!-- Title: FirstlevelCluster Pages: 1 -->
<svg width="433pt" height="268pt"
 viewBox="0.00 0.00 433.00 268.00" xmlns="http://www.w3.org/2000/svg" xmlns:xlink="http://www.w3.org/1999/xlink">
<g id="graph1" class="graph" transform="scale(1 1) rotate(0) translate(4 264)">
<title>FirstlevelCluster</title>
<polygon fill="white" stroke="white" points="-4,5 -4,-264 430,-264 430,5 -4,5"/>
<g id="graph2" class="cluster"><title>cluster_0</title>
<polygon fill="none" stroke="black" points="0.238117,-0.640888 0.238117,-258.641 424.238,-258.641 424.238,-0.640888 0.238117,-0.640888"/>
<text text-anchor="middle" x="212.238" y="-242.041" font-family="Times Roman,serif" font-size="14.00">&gt;D3T</text>
</g>
<g id="graph3" class="cluster"><title>cluster_2</title>
<polygon fill="lightgrey" stroke="black" points="228.976,-9.78178 228.976,-166.782 415.976,-166.782 415.976,-9.78178 228.976,-9.78178"/>
<text text-anchor="middle" x="322.476" y="-150.182" font-family="Times Roman,serif" font-size="14.00">100002</text>
</g>
<g id="graph4" class="cluster"><title>cluster_3</title>
<polygon fill="lightgrey" stroke="black" points="8.97623,-28.7818 8.97623,-223.782 185.976,-223.782 185.976,-28.7818 8.97623,-28.7818"/>
<text text-anchor="middle" x="97.4762" y="-207.182" font-family="Times Roman,serif" font-size="14.00">101012</text>
</g>
<!-- CON2 -->
<g id="node3" class="node"><title>CON2</title>
<text text-anchor="middle" x="264.678" y="-60.1294" font-family="Times Roman,serif" font-size="16.00">CON</text>
</g>
<!-- D3T2 -->
<g id="node5" class="node"><title>D3T2</title>
<text text-anchor="middle" x="330.153" y="-31.9845" font-family="Times Roman,serif" font-size="16.00">D3T</text>
</g>
<!-- CON2&#45;&gt;D3T2 -->
<g id="edge4" class="edge"><title>CON2&#45;&gt;D3T2</title>
<path fill="none" stroke="black" d="M291.687,-52.9193C292.259,-52.6732 292.834,-52.4262 293.411,-52.1783"/>
<polygon fill="black" stroke="black" points="294.978,-55.3145 302.783,-48.1498 292.213,-48.8835 294.978,-55.3145"/>
</g>
<!-- OLT2 -->
<g id="node6" class="node"><title>OLT2</title>
<text text-anchor="middle" x="314.207" y="-109.4" font-family="Times Roman,serif" font-size="16.00">OLT</text>
</g>
<!-- CON2&#45;&gt;OLT2 -->
<g id="edge6" class="edge"><title>CON2&#45;&gt;OLT2</title>
<path fill="none" stroke="black" d="M282.839,-82.5961C284.724,-84.4705 286.663,-86.3997 288.609,-88.3357"/>
<polygon fill="black" stroke="black" points="286.489,-91.164 296.047,-95.7352 291.426,-86.2013 286.489,-91.164"/>
</g>
<!-- BNF2 -->
<g id="node4" class="node"><title>BNF2</title>
<text text-anchor="middle" x="379.682" y="-81.2548" font-family="Times Roman,serif" font-size="16.00">BNF</text>
</g>
<!-- BNF2&#45;&gt;D3T2 -->
<g id="edge8" class="edge"><title>BNF2&#45;&gt;D3T2</title>
<path fill="none" stroke="black" d="M361.52,-67.5881C359.636,-65.7137 357.697,-63.7845 355.75,-61.8485"/>
<polygon fill="black" stroke="black" points="357.87,-59.0202 348.312,-54.449 352.933,-63.9829 357.87,-59.0202"/>
</g>
<!-- BNF2&#45;&gt;OLT2 -->
<g id="edge10" class="edge"><title>BNF2&#45;&gt;OLT2</title>
<path fill="none" stroke="black" d="M352.673,-97.2649C352.1,-97.511 351.525,-97.7581 350.949,-98.0059"/>
<polygon fill="black" stroke="black" points="349.382,-94.8697 341.577,-102.034 352.146,-101.301 349.382,-94.8697"/>
</g>
<!-- OLT2&#45;&gt;D3T2 -->
<g id="edge12" class="edge"><title>OLT2&#45;&gt;D3T2</title>
<path fill="none" stroke="black" d="M317.986,-95.4534C319.892,-86.1979 322.246,-74.7712 324.373,-64.4418"/>
<polygon fill="black" stroke="black" points="327.811,-65.0997 326.401,-54.5991 320.955,-63.6874 327.811,-65.0997"/>
</g>
<!-- CON3 -->
<g id="node13" class="node"><title>CON3</title>
<text text-anchor="middle" x="45.14" y="-51.5764" font-family="Times Roman,serif" font-size="16.00">CON</text>
</g>
<!-- D3T3 -->
<g id="node15" class="node"><title>D3T3</title>
<text text-anchor="middle" x="91.3806" y="-113.162" font-family="Times Roman,serif" font-size="16.00">D3T</text>
</g>
<!-- CON3&#45;&gt;D3T3 -->
<g id="edge15" class="edge"><title>CON3&#45;&gt;D3T3</title>
<path fill="none" stroke="black" d="M58.7636,-74.1209C62.773,-79.4608 67.2435,-85.4148 71.5576,-91.1606"/>
<polygon fill="black" stroke="black" points="68.8914,-93.4388 77.6946,-99.3341 74.4891,-89.2357 68.8914,-93.4388"/>
</g>
<!-- BNF3 -->
<g id="node14" class="node"><title>BNF3</title>
<text text-anchor="middle" x="150.449" y="-63.8644" font-family="Times Roman,serif" font-size="16.00">BNF</text>
</g>
<!-- BNF3&#45;&gt;D3T3 -->
<g id="edge17" class="edge"><title>BNF3&#45;&gt;D3T3</title>
<path fill="none" stroke="black" d="M128.789,-86.341C126.221,-88.4844 123.567,-90.6993 120.913,-92.9142"/>
<polygon fill="black" stroke="black" points="118.472,-90.3927 113.037,-99.4873 122.958,-95.7669 118.472,-90.3927"/>
</g>
<!-- OLT3 -->
<g id="node16" class="node"><title>OLT3</title>
<text text-anchor="middle" x="84.2056" y="-166.419" font-family="Times Roman,serif" font-size="16.00">OLT</text>
</g>
<!-- OLT3&#45;&gt;D3T3 -->
<g id="edge19" class="edge"><title>OLT3&#45;&gt;D3T3</title>
<path fill="none" stroke="black" d="M86.6347,-152.789C86.9503,-150.446 87.2793,-148.004 87.6104,-145.547"/>
<polygon fill="black" stroke="black" points="91.0874,-145.951 88.954,-135.574 84.1501,-145.017 91.0874,-145.951"/>
</g>
</g>
</svg>
